%TF.GenerationSoftware,KiCad,Pcbnew,5.1.9-73d0e3b20d~88~ubuntu20.10.1*%
%TF.CreationDate,2021-03-23T08:11:44+00:00*%
%TF.ProjectId,A500,41353030-2e6b-4696-9361-645f70636258,rev?*%
%TF.SameCoordinates,Original*%
%TF.FileFunction,Paste,Top*%
%TF.FilePolarity,Positive*%
%FSLAX46Y46*%
G04 Gerber Fmt 4.6, Leading zero omitted, Abs format (unit mm)*
G04 Created by KiCad (PCBNEW 5.1.9-73d0e3b20d~88~ubuntu20.10.1) date 2021-03-23 08:11:44*
%MOMM*%
%LPD*%
G01*
G04 APERTURE LIST*
%ADD10R,0.550000X1.500000*%
%ADD11R,1.500000X0.550000*%
G04 APERTURE END LIST*
D10*
%TO.C,U3*%
X99250000Y-43292000D03*
X98450000Y-43292000D03*
X97650000Y-43292000D03*
X96850000Y-43292000D03*
X96050000Y-43292000D03*
X95250000Y-43292000D03*
X94450000Y-43292000D03*
X93650000Y-43292000D03*
X92850000Y-43292000D03*
X92050000Y-43292000D03*
X91250000Y-43292000D03*
D11*
X89550000Y-41592000D03*
X89550000Y-40792000D03*
X89550000Y-39992000D03*
X89550000Y-39192000D03*
X89550000Y-38392000D03*
X89550000Y-37592000D03*
X89550000Y-36792000D03*
X89550000Y-35992000D03*
X89550000Y-35192000D03*
X89550000Y-34392000D03*
X89550000Y-33592000D03*
D10*
X91250000Y-31892000D03*
X92050000Y-31892000D03*
X92850000Y-31892000D03*
X93650000Y-31892000D03*
X94450000Y-31892000D03*
X95250000Y-31892000D03*
X96050000Y-31892000D03*
X96850000Y-31892000D03*
X97650000Y-31892000D03*
X98450000Y-31892000D03*
X99250000Y-31892000D03*
D11*
X100950000Y-33592000D03*
X100950000Y-34392000D03*
X100950000Y-35192000D03*
X100950000Y-35992000D03*
X100950000Y-36792000D03*
X100950000Y-37592000D03*
X100950000Y-38392000D03*
X100950000Y-39192000D03*
X100950000Y-39992000D03*
X100950000Y-40792000D03*
X100950000Y-41592000D03*
%TD*%
M02*
