M48
INCH,TZ
T1C0.0157
T2C0.0315
T3C0.0394
%
G90
G05
T1
X30750Y-11150
X31900Y-15100
X32250Y-12150
X32250Y-13100
X32341Y-16259
X32650Y-13800
X32900Y-23550
X33450Y-13800
X33450Y-14750
X33550Y-21450
X33600Y-15400
X33950Y-16400
X33979Y-17150
X34025Y-19375
X34150Y-10850
X34265Y-16100
X34350Y-12100
X34450Y-14800
X34550Y-15750
X34635Y-12785
X34975Y-16850
X35400Y-17700
X35800Y-26250
X35850Y-21175
X35875Y-14850
X35900Y-13850
X35925Y-14375
X35950Y-11650
X36175Y-15850
X36200Y-17700
X36235Y-12000
X36306Y-24500
X36550Y-11250
X36550Y-20450
X36550Y-21600
X36700Y-24500
X36739Y-14860
X36850Y-13200
X36950Y-11800
X37200Y-19600
X37216Y-13346
X37300Y-22550
X37600Y-13200
X37850Y-18350
X37850Y-20350
X37850Y-28350
X37850Y-45950
X38050Y-21400
X38100Y-26750
X38150Y-13200
X38150Y-23900
X38550Y-47050
X38643Y-14593
X38800Y-13600
X38805Y-10822
X38900Y-26750
X39000Y-15100
X39000Y-16050
X39100Y-22200
X39250Y-50750
X39300Y-21400
X39450Y-11950
X39550Y-20050
X39600Y-23800
X39735Y-11672
X39900Y-42150
X39902Y-21598
X40000Y-21100
X40021Y-11983
X40475Y-16375
X40500Y-15700
X40500Y-48000
X40525Y-14750
X40600Y-12100
X40700Y-16900
X40700Y-46150
X40800Y-44200
X40950Y-20750
X41200Y-13600
X41200Y-26100
X41250Y-18200
X41800Y-15125
X42300Y-20650
X42400Y-25250
X42500Y-11650
X42700Y-16850
X42750Y-19550
X43200Y-8350
T2
X25000Y-12700
X35728Y-27152
X35728Y-28152
X35728Y-29152
X35728Y-30152
X35728Y-31152
X35728Y-32152
X35728Y-33152
X35728Y-34152
X35728Y-35152
X35728Y-36152
X35728Y-37152
X35728Y-38152
X35728Y-39152
X35728Y-40152
X35728Y-41152
X35728Y-42152
X35728Y-43152
X35728Y-44152
X35728Y-45152
X35728Y-46152
X35728Y-47152
X35728Y-48152
X35728Y-49152
X35728Y-50152
X36800Y-27160
X36800Y-28160
X36800Y-29160
X36800Y-30160
X36800Y-31160
X36800Y-32160
X36800Y-33160
X36800Y-34160
X36800Y-35160
X36800Y-36160
X36800Y-37160
X36800Y-38160
X36800Y-39160
X36800Y-40160
X36800Y-41160
X36800Y-42160
X36800Y-43160
X36800Y-44160
X36800Y-45160
X36800Y-46160
X36800Y-47160
X36800Y-48160
X36800Y-49160
X36800Y-50160
X41728Y-27152
X41728Y-28152
X41728Y-29152
X41728Y-30152
X41728Y-31152
X41728Y-32152
X41728Y-33152
X41728Y-34152
X41728Y-35152
X41728Y-36152
X41728Y-37152
X41728Y-38152
X41728Y-39152
X41728Y-40152
X41728Y-41152
X41728Y-42152
X41728Y-43152
X41728Y-44152
X41728Y-45152
X41728Y-46152
X41728Y-47152
X41728Y-48152
X41728Y-49152
X41728Y-50152
X42800Y-27160
X42800Y-28160
X42800Y-29160
X42800Y-30160
X42800Y-31160
X42800Y-32160
X42800Y-33160
X42800Y-34160
X42800Y-35160
X42800Y-36160
X42800Y-37160
X42800Y-38160
X42800Y-39160
X42800Y-40160
X42800Y-41160
X42800Y-42160
X42800Y-43160
X42800Y-44160
X42800Y-45160
X42800Y-46160
X42800Y-47160
X42800Y-48160
X42800Y-49160
X42800Y-50160
T3
X23500Y-9000
X23500Y-10000
X24500Y-9000
X24500Y-10000
X25500Y-9000
X25500Y-10000
X26500Y-9000
X26500Y-10000
X27500Y-9000
X27500Y-10000
X28500Y-9000
X28500Y-10000
X29500Y-9000
X29500Y-10000
X30500Y-9000
X30500Y-10000
X31500Y-9000
X31500Y-10000
X32500Y-9000
X32500Y-10000
X33500Y-9000
X33500Y-10000
X34500Y-9000
X34500Y-10000
X35500Y-9000
X35500Y-10000
X36500Y-9000
X36500Y-10000
X37500Y-9000
X37500Y-10000
X38500Y-9000
X38500Y-10000
X39500Y-9000
X39500Y-10000
X40500Y-9000
X40500Y-10000
X41500Y-9000
X41500Y-10000
X42050Y-12650
X42050Y-13650
X42500Y-9000
X42500Y-10000
T0
M30
