%TF.GenerationSoftware,KiCad,Pcbnew,5.1.9-73d0e3b20d~88~ubuntu20.10.1*%
%TF.CreationDate,2021-03-23T08:11:44+00:00*%
%TF.ProjectId,A500,41353030-2e6b-4696-9361-645f70636258,rev?*%
%TF.SameCoordinates,Original*%
%TF.FileFunction,Legend,Bot*%
%TF.FilePolarity,Positive*%
%FSLAX46Y46*%
G04 Gerber Fmt 4.6, Leading zero omitted, Abs format (unit mm)*
G04 Created by KiCad (PCBNEW 5.1.9-73d0e3b20d~88~ubuntu20.10.1) date 2021-03-23 08:11:44*
%MOMM*%
%LPD*%
G01*
G04 APERTURE LIST*
%ADD10C,0.120000*%
%ADD11C,0.150000*%
G04 APERTURE END LIST*
D10*
%TO.C,C1*%
X60600000Y-30022748D02*
X60600000Y-31445252D01*
X58780000Y-30022748D02*
X58780000Y-31445252D01*
%TO.C,R3*%
X94360276Y-35574500D02*
X94869724Y-35574500D01*
X94360276Y-34529500D02*
X94869724Y-34529500D01*
%TO.C,C4*%
X92458000Y-46843733D02*
X92458000Y-47136267D01*
X91438000Y-46843733D02*
X91438000Y-47136267D01*
%TO.C,C3*%
X86252267Y-36324000D02*
X85959733Y-36324000D01*
X86252267Y-35304000D02*
X85959733Y-35304000D01*
%TO.C,U2*%
X91972001Y-67886400D02*
X91972000Y-128506400D01*
X91972000Y-128506400D02*
X110211999Y-128506400D01*
X110211999Y-128506400D02*
X110212000Y-67886400D01*
X110212000Y-67886400D02*
X104132000Y-67886400D01*
X104132000Y-67886400D02*
X104132000Y-68246400D01*
X104132000Y-68246400D02*
X98052001Y-68246400D01*
X98052001Y-68246400D02*
X98052001Y-67886400D01*
X98052001Y-67886400D02*
X91972001Y-67886400D01*
%TO.C,R2*%
X104393276Y-29224500D02*
X104902724Y-29224500D01*
X104393276Y-28179500D02*
X104902724Y-28179500D01*
%TO.C,R1*%
X108951500Y-33654276D02*
X108951500Y-34163724D01*
X109996500Y-33654276D02*
X109996500Y-34163724D01*
%TO.C,C2*%
X97643733Y-28446000D02*
X97936267Y-28446000D01*
X97643733Y-29466000D02*
X97936267Y-29466000D01*
%TO.C,C1*%
D11*
X58197142Y-30567333D02*
X58244761Y-30519714D01*
X58292380Y-30376857D01*
X58292380Y-30281619D01*
X58244761Y-30138761D01*
X58149523Y-30043523D01*
X58054285Y-29995904D01*
X57863809Y-29948285D01*
X57720952Y-29948285D01*
X57530476Y-29995904D01*
X57435238Y-30043523D01*
X57340000Y-30138761D01*
X57292380Y-30281619D01*
X57292380Y-30376857D01*
X57340000Y-30519714D01*
X57387619Y-30567333D01*
X58292380Y-31519714D02*
X58292380Y-30948285D01*
X58292380Y-31234000D02*
X57292380Y-31234000D01*
X57435238Y-31138761D01*
X57530476Y-31043523D01*
X57578095Y-30948285D01*
%TO.C,R3*%
X94781666Y-36934380D02*
X95115000Y-36458190D01*
X95353095Y-36934380D02*
X95353095Y-35934380D01*
X94972142Y-35934380D01*
X94876904Y-35982000D01*
X94829285Y-36029619D01*
X94781666Y-36124857D01*
X94781666Y-36267714D01*
X94829285Y-36362952D01*
X94876904Y-36410571D01*
X94972142Y-36458190D01*
X95353095Y-36458190D01*
X94448333Y-35934380D02*
X93829285Y-35934380D01*
X94162619Y-36315333D01*
X94019761Y-36315333D01*
X93924523Y-36362952D01*
X93876904Y-36410571D01*
X93829285Y-36505809D01*
X93829285Y-36743904D01*
X93876904Y-36839142D01*
X93924523Y-36886761D01*
X94019761Y-36934380D01*
X94305476Y-36934380D01*
X94400714Y-36886761D01*
X94448333Y-36839142D01*
%TO.C,C4*%
X90875142Y-46823333D02*
X90922761Y-46775714D01*
X90970380Y-46632857D01*
X90970380Y-46537619D01*
X90922761Y-46394761D01*
X90827523Y-46299523D01*
X90732285Y-46251904D01*
X90541809Y-46204285D01*
X90398952Y-46204285D01*
X90208476Y-46251904D01*
X90113238Y-46299523D01*
X90018000Y-46394761D01*
X89970380Y-46537619D01*
X89970380Y-46632857D01*
X90018000Y-46775714D01*
X90065619Y-46823333D01*
X90303714Y-47680476D02*
X90970380Y-47680476D01*
X89922761Y-47442380D02*
X90637047Y-47204285D01*
X90637047Y-47823333D01*
%TO.C,C3*%
X86272666Y-34741142D02*
X86320285Y-34788761D01*
X86463142Y-34836380D01*
X86558380Y-34836380D01*
X86701238Y-34788761D01*
X86796476Y-34693523D01*
X86844095Y-34598285D01*
X86891714Y-34407809D01*
X86891714Y-34264952D01*
X86844095Y-34074476D01*
X86796476Y-33979238D01*
X86701238Y-33884000D01*
X86558380Y-33836380D01*
X86463142Y-33836380D01*
X86320285Y-33884000D01*
X86272666Y-33931619D01*
X85939333Y-33836380D02*
X85320285Y-33836380D01*
X85653619Y-34217333D01*
X85510761Y-34217333D01*
X85415523Y-34264952D01*
X85367904Y-34312571D01*
X85320285Y-34407809D01*
X85320285Y-34645904D01*
X85367904Y-34741142D01*
X85415523Y-34788761D01*
X85510761Y-34836380D01*
X85796476Y-34836380D01*
X85891714Y-34788761D01*
X85939333Y-34741142D01*
%TO.C,U2*%
X101853904Y-66338780D02*
X101853904Y-67148304D01*
X101806285Y-67243542D01*
X101758666Y-67291161D01*
X101663428Y-67338780D01*
X101472952Y-67338780D01*
X101377714Y-67291161D01*
X101330095Y-67243542D01*
X101282476Y-67148304D01*
X101282476Y-66338780D01*
X100853904Y-66434019D02*
X100806285Y-66386400D01*
X100711047Y-66338780D01*
X100472952Y-66338780D01*
X100377714Y-66386400D01*
X100330095Y-66434019D01*
X100282476Y-66529257D01*
X100282476Y-66624495D01*
X100330095Y-66767352D01*
X100901523Y-67338780D01*
X100282476Y-67338780D01*
%TO.C,R2*%
X104814666Y-30584380D02*
X105148000Y-30108190D01*
X105386095Y-30584380D02*
X105386095Y-29584380D01*
X105005142Y-29584380D01*
X104909904Y-29632000D01*
X104862285Y-29679619D01*
X104814666Y-29774857D01*
X104814666Y-29917714D01*
X104862285Y-30012952D01*
X104909904Y-30060571D01*
X105005142Y-30108190D01*
X105386095Y-30108190D01*
X104433714Y-29679619D02*
X104386095Y-29632000D01*
X104290857Y-29584380D01*
X104052761Y-29584380D01*
X103957523Y-29632000D01*
X103909904Y-29679619D01*
X103862285Y-29774857D01*
X103862285Y-29870095D01*
X103909904Y-30012952D01*
X104481333Y-30584380D01*
X103862285Y-30584380D01*
%TO.C,R1*%
X109926380Y-30948333D02*
X109450190Y-30615000D01*
X109926380Y-30376904D02*
X108926380Y-30376904D01*
X108926380Y-30757857D01*
X108974000Y-30853095D01*
X109021619Y-30900714D01*
X109116857Y-30948333D01*
X109259714Y-30948333D01*
X109354952Y-30900714D01*
X109402571Y-30853095D01*
X109450190Y-30757857D01*
X109450190Y-30376904D01*
X109926380Y-31900714D02*
X109926380Y-31329285D01*
X109926380Y-31615000D02*
X108926380Y-31615000D01*
X109069238Y-31519761D01*
X109164476Y-31424523D01*
X109212095Y-31329285D01*
%TO.C,C2*%
X97956666Y-30743142D02*
X98004285Y-30790761D01*
X98147142Y-30838380D01*
X98242380Y-30838380D01*
X98385238Y-30790761D01*
X98480476Y-30695523D01*
X98528095Y-30600285D01*
X98575714Y-30409809D01*
X98575714Y-30266952D01*
X98528095Y-30076476D01*
X98480476Y-29981238D01*
X98385238Y-29886000D01*
X98242380Y-29838380D01*
X98147142Y-29838380D01*
X98004285Y-29886000D01*
X97956666Y-29933619D01*
X97575714Y-29933619D02*
X97528095Y-29886000D01*
X97432857Y-29838380D01*
X97194761Y-29838380D01*
X97099523Y-29886000D01*
X97051904Y-29933619D01*
X97004285Y-30028857D01*
X97004285Y-30124095D01*
X97051904Y-30266952D01*
X97623333Y-30838380D01*
X97004285Y-30838380D01*
%TD*%
M02*
