M48
; DRILL file {KiCad 5.1.9-73d0e3b20d~88~ubuntu20.10.1} date Tue Mar 23 08:11:47 2021
; FORMAT={-:-/ absolute / inch / decimal}
; #@! TF.CreationDate,2021-03-23T08:11:47+00:00
; #@! TF.GenerationSoftware,Kicad,Pcbnew,5.1.9-73d0e3b20d~88~ubuntu20.10.1
; #@! TF.FileFunction,Plated,1,2,PTH
FMAT,2
INCH
T1C0.0157
T2C0.0315
T3C0.0394
%
G90
G05
T1
X3.075Y-1.115
X3.19Y-1.51
X3.225Y-1.215
X3.225Y-1.31
X3.2341Y-1.6259
X3.265Y-1.38
X3.29Y-2.355
X3.345Y-1.38
X3.345Y-1.475
X3.355Y-2.145
X3.36Y-1.54
X3.395Y-1.64
X3.3979Y-1.715
X3.4025Y-1.9375
X3.415Y-1.085
X3.4265Y-1.61
X3.435Y-1.21
X3.445Y-1.48
X3.455Y-1.575
X3.4635Y-1.2785
X3.4975Y-1.685
X3.54Y-1.77
X3.58Y-2.625
X3.585Y-2.1175
X3.5875Y-1.485
X3.59Y-1.385
X3.5925Y-1.4375
X3.595Y-1.165
X3.6175Y-1.585
X3.62Y-1.77
X3.6235Y-1.2
X3.6306Y-2.45
X3.655Y-1.125
X3.655Y-2.045
X3.655Y-2.16
X3.67Y-2.45
X3.6739Y-1.486
X3.685Y-1.32
X3.695Y-1.18
X3.72Y-1.96
X3.7216Y-1.3346
X3.73Y-2.255
X3.76Y-1.32
X3.785Y-1.835
X3.785Y-2.035
X3.785Y-2.835
X3.785Y-4.595
X3.805Y-2.14
X3.81Y-2.675
X3.815Y-1.32
X3.815Y-2.39
X3.855Y-4.705
X3.8643Y-1.4593
X3.88Y-1.36
X3.8805Y-1.0822
X3.89Y-2.675
X3.9Y-1.51
X3.9Y-1.605
X3.91Y-2.22
X3.925Y-5.075
X3.93Y-2.14
X3.945Y-1.195
X3.955Y-2.005
X3.96Y-2.38
X3.9735Y-1.1672
X3.99Y-4.215
X3.9902Y-2.1598
X4.0Y-2.11
X4.0021Y-1.1983
X4.0475Y-1.6375
X4.05Y-1.57
X4.05Y-4.8
X4.0525Y-1.475
X4.06Y-1.21
X4.07Y-1.69
X4.07Y-4.615
X4.08Y-4.42
X4.095Y-2.075
X4.12Y-1.36
X4.12Y-2.61
X4.125Y-1.82
X4.18Y-1.5125
X4.23Y-2.065
X4.24Y-2.525
X4.25Y-1.165
X4.27Y-1.685
X4.275Y-1.955
X4.32Y-0.835
T2
X2.5Y-1.27
X3.5728Y-2.7152
X3.5728Y-2.8152
X3.5728Y-2.9152
X3.5728Y-3.0152
X3.5728Y-3.1152
X3.5728Y-3.2152
X3.5728Y-3.3152
X3.5728Y-3.4152
X3.5728Y-3.5152
X3.5728Y-3.6152
X3.5728Y-3.7152
X3.5728Y-3.8152
X3.5728Y-3.9152
X3.5728Y-4.0152
X3.5728Y-4.1152
X3.5728Y-4.2152
X3.5728Y-4.3152
X3.5728Y-4.4152
X3.5728Y-4.5152
X3.5728Y-4.6152
X3.5728Y-4.7152
X3.5728Y-4.8152
X3.5728Y-4.9152
X3.5728Y-5.0152
X3.68Y-2.716
X3.68Y-2.816
X3.68Y-2.916
X3.68Y-3.016
X3.68Y-3.116
X3.68Y-3.216
X3.68Y-3.316
X3.68Y-3.416
X3.68Y-3.516
X3.68Y-3.616
X3.68Y-3.716
X3.68Y-3.816
X3.68Y-3.916
X3.68Y-4.016
X3.68Y-4.116
X3.68Y-4.216
X3.68Y-4.316
X3.68Y-4.416
X3.68Y-4.516
X3.68Y-4.616
X3.68Y-4.716
X3.68Y-4.816
X3.68Y-4.916
X3.68Y-5.016
X4.1728Y-2.7152
X4.1728Y-2.8152
X4.1728Y-2.9152
X4.1728Y-3.0152
X4.1728Y-3.1152
X4.1728Y-3.2152
X4.1728Y-3.3152
X4.1728Y-3.4152
X4.1728Y-3.5152
X4.1728Y-3.6152
X4.1728Y-3.7152
X4.1728Y-3.8152
X4.1728Y-3.9152
X4.1728Y-4.0152
X4.1728Y-4.1152
X4.1728Y-4.2152
X4.1728Y-4.3152
X4.1728Y-4.4152
X4.1728Y-4.5152
X4.1728Y-4.6152
X4.1728Y-4.7152
X4.1728Y-4.8152
X4.1728Y-4.9152
X4.1728Y-5.0152
X4.28Y-2.716
X4.28Y-2.816
X4.28Y-2.916
X4.28Y-3.016
X4.28Y-3.116
X4.28Y-3.216
X4.28Y-3.316
X4.28Y-3.416
X4.28Y-3.516
X4.28Y-3.616
X4.28Y-3.716
X4.28Y-3.816
X4.28Y-3.916
X4.28Y-4.016
X4.28Y-4.116
X4.28Y-4.216
X4.28Y-4.316
X4.28Y-4.416
X4.28Y-4.516
X4.28Y-4.616
X4.28Y-4.716
X4.28Y-4.816
X4.28Y-4.916
X4.28Y-5.016
T3
X2.35Y-0.9
X2.35Y-1.0
X2.45Y-0.9
X2.45Y-1.0
X2.55Y-0.9
X2.55Y-1.0
X2.65Y-0.9
X2.65Y-1.0
X2.75Y-0.9
X2.75Y-1.0
X2.85Y-0.9
X2.85Y-1.0
X2.95Y-0.9
X2.95Y-1.0
X3.05Y-0.9
X3.05Y-1.0
X3.15Y-0.9
X3.15Y-1.0
X3.25Y-0.9
X3.25Y-1.0
X3.35Y-0.9
X3.35Y-1.0
X3.45Y-0.9
X3.45Y-1.0
X3.55Y-0.9
X3.55Y-1.0
X3.65Y-0.9
X3.65Y-1.0
X3.75Y-0.9
X3.75Y-1.0
X3.85Y-0.9
X3.85Y-1.0
X3.95Y-0.9
X3.95Y-1.0
X4.05Y-0.9
X4.05Y-1.0
X4.15Y-0.9
X4.15Y-1.0
X4.205Y-1.265
X4.205Y-1.365
X4.25Y-0.9
X4.25Y-1.0
T0
M30
