M48
; DRILL file {KiCad 6.99.0-unknown-672a8ca39b~146~ubuntu21.04.1} date Fri 14 Jan 2022 10:30:47 GMT
; FORMAT={-:-/ absolute / inch / decimal}
; #@! TF.CreationDate,2022-01-14T10:30:47+00:00
; #@! TF.GenerationSoftware,Kicad,Pcbnew,6.99.0-unknown-672a8ca39b~146~ubuntu21.04.1
; #@! TF.FileFunction,Plated,1,2,PTH
FMAT,2
INCH
; #@! TA.AperFunction,Plated,PTH,ViaDrill
T1C0.0157
; #@! TA.AperFunction,Plated,PTH,ViaDrill
T2C0.0315
; #@! TA.AperFunction,Plated,PTH,ComponentDrill
T3C0.0315
; #@! TA.AperFunction,Plated,PTH,ComponentDrill
T4C0.0394
; #@! TA.AperFunction,Plated,PTH,ComponentDrill
T5C0.0984
%
G90
G05
T1
X3.32Y-1.75
X3.42Y-1.97
X3.45Y-2.1
X3.548Y-1.86
X3.582Y-1.57
X3.634Y-1.756
X3.65Y-1.8813
X3.742Y-4.764
X3.75Y-1.8282
X3.778Y-4.372
X3.7985Y-4.7829
X3.83Y-1.49
X3.87Y-1.44
X3.93Y-1.79
X3.975Y-2.235
X4.01Y-4.452
X4.0374Y-4.842
X4.0882Y-4.574
X4.096Y-4.706
X4.19Y-1.96
T2
X3.335Y-1.935
X3.41Y-2.32
X3.58Y-2.34
X3.74Y-2.35
X3.88Y-1.92
X3.88Y-4.585
X3.91Y-4.245
X3.925Y-5.005
X4.27Y-2.51
T3
X3.5728Y-2.7152
X3.5728Y-2.8152
X3.5728Y-2.9152
X3.5728Y-3.0152
X3.5728Y-3.1152
X3.5728Y-3.2152
X3.5728Y-3.3152
X3.5728Y-3.4152
X3.5728Y-3.5152
X3.5728Y-3.6152
X3.5728Y-3.7152
X3.5728Y-3.8152
X3.5728Y-3.9152
X3.5728Y-4.0152
X3.5728Y-4.1152
X3.5728Y-4.2152
X3.5728Y-4.3152
X3.5728Y-4.4152
X3.5728Y-4.5152
X3.5728Y-4.6152
X3.5728Y-4.7152
X3.5728Y-4.8152
X3.5728Y-4.9152
X3.5728Y-5.0152
X3.686Y-2.714
X3.686Y-2.814
X3.686Y-2.914
X3.686Y-3.014
X3.686Y-3.114
X3.686Y-3.214
X3.686Y-3.314
X3.686Y-3.414
X3.686Y-3.514
X3.686Y-3.614
X3.686Y-3.714
X3.686Y-3.814
X3.686Y-3.914
X3.686Y-4.014
X3.686Y-4.114
X3.686Y-4.214
X3.686Y-4.314
X3.686Y-4.414
X3.686Y-4.514
X3.686Y-4.614
X3.686Y-4.714
X3.686Y-4.814
X3.686Y-4.914
X3.686Y-5.014
X4.1728Y-2.7152
X4.1728Y-2.8152
X4.1728Y-2.9152
X4.1728Y-3.0152
X4.1728Y-3.1152
X4.1728Y-3.2152
X4.1728Y-3.3152
X4.1728Y-3.4152
X4.1728Y-3.5152
X4.1728Y-3.6152
X4.1728Y-3.7152
X4.1728Y-3.8152
X4.1728Y-3.9152
X4.1728Y-4.0152
X4.1728Y-4.1152
X4.1728Y-4.2152
X4.1728Y-4.3152
X4.1728Y-4.4152
X4.1728Y-4.5152
X4.1728Y-4.6152
X4.1728Y-4.7152
X4.1728Y-4.8152
X4.1728Y-4.9152
X4.1728Y-5.0152
X4.286Y-2.714
X4.286Y-2.814
X4.286Y-2.914
X4.286Y-3.014
X4.286Y-3.114
X4.286Y-3.214
X4.286Y-3.314
X4.286Y-3.414
X4.286Y-3.514
X4.286Y-3.614
X4.286Y-3.714
X4.286Y-3.814
X4.286Y-3.914
X4.286Y-4.014
X4.286Y-4.114
X4.286Y-4.214
X4.286Y-4.314
X4.286Y-4.414
X4.286Y-4.514
X4.286Y-4.614
X4.286Y-4.714
X4.286Y-4.814
X4.286Y-4.914
X4.286Y-5.014
T4
X2.35Y-0.9
X2.35Y-1.0
X2.45Y-0.9
X2.45Y-1.0
X2.55Y-0.9
X2.55Y-1.0
X2.65Y-0.9
X2.65Y-1.0
X2.75Y-0.9
X2.75Y-1.0
X2.85Y-0.9
X2.85Y-1.0
X2.95Y-0.9
X2.95Y-1.0
X3.05Y-0.9
X3.05Y-1.0
X3.15Y-0.9
X3.15Y-1.0
X3.25Y-0.9
X3.25Y-1.0
X3.35Y-0.9
X3.35Y-1.0
X3.45Y-0.9
X3.45Y-1.0
X3.55Y-0.9
X3.55Y-1.0
X3.65Y-0.9
X3.65Y-1.0
X3.75Y-0.9
X3.75Y-1.0
X3.85Y-0.9
X3.85Y-1.0
X3.95Y-0.9
X3.95Y-1.0
X4.05Y-0.9
X4.05Y-1.0
X4.15Y-0.9
X4.15Y-1.0
X4.205Y-1.265
X4.205Y-1.365
X4.2058Y-1.618
X4.25Y-0.9
X4.25Y-1.0
T5
X2.156Y-0.95
X4.444Y-0.95
T0
M30
