G04 #@! TF.GenerationSoftware,KiCad,Pcbnew,5.1.10-1.fc34*
G04 #@! TF.CreationDate,2021-06-07T07:45:22+01:00*
G04 #@! TF.ProjectId,A500,41353030-2e6b-4696-9361-645f70636258,rev?*
G04 #@! TF.SameCoordinates,Original*
G04 #@! TF.FileFunction,Copper,L1,Top*
G04 #@! TF.FilePolarity,Positive*
%FSLAX46Y46*%
G04 Gerber Fmt 4.6, Leading zero omitted, Abs format (unit mm)*
G04 Created by KiCad (PCBNEW 5.1.10-1.fc34) date 2021-06-07 07:45:22*
%MOMM*%
%LPD*%
G01*
G04 APERTURE LIST*
G04 #@! TA.AperFunction,SMDPad,CuDef*
%ADD10R,0.550000X1.500000*%
G04 #@! TD*
G04 #@! TA.AperFunction,SMDPad,CuDef*
%ADD11R,1.500000X0.550000*%
G04 #@! TD*
G04 #@! TA.AperFunction,ComponentPad*
%ADD12O,2.000000X1.200000*%
G04 #@! TD*
G04 #@! TA.AperFunction,ComponentPad*
%ADD13O,1.700000X1.700000*%
G04 #@! TD*
G04 #@! TA.AperFunction,ComponentPad*
%ADD14R,1.700000X1.700000*%
G04 #@! TD*
G04 #@! TA.AperFunction,ComponentPad*
%ADD15O,1.600000X1.600000*%
G04 #@! TD*
G04 #@! TA.AperFunction,ComponentPad*
%ADD16R,1.600000X1.600000*%
G04 #@! TD*
G04 #@! TA.AperFunction,ViaPad*
%ADD17C,0.800000*%
G04 #@! TD*
G04 #@! TA.AperFunction,ViaPad*
%ADD18C,1.600000*%
G04 #@! TD*
G04 #@! TA.AperFunction,Conductor*
%ADD19C,0.500000*%
G04 #@! TD*
G04 #@! TA.AperFunction,Conductor*
%ADD20C,0.250000*%
G04 #@! TD*
G04 #@! TA.AperFunction,Conductor*
%ADD21C,0.254000*%
G04 #@! TD*
G04 #@! TA.AperFunction,Conductor*
%ADD22C,0.100000*%
G04 #@! TD*
G04 APERTURE END LIST*
D10*
G04 #@! TO.P,U3,44*
G04 #@! TO.N,/GPIO20*
X99250000Y-43292000D03*
G04 #@! TO.P,U3,43*
G04 #@! TO.N,/GPIO21*
X98450000Y-43292000D03*
G04 #@! TO.P,U3,42*
G04 #@! TO.N,/G0*
X97650000Y-43292000D03*
G04 #@! TO.P,U3,41*
G04 #@! TO.N,/VSYNC*
X96850000Y-43292000D03*
G04 #@! TO.P,U3,40*
G04 #@! TO.N,/G1*
X96050000Y-43292000D03*
G04 #@! TO.P,U3,39*
G04 #@! TO.N,/R1*
X95250000Y-43292000D03*
G04 #@! TO.P,U3,38*
G04 #@! TO.N,/B1*
X94450000Y-43292000D03*
G04 #@! TO.P,U3,37*
G04 #@! TO.N,/B2*
X93650000Y-43292000D03*
G04 #@! TO.P,U3,36*
G04 #@! TO.N,/G2*
X92850000Y-43292000D03*
G04 #@! TO.P,U3,35*
G04 #@! TO.N,+3V3*
X92050000Y-43292000D03*
G04 #@! TO.P,U3,34*
G04 #@! TO.N,/R2*
X91250000Y-43292000D03*
D11*
G04 #@! TO.P,U3,33*
G04 #@! TO.N,/GPIO18*
X89550000Y-41592000D03*
G04 #@! TO.P,U3,32*
G04 #@! TO.N,/R3*
X89550000Y-40792000D03*
G04 #@! TO.P,U3,31*
G04 #@! TO.N,/G3*
X89550000Y-39992000D03*
G04 #@! TO.P,U3,30*
G04 #@! TO.N,/B3*
X89550000Y-39192000D03*
G04 #@! TO.P,U3,29*
G04 #@! TO.N,/GPIO2*
X89550000Y-38392000D03*
G04 #@! TO.P,U3,28*
G04 #@! TO.N,/GPIO3*
X89550000Y-37592000D03*
G04 #@! TO.P,U3,27*
G04 #@! TO.N,/GPIO4*
X89550000Y-36792000D03*
G04 #@! TO.P,U3,26*
G04 #@! TO.N,+3V3*
X89550000Y-35992000D03*
G04 #@! TO.P,U3,25*
G04 #@! TO.N,GND*
X89550000Y-35192000D03*
G04 #@! TO.P,U3,24*
G04 #@! TO.N,/GPIO24*
X89550000Y-34392000D03*
G04 #@! TO.P,U3,23*
G04 #@! TO.N,/HSYNC*
X89550000Y-33592000D03*
D10*
G04 #@! TO.P,U3,22*
G04 #@! TO.N,/GPIO17*
X91250000Y-31892000D03*
G04 #@! TO.P,U3,21*
G04 #@! TO.N,/R0*
X92050000Y-31892000D03*
G04 #@! TO.P,U3,20*
G04 #@! TO.N,/GPIO23*
X92850000Y-31892000D03*
G04 #@! TO.P,U3,19*
G04 #@! TO.N,/DETECT*
X93650000Y-31892000D03*
G04 #@! TO.P,U3,18*
G04 #@! TO.N,/B0*
X94450000Y-31892000D03*
G04 #@! TO.P,U3,17*
G04 #@! TO.N,GND*
X95250000Y-31892000D03*
G04 #@! TO.P,U3,16*
G04 #@! TO.N,/GPIO10*
X96050000Y-31892000D03*
G04 #@! TO.P,U3,15*
G04 #@! TO.N,+3V3*
X96850000Y-31892000D03*
G04 #@! TO.P,U3,14*
G04 #@! TO.N,/GPIO9*
X97650000Y-31892000D03*
G04 #@! TO.P,U3,13*
G04 #@! TO.N,/GPIO11*
X98450000Y-31892000D03*
G04 #@! TO.P,U3,12*
G04 #@! TO.N,/GPIO8*
X99250000Y-31892000D03*
D11*
G04 #@! TO.P,U3,11*
G04 #@! TO.N,/GPIO20*
X100950000Y-33592000D03*
G04 #@! TO.P,U3,10*
G04 #@! TO.N,/CLKEN*
X100950000Y-34392000D03*
G04 #@! TO.P,U3,9*
G04 #@! TO.N,/GPIO0*
X100950000Y-35192000D03*
G04 #@! TO.P,U3,8*
G04 #@! TO.N,/GPIO7*
X100950000Y-35992000D03*
G04 #@! TO.P,U3,7*
G04 #@! TO.N,/GPIO0*
X100950000Y-36792000D03*
G04 #@! TO.P,U3,6*
G04 #@! TO.N,/CLKEN*
X100950000Y-37592000D03*
G04 #@! TO.P,U3,5*
G04 #@! TO.N,/GPIO5*
X100950000Y-38392000D03*
G04 #@! TO.P,U3,4*
G04 #@! TO.N,GND*
X100950000Y-39192000D03*
G04 #@! TO.P,U3,3*
G04 #@! TO.N,/GPIO12*
X100950000Y-39992000D03*
G04 #@! TO.P,U3,2*
G04 #@! TO.N,/GPIO6*
X100950000Y-40792000D03*
G04 #@! TO.P,U3,1*
G04 #@! TO.N,/GPIO13*
X100950000Y-41592000D03*
G04 #@! TD*
D12*
G04 #@! TO.P,U2,24*
G04 #@! TO.N,/B0*
X93472000Y-127406400D03*
G04 #@! TO.P,U2,25*
G04 #@! TO.N,/B1*
X108712000Y-127406400D03*
G04 #@! TO.P,U2,23*
G04 #@! TO.N,/R3*
X93472000Y-124866400D03*
G04 #@! TO.P,U2,26*
G04 #@! TO.N,/B2*
X108712000Y-124866400D03*
G04 #@! TO.P,U2,22*
G04 #@! TO.N,/R2*
X93472000Y-122326400D03*
G04 #@! TO.P,U2,27*
G04 #@! TO.N,/B3*
X108712000Y-122326400D03*
G04 #@! TO.P,U2,21*
G04 #@! TO.N,/R1*
X93472000Y-119786400D03*
G04 #@! TO.P,U2,28*
G04 #@! TO.N,/G0*
X108712000Y-119786400D03*
G04 #@! TO.P,U2,20*
G04 #@! TO.N,/R0*
X93472000Y-117246400D03*
G04 #@! TO.P,U2,29*
G04 #@! TO.N,/G1*
X108712000Y-117246400D03*
G04 #@! TO.P,U2,19*
G04 #@! TO.N,VCC*
X93472000Y-114706400D03*
G04 #@! TO.P,U2,30*
G04 #@! TO.N,/G2*
X108712000Y-114706400D03*
G04 #@! TO.P,U2,18*
G04 #@! TO.N,/BURST*
X93472000Y-112166400D03*
G04 #@! TO.P,U2,31*
G04 #@! TO.N,/G3*
X108712000Y-112166400D03*
G04 #@! TO.P,U2,17*
G04 #@! TO.N,/RGA1*
X93472000Y-109626400D03*
G04 #@! TO.P,U2,32*
G04 #@! TO.N,/HSYNC*
X108712000Y-109626400D03*
G04 #@! TO.P,U2,16*
G04 #@! TO.N,/RGA2*
X93472000Y-107086400D03*
G04 #@! TO.P,U2,33*
G04 #@! TO.N,/ZD*
X108712000Y-107086400D03*
G04 #@! TO.P,U2,15*
G04 #@! TO.N,/RGA3*
X93472000Y-104546400D03*
G04 #@! TO.P,U2,34*
G04 #@! TO.N,/NC*
X108712000Y-104546400D03*
G04 #@! TO.P,U2,14*
G04 #@! TO.N,/RGA4*
X93472000Y-102006400D03*
G04 #@! TO.P,U2,35*
G04 #@! TO.N,/7M*
X108712000Y-102006400D03*
G04 #@! TO.P,U2,13*
G04 #@! TO.N,/RGA5*
X93472000Y-99466400D03*
G04 #@! TO.P,U2,36*
G04 #@! TO.N,/CCK*
X108712000Y-99466400D03*
G04 #@! TO.P,U2,12*
G04 #@! TO.N,/RGA6*
X93472000Y-96926400D03*
G04 #@! TO.P,U2,37*
G04 #@! TO.N,GND*
X108712000Y-96926400D03*
G04 #@! TO.P,U2,11*
G04 #@! TO.N,/RGA7*
X93472000Y-94386400D03*
G04 #@! TO.P,U2,38*
G04 #@! TO.N,/M0V*
X108712000Y-94386400D03*
G04 #@! TO.P,U2,10*
G04 #@! TO.N,/RGA8*
X93472000Y-91846400D03*
G04 #@! TO.P,U2,39*
G04 #@! TO.N,/M1V*
X108712000Y-91846400D03*
G04 #@! TO.P,U2,9*
G04 #@! TO.N,/M0H*
X93472000Y-89306400D03*
G04 #@! TO.P,U2,40*
G04 #@! TO.N,/D15*
X108712000Y-89306400D03*
G04 #@! TO.P,U2,8*
G04 #@! TO.N,/M1H*
X93472000Y-86766400D03*
G04 #@! TO.P,U2,41*
G04 #@! TO.N,/D14*
X108712000Y-86766400D03*
G04 #@! TO.P,U2,7*
G04 #@! TO.N,/D0*
X93472000Y-84226400D03*
G04 #@! TO.P,U2,42*
G04 #@! TO.N,/D13*
X108712000Y-84226400D03*
G04 #@! TO.P,U2,6*
G04 #@! TO.N,/D1*
X93472000Y-81686400D03*
G04 #@! TO.P,U2,43*
G04 #@! TO.N,/D12*
X108712000Y-81686400D03*
G04 #@! TO.P,U2,5*
G04 #@! TO.N,/D2*
X93472000Y-79146400D03*
G04 #@! TO.P,U2,44*
G04 #@! TO.N,/D11*
X108712000Y-79146400D03*
G04 #@! TO.P,U2,4*
G04 #@! TO.N,/D3*
X93472000Y-76606400D03*
G04 #@! TO.P,U2,45*
G04 #@! TO.N,/D10*
X108712000Y-76606400D03*
G04 #@! TO.P,U2,3*
G04 #@! TO.N,/D4*
X93472000Y-74066400D03*
G04 #@! TO.P,U2,46*
G04 #@! TO.N,/D9*
X108712000Y-74066400D03*
G04 #@! TO.P,U2,2*
G04 #@! TO.N,/D5*
X93472000Y-71526400D03*
G04 #@! TO.P,U2,47*
G04 #@! TO.N,/D8*
X108712000Y-71526400D03*
G04 #@! TO.P,U2,1*
G04 #@! TO.N,/D6*
X93472000Y-68986400D03*
G04 #@! TO.P,U2,48*
G04 #@! TO.N,/D7*
X108712000Y-68986400D03*
G04 #@! TD*
D13*
G04 #@! TO.P,J1,40*
G04 #@! TO.N,/GPIO21*
X107950000Y-25400000D03*
G04 #@! TO.P,J1,39*
G04 #@! TO.N,GND*
X107950000Y-22860000D03*
G04 #@! TO.P,J1,38*
G04 #@! TO.N,/GPIO20*
X105410000Y-25400000D03*
G04 #@! TO.P,J1,37*
G04 #@! TO.N,/GPIO26*
X105410000Y-22860000D03*
G04 #@! TO.P,J1,36*
G04 #@! TO.N,/GPIO16*
X102870000Y-25400000D03*
G04 #@! TO.P,J1,35*
G04 #@! TO.N,/GPIO19*
X102870000Y-22860000D03*
G04 #@! TO.P,J1,34*
G04 #@! TO.N,GND*
X100330000Y-25400000D03*
G04 #@! TO.P,J1,33*
G04 #@! TO.N,/GPIO13*
X100330000Y-22860000D03*
G04 #@! TO.P,J1,32*
G04 #@! TO.N,/GPIO12*
X97790000Y-25400000D03*
G04 #@! TO.P,J1,31*
G04 #@! TO.N,/GPIO6*
X97790000Y-22860000D03*
G04 #@! TO.P,J1,30*
G04 #@! TO.N,GND*
X95250000Y-25400000D03*
G04 #@! TO.P,J1,29*
G04 #@! TO.N,/GPIO5*
X95250000Y-22860000D03*
G04 #@! TO.P,J1,28*
G04 #@! TO.N,/CLKEN*
X92710000Y-25400000D03*
G04 #@! TO.P,J1,27*
G04 #@! TO.N,/GPIO0*
X92710000Y-22860000D03*
G04 #@! TO.P,J1,26*
G04 #@! TO.N,/GPIO7*
X90170000Y-25400000D03*
G04 #@! TO.P,J1,25*
G04 #@! TO.N,GND*
X90170000Y-22860000D03*
G04 #@! TO.P,J1,24*
G04 #@! TO.N,/GPIO8*
X87630000Y-25400000D03*
G04 #@! TO.P,J1,23*
G04 #@! TO.N,/GPIO11*
X87630000Y-22860000D03*
G04 #@! TO.P,J1,22*
G04 #@! TO.N,/GPIO25*
X85090000Y-25400000D03*
G04 #@! TO.P,J1,21*
G04 #@! TO.N,/GPIO9*
X85090000Y-22860000D03*
G04 #@! TO.P,J1,20*
G04 #@! TO.N,GND*
X82550000Y-25400000D03*
G04 #@! TO.P,J1,19*
G04 #@! TO.N,/GPIO10*
X82550000Y-22860000D03*
G04 #@! TO.P,J1,18*
G04 #@! TO.N,/GPIO24*
X80010000Y-25400000D03*
G04 #@! TO.P,J1,17*
G04 #@! TO.N,+3V3*
X80010000Y-22860000D03*
G04 #@! TO.P,J1,16*
G04 #@! TO.N,/GPIO23*
X77470000Y-25400000D03*
G04 #@! TO.P,J1,15*
G04 #@! TO.N,/GPIO22*
X77470000Y-22860000D03*
G04 #@! TO.P,J1,14*
G04 #@! TO.N,GND*
X74930000Y-25400000D03*
G04 #@! TO.P,J1,13*
G04 #@! TO.N,/GPIO27*
X74930000Y-22860000D03*
G04 #@! TO.P,J1,12*
G04 #@! TO.N,/GPIO18*
X72390000Y-25400000D03*
G04 #@! TO.P,J1,11*
G04 #@! TO.N,/GPIO17*
X72390000Y-22860000D03*
G04 #@! TO.P,J1,10*
G04 #@! TO.N,/GPIO15*
X69850000Y-25400000D03*
G04 #@! TO.P,J1,9*
G04 #@! TO.N,GND*
X69850000Y-22860000D03*
G04 #@! TO.P,J1,8*
G04 #@! TO.N,/GPIO14*
X67310000Y-25400000D03*
G04 #@! TO.P,J1,7*
G04 #@! TO.N,/GPIO4*
X67310000Y-22860000D03*
G04 #@! TO.P,J1,6*
G04 #@! TO.N,GND*
X64770000Y-25400000D03*
G04 #@! TO.P,J1,5*
G04 #@! TO.N,/GPIO3*
X64770000Y-22860000D03*
G04 #@! TO.P,J1,4*
G04 #@! TO.N,VCC*
X62230000Y-25400000D03*
G04 #@! TO.P,J1,3*
G04 #@! TO.N,/GPIO2*
X62230000Y-22860000D03*
G04 #@! TO.P,J1,2*
G04 #@! TO.N,VCC*
X59690000Y-25400000D03*
D14*
G04 #@! TO.P,J1,1*
G04 #@! TO.N,+3V3*
X59690000Y-22860000D03*
G04 #@! TD*
D15*
G04 #@! TO.P,U1,48*
G04 #@! TO.N,/D7*
X105990000Y-68965000D03*
G04 #@! TO.P,U1,24*
G04 #@! TO.N,/B0*
X90750000Y-127385000D03*
G04 #@! TO.P,U1,47*
G04 #@! TO.N,/D8*
X105990000Y-71505000D03*
G04 #@! TO.P,U1,23*
G04 #@! TO.N,/R3*
X90750000Y-124845000D03*
G04 #@! TO.P,U1,46*
G04 #@! TO.N,/D9*
X105990000Y-74045000D03*
G04 #@! TO.P,U1,22*
G04 #@! TO.N,/R2*
X90750000Y-122305000D03*
G04 #@! TO.P,U1,45*
G04 #@! TO.N,/D10*
X105990000Y-76585000D03*
G04 #@! TO.P,U1,21*
G04 #@! TO.N,/R1*
X90750000Y-119765000D03*
G04 #@! TO.P,U1,44*
G04 #@! TO.N,/D11*
X105990000Y-79125000D03*
G04 #@! TO.P,U1,20*
G04 #@! TO.N,/R0*
X90750000Y-117225000D03*
G04 #@! TO.P,U1,43*
G04 #@! TO.N,/D12*
X105990000Y-81665000D03*
G04 #@! TO.P,U1,19*
G04 #@! TO.N,VCC*
X90750000Y-114685000D03*
G04 #@! TO.P,U1,42*
G04 #@! TO.N,/D13*
X105990000Y-84205000D03*
G04 #@! TO.P,U1,18*
G04 #@! TO.N,/BURST*
X90750000Y-112145000D03*
G04 #@! TO.P,U1,41*
G04 #@! TO.N,/D14*
X105990000Y-86745000D03*
G04 #@! TO.P,U1,17*
G04 #@! TO.N,/RGA1*
X90750000Y-109605000D03*
G04 #@! TO.P,U1,40*
G04 #@! TO.N,/D15*
X105990000Y-89285000D03*
G04 #@! TO.P,U1,16*
G04 #@! TO.N,/RGA2*
X90750000Y-107065000D03*
G04 #@! TO.P,U1,39*
G04 #@! TO.N,/M1V*
X105990000Y-91825000D03*
G04 #@! TO.P,U1,15*
G04 #@! TO.N,/RGA3*
X90750000Y-104525000D03*
G04 #@! TO.P,U1,38*
G04 #@! TO.N,/M0V*
X105990000Y-94365000D03*
G04 #@! TO.P,U1,14*
G04 #@! TO.N,/RGA4*
X90750000Y-101985000D03*
G04 #@! TO.P,U1,37*
G04 #@! TO.N,GND*
X105990000Y-96905000D03*
G04 #@! TO.P,U1,13*
G04 #@! TO.N,/RGA5*
X90750000Y-99445000D03*
G04 #@! TO.P,U1,36*
G04 #@! TO.N,/CCK*
X105990000Y-99445000D03*
G04 #@! TO.P,U1,12*
G04 #@! TO.N,/RGA6*
X90750000Y-96905000D03*
G04 #@! TO.P,U1,35*
G04 #@! TO.N,/7M*
X105990000Y-101985000D03*
G04 #@! TO.P,U1,11*
G04 #@! TO.N,/RGA7*
X90750000Y-94365000D03*
G04 #@! TO.P,U1,34*
G04 #@! TO.N,/NC*
X105990000Y-104525000D03*
G04 #@! TO.P,U1,10*
G04 #@! TO.N,/RGA8*
X90750000Y-91825000D03*
G04 #@! TO.P,U1,33*
G04 #@! TO.N,/ZD*
X105990000Y-107065000D03*
G04 #@! TO.P,U1,9*
G04 #@! TO.N,/M0H*
X90750000Y-89285000D03*
G04 #@! TO.P,U1,32*
G04 #@! TO.N,/HSYNC*
X105990000Y-109605000D03*
G04 #@! TO.P,U1,8*
G04 #@! TO.N,/M1H*
X90750000Y-86745000D03*
G04 #@! TO.P,U1,31*
G04 #@! TO.N,/G3*
X105990000Y-112145000D03*
G04 #@! TO.P,U1,7*
G04 #@! TO.N,/D0*
X90750000Y-84205000D03*
G04 #@! TO.P,U1,30*
G04 #@! TO.N,/G2*
X105990000Y-114685000D03*
G04 #@! TO.P,U1,6*
G04 #@! TO.N,/D1*
X90750000Y-81665000D03*
G04 #@! TO.P,U1,29*
G04 #@! TO.N,/G1*
X105990000Y-117225000D03*
G04 #@! TO.P,U1,5*
G04 #@! TO.N,/D2*
X90750000Y-79125000D03*
G04 #@! TO.P,U1,28*
G04 #@! TO.N,/G0*
X105990000Y-119765000D03*
G04 #@! TO.P,U1,4*
G04 #@! TO.N,/D3*
X90750000Y-76585000D03*
G04 #@! TO.P,U1,27*
G04 #@! TO.N,/B3*
X105990000Y-122305000D03*
G04 #@! TO.P,U1,3*
G04 #@! TO.N,/D4*
X90750000Y-74045000D03*
G04 #@! TO.P,U1,26*
G04 #@! TO.N,/B2*
X105990000Y-124845000D03*
G04 #@! TO.P,U1,2*
G04 #@! TO.N,/D5*
X90750000Y-71505000D03*
G04 #@! TO.P,U1,25*
G04 #@! TO.N,/B1*
X105990000Y-127385000D03*
D16*
G04 #@! TO.P,U1,1*
G04 #@! TO.N,/D6*
X90750000Y-68965000D03*
G04 #@! TD*
D13*
G04 #@! TO.P,JP1,2*
G04 #@! TO.N,/GPIO16*
X106807000Y-34671000D03*
D14*
G04 #@! TO.P,JP1,1*
G04 #@! TO.N,GND*
X106807000Y-32131000D03*
G04 #@! TD*
D17*
G04 #@! TO.N,GND*
X89916000Y-44958000D03*
X93853000Y-29972000D03*
X96139000Y-72009000D03*
D18*
X63500000Y-32258000D03*
D17*
X91186000Y-35179000D03*
X95504000Y-33528000D03*
X96774000Y-67945000D03*
X96901000Y-60706000D03*
X93218000Y-62230000D03*
X100584000Y-60452000D03*
X99314000Y-56388000D03*
X96647000Y-54356000D03*
X107442000Y-52451000D03*
X107696000Y-64135000D03*
X96139000Y-51689000D03*
X108585000Y-49657000D03*
X108458000Y-42799000D03*
X107950000Y-29591000D03*
X78105000Y-28321000D03*
X81915000Y-30861000D03*
X93317148Y-37745668D03*
X84963000Y-35052000D03*
X82931000Y-35052000D03*
X100457000Y-50927000D03*
X96139000Y-46609000D03*
X109728000Y-21209000D03*
X81026000Y-38354000D03*
X81915000Y-33274000D03*
X103378000Y-42926000D03*
X90932000Y-66675000D03*
X87503000Y-37592000D03*
X83566000Y-59817000D03*
X85217000Y-54483000D03*
X99695000Y-128905000D03*
X102870000Y-121920000D03*
X103378000Y-117221000D03*
X103632000Y-112268000D03*
X97917000Y-119507000D03*
X96139000Y-116713000D03*
X91122500Y-37719000D03*
X91059000Y-53784500D03*
X104775000Y-46228000D03*
X86423500Y-49212500D03*
X106172000Y-38417500D03*
G04 #@! TO.N,+3V3*
X87972500Y-32473500D03*
X91948000Y-44958000D03*
X96901000Y-33528000D03*
X91249500Y-36512500D03*
X91884500Y-40259000D03*
G04 #@! TO.N,/GPIO20*
X98552000Y-34544000D03*
X98152001Y-37065001D03*
G04 #@! TO.N,/GPIO18*
X86233000Y-41656000D03*
G04 #@! TO.N,/GPIO13*
X101653000Y-30437938D03*
X102806500Y-41592500D03*
G04 #@! TO.N,/GPIO12*
X102870000Y-39878000D03*
G04 #@! TO.N,/GPIO6*
X100928000Y-29645892D03*
X99060000Y-40767000D03*
G04 #@! TO.N,/GPIO5*
X100203000Y-30353000D03*
X99060000Y-38354000D03*
G04 #@! TO.N,/GPIO0*
X104648000Y-34544000D03*
G04 #@! TO.N,/GPIO7*
X86741000Y-27559000D03*
G04 #@! TO.N,/GPIO8*
X98563670Y-27488429D03*
G04 #@! TO.N,/GPIO23*
X92837000Y-28575000D03*
G04 #@! TO.N,/GPIO17*
X91313000Y-29591000D03*
G04 #@! TO.N,/CLKEN*
X103124000Y-30734000D03*
X102933500Y-37465000D03*
G04 #@! TO.N,/B0*
X86307000Y-43561000D03*
X94527479Y-33899391D03*
X82146808Y-41297192D03*
X88836500Y-42799000D03*
G04 #@! TO.N,/R3*
X87032000Y-40894000D03*
X94742000Y-57277000D03*
G04 #@! TO.N,/R2*
X98806000Y-67945000D03*
X92837000Y-51943000D03*
X92837000Y-54864000D03*
G04 #@! TO.N,/R1*
X101600000Y-53594000D03*
G04 #@! TO.N,/R0*
X84963000Y-37465000D03*
X92038000Y-30480000D03*
G04 #@! TO.N,/G3*
X104013000Y-52705000D03*
X87757000Y-40005000D03*
G04 #@! TO.N,/G2*
X94488000Y-49784000D03*
G04 #@! TO.N,/B2*
X99822000Y-54356000D03*
G04 #@! TO.N,/B1*
X101350653Y-54859347D03*
X101346000Y-107061000D03*
G04 #@! TO.N,/HSYNC*
X87249000Y-30734000D03*
X85344000Y-39116000D03*
X92217997Y-62230000D03*
X104648000Y-66294000D03*
G04 #@! TO.N,/DETECT*
X93599000Y-33528000D03*
G04 #@! TD*
D19*
G04 #@! TO.N,VCC*
X90771400Y-114706400D02*
X90750000Y-114685000D01*
X93472000Y-114706400D02*
X90771400Y-114706400D01*
D20*
G04 #@! TO.N,GND*
X73754999Y-24224999D02*
X74930000Y-25400000D01*
X71214999Y-24224999D02*
X73754999Y-24224999D01*
X69850000Y-22860000D02*
X71214999Y-24224999D01*
D19*
X64770000Y-30988000D02*
X63500000Y-32258000D01*
X64770000Y-25400000D02*
X64770000Y-30988000D01*
D20*
X91173000Y-35192000D02*
X91186000Y-35179000D01*
X89550000Y-35192000D02*
X91173000Y-35192000D01*
X95250000Y-33274000D02*
X95504000Y-33528000D01*
X95250000Y-31892000D02*
X95250000Y-33274000D01*
X91345001Y-24035001D02*
X90170000Y-22860000D01*
X93885001Y-24035001D02*
X91345001Y-24035001D01*
X95250000Y-25400000D02*
X93885001Y-24035001D01*
D19*
X108690600Y-96905000D02*
X108712000Y-96926400D01*
X105990000Y-96905000D02*
X108690600Y-96905000D01*
D20*
X96774000Y-71374000D02*
X96139000Y-72009000D01*
X96774000Y-67945000D02*
X96774000Y-71374000D01*
X94330000Y-29972000D02*
X93853000Y-29972000D01*
X95250000Y-30892000D02*
X94330000Y-29972000D01*
X95250000Y-31892000D02*
X95250000Y-30892000D01*
X93317148Y-37310148D02*
X93317148Y-37745668D01*
X91186000Y-35179000D02*
X93317148Y-37310148D01*
X84963000Y-35052000D02*
X82931000Y-35052000D01*
X110127999Y-48114001D02*
X108585000Y-49657000D01*
X110127999Y-21608999D02*
X110127999Y-48114001D01*
X109728000Y-21209000D02*
X110127999Y-21608999D01*
X96139000Y-117729000D02*
X97917000Y-119507000D01*
X96139000Y-116713000D02*
X96139000Y-117729000D01*
X99695000Y-121285000D02*
X99695000Y-128905000D01*
X97917000Y-119507000D02*
X99695000Y-121285000D01*
X103257498Y-38417500D02*
X106172000Y-38417500D01*
X102482998Y-39192000D02*
X103257498Y-38417500D01*
X100950000Y-39192000D02*
X102482998Y-39192000D01*
D19*
X109601000Y-21209000D02*
X107950000Y-22860000D01*
X109728000Y-21209000D02*
X109601000Y-21209000D01*
D20*
X108432010Y-36157490D02*
X106172000Y-38417500D01*
X108432010Y-30073010D02*
X108432010Y-36157490D01*
X107950000Y-29591000D02*
X108432010Y-30073010D01*
G04 #@! TO.N,+3V3*
X87884498Y-32473500D02*
X87972500Y-32473500D01*
X81185001Y-25774003D02*
X87884498Y-32473500D01*
X81185001Y-24035001D02*
X81185001Y-25774003D01*
X80010000Y-22860000D02*
X81185001Y-24035001D01*
X92050000Y-44856000D02*
X91948000Y-44958000D01*
X92050000Y-43292000D02*
X92050000Y-44856000D01*
X96901000Y-31943000D02*
X96850000Y-31892000D01*
X96901000Y-33528000D02*
X96901000Y-31943000D01*
X90729000Y-35992000D02*
X89550000Y-35992000D01*
X91249500Y-36512500D02*
X90729000Y-35992000D01*
X91249500Y-36512500D02*
X92202000Y-37465000D01*
X91884500Y-37782500D02*
X91884500Y-40259000D01*
X92202000Y-37465000D02*
X91884500Y-37782500D01*
G04 #@! TO.N,/GPIO21*
X107950000Y-27305000D02*
X109220000Y-28575000D01*
X107950000Y-25400000D02*
X107950000Y-27305000D01*
X105696999Y-43401999D02*
X102997000Y-46101998D01*
X106038003Y-43401999D02*
X105696999Y-43401999D01*
X109220000Y-40220002D02*
X106038003Y-43401999D01*
X109220000Y-36766500D02*
X109220000Y-40220002D01*
X109220000Y-28575000D02*
X109220000Y-36766500D01*
X109220000Y-36766500D02*
X109220000Y-40093002D01*
X100049998Y-46101998D02*
X98450000Y-44502000D01*
X98450000Y-44502000D02*
X98450000Y-43292000D01*
X102997000Y-46101998D02*
X100049998Y-46101998D01*
G04 #@! TO.N,/GPIO20*
X100950000Y-33067000D02*
X100950000Y-33592000D01*
X102378001Y-31638999D02*
X100950000Y-33067000D01*
X102378001Y-28431999D02*
X102378001Y-31638999D01*
X105410000Y-25400000D02*
X102378001Y-28431999D01*
X99504000Y-33592000D02*
X98552000Y-34544000D01*
X100950000Y-33592000D02*
X99504000Y-33592000D01*
X99250000Y-42030002D02*
X98152001Y-40932003D01*
X99250000Y-43292000D02*
X99250000Y-42030002D01*
X98152001Y-40932003D02*
X98152001Y-37065001D01*
G04 #@! TO.N,/GPIO16*
X105784003Y-24035001D02*
X104234999Y-24035001D01*
X106585001Y-24835999D02*
X105784003Y-24035001D01*
X106585001Y-29299003D02*
X106585001Y-24835999D01*
X107982001Y-30696003D02*
X106585001Y-29299003D01*
X104234999Y-24035001D02*
X102870000Y-25400000D01*
X107982001Y-33495999D02*
X107982001Y-30696003D01*
X106807000Y-34671000D02*
X107982001Y-33495999D01*
G04 #@! TO.N,/GPIO18*
X89486000Y-41656000D02*
X89550000Y-41592000D01*
X86233000Y-41656000D02*
X89486000Y-41656000D01*
G04 #@! TO.N,/GPIO13*
X100785048Y-41756952D02*
X100950000Y-41592000D01*
X100330000Y-23660998D02*
X100330000Y-22860000D01*
X101653000Y-24983998D02*
X100330000Y-23660998D01*
X101653000Y-30437938D02*
X101653000Y-24983998D01*
X100950500Y-41592500D02*
X100950000Y-41592000D01*
X102806500Y-41592500D02*
X100950500Y-41592500D01*
G04 #@! TO.N,/GPIO12*
X101064000Y-39878000D02*
X100950000Y-39992000D01*
X102870000Y-39878000D02*
X101064000Y-39878000D01*
G04 #@! TO.N,/GPIO6*
X100928000Y-28143347D02*
X100928000Y-29645892D01*
X99098072Y-26313419D02*
X100928000Y-28143347D01*
X99098072Y-24168072D02*
X99098072Y-26313419D01*
X97790000Y-22860000D02*
X99098072Y-24168072D01*
X100925000Y-40767000D02*
X100950000Y-40792000D01*
X99060000Y-40767000D02*
X100925000Y-40767000D01*
G04 #@! TO.N,/GPIO5*
X98911671Y-26763428D02*
X100203000Y-28054757D01*
X100203000Y-28054757D02*
X100203000Y-30353000D01*
X97224428Y-26763428D02*
X98911671Y-26763428D01*
X96425001Y-25964001D02*
X97224428Y-26763428D01*
X96425001Y-24035001D02*
X96425001Y-25964001D01*
X95250000Y-22860000D02*
X96425001Y-24035001D01*
X100912000Y-38354000D02*
X100950000Y-38392000D01*
X99060000Y-38354000D02*
X100912000Y-38354000D01*
G04 #@! TO.N,/GPIO0*
X104648000Y-34544000D02*
X104506000Y-34544000D01*
X104000000Y-35192000D02*
X104648000Y-34544000D01*
X100950000Y-35192000D02*
X104000000Y-35192000D01*
X102400000Y-36792000D02*
X100950000Y-36792000D01*
X104648000Y-34544000D02*
X102400000Y-36792000D01*
G04 #@! TO.N,/GPIO7*
X86741000Y-28993002D02*
X86741000Y-27559000D01*
X93739998Y-35992000D02*
X86741000Y-28993002D01*
X100950000Y-35992000D02*
X93739998Y-35992000D01*
G04 #@! TO.N,/GPIO8*
X99250000Y-28174759D02*
X98563670Y-27488429D01*
X99250000Y-31892000D02*
X99250000Y-28174759D01*
G04 #@! TO.N,/GPIO11*
X90544003Y-24035001D02*
X88805001Y-24035001D01*
X91345001Y-24835999D02*
X90544003Y-24035001D01*
X88805001Y-24035001D02*
X87630000Y-22860000D01*
X91345001Y-25774003D02*
X91345001Y-24835999D01*
X92145999Y-26575001D02*
X91345001Y-25774003D01*
X94133001Y-26575001D02*
X92145999Y-26575001D01*
X98450000Y-30892000D02*
X94133001Y-26575001D01*
X98450000Y-31892000D02*
X98450000Y-30892000D01*
G04 #@! TO.N,/GPIO9*
X97650000Y-30892000D02*
X97650000Y-31892000D01*
X88994999Y-25964001D02*
X90430987Y-27399989D01*
X94157989Y-27399989D02*
X97650000Y-30892000D01*
X88994999Y-25025997D02*
X88994999Y-25964001D01*
X88194001Y-24224999D02*
X88994999Y-25025997D01*
X87255997Y-24224999D02*
X88194001Y-24224999D01*
X86805987Y-23774989D02*
X87255997Y-24224999D01*
X90430987Y-27399989D02*
X94157989Y-27399989D01*
X85090000Y-23241000D02*
X85623989Y-23774989D01*
X85623989Y-23774989D02*
X86805987Y-23774989D01*
X85090000Y-22860000D02*
X85090000Y-23241000D01*
G04 #@! TO.N,/GPIO10*
X96050000Y-30714998D02*
X96050000Y-31892000D01*
X93185001Y-27849999D02*
X96050000Y-30714998D01*
X86454999Y-25025997D02*
X86454999Y-25964001D01*
X85654001Y-24224999D02*
X86454999Y-25025997D01*
X88340997Y-27849999D02*
X93185001Y-27849999D01*
X86454999Y-25964001D02*
X88340997Y-27849999D01*
X83914999Y-24224999D02*
X85654001Y-24224999D01*
X82550000Y-22860000D02*
X83914999Y-24224999D01*
G04 #@! TO.N,/GPIO24*
X87799919Y-34392000D02*
X89550000Y-34392000D01*
X80010000Y-26602081D02*
X87799919Y-34392000D01*
X80010000Y-25400000D02*
X80010000Y-26602081D01*
G04 #@! TO.N,/GPIO23*
X92837000Y-31879000D02*
X92850000Y-31892000D01*
X92837000Y-28575000D02*
X92837000Y-31879000D01*
G04 #@! TO.N,/GPIO17*
X91313000Y-31829000D02*
X91250000Y-31892000D01*
X91313000Y-29591000D02*
X91313000Y-31829000D01*
G04 #@! TO.N,/GPIO4*
X71214999Y-25964001D02*
X77635998Y-32385000D01*
X71214999Y-25025997D02*
X71214999Y-25964001D01*
X70414001Y-24224999D02*
X71214999Y-25025997D01*
X68674999Y-24224999D02*
X70414001Y-24224999D01*
X67310000Y-22860000D02*
X68674999Y-24224999D01*
X84143000Y-32385000D02*
X88550000Y-36792000D01*
X88550000Y-36792000D02*
X89550000Y-36792000D01*
X77635998Y-32385000D02*
X84143000Y-32385000D01*
G04 #@! TO.N,/GPIO3*
X68674999Y-25964001D02*
X77000998Y-34290000D01*
X68674999Y-25025997D02*
X68674999Y-25964001D01*
X67874001Y-24224999D02*
X68674999Y-25025997D01*
X66134999Y-24224999D02*
X67874001Y-24224999D01*
X64770000Y-22860000D02*
X66134999Y-24224999D01*
X88550000Y-37592000D02*
X89550000Y-37592000D01*
X85248000Y-34290000D02*
X88550000Y-37592000D01*
X77000998Y-34290000D02*
X85248000Y-34290000D01*
G04 #@! TO.N,/GPIO2*
X66134999Y-25964001D02*
X75984998Y-35814000D01*
X66134999Y-25025997D02*
X66134999Y-25964001D01*
X65334001Y-24224999D02*
X66134999Y-25025997D01*
X63594999Y-24224999D02*
X65334001Y-24224999D01*
X62230000Y-22860000D02*
X63594999Y-24224999D01*
X87160000Y-38392000D02*
X89550000Y-38392000D01*
X84582000Y-35814000D02*
X87160000Y-38392000D01*
X75984998Y-35814000D02*
X84582000Y-35814000D01*
G04 #@! TO.N,/CLKEN*
X103124000Y-33218000D02*
X103124000Y-30734000D01*
X101950000Y-34392000D02*
X103124000Y-33218000D01*
X100950000Y-34392000D02*
X101950000Y-34392000D01*
X102806500Y-37592000D02*
X102933500Y-37465000D01*
X100950000Y-37592000D02*
X102806500Y-37592000D01*
G04 #@! TO.N,/B0*
X89174989Y-63836288D02*
X82468092Y-57129391D01*
X89174989Y-125809989D02*
X89174989Y-63836288D01*
X90750000Y-127385000D02*
X89174989Y-125809989D01*
X94527479Y-31969479D02*
X94450000Y-31892000D01*
X94527479Y-33899391D02*
X94527479Y-31969479D01*
X82146808Y-56808107D02*
X82468092Y-57129391D01*
X82146808Y-41297192D02*
X82146808Y-56808107D01*
X88074500Y-43561000D02*
X88836500Y-42799000D01*
X86307000Y-43561000D02*
X88074500Y-43561000D01*
G04 #@! TO.N,/R3*
X87134000Y-40792000D02*
X87032000Y-40894000D01*
X89550000Y-40792000D02*
X87134000Y-40792000D01*
X95141999Y-123196401D02*
X93472000Y-124866400D01*
X95141999Y-57676999D02*
X95141999Y-123196401D01*
X94742000Y-57277000D02*
X95141999Y-57676999D01*
G04 #@! TO.N,/R2*
X93402002Y-54864000D02*
X92837000Y-54864000D01*
X98806000Y-60267998D02*
X93402002Y-54864000D01*
X98806000Y-67945000D02*
X98806000Y-60267998D01*
X91222999Y-43319001D02*
X91250000Y-43292000D01*
X91222999Y-50328999D02*
X91222999Y-43319001D01*
X92837000Y-51943000D02*
X91222999Y-50328999D01*
G04 #@! TO.N,/R1*
X95250000Y-47244000D02*
X101600000Y-53594000D01*
X95250000Y-43292000D02*
X95250000Y-47244000D01*
G04 #@! TO.N,/R0*
X82918102Y-39509898D02*
X84963000Y-37465000D01*
X82918102Y-56942991D02*
X82918102Y-39509898D01*
X89624999Y-63649888D02*
X82918102Y-56942991D01*
X89624999Y-116099999D02*
X89624999Y-63649888D01*
X90750000Y-117225000D02*
X89624999Y-116099999D01*
X92038000Y-31880000D02*
X92050000Y-31892000D01*
X92038000Y-30480000D02*
X92038000Y-31880000D01*
G04 #@! TO.N,/G3*
X103922999Y-52795001D02*
X104013000Y-52705000D01*
X103922999Y-110077999D02*
X103922999Y-52795001D01*
X105990000Y-112145000D02*
X103922999Y-110077999D01*
X89537000Y-40005000D02*
X89550000Y-39992000D01*
X87757000Y-40005000D02*
X89537000Y-40005000D01*
G04 #@! TO.N,/G2*
X92850000Y-48146000D02*
X92850000Y-43292000D01*
X94488000Y-49784000D02*
X92850000Y-48146000D01*
G04 #@! TO.N,/G1*
X105990000Y-117225000D02*
X102616000Y-113851000D01*
X102616000Y-113851000D02*
X102616000Y-51308000D01*
X96050000Y-44901748D02*
X96050000Y-43292000D01*
X102456252Y-51308000D02*
X96050000Y-44901748D01*
X102616000Y-51308000D02*
X102456252Y-51308000D01*
G04 #@! TO.N,/G0*
X110120019Y-53478019D02*
X104140000Y-47498000D01*
X110120019Y-97226542D02*
X110120019Y-53478019D01*
X109495151Y-97851410D02*
X110120019Y-97226542D01*
X107928849Y-97851410D02*
X109495151Y-97851410D01*
X107115001Y-98665258D02*
X107928849Y-97851410D01*
X107115001Y-118639999D02*
X107115001Y-98665258D01*
X105990000Y-119765000D02*
X107115001Y-118639999D01*
X97650000Y-44338410D02*
X97650000Y-43292000D01*
X100809590Y-47498000D02*
X97650000Y-44338410D01*
X104140000Y-47498000D02*
X100809590Y-47498000D01*
G04 #@! TO.N,/B3*
X87496998Y-39192000D02*
X89550000Y-39192000D01*
X85507999Y-41180999D02*
X87496998Y-39192000D01*
X102165990Y-118480990D02*
X102165990Y-58661992D01*
X105990000Y-122305000D02*
X102165990Y-118480990D01*
X85507999Y-41180999D02*
X85507999Y-45955941D01*
X98214050Y-58661992D02*
X102165990Y-58661992D01*
X85507999Y-45955941D02*
X98214050Y-58661992D01*
G04 #@! TO.N,/B2*
X99822000Y-53663998D02*
X99822000Y-54356000D01*
X93650000Y-47491998D02*
X99822000Y-53663998D01*
X93650000Y-43292000D02*
X93650000Y-47491998D01*
G04 #@! TO.N,/B1*
X101350653Y-54556241D02*
X101350653Y-54859347D01*
X94450000Y-47655588D02*
X101350653Y-54556241D01*
X94450000Y-43292000D02*
X94450000Y-47655588D01*
X101346000Y-122741000D02*
X105990000Y-127385000D01*
X101346000Y-107061000D02*
X101346000Y-122741000D01*
G04 #@! TO.N,/HSYNC*
X89550000Y-32469315D02*
X89550000Y-33592000D01*
X87814685Y-30734000D02*
X89550000Y-32469315D01*
X87249000Y-30734000D02*
X87814685Y-30734000D01*
X85344000Y-39116000D02*
X83643102Y-40816898D01*
X83643102Y-44880898D02*
X83643102Y-45466000D01*
X83643102Y-40816898D02*
X83643102Y-44880898D01*
X105990000Y-109605000D02*
X104648000Y-108263000D01*
X104648000Y-108263000D02*
X104648000Y-66294000D01*
X92138500Y-62150503D02*
X92217997Y-62230000D01*
X83643102Y-50305602D02*
X92138500Y-58801000D01*
X83643102Y-44880898D02*
X83643102Y-50305602D01*
X92138500Y-58801000D02*
X92138500Y-62150503D01*
G04 #@! TO.N,/DETECT*
X93650000Y-33477000D02*
X93599000Y-33528000D01*
X93650000Y-31892000D02*
X93650000Y-33477000D01*
G04 #@! TD*
D21*
G04 #@! TO.N,GND*
X81904293Y-57640393D02*
X88414990Y-64151091D01*
X88414989Y-125772667D01*
X88411313Y-125809989D01*
X88414989Y-125847311D01*
X88414989Y-125847321D01*
X88425986Y-125958974D01*
X88463769Y-126083530D01*
X88469443Y-126102235D01*
X88540015Y-126234265D01*
X88569640Y-126270363D01*
X88634988Y-126349990D01*
X88663992Y-126373793D01*
X89351312Y-127061114D01*
X89315000Y-127243665D01*
X89315000Y-127526335D01*
X89370147Y-127803574D01*
X89478320Y-128064727D01*
X89635363Y-128299759D01*
X89835241Y-128499637D01*
X90070273Y-128656680D01*
X90331426Y-128764853D01*
X90608665Y-128820000D01*
X90891335Y-128820000D01*
X91168574Y-128764853D01*
X91429727Y-128656680D01*
X91664759Y-128499637D01*
X91864637Y-128299759D01*
X92021680Y-128064727D01*
X92022489Y-128062775D01*
X92040167Y-128095849D01*
X92194498Y-128283902D01*
X92382551Y-128438233D01*
X92597099Y-128552911D01*
X92829898Y-128623530D01*
X93011335Y-128641400D01*
X93932665Y-128641400D01*
X94114102Y-128623530D01*
X94346901Y-128552911D01*
X94561449Y-128438233D01*
X94749502Y-128283902D01*
X94903833Y-128095849D01*
X95018511Y-127881301D01*
X95089130Y-127648502D01*
X95112975Y-127406400D01*
X95089130Y-127164298D01*
X95018511Y-126931499D01*
X94903833Y-126716951D01*
X94749502Y-126528898D01*
X94561449Y-126374567D01*
X94346901Y-126259889D01*
X94114102Y-126189270D01*
X93932665Y-126171400D01*
X93011335Y-126171400D01*
X92829898Y-126189270D01*
X92597099Y-126259889D01*
X92382551Y-126374567D01*
X92194498Y-126528898D01*
X92040167Y-126716951D01*
X92032477Y-126731339D01*
X92021680Y-126705273D01*
X91864637Y-126470241D01*
X91664759Y-126270363D01*
X91432241Y-126115000D01*
X91664759Y-125959637D01*
X91864637Y-125759759D01*
X92021680Y-125524727D01*
X92022489Y-125522775D01*
X92040167Y-125555849D01*
X92194498Y-125743902D01*
X92382551Y-125898233D01*
X92597099Y-126012911D01*
X92829898Y-126083530D01*
X93011335Y-126101400D01*
X93932665Y-126101400D01*
X94114102Y-126083530D01*
X94346901Y-126012911D01*
X94561449Y-125898233D01*
X94749502Y-125743902D01*
X94903833Y-125555849D01*
X95018511Y-125341301D01*
X95089130Y-125108502D01*
X95112975Y-124866400D01*
X95089130Y-124624298D01*
X95019254Y-124393948D01*
X95653002Y-123760200D01*
X95682000Y-123736402D01*
X95776973Y-123620677D01*
X95847545Y-123488648D01*
X95891002Y-123345387D01*
X95901999Y-123233734D01*
X95901999Y-123233725D01*
X95905675Y-123196402D01*
X95901999Y-123159079D01*
X95901999Y-58438799D01*
X98046001Y-60582801D01*
X98046000Y-67241289D01*
X98002063Y-67285226D01*
X97888795Y-67454744D01*
X97810774Y-67643102D01*
X97771000Y-67843061D01*
X97771000Y-68046939D01*
X97810774Y-68246898D01*
X97888795Y-68435256D01*
X98002063Y-68604774D01*
X98146226Y-68748937D01*
X98315744Y-68862205D01*
X98504102Y-68940226D01*
X98704061Y-68980000D01*
X98907939Y-68980000D01*
X99107898Y-68940226D01*
X99296256Y-68862205D01*
X99465774Y-68748937D01*
X99609937Y-68604774D01*
X99723205Y-68435256D01*
X99801226Y-68246898D01*
X99841000Y-68046939D01*
X99841000Y-67843061D01*
X99801226Y-67643102D01*
X99723205Y-67454744D01*
X99609937Y-67285226D01*
X99566000Y-67241289D01*
X99566000Y-60305320D01*
X99569676Y-60267997D01*
X99566000Y-60230674D01*
X99566000Y-60230665D01*
X99555003Y-60119012D01*
X99511546Y-59975751D01*
X99440974Y-59843722D01*
X99346001Y-59727997D01*
X99317003Y-59704199D01*
X99034796Y-59421992D01*
X101405991Y-59421992D01*
X101405990Y-106026000D01*
X101244061Y-106026000D01*
X101044102Y-106065774D01*
X100855744Y-106143795D01*
X100686226Y-106257063D01*
X100542063Y-106401226D01*
X100428795Y-106570744D01*
X100350774Y-106759102D01*
X100311000Y-106959061D01*
X100311000Y-107162939D01*
X100350774Y-107362898D01*
X100428795Y-107551256D01*
X100542063Y-107720774D01*
X100586000Y-107764711D01*
X100586001Y-122703667D01*
X100582324Y-122741000D01*
X100596998Y-122889985D01*
X100640454Y-123033246D01*
X100711026Y-123165276D01*
X100755740Y-123219759D01*
X100806000Y-123281001D01*
X100834998Y-123304799D01*
X104591312Y-127061114D01*
X104555000Y-127243665D01*
X104555000Y-127526335D01*
X104610147Y-127803574D01*
X104718320Y-128064727D01*
X104875363Y-128299759D01*
X105075241Y-128499637D01*
X105310273Y-128656680D01*
X105571426Y-128764853D01*
X105848665Y-128820000D01*
X106131335Y-128820000D01*
X106408574Y-128764853D01*
X106669727Y-128656680D01*
X106904759Y-128499637D01*
X107104637Y-128299759D01*
X107261680Y-128064727D01*
X107262489Y-128062775D01*
X107280167Y-128095849D01*
X107434498Y-128283902D01*
X107622551Y-128438233D01*
X107837099Y-128552911D01*
X108069898Y-128623530D01*
X108251335Y-128641400D01*
X109172665Y-128641400D01*
X109354102Y-128623530D01*
X109586901Y-128552911D01*
X109663991Y-128511705D01*
X109661161Y-128517028D01*
X109351323Y-128896927D01*
X108973600Y-129209406D01*
X108542373Y-129442569D01*
X108074073Y-129587532D01*
X107555847Y-129642000D01*
X90837278Y-129642000D01*
X90317117Y-129590998D01*
X89847814Y-129449307D01*
X89414972Y-129219161D01*
X89035073Y-128909323D01*
X88722594Y-128531600D01*
X88489431Y-128100373D01*
X88344468Y-127632073D01*
X88290000Y-127113847D01*
X88290000Y-67150581D01*
X88287069Y-67120818D01*
X88287207Y-67101016D01*
X88286307Y-67091845D01*
X88221535Y-66475588D01*
X88209516Y-66417037D01*
X88198299Y-66358234D01*
X88195635Y-66349412D01*
X88012400Y-65757472D01*
X87989232Y-65702359D01*
X87966810Y-65646861D01*
X87962483Y-65638725D01*
X87667762Y-65093650D01*
X87634291Y-65044028D01*
X87601558Y-64994005D01*
X87595733Y-64986864D01*
X87595732Y-64986862D01*
X87595728Y-64986858D01*
X87200753Y-64509414D01*
X87158336Y-64467292D01*
X87116454Y-64424523D01*
X87109353Y-64418650D01*
X86629157Y-64027011D01*
X86579356Y-63993924D01*
X86529976Y-63960112D01*
X86521870Y-63955730D01*
X85974749Y-63664821D01*
X85919455Y-63642030D01*
X85864462Y-63618460D01*
X85855659Y-63615735D01*
X85262455Y-63436636D01*
X85203784Y-63425019D01*
X85145263Y-63412580D01*
X85136098Y-63411617D01*
X84519404Y-63351150D01*
X84519402Y-63351150D01*
X84487419Y-63348000D01*
X84233278Y-63348000D01*
X83713117Y-63296998D01*
X83243814Y-63155307D01*
X82810972Y-62925161D01*
X82431073Y-62615323D01*
X82118594Y-62237600D01*
X81885431Y-61806373D01*
X81740468Y-61338073D01*
X81686000Y-60819847D01*
X81686000Y-57422100D01*
X81904293Y-57640393D01*
G04 #@! TA.AperFunction,Conductor*
D22*
G36*
X81904293Y-57640393D02*
G01*
X88414990Y-64151091D01*
X88414989Y-125772667D01*
X88411313Y-125809989D01*
X88414989Y-125847311D01*
X88414989Y-125847321D01*
X88425986Y-125958974D01*
X88463769Y-126083530D01*
X88469443Y-126102235D01*
X88540015Y-126234265D01*
X88569640Y-126270363D01*
X88634988Y-126349990D01*
X88663992Y-126373793D01*
X89351312Y-127061114D01*
X89315000Y-127243665D01*
X89315000Y-127526335D01*
X89370147Y-127803574D01*
X89478320Y-128064727D01*
X89635363Y-128299759D01*
X89835241Y-128499637D01*
X90070273Y-128656680D01*
X90331426Y-128764853D01*
X90608665Y-128820000D01*
X90891335Y-128820000D01*
X91168574Y-128764853D01*
X91429727Y-128656680D01*
X91664759Y-128499637D01*
X91864637Y-128299759D01*
X92021680Y-128064727D01*
X92022489Y-128062775D01*
X92040167Y-128095849D01*
X92194498Y-128283902D01*
X92382551Y-128438233D01*
X92597099Y-128552911D01*
X92829898Y-128623530D01*
X93011335Y-128641400D01*
X93932665Y-128641400D01*
X94114102Y-128623530D01*
X94346901Y-128552911D01*
X94561449Y-128438233D01*
X94749502Y-128283902D01*
X94903833Y-128095849D01*
X95018511Y-127881301D01*
X95089130Y-127648502D01*
X95112975Y-127406400D01*
X95089130Y-127164298D01*
X95018511Y-126931499D01*
X94903833Y-126716951D01*
X94749502Y-126528898D01*
X94561449Y-126374567D01*
X94346901Y-126259889D01*
X94114102Y-126189270D01*
X93932665Y-126171400D01*
X93011335Y-126171400D01*
X92829898Y-126189270D01*
X92597099Y-126259889D01*
X92382551Y-126374567D01*
X92194498Y-126528898D01*
X92040167Y-126716951D01*
X92032477Y-126731339D01*
X92021680Y-126705273D01*
X91864637Y-126470241D01*
X91664759Y-126270363D01*
X91432241Y-126115000D01*
X91664759Y-125959637D01*
X91864637Y-125759759D01*
X92021680Y-125524727D01*
X92022489Y-125522775D01*
X92040167Y-125555849D01*
X92194498Y-125743902D01*
X92382551Y-125898233D01*
X92597099Y-126012911D01*
X92829898Y-126083530D01*
X93011335Y-126101400D01*
X93932665Y-126101400D01*
X94114102Y-126083530D01*
X94346901Y-126012911D01*
X94561449Y-125898233D01*
X94749502Y-125743902D01*
X94903833Y-125555849D01*
X95018511Y-125341301D01*
X95089130Y-125108502D01*
X95112975Y-124866400D01*
X95089130Y-124624298D01*
X95019254Y-124393948D01*
X95653002Y-123760200D01*
X95682000Y-123736402D01*
X95776973Y-123620677D01*
X95847545Y-123488648D01*
X95891002Y-123345387D01*
X95901999Y-123233734D01*
X95901999Y-123233725D01*
X95905675Y-123196402D01*
X95901999Y-123159079D01*
X95901999Y-58438799D01*
X98046001Y-60582801D01*
X98046000Y-67241289D01*
X98002063Y-67285226D01*
X97888795Y-67454744D01*
X97810774Y-67643102D01*
X97771000Y-67843061D01*
X97771000Y-68046939D01*
X97810774Y-68246898D01*
X97888795Y-68435256D01*
X98002063Y-68604774D01*
X98146226Y-68748937D01*
X98315744Y-68862205D01*
X98504102Y-68940226D01*
X98704061Y-68980000D01*
X98907939Y-68980000D01*
X99107898Y-68940226D01*
X99296256Y-68862205D01*
X99465774Y-68748937D01*
X99609937Y-68604774D01*
X99723205Y-68435256D01*
X99801226Y-68246898D01*
X99841000Y-68046939D01*
X99841000Y-67843061D01*
X99801226Y-67643102D01*
X99723205Y-67454744D01*
X99609937Y-67285226D01*
X99566000Y-67241289D01*
X99566000Y-60305320D01*
X99569676Y-60267997D01*
X99566000Y-60230674D01*
X99566000Y-60230665D01*
X99555003Y-60119012D01*
X99511546Y-59975751D01*
X99440974Y-59843722D01*
X99346001Y-59727997D01*
X99317003Y-59704199D01*
X99034796Y-59421992D01*
X101405991Y-59421992D01*
X101405990Y-106026000D01*
X101244061Y-106026000D01*
X101044102Y-106065774D01*
X100855744Y-106143795D01*
X100686226Y-106257063D01*
X100542063Y-106401226D01*
X100428795Y-106570744D01*
X100350774Y-106759102D01*
X100311000Y-106959061D01*
X100311000Y-107162939D01*
X100350774Y-107362898D01*
X100428795Y-107551256D01*
X100542063Y-107720774D01*
X100586000Y-107764711D01*
X100586001Y-122703667D01*
X100582324Y-122741000D01*
X100596998Y-122889985D01*
X100640454Y-123033246D01*
X100711026Y-123165276D01*
X100755740Y-123219759D01*
X100806000Y-123281001D01*
X100834998Y-123304799D01*
X104591312Y-127061114D01*
X104555000Y-127243665D01*
X104555000Y-127526335D01*
X104610147Y-127803574D01*
X104718320Y-128064727D01*
X104875363Y-128299759D01*
X105075241Y-128499637D01*
X105310273Y-128656680D01*
X105571426Y-128764853D01*
X105848665Y-128820000D01*
X106131335Y-128820000D01*
X106408574Y-128764853D01*
X106669727Y-128656680D01*
X106904759Y-128499637D01*
X107104637Y-128299759D01*
X107261680Y-128064727D01*
X107262489Y-128062775D01*
X107280167Y-128095849D01*
X107434498Y-128283902D01*
X107622551Y-128438233D01*
X107837099Y-128552911D01*
X108069898Y-128623530D01*
X108251335Y-128641400D01*
X109172665Y-128641400D01*
X109354102Y-128623530D01*
X109586901Y-128552911D01*
X109663991Y-128511705D01*
X109661161Y-128517028D01*
X109351323Y-128896927D01*
X108973600Y-129209406D01*
X108542373Y-129442569D01*
X108074073Y-129587532D01*
X107555847Y-129642000D01*
X90837278Y-129642000D01*
X90317117Y-129590998D01*
X89847814Y-129449307D01*
X89414972Y-129219161D01*
X89035073Y-128909323D01*
X88722594Y-128531600D01*
X88489431Y-128100373D01*
X88344468Y-127632073D01*
X88290000Y-127113847D01*
X88290000Y-67150581D01*
X88287069Y-67120818D01*
X88287207Y-67101016D01*
X88286307Y-67091845D01*
X88221535Y-66475588D01*
X88209516Y-66417037D01*
X88198299Y-66358234D01*
X88195635Y-66349412D01*
X88012400Y-65757472D01*
X87989232Y-65702359D01*
X87966810Y-65646861D01*
X87962483Y-65638725D01*
X87667762Y-65093650D01*
X87634291Y-65044028D01*
X87601558Y-64994005D01*
X87595733Y-64986864D01*
X87595732Y-64986862D01*
X87595728Y-64986858D01*
X87200753Y-64509414D01*
X87158336Y-64467292D01*
X87116454Y-64424523D01*
X87109353Y-64418650D01*
X86629157Y-64027011D01*
X86579356Y-63993924D01*
X86529976Y-63960112D01*
X86521870Y-63955730D01*
X85974749Y-63664821D01*
X85919455Y-63642030D01*
X85864462Y-63618460D01*
X85855659Y-63615735D01*
X85262455Y-63436636D01*
X85203784Y-63425019D01*
X85145263Y-63412580D01*
X85136098Y-63411617D01*
X84519404Y-63351150D01*
X84519402Y-63351150D01*
X84487419Y-63348000D01*
X84233278Y-63348000D01*
X83713117Y-63296998D01*
X83243814Y-63155307D01*
X82810972Y-62925161D01*
X82431073Y-62615323D01*
X82118594Y-62237600D01*
X81885431Y-61806373D01*
X81740468Y-61338073D01*
X81686000Y-60819847D01*
X81686000Y-57422100D01*
X81904293Y-57640393D01*
G37*
G04 #@! TD.AperFunction*
D21*
X104591312Y-121981114D02*
X104555000Y-122163665D01*
X104555000Y-122446335D01*
X104610147Y-122723574D01*
X104718320Y-122984727D01*
X104875363Y-123219759D01*
X105075241Y-123419637D01*
X105307759Y-123575000D01*
X105075241Y-123730363D01*
X104875363Y-123930241D01*
X104718320Y-124165273D01*
X104610147Y-124426426D01*
X104555000Y-124703665D01*
X104555000Y-124875198D01*
X102106000Y-122426199D01*
X102106000Y-119495801D01*
X104591312Y-121981114D01*
G04 #@! TA.AperFunction,Conductor*
D22*
G36*
X104591312Y-121981114D02*
G01*
X104555000Y-122163665D01*
X104555000Y-122446335D01*
X104610147Y-122723574D01*
X104718320Y-122984727D01*
X104875363Y-123219759D01*
X105075241Y-123419637D01*
X105307759Y-123575000D01*
X105075241Y-123730363D01*
X104875363Y-123930241D01*
X104718320Y-124165273D01*
X104610147Y-124426426D01*
X104555000Y-124703665D01*
X104555000Y-124875198D01*
X102106000Y-122426199D01*
X102106000Y-119495801D01*
X104591312Y-121981114D01*
G37*
G04 #@! TD.AperFunction*
D21*
X104591312Y-116901114D02*
X104555000Y-117083665D01*
X104555000Y-117366335D01*
X104610147Y-117643574D01*
X104718320Y-117904727D01*
X104875363Y-118139759D01*
X105075241Y-118339637D01*
X105307759Y-118495000D01*
X105075241Y-118650363D01*
X104875363Y-118850241D01*
X104718320Y-119085273D01*
X104610147Y-119346426D01*
X104555000Y-119623665D01*
X104555000Y-119795199D01*
X102925990Y-118166189D01*
X102925990Y-115235791D01*
X104591312Y-116901114D01*
G04 #@! TA.AperFunction,Conductor*
D22*
G36*
X104591312Y-116901114D02*
G01*
X104555000Y-117083665D01*
X104555000Y-117366335D01*
X104610147Y-117643574D01*
X104718320Y-117904727D01*
X104875363Y-118139759D01*
X105075241Y-118339637D01*
X105307759Y-118495000D01*
X105075241Y-118650363D01*
X104875363Y-118850241D01*
X104718320Y-119085273D01*
X104610147Y-119346426D01*
X104555000Y-119623665D01*
X104555000Y-119795199D01*
X102925990Y-118166189D01*
X102925990Y-115235791D01*
X104591312Y-116901114D01*
G37*
G04 #@! TD.AperFunction*
D21*
X103382998Y-110618000D02*
X103412002Y-110641803D01*
X104591312Y-111821114D01*
X104555000Y-112003665D01*
X104555000Y-112286335D01*
X104610147Y-112563574D01*
X104718320Y-112824727D01*
X104875363Y-113059759D01*
X105075241Y-113259637D01*
X105307759Y-113415000D01*
X105075241Y-113570363D01*
X104875363Y-113770241D01*
X104718320Y-114005273D01*
X104610147Y-114266426D01*
X104555000Y-114543665D01*
X104555000Y-114715199D01*
X103376000Y-113536199D01*
X103376000Y-110609473D01*
X103382998Y-110618000D01*
G04 #@! TA.AperFunction,Conductor*
D22*
G36*
X103382998Y-110618000D02*
G01*
X103412002Y-110641803D01*
X104591312Y-111821114D01*
X104555000Y-112003665D01*
X104555000Y-112286335D01*
X104610147Y-112563574D01*
X104718320Y-112824727D01*
X104875363Y-113059759D01*
X105075241Y-113259637D01*
X105307759Y-113415000D01*
X105075241Y-113570363D01*
X104875363Y-113770241D01*
X104718320Y-114005273D01*
X104610147Y-114266426D01*
X104555000Y-114543665D01*
X104555000Y-114715199D01*
X103376000Y-113536199D01*
X103376000Y-110609473D01*
X103382998Y-110618000D01*
G37*
G04 #@! TD.AperFunction*
D21*
X107280167Y-95075849D02*
X107434498Y-95263902D01*
X107622551Y-95418233D01*
X107837099Y-95532911D01*
X108069898Y-95603530D01*
X108251335Y-95621400D01*
X109172665Y-95621400D01*
X109354102Y-95603530D01*
X109360019Y-95601735D01*
X109360019Y-95716014D01*
X109239000Y-95691400D01*
X108839000Y-95691400D01*
X108839000Y-96799400D01*
X108859000Y-96799400D01*
X108859000Y-97053400D01*
X108839000Y-97053400D01*
X108839000Y-97073400D01*
X108585000Y-97073400D01*
X108585000Y-97053400D01*
X107271672Y-97053400D01*
X107259915Y-97032000D01*
X106117000Y-97032000D01*
X106117000Y-97052000D01*
X105863000Y-97052000D01*
X105863000Y-97032000D01*
X105843000Y-97032000D01*
X105843000Y-96778000D01*
X105863000Y-96778000D01*
X105863000Y-96758000D01*
X106117000Y-96758000D01*
X106117000Y-96778000D01*
X107229265Y-96778000D01*
X107243269Y-96799400D01*
X108585000Y-96799400D01*
X108585000Y-95691400D01*
X108185000Y-95691400D01*
X107946504Y-95739907D01*
X107722054Y-95834010D01*
X107520275Y-95970093D01*
X107348922Y-96142926D01*
X107267511Y-96265907D01*
X107221037Y-96167580D01*
X107053519Y-95941586D01*
X106845131Y-95752615D01*
X106659135Y-95641067D01*
X106669727Y-95636680D01*
X106904759Y-95479637D01*
X107104637Y-95279759D01*
X107261680Y-95044727D01*
X107262489Y-95042775D01*
X107280167Y-95075849D01*
G04 #@! TA.AperFunction,Conductor*
D22*
G36*
X107280167Y-95075849D02*
G01*
X107434498Y-95263902D01*
X107622551Y-95418233D01*
X107837099Y-95532911D01*
X108069898Y-95603530D01*
X108251335Y-95621400D01*
X109172665Y-95621400D01*
X109354102Y-95603530D01*
X109360019Y-95601735D01*
X109360019Y-95716014D01*
X109239000Y-95691400D01*
X108839000Y-95691400D01*
X108839000Y-96799400D01*
X108859000Y-96799400D01*
X108859000Y-97053400D01*
X108839000Y-97053400D01*
X108839000Y-97073400D01*
X108585000Y-97073400D01*
X108585000Y-97053400D01*
X107271672Y-97053400D01*
X107259915Y-97032000D01*
X106117000Y-97032000D01*
X106117000Y-97052000D01*
X105863000Y-97052000D01*
X105863000Y-97032000D01*
X105843000Y-97032000D01*
X105843000Y-96778000D01*
X105863000Y-96778000D01*
X105863000Y-96758000D01*
X106117000Y-96758000D01*
X106117000Y-96778000D01*
X107229265Y-96778000D01*
X107243269Y-96799400D01*
X108585000Y-96799400D01*
X108585000Y-95691400D01*
X108185000Y-95691400D01*
X107946504Y-95739907D01*
X107722054Y-95834010D01*
X107520275Y-95970093D01*
X107348922Y-96142926D01*
X107267511Y-96265907D01*
X107221037Y-96167580D01*
X107053519Y-95941586D01*
X106845131Y-95752615D01*
X106659135Y-95641067D01*
X106669727Y-95636680D01*
X106904759Y-95479637D01*
X107104637Y-95279759D01*
X107261680Y-95044727D01*
X107262489Y-95042775D01*
X107280167Y-95075849D01*
G37*
G04 #@! TD.AperFunction*
D21*
X97015026Y-44762686D02*
X97040927Y-44794246D01*
X97109999Y-44878411D01*
X97139003Y-44902214D01*
X100245790Y-48009002D01*
X100269589Y-48038001D01*
X100298587Y-48061799D01*
X100385313Y-48132974D01*
X100502457Y-48195589D01*
X100517343Y-48203546D01*
X100660604Y-48247003D01*
X100772257Y-48258000D01*
X100772266Y-48258000D01*
X100809589Y-48261676D01*
X100846912Y-48258000D01*
X103825199Y-48258000D01*
X109360020Y-53792822D01*
X109360020Y-67771065D01*
X109354102Y-67769270D01*
X109172665Y-67751400D01*
X108251335Y-67751400D01*
X108069898Y-67769270D01*
X107837099Y-67839889D01*
X107622551Y-67954567D01*
X107434498Y-68108898D01*
X107280167Y-68296951D01*
X107272477Y-68311339D01*
X107261680Y-68285273D01*
X107104637Y-68050241D01*
X106904759Y-67850363D01*
X106669727Y-67693320D01*
X106408574Y-67585147D01*
X106131335Y-67530000D01*
X105848665Y-67530000D01*
X105571426Y-67585147D01*
X105408000Y-67652840D01*
X105408000Y-66997711D01*
X105451937Y-66953774D01*
X105565205Y-66784256D01*
X105643226Y-66595898D01*
X105683000Y-66395939D01*
X105683000Y-66192061D01*
X105643226Y-65992102D01*
X105565205Y-65803744D01*
X105451937Y-65634226D01*
X105307774Y-65490063D01*
X105138256Y-65376795D01*
X104949898Y-65298774D01*
X104749939Y-65259000D01*
X104682999Y-65259000D01*
X104682999Y-53498712D01*
X104816937Y-53364774D01*
X104930205Y-53195256D01*
X105008226Y-53006898D01*
X105048000Y-52806939D01*
X105048000Y-52603061D01*
X105008226Y-52403102D01*
X104930205Y-52214744D01*
X104816937Y-52045226D01*
X104672774Y-51901063D01*
X104503256Y-51787795D01*
X104314898Y-51709774D01*
X104114939Y-51670000D01*
X103911061Y-51670000D01*
X103711102Y-51709774D01*
X103522744Y-51787795D01*
X103376000Y-51885846D01*
X103376000Y-51345333D01*
X103379677Y-51308000D01*
X103365003Y-51159014D01*
X103321546Y-51015753D01*
X103250974Y-50883724D01*
X103156001Y-50767999D01*
X103040276Y-50673026D01*
X102908247Y-50602454D01*
X102789483Y-50566428D01*
X96903125Y-44680072D01*
X96970868Y-44680072D01*
X97015026Y-44762686D01*
G04 #@! TA.AperFunction,Conductor*
D22*
G36*
X97015026Y-44762686D02*
G01*
X97040927Y-44794246D01*
X97109999Y-44878411D01*
X97139003Y-44902214D01*
X100245790Y-48009002D01*
X100269589Y-48038001D01*
X100298587Y-48061799D01*
X100385313Y-48132974D01*
X100502457Y-48195589D01*
X100517343Y-48203546D01*
X100660604Y-48247003D01*
X100772257Y-48258000D01*
X100772266Y-48258000D01*
X100809589Y-48261676D01*
X100846912Y-48258000D01*
X103825199Y-48258000D01*
X109360020Y-53792822D01*
X109360020Y-67771065D01*
X109354102Y-67769270D01*
X109172665Y-67751400D01*
X108251335Y-67751400D01*
X108069898Y-67769270D01*
X107837099Y-67839889D01*
X107622551Y-67954567D01*
X107434498Y-68108898D01*
X107280167Y-68296951D01*
X107272477Y-68311339D01*
X107261680Y-68285273D01*
X107104637Y-68050241D01*
X106904759Y-67850363D01*
X106669727Y-67693320D01*
X106408574Y-67585147D01*
X106131335Y-67530000D01*
X105848665Y-67530000D01*
X105571426Y-67585147D01*
X105408000Y-67652840D01*
X105408000Y-66997711D01*
X105451937Y-66953774D01*
X105565205Y-66784256D01*
X105643226Y-66595898D01*
X105683000Y-66395939D01*
X105683000Y-66192061D01*
X105643226Y-65992102D01*
X105565205Y-65803744D01*
X105451937Y-65634226D01*
X105307774Y-65490063D01*
X105138256Y-65376795D01*
X104949898Y-65298774D01*
X104749939Y-65259000D01*
X104682999Y-65259000D01*
X104682999Y-53498712D01*
X104816937Y-53364774D01*
X104930205Y-53195256D01*
X105008226Y-53006898D01*
X105048000Y-52806939D01*
X105048000Y-52603061D01*
X105008226Y-52403102D01*
X104930205Y-52214744D01*
X104816937Y-52045226D01*
X104672774Y-51901063D01*
X104503256Y-51787795D01*
X104314898Y-51709774D01*
X104114939Y-51670000D01*
X103911061Y-51670000D01*
X103711102Y-51709774D01*
X103522744Y-51787795D01*
X103376000Y-51885846D01*
X103376000Y-51345333D01*
X103379677Y-51308000D01*
X103365003Y-51159014D01*
X103321546Y-51015753D01*
X103250974Y-50883724D01*
X103156001Y-50767999D01*
X103040276Y-50673026D01*
X102908247Y-50602454D01*
X102789483Y-50566428D01*
X96903125Y-44680072D01*
X96970868Y-44680072D01*
X97015026Y-44762686D01*
G37*
G04 #@! TD.AperFunction*
D21*
X84997002Y-40617195D02*
X84967998Y-40640998D01*
X84936870Y-40678928D01*
X84873025Y-40756723D01*
X84845116Y-40808937D01*
X84802453Y-40888753D01*
X84758996Y-41032014D01*
X84747999Y-41143667D01*
X84747999Y-41143677D01*
X84744323Y-41180999D01*
X84747999Y-41218322D01*
X84748000Y-45918609D01*
X84744323Y-45955941D01*
X84758997Y-46104926D01*
X84802453Y-46248187D01*
X84873025Y-46380217D01*
X84884538Y-46394245D01*
X84967999Y-46495942D01*
X84996997Y-46519740D01*
X92401408Y-53924152D01*
X92346744Y-53946795D01*
X92177226Y-54060063D01*
X92033063Y-54204226D01*
X91919795Y-54373744D01*
X91841774Y-54562102D01*
X91802000Y-54762061D01*
X91802000Y-54965939D01*
X91841774Y-55165898D01*
X91919795Y-55354256D01*
X92033063Y-55523774D01*
X92177226Y-55667937D01*
X92346744Y-55781205D01*
X92535102Y-55859226D01*
X92735061Y-55899000D01*
X92938939Y-55899000D01*
X93138898Y-55859226D01*
X93268672Y-55805471D01*
X94009245Y-56546044D01*
X93938063Y-56617226D01*
X93824795Y-56786744D01*
X93746774Y-56975102D01*
X93707000Y-57175061D01*
X93707000Y-57378939D01*
X93746774Y-57578898D01*
X93824795Y-57767256D01*
X93938063Y-57936774D01*
X94082226Y-58080937D01*
X94251744Y-58194205D01*
X94381999Y-58248159D01*
X94381999Y-67858649D01*
X94346901Y-67839889D01*
X94114102Y-67769270D01*
X93932665Y-67751400D01*
X93011335Y-67751400D01*
X92829898Y-67769270D01*
X92597099Y-67839889D01*
X92382551Y-67954567D01*
X92194498Y-68108898D01*
X92183827Y-68121900D01*
X92175812Y-68040518D01*
X92139502Y-67920820D01*
X92080537Y-67810506D01*
X92001185Y-67713815D01*
X91904494Y-67634463D01*
X91794180Y-67575498D01*
X91674482Y-67539188D01*
X91550000Y-67526928D01*
X90384999Y-67526928D01*
X90384999Y-63687213D01*
X90388675Y-63649888D01*
X90384999Y-63612563D01*
X90384999Y-63612555D01*
X90374002Y-63500902D01*
X90330545Y-63357641D01*
X90259973Y-63225612D01*
X90165000Y-63109887D01*
X90136002Y-63086089D01*
X83678102Y-56628190D01*
X83678102Y-51415403D01*
X91378500Y-59115802D01*
X91378501Y-61623444D01*
X91300792Y-61739744D01*
X91222771Y-61928102D01*
X91182997Y-62128061D01*
X91182997Y-62331939D01*
X91222771Y-62531898D01*
X91300792Y-62720256D01*
X91414060Y-62889774D01*
X91558223Y-63033937D01*
X91727741Y-63147205D01*
X91916099Y-63225226D01*
X92116058Y-63265000D01*
X92319936Y-63265000D01*
X92519895Y-63225226D01*
X92708253Y-63147205D01*
X92877771Y-63033937D01*
X93021934Y-62889774D01*
X93135202Y-62720256D01*
X93213223Y-62531898D01*
X93252997Y-62331939D01*
X93252997Y-62128061D01*
X93213223Y-61928102D01*
X93135202Y-61739744D01*
X93021934Y-61570226D01*
X92898500Y-61446792D01*
X92898500Y-58838322D01*
X92902176Y-58800999D01*
X92898500Y-58763676D01*
X92898500Y-58763667D01*
X92887503Y-58652014D01*
X92844046Y-58508753D01*
X92807657Y-58440675D01*
X92773474Y-58376723D01*
X92702299Y-58289997D01*
X92678501Y-58260999D01*
X92649504Y-58237202D01*
X84403102Y-49990801D01*
X84403102Y-41131699D01*
X85383802Y-40151000D01*
X85445939Y-40151000D01*
X85467482Y-40146715D01*
X84997002Y-40617195D01*
G04 #@! TA.AperFunction,Conductor*
D22*
G36*
X84997002Y-40617195D02*
G01*
X84967998Y-40640998D01*
X84936870Y-40678928D01*
X84873025Y-40756723D01*
X84845116Y-40808937D01*
X84802453Y-40888753D01*
X84758996Y-41032014D01*
X84747999Y-41143667D01*
X84747999Y-41143677D01*
X84744323Y-41180999D01*
X84747999Y-41218322D01*
X84748000Y-45918609D01*
X84744323Y-45955941D01*
X84758997Y-46104926D01*
X84802453Y-46248187D01*
X84873025Y-46380217D01*
X84884538Y-46394245D01*
X84967999Y-46495942D01*
X84996997Y-46519740D01*
X92401408Y-53924152D01*
X92346744Y-53946795D01*
X92177226Y-54060063D01*
X92033063Y-54204226D01*
X91919795Y-54373744D01*
X91841774Y-54562102D01*
X91802000Y-54762061D01*
X91802000Y-54965939D01*
X91841774Y-55165898D01*
X91919795Y-55354256D01*
X92033063Y-55523774D01*
X92177226Y-55667937D01*
X92346744Y-55781205D01*
X92535102Y-55859226D01*
X92735061Y-55899000D01*
X92938939Y-55899000D01*
X93138898Y-55859226D01*
X93268672Y-55805471D01*
X94009245Y-56546044D01*
X93938063Y-56617226D01*
X93824795Y-56786744D01*
X93746774Y-56975102D01*
X93707000Y-57175061D01*
X93707000Y-57378939D01*
X93746774Y-57578898D01*
X93824795Y-57767256D01*
X93938063Y-57936774D01*
X94082226Y-58080937D01*
X94251744Y-58194205D01*
X94381999Y-58248159D01*
X94381999Y-67858649D01*
X94346901Y-67839889D01*
X94114102Y-67769270D01*
X93932665Y-67751400D01*
X93011335Y-67751400D01*
X92829898Y-67769270D01*
X92597099Y-67839889D01*
X92382551Y-67954567D01*
X92194498Y-68108898D01*
X92183827Y-68121900D01*
X92175812Y-68040518D01*
X92139502Y-67920820D01*
X92080537Y-67810506D01*
X92001185Y-67713815D01*
X91904494Y-67634463D01*
X91794180Y-67575498D01*
X91674482Y-67539188D01*
X91550000Y-67526928D01*
X90384999Y-67526928D01*
X90384999Y-63687213D01*
X90388675Y-63649888D01*
X90384999Y-63612563D01*
X90384999Y-63612555D01*
X90374002Y-63500902D01*
X90330545Y-63357641D01*
X90259973Y-63225612D01*
X90165000Y-63109887D01*
X90136002Y-63086089D01*
X83678102Y-56628190D01*
X83678102Y-51415403D01*
X91378500Y-59115802D01*
X91378501Y-61623444D01*
X91300792Y-61739744D01*
X91222771Y-61928102D01*
X91182997Y-62128061D01*
X91182997Y-62331939D01*
X91222771Y-62531898D01*
X91300792Y-62720256D01*
X91414060Y-62889774D01*
X91558223Y-63033937D01*
X91727741Y-63147205D01*
X91916099Y-63225226D01*
X92116058Y-63265000D01*
X92319936Y-63265000D01*
X92519895Y-63225226D01*
X92708253Y-63147205D01*
X92877771Y-63033937D01*
X93021934Y-62889774D01*
X93135202Y-62720256D01*
X93213223Y-62531898D01*
X93252997Y-62331939D01*
X93252997Y-62128061D01*
X93213223Y-61928102D01*
X93135202Y-61739744D01*
X93021934Y-61570226D01*
X92898500Y-61446792D01*
X92898500Y-58838322D01*
X92902176Y-58800999D01*
X92898500Y-58763676D01*
X92898500Y-58763667D01*
X92887503Y-58652014D01*
X92844046Y-58508753D01*
X92807657Y-58440675D01*
X92773474Y-58376723D01*
X92702299Y-58289997D01*
X92678501Y-58260999D01*
X92649504Y-58237202D01*
X84403102Y-49990801D01*
X84403102Y-41131699D01*
X85383802Y-40151000D01*
X85445939Y-40151000D01*
X85467482Y-40146715D01*
X84997002Y-40617195D01*
G37*
G04 #@! TD.AperFunction*
D21*
X92090000Y-48108677D02*
X92086324Y-48146000D01*
X92090000Y-48183322D01*
X92090000Y-48183332D01*
X92100997Y-48294985D01*
X92121063Y-48361134D01*
X92144454Y-48438246D01*
X92215026Y-48570276D01*
X92254871Y-48618826D01*
X92309999Y-48686001D01*
X92339003Y-48709804D01*
X93453000Y-49823802D01*
X93453000Y-49885939D01*
X93492774Y-50085898D01*
X93570795Y-50274256D01*
X93684063Y-50443774D01*
X93828226Y-50587937D01*
X93997744Y-50701205D01*
X94186102Y-50779226D01*
X94386061Y-50819000D01*
X94589939Y-50819000D01*
X94789898Y-50779226D01*
X94978256Y-50701205D01*
X95147774Y-50587937D01*
X95291937Y-50443774D01*
X95386080Y-50302879D01*
X98922479Y-53839279D01*
X98904795Y-53865744D01*
X98826774Y-54054102D01*
X98787000Y-54254061D01*
X98787000Y-54457939D01*
X98826774Y-54657898D01*
X98904795Y-54846256D01*
X99018063Y-55015774D01*
X99162226Y-55159937D01*
X99331744Y-55273205D01*
X99520102Y-55351226D01*
X99720061Y-55391000D01*
X99923939Y-55391000D01*
X100123898Y-55351226D01*
X100312256Y-55273205D01*
X100382391Y-55226342D01*
X100433448Y-55349603D01*
X100546716Y-55519121D01*
X100690879Y-55663284D01*
X100860397Y-55776552D01*
X101048755Y-55854573D01*
X101248714Y-55894347D01*
X101452592Y-55894347D01*
X101652551Y-55854573D01*
X101840909Y-55776552D01*
X101856001Y-55766468D01*
X101856001Y-57901992D01*
X98528852Y-57901992D01*
X93423054Y-52796195D01*
X93496774Y-52746937D01*
X93640937Y-52602774D01*
X93754205Y-52433256D01*
X93832226Y-52244898D01*
X93872000Y-52044939D01*
X93872000Y-51841061D01*
X93832226Y-51641102D01*
X93754205Y-51452744D01*
X93640937Y-51283226D01*
X93496774Y-51139063D01*
X93327256Y-51025795D01*
X93138898Y-50947774D01*
X92938939Y-50908000D01*
X92876802Y-50908000D01*
X91982999Y-50014198D01*
X91982999Y-45993000D01*
X92049939Y-45993000D01*
X92090000Y-45985031D01*
X92090000Y-48108677D01*
G04 #@! TA.AperFunction,Conductor*
D22*
G36*
X92090000Y-48108677D02*
G01*
X92086324Y-48146000D01*
X92090000Y-48183322D01*
X92090000Y-48183332D01*
X92100997Y-48294985D01*
X92121063Y-48361134D01*
X92144454Y-48438246D01*
X92215026Y-48570276D01*
X92254871Y-48618826D01*
X92309999Y-48686001D01*
X92339003Y-48709804D01*
X93453000Y-49823802D01*
X93453000Y-49885939D01*
X93492774Y-50085898D01*
X93570795Y-50274256D01*
X93684063Y-50443774D01*
X93828226Y-50587937D01*
X93997744Y-50701205D01*
X94186102Y-50779226D01*
X94386061Y-50819000D01*
X94589939Y-50819000D01*
X94789898Y-50779226D01*
X94978256Y-50701205D01*
X95147774Y-50587937D01*
X95291937Y-50443774D01*
X95386080Y-50302879D01*
X98922479Y-53839279D01*
X98904795Y-53865744D01*
X98826774Y-54054102D01*
X98787000Y-54254061D01*
X98787000Y-54457939D01*
X98826774Y-54657898D01*
X98904795Y-54846256D01*
X99018063Y-55015774D01*
X99162226Y-55159937D01*
X99331744Y-55273205D01*
X99520102Y-55351226D01*
X99720061Y-55391000D01*
X99923939Y-55391000D01*
X100123898Y-55351226D01*
X100312256Y-55273205D01*
X100382391Y-55226342D01*
X100433448Y-55349603D01*
X100546716Y-55519121D01*
X100690879Y-55663284D01*
X100860397Y-55776552D01*
X101048755Y-55854573D01*
X101248714Y-55894347D01*
X101452592Y-55894347D01*
X101652551Y-55854573D01*
X101840909Y-55776552D01*
X101856001Y-55766468D01*
X101856001Y-57901992D01*
X98528852Y-57901992D01*
X93423054Y-52796195D01*
X93496774Y-52746937D01*
X93640937Y-52602774D01*
X93754205Y-52433256D01*
X93832226Y-52244898D01*
X93872000Y-52044939D01*
X93872000Y-51841061D01*
X93832226Y-51641102D01*
X93754205Y-51452744D01*
X93640937Y-51283226D01*
X93496774Y-51139063D01*
X93327256Y-51025795D01*
X93138898Y-50947774D01*
X92938939Y-50908000D01*
X92876802Y-50908000D01*
X91982999Y-50014198D01*
X91982999Y-45993000D01*
X92049939Y-45993000D01*
X92090000Y-45985031D01*
X92090000Y-48108677D01*
G37*
G04 #@! TD.AperFunction*
D21*
X101856001Y-51782552D02*
X101856001Y-52589645D01*
X101701939Y-52559000D01*
X101639802Y-52559000D01*
X96010000Y-46929199D01*
X96010000Y-45936549D01*
X101856001Y-51782552D01*
G04 #@! TA.AperFunction,Conductor*
D22*
G36*
X101856001Y-51782552D02*
G01*
X101856001Y-52589645D01*
X101701939Y-52559000D01*
X101639802Y-52559000D01*
X96010000Y-46929199D01*
X96010000Y-45936549D01*
X101856001Y-51782552D01*
G37*
G04 #@! TD.AperFunction*
D21*
X109387200Y-20999559D02*
X109548041Y-21048120D01*
X109696378Y-21126992D01*
X109826574Y-21233176D01*
X109933664Y-21362626D01*
X110013572Y-21510414D01*
X110063252Y-21670902D01*
X110084000Y-21868306D01*
X110084000Y-52367198D01*
X104703804Y-46987003D01*
X104680001Y-46957999D01*
X104564276Y-46863026D01*
X104432247Y-46792454D01*
X104288986Y-46748997D01*
X104177333Y-46738000D01*
X104177322Y-46738000D01*
X104140000Y-46734324D01*
X104102678Y-46738000D01*
X103419353Y-46738000D01*
X103421276Y-46736972D01*
X103537001Y-46641999D01*
X103560804Y-46612995D01*
X106010804Y-44162996D01*
X106038003Y-44165675D01*
X106075325Y-44161999D01*
X106075336Y-44161999D01*
X106186989Y-44151002D01*
X106330250Y-44107545D01*
X106462279Y-44036973D01*
X106578004Y-43942000D01*
X106601807Y-43912996D01*
X109731003Y-40783801D01*
X109760001Y-40760003D01*
X109854974Y-40644278D01*
X109925546Y-40512249D01*
X109969003Y-40368988D01*
X109980000Y-40257335D01*
X109980000Y-40257326D01*
X109983676Y-40220003D01*
X109980000Y-40182680D01*
X109980000Y-28612322D01*
X109983676Y-28574999D01*
X109980000Y-28537676D01*
X109980000Y-28537667D01*
X109969003Y-28426014D01*
X109925546Y-28282753D01*
X109854974Y-28150724D01*
X109760001Y-28034999D01*
X109731004Y-28011202D01*
X108710000Y-26990199D01*
X108710000Y-26678178D01*
X108896632Y-26553475D01*
X109103475Y-26346632D01*
X109265990Y-26103411D01*
X109377932Y-25833158D01*
X109435000Y-25546260D01*
X109435000Y-25253740D01*
X109377932Y-24966842D01*
X109265990Y-24696589D01*
X109103475Y-24453368D01*
X108896632Y-24246525D01*
X108720594Y-24128900D01*
X108950269Y-23957588D01*
X109145178Y-23741355D01*
X109294157Y-23491252D01*
X109391481Y-23216891D01*
X109270814Y-22987000D01*
X108077000Y-22987000D01*
X108077000Y-23007000D01*
X107823000Y-23007000D01*
X107823000Y-22987000D01*
X107803000Y-22987000D01*
X107803000Y-22733000D01*
X107823000Y-22733000D01*
X107823000Y-21539845D01*
X108077000Y-21539845D01*
X108077000Y-22733000D01*
X109270814Y-22733000D01*
X109391481Y-22503109D01*
X109294157Y-22228748D01*
X109145178Y-21978645D01*
X108950269Y-21762412D01*
X108716920Y-21588359D01*
X108454099Y-21463175D01*
X108306890Y-21418524D01*
X108077000Y-21539845D01*
X107823000Y-21539845D01*
X107593110Y-21418524D01*
X107445901Y-21463175D01*
X107183080Y-21588359D01*
X106949731Y-21762412D01*
X106754822Y-21978645D01*
X106685195Y-22095534D01*
X106563475Y-21913368D01*
X106356632Y-21706525D01*
X106113411Y-21544010D01*
X105843158Y-21432068D01*
X105556260Y-21375000D01*
X105263740Y-21375000D01*
X104976842Y-21432068D01*
X104706589Y-21544010D01*
X104463368Y-21706525D01*
X104256525Y-21913368D01*
X104140000Y-22087760D01*
X104023475Y-21913368D01*
X103816632Y-21706525D01*
X103573411Y-21544010D01*
X103303158Y-21432068D01*
X103016260Y-21375000D01*
X102723740Y-21375000D01*
X102436842Y-21432068D01*
X102166589Y-21544010D01*
X101923368Y-21706525D01*
X101716525Y-21913368D01*
X101600000Y-22087760D01*
X101483475Y-21913368D01*
X101276632Y-21706525D01*
X101033411Y-21544010D01*
X100763158Y-21432068D01*
X100476260Y-21375000D01*
X100183740Y-21375000D01*
X99896842Y-21432068D01*
X99626589Y-21544010D01*
X99383368Y-21706525D01*
X99176525Y-21913368D01*
X99060000Y-22087760D01*
X98943475Y-21913368D01*
X98736632Y-21706525D01*
X98493411Y-21544010D01*
X98223158Y-21432068D01*
X97936260Y-21375000D01*
X97643740Y-21375000D01*
X97356842Y-21432068D01*
X97086589Y-21544010D01*
X96843368Y-21706525D01*
X96636525Y-21913368D01*
X96520000Y-22087760D01*
X96403475Y-21913368D01*
X96196632Y-21706525D01*
X95953411Y-21544010D01*
X95683158Y-21432068D01*
X95396260Y-21375000D01*
X95103740Y-21375000D01*
X94816842Y-21432068D01*
X94546589Y-21544010D01*
X94303368Y-21706525D01*
X94096525Y-21913368D01*
X93980000Y-22087760D01*
X93863475Y-21913368D01*
X93656632Y-21706525D01*
X93413411Y-21544010D01*
X93143158Y-21432068D01*
X92856260Y-21375000D01*
X92563740Y-21375000D01*
X92276842Y-21432068D01*
X92006589Y-21544010D01*
X91763368Y-21706525D01*
X91556525Y-21913368D01*
X91434805Y-22095534D01*
X91365178Y-21978645D01*
X91170269Y-21762412D01*
X90936920Y-21588359D01*
X90674099Y-21463175D01*
X90526890Y-21418524D01*
X90297000Y-21539845D01*
X90297000Y-22733000D01*
X90317000Y-22733000D01*
X90317000Y-22987000D01*
X90297000Y-22987000D01*
X90297000Y-23007000D01*
X90043000Y-23007000D01*
X90043000Y-22987000D01*
X90023000Y-22987000D01*
X90023000Y-22733000D01*
X90043000Y-22733000D01*
X90043000Y-21539845D01*
X89813110Y-21418524D01*
X89665901Y-21463175D01*
X89403080Y-21588359D01*
X89169731Y-21762412D01*
X88974822Y-21978645D01*
X88905195Y-22095534D01*
X88783475Y-21913368D01*
X88576632Y-21706525D01*
X88333411Y-21544010D01*
X88063158Y-21432068D01*
X87776260Y-21375000D01*
X87483740Y-21375000D01*
X87196842Y-21432068D01*
X86926589Y-21544010D01*
X86683368Y-21706525D01*
X86476525Y-21913368D01*
X86360000Y-22087760D01*
X86243475Y-21913368D01*
X86036632Y-21706525D01*
X85793411Y-21544010D01*
X85523158Y-21432068D01*
X85236260Y-21375000D01*
X84943740Y-21375000D01*
X84656842Y-21432068D01*
X84386589Y-21544010D01*
X84143368Y-21706525D01*
X83936525Y-21913368D01*
X83820000Y-22087760D01*
X83703475Y-21913368D01*
X83496632Y-21706525D01*
X83253411Y-21544010D01*
X82983158Y-21432068D01*
X82696260Y-21375000D01*
X82403740Y-21375000D01*
X82116842Y-21432068D01*
X81846589Y-21544010D01*
X81603368Y-21706525D01*
X81396525Y-21913368D01*
X81280000Y-22087760D01*
X81163475Y-21913368D01*
X80956632Y-21706525D01*
X80713411Y-21544010D01*
X80443158Y-21432068D01*
X80156260Y-21375000D01*
X79863740Y-21375000D01*
X79576842Y-21432068D01*
X79306589Y-21544010D01*
X79063368Y-21706525D01*
X78856525Y-21913368D01*
X78740000Y-22087760D01*
X78623475Y-21913368D01*
X78416632Y-21706525D01*
X78173411Y-21544010D01*
X77903158Y-21432068D01*
X77616260Y-21375000D01*
X77323740Y-21375000D01*
X77036842Y-21432068D01*
X76766589Y-21544010D01*
X76523368Y-21706525D01*
X76316525Y-21913368D01*
X76200000Y-22087760D01*
X76083475Y-21913368D01*
X75876632Y-21706525D01*
X75633411Y-21544010D01*
X75363158Y-21432068D01*
X75076260Y-21375000D01*
X74783740Y-21375000D01*
X74496842Y-21432068D01*
X74226589Y-21544010D01*
X73983368Y-21706525D01*
X73776525Y-21913368D01*
X73660000Y-22087760D01*
X73543475Y-21913368D01*
X73336632Y-21706525D01*
X73093411Y-21544010D01*
X72823158Y-21432068D01*
X72536260Y-21375000D01*
X72243740Y-21375000D01*
X71956842Y-21432068D01*
X71686589Y-21544010D01*
X71443368Y-21706525D01*
X71236525Y-21913368D01*
X71114805Y-22095534D01*
X71045178Y-21978645D01*
X70850269Y-21762412D01*
X70616920Y-21588359D01*
X70354099Y-21463175D01*
X70206890Y-21418524D01*
X69977000Y-21539845D01*
X69977000Y-22733000D01*
X69997000Y-22733000D01*
X69997000Y-22987000D01*
X69977000Y-22987000D01*
X69977000Y-23007000D01*
X69723000Y-23007000D01*
X69723000Y-22987000D01*
X69703000Y-22987000D01*
X69703000Y-22733000D01*
X69723000Y-22733000D01*
X69723000Y-21539845D01*
X69493110Y-21418524D01*
X69345901Y-21463175D01*
X69083080Y-21588359D01*
X68849731Y-21762412D01*
X68654822Y-21978645D01*
X68585195Y-22095534D01*
X68463475Y-21913368D01*
X68256632Y-21706525D01*
X68013411Y-21544010D01*
X67743158Y-21432068D01*
X67456260Y-21375000D01*
X67163740Y-21375000D01*
X66876842Y-21432068D01*
X66606589Y-21544010D01*
X66363368Y-21706525D01*
X66156525Y-21913368D01*
X66040000Y-22087760D01*
X65923475Y-21913368D01*
X65716632Y-21706525D01*
X65473411Y-21544010D01*
X65203158Y-21432068D01*
X64916260Y-21375000D01*
X64623740Y-21375000D01*
X64336842Y-21432068D01*
X64066589Y-21544010D01*
X63823368Y-21706525D01*
X63616525Y-21913368D01*
X63500000Y-22087760D01*
X63383475Y-21913368D01*
X63176632Y-21706525D01*
X62933411Y-21544010D01*
X62663158Y-21432068D01*
X62376260Y-21375000D01*
X62083740Y-21375000D01*
X61796842Y-21432068D01*
X61526589Y-21544010D01*
X61283368Y-21706525D01*
X61151513Y-21838380D01*
X61129502Y-21765820D01*
X61070537Y-21655506D01*
X60991185Y-21558815D01*
X60894494Y-21479463D01*
X60784180Y-21420498D01*
X60664482Y-21384188D01*
X60540000Y-21371928D01*
X58840000Y-21371928D01*
X58715518Y-21384188D01*
X58595820Y-21420498D01*
X58485506Y-21479463D01*
X58388815Y-21558815D01*
X58309463Y-21655506D01*
X58250498Y-21765820D01*
X58214188Y-21885518D01*
X58201928Y-22010000D01*
X58201928Y-23710000D01*
X58214188Y-23834482D01*
X58250498Y-23954180D01*
X58309463Y-24064494D01*
X58388815Y-24161185D01*
X58485506Y-24240537D01*
X58595820Y-24299502D01*
X58668380Y-24321513D01*
X58536525Y-24453368D01*
X58374010Y-24696589D01*
X58262068Y-24966842D01*
X58205000Y-25253740D01*
X58205000Y-25546260D01*
X58262068Y-25833158D01*
X58374010Y-26103411D01*
X58536525Y-26346632D01*
X58743368Y-26553475D01*
X58986589Y-26715990D01*
X59256842Y-26827932D01*
X59543740Y-26885000D01*
X59836260Y-26885000D01*
X60123158Y-26827932D01*
X60393411Y-26715990D01*
X60636632Y-26553475D01*
X60843475Y-26346632D01*
X60960000Y-26172240D01*
X61076525Y-26346632D01*
X61283368Y-26553475D01*
X61526589Y-26715990D01*
X61796842Y-26827932D01*
X62083740Y-26885000D01*
X62376260Y-26885000D01*
X62663158Y-26827932D01*
X62933411Y-26715990D01*
X63176632Y-26553475D01*
X63383475Y-26346632D01*
X63505195Y-26164466D01*
X63574822Y-26281355D01*
X63769731Y-26497588D01*
X64003080Y-26671641D01*
X64265901Y-26796825D01*
X64413110Y-26841476D01*
X64643000Y-26720155D01*
X64643000Y-25527000D01*
X64623000Y-25527000D01*
X64623000Y-25273000D01*
X64643000Y-25273000D01*
X64643000Y-25253000D01*
X64897000Y-25253000D01*
X64897000Y-25273000D01*
X64917000Y-25273000D01*
X64917000Y-25527000D01*
X64897000Y-25527000D01*
X64897000Y-26720155D01*
X65126890Y-26841476D01*
X65274099Y-26796825D01*
X65536920Y-26671641D01*
X65669184Y-26572987D01*
X75421198Y-36325002D01*
X75444997Y-36354001D01*
X75560722Y-36448974D01*
X75692751Y-36519546D01*
X75836012Y-36563003D01*
X75947665Y-36574000D01*
X75947674Y-36574000D01*
X75984997Y-36577676D01*
X76022320Y-36574000D01*
X84267199Y-36574000D01*
X84333820Y-36640621D01*
X84303226Y-36661063D01*
X84159063Y-36805226D01*
X84045795Y-36974744D01*
X83967774Y-37163102D01*
X83928000Y-37363061D01*
X83928000Y-37425197D01*
X82407100Y-38946099D01*
X82378102Y-38969897D01*
X82354304Y-38998895D01*
X82354303Y-38998896D01*
X82283128Y-39085622D01*
X82212556Y-39217652D01*
X82188420Y-39297222D01*
X82169220Y-39360519D01*
X82169100Y-39360913D01*
X82154426Y-39509898D01*
X82158103Y-39547231D01*
X82158103Y-40262192D01*
X82044869Y-40262192D01*
X81844910Y-40301966D01*
X81656552Y-40379987D01*
X81487034Y-40493255D01*
X81342871Y-40637418D01*
X81229603Y-40806936D01*
X81151582Y-40995294D01*
X81111808Y-41195253D01*
X81111808Y-41399131D01*
X81151582Y-41599090D01*
X81229603Y-41787448D01*
X81342871Y-41956966D01*
X81386808Y-42000903D01*
X81386808Y-43010180D01*
X81378263Y-42981517D01*
X81011019Y-41941570D01*
X81005019Y-41927836D01*
X81000410Y-41913566D01*
X80972776Y-41854034D01*
X80459256Y-40877994D01*
X80451334Y-40865267D01*
X80444715Y-40851815D01*
X80408777Y-40796896D01*
X79759739Y-39905208D01*
X79750062Y-39893756D01*
X79741570Y-39881401D01*
X79698081Y-39832246D01*
X78927120Y-39043591D01*
X78915894Y-39033659D01*
X78905705Y-39022656D01*
X78855575Y-38980294D01*
X77978842Y-38311193D01*
X77966300Y-38302986D01*
X77954630Y-38293569D01*
X77898910Y-38258886D01*
X76934771Y-37723355D01*
X76921177Y-37717045D01*
X76908269Y-37709411D01*
X76848126Y-37683136D01*
X75816777Y-37292393D01*
X75802410Y-37288110D01*
X75788539Y-37282421D01*
X75725233Y-37265102D01*
X74648282Y-37027333D01*
X74633446Y-37025169D01*
X74618900Y-37021542D01*
X74553757Y-37013544D01*
X73462199Y-36934342D01*
X73438419Y-36932000D01*
X63523906Y-36932000D01*
X62495530Y-36857382D01*
X61512104Y-36640262D01*
X60570325Y-36283454D01*
X59689905Y-35794424D01*
X58889316Y-35183435D01*
X58185306Y-34463268D01*
X57592630Y-33649013D01*
X57479929Y-33434805D01*
X56784199Y-31787021D01*
X56592873Y-30816309D01*
X56540000Y-29951835D01*
X56540000Y-23527278D01*
X56591002Y-23007116D01*
X56732694Y-22537812D01*
X56962837Y-22104975D01*
X57272678Y-21725073D01*
X57650397Y-21412597D01*
X58081627Y-21179431D01*
X58549928Y-21034468D01*
X59068153Y-20980000D01*
X109187723Y-20980000D01*
X109387200Y-20999559D01*
G04 #@! TA.AperFunction,Conductor*
D22*
G36*
X109387200Y-20999559D02*
G01*
X109548041Y-21048120D01*
X109696378Y-21126992D01*
X109826574Y-21233176D01*
X109933664Y-21362626D01*
X110013572Y-21510414D01*
X110063252Y-21670902D01*
X110084000Y-21868306D01*
X110084000Y-52367198D01*
X104703804Y-46987003D01*
X104680001Y-46957999D01*
X104564276Y-46863026D01*
X104432247Y-46792454D01*
X104288986Y-46748997D01*
X104177333Y-46738000D01*
X104177322Y-46738000D01*
X104140000Y-46734324D01*
X104102678Y-46738000D01*
X103419353Y-46738000D01*
X103421276Y-46736972D01*
X103537001Y-46641999D01*
X103560804Y-46612995D01*
X106010804Y-44162996D01*
X106038003Y-44165675D01*
X106075325Y-44161999D01*
X106075336Y-44161999D01*
X106186989Y-44151002D01*
X106330250Y-44107545D01*
X106462279Y-44036973D01*
X106578004Y-43942000D01*
X106601807Y-43912996D01*
X109731003Y-40783801D01*
X109760001Y-40760003D01*
X109854974Y-40644278D01*
X109925546Y-40512249D01*
X109969003Y-40368988D01*
X109980000Y-40257335D01*
X109980000Y-40257326D01*
X109983676Y-40220003D01*
X109980000Y-40182680D01*
X109980000Y-28612322D01*
X109983676Y-28574999D01*
X109980000Y-28537676D01*
X109980000Y-28537667D01*
X109969003Y-28426014D01*
X109925546Y-28282753D01*
X109854974Y-28150724D01*
X109760001Y-28034999D01*
X109731004Y-28011202D01*
X108710000Y-26990199D01*
X108710000Y-26678178D01*
X108896632Y-26553475D01*
X109103475Y-26346632D01*
X109265990Y-26103411D01*
X109377932Y-25833158D01*
X109435000Y-25546260D01*
X109435000Y-25253740D01*
X109377932Y-24966842D01*
X109265990Y-24696589D01*
X109103475Y-24453368D01*
X108896632Y-24246525D01*
X108720594Y-24128900D01*
X108950269Y-23957588D01*
X109145178Y-23741355D01*
X109294157Y-23491252D01*
X109391481Y-23216891D01*
X109270814Y-22987000D01*
X108077000Y-22987000D01*
X108077000Y-23007000D01*
X107823000Y-23007000D01*
X107823000Y-22987000D01*
X107803000Y-22987000D01*
X107803000Y-22733000D01*
X107823000Y-22733000D01*
X107823000Y-21539845D01*
X108077000Y-21539845D01*
X108077000Y-22733000D01*
X109270814Y-22733000D01*
X109391481Y-22503109D01*
X109294157Y-22228748D01*
X109145178Y-21978645D01*
X108950269Y-21762412D01*
X108716920Y-21588359D01*
X108454099Y-21463175D01*
X108306890Y-21418524D01*
X108077000Y-21539845D01*
X107823000Y-21539845D01*
X107593110Y-21418524D01*
X107445901Y-21463175D01*
X107183080Y-21588359D01*
X106949731Y-21762412D01*
X106754822Y-21978645D01*
X106685195Y-22095534D01*
X106563475Y-21913368D01*
X106356632Y-21706525D01*
X106113411Y-21544010D01*
X105843158Y-21432068D01*
X105556260Y-21375000D01*
X105263740Y-21375000D01*
X104976842Y-21432068D01*
X104706589Y-21544010D01*
X104463368Y-21706525D01*
X104256525Y-21913368D01*
X104140000Y-22087760D01*
X104023475Y-21913368D01*
X103816632Y-21706525D01*
X103573411Y-21544010D01*
X103303158Y-21432068D01*
X103016260Y-21375000D01*
X102723740Y-21375000D01*
X102436842Y-21432068D01*
X102166589Y-21544010D01*
X101923368Y-21706525D01*
X101716525Y-21913368D01*
X101600000Y-22087760D01*
X101483475Y-21913368D01*
X101276632Y-21706525D01*
X101033411Y-21544010D01*
X100763158Y-21432068D01*
X100476260Y-21375000D01*
X100183740Y-21375000D01*
X99896842Y-21432068D01*
X99626589Y-21544010D01*
X99383368Y-21706525D01*
X99176525Y-21913368D01*
X99060000Y-22087760D01*
X98943475Y-21913368D01*
X98736632Y-21706525D01*
X98493411Y-21544010D01*
X98223158Y-21432068D01*
X97936260Y-21375000D01*
X97643740Y-21375000D01*
X97356842Y-21432068D01*
X97086589Y-21544010D01*
X96843368Y-21706525D01*
X96636525Y-21913368D01*
X96520000Y-22087760D01*
X96403475Y-21913368D01*
X96196632Y-21706525D01*
X95953411Y-21544010D01*
X95683158Y-21432068D01*
X95396260Y-21375000D01*
X95103740Y-21375000D01*
X94816842Y-21432068D01*
X94546589Y-21544010D01*
X94303368Y-21706525D01*
X94096525Y-21913368D01*
X93980000Y-22087760D01*
X93863475Y-21913368D01*
X93656632Y-21706525D01*
X93413411Y-21544010D01*
X93143158Y-21432068D01*
X92856260Y-21375000D01*
X92563740Y-21375000D01*
X92276842Y-21432068D01*
X92006589Y-21544010D01*
X91763368Y-21706525D01*
X91556525Y-21913368D01*
X91434805Y-22095534D01*
X91365178Y-21978645D01*
X91170269Y-21762412D01*
X90936920Y-21588359D01*
X90674099Y-21463175D01*
X90526890Y-21418524D01*
X90297000Y-21539845D01*
X90297000Y-22733000D01*
X90317000Y-22733000D01*
X90317000Y-22987000D01*
X90297000Y-22987000D01*
X90297000Y-23007000D01*
X90043000Y-23007000D01*
X90043000Y-22987000D01*
X90023000Y-22987000D01*
X90023000Y-22733000D01*
X90043000Y-22733000D01*
X90043000Y-21539845D01*
X89813110Y-21418524D01*
X89665901Y-21463175D01*
X89403080Y-21588359D01*
X89169731Y-21762412D01*
X88974822Y-21978645D01*
X88905195Y-22095534D01*
X88783475Y-21913368D01*
X88576632Y-21706525D01*
X88333411Y-21544010D01*
X88063158Y-21432068D01*
X87776260Y-21375000D01*
X87483740Y-21375000D01*
X87196842Y-21432068D01*
X86926589Y-21544010D01*
X86683368Y-21706525D01*
X86476525Y-21913368D01*
X86360000Y-22087760D01*
X86243475Y-21913368D01*
X86036632Y-21706525D01*
X85793411Y-21544010D01*
X85523158Y-21432068D01*
X85236260Y-21375000D01*
X84943740Y-21375000D01*
X84656842Y-21432068D01*
X84386589Y-21544010D01*
X84143368Y-21706525D01*
X83936525Y-21913368D01*
X83820000Y-22087760D01*
X83703475Y-21913368D01*
X83496632Y-21706525D01*
X83253411Y-21544010D01*
X82983158Y-21432068D01*
X82696260Y-21375000D01*
X82403740Y-21375000D01*
X82116842Y-21432068D01*
X81846589Y-21544010D01*
X81603368Y-21706525D01*
X81396525Y-21913368D01*
X81280000Y-22087760D01*
X81163475Y-21913368D01*
X80956632Y-21706525D01*
X80713411Y-21544010D01*
X80443158Y-21432068D01*
X80156260Y-21375000D01*
X79863740Y-21375000D01*
X79576842Y-21432068D01*
X79306589Y-21544010D01*
X79063368Y-21706525D01*
X78856525Y-21913368D01*
X78740000Y-22087760D01*
X78623475Y-21913368D01*
X78416632Y-21706525D01*
X78173411Y-21544010D01*
X77903158Y-21432068D01*
X77616260Y-21375000D01*
X77323740Y-21375000D01*
X77036842Y-21432068D01*
X76766589Y-21544010D01*
X76523368Y-21706525D01*
X76316525Y-21913368D01*
X76200000Y-22087760D01*
X76083475Y-21913368D01*
X75876632Y-21706525D01*
X75633411Y-21544010D01*
X75363158Y-21432068D01*
X75076260Y-21375000D01*
X74783740Y-21375000D01*
X74496842Y-21432068D01*
X74226589Y-21544010D01*
X73983368Y-21706525D01*
X73776525Y-21913368D01*
X73660000Y-22087760D01*
X73543475Y-21913368D01*
X73336632Y-21706525D01*
X73093411Y-21544010D01*
X72823158Y-21432068D01*
X72536260Y-21375000D01*
X72243740Y-21375000D01*
X71956842Y-21432068D01*
X71686589Y-21544010D01*
X71443368Y-21706525D01*
X71236525Y-21913368D01*
X71114805Y-22095534D01*
X71045178Y-21978645D01*
X70850269Y-21762412D01*
X70616920Y-21588359D01*
X70354099Y-21463175D01*
X70206890Y-21418524D01*
X69977000Y-21539845D01*
X69977000Y-22733000D01*
X69997000Y-22733000D01*
X69997000Y-22987000D01*
X69977000Y-22987000D01*
X69977000Y-23007000D01*
X69723000Y-23007000D01*
X69723000Y-22987000D01*
X69703000Y-22987000D01*
X69703000Y-22733000D01*
X69723000Y-22733000D01*
X69723000Y-21539845D01*
X69493110Y-21418524D01*
X69345901Y-21463175D01*
X69083080Y-21588359D01*
X68849731Y-21762412D01*
X68654822Y-21978645D01*
X68585195Y-22095534D01*
X68463475Y-21913368D01*
X68256632Y-21706525D01*
X68013411Y-21544010D01*
X67743158Y-21432068D01*
X67456260Y-21375000D01*
X67163740Y-21375000D01*
X66876842Y-21432068D01*
X66606589Y-21544010D01*
X66363368Y-21706525D01*
X66156525Y-21913368D01*
X66040000Y-22087760D01*
X65923475Y-21913368D01*
X65716632Y-21706525D01*
X65473411Y-21544010D01*
X65203158Y-21432068D01*
X64916260Y-21375000D01*
X64623740Y-21375000D01*
X64336842Y-21432068D01*
X64066589Y-21544010D01*
X63823368Y-21706525D01*
X63616525Y-21913368D01*
X63500000Y-22087760D01*
X63383475Y-21913368D01*
X63176632Y-21706525D01*
X62933411Y-21544010D01*
X62663158Y-21432068D01*
X62376260Y-21375000D01*
X62083740Y-21375000D01*
X61796842Y-21432068D01*
X61526589Y-21544010D01*
X61283368Y-21706525D01*
X61151513Y-21838380D01*
X61129502Y-21765820D01*
X61070537Y-21655506D01*
X60991185Y-21558815D01*
X60894494Y-21479463D01*
X60784180Y-21420498D01*
X60664482Y-21384188D01*
X60540000Y-21371928D01*
X58840000Y-21371928D01*
X58715518Y-21384188D01*
X58595820Y-21420498D01*
X58485506Y-21479463D01*
X58388815Y-21558815D01*
X58309463Y-21655506D01*
X58250498Y-21765820D01*
X58214188Y-21885518D01*
X58201928Y-22010000D01*
X58201928Y-23710000D01*
X58214188Y-23834482D01*
X58250498Y-23954180D01*
X58309463Y-24064494D01*
X58388815Y-24161185D01*
X58485506Y-24240537D01*
X58595820Y-24299502D01*
X58668380Y-24321513D01*
X58536525Y-24453368D01*
X58374010Y-24696589D01*
X58262068Y-24966842D01*
X58205000Y-25253740D01*
X58205000Y-25546260D01*
X58262068Y-25833158D01*
X58374010Y-26103411D01*
X58536525Y-26346632D01*
X58743368Y-26553475D01*
X58986589Y-26715990D01*
X59256842Y-26827932D01*
X59543740Y-26885000D01*
X59836260Y-26885000D01*
X60123158Y-26827932D01*
X60393411Y-26715990D01*
X60636632Y-26553475D01*
X60843475Y-26346632D01*
X60960000Y-26172240D01*
X61076525Y-26346632D01*
X61283368Y-26553475D01*
X61526589Y-26715990D01*
X61796842Y-26827932D01*
X62083740Y-26885000D01*
X62376260Y-26885000D01*
X62663158Y-26827932D01*
X62933411Y-26715990D01*
X63176632Y-26553475D01*
X63383475Y-26346632D01*
X63505195Y-26164466D01*
X63574822Y-26281355D01*
X63769731Y-26497588D01*
X64003080Y-26671641D01*
X64265901Y-26796825D01*
X64413110Y-26841476D01*
X64643000Y-26720155D01*
X64643000Y-25527000D01*
X64623000Y-25527000D01*
X64623000Y-25273000D01*
X64643000Y-25273000D01*
X64643000Y-25253000D01*
X64897000Y-25253000D01*
X64897000Y-25273000D01*
X64917000Y-25273000D01*
X64917000Y-25527000D01*
X64897000Y-25527000D01*
X64897000Y-26720155D01*
X65126890Y-26841476D01*
X65274099Y-26796825D01*
X65536920Y-26671641D01*
X65669184Y-26572987D01*
X75421198Y-36325002D01*
X75444997Y-36354001D01*
X75560722Y-36448974D01*
X75692751Y-36519546D01*
X75836012Y-36563003D01*
X75947665Y-36574000D01*
X75947674Y-36574000D01*
X75984997Y-36577676D01*
X76022320Y-36574000D01*
X84267199Y-36574000D01*
X84333820Y-36640621D01*
X84303226Y-36661063D01*
X84159063Y-36805226D01*
X84045795Y-36974744D01*
X83967774Y-37163102D01*
X83928000Y-37363061D01*
X83928000Y-37425197D01*
X82407100Y-38946099D01*
X82378102Y-38969897D01*
X82354304Y-38998895D01*
X82354303Y-38998896D01*
X82283128Y-39085622D01*
X82212556Y-39217652D01*
X82188420Y-39297222D01*
X82169220Y-39360519D01*
X82169100Y-39360913D01*
X82154426Y-39509898D01*
X82158103Y-39547231D01*
X82158103Y-40262192D01*
X82044869Y-40262192D01*
X81844910Y-40301966D01*
X81656552Y-40379987D01*
X81487034Y-40493255D01*
X81342871Y-40637418D01*
X81229603Y-40806936D01*
X81151582Y-40995294D01*
X81111808Y-41195253D01*
X81111808Y-41399131D01*
X81151582Y-41599090D01*
X81229603Y-41787448D01*
X81342871Y-41956966D01*
X81386808Y-42000903D01*
X81386808Y-43010180D01*
X81378263Y-42981517D01*
X81011019Y-41941570D01*
X81005019Y-41927836D01*
X81000410Y-41913566D01*
X80972776Y-41854034D01*
X80459256Y-40877994D01*
X80451334Y-40865267D01*
X80444715Y-40851815D01*
X80408777Y-40796896D01*
X79759739Y-39905208D01*
X79750062Y-39893756D01*
X79741570Y-39881401D01*
X79698081Y-39832246D01*
X78927120Y-39043591D01*
X78915894Y-39033659D01*
X78905705Y-39022656D01*
X78855575Y-38980294D01*
X77978842Y-38311193D01*
X77966300Y-38302986D01*
X77954630Y-38293569D01*
X77898910Y-38258886D01*
X76934771Y-37723355D01*
X76921177Y-37717045D01*
X76908269Y-37709411D01*
X76848126Y-37683136D01*
X75816777Y-37292393D01*
X75802410Y-37288110D01*
X75788539Y-37282421D01*
X75725233Y-37265102D01*
X74648282Y-37027333D01*
X74633446Y-37025169D01*
X74618900Y-37021542D01*
X74553757Y-37013544D01*
X73462199Y-36934342D01*
X73438419Y-36932000D01*
X63523906Y-36932000D01*
X62495530Y-36857382D01*
X61512104Y-36640262D01*
X60570325Y-36283454D01*
X59689905Y-35794424D01*
X58889316Y-35183435D01*
X58185306Y-34463268D01*
X57592630Y-33649013D01*
X57479929Y-33434805D01*
X56784199Y-31787021D01*
X56592873Y-30816309D01*
X56540000Y-29951835D01*
X56540000Y-23527278D01*
X56591002Y-23007116D01*
X56732694Y-22537812D01*
X56962837Y-22104975D01*
X57272678Y-21725073D01*
X57650397Y-21412597D01*
X58081627Y-21179431D01*
X58549928Y-21034468D01*
X59068153Y-20980000D01*
X109187723Y-20980000D01*
X109387200Y-20999559D01*
G37*
G04 #@! TD.AperFunction*
D21*
X90336928Y-42542000D02*
X90336928Y-44042000D01*
X90349188Y-44166482D01*
X90385498Y-44286180D01*
X90444463Y-44396494D01*
X90463000Y-44419081D01*
X90462999Y-49836140D01*
X86267999Y-45641140D01*
X86267999Y-44596000D01*
X86408939Y-44596000D01*
X86608898Y-44556226D01*
X86797256Y-44478205D01*
X86966774Y-44364937D01*
X87010711Y-44321000D01*
X88037178Y-44321000D01*
X88074500Y-44324676D01*
X88111822Y-44321000D01*
X88111833Y-44321000D01*
X88223486Y-44310003D01*
X88366747Y-44266546D01*
X88498776Y-44195974D01*
X88614501Y-44101001D01*
X88638303Y-44071998D01*
X88876301Y-43834000D01*
X88938439Y-43834000D01*
X89138398Y-43794226D01*
X89326756Y-43716205D01*
X89496274Y-43602937D01*
X89640437Y-43458774D01*
X89753705Y-43289256D01*
X89831726Y-43100898D01*
X89871500Y-42900939D01*
X89871500Y-42697061D01*
X89833311Y-42505072D01*
X90300000Y-42505072D01*
X90340962Y-42501038D01*
X90336928Y-42542000D01*
G04 #@! TA.AperFunction,Conductor*
D22*
G36*
X90336928Y-42542000D02*
G01*
X90336928Y-44042000D01*
X90349188Y-44166482D01*
X90385498Y-44286180D01*
X90444463Y-44396494D01*
X90463000Y-44419081D01*
X90462999Y-49836140D01*
X86267999Y-45641140D01*
X86267999Y-44596000D01*
X86408939Y-44596000D01*
X86608898Y-44556226D01*
X86797256Y-44478205D01*
X86966774Y-44364937D01*
X87010711Y-44321000D01*
X88037178Y-44321000D01*
X88074500Y-44324676D01*
X88111822Y-44321000D01*
X88111833Y-44321000D01*
X88223486Y-44310003D01*
X88366747Y-44266546D01*
X88498776Y-44195974D01*
X88614501Y-44101001D01*
X88638303Y-44071998D01*
X88876301Y-43834000D01*
X88938439Y-43834000D01*
X89138398Y-43794226D01*
X89326756Y-43716205D01*
X89496274Y-43602937D01*
X89640437Y-43458774D01*
X89753705Y-43289256D01*
X89831726Y-43100898D01*
X89871500Y-42900939D01*
X89871500Y-42697061D01*
X89833311Y-42505072D01*
X90300000Y-42505072D01*
X90340962Y-42501038D01*
X90336928Y-42542000D01*
G37*
G04 #@! TD.AperFunction*
D21*
X108460001Y-36729158D02*
X108460000Y-36729168D01*
X108460001Y-39905199D01*
X105724199Y-42641002D01*
X105696998Y-42638323D01*
X105659675Y-42641999D01*
X105659666Y-42641999D01*
X105548013Y-42652996D01*
X105404752Y-42696453D01*
X105272723Y-42767025D01*
X105156998Y-42861998D01*
X105133200Y-42890996D01*
X102682199Y-45341998D01*
X100364800Y-45341998D01*
X99681040Y-44658239D01*
X99769180Y-44631502D01*
X99879494Y-44572537D01*
X99976185Y-44493185D01*
X100055537Y-44396494D01*
X100114502Y-44286180D01*
X100150812Y-44166482D01*
X100163072Y-44042000D01*
X100163072Y-42542000D01*
X100159038Y-42501038D01*
X100200000Y-42505072D01*
X100633155Y-42505072D01*
X100636063Y-42505954D01*
X100785048Y-42520628D01*
X100934033Y-42505954D01*
X100936941Y-42505072D01*
X101700000Y-42505072D01*
X101824482Y-42492812D01*
X101944180Y-42456502D01*
X102054494Y-42397537D01*
X102105756Y-42355467D01*
X102146726Y-42396437D01*
X102316244Y-42509705D01*
X102504602Y-42587726D01*
X102704561Y-42627500D01*
X102908439Y-42627500D01*
X103108398Y-42587726D01*
X103296756Y-42509705D01*
X103466274Y-42396437D01*
X103610437Y-42252274D01*
X103723705Y-42082756D01*
X103801726Y-41894398D01*
X103841500Y-41694439D01*
X103841500Y-41490561D01*
X103801726Y-41290602D01*
X103723705Y-41102244D01*
X103610437Y-40932726D01*
X103466274Y-40788563D01*
X103418235Y-40756465D01*
X103529774Y-40681937D01*
X103673937Y-40537774D01*
X103787205Y-40368256D01*
X103865226Y-40179898D01*
X103905000Y-39979939D01*
X103905000Y-39776061D01*
X103865226Y-39576102D01*
X103787205Y-39387744D01*
X103673937Y-39218226D01*
X103529774Y-39074063D01*
X103360256Y-38960795D01*
X103171898Y-38882774D01*
X102971939Y-38843000D01*
X102768061Y-38843000D01*
X102568102Y-38882774D01*
X102379744Y-38960795D01*
X102223793Y-39064998D01*
X102194834Y-39064998D01*
X102230537Y-39021494D01*
X102242917Y-38998333D01*
X102335000Y-38906250D01*
X102325454Y-38792663D01*
X102325812Y-38791482D01*
X102338072Y-38667000D01*
X102338072Y-38352000D01*
X102398039Y-38352000D01*
X102443244Y-38382205D01*
X102631602Y-38460226D01*
X102831561Y-38500000D01*
X103035439Y-38500000D01*
X103235398Y-38460226D01*
X103423756Y-38382205D01*
X103593274Y-38268937D01*
X103737437Y-38124774D01*
X103850705Y-37955256D01*
X103928726Y-37766898D01*
X103968500Y-37566939D01*
X103968500Y-37363061D01*
X103928726Y-37163102D01*
X103850705Y-36974744D01*
X103737437Y-36805226D01*
X103599506Y-36667295D01*
X104511003Y-35755799D01*
X104540001Y-35732001D01*
X104563800Y-35703001D01*
X104687802Y-35579000D01*
X104749939Y-35579000D01*
X104949898Y-35539226D01*
X105138256Y-35461205D01*
X105307774Y-35347937D01*
X105429588Y-35226123D01*
X105491010Y-35374411D01*
X105653525Y-35617632D01*
X105860368Y-35824475D01*
X106103589Y-35986990D01*
X106373842Y-36098932D01*
X106660740Y-36156000D01*
X106953260Y-36156000D01*
X107240158Y-36098932D01*
X107510411Y-35986990D01*
X107753632Y-35824475D01*
X107960475Y-35617632D01*
X108122990Y-35374411D01*
X108234932Y-35104158D01*
X108292000Y-34817260D01*
X108292000Y-34524740D01*
X108248210Y-34304592D01*
X108460001Y-34092801D01*
X108460001Y-36729158D01*
G04 #@! TA.AperFunction,Conductor*
D22*
G36*
X108460001Y-36729158D02*
G01*
X108460000Y-36729168D01*
X108460001Y-39905199D01*
X105724199Y-42641002D01*
X105696998Y-42638323D01*
X105659675Y-42641999D01*
X105659666Y-42641999D01*
X105548013Y-42652996D01*
X105404752Y-42696453D01*
X105272723Y-42767025D01*
X105156998Y-42861998D01*
X105133200Y-42890996D01*
X102682199Y-45341998D01*
X100364800Y-45341998D01*
X99681040Y-44658239D01*
X99769180Y-44631502D01*
X99879494Y-44572537D01*
X99976185Y-44493185D01*
X100055537Y-44396494D01*
X100114502Y-44286180D01*
X100150812Y-44166482D01*
X100163072Y-44042000D01*
X100163072Y-42542000D01*
X100159038Y-42501038D01*
X100200000Y-42505072D01*
X100633155Y-42505072D01*
X100636063Y-42505954D01*
X100785048Y-42520628D01*
X100934033Y-42505954D01*
X100936941Y-42505072D01*
X101700000Y-42505072D01*
X101824482Y-42492812D01*
X101944180Y-42456502D01*
X102054494Y-42397537D01*
X102105756Y-42355467D01*
X102146726Y-42396437D01*
X102316244Y-42509705D01*
X102504602Y-42587726D01*
X102704561Y-42627500D01*
X102908439Y-42627500D01*
X103108398Y-42587726D01*
X103296756Y-42509705D01*
X103466274Y-42396437D01*
X103610437Y-42252274D01*
X103723705Y-42082756D01*
X103801726Y-41894398D01*
X103841500Y-41694439D01*
X103841500Y-41490561D01*
X103801726Y-41290602D01*
X103723705Y-41102244D01*
X103610437Y-40932726D01*
X103466274Y-40788563D01*
X103418235Y-40756465D01*
X103529774Y-40681937D01*
X103673937Y-40537774D01*
X103787205Y-40368256D01*
X103865226Y-40179898D01*
X103905000Y-39979939D01*
X103905000Y-39776061D01*
X103865226Y-39576102D01*
X103787205Y-39387744D01*
X103673937Y-39218226D01*
X103529774Y-39074063D01*
X103360256Y-38960795D01*
X103171898Y-38882774D01*
X102971939Y-38843000D01*
X102768061Y-38843000D01*
X102568102Y-38882774D01*
X102379744Y-38960795D01*
X102223793Y-39064998D01*
X102194834Y-39064998D01*
X102230537Y-39021494D01*
X102242917Y-38998333D01*
X102335000Y-38906250D01*
X102325454Y-38792663D01*
X102325812Y-38791482D01*
X102338072Y-38667000D01*
X102338072Y-38352000D01*
X102398039Y-38352000D01*
X102443244Y-38382205D01*
X102631602Y-38460226D01*
X102831561Y-38500000D01*
X103035439Y-38500000D01*
X103235398Y-38460226D01*
X103423756Y-38382205D01*
X103593274Y-38268937D01*
X103737437Y-38124774D01*
X103850705Y-37955256D01*
X103928726Y-37766898D01*
X103968500Y-37566939D01*
X103968500Y-37363061D01*
X103928726Y-37163102D01*
X103850705Y-36974744D01*
X103737437Y-36805226D01*
X103599506Y-36667295D01*
X104511003Y-35755799D01*
X104540001Y-35732001D01*
X104563800Y-35703001D01*
X104687802Y-35579000D01*
X104749939Y-35579000D01*
X104949898Y-35539226D01*
X105138256Y-35461205D01*
X105307774Y-35347937D01*
X105429588Y-35226123D01*
X105491010Y-35374411D01*
X105653525Y-35617632D01*
X105860368Y-35824475D01*
X106103589Y-35986990D01*
X106373842Y-36098932D01*
X106660740Y-36156000D01*
X106953260Y-36156000D01*
X107240158Y-36098932D01*
X107510411Y-35986990D01*
X107753632Y-35824475D01*
X107960475Y-35617632D01*
X108122990Y-35374411D01*
X108234932Y-35104158D01*
X108292000Y-34817260D01*
X108292000Y-34524740D01*
X108248210Y-34304592D01*
X108460001Y-34092801D01*
X108460001Y-36729158D01*
G37*
G04 #@! TD.AperFunction*
D21*
X93176198Y-36503002D02*
X93199997Y-36532001D01*
X93228995Y-36555799D01*
X93315721Y-36626974D01*
X93435856Y-36691188D01*
X93447751Y-36697546D01*
X93591012Y-36741003D01*
X93702665Y-36752000D01*
X93702675Y-36752000D01*
X93739998Y-36755676D01*
X93777321Y-36752000D01*
X97161374Y-36752000D01*
X97156775Y-36763103D01*
X97117001Y-36963062D01*
X97117001Y-37166940D01*
X97156775Y-37366899D01*
X97234796Y-37555257D01*
X97348064Y-37724775D01*
X97392002Y-37768713D01*
X97392001Y-40894680D01*
X97388325Y-40932003D01*
X97392001Y-40969325D01*
X97392001Y-40969335D01*
X97402998Y-41080988D01*
X97444595Y-41218117D01*
X97446455Y-41224249D01*
X97517027Y-41356279D01*
X97548828Y-41395028D01*
X97612000Y-41472004D01*
X97641003Y-41495807D01*
X98060410Y-41915214D01*
X98050518Y-41916188D01*
X98050000Y-41916345D01*
X98049482Y-41916188D01*
X97925000Y-41903928D01*
X97375000Y-41903928D01*
X97250518Y-41916188D01*
X97250000Y-41916345D01*
X97249482Y-41916188D01*
X97125000Y-41903928D01*
X96575000Y-41903928D01*
X96450518Y-41916188D01*
X96450000Y-41916345D01*
X96449482Y-41916188D01*
X96325000Y-41903928D01*
X95775000Y-41903928D01*
X95650518Y-41916188D01*
X95650000Y-41916345D01*
X95649482Y-41916188D01*
X95525000Y-41903928D01*
X94975000Y-41903928D01*
X94850518Y-41916188D01*
X94850000Y-41916345D01*
X94849482Y-41916188D01*
X94725000Y-41903928D01*
X94175000Y-41903928D01*
X94050518Y-41916188D01*
X94050000Y-41916345D01*
X94049482Y-41916188D01*
X93925000Y-41903928D01*
X93375000Y-41903928D01*
X93250518Y-41916188D01*
X93250000Y-41916345D01*
X93249482Y-41916188D01*
X93125000Y-41903928D01*
X92575000Y-41903928D01*
X92450518Y-41916188D01*
X92450000Y-41916345D01*
X92449482Y-41916188D01*
X92325000Y-41903928D01*
X91775000Y-41903928D01*
X91650518Y-41916188D01*
X91650000Y-41916345D01*
X91649482Y-41916188D01*
X91525000Y-41903928D01*
X90975000Y-41903928D01*
X90934038Y-41907962D01*
X90938072Y-41867000D01*
X90938072Y-41317000D01*
X90925812Y-41192518D01*
X90925655Y-41192000D01*
X90925812Y-41191482D01*
X90938072Y-41067000D01*
X90938072Y-40678706D01*
X90967295Y-40749256D01*
X91080563Y-40918774D01*
X91224726Y-41062937D01*
X91394244Y-41176205D01*
X91582602Y-41254226D01*
X91782561Y-41294000D01*
X91986439Y-41294000D01*
X92186398Y-41254226D01*
X92374756Y-41176205D01*
X92544274Y-41062937D01*
X92688437Y-40918774D01*
X92801705Y-40749256D01*
X92879726Y-40560898D01*
X92919500Y-40360939D01*
X92919500Y-40157061D01*
X92879726Y-39957102D01*
X92801705Y-39768744D01*
X92688437Y-39599226D01*
X92644500Y-39555289D01*
X92644500Y-38097301D01*
X92713007Y-38028794D01*
X92742000Y-38005000D01*
X92765794Y-37976007D01*
X92765799Y-37976002D01*
X92836974Y-37889275D01*
X92907546Y-37757247D01*
X92951002Y-37613986D01*
X92965676Y-37465000D01*
X92963511Y-37443014D01*
X92951002Y-37316013D01*
X92935559Y-37265103D01*
X92907546Y-37172754D01*
X92836974Y-37040724D01*
X92814667Y-37013543D01*
X92765799Y-36953996D01*
X92765795Y-36953992D01*
X92742001Y-36924999D01*
X92713008Y-36901205D01*
X92284500Y-36472698D01*
X92284500Y-36410561D01*
X92244726Y-36210602D01*
X92166705Y-36022244D01*
X92053437Y-35852726D01*
X91909274Y-35708563D01*
X91739756Y-35595295D01*
X91551398Y-35517274D01*
X91351439Y-35477500D01*
X91289929Y-35477500D01*
X91269001Y-35451999D01*
X91153276Y-35357026D01*
X91021247Y-35286454D01*
X90877986Y-35242997D01*
X90766333Y-35232000D01*
X90766322Y-35232000D01*
X90729000Y-35228324D01*
X90708020Y-35230390D01*
X90661241Y-35192000D01*
X90751185Y-35118185D01*
X90830537Y-35021494D01*
X90842917Y-34998333D01*
X90935000Y-34906250D01*
X90925454Y-34792663D01*
X90925812Y-34791482D01*
X90938072Y-34667000D01*
X90938072Y-34264876D01*
X93176198Y-36503002D01*
G04 #@! TA.AperFunction,Conductor*
D22*
G36*
X93176198Y-36503002D02*
G01*
X93199997Y-36532001D01*
X93228995Y-36555799D01*
X93315721Y-36626974D01*
X93435856Y-36691188D01*
X93447751Y-36697546D01*
X93591012Y-36741003D01*
X93702665Y-36752000D01*
X93702675Y-36752000D01*
X93739998Y-36755676D01*
X93777321Y-36752000D01*
X97161374Y-36752000D01*
X97156775Y-36763103D01*
X97117001Y-36963062D01*
X97117001Y-37166940D01*
X97156775Y-37366899D01*
X97234796Y-37555257D01*
X97348064Y-37724775D01*
X97392002Y-37768713D01*
X97392001Y-40894680D01*
X97388325Y-40932003D01*
X97392001Y-40969325D01*
X97392001Y-40969335D01*
X97402998Y-41080988D01*
X97444595Y-41218117D01*
X97446455Y-41224249D01*
X97517027Y-41356279D01*
X97548828Y-41395028D01*
X97612000Y-41472004D01*
X97641003Y-41495807D01*
X98060410Y-41915214D01*
X98050518Y-41916188D01*
X98050000Y-41916345D01*
X98049482Y-41916188D01*
X97925000Y-41903928D01*
X97375000Y-41903928D01*
X97250518Y-41916188D01*
X97250000Y-41916345D01*
X97249482Y-41916188D01*
X97125000Y-41903928D01*
X96575000Y-41903928D01*
X96450518Y-41916188D01*
X96450000Y-41916345D01*
X96449482Y-41916188D01*
X96325000Y-41903928D01*
X95775000Y-41903928D01*
X95650518Y-41916188D01*
X95650000Y-41916345D01*
X95649482Y-41916188D01*
X95525000Y-41903928D01*
X94975000Y-41903928D01*
X94850518Y-41916188D01*
X94850000Y-41916345D01*
X94849482Y-41916188D01*
X94725000Y-41903928D01*
X94175000Y-41903928D01*
X94050518Y-41916188D01*
X94050000Y-41916345D01*
X94049482Y-41916188D01*
X93925000Y-41903928D01*
X93375000Y-41903928D01*
X93250518Y-41916188D01*
X93250000Y-41916345D01*
X93249482Y-41916188D01*
X93125000Y-41903928D01*
X92575000Y-41903928D01*
X92450518Y-41916188D01*
X92450000Y-41916345D01*
X92449482Y-41916188D01*
X92325000Y-41903928D01*
X91775000Y-41903928D01*
X91650518Y-41916188D01*
X91650000Y-41916345D01*
X91649482Y-41916188D01*
X91525000Y-41903928D01*
X90975000Y-41903928D01*
X90934038Y-41907962D01*
X90938072Y-41867000D01*
X90938072Y-41317000D01*
X90925812Y-41192518D01*
X90925655Y-41192000D01*
X90925812Y-41191482D01*
X90938072Y-41067000D01*
X90938072Y-40678706D01*
X90967295Y-40749256D01*
X91080563Y-40918774D01*
X91224726Y-41062937D01*
X91394244Y-41176205D01*
X91582602Y-41254226D01*
X91782561Y-41294000D01*
X91986439Y-41294000D01*
X92186398Y-41254226D01*
X92374756Y-41176205D01*
X92544274Y-41062937D01*
X92688437Y-40918774D01*
X92801705Y-40749256D01*
X92879726Y-40560898D01*
X92919500Y-40360939D01*
X92919500Y-40157061D01*
X92879726Y-39957102D01*
X92801705Y-39768744D01*
X92688437Y-39599226D01*
X92644500Y-39555289D01*
X92644500Y-38097301D01*
X92713007Y-38028794D01*
X92742000Y-38005000D01*
X92765794Y-37976007D01*
X92765799Y-37976002D01*
X92836974Y-37889275D01*
X92907546Y-37757247D01*
X92951002Y-37613986D01*
X92965676Y-37465000D01*
X92963511Y-37443014D01*
X92951002Y-37316013D01*
X92935559Y-37265103D01*
X92907546Y-37172754D01*
X92836974Y-37040724D01*
X92814667Y-37013543D01*
X92765799Y-36953996D01*
X92765795Y-36953992D01*
X92742001Y-36924999D01*
X92713008Y-36901205D01*
X92284500Y-36472698D01*
X92284500Y-36410561D01*
X92244726Y-36210602D01*
X92166705Y-36022244D01*
X92053437Y-35852726D01*
X91909274Y-35708563D01*
X91739756Y-35595295D01*
X91551398Y-35517274D01*
X91351439Y-35477500D01*
X91289929Y-35477500D01*
X91269001Y-35451999D01*
X91153276Y-35357026D01*
X91021247Y-35286454D01*
X90877986Y-35242997D01*
X90766333Y-35232000D01*
X90766322Y-35232000D01*
X90729000Y-35228324D01*
X90708020Y-35230390D01*
X90661241Y-35192000D01*
X90751185Y-35118185D01*
X90830537Y-35021494D01*
X90842917Y-34998333D01*
X90935000Y-34906250D01*
X90925454Y-34792663D01*
X90925812Y-34791482D01*
X90938072Y-34667000D01*
X90938072Y-34264876D01*
X93176198Y-36503002D01*
G37*
G04 #@! TD.AperFunction*
D21*
X90947602Y-37507726D02*
X91147561Y-37547500D01*
X91161589Y-37547500D01*
X91135497Y-37633515D01*
X91124500Y-37745168D01*
X91124500Y-37745178D01*
X91120824Y-37782500D01*
X91124500Y-37819823D01*
X91124501Y-39555288D01*
X91080563Y-39599226D01*
X90967295Y-39768744D01*
X90938072Y-39839294D01*
X90938072Y-39717000D01*
X90925812Y-39592518D01*
X90925655Y-39592000D01*
X90925812Y-39591482D01*
X90938072Y-39467000D01*
X90938072Y-38917000D01*
X90925812Y-38792518D01*
X90925655Y-38792000D01*
X90925812Y-38791482D01*
X90938072Y-38667000D01*
X90938072Y-38117000D01*
X90925812Y-37992518D01*
X90925655Y-37992000D01*
X90925812Y-37991482D01*
X90938072Y-37867000D01*
X90938072Y-37503779D01*
X90947602Y-37507726D01*
G04 #@! TA.AperFunction,Conductor*
D22*
G36*
X90947602Y-37507726D02*
G01*
X91147561Y-37547500D01*
X91161589Y-37547500D01*
X91135497Y-37633515D01*
X91124500Y-37745168D01*
X91124500Y-37745178D01*
X91120824Y-37782500D01*
X91124500Y-37819823D01*
X91124501Y-39555288D01*
X91080563Y-39599226D01*
X90967295Y-39768744D01*
X90938072Y-39839294D01*
X90938072Y-39717000D01*
X90925812Y-39592518D01*
X90925655Y-39592000D01*
X90925812Y-39591482D01*
X90938072Y-39467000D01*
X90938072Y-38917000D01*
X90925812Y-38792518D01*
X90925655Y-38792000D01*
X90925812Y-38791482D01*
X90938072Y-38667000D01*
X90938072Y-38117000D01*
X90925812Y-37992518D01*
X90925655Y-37992000D01*
X90925812Y-37991482D01*
X90938072Y-37867000D01*
X90938072Y-37503779D01*
X90947602Y-37507726D01*
G37*
G04 #@! TD.AperFunction*
D21*
X76437198Y-34801002D02*
X76460997Y-34830001D01*
X76576722Y-34924974D01*
X76708751Y-34995546D01*
X76852012Y-35039003D01*
X76963665Y-35050000D01*
X76963673Y-35050000D01*
X77000998Y-35053676D01*
X77038323Y-35050000D01*
X84933199Y-35050000D01*
X87515198Y-37632000D01*
X87474802Y-37632000D01*
X85145804Y-35303003D01*
X85122001Y-35273999D01*
X85006276Y-35179026D01*
X84874247Y-35108454D01*
X84730986Y-35064997D01*
X84619333Y-35054000D01*
X84619322Y-35054000D01*
X84582000Y-35050324D01*
X84544678Y-35054000D01*
X76299800Y-35054000D01*
X67976909Y-26731110D01*
X68013411Y-26715990D01*
X68216492Y-26580295D01*
X76437198Y-34801002D01*
G04 #@! TA.AperFunction,Conductor*
D22*
G36*
X76437198Y-34801002D02*
G01*
X76460997Y-34830001D01*
X76576722Y-34924974D01*
X76708751Y-34995546D01*
X76852012Y-35039003D01*
X76963665Y-35050000D01*
X76963673Y-35050000D01*
X77000998Y-35053676D01*
X77038323Y-35050000D01*
X84933199Y-35050000D01*
X87515198Y-37632000D01*
X87474802Y-37632000D01*
X85145804Y-35303003D01*
X85122001Y-35273999D01*
X85006276Y-35179026D01*
X84874247Y-35108454D01*
X84730986Y-35064997D01*
X84619333Y-35054000D01*
X84619322Y-35054000D01*
X84582000Y-35050324D01*
X84544678Y-35054000D01*
X76299800Y-35054000D01*
X67976909Y-26731110D01*
X68013411Y-26715990D01*
X68216492Y-26580295D01*
X76437198Y-34801002D01*
G37*
G04 #@! TD.AperFunction*
D21*
X95420506Y-33172537D02*
X95443667Y-33184917D01*
X95535750Y-33277000D01*
X95649337Y-33267454D01*
X95650518Y-33267812D01*
X95775000Y-33280072D01*
X95895039Y-33280072D01*
X95866000Y-33426061D01*
X95866000Y-33629939D01*
X95905774Y-33829898D01*
X95983795Y-34018256D01*
X96097063Y-34187774D01*
X96241226Y-34331937D01*
X96410744Y-34445205D01*
X96599102Y-34523226D01*
X96799061Y-34563000D01*
X97002939Y-34563000D01*
X97202898Y-34523226D01*
X97391256Y-34445205D01*
X97535553Y-34348789D01*
X97517000Y-34442061D01*
X97517000Y-34645939D01*
X97556774Y-34845898D01*
X97634795Y-35034256D01*
X97748063Y-35203774D01*
X97776289Y-35232000D01*
X94054800Y-35232000D01*
X93358174Y-34535374D01*
X93497061Y-34563000D01*
X93700939Y-34563000D01*
X93723152Y-34558582D01*
X93723542Y-34559165D01*
X93867705Y-34703328D01*
X94037223Y-34816596D01*
X94225581Y-34894617D01*
X94425540Y-34934391D01*
X94629418Y-34934391D01*
X94829377Y-34894617D01*
X95017735Y-34816596D01*
X95187253Y-34703328D01*
X95331416Y-34559165D01*
X95444684Y-34389647D01*
X95522705Y-34201289D01*
X95562479Y-34001330D01*
X95562479Y-33797452D01*
X95522705Y-33597493D01*
X95444684Y-33409135D01*
X95356394Y-33277000D01*
X95377002Y-33277000D01*
X95377002Y-33136834D01*
X95420506Y-33172537D01*
G04 #@! TA.AperFunction,Conductor*
D22*
G36*
X95420506Y-33172537D02*
G01*
X95443667Y-33184917D01*
X95535750Y-33277000D01*
X95649337Y-33267454D01*
X95650518Y-33267812D01*
X95775000Y-33280072D01*
X95895039Y-33280072D01*
X95866000Y-33426061D01*
X95866000Y-33629939D01*
X95905774Y-33829898D01*
X95983795Y-34018256D01*
X96097063Y-34187774D01*
X96241226Y-34331937D01*
X96410744Y-34445205D01*
X96599102Y-34523226D01*
X96799061Y-34563000D01*
X97002939Y-34563000D01*
X97202898Y-34523226D01*
X97391256Y-34445205D01*
X97535553Y-34348789D01*
X97517000Y-34442061D01*
X97517000Y-34645939D01*
X97556774Y-34845898D01*
X97634795Y-35034256D01*
X97748063Y-35203774D01*
X97776289Y-35232000D01*
X94054800Y-35232000D01*
X93358174Y-34535374D01*
X93497061Y-34563000D01*
X93700939Y-34563000D01*
X93723152Y-34558582D01*
X93723542Y-34559165D01*
X93867705Y-34703328D01*
X94037223Y-34816596D01*
X94225581Y-34894617D01*
X94425540Y-34934391D01*
X94629418Y-34934391D01*
X94829377Y-34894617D01*
X95017735Y-34816596D01*
X95187253Y-34703328D01*
X95331416Y-34559165D01*
X95444684Y-34389647D01*
X95522705Y-34201289D01*
X95562479Y-34001330D01*
X95562479Y-33797452D01*
X95522705Y-33597493D01*
X95444684Y-33409135D01*
X95356394Y-33277000D01*
X95377002Y-33277000D01*
X95377002Y-33136834D01*
X95420506Y-33172537D01*
G37*
G04 #@! TD.AperFunction*
D21*
X105825001Y-29261680D02*
X105821325Y-29299003D01*
X105825001Y-29336325D01*
X105825001Y-29336335D01*
X105835998Y-29447988D01*
X105868055Y-29553667D01*
X105879455Y-29591249D01*
X105950027Y-29723279D01*
X105989872Y-29771829D01*
X106045000Y-29839004D01*
X106074004Y-29862807D01*
X106974973Y-30763777D01*
X106934000Y-30804750D01*
X106934000Y-32004000D01*
X106954000Y-32004000D01*
X106954000Y-32258000D01*
X106934000Y-32258000D01*
X106934000Y-32278000D01*
X106680000Y-32278000D01*
X106680000Y-32258000D01*
X105480750Y-32258000D01*
X105322000Y-32416750D01*
X105318928Y-32981000D01*
X105331188Y-33105482D01*
X105367498Y-33225180D01*
X105426463Y-33335494D01*
X105505815Y-33432185D01*
X105602506Y-33511537D01*
X105712820Y-33570502D01*
X105785380Y-33592513D01*
X105653525Y-33724368D01*
X105499324Y-33955146D01*
X105451937Y-33884226D01*
X105307774Y-33740063D01*
X105138256Y-33626795D01*
X104949898Y-33548774D01*
X104749939Y-33509000D01*
X104546061Y-33509000D01*
X104346102Y-33548774D01*
X104157744Y-33626795D01*
X103988226Y-33740063D01*
X103844063Y-33884226D01*
X103730795Y-34053744D01*
X103652774Y-34242102D01*
X103615001Y-34432000D01*
X102984801Y-34432000D01*
X103635004Y-33781798D01*
X103664001Y-33758001D01*
X103758974Y-33642276D01*
X103829546Y-33510247D01*
X103873003Y-33366986D01*
X103884000Y-33255333D01*
X103884000Y-33255325D01*
X103887676Y-33218000D01*
X103884000Y-33180675D01*
X103884000Y-31437711D01*
X103927937Y-31393774D01*
X104003289Y-31281000D01*
X105318928Y-31281000D01*
X105322000Y-31845250D01*
X105480750Y-32004000D01*
X106680000Y-32004000D01*
X106680000Y-30804750D01*
X106521250Y-30646000D01*
X105957000Y-30642928D01*
X105832518Y-30655188D01*
X105712820Y-30691498D01*
X105602506Y-30750463D01*
X105505815Y-30829815D01*
X105426463Y-30926506D01*
X105367498Y-31036820D01*
X105331188Y-31156518D01*
X105318928Y-31281000D01*
X104003289Y-31281000D01*
X104041205Y-31224256D01*
X104119226Y-31035898D01*
X104159000Y-30835939D01*
X104159000Y-30632061D01*
X104119226Y-30432102D01*
X104041205Y-30243744D01*
X103927937Y-30074226D01*
X103783774Y-29930063D01*
X103614256Y-29816795D01*
X103425898Y-29738774D01*
X103225939Y-29699000D01*
X103138001Y-29699000D01*
X103138001Y-28746800D01*
X105043592Y-26841210D01*
X105263740Y-26885000D01*
X105556260Y-26885000D01*
X105825002Y-26831544D01*
X105825001Y-29261680D01*
G04 #@! TA.AperFunction,Conductor*
D22*
G36*
X105825001Y-29261680D02*
G01*
X105821325Y-29299003D01*
X105825001Y-29336325D01*
X105825001Y-29336335D01*
X105835998Y-29447988D01*
X105868055Y-29553667D01*
X105879455Y-29591249D01*
X105950027Y-29723279D01*
X105989872Y-29771829D01*
X106045000Y-29839004D01*
X106074004Y-29862807D01*
X106974973Y-30763777D01*
X106934000Y-30804750D01*
X106934000Y-32004000D01*
X106954000Y-32004000D01*
X106954000Y-32258000D01*
X106934000Y-32258000D01*
X106934000Y-32278000D01*
X106680000Y-32278000D01*
X106680000Y-32258000D01*
X105480750Y-32258000D01*
X105322000Y-32416750D01*
X105318928Y-32981000D01*
X105331188Y-33105482D01*
X105367498Y-33225180D01*
X105426463Y-33335494D01*
X105505815Y-33432185D01*
X105602506Y-33511537D01*
X105712820Y-33570502D01*
X105785380Y-33592513D01*
X105653525Y-33724368D01*
X105499324Y-33955146D01*
X105451937Y-33884226D01*
X105307774Y-33740063D01*
X105138256Y-33626795D01*
X104949898Y-33548774D01*
X104749939Y-33509000D01*
X104546061Y-33509000D01*
X104346102Y-33548774D01*
X104157744Y-33626795D01*
X103988226Y-33740063D01*
X103844063Y-33884226D01*
X103730795Y-34053744D01*
X103652774Y-34242102D01*
X103615001Y-34432000D01*
X102984801Y-34432000D01*
X103635004Y-33781798D01*
X103664001Y-33758001D01*
X103758974Y-33642276D01*
X103829546Y-33510247D01*
X103873003Y-33366986D01*
X103884000Y-33255333D01*
X103884000Y-33255325D01*
X103887676Y-33218000D01*
X103884000Y-33180675D01*
X103884000Y-31437711D01*
X103927937Y-31393774D01*
X104003289Y-31281000D01*
X105318928Y-31281000D01*
X105322000Y-31845250D01*
X105480750Y-32004000D01*
X106680000Y-32004000D01*
X106680000Y-30804750D01*
X106521250Y-30646000D01*
X105957000Y-30642928D01*
X105832518Y-30655188D01*
X105712820Y-30691498D01*
X105602506Y-30750463D01*
X105505815Y-30829815D01*
X105426463Y-30926506D01*
X105367498Y-31036820D01*
X105331188Y-31156518D01*
X105318928Y-31281000D01*
X104003289Y-31281000D01*
X104041205Y-31224256D01*
X104119226Y-31035898D01*
X104159000Y-30835939D01*
X104159000Y-30632061D01*
X104119226Y-30432102D01*
X104041205Y-30243744D01*
X103927937Y-30074226D01*
X103783774Y-29930063D01*
X103614256Y-29816795D01*
X103425898Y-29738774D01*
X103225939Y-29699000D01*
X103138001Y-29699000D01*
X103138001Y-28746800D01*
X105043592Y-26841210D01*
X105263740Y-26885000D01*
X105556260Y-26885000D01*
X105825002Y-26831544D01*
X105825001Y-29261680D01*
G37*
G04 #@! TD.AperFunction*
D21*
X77072198Y-32896002D02*
X77095997Y-32925001D01*
X77211722Y-33019974D01*
X77343751Y-33090546D01*
X77487012Y-33134003D01*
X77598665Y-33145000D01*
X77598675Y-33145000D01*
X77635998Y-33148676D01*
X77673321Y-33145000D01*
X83828199Y-33145000D01*
X84213199Y-33530000D01*
X77315800Y-33530000D01*
X70516909Y-26731110D01*
X70553411Y-26715990D01*
X70756492Y-26580295D01*
X77072198Y-32896002D01*
G04 #@! TA.AperFunction,Conductor*
D22*
G36*
X77072198Y-32896002D02*
G01*
X77095997Y-32925001D01*
X77211722Y-33019974D01*
X77343751Y-33090546D01*
X77487012Y-33134003D01*
X77598665Y-33145000D01*
X77598675Y-33145000D01*
X77635998Y-33148676D01*
X77673321Y-33145000D01*
X83828199Y-33145000D01*
X84213199Y-33530000D01*
X77315800Y-33530000D01*
X70516909Y-26731110D01*
X70553411Y-26715990D01*
X70756492Y-26580295D01*
X77072198Y-32896002D01*
G37*
G04 #@! TD.AperFunction*
D21*
X75057000Y-25273000D02*
X75077000Y-25273000D01*
X75077000Y-25527000D01*
X75057000Y-25527000D01*
X75057000Y-26720155D01*
X75286890Y-26841476D01*
X75434099Y-26796825D01*
X75696920Y-26671641D01*
X75930269Y-26497588D01*
X76125178Y-26281355D01*
X76194805Y-26164466D01*
X76316525Y-26346632D01*
X76523368Y-26553475D01*
X76766589Y-26715990D01*
X77036842Y-26827932D01*
X77323740Y-26885000D01*
X77616260Y-26885000D01*
X77903158Y-26827932D01*
X78173411Y-26715990D01*
X78416632Y-26553475D01*
X78623475Y-26346632D01*
X78740000Y-26172240D01*
X78856525Y-26346632D01*
X79063368Y-26553475D01*
X79254088Y-26680910D01*
X79260998Y-26751066D01*
X79304454Y-26894327D01*
X79375026Y-27026357D01*
X79436282Y-27100997D01*
X79470000Y-27142082D01*
X79498998Y-27165880D01*
X83958117Y-31625000D01*
X77950800Y-31625000D01*
X73056909Y-26731110D01*
X73093411Y-26715990D01*
X73336632Y-26553475D01*
X73543475Y-26346632D01*
X73665195Y-26164466D01*
X73734822Y-26281355D01*
X73929731Y-26497588D01*
X74163080Y-26671641D01*
X74425901Y-26796825D01*
X74573110Y-26841476D01*
X74803000Y-26720155D01*
X74803000Y-25527000D01*
X74783000Y-25527000D01*
X74783000Y-25273000D01*
X74803000Y-25273000D01*
X74803000Y-25253000D01*
X75057000Y-25253000D01*
X75057000Y-25273000D01*
G04 #@! TA.AperFunction,Conductor*
D22*
G36*
X75057000Y-25273000D02*
G01*
X75077000Y-25273000D01*
X75077000Y-25527000D01*
X75057000Y-25527000D01*
X75057000Y-26720155D01*
X75286890Y-26841476D01*
X75434099Y-26796825D01*
X75696920Y-26671641D01*
X75930269Y-26497588D01*
X76125178Y-26281355D01*
X76194805Y-26164466D01*
X76316525Y-26346632D01*
X76523368Y-26553475D01*
X76766589Y-26715990D01*
X77036842Y-26827932D01*
X77323740Y-26885000D01*
X77616260Y-26885000D01*
X77903158Y-26827932D01*
X78173411Y-26715990D01*
X78416632Y-26553475D01*
X78623475Y-26346632D01*
X78740000Y-26172240D01*
X78856525Y-26346632D01*
X79063368Y-26553475D01*
X79254088Y-26680910D01*
X79260998Y-26751066D01*
X79304454Y-26894327D01*
X79375026Y-27026357D01*
X79436282Y-27100997D01*
X79470000Y-27142082D01*
X79498998Y-27165880D01*
X83958117Y-31625000D01*
X77950800Y-31625000D01*
X73056909Y-26731110D01*
X73093411Y-26715990D01*
X73336632Y-26553475D01*
X73543475Y-26346632D01*
X73665195Y-26164466D01*
X73734822Y-26281355D01*
X73929731Y-26497588D01*
X74163080Y-26671641D01*
X74425901Y-26796825D01*
X74573110Y-26841476D01*
X74803000Y-26720155D01*
X74803000Y-25527000D01*
X74783000Y-25527000D01*
X74783000Y-25273000D01*
X74803000Y-25273000D01*
X74803000Y-25253000D01*
X75057000Y-25253000D01*
X75057000Y-25273000D01*
G37*
G04 #@! TD.AperFunction*
D21*
X94768402Y-30508203D02*
X94725000Y-30503928D01*
X94175000Y-30503928D01*
X94050518Y-30516188D01*
X94050000Y-30516345D01*
X94049482Y-30516188D01*
X93925000Y-30503928D01*
X93597000Y-30503928D01*
X93597000Y-29336800D01*
X94768402Y-30508203D01*
G04 #@! TA.AperFunction,Conductor*
D22*
G36*
X94768402Y-30508203D02*
G01*
X94725000Y-30503928D01*
X94175000Y-30503928D01*
X94050518Y-30516188D01*
X94050000Y-30516345D01*
X94049482Y-30516188D01*
X93925000Y-30503928D01*
X93597000Y-30503928D01*
X93597000Y-29336800D01*
X94768402Y-30508203D01*
G37*
G04 #@! TD.AperFunction*
D21*
X107357209Y-27780675D02*
X107410000Y-27845001D01*
X107438998Y-27868799D01*
X108460000Y-28889802D01*
X108460000Y-30099200D01*
X107345001Y-28984202D01*
X107345001Y-27765800D01*
X107357209Y-27780675D01*
G04 #@! TA.AperFunction,Conductor*
D22*
G36*
X107357209Y-27780675D02*
G01*
X107410000Y-27845001D01*
X107438998Y-27868799D01*
X108460000Y-28889802D01*
X108460000Y-30099200D01*
X107345001Y-28984202D01*
X107345001Y-27765800D01*
X107357209Y-27780675D01*
G37*
G04 #@! TD.AperFunction*
D21*
X82677000Y-25273000D02*
X82697000Y-25273000D01*
X82697000Y-25527000D01*
X82677000Y-25527000D01*
X82677000Y-25547000D01*
X82423000Y-25547000D01*
X82423000Y-25527000D01*
X82403000Y-25527000D01*
X82403000Y-25273000D01*
X82423000Y-25273000D01*
X82423000Y-25253000D01*
X82677000Y-25253000D01*
X82677000Y-25273000D01*
G04 #@! TA.AperFunction,Conductor*
D22*
G36*
X82677000Y-25273000D02*
G01*
X82697000Y-25273000D01*
X82697000Y-25527000D01*
X82677000Y-25527000D01*
X82677000Y-25547000D01*
X82423000Y-25547000D01*
X82423000Y-25527000D01*
X82403000Y-25527000D01*
X82403000Y-25273000D01*
X82423000Y-25273000D01*
X82423000Y-25253000D01*
X82677000Y-25253000D01*
X82677000Y-25273000D01*
G37*
G04 #@! TD.AperFunction*
D21*
X95377000Y-25273000D02*
X95397000Y-25273000D01*
X95397000Y-25527000D01*
X95377000Y-25527000D01*
X95377000Y-25547000D01*
X95123000Y-25547000D01*
X95123000Y-25527000D01*
X95103000Y-25527000D01*
X95103000Y-25273000D01*
X95123000Y-25273000D01*
X95123000Y-25253000D01*
X95377000Y-25253000D01*
X95377000Y-25273000D01*
G04 #@! TA.AperFunction,Conductor*
D22*
G36*
X95377000Y-25273000D02*
G01*
X95397000Y-25273000D01*
X95397000Y-25527000D01*
X95377000Y-25527000D01*
X95377000Y-25547000D01*
X95123000Y-25547000D01*
X95123000Y-25527000D01*
X95103000Y-25527000D01*
X95103000Y-25273000D01*
X95123000Y-25273000D01*
X95123000Y-25253000D01*
X95377000Y-25253000D01*
X95377000Y-25273000D01*
G37*
G04 #@! TD.AperFunction*
D21*
X100457000Y-25273000D02*
X100477000Y-25273000D01*
X100477000Y-25527000D01*
X100457000Y-25527000D01*
X100457000Y-25547000D01*
X100203000Y-25547000D01*
X100203000Y-25527000D01*
X100183000Y-25527000D01*
X100183000Y-25273000D01*
X100203000Y-25273000D01*
X100203000Y-25253000D01*
X100457000Y-25253000D01*
X100457000Y-25273000D01*
G04 #@! TA.AperFunction,Conductor*
D22*
G36*
X100457000Y-25273000D02*
G01*
X100477000Y-25273000D01*
X100477000Y-25527000D01*
X100457000Y-25527000D01*
X100457000Y-25547000D01*
X100203000Y-25547000D01*
X100203000Y-25527000D01*
X100183000Y-25527000D01*
X100183000Y-25273000D01*
X100203000Y-25273000D01*
X100203000Y-25253000D01*
X100457000Y-25253000D01*
X100457000Y-25273000D01*
G37*
G04 #@! TD.AperFunction*
D21*
X73776525Y-23806632D02*
X73983368Y-24013475D01*
X74159406Y-24131100D01*
X73929731Y-24302412D01*
X73734822Y-24518645D01*
X73665195Y-24635534D01*
X73543475Y-24453368D01*
X73336632Y-24246525D01*
X73162240Y-24130000D01*
X73336632Y-24013475D01*
X73543475Y-23806632D01*
X73660000Y-23632240D01*
X73776525Y-23806632D01*
G04 #@! TA.AperFunction,Conductor*
D22*
G36*
X73776525Y-23806632D02*
G01*
X73983368Y-24013475D01*
X74159406Y-24131100D01*
X73929731Y-24302412D01*
X73734822Y-24518645D01*
X73665195Y-24635534D01*
X73543475Y-24453368D01*
X73336632Y-24246525D01*
X73162240Y-24130000D01*
X73336632Y-24013475D01*
X73543475Y-23806632D01*
X73660000Y-23632240D01*
X73776525Y-23806632D01*
G37*
G04 #@! TD.AperFunction*
D21*
X94096525Y-23806632D02*
X94303368Y-24013475D01*
X94479406Y-24131100D01*
X94249731Y-24302412D01*
X94054822Y-24518645D01*
X93985195Y-24635534D01*
X93863475Y-24453368D01*
X93656632Y-24246525D01*
X93482240Y-24130000D01*
X93656632Y-24013475D01*
X93863475Y-23806632D01*
X93980000Y-23632240D01*
X94096525Y-23806632D01*
G04 #@! TA.AperFunction,Conductor*
D22*
G36*
X94096525Y-23806632D02*
G01*
X94303368Y-24013475D01*
X94479406Y-24131100D01*
X94249731Y-24302412D01*
X94054822Y-24518645D01*
X93985195Y-24635534D01*
X93863475Y-24453368D01*
X93656632Y-24246525D01*
X93482240Y-24130000D01*
X93656632Y-24013475D01*
X93863475Y-23806632D01*
X93980000Y-23632240D01*
X94096525Y-23806632D01*
G37*
G04 #@! TD.AperFunction*
G04 #@! TD*
M02*
