%TF.GenerationSoftware,KiCad,Pcbnew,5.1.9-73d0e3b20d~88~ubuntu20.10.1*%
%TF.CreationDate,2021-03-23T08:11:44+00:00*%
%TF.ProjectId,A500,41353030-2e6b-4696-9361-645f70636258,rev?*%
%TF.SameCoordinates,Original*%
%TF.FileFunction,Legend,Top*%
%TF.FilePolarity,Positive*%
%FSLAX46Y46*%
G04 Gerber Fmt 4.6, Leading zero omitted, Abs format (unit mm)*
G04 Created by KiCad (PCBNEW 5.1.9-73d0e3b20d~88~ubuntu20.10.1) date 2021-03-23 08:11:44*
%MOMM*%
%LPD*%
G01*
G04 APERTURE LIST*
%ADD10C,0.120000*%
%ADD11C,0.150000*%
G04 APERTURE END LIST*
D10*
X57150000Y-23241000D02*
G75*
G02*
X57785000Y-22606000I635000J0D01*
G01*
X57785000Y-22606000D02*
X57531000Y-22987000D01*
X57785000Y-22606000D02*
X57404000Y-22352000D01*
D11*
X57729380Y-27153952D02*
X56729380Y-27153952D01*
X56729380Y-26773000D01*
X56777000Y-26677761D01*
X56824619Y-26630142D01*
X56919857Y-26582523D01*
X57062714Y-26582523D01*
X57157952Y-26630142D01*
X57205571Y-26677761D01*
X57253190Y-26773000D01*
X57253190Y-27153952D01*
X57729380Y-26153952D02*
X56729380Y-26153952D01*
X57729380Y-25677761D02*
X56729380Y-25677761D01*
X57729380Y-25106333D01*
X56729380Y-25106333D01*
X57729380Y-23344428D02*
X57729380Y-23915857D01*
X57729380Y-23630142D02*
X56729380Y-23630142D01*
X56872238Y-23725380D01*
X56967476Y-23820619D01*
X57015095Y-23915857D01*
X68913857Y-29378666D02*
X69390047Y-29378666D01*
X68818619Y-29664380D02*
X69151952Y-28664380D01*
X69485285Y-29664380D01*
X69818619Y-29664380D02*
X69818619Y-28997714D01*
X69818619Y-29092952D02*
X69866238Y-29045333D01*
X69961476Y-28997714D01*
X70104333Y-28997714D01*
X70199571Y-29045333D01*
X70247190Y-29140571D01*
X70247190Y-29664380D01*
X70247190Y-29140571D02*
X70294809Y-29045333D01*
X70390047Y-28997714D01*
X70532904Y-28997714D01*
X70628142Y-29045333D01*
X70675761Y-29140571D01*
X70675761Y-29664380D01*
X71151952Y-29664380D02*
X71151952Y-28997714D01*
X71151952Y-28664380D02*
X71104333Y-28712000D01*
X71151952Y-28759619D01*
X71199571Y-28712000D01*
X71151952Y-28664380D01*
X71151952Y-28759619D01*
X72056714Y-28997714D02*
X72056714Y-29807238D01*
X72009095Y-29902476D01*
X71961476Y-29950095D01*
X71866238Y-29997714D01*
X71723380Y-29997714D01*
X71628142Y-29950095D01*
X72056714Y-29616761D02*
X71961476Y-29664380D01*
X71771000Y-29664380D01*
X71675761Y-29616761D01*
X71628142Y-29569142D01*
X71580523Y-29473904D01*
X71580523Y-29188190D01*
X71628142Y-29092952D01*
X71675761Y-29045333D01*
X71771000Y-28997714D01*
X71961476Y-28997714D01*
X72056714Y-29045333D01*
X72961476Y-29664380D02*
X72961476Y-29140571D01*
X72913857Y-29045333D01*
X72818619Y-28997714D01*
X72628142Y-28997714D01*
X72532904Y-29045333D01*
X72961476Y-29616761D02*
X72866238Y-29664380D01*
X72628142Y-29664380D01*
X72532904Y-29616761D01*
X72485285Y-29521523D01*
X72485285Y-29426285D01*
X72532904Y-29331047D01*
X72628142Y-29283428D01*
X72866238Y-29283428D01*
X72961476Y-29235809D01*
X74675761Y-28664380D02*
X74199571Y-28664380D01*
X74151952Y-29140571D01*
X74199571Y-29092952D01*
X74294809Y-29045333D01*
X74532904Y-29045333D01*
X74628142Y-29092952D01*
X74675761Y-29140571D01*
X74723380Y-29235809D01*
X74723380Y-29473904D01*
X74675761Y-29569142D01*
X74628142Y-29616761D01*
X74532904Y-29664380D01*
X74294809Y-29664380D01*
X74199571Y-29616761D01*
X74151952Y-29569142D01*
X75342428Y-28664380D02*
X75437666Y-28664380D01*
X75532904Y-28712000D01*
X75580523Y-28759619D01*
X75628142Y-28854857D01*
X75675761Y-29045333D01*
X75675761Y-29283428D01*
X75628142Y-29473904D01*
X75580523Y-29569142D01*
X75532904Y-29616761D01*
X75437666Y-29664380D01*
X75342428Y-29664380D01*
X75247190Y-29616761D01*
X75199571Y-29569142D01*
X75151952Y-29473904D01*
X75104333Y-29283428D01*
X75104333Y-29045333D01*
X75151952Y-28854857D01*
X75199571Y-28759619D01*
X75247190Y-28712000D01*
X75342428Y-28664380D01*
X76294809Y-28664380D02*
X76390047Y-28664380D01*
X76485285Y-28712000D01*
X76532904Y-28759619D01*
X76580523Y-28854857D01*
X76628142Y-29045333D01*
X76628142Y-29283428D01*
X76580523Y-29473904D01*
X76532904Y-29569142D01*
X76485285Y-29616761D01*
X76390047Y-29664380D01*
X76294809Y-29664380D01*
X76199571Y-29616761D01*
X76151952Y-29569142D01*
X76104333Y-29473904D01*
X76056714Y-29283428D01*
X76056714Y-29045333D01*
X76104333Y-28854857D01*
X76151952Y-28759619D01*
X76199571Y-28712000D01*
X76294809Y-28664380D01*
X65985285Y-31314380D02*
X65651952Y-30838190D01*
X65413857Y-31314380D02*
X65413857Y-30314380D01*
X65794809Y-30314380D01*
X65890047Y-30362000D01*
X65937666Y-30409619D01*
X65985285Y-30504857D01*
X65985285Y-30647714D01*
X65937666Y-30742952D01*
X65890047Y-30790571D01*
X65794809Y-30838190D01*
X65413857Y-30838190D01*
X66937666Y-30362000D02*
X66842428Y-30314380D01*
X66699571Y-30314380D01*
X66556714Y-30362000D01*
X66461476Y-30457238D01*
X66413857Y-30552476D01*
X66366238Y-30742952D01*
X66366238Y-30885809D01*
X66413857Y-31076285D01*
X66461476Y-31171523D01*
X66556714Y-31266761D01*
X66699571Y-31314380D01*
X66794809Y-31314380D01*
X66937666Y-31266761D01*
X66985285Y-31219142D01*
X66985285Y-30885809D01*
X66794809Y-30885809D01*
X67747190Y-30790571D02*
X67890047Y-30838190D01*
X67937666Y-30885809D01*
X67985285Y-30981047D01*
X67985285Y-31123904D01*
X67937666Y-31219142D01*
X67890047Y-31266761D01*
X67794809Y-31314380D01*
X67413857Y-31314380D01*
X67413857Y-30314380D01*
X67747190Y-30314380D01*
X67842428Y-30362000D01*
X67890047Y-30409619D01*
X67937666Y-30504857D01*
X67937666Y-30600095D01*
X67890047Y-30695333D01*
X67842428Y-30742952D01*
X67747190Y-30790571D01*
X67413857Y-30790571D01*
X68271000Y-30647714D02*
X68651952Y-30647714D01*
X68413857Y-30314380D02*
X68413857Y-31171523D01*
X68461476Y-31266761D01*
X68556714Y-31314380D01*
X68651952Y-31314380D01*
X69128142Y-31314380D02*
X69032904Y-31266761D01*
X68985285Y-31219142D01*
X68937666Y-31123904D01*
X68937666Y-30838190D01*
X68985285Y-30742952D01*
X69032904Y-30695333D01*
X69128142Y-30647714D01*
X69271000Y-30647714D01*
X69366238Y-30695333D01*
X69413857Y-30742952D01*
X69461476Y-30838190D01*
X69461476Y-31123904D01*
X69413857Y-31219142D01*
X69366238Y-31266761D01*
X69271000Y-31314380D01*
X69128142Y-31314380D01*
X69890047Y-31314380D02*
X69890047Y-30314380D01*
X69890047Y-30790571D02*
X70461476Y-30790571D01*
X70461476Y-31314380D02*
X70461476Y-30314380D01*
X70937666Y-31314380D02*
X70937666Y-30314380D01*
X71175761Y-30314380D01*
X71318619Y-30362000D01*
X71413857Y-30457238D01*
X71461476Y-30552476D01*
X71509095Y-30742952D01*
X71509095Y-30885809D01*
X71461476Y-31076285D01*
X71413857Y-31171523D01*
X71318619Y-31266761D01*
X71175761Y-31314380D01*
X70937666Y-31314380D01*
X71937666Y-31314380D02*
X71937666Y-30314380D01*
X72271000Y-31028666D01*
X72604333Y-30314380D01*
X72604333Y-31314380D01*
X73080523Y-31314380D02*
X73080523Y-30314380D01*
X74890047Y-31219142D02*
X74842428Y-31266761D01*
X74699571Y-31314380D01*
X74604333Y-31314380D01*
X74461476Y-31266761D01*
X74366238Y-31171523D01*
X74318619Y-31076285D01*
X74271000Y-30885809D01*
X74271000Y-30742952D01*
X74318619Y-30552476D01*
X74366238Y-30457238D01*
X74461476Y-30362000D01*
X74604333Y-30314380D01*
X74699571Y-30314380D01*
X74842428Y-30362000D01*
X74890047Y-30409619D01*
X75318619Y-31314380D02*
X75318619Y-30314380D01*
X75699571Y-30314380D01*
X75794809Y-30362000D01*
X75842428Y-30409619D01*
X75890047Y-30504857D01*
X75890047Y-30647714D01*
X75842428Y-30742952D01*
X75794809Y-30790571D01*
X75699571Y-30838190D01*
X75318619Y-30838190D01*
X76794809Y-31314380D02*
X76318619Y-31314380D01*
X76318619Y-30314380D01*
X77128142Y-31314380D02*
X77128142Y-30314380D01*
X77366238Y-30314380D01*
X77509095Y-30362000D01*
X77604333Y-30457238D01*
X77651952Y-30552476D01*
X77699571Y-30742952D01*
X77699571Y-30885809D01*
X77651952Y-31076285D01*
X77604333Y-31171523D01*
X77509095Y-31266761D01*
X77366238Y-31314380D01*
X77128142Y-31314380D01*
X78794809Y-30647714D02*
X79032904Y-31314380D01*
X79271000Y-30647714D01*
X80175761Y-31314380D02*
X79604333Y-31314380D01*
X79890047Y-31314380D02*
X79890047Y-30314380D01*
X79794809Y-30457238D01*
X79699571Y-30552476D01*
X79604333Y-30600095D01*
X66080523Y-33345333D02*
X66032904Y-33297714D01*
X65937666Y-33154857D01*
X65890047Y-33059619D01*
X65842428Y-32916761D01*
X65794809Y-32678666D01*
X65794809Y-32488190D01*
X65842428Y-32250095D01*
X65890047Y-32107238D01*
X65937666Y-32012000D01*
X66032904Y-31869142D01*
X66080523Y-31821523D01*
X66890047Y-32916761D02*
X66794809Y-32964380D01*
X66604333Y-32964380D01*
X66509095Y-32916761D01*
X66461476Y-32869142D01*
X66413857Y-32773904D01*
X66413857Y-32488190D01*
X66461476Y-32392952D01*
X66509095Y-32345333D01*
X66604333Y-32297714D01*
X66794809Y-32297714D01*
X66890047Y-32345333D01*
X67223380Y-33345333D02*
X67271000Y-33297714D01*
X67366238Y-33154857D01*
X67413857Y-33059619D01*
X67461476Y-32916761D01*
X67509095Y-32678666D01*
X67509095Y-32488190D01*
X67461476Y-32250095D01*
X67413857Y-32107238D01*
X67366238Y-32012000D01*
X67271000Y-31869142D01*
X67223380Y-31821523D01*
X68699571Y-32059619D02*
X68747190Y-32012000D01*
X68842428Y-31964380D01*
X69080523Y-31964380D01*
X69175761Y-32012000D01*
X69223380Y-32059619D01*
X69271000Y-32154857D01*
X69271000Y-32250095D01*
X69223380Y-32392952D01*
X68651952Y-32964380D01*
X69271000Y-32964380D01*
X69890047Y-31964380D02*
X69985285Y-31964380D01*
X70080523Y-32012000D01*
X70128142Y-32059619D01*
X70175761Y-32154857D01*
X70223380Y-32345333D01*
X70223380Y-32583428D01*
X70175761Y-32773904D01*
X70128142Y-32869142D01*
X70080523Y-32916761D01*
X69985285Y-32964380D01*
X69890047Y-32964380D01*
X69794809Y-32916761D01*
X69747190Y-32869142D01*
X69699571Y-32773904D01*
X69651952Y-32583428D01*
X69651952Y-32345333D01*
X69699571Y-32154857D01*
X69747190Y-32059619D01*
X69794809Y-32012000D01*
X69890047Y-31964380D01*
X70604333Y-32059619D02*
X70651952Y-32012000D01*
X70747190Y-31964380D01*
X70985285Y-31964380D01*
X71080523Y-32012000D01*
X71128142Y-32059619D01*
X71175761Y-32154857D01*
X71175761Y-32250095D01*
X71128142Y-32392952D01*
X70556714Y-32964380D01*
X71175761Y-32964380D01*
X72128142Y-32964380D02*
X71556714Y-32964380D01*
X71842428Y-32964380D02*
X71842428Y-31964380D01*
X71747190Y-32107238D01*
X71651952Y-32202476D01*
X71556714Y-32250095D01*
X73794809Y-32964380D02*
X73318619Y-32964380D01*
X73318619Y-31964380D01*
X74128142Y-32964380D02*
X74128142Y-32297714D01*
X74128142Y-31964380D02*
X74080523Y-32012000D01*
X74128142Y-32059619D01*
X74175761Y-32012000D01*
X74128142Y-31964380D01*
X74128142Y-32059619D01*
X74604333Y-32297714D02*
X74604333Y-32964380D01*
X74604333Y-32392952D02*
X74651952Y-32345333D01*
X74747190Y-32297714D01*
X74890047Y-32297714D01*
X74985285Y-32345333D01*
X75032904Y-32440571D01*
X75032904Y-32964380D01*
X75937666Y-32297714D02*
X75937666Y-32964380D01*
X75509095Y-32297714D02*
X75509095Y-32821523D01*
X75556714Y-32916761D01*
X75651952Y-32964380D01*
X75794809Y-32964380D01*
X75890047Y-32916761D01*
X75937666Y-32869142D01*
X76318619Y-32964380D02*
X76842428Y-32297714D01*
X76318619Y-32297714D02*
X76842428Y-32964380D01*
X77509095Y-31964380D02*
X77509095Y-32678666D01*
X77461476Y-32821523D01*
X77366238Y-32916761D01*
X77223380Y-32964380D01*
X77128142Y-32964380D01*
X78366238Y-32916761D02*
X78271000Y-32964380D01*
X78080523Y-32964380D01*
X77985285Y-32916761D01*
X77937666Y-32821523D01*
X77937666Y-32440571D01*
X77985285Y-32345333D01*
X78080523Y-32297714D01*
X78271000Y-32297714D01*
X78366238Y-32345333D01*
X78413857Y-32440571D01*
X78413857Y-32535809D01*
X77937666Y-32631047D01*
X79271000Y-32964380D02*
X79271000Y-31964380D01*
X79271000Y-32916761D02*
X79175761Y-32964380D01*
X78985285Y-32964380D01*
X78890047Y-32916761D01*
X78842428Y-32869142D01*
X78794809Y-32773904D01*
X78794809Y-32488190D01*
X78842428Y-32392952D01*
X78890047Y-32345333D01*
X78985285Y-32297714D01*
X79175761Y-32297714D01*
X79271000Y-32345333D01*
X79747190Y-32964380D02*
X79747190Y-32297714D01*
X79747190Y-31964380D02*
X79699571Y-32012000D01*
X79747190Y-32059619D01*
X79794809Y-32012000D01*
X79747190Y-31964380D01*
X79747190Y-32059619D01*
X64032904Y-34090571D02*
X64175761Y-34138190D01*
X64223380Y-34185809D01*
X64271000Y-34281047D01*
X64271000Y-34423904D01*
X64223380Y-34519142D01*
X64175761Y-34566761D01*
X64080523Y-34614380D01*
X63699571Y-34614380D01*
X63699571Y-33614380D01*
X64032904Y-33614380D01*
X64128142Y-33662000D01*
X64175761Y-33709619D01*
X64223380Y-33804857D01*
X64223380Y-33900095D01*
X64175761Y-33995333D01*
X64128142Y-34042952D01*
X64032904Y-34090571D01*
X63699571Y-34090571D01*
X65128142Y-34614380D02*
X65128142Y-34090571D01*
X65080523Y-33995333D01*
X64985285Y-33947714D01*
X64794809Y-33947714D01*
X64699571Y-33995333D01*
X65128142Y-34566761D02*
X65032904Y-34614380D01*
X64794809Y-34614380D01*
X64699571Y-34566761D01*
X64651952Y-34471523D01*
X64651952Y-34376285D01*
X64699571Y-34281047D01*
X64794809Y-34233428D01*
X65032904Y-34233428D01*
X65128142Y-34185809D01*
X65556714Y-34566761D02*
X65651952Y-34614380D01*
X65842428Y-34614380D01*
X65937666Y-34566761D01*
X65985285Y-34471523D01*
X65985285Y-34423904D01*
X65937666Y-34328666D01*
X65842428Y-34281047D01*
X65699571Y-34281047D01*
X65604333Y-34233428D01*
X65556714Y-34138190D01*
X65556714Y-34090571D01*
X65604333Y-33995333D01*
X65699571Y-33947714D01*
X65842428Y-33947714D01*
X65937666Y-33995333D01*
X66794809Y-34566761D02*
X66699571Y-34614380D01*
X66509095Y-34614380D01*
X66413857Y-34566761D01*
X66366238Y-34471523D01*
X66366238Y-34090571D01*
X66413857Y-33995333D01*
X66509095Y-33947714D01*
X66699571Y-33947714D01*
X66794809Y-33995333D01*
X66842428Y-34090571D01*
X66842428Y-34185809D01*
X66366238Y-34281047D01*
X67699571Y-34614380D02*
X67699571Y-33614380D01*
X67699571Y-34566761D02*
X67604333Y-34614380D01*
X67413857Y-34614380D01*
X67318619Y-34566761D01*
X67271000Y-34519142D01*
X67223380Y-34423904D01*
X67223380Y-34138190D01*
X67271000Y-34042952D01*
X67318619Y-33995333D01*
X67413857Y-33947714D01*
X67604333Y-33947714D01*
X67699571Y-33995333D01*
X69080523Y-34614380D02*
X68985285Y-34566761D01*
X68937666Y-34519142D01*
X68890047Y-34423904D01*
X68890047Y-34138190D01*
X68937666Y-34042952D01*
X68985285Y-33995333D01*
X69080523Y-33947714D01*
X69223380Y-33947714D01*
X69318619Y-33995333D01*
X69366238Y-34042952D01*
X69413857Y-34138190D01*
X69413857Y-34423904D01*
X69366238Y-34519142D01*
X69318619Y-34566761D01*
X69223380Y-34614380D01*
X69080523Y-34614380D01*
X69842428Y-33947714D02*
X69842428Y-34614380D01*
X69842428Y-34042952D02*
X69890047Y-33995333D01*
X69985285Y-33947714D01*
X70128142Y-33947714D01*
X70223380Y-33995333D01*
X70271000Y-34090571D01*
X70271000Y-34614380D01*
X71413857Y-33947714D02*
X71604333Y-34614380D01*
X71794809Y-34138190D01*
X71985285Y-34614380D01*
X72175761Y-33947714D01*
X72699571Y-34614380D02*
X72604333Y-34566761D01*
X72556714Y-34519142D01*
X72509095Y-34423904D01*
X72509095Y-34138190D01*
X72556714Y-34042952D01*
X72604333Y-33995333D01*
X72699571Y-33947714D01*
X72842428Y-33947714D01*
X72937666Y-33995333D01*
X72985285Y-34042952D01*
X73032904Y-34138190D01*
X73032904Y-34423904D01*
X72985285Y-34519142D01*
X72937666Y-34566761D01*
X72842428Y-34614380D01*
X72699571Y-34614380D01*
X73461476Y-34614380D02*
X73461476Y-33947714D01*
X73461476Y-34138190D02*
X73509095Y-34042952D01*
X73556714Y-33995333D01*
X73651952Y-33947714D01*
X73747190Y-33947714D01*
X74080523Y-34614380D02*
X74080523Y-33614380D01*
X74175761Y-34233428D02*
X74461476Y-34614380D01*
X74461476Y-33947714D02*
X74080523Y-34328666D01*
X75651952Y-34614380D02*
X75651952Y-33614380D01*
X75651952Y-33995333D02*
X75747190Y-33947714D01*
X75937666Y-33947714D01*
X76032904Y-33995333D01*
X76080523Y-34042952D01*
X76128142Y-34138190D01*
X76128142Y-34423904D01*
X76080523Y-34519142D01*
X76032904Y-34566761D01*
X75937666Y-34614380D01*
X75747190Y-34614380D01*
X75651952Y-34566761D01*
X76461476Y-33947714D02*
X76699571Y-34614380D01*
X76937666Y-33947714D02*
X76699571Y-34614380D01*
X76604333Y-34852476D01*
X76556714Y-34900095D01*
X76461476Y-34947714D01*
X78080523Y-34614380D02*
X78080523Y-33614380D01*
X78985285Y-34614380D02*
X78985285Y-34090571D01*
X78937666Y-33995333D01*
X78842428Y-33947714D01*
X78651952Y-33947714D01*
X78556714Y-33995333D01*
X78985285Y-34566761D02*
X78890047Y-34614380D01*
X78651952Y-34614380D01*
X78556714Y-34566761D01*
X78509095Y-34471523D01*
X78509095Y-34376285D01*
X78556714Y-34281047D01*
X78651952Y-34233428D01*
X78890047Y-34233428D01*
X78985285Y-34185809D01*
X79461476Y-33947714D02*
X79461476Y-34614380D01*
X79461476Y-34042952D02*
X79509095Y-33995333D01*
X79604333Y-33947714D01*
X79747190Y-33947714D01*
X79842428Y-33995333D01*
X79890047Y-34090571D01*
X79890047Y-34614380D01*
X80318619Y-34566761D02*
X80461476Y-34614380D01*
X80699571Y-34614380D01*
X80794809Y-34566761D01*
X80842428Y-34519142D01*
X80890047Y-34423904D01*
X80890047Y-34328666D01*
X80842428Y-34233428D01*
X80794809Y-34185809D01*
X80699571Y-34138190D01*
X80509095Y-34090571D01*
X80413857Y-34042952D01*
X80366238Y-33995333D01*
X80318619Y-33900095D01*
X80318619Y-33804857D01*
X80366238Y-33709619D01*
X80413857Y-33662000D01*
X80509095Y-33614380D01*
X80747190Y-33614380D01*
X80890047Y-33662000D01*
X81651952Y-34090571D02*
X81794809Y-34138190D01*
X81842428Y-34185809D01*
X81890047Y-34281047D01*
X81890047Y-34423904D01*
X81842428Y-34519142D01*
X81794809Y-34566761D01*
X81699571Y-34614380D01*
X81318619Y-34614380D01*
X81318619Y-33614380D01*
X81651952Y-33614380D01*
X81747190Y-33662000D01*
X81794809Y-33709619D01*
X81842428Y-33804857D01*
X81842428Y-33900095D01*
X81794809Y-33995333D01*
X81747190Y-34042952D01*
X81651952Y-34090571D01*
X81318619Y-34090571D01*
X68413857Y-36264380D02*
X68413857Y-35740571D01*
X68366238Y-35645333D01*
X68271000Y-35597714D01*
X68080523Y-35597714D01*
X67985285Y-35645333D01*
X68413857Y-36216761D02*
X68318619Y-36264380D01*
X68080523Y-36264380D01*
X67985285Y-36216761D01*
X67937666Y-36121523D01*
X67937666Y-36026285D01*
X67985285Y-35931047D01*
X68080523Y-35883428D01*
X68318619Y-35883428D01*
X68413857Y-35835809D01*
X68890047Y-35597714D02*
X68890047Y-36264380D01*
X68890047Y-35692952D02*
X68937666Y-35645333D01*
X69032904Y-35597714D01*
X69175761Y-35597714D01*
X69271000Y-35645333D01*
X69318619Y-35740571D01*
X69318619Y-36264380D01*
X70223380Y-36264380D02*
X70223380Y-35264380D01*
X70223380Y-36216761D02*
X70128142Y-36264380D01*
X69937666Y-36264380D01*
X69842428Y-36216761D01*
X69794809Y-36169142D01*
X69747190Y-36073904D01*
X69747190Y-35788190D01*
X69794809Y-35692952D01*
X69842428Y-35645333D01*
X69937666Y-35597714D01*
X70128142Y-35597714D01*
X70223380Y-35645333D01*
X71461476Y-36264380D02*
X71461476Y-35264380D01*
X71890047Y-36264380D02*
X71890047Y-35740571D01*
X71842428Y-35645333D01*
X71747190Y-35597714D01*
X71604333Y-35597714D01*
X71509095Y-35645333D01*
X71461476Y-35692952D01*
X72509095Y-36264380D02*
X72413857Y-36216761D01*
X72366238Y-36169142D01*
X72318619Y-36073904D01*
X72318619Y-35788190D01*
X72366238Y-35692952D01*
X72413857Y-35645333D01*
X72509095Y-35597714D01*
X72651952Y-35597714D01*
X72747190Y-35645333D01*
X72794809Y-35692952D01*
X72842428Y-35788190D01*
X72842428Y-36073904D01*
X72794809Y-36169142D01*
X72747190Y-36216761D01*
X72651952Y-36264380D01*
X72509095Y-36264380D01*
X73699571Y-35597714D02*
X73699571Y-36407238D01*
X73651952Y-36502476D01*
X73604333Y-36550095D01*
X73509095Y-36597714D01*
X73366238Y-36597714D01*
X73271000Y-36550095D01*
X73699571Y-36216761D02*
X73604333Y-36264380D01*
X73413857Y-36264380D01*
X73318619Y-36216761D01*
X73271000Y-36169142D01*
X73223380Y-36073904D01*
X73223380Y-35788190D01*
X73271000Y-35692952D01*
X73318619Y-35645333D01*
X73413857Y-35597714D01*
X73604333Y-35597714D01*
X73699571Y-35645333D01*
X74318619Y-36264380D02*
X74223380Y-36216761D01*
X74175761Y-36121523D01*
X74175761Y-35264380D01*
X75080523Y-36216761D02*
X74985285Y-36264380D01*
X74794809Y-36264380D01*
X74699571Y-36216761D01*
X74651952Y-36121523D01*
X74651952Y-35740571D01*
X74699571Y-35645333D01*
X74794809Y-35597714D01*
X74985285Y-35597714D01*
X75080523Y-35645333D01*
X75128142Y-35740571D01*
X75128142Y-35835809D01*
X74651952Y-35931047D01*
X75413857Y-35597714D02*
X75794809Y-35597714D01*
X75556714Y-35264380D02*
X75556714Y-36121523D01*
X75604333Y-36216761D01*
X75699571Y-36264380D01*
X75794809Y-36264380D01*
X76556714Y-35264380D02*
X76366238Y-35264380D01*
X76271000Y-35312000D01*
X76223380Y-35359619D01*
X76128142Y-35502476D01*
X76080523Y-35692952D01*
X76080523Y-36073904D01*
X76128142Y-36169142D01*
X76175761Y-36216761D01*
X76271000Y-36264380D01*
X76461476Y-36264380D01*
X76556714Y-36216761D01*
X76604333Y-36169142D01*
X76651952Y-36073904D01*
X76651952Y-35835809D01*
X76604333Y-35740571D01*
X76556714Y-35692952D01*
X76461476Y-35645333D01*
X76271000Y-35645333D01*
X76175761Y-35692952D01*
X76128142Y-35740571D01*
X76080523Y-35835809D01*
X76985285Y-35264380D02*
X77651952Y-35264380D01*
X77223380Y-36264380D01*
%TO.C,U3*%
X100425000Y-42192000D02*
X101700000Y-42192000D01*
X90075000Y-42767000D02*
X90750000Y-42767000D01*
X90075000Y-32417000D02*
X90750000Y-32417000D01*
X100425000Y-32417000D02*
X99750000Y-32417000D01*
X100425000Y-42767000D02*
X99750000Y-42767000D01*
X100425000Y-32417000D02*
X100425000Y-33092000D01*
X90075000Y-32417000D02*
X90075000Y-33092000D01*
X90075000Y-42767000D02*
X90075000Y-42092000D01*
X100425000Y-42767000D02*
X100425000Y-42192000D01*
D10*
%TO.C,J1*%
X58360000Y-22860000D02*
X58360000Y-21530000D01*
X58360000Y-21530000D02*
X59690000Y-21530000D01*
X58360000Y-24130000D02*
X60960000Y-24130000D01*
X60960000Y-24130000D02*
X60960000Y-21530000D01*
X60960000Y-21530000D02*
X109280000Y-21530000D01*
X109280000Y-26730000D02*
X109280000Y-21530000D01*
X58360000Y-26730000D02*
X109280000Y-26730000D01*
X58360000Y-26730000D02*
X58360000Y-24130000D01*
%TO.C,U1*%
X107320000Y-67575000D02*
X89420000Y-67575000D01*
X107320000Y-128775000D02*
X107320000Y-67575000D01*
X89420000Y-128775000D02*
X107320000Y-128775000D01*
X89420000Y-67575000D02*
X89420000Y-128775000D01*
X104830000Y-67635000D02*
X99370000Y-67635000D01*
X104830000Y-128715000D02*
X104830000Y-67635000D01*
X91910000Y-128715000D02*
X104830000Y-128715000D01*
X91910000Y-67635000D02*
X91910000Y-128715000D01*
X97370000Y-67635000D02*
X91910000Y-67635000D01*
X99370000Y-67635000D02*
G75*
G02*
X97370000Y-67635000I-1000000J0D01*
G01*
%TO.C,JP1*%
X105537000Y-30861000D02*
X106807000Y-30861000D01*
X105537000Y-32131000D02*
X105537000Y-30861000D01*
X107849929Y-35051000D02*
X108247000Y-35051000D01*
X107849929Y-34291000D02*
X108247000Y-34291000D01*
X116907000Y-35051000D02*
X110907000Y-35051000D01*
X116907000Y-34291000D02*
X116907000Y-35051000D01*
X110907000Y-34291000D02*
X116907000Y-34291000D01*
X108247000Y-33401000D02*
X110907000Y-33401000D01*
X107917000Y-32511000D02*
X108247000Y-32511000D01*
X107917000Y-31751000D02*
X108247000Y-31751000D01*
X110907000Y-32411000D02*
X116907000Y-32411000D01*
X110907000Y-32291000D02*
X116907000Y-32291000D01*
X110907000Y-32171000D02*
X116907000Y-32171000D01*
X110907000Y-32051000D02*
X116907000Y-32051000D01*
X110907000Y-31931000D02*
X116907000Y-31931000D01*
X110907000Y-31811000D02*
X116907000Y-31811000D01*
X116907000Y-32511000D02*
X110907000Y-32511000D01*
X116907000Y-31751000D02*
X116907000Y-32511000D01*
X110907000Y-31751000D02*
X116907000Y-31751000D01*
X110907000Y-30801000D02*
X108247000Y-30801000D01*
X110907000Y-36001000D02*
X110907000Y-30801000D01*
X108247000Y-36001000D02*
X110907000Y-36001000D01*
X108247000Y-30801000D02*
X108247000Y-36001000D01*
%TO.C,U3*%
D11*
X94488095Y-44494380D02*
X94488095Y-45303904D01*
X94535714Y-45399142D01*
X94583333Y-45446761D01*
X94678571Y-45494380D01*
X94869047Y-45494380D01*
X94964285Y-45446761D01*
X95011904Y-45399142D01*
X95059523Y-45303904D01*
X95059523Y-44494380D01*
X95440476Y-44494380D02*
X96059523Y-44494380D01*
X95726190Y-44875333D01*
X95869047Y-44875333D01*
X95964285Y-44922952D01*
X96011904Y-44970571D01*
X96059523Y-45065809D01*
X96059523Y-45303904D01*
X96011904Y-45399142D01*
X95964285Y-45446761D01*
X95869047Y-45494380D01*
X95583333Y-45494380D01*
X95488095Y-45446761D01*
X95440476Y-45399142D01*
%TO.C,U1*%
X97608095Y-66087380D02*
X97608095Y-66896904D01*
X97655714Y-66992142D01*
X97703333Y-67039761D01*
X97798571Y-67087380D01*
X97989047Y-67087380D01*
X98084285Y-67039761D01*
X98131904Y-66992142D01*
X98179523Y-66896904D01*
X98179523Y-66087380D01*
X99179523Y-67087380D02*
X98608095Y-67087380D01*
X98893809Y-67087380D02*
X98893809Y-66087380D01*
X98798571Y-66230238D01*
X98703333Y-66325476D01*
X98608095Y-66373095D01*
%TD*%
M02*
