G04 #@! TF.GenerationSoftware,KiCad,Pcbnew,6.99.0-unknown-672a8ca39b~146~ubuntu21.04.1*
G04 #@! TF.CreationDate,2022-01-14T10:30:41+00:00*
G04 #@! TF.ProjectId,A500,41353030-2e6b-4696-9361-645f70636258,rev?*
G04 #@! TF.SameCoordinates,Original*
G04 #@! TF.FileFunction,Paste,Top*
G04 #@! TF.FilePolarity,Positive*
%FSLAX46Y46*%
G04 Gerber Fmt 4.6, Leading zero omitted, Abs format (unit mm)*
G04 Created by KiCad (PCBNEW 6.99.0-unknown-672a8ca39b~146~ubuntu21.04.1) date 2022-01-14 10:30:41*
%MOMM*%
%LPD*%
G01*
G04 APERTURE LIST*
G04 Aperture macros list*
%AMRoundRect*
0 Rectangle with rounded corners*
0 $1 Rounding radius*
0 $2 $3 $4 $5 $6 $7 $8 $9 X,Y pos of 4 corners*
0 Add a 4 corners polygon primitive as box body*
4,1,4,$2,$3,$4,$5,$6,$7,$8,$9,$2,$3,0*
0 Add four circle primitives for the rounded corners*
1,1,$1+$1,$2,$3*
1,1,$1+$1,$4,$5*
1,1,$1+$1,$6,$7*
1,1,$1+$1,$8,$9*
0 Add four rect primitives between the rounded corners*
20,1,$1+$1,$2,$3,$4,$5,0*
20,1,$1+$1,$4,$5,$6,$7,0*
20,1,$1+$1,$6,$7,$8,$9,0*
20,1,$1+$1,$8,$9,$2,$3,0*%
%AMRotRect*
0 Rectangle, with rotation*
0 The origin of the aperture is its center*
0 $1 length*
0 $2 width*
0 $3 Rotation angle, in degrees counterclockwise*
0 Add horizontal line*
21,1,$1,$2,0,0,$3*%
G04 Aperture macros list end*
%ADD10RotRect,1.500000X0.550000X315.000000*%
%ADD11RotRect,1.500000X0.550000X225.000000*%
%ADD12RoundRect,0.237500X0.371231X-0.035355X-0.035355X0.371231X-0.371231X0.035355X0.035355X-0.371231X0*%
%ADD13RoundRect,0.237500X-0.287500X-0.237500X0.287500X-0.237500X0.287500X0.237500X-0.287500X0.237500X0*%
%ADD14RoundRect,0.237500X-0.380070X0.044194X0.044194X-0.380070X0.380070X-0.044194X-0.044194X0.380070X0*%
%ADD15RoundRect,0.237500X0.044194X0.380070X-0.380070X-0.044194X-0.044194X-0.380070X0.380070X0.044194X0*%
%ADD16RoundRect,0.237500X0.380070X-0.044194X-0.044194X0.380070X-0.380070X0.044194X0.044194X-0.380070X0*%
G04 APERTURE END LIST*
D10*
G04 #@! TO.C,U3*
X102743936Y-48319082D03*
X102178250Y-48884767D03*
X101612565Y-49450452D03*
X101046880Y-50016138D03*
X100481194Y-50581823D03*
X99915509Y-51147509D03*
X99349823Y-51713194D03*
X98784138Y-52278880D03*
X98218452Y-52844565D03*
X97652767Y-53410250D03*
X97087082Y-53975936D03*
D11*
X94682918Y-53975936D03*
X94117233Y-53410250D03*
X93551548Y-52844565D03*
X92985862Y-52278880D03*
X92420177Y-51713194D03*
X91854491Y-51147509D03*
X91288806Y-50581823D03*
X90723120Y-50016138D03*
X90157435Y-49450452D03*
X89591750Y-48884767D03*
X89026064Y-48319082D03*
D10*
X89026064Y-45914918D03*
X89591750Y-45349233D03*
X90157435Y-44783548D03*
X90723120Y-44217862D03*
X91288806Y-43652177D03*
X91854491Y-43086491D03*
X92420177Y-42520806D03*
X92985862Y-41955120D03*
X93551548Y-41389435D03*
X94117233Y-40823750D03*
X94682918Y-40258064D03*
D11*
X97087082Y-40258064D03*
X97652767Y-40823750D03*
X98218452Y-41389435D03*
X98784138Y-41955120D03*
X99349823Y-42520806D03*
X99915509Y-43086491D03*
X100481194Y-43652177D03*
X101046880Y-44217862D03*
X101612565Y-44783548D03*
X102178250Y-45349233D03*
X102743936Y-45914918D03*
G04 #@! TD*
D12*
G04 #@! TO.C,R2*
X88655118Y-42122318D03*
X87417682Y-40884882D03*
G04 #@! TD*
D13*
G04 #@! TO.C,R1*
X92698600Y-20218400D03*
X94448600Y-20218400D03*
G04 #@! TD*
D14*
G04 #@! TO.C,C3*
X99770919Y-55574919D03*
X100990679Y-56794679D03*
G04 #@! TD*
D15*
G04 #@! TO.C,C2*
X88747880Y-52069720D03*
X87528120Y-53289480D03*
G04 #@! TD*
D16*
G04 #@! TO.C,C1*
X90983080Y-39878280D03*
X89763320Y-38658520D03*
G04 #@! TD*
M02*
