G04 #@! TF.GenerationSoftware,KiCad,Pcbnew,5.1.10-1.fc34*
G04 #@! TF.CreationDate,2021-06-07T07:45:22+01:00*
G04 #@! TF.ProjectId,A500,41353030-2e6b-4696-9361-645f70636258,rev?*
G04 #@! TF.SameCoordinates,Original*
G04 #@! TF.FileFunction,Copper,L2,Bot*
G04 #@! TF.FilePolarity,Positive*
%FSLAX46Y46*%
G04 Gerber Fmt 4.6, Leading zero omitted, Abs format (unit mm)*
G04 Created by KiCad (PCBNEW 5.1.10-1.fc34) date 2021-06-07 07:45:22*
%MOMM*%
%LPD*%
G01*
G04 APERTURE LIST*
G04 #@! TA.AperFunction,ComponentPad*
%ADD10O,2.000000X1.200000*%
G04 #@! TD*
G04 #@! TA.AperFunction,ComponentPad*
%ADD11O,1.700000X1.700000*%
G04 #@! TD*
G04 #@! TA.AperFunction,ComponentPad*
%ADD12R,1.700000X1.700000*%
G04 #@! TD*
G04 #@! TA.AperFunction,ComponentPad*
%ADD13O,1.600000X1.600000*%
G04 #@! TD*
G04 #@! TA.AperFunction,ComponentPad*
%ADD14R,1.600000X1.600000*%
G04 #@! TD*
G04 #@! TA.AperFunction,ViaPad*
%ADD15C,0.800000*%
G04 #@! TD*
G04 #@! TA.AperFunction,ViaPad*
%ADD16C,1.600000*%
G04 #@! TD*
G04 #@! TA.AperFunction,Conductor*
%ADD17C,0.500000*%
G04 #@! TD*
G04 #@! TA.AperFunction,Conductor*
%ADD18C,0.250000*%
G04 #@! TD*
G04 #@! TA.AperFunction,Conductor*
%ADD19C,0.254000*%
G04 #@! TD*
G04 #@! TA.AperFunction,Conductor*
%ADD20C,0.100000*%
G04 #@! TD*
G04 APERTURE END LIST*
G04 #@! TO.P,C1,2*
G04 #@! TO.N,GND*
G04 #@! TA.AperFunction,SMDPad,CuDef*
G36*
G01*
X59039998Y-31634000D02*
X60340002Y-31634000D01*
G75*
G02*
X60590000Y-31883998I0J-249998D01*
G01*
X60590000Y-32709002D01*
G75*
G02*
X60340002Y-32959000I-249998J0D01*
G01*
X59039998Y-32959000D01*
G75*
G02*
X58790000Y-32709002I0J249998D01*
G01*
X58790000Y-31883998D01*
G75*
G02*
X59039998Y-31634000I249998J0D01*
G01*
G37*
G04 #@! TD.AperFunction*
G04 #@! TO.P,C1,1*
G04 #@! TO.N,+3V3*
G04 #@! TA.AperFunction,SMDPad,CuDef*
G36*
G01*
X59039998Y-28509000D02*
X60340002Y-28509000D01*
G75*
G02*
X60590000Y-28758998I0J-249998D01*
G01*
X60590000Y-29584002D01*
G75*
G02*
X60340002Y-29834000I-249998J0D01*
G01*
X59039998Y-29834000D01*
G75*
G02*
X58790000Y-29584002I0J249998D01*
G01*
X58790000Y-28758998D01*
G75*
G02*
X59039998Y-28509000I249998J0D01*
G01*
G37*
G04 #@! TD.AperFunction*
G04 #@! TD*
G04 #@! TO.P,R3,2*
G04 #@! TO.N,GND*
G04 #@! TA.AperFunction,SMDPad,CuDef*
G36*
G01*
X95040000Y-35289500D02*
X95040000Y-34814500D01*
G75*
G02*
X95277500Y-34577000I237500J0D01*
G01*
X95777500Y-34577000D01*
G75*
G02*
X96015000Y-34814500I0J-237500D01*
G01*
X96015000Y-35289500D01*
G75*
G02*
X95777500Y-35527000I-237500J0D01*
G01*
X95277500Y-35527000D01*
G75*
G02*
X95040000Y-35289500I0J237500D01*
G01*
G37*
G04 #@! TD.AperFunction*
G04 #@! TO.P,R3,1*
G04 #@! TO.N,/DETECT*
G04 #@! TA.AperFunction,SMDPad,CuDef*
G36*
G01*
X93215000Y-35289500D02*
X93215000Y-34814500D01*
G75*
G02*
X93452500Y-34577000I237500J0D01*
G01*
X93952500Y-34577000D01*
G75*
G02*
X94190000Y-34814500I0J-237500D01*
G01*
X94190000Y-35289500D01*
G75*
G02*
X93952500Y-35527000I-237500J0D01*
G01*
X93452500Y-35527000D01*
G75*
G02*
X93215000Y-35289500I0J237500D01*
G01*
G37*
G04 #@! TD.AperFunction*
G04 #@! TD*
G04 #@! TO.P,C4,2*
G04 #@! TO.N,GND*
G04 #@! TA.AperFunction,SMDPad,CuDef*
G36*
G01*
X91710500Y-47315000D02*
X92185500Y-47315000D01*
G75*
G02*
X92423000Y-47552500I0J-237500D01*
G01*
X92423000Y-48152500D01*
G75*
G02*
X92185500Y-48390000I-237500J0D01*
G01*
X91710500Y-48390000D01*
G75*
G02*
X91473000Y-48152500I0J237500D01*
G01*
X91473000Y-47552500D01*
G75*
G02*
X91710500Y-47315000I237500J0D01*
G01*
G37*
G04 #@! TD.AperFunction*
G04 #@! TO.P,C4,1*
G04 #@! TO.N,+3V3*
G04 #@! TA.AperFunction,SMDPad,CuDef*
G36*
G01*
X91710500Y-45590000D02*
X92185500Y-45590000D01*
G75*
G02*
X92423000Y-45827500I0J-237500D01*
G01*
X92423000Y-46427500D01*
G75*
G02*
X92185500Y-46665000I-237500J0D01*
G01*
X91710500Y-46665000D01*
G75*
G02*
X91473000Y-46427500I0J237500D01*
G01*
X91473000Y-45827500D01*
G75*
G02*
X91710500Y-45590000I237500J0D01*
G01*
G37*
G04 #@! TD.AperFunction*
G04 #@! TD*
G04 #@! TO.P,C3,2*
G04 #@! TO.N,GND*
G04 #@! TA.AperFunction,SMDPad,CuDef*
G36*
G01*
X85781000Y-35576500D02*
X85781000Y-36051500D01*
G75*
G02*
X85543500Y-36289000I-237500J0D01*
G01*
X84943500Y-36289000D01*
G75*
G02*
X84706000Y-36051500I0J237500D01*
G01*
X84706000Y-35576500D01*
G75*
G02*
X84943500Y-35339000I237500J0D01*
G01*
X85543500Y-35339000D01*
G75*
G02*
X85781000Y-35576500I0J-237500D01*
G01*
G37*
G04 #@! TD.AperFunction*
G04 #@! TO.P,C3,1*
G04 #@! TO.N,+3V3*
G04 #@! TA.AperFunction,SMDPad,CuDef*
G36*
G01*
X87506000Y-35576500D02*
X87506000Y-36051500D01*
G75*
G02*
X87268500Y-36289000I-237500J0D01*
G01*
X86668500Y-36289000D01*
G75*
G02*
X86431000Y-36051500I0J237500D01*
G01*
X86431000Y-35576500D01*
G75*
G02*
X86668500Y-35339000I237500J0D01*
G01*
X87268500Y-35339000D01*
G75*
G02*
X87506000Y-35576500I0J-237500D01*
G01*
G37*
G04 #@! TD.AperFunction*
G04 #@! TD*
D10*
G04 #@! TO.P,U2,24*
G04 #@! TO.N,/B0*
X93472000Y-127406400D03*
G04 #@! TO.P,U2,25*
G04 #@! TO.N,/B1*
X108712000Y-127406400D03*
G04 #@! TO.P,U2,23*
G04 #@! TO.N,/R3*
X93472000Y-124866400D03*
G04 #@! TO.P,U2,26*
G04 #@! TO.N,/B2*
X108712000Y-124866400D03*
G04 #@! TO.P,U2,22*
G04 #@! TO.N,/R2*
X93472000Y-122326400D03*
G04 #@! TO.P,U2,27*
G04 #@! TO.N,/B3*
X108712000Y-122326400D03*
G04 #@! TO.P,U2,21*
G04 #@! TO.N,/R1*
X93472000Y-119786400D03*
G04 #@! TO.P,U2,28*
G04 #@! TO.N,/G0*
X108712000Y-119786400D03*
G04 #@! TO.P,U2,20*
G04 #@! TO.N,/R0*
X93472000Y-117246400D03*
G04 #@! TO.P,U2,29*
G04 #@! TO.N,/G1*
X108712000Y-117246400D03*
G04 #@! TO.P,U2,19*
G04 #@! TO.N,VCC*
X93472000Y-114706400D03*
G04 #@! TO.P,U2,30*
G04 #@! TO.N,/G2*
X108712000Y-114706400D03*
G04 #@! TO.P,U2,18*
G04 #@! TO.N,/BURST*
X93472000Y-112166400D03*
G04 #@! TO.P,U2,31*
G04 #@! TO.N,/G3*
X108712000Y-112166400D03*
G04 #@! TO.P,U2,17*
G04 #@! TO.N,/RGA1*
X93472000Y-109626400D03*
G04 #@! TO.P,U2,32*
G04 #@! TO.N,/HSYNC*
X108712000Y-109626400D03*
G04 #@! TO.P,U2,16*
G04 #@! TO.N,/RGA2*
X93472000Y-107086400D03*
G04 #@! TO.P,U2,33*
G04 #@! TO.N,/ZD*
X108712000Y-107086400D03*
G04 #@! TO.P,U2,15*
G04 #@! TO.N,/RGA3*
X93472000Y-104546400D03*
G04 #@! TO.P,U2,34*
G04 #@! TO.N,/NC*
X108712000Y-104546400D03*
G04 #@! TO.P,U2,14*
G04 #@! TO.N,/RGA4*
X93472000Y-102006400D03*
G04 #@! TO.P,U2,35*
G04 #@! TO.N,/7M*
X108712000Y-102006400D03*
G04 #@! TO.P,U2,13*
G04 #@! TO.N,/RGA5*
X93472000Y-99466400D03*
G04 #@! TO.P,U2,36*
G04 #@! TO.N,/CCK*
X108712000Y-99466400D03*
G04 #@! TO.P,U2,12*
G04 #@! TO.N,/RGA6*
X93472000Y-96926400D03*
G04 #@! TO.P,U2,37*
G04 #@! TO.N,GND*
X108712000Y-96926400D03*
G04 #@! TO.P,U2,11*
G04 #@! TO.N,/RGA7*
X93472000Y-94386400D03*
G04 #@! TO.P,U2,38*
G04 #@! TO.N,/M0V*
X108712000Y-94386400D03*
G04 #@! TO.P,U2,10*
G04 #@! TO.N,/RGA8*
X93472000Y-91846400D03*
G04 #@! TO.P,U2,39*
G04 #@! TO.N,/M1V*
X108712000Y-91846400D03*
G04 #@! TO.P,U2,9*
G04 #@! TO.N,/M0H*
X93472000Y-89306400D03*
G04 #@! TO.P,U2,40*
G04 #@! TO.N,/D15*
X108712000Y-89306400D03*
G04 #@! TO.P,U2,8*
G04 #@! TO.N,/M1H*
X93472000Y-86766400D03*
G04 #@! TO.P,U2,41*
G04 #@! TO.N,/D14*
X108712000Y-86766400D03*
G04 #@! TO.P,U2,7*
G04 #@! TO.N,/D0*
X93472000Y-84226400D03*
G04 #@! TO.P,U2,42*
G04 #@! TO.N,/D13*
X108712000Y-84226400D03*
G04 #@! TO.P,U2,6*
G04 #@! TO.N,/D1*
X93472000Y-81686400D03*
G04 #@! TO.P,U2,43*
G04 #@! TO.N,/D12*
X108712000Y-81686400D03*
G04 #@! TO.P,U2,5*
G04 #@! TO.N,/D2*
X93472000Y-79146400D03*
G04 #@! TO.P,U2,44*
G04 #@! TO.N,/D11*
X108712000Y-79146400D03*
G04 #@! TO.P,U2,4*
G04 #@! TO.N,/D3*
X93472000Y-76606400D03*
G04 #@! TO.P,U2,45*
G04 #@! TO.N,/D10*
X108712000Y-76606400D03*
G04 #@! TO.P,U2,3*
G04 #@! TO.N,/D4*
X93472000Y-74066400D03*
G04 #@! TO.P,U2,46*
G04 #@! TO.N,/D9*
X108712000Y-74066400D03*
G04 #@! TO.P,U2,2*
G04 #@! TO.N,/D5*
X93472000Y-71526400D03*
G04 #@! TO.P,U2,47*
G04 #@! TO.N,/D8*
X108712000Y-71526400D03*
G04 #@! TO.P,U2,1*
G04 #@! TO.N,/D6*
X93472000Y-68986400D03*
G04 #@! TO.P,U2,48*
G04 #@! TO.N,/D7*
X108712000Y-68986400D03*
G04 #@! TD*
G04 #@! TO.P,R2,2*
G04 #@! TO.N,GND*
G04 #@! TA.AperFunction,SMDPad,CuDef*
G36*
G01*
X105073000Y-28939500D02*
X105073000Y-28464500D01*
G75*
G02*
X105310500Y-28227000I237500J0D01*
G01*
X105810500Y-28227000D01*
G75*
G02*
X106048000Y-28464500I0J-237500D01*
G01*
X106048000Y-28939500D01*
G75*
G02*
X105810500Y-29177000I-237500J0D01*
G01*
X105310500Y-29177000D01*
G75*
G02*
X105073000Y-28939500I0J237500D01*
G01*
G37*
G04 #@! TD.AperFunction*
G04 #@! TO.P,R2,1*
G04 #@! TO.N,/GPIO0*
G04 #@! TA.AperFunction,SMDPad,CuDef*
G36*
G01*
X103248000Y-28939500D02*
X103248000Y-28464500D01*
G75*
G02*
X103485500Y-28227000I237500J0D01*
G01*
X103985500Y-28227000D01*
G75*
G02*
X104223000Y-28464500I0J-237500D01*
G01*
X104223000Y-28939500D01*
G75*
G02*
X103985500Y-29177000I-237500J0D01*
G01*
X103485500Y-29177000D01*
G75*
G02*
X103248000Y-28939500I0J237500D01*
G01*
G37*
G04 #@! TD.AperFunction*
G04 #@! TD*
G04 #@! TO.P,R1,2*
G04 #@! TO.N,/GPIO16*
G04 #@! TA.AperFunction,SMDPad,CuDef*
G36*
G01*
X109236500Y-34334000D02*
X109711500Y-34334000D01*
G75*
G02*
X109949000Y-34571500I0J-237500D01*
G01*
X109949000Y-35071500D01*
G75*
G02*
X109711500Y-35309000I-237500J0D01*
G01*
X109236500Y-35309000D01*
G75*
G02*
X108999000Y-35071500I0J237500D01*
G01*
X108999000Y-34571500D01*
G75*
G02*
X109236500Y-34334000I237500J0D01*
G01*
G37*
G04 #@! TD.AperFunction*
G04 #@! TO.P,R1,1*
G04 #@! TO.N,+3V3*
G04 #@! TA.AperFunction,SMDPad,CuDef*
G36*
G01*
X109236500Y-32509000D02*
X109711500Y-32509000D01*
G75*
G02*
X109949000Y-32746500I0J-237500D01*
G01*
X109949000Y-33246500D01*
G75*
G02*
X109711500Y-33484000I-237500J0D01*
G01*
X109236500Y-33484000D01*
G75*
G02*
X108999000Y-33246500I0J237500D01*
G01*
X108999000Y-32746500D01*
G75*
G02*
X109236500Y-32509000I237500J0D01*
G01*
G37*
G04 #@! TD.AperFunction*
G04 #@! TD*
D11*
G04 #@! TO.P,J1,40*
G04 #@! TO.N,/GPIO21*
X107950000Y-25400000D03*
G04 #@! TO.P,J1,39*
G04 #@! TO.N,GND*
X107950000Y-22860000D03*
G04 #@! TO.P,J1,38*
G04 #@! TO.N,/GPIO20*
X105410000Y-25400000D03*
G04 #@! TO.P,J1,37*
G04 #@! TO.N,/GPIO26*
X105410000Y-22860000D03*
G04 #@! TO.P,J1,36*
G04 #@! TO.N,/GPIO16*
X102870000Y-25400000D03*
G04 #@! TO.P,J1,35*
G04 #@! TO.N,/GPIO19*
X102870000Y-22860000D03*
G04 #@! TO.P,J1,34*
G04 #@! TO.N,GND*
X100330000Y-25400000D03*
G04 #@! TO.P,J1,33*
G04 #@! TO.N,/GPIO13*
X100330000Y-22860000D03*
G04 #@! TO.P,J1,32*
G04 #@! TO.N,/GPIO12*
X97790000Y-25400000D03*
G04 #@! TO.P,J1,31*
G04 #@! TO.N,/GPIO6*
X97790000Y-22860000D03*
G04 #@! TO.P,J1,30*
G04 #@! TO.N,GND*
X95250000Y-25400000D03*
G04 #@! TO.P,J1,29*
G04 #@! TO.N,/GPIO5*
X95250000Y-22860000D03*
G04 #@! TO.P,J1,28*
G04 #@! TO.N,/CLKEN*
X92710000Y-25400000D03*
G04 #@! TO.P,J1,27*
G04 #@! TO.N,/GPIO0*
X92710000Y-22860000D03*
G04 #@! TO.P,J1,26*
G04 #@! TO.N,/GPIO7*
X90170000Y-25400000D03*
G04 #@! TO.P,J1,25*
G04 #@! TO.N,GND*
X90170000Y-22860000D03*
G04 #@! TO.P,J1,24*
G04 #@! TO.N,/GPIO8*
X87630000Y-25400000D03*
G04 #@! TO.P,J1,23*
G04 #@! TO.N,/GPIO11*
X87630000Y-22860000D03*
G04 #@! TO.P,J1,22*
G04 #@! TO.N,/GPIO25*
X85090000Y-25400000D03*
G04 #@! TO.P,J1,21*
G04 #@! TO.N,/GPIO9*
X85090000Y-22860000D03*
G04 #@! TO.P,J1,20*
G04 #@! TO.N,GND*
X82550000Y-25400000D03*
G04 #@! TO.P,J1,19*
G04 #@! TO.N,/GPIO10*
X82550000Y-22860000D03*
G04 #@! TO.P,J1,18*
G04 #@! TO.N,/GPIO24*
X80010000Y-25400000D03*
G04 #@! TO.P,J1,17*
G04 #@! TO.N,+3V3*
X80010000Y-22860000D03*
G04 #@! TO.P,J1,16*
G04 #@! TO.N,/GPIO23*
X77470000Y-25400000D03*
G04 #@! TO.P,J1,15*
G04 #@! TO.N,/GPIO22*
X77470000Y-22860000D03*
G04 #@! TO.P,J1,14*
G04 #@! TO.N,GND*
X74930000Y-25400000D03*
G04 #@! TO.P,J1,13*
G04 #@! TO.N,/GPIO27*
X74930000Y-22860000D03*
G04 #@! TO.P,J1,12*
G04 #@! TO.N,/GPIO18*
X72390000Y-25400000D03*
G04 #@! TO.P,J1,11*
G04 #@! TO.N,/GPIO17*
X72390000Y-22860000D03*
G04 #@! TO.P,J1,10*
G04 #@! TO.N,/GPIO15*
X69850000Y-25400000D03*
G04 #@! TO.P,J1,9*
G04 #@! TO.N,GND*
X69850000Y-22860000D03*
G04 #@! TO.P,J1,8*
G04 #@! TO.N,/GPIO14*
X67310000Y-25400000D03*
G04 #@! TO.P,J1,7*
G04 #@! TO.N,/GPIO4*
X67310000Y-22860000D03*
G04 #@! TO.P,J1,6*
G04 #@! TO.N,GND*
X64770000Y-25400000D03*
G04 #@! TO.P,J1,5*
G04 #@! TO.N,/GPIO3*
X64770000Y-22860000D03*
G04 #@! TO.P,J1,4*
G04 #@! TO.N,VCC*
X62230000Y-25400000D03*
G04 #@! TO.P,J1,3*
G04 #@! TO.N,/GPIO2*
X62230000Y-22860000D03*
G04 #@! TO.P,J1,2*
G04 #@! TO.N,VCC*
X59690000Y-25400000D03*
D12*
G04 #@! TO.P,J1,1*
G04 #@! TO.N,+3V3*
X59690000Y-22860000D03*
G04 #@! TD*
D13*
G04 #@! TO.P,U1,48*
G04 #@! TO.N,/D7*
X105990000Y-68965000D03*
G04 #@! TO.P,U1,24*
G04 #@! TO.N,/B0*
X90750000Y-127385000D03*
G04 #@! TO.P,U1,47*
G04 #@! TO.N,/D8*
X105990000Y-71505000D03*
G04 #@! TO.P,U1,23*
G04 #@! TO.N,/R3*
X90750000Y-124845000D03*
G04 #@! TO.P,U1,46*
G04 #@! TO.N,/D9*
X105990000Y-74045000D03*
G04 #@! TO.P,U1,22*
G04 #@! TO.N,/R2*
X90750000Y-122305000D03*
G04 #@! TO.P,U1,45*
G04 #@! TO.N,/D10*
X105990000Y-76585000D03*
G04 #@! TO.P,U1,21*
G04 #@! TO.N,/R1*
X90750000Y-119765000D03*
G04 #@! TO.P,U1,44*
G04 #@! TO.N,/D11*
X105990000Y-79125000D03*
G04 #@! TO.P,U1,20*
G04 #@! TO.N,/R0*
X90750000Y-117225000D03*
G04 #@! TO.P,U1,43*
G04 #@! TO.N,/D12*
X105990000Y-81665000D03*
G04 #@! TO.P,U1,19*
G04 #@! TO.N,VCC*
X90750000Y-114685000D03*
G04 #@! TO.P,U1,42*
G04 #@! TO.N,/D13*
X105990000Y-84205000D03*
G04 #@! TO.P,U1,18*
G04 #@! TO.N,/BURST*
X90750000Y-112145000D03*
G04 #@! TO.P,U1,41*
G04 #@! TO.N,/D14*
X105990000Y-86745000D03*
G04 #@! TO.P,U1,17*
G04 #@! TO.N,/RGA1*
X90750000Y-109605000D03*
G04 #@! TO.P,U1,40*
G04 #@! TO.N,/D15*
X105990000Y-89285000D03*
G04 #@! TO.P,U1,16*
G04 #@! TO.N,/RGA2*
X90750000Y-107065000D03*
G04 #@! TO.P,U1,39*
G04 #@! TO.N,/M1V*
X105990000Y-91825000D03*
G04 #@! TO.P,U1,15*
G04 #@! TO.N,/RGA3*
X90750000Y-104525000D03*
G04 #@! TO.P,U1,38*
G04 #@! TO.N,/M0V*
X105990000Y-94365000D03*
G04 #@! TO.P,U1,14*
G04 #@! TO.N,/RGA4*
X90750000Y-101985000D03*
G04 #@! TO.P,U1,37*
G04 #@! TO.N,GND*
X105990000Y-96905000D03*
G04 #@! TO.P,U1,13*
G04 #@! TO.N,/RGA5*
X90750000Y-99445000D03*
G04 #@! TO.P,U1,36*
G04 #@! TO.N,/CCK*
X105990000Y-99445000D03*
G04 #@! TO.P,U1,12*
G04 #@! TO.N,/RGA6*
X90750000Y-96905000D03*
G04 #@! TO.P,U1,35*
G04 #@! TO.N,/7M*
X105990000Y-101985000D03*
G04 #@! TO.P,U1,11*
G04 #@! TO.N,/RGA7*
X90750000Y-94365000D03*
G04 #@! TO.P,U1,34*
G04 #@! TO.N,/NC*
X105990000Y-104525000D03*
G04 #@! TO.P,U1,10*
G04 #@! TO.N,/RGA8*
X90750000Y-91825000D03*
G04 #@! TO.P,U1,33*
G04 #@! TO.N,/ZD*
X105990000Y-107065000D03*
G04 #@! TO.P,U1,9*
G04 #@! TO.N,/M0H*
X90750000Y-89285000D03*
G04 #@! TO.P,U1,32*
G04 #@! TO.N,/HSYNC*
X105990000Y-109605000D03*
G04 #@! TO.P,U1,8*
G04 #@! TO.N,/M1H*
X90750000Y-86745000D03*
G04 #@! TO.P,U1,31*
G04 #@! TO.N,/G3*
X105990000Y-112145000D03*
G04 #@! TO.P,U1,7*
G04 #@! TO.N,/D0*
X90750000Y-84205000D03*
G04 #@! TO.P,U1,30*
G04 #@! TO.N,/G2*
X105990000Y-114685000D03*
G04 #@! TO.P,U1,6*
G04 #@! TO.N,/D1*
X90750000Y-81665000D03*
G04 #@! TO.P,U1,29*
G04 #@! TO.N,/G1*
X105990000Y-117225000D03*
G04 #@! TO.P,U1,5*
G04 #@! TO.N,/D2*
X90750000Y-79125000D03*
G04 #@! TO.P,U1,28*
G04 #@! TO.N,/G0*
X105990000Y-119765000D03*
G04 #@! TO.P,U1,4*
G04 #@! TO.N,/D3*
X90750000Y-76585000D03*
G04 #@! TO.P,U1,27*
G04 #@! TO.N,/B3*
X105990000Y-122305000D03*
G04 #@! TO.P,U1,3*
G04 #@! TO.N,/D4*
X90750000Y-74045000D03*
G04 #@! TO.P,U1,26*
G04 #@! TO.N,/B2*
X105990000Y-124845000D03*
G04 #@! TO.P,U1,2*
G04 #@! TO.N,/D5*
X90750000Y-71505000D03*
G04 #@! TO.P,U1,25*
G04 #@! TO.N,/B1*
X105990000Y-127385000D03*
D14*
G04 #@! TO.P,U1,1*
G04 #@! TO.N,/D6*
X90750000Y-68965000D03*
G04 #@! TD*
D11*
G04 #@! TO.P,JP1,2*
G04 #@! TO.N,/GPIO16*
X106807000Y-34671000D03*
D12*
G04 #@! TO.P,JP1,1*
G04 #@! TO.N,GND*
X106807000Y-32131000D03*
G04 #@! TD*
G04 #@! TO.P,C2,2*
G04 #@! TO.N,GND*
G04 #@! TA.AperFunction,SMDPad,CuDef*
G36*
G01*
X98115000Y-29193500D02*
X98115000Y-28718500D01*
G75*
G02*
X98352500Y-28481000I237500J0D01*
G01*
X98952500Y-28481000D01*
G75*
G02*
X99190000Y-28718500I0J-237500D01*
G01*
X99190000Y-29193500D01*
G75*
G02*
X98952500Y-29431000I-237500J0D01*
G01*
X98352500Y-29431000D01*
G75*
G02*
X98115000Y-29193500I0J237500D01*
G01*
G37*
G04 #@! TD.AperFunction*
G04 #@! TO.P,C2,1*
G04 #@! TO.N,+3V3*
G04 #@! TA.AperFunction,SMDPad,CuDef*
G36*
G01*
X96390000Y-29193500D02*
X96390000Y-28718500D01*
G75*
G02*
X96627500Y-28481000I237500J0D01*
G01*
X97227500Y-28481000D01*
G75*
G02*
X97465000Y-28718500I0J-237500D01*
G01*
X97465000Y-29193500D01*
G75*
G02*
X97227500Y-29431000I-237500J0D01*
G01*
X96627500Y-29431000D01*
G75*
G02*
X96390000Y-29193500I0J237500D01*
G01*
G37*
G04 #@! TD.AperFunction*
G04 #@! TD*
D15*
G04 #@! TO.N,GND*
X89916000Y-44958000D03*
X93853000Y-29972000D03*
X96139000Y-72009000D03*
D16*
X63500000Y-32258000D03*
D15*
X91186000Y-35179000D03*
X95504000Y-33528000D03*
X96774000Y-67945000D03*
X96901000Y-60706000D03*
X93218000Y-62230000D03*
X100584000Y-60452000D03*
X99314000Y-56388000D03*
X96647000Y-54356000D03*
X107442000Y-52451000D03*
X107696000Y-64135000D03*
X96139000Y-51689000D03*
X108585000Y-49657000D03*
X108458000Y-42799000D03*
X107950000Y-29591000D03*
X78105000Y-28321000D03*
X81915000Y-30861000D03*
X93317148Y-37745668D03*
X84963000Y-35052000D03*
X82931000Y-35052000D03*
X100457000Y-50927000D03*
X96139000Y-46609000D03*
X109728000Y-21209000D03*
X81026000Y-38354000D03*
X81915000Y-33274000D03*
X103378000Y-42926000D03*
X90932000Y-66675000D03*
X87503000Y-37592000D03*
X83566000Y-59817000D03*
X85217000Y-54483000D03*
X99695000Y-128905000D03*
X102870000Y-121920000D03*
X103378000Y-117221000D03*
X103632000Y-112268000D03*
X97917000Y-119507000D03*
X96139000Y-116713000D03*
X91122500Y-37719000D03*
X91059000Y-53784500D03*
X104775000Y-46228000D03*
X86423500Y-49212500D03*
X106172000Y-38417500D03*
G04 #@! TO.N,+3V3*
X87972500Y-32473500D03*
X91948000Y-44958000D03*
X96901000Y-33528000D03*
X91249500Y-36512500D03*
X91884500Y-40259000D03*
G04 #@! TO.N,/GPIO20*
X98552000Y-34544000D03*
X98152001Y-37065001D03*
G04 #@! TO.N,/GPIO18*
X86233000Y-41656000D03*
G04 #@! TO.N,/GPIO13*
X101653000Y-30437938D03*
X102806500Y-41592500D03*
G04 #@! TO.N,/GPIO12*
X102870000Y-39878000D03*
G04 #@! TO.N,/GPIO6*
X100928000Y-29645892D03*
X99060000Y-40767000D03*
G04 #@! TO.N,/GPIO5*
X100203000Y-30353000D03*
X99060000Y-38354000D03*
G04 #@! TO.N,/GPIO0*
X104648000Y-34544000D03*
G04 #@! TO.N,/GPIO7*
X86741000Y-27559000D03*
G04 #@! TO.N,/GPIO8*
X98563670Y-27488429D03*
G04 #@! TO.N,/GPIO23*
X92837000Y-28575000D03*
G04 #@! TO.N,/GPIO17*
X91313000Y-29591000D03*
G04 #@! TO.N,/CLKEN*
X103124000Y-30734000D03*
X102933500Y-37465000D03*
G04 #@! TO.N,/B0*
X86307000Y-43561000D03*
X94527479Y-33899391D03*
X82146808Y-41297192D03*
X88836500Y-42799000D03*
G04 #@! TO.N,/R3*
X87032000Y-40894000D03*
X94742000Y-57277000D03*
G04 #@! TO.N,/R2*
X98806000Y-67945000D03*
X92837000Y-51943000D03*
X92837000Y-54864000D03*
G04 #@! TO.N,/R1*
X101600000Y-53594000D03*
G04 #@! TO.N,/R0*
X84963000Y-37465000D03*
X92038000Y-30480000D03*
G04 #@! TO.N,/G3*
X104013000Y-52705000D03*
X87757000Y-40005000D03*
G04 #@! TO.N,/G2*
X94488000Y-49784000D03*
G04 #@! TO.N,/B2*
X99822000Y-54356000D03*
G04 #@! TO.N,/B1*
X101350653Y-54859347D03*
X101346000Y-107061000D03*
G04 #@! TO.N,/HSYNC*
X87249000Y-30734000D03*
X85344000Y-39116000D03*
X92217997Y-62230000D03*
X104648000Y-66294000D03*
G04 #@! TO.N,/DETECT*
X93599000Y-33528000D03*
G04 #@! TD*
D17*
G04 #@! TO.N,VCC*
X62230000Y-25400000D02*
X59690000Y-25400000D01*
X93468000Y-114685000D02*
X93472000Y-114681000D01*
X90750000Y-114685000D02*
X93468000Y-114685000D01*
X89499999Y-113434999D02*
X90750000Y-114685000D01*
X89499999Y-65206234D02*
X89499999Y-113434999D01*
X82033990Y-42386456D02*
X82033990Y-56817722D01*
X76358544Y-36711010D02*
X82033990Y-42386456D01*
X73541010Y-36711010D02*
X76358544Y-36711010D01*
X62230000Y-25400000D02*
X73541010Y-36711010D01*
X89499999Y-64283731D02*
X82033990Y-56817722D01*
X89499999Y-65206234D02*
X89499999Y-64283731D01*
D18*
G04 #@! TO.N,GND*
X76105001Y-24224999D02*
X74930000Y-25400000D01*
X81374999Y-24224999D02*
X76105001Y-24224999D01*
X82550000Y-25400000D02*
X81374999Y-24224999D01*
X65945001Y-24224999D02*
X64770000Y-25400000D01*
X68485001Y-24224999D02*
X65945001Y-24224999D01*
X69850000Y-22860000D02*
X68485001Y-24224999D01*
X95504000Y-35028500D02*
X95527500Y-35052000D01*
X95504000Y-33528000D02*
X95504000Y-35028500D01*
X96450002Y-35052000D02*
X95527500Y-35052000D01*
X98652500Y-32849502D02*
X96450002Y-35052000D01*
X98652500Y-28956000D02*
X98652500Y-32849502D01*
X99154999Y-24224999D02*
X100330000Y-25400000D01*
X97225999Y-24224999D02*
X99154999Y-24224999D01*
X96050998Y-25400000D02*
X97225999Y-24224999D01*
X95250000Y-25400000D02*
X96050998Y-25400000D01*
X95527500Y-35527000D02*
X95527500Y-35052000D01*
X93312990Y-37741510D02*
X95527500Y-35527000D01*
X93312990Y-46487510D02*
X93312990Y-37741510D01*
X91948000Y-47852500D02*
X93312990Y-46487510D01*
X85243500Y-35332500D02*
X84963000Y-35052000D01*
X85243500Y-35814000D02*
X85243500Y-35332500D01*
X96139000Y-45535998D02*
X96139000Y-46609000D01*
X97499001Y-44175997D02*
X96139000Y-45535998D01*
X97499001Y-39968001D02*
X97499001Y-44175997D01*
X95527500Y-37996500D02*
X97499001Y-39968001D01*
X95527500Y-35052000D02*
X95527500Y-37996500D01*
X89916000Y-45820500D02*
X89916000Y-44958000D01*
X91948000Y-47852500D02*
X89916000Y-45820500D01*
D17*
X81915000Y-30861000D02*
X81915000Y-33274000D01*
X81915000Y-34036000D02*
X82931000Y-35052000D01*
X81915000Y-33274000D02*
X81915000Y-34036000D01*
D18*
X102870000Y-117729000D02*
X103378000Y-117221000D01*
X102870000Y-121920000D02*
X102870000Y-117729000D01*
X103632000Y-116967000D02*
X103378000Y-117221000D01*
X103632000Y-112268000D02*
X103632000Y-116967000D01*
X102340001Y-126259999D02*
X99695000Y-128905000D01*
X110037010Y-125928990D02*
X109706001Y-126259999D01*
X108983762Y-123430001D02*
X110037010Y-124483249D01*
X109706001Y-126259999D02*
X102340001Y-126259999D01*
X104380001Y-123430001D02*
X108983762Y-123430001D01*
X110037010Y-124483249D02*
X110037010Y-125928990D01*
X102870000Y-121920000D02*
X104380001Y-123430001D01*
X91974501Y-36866999D02*
X91122500Y-37719000D01*
X91974501Y-35967501D02*
X91974501Y-36866999D01*
X91186000Y-35179000D02*
X91974501Y-35967501D01*
G04 #@! TO.N,+3V3*
X93410000Y-32473500D02*
X96927500Y-28956000D01*
X60865001Y-21684999D02*
X59690000Y-22860000D01*
X78834999Y-21684999D02*
X60865001Y-21684999D01*
X80010000Y-22860000D02*
X78834999Y-21684999D01*
D17*
X58389999Y-27871499D02*
X59690000Y-29171500D01*
X58389999Y-24160001D02*
X58389999Y-27871499D01*
X59690000Y-22860000D02*
X58389999Y-24160001D01*
D18*
X87972500Y-32473500D02*
X93410000Y-32473500D01*
D17*
X86968500Y-33477500D02*
X87972500Y-32473500D01*
X86968500Y-35814000D02*
X86968500Y-33477500D01*
D18*
X91948000Y-46127500D02*
X91948000Y-44958000D01*
X96927500Y-33501500D02*
X96901000Y-33528000D01*
X96927500Y-28956000D02*
X96927500Y-33501500D01*
X81635011Y-21234989D02*
X80010000Y-22860000D01*
X108700401Y-21234989D02*
X81635011Y-21234989D01*
X109575010Y-22109598D02*
X108700401Y-21234989D01*
X109575010Y-32895490D02*
X109575010Y-22109598D01*
X109474000Y-32996500D02*
X109575010Y-32895490D01*
X90551000Y-35814000D02*
X91249500Y-36512500D01*
X86968500Y-35814000D02*
X90551000Y-35814000D01*
X91948000Y-40322500D02*
X91884500Y-40259000D01*
X91948000Y-44958000D02*
X91948000Y-40322500D01*
G04 #@! TO.N,/GPIO20*
X98552000Y-34544000D02*
X98152001Y-34943999D01*
X98152001Y-34943999D02*
X98152001Y-37065001D01*
G04 #@! TO.N,/GPIO16*
X106703500Y-34821500D02*
X106680000Y-34798000D01*
X109474000Y-34821500D02*
X106703500Y-34821500D01*
G04 #@! TO.N,/GPIO18*
X72390000Y-27813000D02*
X72390000Y-25400000D01*
X86233000Y-41656000D02*
X72390000Y-27813000D01*
G04 #@! TO.N,/GPIO13*
X101653000Y-30437938D02*
X101653000Y-39247002D01*
X101653000Y-40439000D02*
X102806500Y-41592500D01*
X101653000Y-39247002D02*
X101653000Y-40439000D01*
G04 #@! TO.N,/GPIO12*
X103849001Y-38898999D02*
X102870000Y-39878000D01*
X103849001Y-30385999D02*
X103849001Y-38898999D01*
X103472001Y-30008999D02*
X103849001Y-30385999D01*
X103035409Y-30008999D02*
X103472001Y-30008999D01*
X98426410Y-25400000D02*
X103035409Y-30008999D01*
X97790000Y-25400000D02*
X98426410Y-25400000D01*
G04 #@! TO.N,/GPIO6*
X100928000Y-38899000D02*
X99060000Y-40767000D01*
X100928000Y-29645892D02*
X100928000Y-38899000D01*
G04 #@! TO.N,/GPIO5*
X100203000Y-37211000D02*
X99060000Y-38354000D01*
X100203000Y-30353000D02*
X100203000Y-37211000D01*
G04 #@! TO.N,/GPIO0*
X107187012Y-27901990D02*
X104535510Y-27901990D01*
X109125001Y-25964001D02*
X107187012Y-27901990D01*
X109125001Y-22295999D02*
X109125001Y-25964001D01*
X108514001Y-21684999D02*
X109125001Y-22295999D01*
X104535510Y-27901990D02*
X103735500Y-28702000D01*
X93885001Y-21684999D02*
X108514001Y-21684999D01*
X92710000Y-22860000D02*
X93885001Y-21684999D01*
X104648000Y-29614500D02*
X104648000Y-34544000D01*
X103735500Y-28702000D02*
X104648000Y-29614500D01*
G04 #@! TO.N,/GPIO7*
X88994999Y-24224999D02*
X90170000Y-25400000D01*
X87027001Y-24224999D02*
X88994999Y-24224999D01*
X86454999Y-24797001D02*
X87027001Y-24224999D01*
X86454999Y-27272999D02*
X86454999Y-24797001D01*
X86741000Y-27559000D02*
X86454999Y-27272999D01*
G04 #@! TO.N,/GPIO8*
X89718429Y-27488429D02*
X87630000Y-25400000D01*
X98563670Y-27488429D02*
X89718429Y-27488429D01*
G04 #@! TO.N,/GPIO23*
X80645000Y-28575000D02*
X92837000Y-28575000D01*
X77470000Y-25400000D02*
X80645000Y-28575000D01*
G04 #@! TO.N,/GPIO17*
X77381998Y-29591000D02*
X91313000Y-29591000D01*
X73565001Y-25774003D02*
X77381998Y-29591000D01*
X73565001Y-24035001D02*
X73565001Y-25774003D01*
X72390000Y-22860000D02*
X73565001Y-24035001D01*
G04 #@! TO.N,/CLKEN*
X98965001Y-26575001D02*
X103124000Y-30734000D01*
X93885001Y-26575001D02*
X98965001Y-26575001D01*
X92710000Y-25400000D02*
X93885001Y-26575001D01*
X102933500Y-30924500D02*
X103124000Y-30734000D01*
X102933500Y-37465000D02*
X102933500Y-30924500D01*
G04 #@! TO.N,/D7*
X106011400Y-68986400D02*
X105990000Y-68965000D01*
X108712000Y-68986400D02*
X106011400Y-68986400D01*
G04 #@! TO.N,/B0*
X90750000Y-127385000D02*
X93468000Y-127385000D01*
X84410616Y-43561000D02*
X82146808Y-41297192D01*
X86307000Y-43561000D02*
X84410616Y-43561000D01*
X94527479Y-35510031D02*
X94527479Y-33899391D01*
X88836500Y-41201010D02*
X94527479Y-35510031D01*
X88836500Y-42799000D02*
X88836500Y-41201010D01*
G04 #@! TO.N,/D8*
X108690600Y-71505000D02*
X108712000Y-71526400D01*
X105990000Y-71505000D02*
X108690600Y-71505000D01*
G04 #@! TO.N,/R3*
X90750000Y-124845000D02*
X93468000Y-124845000D01*
X94742000Y-52615920D02*
X94742000Y-57277000D01*
X87032000Y-44905920D02*
X94742000Y-52615920D01*
X87032000Y-40894000D02*
X87032000Y-44905920D01*
G04 #@! TO.N,/D9*
X106011400Y-74066400D02*
X105990000Y-74045000D01*
X108712000Y-74066400D02*
X106011400Y-74066400D01*
G04 #@! TO.N,/R2*
X93468000Y-122305000D02*
X93472000Y-122301000D01*
X90750000Y-122305000D02*
X93468000Y-122305000D01*
X96242500Y-122301000D02*
X93472000Y-122301000D01*
X98880010Y-68019010D02*
X98806000Y-67945000D01*
X98550500Y-120561010D02*
X98880010Y-120231500D01*
X97982490Y-120561010D02*
X98550500Y-120561010D01*
X98880010Y-120231500D02*
X98880010Y-68019010D01*
X96242500Y-122301000D02*
X97982490Y-120561010D01*
X92837000Y-54864000D02*
X92837000Y-52324000D01*
X92837000Y-52324000D02*
X92837000Y-51943000D01*
G04 #@! TO.N,/D10*
X108690600Y-76585000D02*
X108712000Y-76606400D01*
X105990000Y-76585000D02*
X108690600Y-76585000D01*
G04 #@! TO.N,/R1*
X93468000Y-119765000D02*
X93472000Y-119761000D01*
X90750000Y-119765000D02*
X93468000Y-119765000D01*
X93472000Y-119761000D02*
X96242500Y-119761000D01*
X99510998Y-53594000D02*
X101600000Y-53594000D01*
X91492996Y-65299235D02*
X91492996Y-61612002D01*
X97055010Y-70861249D02*
X91492996Y-65299235D01*
X91492996Y-61612002D02*
X99510998Y-53594000D01*
X97055010Y-118948490D02*
X97055010Y-70861249D01*
X96242500Y-119761000D02*
X97055010Y-118948490D01*
G04 #@! TO.N,/D11*
X106011400Y-79146400D02*
X105990000Y-79125000D01*
X108712000Y-79146400D02*
X106011400Y-79146400D01*
G04 #@! TO.N,/R0*
X90750000Y-117225000D02*
X93468000Y-117225000D01*
X88892998Y-30480000D02*
X92038000Y-30480000D01*
X86106000Y-33266998D02*
X88892998Y-30480000D01*
X86106000Y-36322000D02*
X86106000Y-33266998D01*
X84963000Y-37465000D02*
X86106000Y-36322000D01*
G04 #@! TO.N,/D12*
X108690600Y-81665000D02*
X108712000Y-81686400D01*
X105990000Y-81665000D02*
X108690600Y-81665000D01*
G04 #@! TO.N,/D13*
X106011400Y-84226400D02*
X105990000Y-84205000D01*
X108712000Y-84226400D02*
X106011400Y-84226400D01*
G04 #@! TO.N,/BURST*
X90771400Y-112166400D02*
X90750000Y-112145000D01*
X93472000Y-112166400D02*
X90771400Y-112166400D01*
G04 #@! TO.N,/D14*
X108690600Y-86745000D02*
X108712000Y-86766400D01*
X105990000Y-86745000D02*
X108690600Y-86745000D01*
G04 #@! TO.N,/RGA1*
X90771400Y-109626400D02*
X90750000Y-109605000D01*
X93472000Y-109626400D02*
X90771400Y-109626400D01*
G04 #@! TO.N,/D15*
X106011400Y-89306400D02*
X105990000Y-89285000D01*
X108712000Y-89306400D02*
X106011400Y-89306400D01*
G04 #@! TO.N,/RGA2*
X93450600Y-107065000D02*
X93472000Y-107086400D01*
X90750000Y-107065000D02*
X93450600Y-107065000D01*
G04 #@! TO.N,/M1V*
X108690600Y-91825000D02*
X108712000Y-91846400D01*
X105990000Y-91825000D02*
X108690600Y-91825000D01*
G04 #@! TO.N,/RGA3*
X90771400Y-104546400D02*
X90750000Y-104525000D01*
X93472000Y-104546400D02*
X90771400Y-104546400D01*
G04 #@! TO.N,/M0V*
X106011400Y-94386400D02*
X105990000Y-94365000D01*
X108712000Y-94386400D02*
X106011400Y-94386400D01*
G04 #@! TO.N,/RGA4*
X93450600Y-101985000D02*
X93472000Y-102006400D01*
X90750000Y-101985000D02*
X93450600Y-101985000D01*
G04 #@! TO.N,/RGA5*
X90771400Y-99466400D02*
X90750000Y-99445000D01*
X93472000Y-99466400D02*
X90771400Y-99466400D01*
G04 #@! TO.N,/CCK*
X106011400Y-99466400D02*
X105990000Y-99445000D01*
X108712000Y-99466400D02*
X106011400Y-99466400D01*
G04 #@! TO.N,/RGA6*
X93450600Y-96905000D02*
X93472000Y-96926400D01*
X90750000Y-96905000D02*
X93450600Y-96905000D01*
G04 #@! TO.N,/7M*
X108690600Y-101985000D02*
X108712000Y-102006400D01*
X105990000Y-101985000D02*
X108690600Y-101985000D01*
G04 #@! TO.N,/RGA7*
X90771400Y-94386400D02*
X90750000Y-94365000D01*
X93472000Y-94386400D02*
X90771400Y-94386400D01*
G04 #@! TO.N,/NC*
X106011400Y-104546400D02*
X105990000Y-104525000D01*
X108712000Y-104546400D02*
X106011400Y-104546400D01*
G04 #@! TO.N,/RGA8*
X93450600Y-91825000D02*
X93472000Y-91846400D01*
X90750000Y-91825000D02*
X93450600Y-91825000D01*
G04 #@! TO.N,/ZD*
X106011400Y-107086400D02*
X105990000Y-107065000D01*
X108712000Y-107086400D02*
X106011400Y-107086400D01*
G04 #@! TO.N,/M0H*
X90771400Y-89306400D02*
X90750000Y-89285000D01*
X93472000Y-89306400D02*
X90771400Y-89306400D01*
G04 #@! TO.N,/M1H*
X93450600Y-86745000D02*
X93472000Y-86766400D01*
X90750000Y-86745000D02*
X93450600Y-86745000D01*
G04 #@! TO.N,/G3*
X105994000Y-112141000D02*
X105990000Y-112145000D01*
X108712000Y-112141000D02*
X105994000Y-112141000D01*
X87757000Y-44994510D02*
X87757000Y-40005000D01*
X95467490Y-52705000D02*
X87757000Y-44994510D01*
X104013000Y-52705000D02*
X95467490Y-52705000D01*
G04 #@! TO.N,/D0*
X90771400Y-84226400D02*
X90750000Y-84205000D01*
X93472000Y-84226400D02*
X90771400Y-84226400D01*
G04 #@! TO.N,/G2*
X105994000Y-114681000D02*
X105990000Y-114685000D01*
X108712000Y-114681000D02*
X105994000Y-114681000D01*
X110037010Y-57656008D02*
X100514002Y-48133000D01*
X110037010Y-113381390D02*
X110037010Y-57656008D01*
X108712000Y-114706400D02*
X110037010Y-113381390D01*
X96139000Y-48133000D02*
X94488000Y-49784000D01*
X100514002Y-48133000D02*
X96139000Y-48133000D01*
G04 #@! TO.N,/D1*
X93450600Y-81665000D02*
X93472000Y-81686400D01*
X90750000Y-81665000D02*
X93450600Y-81665000D01*
G04 #@! TO.N,/G1*
X105994000Y-117221000D02*
X105990000Y-117225000D01*
X108712000Y-117221000D02*
X105994000Y-117221000D01*
G04 #@! TO.N,/D2*
X90771400Y-79146400D02*
X90750000Y-79125000D01*
X93472000Y-79146400D02*
X90771400Y-79146400D01*
G04 #@! TO.N,/G0*
X105994000Y-119761000D02*
X105990000Y-119765000D01*
X108712000Y-119761000D02*
X105994000Y-119761000D01*
G04 #@! TO.N,/D3*
X93450600Y-76585000D02*
X93472000Y-76606400D01*
X90750000Y-76585000D02*
X93450600Y-76585000D01*
G04 #@! TO.N,/B3*
X105994000Y-122301000D02*
X105990000Y-122305000D01*
X108712000Y-122301000D02*
X105994000Y-122301000D01*
G04 #@! TO.N,/D4*
X90771400Y-74066400D02*
X90750000Y-74045000D01*
X93472000Y-74066400D02*
X90771400Y-74066400D01*
G04 #@! TO.N,/B2*
X105994000Y-124841000D02*
X105990000Y-124845000D01*
X108712000Y-124841000D02*
X105994000Y-124841000D01*
X103151500Y-124845000D02*
X103147500Y-124841000D01*
X105990000Y-124845000D02*
X103151500Y-124845000D01*
X102347490Y-124040990D02*
X103147500Y-124841000D01*
X100839500Y-124040990D02*
X102347490Y-124040990D01*
X100509990Y-123711480D02*
X100839500Y-124040990D01*
X100509990Y-71505012D02*
X100509990Y-123711480D01*
X105373001Y-66642001D02*
X100509990Y-71505012D01*
X105373001Y-59907001D02*
X105373001Y-66642001D01*
X99822000Y-54356000D02*
X105373001Y-59907001D01*
G04 #@! TO.N,/D5*
X93450600Y-71505000D02*
X93472000Y-71526400D01*
X90750000Y-71505000D02*
X93450600Y-71505000D01*
G04 #@! TO.N,/B1*
X105994000Y-127381000D02*
X105990000Y-127385000D01*
X108712000Y-127381000D02*
X105994000Y-127381000D01*
X101346000Y-71305412D02*
X101346000Y-107061000D01*
X105823010Y-66828402D02*
X101346000Y-71305412D01*
X105823010Y-59331704D02*
X105823010Y-66828402D01*
X101350653Y-54859347D02*
X105823010Y-59331704D01*
G04 #@! TO.N,/D6*
X90771400Y-68986400D02*
X90750000Y-68965000D01*
X93472000Y-68986400D02*
X90771400Y-68986400D01*
G04 #@! TO.N,/HSYNC*
X105994000Y-109601000D02*
X105990000Y-109605000D01*
X108712000Y-109601000D02*
X105994000Y-109601000D01*
X84237999Y-33745001D02*
X87249000Y-30734000D01*
X84237999Y-38009999D02*
X85344000Y-39116000D01*
X84237999Y-33745001D02*
X84237999Y-38009999D01*
X93704500Y-66294000D02*
X92217997Y-64807497D01*
X92217997Y-64807497D02*
X92217997Y-62230000D01*
X104648000Y-66294000D02*
X93704500Y-66294000D01*
G04 #@! TO.N,/DETECT*
X93599000Y-34948500D02*
X93702500Y-35052000D01*
X93599000Y-33528000D02*
X93599000Y-34948500D01*
G04 #@! TD*
D19*
G04 #@! TO.N,GND*
X88615000Y-64650311D02*
X88614999Y-65162757D01*
X88614999Y-65162758D01*
X88615000Y-113391520D01*
X88610718Y-113434999D01*
X88627804Y-113608489D01*
X88678411Y-113775312D01*
X88760589Y-113929058D01*
X88843467Y-114030045D01*
X88843470Y-114030048D01*
X88871183Y-114063816D01*
X88904950Y-114091528D01*
X89321983Y-114508561D01*
X89315000Y-114543665D01*
X89315000Y-114826335D01*
X89370147Y-115103574D01*
X89478320Y-115364727D01*
X89635363Y-115599759D01*
X89835241Y-115799637D01*
X90067759Y-115955000D01*
X89835241Y-116110363D01*
X89635363Y-116310241D01*
X89478320Y-116545273D01*
X89370147Y-116806426D01*
X89315000Y-117083665D01*
X89315000Y-117366335D01*
X89370147Y-117643574D01*
X89478320Y-117904727D01*
X89635363Y-118139759D01*
X89835241Y-118339637D01*
X90067759Y-118495000D01*
X89835241Y-118650363D01*
X89635363Y-118850241D01*
X89478320Y-119085273D01*
X89370147Y-119346426D01*
X89315000Y-119623665D01*
X89315000Y-119906335D01*
X89370147Y-120183574D01*
X89478320Y-120444727D01*
X89635363Y-120679759D01*
X89835241Y-120879637D01*
X90067759Y-121035000D01*
X89835241Y-121190363D01*
X89635363Y-121390241D01*
X89478320Y-121625273D01*
X89370147Y-121886426D01*
X89315000Y-122163665D01*
X89315000Y-122446335D01*
X89370147Y-122723574D01*
X89478320Y-122984727D01*
X89635363Y-123219759D01*
X89835241Y-123419637D01*
X90067759Y-123575000D01*
X89835241Y-123730363D01*
X89635363Y-123930241D01*
X89478320Y-124165273D01*
X89370147Y-124426426D01*
X89315000Y-124703665D01*
X89315000Y-124986335D01*
X89370147Y-125263574D01*
X89478320Y-125524727D01*
X89635363Y-125759759D01*
X89835241Y-125959637D01*
X90067759Y-126115000D01*
X89835241Y-126270363D01*
X89635363Y-126470241D01*
X89478320Y-126705273D01*
X89370147Y-126966426D01*
X89315000Y-127243665D01*
X89315000Y-127526335D01*
X89370147Y-127803574D01*
X89478320Y-128064727D01*
X89635363Y-128299759D01*
X89835241Y-128499637D01*
X90070273Y-128656680D01*
X90331426Y-128764853D01*
X90608665Y-128820000D01*
X90891335Y-128820000D01*
X91168574Y-128764853D01*
X91429727Y-128656680D01*
X91664759Y-128499637D01*
X91864637Y-128299759D01*
X91968043Y-128145000D01*
X92080504Y-128145000D01*
X92194498Y-128283902D01*
X92382551Y-128438233D01*
X92597099Y-128552911D01*
X92829898Y-128623530D01*
X93011335Y-128641400D01*
X93932665Y-128641400D01*
X94114102Y-128623530D01*
X94346901Y-128552911D01*
X94561449Y-128438233D01*
X94749502Y-128283902D01*
X94903833Y-128095849D01*
X95018511Y-127881301D01*
X95089130Y-127648502D01*
X95112975Y-127406400D01*
X95089130Y-127164298D01*
X95018511Y-126931499D01*
X94903833Y-126716951D01*
X94749502Y-126528898D01*
X94561449Y-126374567D01*
X94346901Y-126259889D01*
X94114102Y-126189270D01*
X93932665Y-126171400D01*
X93011335Y-126171400D01*
X92829898Y-126189270D01*
X92597099Y-126259889D01*
X92382551Y-126374567D01*
X92194498Y-126528898D01*
X92115629Y-126625000D01*
X91968043Y-126625000D01*
X91864637Y-126470241D01*
X91664759Y-126270363D01*
X91432241Y-126115000D01*
X91664759Y-125959637D01*
X91864637Y-125759759D01*
X91968043Y-125605000D01*
X92080504Y-125605000D01*
X92194498Y-125743902D01*
X92382551Y-125898233D01*
X92597099Y-126012911D01*
X92829898Y-126083530D01*
X93011335Y-126101400D01*
X93932665Y-126101400D01*
X94114102Y-126083530D01*
X94346901Y-126012911D01*
X94561449Y-125898233D01*
X94749502Y-125743902D01*
X94903833Y-125555849D01*
X95018511Y-125341301D01*
X95089130Y-125108502D01*
X95112975Y-124866400D01*
X95089130Y-124624298D01*
X95018511Y-124391499D01*
X94903833Y-124176951D01*
X94749502Y-123988898D01*
X94561449Y-123834567D01*
X94346901Y-123719889D01*
X94114102Y-123649270D01*
X93932665Y-123631400D01*
X93011335Y-123631400D01*
X92829898Y-123649270D01*
X92597099Y-123719889D01*
X92382551Y-123834567D01*
X92194498Y-123988898D01*
X92115629Y-124085000D01*
X91968043Y-124085000D01*
X91864637Y-123930241D01*
X91664759Y-123730363D01*
X91432241Y-123575000D01*
X91664759Y-123419637D01*
X91864637Y-123219759D01*
X91968043Y-123065000D01*
X92080504Y-123065000D01*
X92194498Y-123203902D01*
X92382551Y-123358233D01*
X92597099Y-123472911D01*
X92829898Y-123543530D01*
X93011335Y-123561400D01*
X93932665Y-123561400D01*
X94114102Y-123543530D01*
X94346901Y-123472911D01*
X94561449Y-123358233D01*
X94749502Y-123203902D01*
X94866779Y-123061000D01*
X96205178Y-123061000D01*
X96242500Y-123064676D01*
X96279822Y-123061000D01*
X96279833Y-123061000D01*
X96391486Y-123050003D01*
X96534747Y-123006546D01*
X96666776Y-122935974D01*
X96782501Y-122841001D01*
X96806303Y-122811998D01*
X98297293Y-121321010D01*
X98513178Y-121321010D01*
X98550500Y-121324686D01*
X98587822Y-121321010D01*
X98587833Y-121321010D01*
X98699486Y-121310013D01*
X98842747Y-121266556D01*
X98974776Y-121195984D01*
X99090501Y-121101011D01*
X99114304Y-121072007D01*
X99391008Y-120795303D01*
X99420011Y-120771501D01*
X99514984Y-120655776D01*
X99585556Y-120523747D01*
X99629013Y-120380486D01*
X99640010Y-120268833D01*
X99640010Y-120268832D01*
X99643687Y-120231500D01*
X99640010Y-120194167D01*
X99640010Y-68559766D01*
X99723205Y-68435256D01*
X99801226Y-68246898D01*
X99841000Y-68046939D01*
X99841000Y-67843061D01*
X99801226Y-67643102D01*
X99723205Y-67454744D01*
X99609937Y-67285226D01*
X99465774Y-67141063D01*
X99335475Y-67054000D01*
X103886200Y-67054000D01*
X99998993Y-70941208D01*
X99969989Y-70965011D01*
X99930470Y-71013166D01*
X99875016Y-71080736D01*
X99871975Y-71086426D01*
X99804444Y-71212766D01*
X99760987Y-71356027D01*
X99749990Y-71467680D01*
X99749990Y-71467690D01*
X99746314Y-71505012D01*
X99749990Y-71542334D01*
X99749991Y-123674147D01*
X99746314Y-123711480D01*
X99760988Y-123860465D01*
X99804444Y-124003726D01*
X99875016Y-124135756D01*
X99919513Y-124189975D01*
X99969990Y-124251481D01*
X99998988Y-124275279D01*
X100275696Y-124551987D01*
X100299499Y-124580991D01*
X100415224Y-124675964D01*
X100547253Y-124746536D01*
X100690514Y-124789993D01*
X100839500Y-124804667D01*
X100876833Y-124800990D01*
X102032689Y-124800990D01*
X102587701Y-125356003D01*
X102611499Y-125385001D01*
X102727224Y-125479974D01*
X102859253Y-125550546D01*
X103002514Y-125594003D01*
X103114167Y-125605000D01*
X103114178Y-125605000D01*
X103151500Y-125608676D01*
X103188823Y-125605000D01*
X104771957Y-125605000D01*
X104875363Y-125759759D01*
X105075241Y-125959637D01*
X105307759Y-126115000D01*
X105075241Y-126270363D01*
X104875363Y-126470241D01*
X104718320Y-126705273D01*
X104610147Y-126966426D01*
X104555000Y-127243665D01*
X104555000Y-127526335D01*
X104610147Y-127803574D01*
X104718320Y-128064727D01*
X104875363Y-128299759D01*
X105075241Y-128499637D01*
X105310273Y-128656680D01*
X105571426Y-128764853D01*
X105848665Y-128820000D01*
X106131335Y-128820000D01*
X106408574Y-128764853D01*
X106669727Y-128656680D01*
X106904759Y-128499637D01*
X107104637Y-128299759D01*
X107210716Y-128141000D01*
X107317221Y-128141000D01*
X107434498Y-128283902D01*
X107622551Y-128438233D01*
X107837099Y-128552911D01*
X108069898Y-128623530D01*
X108251335Y-128641400D01*
X109172665Y-128641400D01*
X109354102Y-128623530D01*
X109586901Y-128552911D01*
X109663991Y-128511705D01*
X109661161Y-128517028D01*
X109351323Y-128896927D01*
X108973600Y-129209406D01*
X108542373Y-129442569D01*
X108074073Y-129587532D01*
X107555847Y-129642000D01*
X90837278Y-129642000D01*
X90317117Y-129590998D01*
X89847814Y-129449307D01*
X89414972Y-129219161D01*
X89035073Y-128909323D01*
X88722594Y-128531600D01*
X88489431Y-128100373D01*
X88344468Y-127632073D01*
X88290000Y-127113847D01*
X88290000Y-67150581D01*
X88287069Y-67120818D01*
X88287207Y-67101016D01*
X88286307Y-67091845D01*
X88221535Y-66475588D01*
X88209516Y-66417037D01*
X88198299Y-66358234D01*
X88195635Y-66349412D01*
X88012400Y-65757472D01*
X87989232Y-65702359D01*
X87966810Y-65646861D01*
X87962483Y-65638725D01*
X87667762Y-65093650D01*
X87634291Y-65044028D01*
X87601558Y-64994005D01*
X87595733Y-64986864D01*
X87595732Y-64986862D01*
X87595728Y-64986858D01*
X87200753Y-64509414D01*
X87158336Y-64467292D01*
X87116454Y-64424523D01*
X87109353Y-64418650D01*
X86629157Y-64027011D01*
X86579356Y-63993924D01*
X86529976Y-63960112D01*
X86521870Y-63955730D01*
X85974749Y-63664821D01*
X85919455Y-63642030D01*
X85864462Y-63618460D01*
X85855659Y-63615735D01*
X85262455Y-63436636D01*
X85203784Y-63425019D01*
X85145263Y-63412580D01*
X85136098Y-63411617D01*
X84519404Y-63351150D01*
X84519402Y-63351150D01*
X84487419Y-63348000D01*
X84233278Y-63348000D01*
X83713117Y-63296998D01*
X83243814Y-63155307D01*
X82810972Y-62925161D01*
X82431073Y-62615323D01*
X82118594Y-62237600D01*
X81885431Y-61806373D01*
X81740468Y-61338073D01*
X81686000Y-60819847D01*
X81686000Y-57721310D01*
X88615000Y-64650311D01*
G04 #@! TA.AperFunction,Conductor*
D20*
G36*
X88615000Y-64650311D02*
G01*
X88614999Y-65162757D01*
X88614999Y-65162758D01*
X88615000Y-113391520D01*
X88610718Y-113434999D01*
X88627804Y-113608489D01*
X88678411Y-113775312D01*
X88760589Y-113929058D01*
X88843467Y-114030045D01*
X88843470Y-114030048D01*
X88871183Y-114063816D01*
X88904950Y-114091528D01*
X89321983Y-114508561D01*
X89315000Y-114543665D01*
X89315000Y-114826335D01*
X89370147Y-115103574D01*
X89478320Y-115364727D01*
X89635363Y-115599759D01*
X89835241Y-115799637D01*
X90067759Y-115955000D01*
X89835241Y-116110363D01*
X89635363Y-116310241D01*
X89478320Y-116545273D01*
X89370147Y-116806426D01*
X89315000Y-117083665D01*
X89315000Y-117366335D01*
X89370147Y-117643574D01*
X89478320Y-117904727D01*
X89635363Y-118139759D01*
X89835241Y-118339637D01*
X90067759Y-118495000D01*
X89835241Y-118650363D01*
X89635363Y-118850241D01*
X89478320Y-119085273D01*
X89370147Y-119346426D01*
X89315000Y-119623665D01*
X89315000Y-119906335D01*
X89370147Y-120183574D01*
X89478320Y-120444727D01*
X89635363Y-120679759D01*
X89835241Y-120879637D01*
X90067759Y-121035000D01*
X89835241Y-121190363D01*
X89635363Y-121390241D01*
X89478320Y-121625273D01*
X89370147Y-121886426D01*
X89315000Y-122163665D01*
X89315000Y-122446335D01*
X89370147Y-122723574D01*
X89478320Y-122984727D01*
X89635363Y-123219759D01*
X89835241Y-123419637D01*
X90067759Y-123575000D01*
X89835241Y-123730363D01*
X89635363Y-123930241D01*
X89478320Y-124165273D01*
X89370147Y-124426426D01*
X89315000Y-124703665D01*
X89315000Y-124986335D01*
X89370147Y-125263574D01*
X89478320Y-125524727D01*
X89635363Y-125759759D01*
X89835241Y-125959637D01*
X90067759Y-126115000D01*
X89835241Y-126270363D01*
X89635363Y-126470241D01*
X89478320Y-126705273D01*
X89370147Y-126966426D01*
X89315000Y-127243665D01*
X89315000Y-127526335D01*
X89370147Y-127803574D01*
X89478320Y-128064727D01*
X89635363Y-128299759D01*
X89835241Y-128499637D01*
X90070273Y-128656680D01*
X90331426Y-128764853D01*
X90608665Y-128820000D01*
X90891335Y-128820000D01*
X91168574Y-128764853D01*
X91429727Y-128656680D01*
X91664759Y-128499637D01*
X91864637Y-128299759D01*
X91968043Y-128145000D01*
X92080504Y-128145000D01*
X92194498Y-128283902D01*
X92382551Y-128438233D01*
X92597099Y-128552911D01*
X92829898Y-128623530D01*
X93011335Y-128641400D01*
X93932665Y-128641400D01*
X94114102Y-128623530D01*
X94346901Y-128552911D01*
X94561449Y-128438233D01*
X94749502Y-128283902D01*
X94903833Y-128095849D01*
X95018511Y-127881301D01*
X95089130Y-127648502D01*
X95112975Y-127406400D01*
X95089130Y-127164298D01*
X95018511Y-126931499D01*
X94903833Y-126716951D01*
X94749502Y-126528898D01*
X94561449Y-126374567D01*
X94346901Y-126259889D01*
X94114102Y-126189270D01*
X93932665Y-126171400D01*
X93011335Y-126171400D01*
X92829898Y-126189270D01*
X92597099Y-126259889D01*
X92382551Y-126374567D01*
X92194498Y-126528898D01*
X92115629Y-126625000D01*
X91968043Y-126625000D01*
X91864637Y-126470241D01*
X91664759Y-126270363D01*
X91432241Y-126115000D01*
X91664759Y-125959637D01*
X91864637Y-125759759D01*
X91968043Y-125605000D01*
X92080504Y-125605000D01*
X92194498Y-125743902D01*
X92382551Y-125898233D01*
X92597099Y-126012911D01*
X92829898Y-126083530D01*
X93011335Y-126101400D01*
X93932665Y-126101400D01*
X94114102Y-126083530D01*
X94346901Y-126012911D01*
X94561449Y-125898233D01*
X94749502Y-125743902D01*
X94903833Y-125555849D01*
X95018511Y-125341301D01*
X95089130Y-125108502D01*
X95112975Y-124866400D01*
X95089130Y-124624298D01*
X95018511Y-124391499D01*
X94903833Y-124176951D01*
X94749502Y-123988898D01*
X94561449Y-123834567D01*
X94346901Y-123719889D01*
X94114102Y-123649270D01*
X93932665Y-123631400D01*
X93011335Y-123631400D01*
X92829898Y-123649270D01*
X92597099Y-123719889D01*
X92382551Y-123834567D01*
X92194498Y-123988898D01*
X92115629Y-124085000D01*
X91968043Y-124085000D01*
X91864637Y-123930241D01*
X91664759Y-123730363D01*
X91432241Y-123575000D01*
X91664759Y-123419637D01*
X91864637Y-123219759D01*
X91968043Y-123065000D01*
X92080504Y-123065000D01*
X92194498Y-123203902D01*
X92382551Y-123358233D01*
X92597099Y-123472911D01*
X92829898Y-123543530D01*
X93011335Y-123561400D01*
X93932665Y-123561400D01*
X94114102Y-123543530D01*
X94346901Y-123472911D01*
X94561449Y-123358233D01*
X94749502Y-123203902D01*
X94866779Y-123061000D01*
X96205178Y-123061000D01*
X96242500Y-123064676D01*
X96279822Y-123061000D01*
X96279833Y-123061000D01*
X96391486Y-123050003D01*
X96534747Y-123006546D01*
X96666776Y-122935974D01*
X96782501Y-122841001D01*
X96806303Y-122811998D01*
X98297293Y-121321010D01*
X98513178Y-121321010D01*
X98550500Y-121324686D01*
X98587822Y-121321010D01*
X98587833Y-121321010D01*
X98699486Y-121310013D01*
X98842747Y-121266556D01*
X98974776Y-121195984D01*
X99090501Y-121101011D01*
X99114304Y-121072007D01*
X99391008Y-120795303D01*
X99420011Y-120771501D01*
X99514984Y-120655776D01*
X99585556Y-120523747D01*
X99629013Y-120380486D01*
X99640010Y-120268833D01*
X99640010Y-120268832D01*
X99643687Y-120231500D01*
X99640010Y-120194167D01*
X99640010Y-68559766D01*
X99723205Y-68435256D01*
X99801226Y-68246898D01*
X99841000Y-68046939D01*
X99841000Y-67843061D01*
X99801226Y-67643102D01*
X99723205Y-67454744D01*
X99609937Y-67285226D01*
X99465774Y-67141063D01*
X99335475Y-67054000D01*
X103886200Y-67054000D01*
X99998993Y-70941208D01*
X99969989Y-70965011D01*
X99930470Y-71013166D01*
X99875016Y-71080736D01*
X99871975Y-71086426D01*
X99804444Y-71212766D01*
X99760987Y-71356027D01*
X99749990Y-71467680D01*
X99749990Y-71467690D01*
X99746314Y-71505012D01*
X99749990Y-71542334D01*
X99749991Y-123674147D01*
X99746314Y-123711480D01*
X99760988Y-123860465D01*
X99804444Y-124003726D01*
X99875016Y-124135756D01*
X99919513Y-124189975D01*
X99969990Y-124251481D01*
X99998988Y-124275279D01*
X100275696Y-124551987D01*
X100299499Y-124580991D01*
X100415224Y-124675964D01*
X100547253Y-124746536D01*
X100690514Y-124789993D01*
X100839500Y-124804667D01*
X100876833Y-124800990D01*
X102032689Y-124800990D01*
X102587701Y-125356003D01*
X102611499Y-125385001D01*
X102727224Y-125479974D01*
X102859253Y-125550546D01*
X103002514Y-125594003D01*
X103114167Y-125605000D01*
X103114178Y-125605000D01*
X103151500Y-125608676D01*
X103188823Y-125605000D01*
X104771957Y-125605000D01*
X104875363Y-125759759D01*
X105075241Y-125959637D01*
X105307759Y-126115000D01*
X105075241Y-126270363D01*
X104875363Y-126470241D01*
X104718320Y-126705273D01*
X104610147Y-126966426D01*
X104555000Y-127243665D01*
X104555000Y-127526335D01*
X104610147Y-127803574D01*
X104718320Y-128064727D01*
X104875363Y-128299759D01*
X105075241Y-128499637D01*
X105310273Y-128656680D01*
X105571426Y-128764853D01*
X105848665Y-128820000D01*
X106131335Y-128820000D01*
X106408574Y-128764853D01*
X106669727Y-128656680D01*
X106904759Y-128499637D01*
X107104637Y-128299759D01*
X107210716Y-128141000D01*
X107317221Y-128141000D01*
X107434498Y-128283902D01*
X107622551Y-128438233D01*
X107837099Y-128552911D01*
X108069898Y-128623530D01*
X108251335Y-128641400D01*
X109172665Y-128641400D01*
X109354102Y-128623530D01*
X109586901Y-128552911D01*
X109663991Y-128511705D01*
X109661161Y-128517028D01*
X109351323Y-128896927D01*
X108973600Y-129209406D01*
X108542373Y-129442569D01*
X108074073Y-129587532D01*
X107555847Y-129642000D01*
X90837278Y-129642000D01*
X90317117Y-129590998D01*
X89847814Y-129449307D01*
X89414972Y-129219161D01*
X89035073Y-128909323D01*
X88722594Y-128531600D01*
X88489431Y-128100373D01*
X88344468Y-127632073D01*
X88290000Y-127113847D01*
X88290000Y-67150581D01*
X88287069Y-67120818D01*
X88287207Y-67101016D01*
X88286307Y-67091845D01*
X88221535Y-66475588D01*
X88209516Y-66417037D01*
X88198299Y-66358234D01*
X88195635Y-66349412D01*
X88012400Y-65757472D01*
X87989232Y-65702359D01*
X87966810Y-65646861D01*
X87962483Y-65638725D01*
X87667762Y-65093650D01*
X87634291Y-65044028D01*
X87601558Y-64994005D01*
X87595733Y-64986864D01*
X87595732Y-64986862D01*
X87595728Y-64986858D01*
X87200753Y-64509414D01*
X87158336Y-64467292D01*
X87116454Y-64424523D01*
X87109353Y-64418650D01*
X86629157Y-64027011D01*
X86579356Y-63993924D01*
X86529976Y-63960112D01*
X86521870Y-63955730D01*
X85974749Y-63664821D01*
X85919455Y-63642030D01*
X85864462Y-63618460D01*
X85855659Y-63615735D01*
X85262455Y-63436636D01*
X85203784Y-63425019D01*
X85145263Y-63412580D01*
X85136098Y-63411617D01*
X84519404Y-63351150D01*
X84519402Y-63351150D01*
X84487419Y-63348000D01*
X84233278Y-63348000D01*
X83713117Y-63296998D01*
X83243814Y-63155307D01*
X82810972Y-62925161D01*
X82431073Y-62615323D01*
X82118594Y-62237600D01*
X81885431Y-61806373D01*
X81740468Y-61338073D01*
X81686000Y-60819847D01*
X81686000Y-57721310D01*
X88615000Y-64650311D01*
G37*
G04 #@! TD.AperFunction*
D19*
X107434498Y-125743902D02*
X107622551Y-125898233D01*
X107837099Y-126012911D01*
X108069898Y-126083530D01*
X108251335Y-126101400D01*
X109172665Y-126101400D01*
X109354102Y-126083530D01*
X109586901Y-126012911D01*
X109801449Y-125898233D01*
X109989502Y-125743902D01*
X110084001Y-125628755D01*
X110084001Y-126644045D01*
X109989502Y-126528898D01*
X109801449Y-126374567D01*
X109586901Y-126259889D01*
X109354102Y-126189270D01*
X109172665Y-126171400D01*
X108251335Y-126171400D01*
X108069898Y-126189270D01*
X107837099Y-126259889D01*
X107622551Y-126374567D01*
X107434498Y-126528898D01*
X107358912Y-126621000D01*
X107205371Y-126621000D01*
X107104637Y-126470241D01*
X106904759Y-126270363D01*
X106672241Y-126115000D01*
X106904759Y-125959637D01*
X107104637Y-125759759D01*
X107210716Y-125601000D01*
X107317221Y-125601000D01*
X107434498Y-125743902D01*
G04 #@! TA.AperFunction,Conductor*
D20*
G36*
X107434498Y-125743902D02*
G01*
X107622551Y-125898233D01*
X107837099Y-126012911D01*
X108069898Y-126083530D01*
X108251335Y-126101400D01*
X109172665Y-126101400D01*
X109354102Y-126083530D01*
X109586901Y-126012911D01*
X109801449Y-125898233D01*
X109989502Y-125743902D01*
X110084001Y-125628755D01*
X110084001Y-126644045D01*
X109989502Y-126528898D01*
X109801449Y-126374567D01*
X109586901Y-126259889D01*
X109354102Y-126189270D01*
X109172665Y-126171400D01*
X108251335Y-126171400D01*
X108069898Y-126189270D01*
X107837099Y-126259889D01*
X107622551Y-126374567D01*
X107434498Y-126528898D01*
X107358912Y-126621000D01*
X107205371Y-126621000D01*
X107104637Y-126470241D01*
X106904759Y-126270363D01*
X106672241Y-126115000D01*
X106904759Y-125959637D01*
X107104637Y-125759759D01*
X107210716Y-125601000D01*
X107317221Y-125601000D01*
X107434498Y-125743902D01*
G37*
G04 #@! TD.AperFunction*
D19*
X104610147Y-69383574D02*
X104718320Y-69644727D01*
X104875363Y-69879759D01*
X105075241Y-70079637D01*
X105307759Y-70235000D01*
X105075241Y-70390363D01*
X104875363Y-70590241D01*
X104718320Y-70825273D01*
X104610147Y-71086426D01*
X104555000Y-71363665D01*
X104555000Y-71646335D01*
X104610147Y-71923574D01*
X104718320Y-72184727D01*
X104875363Y-72419759D01*
X105075241Y-72619637D01*
X105307759Y-72775000D01*
X105075241Y-72930363D01*
X104875363Y-73130241D01*
X104718320Y-73365273D01*
X104610147Y-73626426D01*
X104555000Y-73903665D01*
X104555000Y-74186335D01*
X104610147Y-74463574D01*
X104718320Y-74724727D01*
X104875363Y-74959759D01*
X105075241Y-75159637D01*
X105307759Y-75315000D01*
X105075241Y-75470363D01*
X104875363Y-75670241D01*
X104718320Y-75905273D01*
X104610147Y-76166426D01*
X104555000Y-76443665D01*
X104555000Y-76726335D01*
X104610147Y-77003574D01*
X104718320Y-77264727D01*
X104875363Y-77499759D01*
X105075241Y-77699637D01*
X105307759Y-77855000D01*
X105075241Y-78010363D01*
X104875363Y-78210241D01*
X104718320Y-78445273D01*
X104610147Y-78706426D01*
X104555000Y-78983665D01*
X104555000Y-79266335D01*
X104610147Y-79543574D01*
X104718320Y-79804727D01*
X104875363Y-80039759D01*
X105075241Y-80239637D01*
X105307759Y-80395000D01*
X105075241Y-80550363D01*
X104875363Y-80750241D01*
X104718320Y-80985273D01*
X104610147Y-81246426D01*
X104555000Y-81523665D01*
X104555000Y-81806335D01*
X104610147Y-82083574D01*
X104718320Y-82344727D01*
X104875363Y-82579759D01*
X105075241Y-82779637D01*
X105307759Y-82935000D01*
X105075241Y-83090363D01*
X104875363Y-83290241D01*
X104718320Y-83525273D01*
X104610147Y-83786426D01*
X104555000Y-84063665D01*
X104555000Y-84346335D01*
X104610147Y-84623574D01*
X104718320Y-84884727D01*
X104875363Y-85119759D01*
X105075241Y-85319637D01*
X105307759Y-85475000D01*
X105075241Y-85630363D01*
X104875363Y-85830241D01*
X104718320Y-86065273D01*
X104610147Y-86326426D01*
X104555000Y-86603665D01*
X104555000Y-86886335D01*
X104610147Y-87163574D01*
X104718320Y-87424727D01*
X104875363Y-87659759D01*
X105075241Y-87859637D01*
X105307759Y-88015000D01*
X105075241Y-88170363D01*
X104875363Y-88370241D01*
X104718320Y-88605273D01*
X104610147Y-88866426D01*
X104555000Y-89143665D01*
X104555000Y-89426335D01*
X104610147Y-89703574D01*
X104718320Y-89964727D01*
X104875363Y-90199759D01*
X105075241Y-90399637D01*
X105307759Y-90555000D01*
X105075241Y-90710363D01*
X104875363Y-90910241D01*
X104718320Y-91145273D01*
X104610147Y-91406426D01*
X104555000Y-91683665D01*
X104555000Y-91966335D01*
X104610147Y-92243574D01*
X104718320Y-92504727D01*
X104875363Y-92739759D01*
X105075241Y-92939637D01*
X105307759Y-93095000D01*
X105075241Y-93250363D01*
X104875363Y-93450241D01*
X104718320Y-93685273D01*
X104610147Y-93946426D01*
X104555000Y-94223665D01*
X104555000Y-94506335D01*
X104610147Y-94783574D01*
X104718320Y-95044727D01*
X104875363Y-95279759D01*
X105075241Y-95479637D01*
X105310273Y-95636680D01*
X105320865Y-95641067D01*
X105134869Y-95752615D01*
X104926481Y-95941586D01*
X104758963Y-96167580D01*
X104638754Y-96421913D01*
X104598096Y-96555961D01*
X104720085Y-96778000D01*
X105863000Y-96778000D01*
X105863000Y-96758000D01*
X106117000Y-96758000D01*
X106117000Y-96778000D01*
X107229265Y-96778000D01*
X107243269Y-96799400D01*
X108585000Y-96799400D01*
X108585000Y-95691400D01*
X108185000Y-95691400D01*
X107946504Y-95739907D01*
X107722054Y-95834010D01*
X107520275Y-95970093D01*
X107348922Y-96142926D01*
X107267511Y-96265907D01*
X107221037Y-96167580D01*
X107053519Y-95941586D01*
X106845131Y-95752615D01*
X106659135Y-95641067D01*
X106669727Y-95636680D01*
X106904759Y-95479637D01*
X107104637Y-95279759D01*
X107193744Y-95146400D01*
X107338067Y-95146400D01*
X107434498Y-95263902D01*
X107622551Y-95418233D01*
X107837099Y-95532911D01*
X108069898Y-95603530D01*
X108251335Y-95621400D01*
X109172665Y-95621400D01*
X109277010Y-95611123D01*
X109277010Y-95699131D01*
X109239000Y-95691400D01*
X108839000Y-95691400D01*
X108839000Y-96799400D01*
X108859000Y-96799400D01*
X108859000Y-97053400D01*
X108839000Y-97053400D01*
X108839000Y-98161400D01*
X109239000Y-98161400D01*
X109277010Y-98153669D01*
X109277010Y-98241677D01*
X109172665Y-98231400D01*
X108251335Y-98231400D01*
X108069898Y-98249270D01*
X107837099Y-98319889D01*
X107622551Y-98434567D01*
X107434498Y-98588898D01*
X107338067Y-98706400D01*
X107222342Y-98706400D01*
X107104637Y-98530241D01*
X106904759Y-98330363D01*
X106669727Y-98173320D01*
X106659135Y-98168933D01*
X106845131Y-98057385D01*
X107053519Y-97868414D01*
X107221037Y-97642420D01*
X107255708Y-97569064D01*
X107348922Y-97709874D01*
X107520275Y-97882707D01*
X107722054Y-98018790D01*
X107946504Y-98112893D01*
X108185000Y-98161400D01*
X108585000Y-98161400D01*
X108585000Y-97053400D01*
X107271672Y-97053400D01*
X107259915Y-97032000D01*
X106117000Y-97032000D01*
X106117000Y-97052000D01*
X105863000Y-97052000D01*
X105863000Y-97032000D01*
X104720085Y-97032000D01*
X104598096Y-97254039D01*
X104638754Y-97388087D01*
X104758963Y-97642420D01*
X104926481Y-97868414D01*
X105134869Y-98057385D01*
X105320865Y-98168933D01*
X105310273Y-98173320D01*
X105075241Y-98330363D01*
X104875363Y-98530241D01*
X104718320Y-98765273D01*
X104610147Y-99026426D01*
X104555000Y-99303665D01*
X104555000Y-99586335D01*
X104610147Y-99863574D01*
X104718320Y-100124727D01*
X104875363Y-100359759D01*
X105075241Y-100559637D01*
X105307759Y-100715000D01*
X105075241Y-100870363D01*
X104875363Y-101070241D01*
X104718320Y-101305273D01*
X104610147Y-101566426D01*
X104555000Y-101843665D01*
X104555000Y-102126335D01*
X104610147Y-102403574D01*
X104718320Y-102664727D01*
X104875363Y-102899759D01*
X105075241Y-103099637D01*
X105307759Y-103255000D01*
X105075241Y-103410363D01*
X104875363Y-103610241D01*
X104718320Y-103845273D01*
X104610147Y-104106426D01*
X104555000Y-104383665D01*
X104555000Y-104666335D01*
X104610147Y-104943574D01*
X104718320Y-105204727D01*
X104875363Y-105439759D01*
X105075241Y-105639637D01*
X105307759Y-105795000D01*
X105075241Y-105950363D01*
X104875363Y-106150241D01*
X104718320Y-106385273D01*
X104610147Y-106646426D01*
X104555000Y-106923665D01*
X104555000Y-107206335D01*
X104610147Y-107483574D01*
X104718320Y-107744727D01*
X104875363Y-107979759D01*
X105075241Y-108179637D01*
X105307759Y-108335000D01*
X105075241Y-108490363D01*
X104875363Y-108690241D01*
X104718320Y-108925273D01*
X104610147Y-109186426D01*
X104555000Y-109463665D01*
X104555000Y-109746335D01*
X104610147Y-110023574D01*
X104718320Y-110284727D01*
X104875363Y-110519759D01*
X105075241Y-110719637D01*
X105307759Y-110875000D01*
X105075241Y-111030363D01*
X104875363Y-111230241D01*
X104718320Y-111465273D01*
X104610147Y-111726426D01*
X104555000Y-112003665D01*
X104555000Y-112286335D01*
X104610147Y-112563574D01*
X104718320Y-112824727D01*
X104875363Y-113059759D01*
X105075241Y-113259637D01*
X105307759Y-113415000D01*
X105075241Y-113570363D01*
X104875363Y-113770241D01*
X104718320Y-114005273D01*
X104610147Y-114266426D01*
X104555000Y-114543665D01*
X104555000Y-114826335D01*
X104610147Y-115103574D01*
X104718320Y-115364727D01*
X104875363Y-115599759D01*
X105075241Y-115799637D01*
X105307759Y-115955000D01*
X105075241Y-116110363D01*
X104875363Y-116310241D01*
X104718320Y-116545273D01*
X104610147Y-116806426D01*
X104555000Y-117083665D01*
X104555000Y-117366335D01*
X104610147Y-117643574D01*
X104718320Y-117904727D01*
X104875363Y-118139759D01*
X105075241Y-118339637D01*
X105307759Y-118495000D01*
X105075241Y-118650363D01*
X104875363Y-118850241D01*
X104718320Y-119085273D01*
X104610147Y-119346426D01*
X104555000Y-119623665D01*
X104555000Y-119906335D01*
X104610147Y-120183574D01*
X104718320Y-120444727D01*
X104875363Y-120679759D01*
X105075241Y-120879637D01*
X105307759Y-121035000D01*
X105075241Y-121190363D01*
X104875363Y-121390241D01*
X104718320Y-121625273D01*
X104610147Y-121886426D01*
X104555000Y-122163665D01*
X104555000Y-122446335D01*
X104610147Y-122723574D01*
X104718320Y-122984727D01*
X104875363Y-123219759D01*
X105075241Y-123419637D01*
X105307759Y-123575000D01*
X105075241Y-123730363D01*
X104875363Y-123930241D01*
X104771957Y-124085000D01*
X103466302Y-124085000D01*
X102911293Y-123529992D01*
X102887491Y-123500989D01*
X102771766Y-123406016D01*
X102639737Y-123335444D01*
X102496476Y-123291987D01*
X102384823Y-123280990D01*
X102384812Y-123280990D01*
X102347490Y-123277314D01*
X102310168Y-123280990D01*
X101269990Y-123280990D01*
X101269990Y-108096000D01*
X101447939Y-108096000D01*
X101647898Y-108056226D01*
X101836256Y-107978205D01*
X102005774Y-107864937D01*
X102149937Y-107720774D01*
X102263205Y-107551256D01*
X102341226Y-107362898D01*
X102381000Y-107162939D01*
X102381000Y-106959061D01*
X102341226Y-106759102D01*
X102263205Y-106570744D01*
X102149937Y-106401226D01*
X102106000Y-106357289D01*
X102106000Y-71620213D01*
X104565764Y-69160449D01*
X104610147Y-69383574D01*
G04 #@! TA.AperFunction,Conductor*
D20*
G36*
X104610147Y-69383574D02*
G01*
X104718320Y-69644727D01*
X104875363Y-69879759D01*
X105075241Y-70079637D01*
X105307759Y-70235000D01*
X105075241Y-70390363D01*
X104875363Y-70590241D01*
X104718320Y-70825273D01*
X104610147Y-71086426D01*
X104555000Y-71363665D01*
X104555000Y-71646335D01*
X104610147Y-71923574D01*
X104718320Y-72184727D01*
X104875363Y-72419759D01*
X105075241Y-72619637D01*
X105307759Y-72775000D01*
X105075241Y-72930363D01*
X104875363Y-73130241D01*
X104718320Y-73365273D01*
X104610147Y-73626426D01*
X104555000Y-73903665D01*
X104555000Y-74186335D01*
X104610147Y-74463574D01*
X104718320Y-74724727D01*
X104875363Y-74959759D01*
X105075241Y-75159637D01*
X105307759Y-75315000D01*
X105075241Y-75470363D01*
X104875363Y-75670241D01*
X104718320Y-75905273D01*
X104610147Y-76166426D01*
X104555000Y-76443665D01*
X104555000Y-76726335D01*
X104610147Y-77003574D01*
X104718320Y-77264727D01*
X104875363Y-77499759D01*
X105075241Y-77699637D01*
X105307759Y-77855000D01*
X105075241Y-78010363D01*
X104875363Y-78210241D01*
X104718320Y-78445273D01*
X104610147Y-78706426D01*
X104555000Y-78983665D01*
X104555000Y-79266335D01*
X104610147Y-79543574D01*
X104718320Y-79804727D01*
X104875363Y-80039759D01*
X105075241Y-80239637D01*
X105307759Y-80395000D01*
X105075241Y-80550363D01*
X104875363Y-80750241D01*
X104718320Y-80985273D01*
X104610147Y-81246426D01*
X104555000Y-81523665D01*
X104555000Y-81806335D01*
X104610147Y-82083574D01*
X104718320Y-82344727D01*
X104875363Y-82579759D01*
X105075241Y-82779637D01*
X105307759Y-82935000D01*
X105075241Y-83090363D01*
X104875363Y-83290241D01*
X104718320Y-83525273D01*
X104610147Y-83786426D01*
X104555000Y-84063665D01*
X104555000Y-84346335D01*
X104610147Y-84623574D01*
X104718320Y-84884727D01*
X104875363Y-85119759D01*
X105075241Y-85319637D01*
X105307759Y-85475000D01*
X105075241Y-85630363D01*
X104875363Y-85830241D01*
X104718320Y-86065273D01*
X104610147Y-86326426D01*
X104555000Y-86603665D01*
X104555000Y-86886335D01*
X104610147Y-87163574D01*
X104718320Y-87424727D01*
X104875363Y-87659759D01*
X105075241Y-87859637D01*
X105307759Y-88015000D01*
X105075241Y-88170363D01*
X104875363Y-88370241D01*
X104718320Y-88605273D01*
X104610147Y-88866426D01*
X104555000Y-89143665D01*
X104555000Y-89426335D01*
X104610147Y-89703574D01*
X104718320Y-89964727D01*
X104875363Y-90199759D01*
X105075241Y-90399637D01*
X105307759Y-90555000D01*
X105075241Y-90710363D01*
X104875363Y-90910241D01*
X104718320Y-91145273D01*
X104610147Y-91406426D01*
X104555000Y-91683665D01*
X104555000Y-91966335D01*
X104610147Y-92243574D01*
X104718320Y-92504727D01*
X104875363Y-92739759D01*
X105075241Y-92939637D01*
X105307759Y-93095000D01*
X105075241Y-93250363D01*
X104875363Y-93450241D01*
X104718320Y-93685273D01*
X104610147Y-93946426D01*
X104555000Y-94223665D01*
X104555000Y-94506335D01*
X104610147Y-94783574D01*
X104718320Y-95044727D01*
X104875363Y-95279759D01*
X105075241Y-95479637D01*
X105310273Y-95636680D01*
X105320865Y-95641067D01*
X105134869Y-95752615D01*
X104926481Y-95941586D01*
X104758963Y-96167580D01*
X104638754Y-96421913D01*
X104598096Y-96555961D01*
X104720085Y-96778000D01*
X105863000Y-96778000D01*
X105863000Y-96758000D01*
X106117000Y-96758000D01*
X106117000Y-96778000D01*
X107229265Y-96778000D01*
X107243269Y-96799400D01*
X108585000Y-96799400D01*
X108585000Y-95691400D01*
X108185000Y-95691400D01*
X107946504Y-95739907D01*
X107722054Y-95834010D01*
X107520275Y-95970093D01*
X107348922Y-96142926D01*
X107267511Y-96265907D01*
X107221037Y-96167580D01*
X107053519Y-95941586D01*
X106845131Y-95752615D01*
X106659135Y-95641067D01*
X106669727Y-95636680D01*
X106904759Y-95479637D01*
X107104637Y-95279759D01*
X107193744Y-95146400D01*
X107338067Y-95146400D01*
X107434498Y-95263902D01*
X107622551Y-95418233D01*
X107837099Y-95532911D01*
X108069898Y-95603530D01*
X108251335Y-95621400D01*
X109172665Y-95621400D01*
X109277010Y-95611123D01*
X109277010Y-95699131D01*
X109239000Y-95691400D01*
X108839000Y-95691400D01*
X108839000Y-96799400D01*
X108859000Y-96799400D01*
X108859000Y-97053400D01*
X108839000Y-97053400D01*
X108839000Y-98161400D01*
X109239000Y-98161400D01*
X109277010Y-98153669D01*
X109277010Y-98241677D01*
X109172665Y-98231400D01*
X108251335Y-98231400D01*
X108069898Y-98249270D01*
X107837099Y-98319889D01*
X107622551Y-98434567D01*
X107434498Y-98588898D01*
X107338067Y-98706400D01*
X107222342Y-98706400D01*
X107104637Y-98530241D01*
X106904759Y-98330363D01*
X106669727Y-98173320D01*
X106659135Y-98168933D01*
X106845131Y-98057385D01*
X107053519Y-97868414D01*
X107221037Y-97642420D01*
X107255708Y-97569064D01*
X107348922Y-97709874D01*
X107520275Y-97882707D01*
X107722054Y-98018790D01*
X107946504Y-98112893D01*
X108185000Y-98161400D01*
X108585000Y-98161400D01*
X108585000Y-97053400D01*
X107271672Y-97053400D01*
X107259915Y-97032000D01*
X106117000Y-97032000D01*
X106117000Y-97052000D01*
X105863000Y-97052000D01*
X105863000Y-97032000D01*
X104720085Y-97032000D01*
X104598096Y-97254039D01*
X104638754Y-97388087D01*
X104758963Y-97642420D01*
X104926481Y-97868414D01*
X105134869Y-98057385D01*
X105320865Y-98168933D01*
X105310273Y-98173320D01*
X105075241Y-98330363D01*
X104875363Y-98530241D01*
X104718320Y-98765273D01*
X104610147Y-99026426D01*
X104555000Y-99303665D01*
X104555000Y-99586335D01*
X104610147Y-99863574D01*
X104718320Y-100124727D01*
X104875363Y-100359759D01*
X105075241Y-100559637D01*
X105307759Y-100715000D01*
X105075241Y-100870363D01*
X104875363Y-101070241D01*
X104718320Y-101305273D01*
X104610147Y-101566426D01*
X104555000Y-101843665D01*
X104555000Y-102126335D01*
X104610147Y-102403574D01*
X104718320Y-102664727D01*
X104875363Y-102899759D01*
X105075241Y-103099637D01*
X105307759Y-103255000D01*
X105075241Y-103410363D01*
X104875363Y-103610241D01*
X104718320Y-103845273D01*
X104610147Y-104106426D01*
X104555000Y-104383665D01*
X104555000Y-104666335D01*
X104610147Y-104943574D01*
X104718320Y-105204727D01*
X104875363Y-105439759D01*
X105075241Y-105639637D01*
X105307759Y-105795000D01*
X105075241Y-105950363D01*
X104875363Y-106150241D01*
X104718320Y-106385273D01*
X104610147Y-106646426D01*
X104555000Y-106923665D01*
X104555000Y-107206335D01*
X104610147Y-107483574D01*
X104718320Y-107744727D01*
X104875363Y-107979759D01*
X105075241Y-108179637D01*
X105307759Y-108335000D01*
X105075241Y-108490363D01*
X104875363Y-108690241D01*
X104718320Y-108925273D01*
X104610147Y-109186426D01*
X104555000Y-109463665D01*
X104555000Y-109746335D01*
X104610147Y-110023574D01*
X104718320Y-110284727D01*
X104875363Y-110519759D01*
X105075241Y-110719637D01*
X105307759Y-110875000D01*
X105075241Y-111030363D01*
X104875363Y-111230241D01*
X104718320Y-111465273D01*
X104610147Y-111726426D01*
X104555000Y-112003665D01*
X104555000Y-112286335D01*
X104610147Y-112563574D01*
X104718320Y-112824727D01*
X104875363Y-113059759D01*
X105075241Y-113259637D01*
X105307759Y-113415000D01*
X105075241Y-113570363D01*
X104875363Y-113770241D01*
X104718320Y-114005273D01*
X104610147Y-114266426D01*
X104555000Y-114543665D01*
X104555000Y-114826335D01*
X104610147Y-115103574D01*
X104718320Y-115364727D01*
X104875363Y-115599759D01*
X105075241Y-115799637D01*
X105307759Y-115955000D01*
X105075241Y-116110363D01*
X104875363Y-116310241D01*
X104718320Y-116545273D01*
X104610147Y-116806426D01*
X104555000Y-117083665D01*
X104555000Y-117366335D01*
X104610147Y-117643574D01*
X104718320Y-117904727D01*
X104875363Y-118139759D01*
X105075241Y-118339637D01*
X105307759Y-118495000D01*
X105075241Y-118650363D01*
X104875363Y-118850241D01*
X104718320Y-119085273D01*
X104610147Y-119346426D01*
X104555000Y-119623665D01*
X104555000Y-119906335D01*
X104610147Y-120183574D01*
X104718320Y-120444727D01*
X104875363Y-120679759D01*
X105075241Y-120879637D01*
X105307759Y-121035000D01*
X105075241Y-121190363D01*
X104875363Y-121390241D01*
X104718320Y-121625273D01*
X104610147Y-121886426D01*
X104555000Y-122163665D01*
X104555000Y-122446335D01*
X104610147Y-122723574D01*
X104718320Y-122984727D01*
X104875363Y-123219759D01*
X105075241Y-123419637D01*
X105307759Y-123575000D01*
X105075241Y-123730363D01*
X104875363Y-123930241D01*
X104771957Y-124085000D01*
X103466302Y-124085000D01*
X102911293Y-123529992D01*
X102887491Y-123500989D01*
X102771766Y-123406016D01*
X102639737Y-123335444D01*
X102496476Y-123291987D01*
X102384823Y-123280990D01*
X102384812Y-123280990D01*
X102347490Y-123277314D01*
X102310168Y-123280990D01*
X101269990Y-123280990D01*
X101269990Y-108096000D01*
X101447939Y-108096000D01*
X101647898Y-108056226D01*
X101836256Y-107978205D01*
X102005774Y-107864937D01*
X102149937Y-107720774D01*
X102263205Y-107551256D01*
X102341226Y-107362898D01*
X102381000Y-107162939D01*
X102381000Y-106959061D01*
X102341226Y-106759102D01*
X102263205Y-106570744D01*
X102149937Y-106401226D01*
X102106000Y-106357289D01*
X102106000Y-71620213D01*
X104565764Y-69160449D01*
X104610147Y-69383574D01*
G37*
G04 #@! TD.AperFunction*
D19*
X98146226Y-67141063D02*
X98002063Y-67285226D01*
X97888795Y-67454744D01*
X97810774Y-67643102D01*
X97771000Y-67843061D01*
X97771000Y-68046939D01*
X97810774Y-68246898D01*
X97888795Y-68435256D01*
X98002063Y-68604774D01*
X98120011Y-68722722D01*
X98120010Y-119801010D01*
X98019812Y-119801010D01*
X97982489Y-119797334D01*
X97945166Y-119801010D01*
X97945157Y-119801010D01*
X97833504Y-119812007D01*
X97690243Y-119855464D01*
X97558214Y-119926036D01*
X97558212Y-119926037D01*
X97558213Y-119926037D01*
X97471486Y-119997211D01*
X97471482Y-119997215D01*
X97442489Y-120021009D01*
X97418695Y-120050002D01*
X95927699Y-121541000D01*
X94825088Y-121541000D01*
X94749502Y-121448898D01*
X94561449Y-121294567D01*
X94346901Y-121179889D01*
X94114102Y-121109270D01*
X93932665Y-121091400D01*
X93011335Y-121091400D01*
X92829898Y-121109270D01*
X92597099Y-121179889D01*
X92382551Y-121294567D01*
X92194498Y-121448898D01*
X92115629Y-121545000D01*
X91968043Y-121545000D01*
X91864637Y-121390241D01*
X91664759Y-121190363D01*
X91432241Y-121035000D01*
X91664759Y-120879637D01*
X91864637Y-120679759D01*
X91968043Y-120525000D01*
X92080504Y-120525000D01*
X92194498Y-120663902D01*
X92382551Y-120818233D01*
X92597099Y-120932911D01*
X92829898Y-121003530D01*
X93011335Y-121021400D01*
X93932665Y-121021400D01*
X94114102Y-121003530D01*
X94346901Y-120932911D01*
X94561449Y-120818233D01*
X94749502Y-120663902D01*
X94866779Y-120521000D01*
X96205178Y-120521000D01*
X96242500Y-120524676D01*
X96279822Y-120521000D01*
X96279833Y-120521000D01*
X96391486Y-120510003D01*
X96534747Y-120466546D01*
X96666776Y-120395974D01*
X96782501Y-120301001D01*
X96806303Y-120271998D01*
X97566014Y-119512288D01*
X97595011Y-119488491D01*
X97689984Y-119372766D01*
X97760556Y-119240737D01*
X97804013Y-119097476D01*
X97815010Y-118985823D01*
X97815010Y-118985815D01*
X97818686Y-118948490D01*
X97815010Y-118911165D01*
X97815010Y-70898574D01*
X97818686Y-70861249D01*
X97815010Y-70823924D01*
X97815010Y-70823916D01*
X97804013Y-70712263D01*
X97760556Y-70569002D01*
X97689984Y-70436973D01*
X97595011Y-70321248D01*
X97566013Y-70297450D01*
X94322562Y-67054000D01*
X98276525Y-67054000D01*
X98146226Y-67141063D01*
G04 #@! TA.AperFunction,Conductor*
D20*
G36*
X98146226Y-67141063D02*
G01*
X98002063Y-67285226D01*
X97888795Y-67454744D01*
X97810774Y-67643102D01*
X97771000Y-67843061D01*
X97771000Y-68046939D01*
X97810774Y-68246898D01*
X97888795Y-68435256D01*
X98002063Y-68604774D01*
X98120011Y-68722722D01*
X98120010Y-119801010D01*
X98019812Y-119801010D01*
X97982489Y-119797334D01*
X97945166Y-119801010D01*
X97945157Y-119801010D01*
X97833504Y-119812007D01*
X97690243Y-119855464D01*
X97558214Y-119926036D01*
X97558212Y-119926037D01*
X97558213Y-119926037D01*
X97471486Y-119997211D01*
X97471482Y-119997215D01*
X97442489Y-120021009D01*
X97418695Y-120050002D01*
X95927699Y-121541000D01*
X94825088Y-121541000D01*
X94749502Y-121448898D01*
X94561449Y-121294567D01*
X94346901Y-121179889D01*
X94114102Y-121109270D01*
X93932665Y-121091400D01*
X93011335Y-121091400D01*
X92829898Y-121109270D01*
X92597099Y-121179889D01*
X92382551Y-121294567D01*
X92194498Y-121448898D01*
X92115629Y-121545000D01*
X91968043Y-121545000D01*
X91864637Y-121390241D01*
X91664759Y-121190363D01*
X91432241Y-121035000D01*
X91664759Y-120879637D01*
X91864637Y-120679759D01*
X91968043Y-120525000D01*
X92080504Y-120525000D01*
X92194498Y-120663902D01*
X92382551Y-120818233D01*
X92597099Y-120932911D01*
X92829898Y-121003530D01*
X93011335Y-121021400D01*
X93932665Y-121021400D01*
X94114102Y-121003530D01*
X94346901Y-120932911D01*
X94561449Y-120818233D01*
X94749502Y-120663902D01*
X94866779Y-120521000D01*
X96205178Y-120521000D01*
X96242500Y-120524676D01*
X96279822Y-120521000D01*
X96279833Y-120521000D01*
X96391486Y-120510003D01*
X96534747Y-120466546D01*
X96666776Y-120395974D01*
X96782501Y-120301001D01*
X96806303Y-120271998D01*
X97566014Y-119512288D01*
X97595011Y-119488491D01*
X97689984Y-119372766D01*
X97760556Y-119240737D01*
X97804013Y-119097476D01*
X97815010Y-118985823D01*
X97815010Y-118985815D01*
X97818686Y-118948490D01*
X97815010Y-118911165D01*
X97815010Y-70898574D01*
X97818686Y-70861249D01*
X97815010Y-70823924D01*
X97815010Y-70823916D01*
X97804013Y-70712263D01*
X97760556Y-70569002D01*
X97689984Y-70436973D01*
X97595011Y-70321248D01*
X97566013Y-70297450D01*
X94322562Y-67054000D01*
X98276525Y-67054000D01*
X98146226Y-67141063D01*
G37*
G04 #@! TD.AperFunction*
D19*
X96295011Y-71176052D02*
X96295010Y-118633688D01*
X95927699Y-119001000D01*
X94825088Y-119001000D01*
X94749502Y-118908898D01*
X94561449Y-118754567D01*
X94346901Y-118639889D01*
X94114102Y-118569270D01*
X93932665Y-118551400D01*
X93011335Y-118551400D01*
X92829898Y-118569270D01*
X92597099Y-118639889D01*
X92382551Y-118754567D01*
X92194498Y-118908898D01*
X92115629Y-119005000D01*
X91968043Y-119005000D01*
X91864637Y-118850241D01*
X91664759Y-118650363D01*
X91432241Y-118495000D01*
X91664759Y-118339637D01*
X91864637Y-118139759D01*
X91968043Y-117985000D01*
X92080504Y-117985000D01*
X92194498Y-118123902D01*
X92382551Y-118278233D01*
X92597099Y-118392911D01*
X92829898Y-118463530D01*
X93011335Y-118481400D01*
X93932665Y-118481400D01*
X94114102Y-118463530D01*
X94346901Y-118392911D01*
X94561449Y-118278233D01*
X94749502Y-118123902D01*
X94903833Y-117935849D01*
X95018511Y-117721301D01*
X95089130Y-117488502D01*
X95112975Y-117246400D01*
X95089130Y-117004298D01*
X95018511Y-116771499D01*
X94903833Y-116556951D01*
X94749502Y-116368898D01*
X94561449Y-116214567D01*
X94346901Y-116099889D01*
X94114102Y-116029270D01*
X93932665Y-116011400D01*
X93011335Y-116011400D01*
X92829898Y-116029270D01*
X92597099Y-116099889D01*
X92382551Y-116214567D01*
X92194498Y-116368898D01*
X92115629Y-116465000D01*
X91968043Y-116465000D01*
X91864637Y-116310241D01*
X91664759Y-116110363D01*
X91432241Y-115955000D01*
X91664759Y-115799637D01*
X91864637Y-115599759D01*
X91884521Y-115570000D01*
X92183089Y-115570000D01*
X92194498Y-115583902D01*
X92382551Y-115738233D01*
X92597099Y-115852911D01*
X92829898Y-115923530D01*
X93011335Y-115941400D01*
X93932665Y-115941400D01*
X94114102Y-115923530D01*
X94346901Y-115852911D01*
X94561449Y-115738233D01*
X94749502Y-115583902D01*
X94903833Y-115395849D01*
X95018511Y-115181301D01*
X95089130Y-114948502D01*
X95112975Y-114706400D01*
X95089130Y-114464298D01*
X95018511Y-114231499D01*
X94903833Y-114016951D01*
X94749502Y-113828898D01*
X94561449Y-113674567D01*
X94346901Y-113559889D01*
X94114102Y-113489270D01*
X93932665Y-113471400D01*
X93011335Y-113471400D01*
X92829898Y-113489270D01*
X92597099Y-113559889D01*
X92382551Y-113674567D01*
X92229710Y-113800000D01*
X91884521Y-113800000D01*
X91864637Y-113770241D01*
X91664759Y-113570363D01*
X91432241Y-113415000D01*
X91664759Y-113259637D01*
X91864637Y-113059759D01*
X91953744Y-112926400D01*
X92098067Y-112926400D01*
X92194498Y-113043902D01*
X92382551Y-113198233D01*
X92597099Y-113312911D01*
X92829898Y-113383530D01*
X93011335Y-113401400D01*
X93932665Y-113401400D01*
X94114102Y-113383530D01*
X94346901Y-113312911D01*
X94561449Y-113198233D01*
X94749502Y-113043902D01*
X94903833Y-112855849D01*
X95018511Y-112641301D01*
X95089130Y-112408502D01*
X95112975Y-112166400D01*
X95089130Y-111924298D01*
X95018511Y-111691499D01*
X94903833Y-111476951D01*
X94749502Y-111288898D01*
X94561449Y-111134567D01*
X94346901Y-111019889D01*
X94114102Y-110949270D01*
X93932665Y-110931400D01*
X93011335Y-110931400D01*
X92829898Y-110949270D01*
X92597099Y-111019889D01*
X92382551Y-111134567D01*
X92194498Y-111288898D01*
X92098067Y-111406400D01*
X91982342Y-111406400D01*
X91864637Y-111230241D01*
X91664759Y-111030363D01*
X91432241Y-110875000D01*
X91664759Y-110719637D01*
X91864637Y-110519759D01*
X91953744Y-110386400D01*
X92098067Y-110386400D01*
X92194498Y-110503902D01*
X92382551Y-110658233D01*
X92597099Y-110772911D01*
X92829898Y-110843530D01*
X93011335Y-110861400D01*
X93932665Y-110861400D01*
X94114102Y-110843530D01*
X94346901Y-110772911D01*
X94561449Y-110658233D01*
X94749502Y-110503902D01*
X94903833Y-110315849D01*
X95018511Y-110101301D01*
X95089130Y-109868502D01*
X95112975Y-109626400D01*
X95089130Y-109384298D01*
X95018511Y-109151499D01*
X94903833Y-108936951D01*
X94749502Y-108748898D01*
X94561449Y-108594567D01*
X94346901Y-108479889D01*
X94114102Y-108409270D01*
X93932665Y-108391400D01*
X93011335Y-108391400D01*
X92829898Y-108409270D01*
X92597099Y-108479889D01*
X92382551Y-108594567D01*
X92194498Y-108748898D01*
X92098067Y-108866400D01*
X91982342Y-108866400D01*
X91864637Y-108690241D01*
X91664759Y-108490363D01*
X91432241Y-108335000D01*
X91664759Y-108179637D01*
X91864637Y-107979759D01*
X91968043Y-107825000D01*
X92080504Y-107825000D01*
X92194498Y-107963902D01*
X92382551Y-108118233D01*
X92597099Y-108232911D01*
X92829898Y-108303530D01*
X93011335Y-108321400D01*
X93932665Y-108321400D01*
X94114102Y-108303530D01*
X94346901Y-108232911D01*
X94561449Y-108118233D01*
X94749502Y-107963902D01*
X94903833Y-107775849D01*
X95018511Y-107561301D01*
X95089130Y-107328502D01*
X95112975Y-107086400D01*
X95089130Y-106844298D01*
X95018511Y-106611499D01*
X94903833Y-106396951D01*
X94749502Y-106208898D01*
X94561449Y-106054567D01*
X94346901Y-105939889D01*
X94114102Y-105869270D01*
X93932665Y-105851400D01*
X93011335Y-105851400D01*
X92829898Y-105869270D01*
X92597099Y-105939889D01*
X92382551Y-106054567D01*
X92194498Y-106208898D01*
X92115629Y-106305000D01*
X91968043Y-106305000D01*
X91864637Y-106150241D01*
X91664759Y-105950363D01*
X91432241Y-105795000D01*
X91664759Y-105639637D01*
X91864637Y-105439759D01*
X91953744Y-105306400D01*
X92098067Y-105306400D01*
X92194498Y-105423902D01*
X92382551Y-105578233D01*
X92597099Y-105692911D01*
X92829898Y-105763530D01*
X93011335Y-105781400D01*
X93932665Y-105781400D01*
X94114102Y-105763530D01*
X94346901Y-105692911D01*
X94561449Y-105578233D01*
X94749502Y-105423902D01*
X94903833Y-105235849D01*
X95018511Y-105021301D01*
X95089130Y-104788502D01*
X95112975Y-104546400D01*
X95089130Y-104304298D01*
X95018511Y-104071499D01*
X94903833Y-103856951D01*
X94749502Y-103668898D01*
X94561449Y-103514567D01*
X94346901Y-103399889D01*
X94114102Y-103329270D01*
X93932665Y-103311400D01*
X93011335Y-103311400D01*
X92829898Y-103329270D01*
X92597099Y-103399889D01*
X92382551Y-103514567D01*
X92194498Y-103668898D01*
X92098067Y-103786400D01*
X91982342Y-103786400D01*
X91864637Y-103610241D01*
X91664759Y-103410363D01*
X91432241Y-103255000D01*
X91664759Y-103099637D01*
X91864637Y-102899759D01*
X91968043Y-102745000D01*
X92080504Y-102745000D01*
X92194498Y-102883902D01*
X92382551Y-103038233D01*
X92597099Y-103152911D01*
X92829898Y-103223530D01*
X93011335Y-103241400D01*
X93932665Y-103241400D01*
X94114102Y-103223530D01*
X94346901Y-103152911D01*
X94561449Y-103038233D01*
X94749502Y-102883902D01*
X94903833Y-102695849D01*
X95018511Y-102481301D01*
X95089130Y-102248502D01*
X95112975Y-102006400D01*
X95089130Y-101764298D01*
X95018511Y-101531499D01*
X94903833Y-101316951D01*
X94749502Y-101128898D01*
X94561449Y-100974567D01*
X94346901Y-100859889D01*
X94114102Y-100789270D01*
X93932665Y-100771400D01*
X93011335Y-100771400D01*
X92829898Y-100789270D01*
X92597099Y-100859889D01*
X92382551Y-100974567D01*
X92194498Y-101128898D01*
X92115629Y-101225000D01*
X91968043Y-101225000D01*
X91864637Y-101070241D01*
X91664759Y-100870363D01*
X91432241Y-100715000D01*
X91664759Y-100559637D01*
X91864637Y-100359759D01*
X91953744Y-100226400D01*
X92098067Y-100226400D01*
X92194498Y-100343902D01*
X92382551Y-100498233D01*
X92597099Y-100612911D01*
X92829898Y-100683530D01*
X93011335Y-100701400D01*
X93932665Y-100701400D01*
X94114102Y-100683530D01*
X94346901Y-100612911D01*
X94561449Y-100498233D01*
X94749502Y-100343902D01*
X94903833Y-100155849D01*
X95018511Y-99941301D01*
X95089130Y-99708502D01*
X95112975Y-99466400D01*
X95089130Y-99224298D01*
X95018511Y-98991499D01*
X94903833Y-98776951D01*
X94749502Y-98588898D01*
X94561449Y-98434567D01*
X94346901Y-98319889D01*
X94114102Y-98249270D01*
X93932665Y-98231400D01*
X93011335Y-98231400D01*
X92829898Y-98249270D01*
X92597099Y-98319889D01*
X92382551Y-98434567D01*
X92194498Y-98588898D01*
X92098067Y-98706400D01*
X91982342Y-98706400D01*
X91864637Y-98530241D01*
X91664759Y-98330363D01*
X91432241Y-98175000D01*
X91664759Y-98019637D01*
X91864637Y-97819759D01*
X91968043Y-97665000D01*
X92080504Y-97665000D01*
X92194498Y-97803902D01*
X92382551Y-97958233D01*
X92597099Y-98072911D01*
X92829898Y-98143530D01*
X93011335Y-98161400D01*
X93932665Y-98161400D01*
X94114102Y-98143530D01*
X94346901Y-98072911D01*
X94561449Y-97958233D01*
X94749502Y-97803902D01*
X94903833Y-97615849D01*
X95018511Y-97401301D01*
X95089130Y-97168502D01*
X95112975Y-96926400D01*
X95089130Y-96684298D01*
X95018511Y-96451499D01*
X94903833Y-96236951D01*
X94749502Y-96048898D01*
X94561449Y-95894567D01*
X94346901Y-95779889D01*
X94114102Y-95709270D01*
X93932665Y-95691400D01*
X93011335Y-95691400D01*
X92829898Y-95709270D01*
X92597099Y-95779889D01*
X92382551Y-95894567D01*
X92194498Y-96048898D01*
X92115629Y-96145000D01*
X91968043Y-96145000D01*
X91864637Y-95990241D01*
X91664759Y-95790363D01*
X91432241Y-95635000D01*
X91664759Y-95479637D01*
X91864637Y-95279759D01*
X91953744Y-95146400D01*
X92098067Y-95146400D01*
X92194498Y-95263902D01*
X92382551Y-95418233D01*
X92597099Y-95532911D01*
X92829898Y-95603530D01*
X93011335Y-95621400D01*
X93932665Y-95621400D01*
X94114102Y-95603530D01*
X94346901Y-95532911D01*
X94561449Y-95418233D01*
X94749502Y-95263902D01*
X94903833Y-95075849D01*
X95018511Y-94861301D01*
X95089130Y-94628502D01*
X95112975Y-94386400D01*
X95089130Y-94144298D01*
X95018511Y-93911499D01*
X94903833Y-93696951D01*
X94749502Y-93508898D01*
X94561449Y-93354567D01*
X94346901Y-93239889D01*
X94114102Y-93169270D01*
X93932665Y-93151400D01*
X93011335Y-93151400D01*
X92829898Y-93169270D01*
X92597099Y-93239889D01*
X92382551Y-93354567D01*
X92194498Y-93508898D01*
X92098067Y-93626400D01*
X91982342Y-93626400D01*
X91864637Y-93450241D01*
X91664759Y-93250363D01*
X91432241Y-93095000D01*
X91664759Y-92939637D01*
X91864637Y-92739759D01*
X91968043Y-92585000D01*
X92080504Y-92585000D01*
X92194498Y-92723902D01*
X92382551Y-92878233D01*
X92597099Y-92992911D01*
X92829898Y-93063530D01*
X93011335Y-93081400D01*
X93932665Y-93081400D01*
X94114102Y-93063530D01*
X94346901Y-92992911D01*
X94561449Y-92878233D01*
X94749502Y-92723902D01*
X94903833Y-92535849D01*
X95018511Y-92321301D01*
X95089130Y-92088502D01*
X95112975Y-91846400D01*
X95089130Y-91604298D01*
X95018511Y-91371499D01*
X94903833Y-91156951D01*
X94749502Y-90968898D01*
X94561449Y-90814567D01*
X94346901Y-90699889D01*
X94114102Y-90629270D01*
X93932665Y-90611400D01*
X93011335Y-90611400D01*
X92829898Y-90629270D01*
X92597099Y-90699889D01*
X92382551Y-90814567D01*
X92194498Y-90968898D01*
X92115629Y-91065000D01*
X91968043Y-91065000D01*
X91864637Y-90910241D01*
X91664759Y-90710363D01*
X91432241Y-90555000D01*
X91664759Y-90399637D01*
X91864637Y-90199759D01*
X91953744Y-90066400D01*
X92098067Y-90066400D01*
X92194498Y-90183902D01*
X92382551Y-90338233D01*
X92597099Y-90452911D01*
X92829898Y-90523530D01*
X93011335Y-90541400D01*
X93932665Y-90541400D01*
X94114102Y-90523530D01*
X94346901Y-90452911D01*
X94561449Y-90338233D01*
X94749502Y-90183902D01*
X94903833Y-89995849D01*
X95018511Y-89781301D01*
X95089130Y-89548502D01*
X95112975Y-89306400D01*
X95089130Y-89064298D01*
X95018511Y-88831499D01*
X94903833Y-88616951D01*
X94749502Y-88428898D01*
X94561449Y-88274567D01*
X94346901Y-88159889D01*
X94114102Y-88089270D01*
X93932665Y-88071400D01*
X93011335Y-88071400D01*
X92829898Y-88089270D01*
X92597099Y-88159889D01*
X92382551Y-88274567D01*
X92194498Y-88428898D01*
X92098067Y-88546400D01*
X91982342Y-88546400D01*
X91864637Y-88370241D01*
X91664759Y-88170363D01*
X91432241Y-88015000D01*
X91664759Y-87859637D01*
X91864637Y-87659759D01*
X91968043Y-87505000D01*
X92080504Y-87505000D01*
X92194498Y-87643902D01*
X92382551Y-87798233D01*
X92597099Y-87912911D01*
X92829898Y-87983530D01*
X93011335Y-88001400D01*
X93932665Y-88001400D01*
X94114102Y-87983530D01*
X94346901Y-87912911D01*
X94561449Y-87798233D01*
X94749502Y-87643902D01*
X94903833Y-87455849D01*
X95018511Y-87241301D01*
X95089130Y-87008502D01*
X95112975Y-86766400D01*
X95089130Y-86524298D01*
X95018511Y-86291499D01*
X94903833Y-86076951D01*
X94749502Y-85888898D01*
X94561449Y-85734567D01*
X94346901Y-85619889D01*
X94114102Y-85549270D01*
X93932665Y-85531400D01*
X93011335Y-85531400D01*
X92829898Y-85549270D01*
X92597099Y-85619889D01*
X92382551Y-85734567D01*
X92194498Y-85888898D01*
X92115629Y-85985000D01*
X91968043Y-85985000D01*
X91864637Y-85830241D01*
X91664759Y-85630363D01*
X91432241Y-85475000D01*
X91664759Y-85319637D01*
X91864637Y-85119759D01*
X91953744Y-84986400D01*
X92098067Y-84986400D01*
X92194498Y-85103902D01*
X92382551Y-85258233D01*
X92597099Y-85372911D01*
X92829898Y-85443530D01*
X93011335Y-85461400D01*
X93932665Y-85461400D01*
X94114102Y-85443530D01*
X94346901Y-85372911D01*
X94561449Y-85258233D01*
X94749502Y-85103902D01*
X94903833Y-84915849D01*
X95018511Y-84701301D01*
X95089130Y-84468502D01*
X95112975Y-84226400D01*
X95089130Y-83984298D01*
X95018511Y-83751499D01*
X94903833Y-83536951D01*
X94749502Y-83348898D01*
X94561449Y-83194567D01*
X94346901Y-83079889D01*
X94114102Y-83009270D01*
X93932665Y-82991400D01*
X93011335Y-82991400D01*
X92829898Y-83009270D01*
X92597099Y-83079889D01*
X92382551Y-83194567D01*
X92194498Y-83348898D01*
X92098067Y-83466400D01*
X91982342Y-83466400D01*
X91864637Y-83290241D01*
X91664759Y-83090363D01*
X91432241Y-82935000D01*
X91664759Y-82779637D01*
X91864637Y-82579759D01*
X91968043Y-82425000D01*
X92080504Y-82425000D01*
X92194498Y-82563902D01*
X92382551Y-82718233D01*
X92597099Y-82832911D01*
X92829898Y-82903530D01*
X93011335Y-82921400D01*
X93932665Y-82921400D01*
X94114102Y-82903530D01*
X94346901Y-82832911D01*
X94561449Y-82718233D01*
X94749502Y-82563902D01*
X94903833Y-82375849D01*
X95018511Y-82161301D01*
X95089130Y-81928502D01*
X95112975Y-81686400D01*
X95089130Y-81444298D01*
X95018511Y-81211499D01*
X94903833Y-80996951D01*
X94749502Y-80808898D01*
X94561449Y-80654567D01*
X94346901Y-80539889D01*
X94114102Y-80469270D01*
X93932665Y-80451400D01*
X93011335Y-80451400D01*
X92829898Y-80469270D01*
X92597099Y-80539889D01*
X92382551Y-80654567D01*
X92194498Y-80808898D01*
X92115629Y-80905000D01*
X91968043Y-80905000D01*
X91864637Y-80750241D01*
X91664759Y-80550363D01*
X91432241Y-80395000D01*
X91664759Y-80239637D01*
X91864637Y-80039759D01*
X91953744Y-79906400D01*
X92098067Y-79906400D01*
X92194498Y-80023902D01*
X92382551Y-80178233D01*
X92597099Y-80292911D01*
X92829898Y-80363530D01*
X93011335Y-80381400D01*
X93932665Y-80381400D01*
X94114102Y-80363530D01*
X94346901Y-80292911D01*
X94561449Y-80178233D01*
X94749502Y-80023902D01*
X94903833Y-79835849D01*
X95018511Y-79621301D01*
X95089130Y-79388502D01*
X95112975Y-79146400D01*
X95089130Y-78904298D01*
X95018511Y-78671499D01*
X94903833Y-78456951D01*
X94749502Y-78268898D01*
X94561449Y-78114567D01*
X94346901Y-77999889D01*
X94114102Y-77929270D01*
X93932665Y-77911400D01*
X93011335Y-77911400D01*
X92829898Y-77929270D01*
X92597099Y-77999889D01*
X92382551Y-78114567D01*
X92194498Y-78268898D01*
X92098067Y-78386400D01*
X91982342Y-78386400D01*
X91864637Y-78210241D01*
X91664759Y-78010363D01*
X91432241Y-77855000D01*
X91664759Y-77699637D01*
X91864637Y-77499759D01*
X91968043Y-77345000D01*
X92080504Y-77345000D01*
X92194498Y-77483902D01*
X92382551Y-77638233D01*
X92597099Y-77752911D01*
X92829898Y-77823530D01*
X93011335Y-77841400D01*
X93932665Y-77841400D01*
X94114102Y-77823530D01*
X94346901Y-77752911D01*
X94561449Y-77638233D01*
X94749502Y-77483902D01*
X94903833Y-77295849D01*
X95018511Y-77081301D01*
X95089130Y-76848502D01*
X95112975Y-76606400D01*
X95089130Y-76364298D01*
X95018511Y-76131499D01*
X94903833Y-75916951D01*
X94749502Y-75728898D01*
X94561449Y-75574567D01*
X94346901Y-75459889D01*
X94114102Y-75389270D01*
X93932665Y-75371400D01*
X93011335Y-75371400D01*
X92829898Y-75389270D01*
X92597099Y-75459889D01*
X92382551Y-75574567D01*
X92194498Y-75728898D01*
X92115629Y-75825000D01*
X91968043Y-75825000D01*
X91864637Y-75670241D01*
X91664759Y-75470363D01*
X91432241Y-75315000D01*
X91664759Y-75159637D01*
X91864637Y-74959759D01*
X91953744Y-74826400D01*
X92098067Y-74826400D01*
X92194498Y-74943902D01*
X92382551Y-75098233D01*
X92597099Y-75212911D01*
X92829898Y-75283530D01*
X93011335Y-75301400D01*
X93932665Y-75301400D01*
X94114102Y-75283530D01*
X94346901Y-75212911D01*
X94561449Y-75098233D01*
X94749502Y-74943902D01*
X94903833Y-74755849D01*
X95018511Y-74541301D01*
X95089130Y-74308502D01*
X95112975Y-74066400D01*
X95089130Y-73824298D01*
X95018511Y-73591499D01*
X94903833Y-73376951D01*
X94749502Y-73188898D01*
X94561449Y-73034567D01*
X94346901Y-72919889D01*
X94114102Y-72849270D01*
X93932665Y-72831400D01*
X93011335Y-72831400D01*
X92829898Y-72849270D01*
X92597099Y-72919889D01*
X92382551Y-73034567D01*
X92194498Y-73188898D01*
X92098067Y-73306400D01*
X91982342Y-73306400D01*
X91864637Y-73130241D01*
X91664759Y-72930363D01*
X91432241Y-72775000D01*
X91664759Y-72619637D01*
X91864637Y-72419759D01*
X91968043Y-72265000D01*
X92080504Y-72265000D01*
X92194498Y-72403902D01*
X92382551Y-72558233D01*
X92597099Y-72672911D01*
X92829898Y-72743530D01*
X93011335Y-72761400D01*
X93932665Y-72761400D01*
X94114102Y-72743530D01*
X94346901Y-72672911D01*
X94561449Y-72558233D01*
X94749502Y-72403902D01*
X94903833Y-72215849D01*
X95018511Y-72001301D01*
X95089130Y-71768502D01*
X95112975Y-71526400D01*
X95089130Y-71284298D01*
X95018511Y-71051499D01*
X94903833Y-70836951D01*
X94749502Y-70648898D01*
X94561449Y-70494567D01*
X94346901Y-70379889D01*
X94114102Y-70309270D01*
X93932665Y-70291400D01*
X93011335Y-70291400D01*
X92829898Y-70309270D01*
X92597099Y-70379889D01*
X92382551Y-70494567D01*
X92194498Y-70648898D01*
X92115629Y-70745000D01*
X91968043Y-70745000D01*
X91864637Y-70590241D01*
X91666039Y-70391643D01*
X91674482Y-70390812D01*
X91794180Y-70354502D01*
X91904494Y-70295537D01*
X92001185Y-70216185D01*
X92080537Y-70119494D01*
X92139502Y-70009180D01*
X92175812Y-69889482D01*
X92180064Y-69846314D01*
X92194498Y-69863902D01*
X92382551Y-70018233D01*
X92597099Y-70132911D01*
X92829898Y-70203530D01*
X93011335Y-70221400D01*
X93932665Y-70221400D01*
X94114102Y-70203530D01*
X94346901Y-70132911D01*
X94561449Y-70018233D01*
X94749502Y-69863902D01*
X94854690Y-69735730D01*
X96295011Y-71176052D01*
G04 #@! TA.AperFunction,Conductor*
D20*
G36*
X96295011Y-71176052D02*
G01*
X96295010Y-118633688D01*
X95927699Y-119001000D01*
X94825088Y-119001000D01*
X94749502Y-118908898D01*
X94561449Y-118754567D01*
X94346901Y-118639889D01*
X94114102Y-118569270D01*
X93932665Y-118551400D01*
X93011335Y-118551400D01*
X92829898Y-118569270D01*
X92597099Y-118639889D01*
X92382551Y-118754567D01*
X92194498Y-118908898D01*
X92115629Y-119005000D01*
X91968043Y-119005000D01*
X91864637Y-118850241D01*
X91664759Y-118650363D01*
X91432241Y-118495000D01*
X91664759Y-118339637D01*
X91864637Y-118139759D01*
X91968043Y-117985000D01*
X92080504Y-117985000D01*
X92194498Y-118123902D01*
X92382551Y-118278233D01*
X92597099Y-118392911D01*
X92829898Y-118463530D01*
X93011335Y-118481400D01*
X93932665Y-118481400D01*
X94114102Y-118463530D01*
X94346901Y-118392911D01*
X94561449Y-118278233D01*
X94749502Y-118123902D01*
X94903833Y-117935849D01*
X95018511Y-117721301D01*
X95089130Y-117488502D01*
X95112975Y-117246400D01*
X95089130Y-117004298D01*
X95018511Y-116771499D01*
X94903833Y-116556951D01*
X94749502Y-116368898D01*
X94561449Y-116214567D01*
X94346901Y-116099889D01*
X94114102Y-116029270D01*
X93932665Y-116011400D01*
X93011335Y-116011400D01*
X92829898Y-116029270D01*
X92597099Y-116099889D01*
X92382551Y-116214567D01*
X92194498Y-116368898D01*
X92115629Y-116465000D01*
X91968043Y-116465000D01*
X91864637Y-116310241D01*
X91664759Y-116110363D01*
X91432241Y-115955000D01*
X91664759Y-115799637D01*
X91864637Y-115599759D01*
X91884521Y-115570000D01*
X92183089Y-115570000D01*
X92194498Y-115583902D01*
X92382551Y-115738233D01*
X92597099Y-115852911D01*
X92829898Y-115923530D01*
X93011335Y-115941400D01*
X93932665Y-115941400D01*
X94114102Y-115923530D01*
X94346901Y-115852911D01*
X94561449Y-115738233D01*
X94749502Y-115583902D01*
X94903833Y-115395849D01*
X95018511Y-115181301D01*
X95089130Y-114948502D01*
X95112975Y-114706400D01*
X95089130Y-114464298D01*
X95018511Y-114231499D01*
X94903833Y-114016951D01*
X94749502Y-113828898D01*
X94561449Y-113674567D01*
X94346901Y-113559889D01*
X94114102Y-113489270D01*
X93932665Y-113471400D01*
X93011335Y-113471400D01*
X92829898Y-113489270D01*
X92597099Y-113559889D01*
X92382551Y-113674567D01*
X92229710Y-113800000D01*
X91884521Y-113800000D01*
X91864637Y-113770241D01*
X91664759Y-113570363D01*
X91432241Y-113415000D01*
X91664759Y-113259637D01*
X91864637Y-113059759D01*
X91953744Y-112926400D01*
X92098067Y-112926400D01*
X92194498Y-113043902D01*
X92382551Y-113198233D01*
X92597099Y-113312911D01*
X92829898Y-113383530D01*
X93011335Y-113401400D01*
X93932665Y-113401400D01*
X94114102Y-113383530D01*
X94346901Y-113312911D01*
X94561449Y-113198233D01*
X94749502Y-113043902D01*
X94903833Y-112855849D01*
X95018511Y-112641301D01*
X95089130Y-112408502D01*
X95112975Y-112166400D01*
X95089130Y-111924298D01*
X95018511Y-111691499D01*
X94903833Y-111476951D01*
X94749502Y-111288898D01*
X94561449Y-111134567D01*
X94346901Y-111019889D01*
X94114102Y-110949270D01*
X93932665Y-110931400D01*
X93011335Y-110931400D01*
X92829898Y-110949270D01*
X92597099Y-111019889D01*
X92382551Y-111134567D01*
X92194498Y-111288898D01*
X92098067Y-111406400D01*
X91982342Y-111406400D01*
X91864637Y-111230241D01*
X91664759Y-111030363D01*
X91432241Y-110875000D01*
X91664759Y-110719637D01*
X91864637Y-110519759D01*
X91953744Y-110386400D01*
X92098067Y-110386400D01*
X92194498Y-110503902D01*
X92382551Y-110658233D01*
X92597099Y-110772911D01*
X92829898Y-110843530D01*
X93011335Y-110861400D01*
X93932665Y-110861400D01*
X94114102Y-110843530D01*
X94346901Y-110772911D01*
X94561449Y-110658233D01*
X94749502Y-110503902D01*
X94903833Y-110315849D01*
X95018511Y-110101301D01*
X95089130Y-109868502D01*
X95112975Y-109626400D01*
X95089130Y-109384298D01*
X95018511Y-109151499D01*
X94903833Y-108936951D01*
X94749502Y-108748898D01*
X94561449Y-108594567D01*
X94346901Y-108479889D01*
X94114102Y-108409270D01*
X93932665Y-108391400D01*
X93011335Y-108391400D01*
X92829898Y-108409270D01*
X92597099Y-108479889D01*
X92382551Y-108594567D01*
X92194498Y-108748898D01*
X92098067Y-108866400D01*
X91982342Y-108866400D01*
X91864637Y-108690241D01*
X91664759Y-108490363D01*
X91432241Y-108335000D01*
X91664759Y-108179637D01*
X91864637Y-107979759D01*
X91968043Y-107825000D01*
X92080504Y-107825000D01*
X92194498Y-107963902D01*
X92382551Y-108118233D01*
X92597099Y-108232911D01*
X92829898Y-108303530D01*
X93011335Y-108321400D01*
X93932665Y-108321400D01*
X94114102Y-108303530D01*
X94346901Y-108232911D01*
X94561449Y-108118233D01*
X94749502Y-107963902D01*
X94903833Y-107775849D01*
X95018511Y-107561301D01*
X95089130Y-107328502D01*
X95112975Y-107086400D01*
X95089130Y-106844298D01*
X95018511Y-106611499D01*
X94903833Y-106396951D01*
X94749502Y-106208898D01*
X94561449Y-106054567D01*
X94346901Y-105939889D01*
X94114102Y-105869270D01*
X93932665Y-105851400D01*
X93011335Y-105851400D01*
X92829898Y-105869270D01*
X92597099Y-105939889D01*
X92382551Y-106054567D01*
X92194498Y-106208898D01*
X92115629Y-106305000D01*
X91968043Y-106305000D01*
X91864637Y-106150241D01*
X91664759Y-105950363D01*
X91432241Y-105795000D01*
X91664759Y-105639637D01*
X91864637Y-105439759D01*
X91953744Y-105306400D01*
X92098067Y-105306400D01*
X92194498Y-105423902D01*
X92382551Y-105578233D01*
X92597099Y-105692911D01*
X92829898Y-105763530D01*
X93011335Y-105781400D01*
X93932665Y-105781400D01*
X94114102Y-105763530D01*
X94346901Y-105692911D01*
X94561449Y-105578233D01*
X94749502Y-105423902D01*
X94903833Y-105235849D01*
X95018511Y-105021301D01*
X95089130Y-104788502D01*
X95112975Y-104546400D01*
X95089130Y-104304298D01*
X95018511Y-104071499D01*
X94903833Y-103856951D01*
X94749502Y-103668898D01*
X94561449Y-103514567D01*
X94346901Y-103399889D01*
X94114102Y-103329270D01*
X93932665Y-103311400D01*
X93011335Y-103311400D01*
X92829898Y-103329270D01*
X92597099Y-103399889D01*
X92382551Y-103514567D01*
X92194498Y-103668898D01*
X92098067Y-103786400D01*
X91982342Y-103786400D01*
X91864637Y-103610241D01*
X91664759Y-103410363D01*
X91432241Y-103255000D01*
X91664759Y-103099637D01*
X91864637Y-102899759D01*
X91968043Y-102745000D01*
X92080504Y-102745000D01*
X92194498Y-102883902D01*
X92382551Y-103038233D01*
X92597099Y-103152911D01*
X92829898Y-103223530D01*
X93011335Y-103241400D01*
X93932665Y-103241400D01*
X94114102Y-103223530D01*
X94346901Y-103152911D01*
X94561449Y-103038233D01*
X94749502Y-102883902D01*
X94903833Y-102695849D01*
X95018511Y-102481301D01*
X95089130Y-102248502D01*
X95112975Y-102006400D01*
X95089130Y-101764298D01*
X95018511Y-101531499D01*
X94903833Y-101316951D01*
X94749502Y-101128898D01*
X94561449Y-100974567D01*
X94346901Y-100859889D01*
X94114102Y-100789270D01*
X93932665Y-100771400D01*
X93011335Y-100771400D01*
X92829898Y-100789270D01*
X92597099Y-100859889D01*
X92382551Y-100974567D01*
X92194498Y-101128898D01*
X92115629Y-101225000D01*
X91968043Y-101225000D01*
X91864637Y-101070241D01*
X91664759Y-100870363D01*
X91432241Y-100715000D01*
X91664759Y-100559637D01*
X91864637Y-100359759D01*
X91953744Y-100226400D01*
X92098067Y-100226400D01*
X92194498Y-100343902D01*
X92382551Y-100498233D01*
X92597099Y-100612911D01*
X92829898Y-100683530D01*
X93011335Y-100701400D01*
X93932665Y-100701400D01*
X94114102Y-100683530D01*
X94346901Y-100612911D01*
X94561449Y-100498233D01*
X94749502Y-100343902D01*
X94903833Y-100155849D01*
X95018511Y-99941301D01*
X95089130Y-99708502D01*
X95112975Y-99466400D01*
X95089130Y-99224298D01*
X95018511Y-98991499D01*
X94903833Y-98776951D01*
X94749502Y-98588898D01*
X94561449Y-98434567D01*
X94346901Y-98319889D01*
X94114102Y-98249270D01*
X93932665Y-98231400D01*
X93011335Y-98231400D01*
X92829898Y-98249270D01*
X92597099Y-98319889D01*
X92382551Y-98434567D01*
X92194498Y-98588898D01*
X92098067Y-98706400D01*
X91982342Y-98706400D01*
X91864637Y-98530241D01*
X91664759Y-98330363D01*
X91432241Y-98175000D01*
X91664759Y-98019637D01*
X91864637Y-97819759D01*
X91968043Y-97665000D01*
X92080504Y-97665000D01*
X92194498Y-97803902D01*
X92382551Y-97958233D01*
X92597099Y-98072911D01*
X92829898Y-98143530D01*
X93011335Y-98161400D01*
X93932665Y-98161400D01*
X94114102Y-98143530D01*
X94346901Y-98072911D01*
X94561449Y-97958233D01*
X94749502Y-97803902D01*
X94903833Y-97615849D01*
X95018511Y-97401301D01*
X95089130Y-97168502D01*
X95112975Y-96926400D01*
X95089130Y-96684298D01*
X95018511Y-96451499D01*
X94903833Y-96236951D01*
X94749502Y-96048898D01*
X94561449Y-95894567D01*
X94346901Y-95779889D01*
X94114102Y-95709270D01*
X93932665Y-95691400D01*
X93011335Y-95691400D01*
X92829898Y-95709270D01*
X92597099Y-95779889D01*
X92382551Y-95894567D01*
X92194498Y-96048898D01*
X92115629Y-96145000D01*
X91968043Y-96145000D01*
X91864637Y-95990241D01*
X91664759Y-95790363D01*
X91432241Y-95635000D01*
X91664759Y-95479637D01*
X91864637Y-95279759D01*
X91953744Y-95146400D01*
X92098067Y-95146400D01*
X92194498Y-95263902D01*
X92382551Y-95418233D01*
X92597099Y-95532911D01*
X92829898Y-95603530D01*
X93011335Y-95621400D01*
X93932665Y-95621400D01*
X94114102Y-95603530D01*
X94346901Y-95532911D01*
X94561449Y-95418233D01*
X94749502Y-95263902D01*
X94903833Y-95075849D01*
X95018511Y-94861301D01*
X95089130Y-94628502D01*
X95112975Y-94386400D01*
X95089130Y-94144298D01*
X95018511Y-93911499D01*
X94903833Y-93696951D01*
X94749502Y-93508898D01*
X94561449Y-93354567D01*
X94346901Y-93239889D01*
X94114102Y-93169270D01*
X93932665Y-93151400D01*
X93011335Y-93151400D01*
X92829898Y-93169270D01*
X92597099Y-93239889D01*
X92382551Y-93354567D01*
X92194498Y-93508898D01*
X92098067Y-93626400D01*
X91982342Y-93626400D01*
X91864637Y-93450241D01*
X91664759Y-93250363D01*
X91432241Y-93095000D01*
X91664759Y-92939637D01*
X91864637Y-92739759D01*
X91968043Y-92585000D01*
X92080504Y-92585000D01*
X92194498Y-92723902D01*
X92382551Y-92878233D01*
X92597099Y-92992911D01*
X92829898Y-93063530D01*
X93011335Y-93081400D01*
X93932665Y-93081400D01*
X94114102Y-93063530D01*
X94346901Y-92992911D01*
X94561449Y-92878233D01*
X94749502Y-92723902D01*
X94903833Y-92535849D01*
X95018511Y-92321301D01*
X95089130Y-92088502D01*
X95112975Y-91846400D01*
X95089130Y-91604298D01*
X95018511Y-91371499D01*
X94903833Y-91156951D01*
X94749502Y-90968898D01*
X94561449Y-90814567D01*
X94346901Y-90699889D01*
X94114102Y-90629270D01*
X93932665Y-90611400D01*
X93011335Y-90611400D01*
X92829898Y-90629270D01*
X92597099Y-90699889D01*
X92382551Y-90814567D01*
X92194498Y-90968898D01*
X92115629Y-91065000D01*
X91968043Y-91065000D01*
X91864637Y-90910241D01*
X91664759Y-90710363D01*
X91432241Y-90555000D01*
X91664759Y-90399637D01*
X91864637Y-90199759D01*
X91953744Y-90066400D01*
X92098067Y-90066400D01*
X92194498Y-90183902D01*
X92382551Y-90338233D01*
X92597099Y-90452911D01*
X92829898Y-90523530D01*
X93011335Y-90541400D01*
X93932665Y-90541400D01*
X94114102Y-90523530D01*
X94346901Y-90452911D01*
X94561449Y-90338233D01*
X94749502Y-90183902D01*
X94903833Y-89995849D01*
X95018511Y-89781301D01*
X95089130Y-89548502D01*
X95112975Y-89306400D01*
X95089130Y-89064298D01*
X95018511Y-88831499D01*
X94903833Y-88616951D01*
X94749502Y-88428898D01*
X94561449Y-88274567D01*
X94346901Y-88159889D01*
X94114102Y-88089270D01*
X93932665Y-88071400D01*
X93011335Y-88071400D01*
X92829898Y-88089270D01*
X92597099Y-88159889D01*
X92382551Y-88274567D01*
X92194498Y-88428898D01*
X92098067Y-88546400D01*
X91982342Y-88546400D01*
X91864637Y-88370241D01*
X91664759Y-88170363D01*
X91432241Y-88015000D01*
X91664759Y-87859637D01*
X91864637Y-87659759D01*
X91968043Y-87505000D01*
X92080504Y-87505000D01*
X92194498Y-87643902D01*
X92382551Y-87798233D01*
X92597099Y-87912911D01*
X92829898Y-87983530D01*
X93011335Y-88001400D01*
X93932665Y-88001400D01*
X94114102Y-87983530D01*
X94346901Y-87912911D01*
X94561449Y-87798233D01*
X94749502Y-87643902D01*
X94903833Y-87455849D01*
X95018511Y-87241301D01*
X95089130Y-87008502D01*
X95112975Y-86766400D01*
X95089130Y-86524298D01*
X95018511Y-86291499D01*
X94903833Y-86076951D01*
X94749502Y-85888898D01*
X94561449Y-85734567D01*
X94346901Y-85619889D01*
X94114102Y-85549270D01*
X93932665Y-85531400D01*
X93011335Y-85531400D01*
X92829898Y-85549270D01*
X92597099Y-85619889D01*
X92382551Y-85734567D01*
X92194498Y-85888898D01*
X92115629Y-85985000D01*
X91968043Y-85985000D01*
X91864637Y-85830241D01*
X91664759Y-85630363D01*
X91432241Y-85475000D01*
X91664759Y-85319637D01*
X91864637Y-85119759D01*
X91953744Y-84986400D01*
X92098067Y-84986400D01*
X92194498Y-85103902D01*
X92382551Y-85258233D01*
X92597099Y-85372911D01*
X92829898Y-85443530D01*
X93011335Y-85461400D01*
X93932665Y-85461400D01*
X94114102Y-85443530D01*
X94346901Y-85372911D01*
X94561449Y-85258233D01*
X94749502Y-85103902D01*
X94903833Y-84915849D01*
X95018511Y-84701301D01*
X95089130Y-84468502D01*
X95112975Y-84226400D01*
X95089130Y-83984298D01*
X95018511Y-83751499D01*
X94903833Y-83536951D01*
X94749502Y-83348898D01*
X94561449Y-83194567D01*
X94346901Y-83079889D01*
X94114102Y-83009270D01*
X93932665Y-82991400D01*
X93011335Y-82991400D01*
X92829898Y-83009270D01*
X92597099Y-83079889D01*
X92382551Y-83194567D01*
X92194498Y-83348898D01*
X92098067Y-83466400D01*
X91982342Y-83466400D01*
X91864637Y-83290241D01*
X91664759Y-83090363D01*
X91432241Y-82935000D01*
X91664759Y-82779637D01*
X91864637Y-82579759D01*
X91968043Y-82425000D01*
X92080504Y-82425000D01*
X92194498Y-82563902D01*
X92382551Y-82718233D01*
X92597099Y-82832911D01*
X92829898Y-82903530D01*
X93011335Y-82921400D01*
X93932665Y-82921400D01*
X94114102Y-82903530D01*
X94346901Y-82832911D01*
X94561449Y-82718233D01*
X94749502Y-82563902D01*
X94903833Y-82375849D01*
X95018511Y-82161301D01*
X95089130Y-81928502D01*
X95112975Y-81686400D01*
X95089130Y-81444298D01*
X95018511Y-81211499D01*
X94903833Y-80996951D01*
X94749502Y-80808898D01*
X94561449Y-80654567D01*
X94346901Y-80539889D01*
X94114102Y-80469270D01*
X93932665Y-80451400D01*
X93011335Y-80451400D01*
X92829898Y-80469270D01*
X92597099Y-80539889D01*
X92382551Y-80654567D01*
X92194498Y-80808898D01*
X92115629Y-80905000D01*
X91968043Y-80905000D01*
X91864637Y-80750241D01*
X91664759Y-80550363D01*
X91432241Y-80395000D01*
X91664759Y-80239637D01*
X91864637Y-80039759D01*
X91953744Y-79906400D01*
X92098067Y-79906400D01*
X92194498Y-80023902D01*
X92382551Y-80178233D01*
X92597099Y-80292911D01*
X92829898Y-80363530D01*
X93011335Y-80381400D01*
X93932665Y-80381400D01*
X94114102Y-80363530D01*
X94346901Y-80292911D01*
X94561449Y-80178233D01*
X94749502Y-80023902D01*
X94903833Y-79835849D01*
X95018511Y-79621301D01*
X95089130Y-79388502D01*
X95112975Y-79146400D01*
X95089130Y-78904298D01*
X95018511Y-78671499D01*
X94903833Y-78456951D01*
X94749502Y-78268898D01*
X94561449Y-78114567D01*
X94346901Y-77999889D01*
X94114102Y-77929270D01*
X93932665Y-77911400D01*
X93011335Y-77911400D01*
X92829898Y-77929270D01*
X92597099Y-77999889D01*
X92382551Y-78114567D01*
X92194498Y-78268898D01*
X92098067Y-78386400D01*
X91982342Y-78386400D01*
X91864637Y-78210241D01*
X91664759Y-78010363D01*
X91432241Y-77855000D01*
X91664759Y-77699637D01*
X91864637Y-77499759D01*
X91968043Y-77345000D01*
X92080504Y-77345000D01*
X92194498Y-77483902D01*
X92382551Y-77638233D01*
X92597099Y-77752911D01*
X92829898Y-77823530D01*
X93011335Y-77841400D01*
X93932665Y-77841400D01*
X94114102Y-77823530D01*
X94346901Y-77752911D01*
X94561449Y-77638233D01*
X94749502Y-77483902D01*
X94903833Y-77295849D01*
X95018511Y-77081301D01*
X95089130Y-76848502D01*
X95112975Y-76606400D01*
X95089130Y-76364298D01*
X95018511Y-76131499D01*
X94903833Y-75916951D01*
X94749502Y-75728898D01*
X94561449Y-75574567D01*
X94346901Y-75459889D01*
X94114102Y-75389270D01*
X93932665Y-75371400D01*
X93011335Y-75371400D01*
X92829898Y-75389270D01*
X92597099Y-75459889D01*
X92382551Y-75574567D01*
X92194498Y-75728898D01*
X92115629Y-75825000D01*
X91968043Y-75825000D01*
X91864637Y-75670241D01*
X91664759Y-75470363D01*
X91432241Y-75315000D01*
X91664759Y-75159637D01*
X91864637Y-74959759D01*
X91953744Y-74826400D01*
X92098067Y-74826400D01*
X92194498Y-74943902D01*
X92382551Y-75098233D01*
X92597099Y-75212911D01*
X92829898Y-75283530D01*
X93011335Y-75301400D01*
X93932665Y-75301400D01*
X94114102Y-75283530D01*
X94346901Y-75212911D01*
X94561449Y-75098233D01*
X94749502Y-74943902D01*
X94903833Y-74755849D01*
X95018511Y-74541301D01*
X95089130Y-74308502D01*
X95112975Y-74066400D01*
X95089130Y-73824298D01*
X95018511Y-73591499D01*
X94903833Y-73376951D01*
X94749502Y-73188898D01*
X94561449Y-73034567D01*
X94346901Y-72919889D01*
X94114102Y-72849270D01*
X93932665Y-72831400D01*
X93011335Y-72831400D01*
X92829898Y-72849270D01*
X92597099Y-72919889D01*
X92382551Y-73034567D01*
X92194498Y-73188898D01*
X92098067Y-73306400D01*
X91982342Y-73306400D01*
X91864637Y-73130241D01*
X91664759Y-72930363D01*
X91432241Y-72775000D01*
X91664759Y-72619637D01*
X91864637Y-72419759D01*
X91968043Y-72265000D01*
X92080504Y-72265000D01*
X92194498Y-72403902D01*
X92382551Y-72558233D01*
X92597099Y-72672911D01*
X92829898Y-72743530D01*
X93011335Y-72761400D01*
X93932665Y-72761400D01*
X94114102Y-72743530D01*
X94346901Y-72672911D01*
X94561449Y-72558233D01*
X94749502Y-72403902D01*
X94903833Y-72215849D01*
X95018511Y-72001301D01*
X95089130Y-71768502D01*
X95112975Y-71526400D01*
X95089130Y-71284298D01*
X95018511Y-71051499D01*
X94903833Y-70836951D01*
X94749502Y-70648898D01*
X94561449Y-70494567D01*
X94346901Y-70379889D01*
X94114102Y-70309270D01*
X93932665Y-70291400D01*
X93011335Y-70291400D01*
X92829898Y-70309270D01*
X92597099Y-70379889D01*
X92382551Y-70494567D01*
X92194498Y-70648898D01*
X92115629Y-70745000D01*
X91968043Y-70745000D01*
X91864637Y-70590241D01*
X91666039Y-70391643D01*
X91674482Y-70390812D01*
X91794180Y-70354502D01*
X91904494Y-70295537D01*
X92001185Y-70216185D01*
X92080537Y-70119494D01*
X92139502Y-70009180D01*
X92175812Y-69889482D01*
X92180064Y-69846314D01*
X92194498Y-69863902D01*
X92382551Y-70018233D01*
X92597099Y-70132911D01*
X92829898Y-70203530D01*
X93011335Y-70221400D01*
X93932665Y-70221400D01*
X94114102Y-70203530D01*
X94346901Y-70132911D01*
X94561449Y-70018233D01*
X94749502Y-69863902D01*
X94854690Y-69735730D01*
X96295011Y-71176052D01*
G37*
G04 #@! TD.AperFunction*
D19*
X109277011Y-57970811D02*
X109277011Y-67761677D01*
X109172665Y-67751400D01*
X108251335Y-67751400D01*
X108069898Y-67769270D01*
X107837099Y-67839889D01*
X107622551Y-67954567D01*
X107434498Y-68108898D01*
X107338067Y-68226400D01*
X107222342Y-68226400D01*
X107104637Y-68050241D01*
X106904759Y-67850363D01*
X106669727Y-67693320D01*
X106408574Y-67585147D01*
X106185450Y-67540764D01*
X106334013Y-67392201D01*
X106363011Y-67368403D01*
X106457984Y-67252678D01*
X106528556Y-67120649D01*
X106572013Y-66977388D01*
X106583010Y-66865735D01*
X106583010Y-66865726D01*
X106586686Y-66828403D01*
X106583010Y-66791080D01*
X106583010Y-59369027D01*
X106586686Y-59331704D01*
X106583010Y-59294381D01*
X106583010Y-59294371D01*
X106572013Y-59182718D01*
X106528556Y-59039457D01*
X106457985Y-58907429D01*
X106457984Y-58907427D01*
X106386809Y-58820701D01*
X106363011Y-58791703D01*
X106334014Y-58767906D01*
X102385653Y-54819546D01*
X102385653Y-54757408D01*
X102345879Y-54557449D01*
X102273939Y-54383772D01*
X102403937Y-54253774D01*
X102517205Y-54084256D01*
X102595226Y-53895898D01*
X102635000Y-53695939D01*
X102635000Y-53492061D01*
X102629617Y-53465000D01*
X103309289Y-53465000D01*
X103353226Y-53508937D01*
X103522744Y-53622205D01*
X103711102Y-53700226D01*
X103911061Y-53740000D01*
X104114939Y-53740000D01*
X104314898Y-53700226D01*
X104503256Y-53622205D01*
X104672774Y-53508937D01*
X104743956Y-53437755D01*
X109277011Y-57970811D01*
G04 #@! TA.AperFunction,Conductor*
D20*
G36*
X109277011Y-57970811D02*
G01*
X109277011Y-67761677D01*
X109172665Y-67751400D01*
X108251335Y-67751400D01*
X108069898Y-67769270D01*
X107837099Y-67839889D01*
X107622551Y-67954567D01*
X107434498Y-68108898D01*
X107338067Y-68226400D01*
X107222342Y-68226400D01*
X107104637Y-68050241D01*
X106904759Y-67850363D01*
X106669727Y-67693320D01*
X106408574Y-67585147D01*
X106185450Y-67540764D01*
X106334013Y-67392201D01*
X106363011Y-67368403D01*
X106457984Y-67252678D01*
X106528556Y-67120649D01*
X106572013Y-66977388D01*
X106583010Y-66865735D01*
X106583010Y-66865726D01*
X106586686Y-66828403D01*
X106583010Y-66791080D01*
X106583010Y-59369027D01*
X106586686Y-59331704D01*
X106583010Y-59294381D01*
X106583010Y-59294371D01*
X106572013Y-59182718D01*
X106528556Y-59039457D01*
X106457985Y-58907429D01*
X106457984Y-58907427D01*
X106386809Y-58820701D01*
X106363011Y-58791703D01*
X106334014Y-58767906D01*
X102385653Y-54819546D01*
X102385653Y-54757408D01*
X102345879Y-54557449D01*
X102273939Y-54383772D01*
X102403937Y-54253774D01*
X102517205Y-54084256D01*
X102595226Y-53895898D01*
X102635000Y-53695939D01*
X102635000Y-53492061D01*
X102629617Y-53465000D01*
X103309289Y-53465000D01*
X103353226Y-53508937D01*
X103522744Y-53622205D01*
X103711102Y-53700226D01*
X103911061Y-53740000D01*
X104114939Y-53740000D01*
X104314898Y-53700226D01*
X104503256Y-53622205D01*
X104672774Y-53508937D01*
X104743956Y-53437755D01*
X109277011Y-57970811D01*
G37*
G04 #@! TD.AperFunction*
D19*
X83846817Y-44072003D02*
X83870615Y-44101001D01*
X83899613Y-44124799D01*
X83986339Y-44195974D01*
X84074438Y-44243064D01*
X84118369Y-44266546D01*
X84261630Y-44310003D01*
X84373283Y-44321000D01*
X84373293Y-44321000D01*
X84410616Y-44324676D01*
X84447939Y-44321000D01*
X85603289Y-44321000D01*
X85647226Y-44364937D01*
X85816744Y-44478205D01*
X86005102Y-44556226D01*
X86205061Y-44596000D01*
X86272001Y-44596000D01*
X86272001Y-44868588D01*
X86268324Y-44905920D01*
X86272001Y-44943253D01*
X86280727Y-45031843D01*
X86282998Y-45054905D01*
X86326454Y-45198166D01*
X86397026Y-45330196D01*
X86468201Y-45416922D01*
X86492000Y-45445921D01*
X86520998Y-45469719D01*
X92185088Y-51133810D01*
X92177226Y-51139063D01*
X92033063Y-51283226D01*
X91919795Y-51452744D01*
X91841774Y-51641102D01*
X91802000Y-51841061D01*
X91802000Y-52044939D01*
X91841774Y-52244898D01*
X91919795Y-52433256D01*
X92033063Y-52602774D01*
X92077001Y-52646712D01*
X92077000Y-54160289D01*
X92033063Y-54204226D01*
X91919795Y-54373744D01*
X91841774Y-54562102D01*
X91802000Y-54762061D01*
X91802000Y-54965939D01*
X91841774Y-55165898D01*
X91919795Y-55354256D01*
X92033063Y-55523774D01*
X92177226Y-55667937D01*
X92346744Y-55781205D01*
X92535102Y-55859226D01*
X92735061Y-55899000D01*
X92938939Y-55899000D01*
X93138898Y-55859226D01*
X93327256Y-55781205D01*
X93496774Y-55667937D01*
X93640937Y-55523774D01*
X93754205Y-55354256D01*
X93832226Y-55165898D01*
X93872000Y-54965939D01*
X93872000Y-54762061D01*
X93832226Y-54562102D01*
X93754205Y-54373744D01*
X93640937Y-54204226D01*
X93597000Y-54160289D01*
X93597000Y-52646711D01*
X93640937Y-52602774D01*
X93646190Y-52594912D01*
X93982000Y-52930722D01*
X93982001Y-56573288D01*
X93938063Y-56617226D01*
X93824795Y-56786744D01*
X93746774Y-56975102D01*
X93707000Y-57175061D01*
X93707000Y-57378939D01*
X93746774Y-57578898D01*
X93824795Y-57767256D01*
X93938063Y-57936774D01*
X94015743Y-58014454D01*
X90981994Y-61048203D01*
X90952996Y-61072001D01*
X90929198Y-61100999D01*
X90929197Y-61101000D01*
X90858022Y-61187726D01*
X90787450Y-61319756D01*
X90785826Y-61325111D01*
X90743994Y-61463016D01*
X90742223Y-61480997D01*
X90729320Y-61612002D01*
X90732997Y-61649334D01*
X90732996Y-65261912D01*
X90729320Y-65299235D01*
X90732996Y-65336557D01*
X90732996Y-65336567D01*
X90743993Y-65448220D01*
X90773820Y-65546547D01*
X90787450Y-65591481D01*
X90858022Y-65723511D01*
X90893132Y-65766292D01*
X90952995Y-65839236D01*
X90981999Y-65863039D01*
X92883000Y-67764040D01*
X92829898Y-67769270D01*
X92597099Y-67839889D01*
X92382551Y-67954567D01*
X92194498Y-68108898D01*
X92183827Y-68121900D01*
X92175812Y-68040518D01*
X92139502Y-67920820D01*
X92080537Y-67810506D01*
X92001185Y-67713815D01*
X91904494Y-67634463D01*
X91794180Y-67575498D01*
X91674482Y-67539188D01*
X91550000Y-67526928D01*
X90384999Y-67526928D01*
X90384999Y-64327196D01*
X90389280Y-64283730D01*
X90384999Y-64240264D01*
X90384999Y-64240254D01*
X90372194Y-64110241D01*
X90321588Y-63943418D01*
X90239410Y-63789672D01*
X90210304Y-63754207D01*
X90156531Y-63688684D01*
X90156529Y-63688682D01*
X90128816Y-63654914D01*
X90095048Y-63627201D01*
X82918990Y-56451144D01*
X82918990Y-43144176D01*
X83846817Y-44072003D01*
G04 #@! TA.AperFunction,Conductor*
D20*
G36*
X83846817Y-44072003D02*
G01*
X83870615Y-44101001D01*
X83899613Y-44124799D01*
X83986339Y-44195974D01*
X84074438Y-44243064D01*
X84118369Y-44266546D01*
X84261630Y-44310003D01*
X84373283Y-44321000D01*
X84373293Y-44321000D01*
X84410616Y-44324676D01*
X84447939Y-44321000D01*
X85603289Y-44321000D01*
X85647226Y-44364937D01*
X85816744Y-44478205D01*
X86005102Y-44556226D01*
X86205061Y-44596000D01*
X86272001Y-44596000D01*
X86272001Y-44868588D01*
X86268324Y-44905920D01*
X86272001Y-44943253D01*
X86280727Y-45031843D01*
X86282998Y-45054905D01*
X86326454Y-45198166D01*
X86397026Y-45330196D01*
X86468201Y-45416922D01*
X86492000Y-45445921D01*
X86520998Y-45469719D01*
X92185088Y-51133810D01*
X92177226Y-51139063D01*
X92033063Y-51283226D01*
X91919795Y-51452744D01*
X91841774Y-51641102D01*
X91802000Y-51841061D01*
X91802000Y-52044939D01*
X91841774Y-52244898D01*
X91919795Y-52433256D01*
X92033063Y-52602774D01*
X92077001Y-52646712D01*
X92077000Y-54160289D01*
X92033063Y-54204226D01*
X91919795Y-54373744D01*
X91841774Y-54562102D01*
X91802000Y-54762061D01*
X91802000Y-54965939D01*
X91841774Y-55165898D01*
X91919795Y-55354256D01*
X92033063Y-55523774D01*
X92177226Y-55667937D01*
X92346744Y-55781205D01*
X92535102Y-55859226D01*
X92735061Y-55899000D01*
X92938939Y-55899000D01*
X93138898Y-55859226D01*
X93327256Y-55781205D01*
X93496774Y-55667937D01*
X93640937Y-55523774D01*
X93754205Y-55354256D01*
X93832226Y-55165898D01*
X93872000Y-54965939D01*
X93872000Y-54762061D01*
X93832226Y-54562102D01*
X93754205Y-54373744D01*
X93640937Y-54204226D01*
X93597000Y-54160289D01*
X93597000Y-52646711D01*
X93640937Y-52602774D01*
X93646190Y-52594912D01*
X93982000Y-52930722D01*
X93982001Y-56573288D01*
X93938063Y-56617226D01*
X93824795Y-56786744D01*
X93746774Y-56975102D01*
X93707000Y-57175061D01*
X93707000Y-57378939D01*
X93746774Y-57578898D01*
X93824795Y-57767256D01*
X93938063Y-57936774D01*
X94015743Y-58014454D01*
X90981994Y-61048203D01*
X90952996Y-61072001D01*
X90929198Y-61100999D01*
X90929197Y-61101000D01*
X90858022Y-61187726D01*
X90787450Y-61319756D01*
X90785826Y-61325111D01*
X90743994Y-61463016D01*
X90742223Y-61480997D01*
X90729320Y-61612002D01*
X90732997Y-61649334D01*
X90732996Y-65261912D01*
X90729320Y-65299235D01*
X90732996Y-65336557D01*
X90732996Y-65336567D01*
X90743993Y-65448220D01*
X90773820Y-65546547D01*
X90787450Y-65591481D01*
X90858022Y-65723511D01*
X90893132Y-65766292D01*
X90952995Y-65839236D01*
X90981999Y-65863039D01*
X92883000Y-67764040D01*
X92829898Y-67769270D01*
X92597099Y-67839889D01*
X92382551Y-67954567D01*
X92194498Y-68108898D01*
X92183827Y-68121900D01*
X92175812Y-68040518D01*
X92139502Y-67920820D01*
X92080537Y-67810506D01*
X92001185Y-67713815D01*
X91904494Y-67634463D01*
X91794180Y-67575498D01*
X91674482Y-67539188D01*
X91550000Y-67526928D01*
X90384999Y-67526928D01*
X90384999Y-64327196D01*
X90389280Y-64283730D01*
X90384999Y-64240264D01*
X90384999Y-64240254D01*
X90372194Y-64110241D01*
X90321588Y-63943418D01*
X90239410Y-63789672D01*
X90210304Y-63754207D01*
X90156531Y-63688684D01*
X90156529Y-63688682D01*
X90128816Y-63654914D01*
X90095048Y-63627201D01*
X82918990Y-56451144D01*
X82918990Y-43144176D01*
X83846817Y-44072003D01*
G37*
G04 #@! TD.AperFunction*
D19*
X99162226Y-55159937D02*
X99331744Y-55273205D01*
X99520102Y-55351226D01*
X99720061Y-55391000D01*
X99782199Y-55391000D01*
X104613001Y-60221803D01*
X104613002Y-65259000D01*
X104546061Y-65259000D01*
X104346102Y-65298774D01*
X104157744Y-65376795D01*
X103988226Y-65490063D01*
X103944289Y-65534000D01*
X94019302Y-65534000D01*
X92977997Y-64492696D01*
X92977997Y-62933711D01*
X93021934Y-62889774D01*
X93135202Y-62720256D01*
X93213223Y-62531898D01*
X93252997Y-62331939D01*
X93252997Y-62128061D01*
X93213223Y-61928102D01*
X93135202Y-61739744D01*
X93021934Y-61570226D01*
X92877771Y-61426063D01*
X92803417Y-61376382D01*
X99091044Y-55088755D01*
X99162226Y-55159937D01*
G04 #@! TA.AperFunction,Conductor*
D20*
G36*
X99162226Y-55159937D02*
G01*
X99331744Y-55273205D01*
X99520102Y-55351226D01*
X99720061Y-55391000D01*
X99782199Y-55391000D01*
X104613001Y-60221803D01*
X104613002Y-65259000D01*
X104546061Y-65259000D01*
X104346102Y-65298774D01*
X104157744Y-65376795D01*
X103988226Y-65490063D01*
X103944289Y-65534000D01*
X94019302Y-65534000D01*
X92977997Y-64492696D01*
X92977997Y-62933711D01*
X93021934Y-62889774D01*
X93135202Y-62720256D01*
X93213223Y-62531898D01*
X93252997Y-62331939D01*
X93252997Y-62128061D01*
X93213223Y-61928102D01*
X93135202Y-61739744D01*
X93021934Y-61570226D01*
X92877771Y-61426063D01*
X92803417Y-61376382D01*
X99091044Y-55088755D01*
X99162226Y-55159937D01*
G37*
G04 #@! TD.AperFunction*
D19*
X97517000Y-34442061D02*
X97517000Y-34519774D01*
X97486412Y-34577000D01*
X97446455Y-34651753D01*
X97402998Y-34795014D01*
X97392001Y-34906667D01*
X97392001Y-34906677D01*
X97388325Y-34943999D01*
X97392001Y-34981322D01*
X97392002Y-36361289D01*
X97348064Y-36405227D01*
X97234796Y-36574745D01*
X97156775Y-36763103D01*
X97117001Y-36963062D01*
X97117001Y-37166940D01*
X97156775Y-37366899D01*
X97234796Y-37555257D01*
X97348064Y-37724775D01*
X97492227Y-37868938D01*
X97661745Y-37982206D01*
X97850103Y-38060227D01*
X98050062Y-38100001D01*
X98055246Y-38100001D01*
X98025000Y-38252061D01*
X98025000Y-38455939D01*
X98064774Y-38655898D01*
X98142795Y-38844256D01*
X98256063Y-39013774D01*
X98400226Y-39157937D01*
X98569744Y-39271205D01*
X98758102Y-39349226D01*
X98958061Y-39389000D01*
X99161939Y-39389000D01*
X99361898Y-39349226D01*
X99432017Y-39320182D01*
X99020199Y-39732000D01*
X98958061Y-39732000D01*
X98758102Y-39771774D01*
X98569744Y-39849795D01*
X98400226Y-39963063D01*
X98256063Y-40107226D01*
X98142795Y-40276744D01*
X98064774Y-40465102D01*
X98025000Y-40665061D01*
X98025000Y-40868939D01*
X98064774Y-41068898D01*
X98142795Y-41257256D01*
X98256063Y-41426774D01*
X98400226Y-41570937D01*
X98569744Y-41684205D01*
X98758102Y-41762226D01*
X98958061Y-41802000D01*
X99161939Y-41802000D01*
X99361898Y-41762226D01*
X99550256Y-41684205D01*
X99719774Y-41570937D01*
X99863937Y-41426774D01*
X99977205Y-41257256D01*
X100055226Y-41068898D01*
X100095000Y-40868939D01*
X100095000Y-40806801D01*
X100893001Y-40008801D01*
X100893001Y-40401668D01*
X100889324Y-40439000D01*
X100893001Y-40476333D01*
X100903998Y-40587986D01*
X100913107Y-40618015D01*
X100947454Y-40731246D01*
X101018026Y-40863276D01*
X101075023Y-40932726D01*
X101113000Y-40979001D01*
X101141998Y-41002799D01*
X101771500Y-41632302D01*
X101771500Y-41694439D01*
X101811274Y-41894398D01*
X101889295Y-42082756D01*
X102002563Y-42252274D01*
X102146726Y-42396437D01*
X102316244Y-42509705D01*
X102504602Y-42587726D01*
X102704561Y-42627500D01*
X102908439Y-42627500D01*
X103108398Y-42587726D01*
X103296756Y-42509705D01*
X103466274Y-42396437D01*
X103610437Y-42252274D01*
X103723705Y-42082756D01*
X103801726Y-41894398D01*
X103841500Y-41694439D01*
X103841500Y-41490561D01*
X103801726Y-41290602D01*
X103723705Y-41102244D01*
X103610437Y-40932726D01*
X103466274Y-40788563D01*
X103418235Y-40756465D01*
X103529774Y-40681937D01*
X103673937Y-40537774D01*
X103787205Y-40368256D01*
X103865226Y-40179898D01*
X103905000Y-39979939D01*
X103905000Y-39917802D01*
X104360009Y-39462794D01*
X104389002Y-39439000D01*
X104412796Y-39410007D01*
X104412800Y-39410003D01*
X104483974Y-39323276D01*
X104483975Y-39323275D01*
X104554547Y-39191246D01*
X104598004Y-39047985D01*
X104609001Y-38936332D01*
X104609001Y-38936323D01*
X104612677Y-38899000D01*
X104609001Y-38861677D01*
X104609001Y-35579000D01*
X104749939Y-35579000D01*
X104949898Y-35539226D01*
X105138256Y-35461205D01*
X105307774Y-35347937D01*
X105429588Y-35226123D01*
X105491010Y-35374411D01*
X105653525Y-35617632D01*
X105860368Y-35824475D01*
X106103589Y-35986990D01*
X106373842Y-36098932D01*
X106660740Y-36156000D01*
X106953260Y-36156000D01*
X107240158Y-36098932D01*
X107510411Y-35986990D01*
X107753632Y-35824475D01*
X107960475Y-35617632D01*
X107984618Y-35581500D01*
X108527822Y-35581500D01*
X108617377Y-35690623D01*
X108750058Y-35799512D01*
X108901433Y-35880423D01*
X109065684Y-35930248D01*
X109236500Y-35947072D01*
X109711500Y-35947072D01*
X109882316Y-35930248D01*
X110046567Y-35880423D01*
X110084000Y-35860415D01*
X110084000Y-56628196D01*
X101077806Y-47622003D01*
X101054003Y-47592999D01*
X100938278Y-47498026D01*
X100806249Y-47427454D01*
X100662988Y-47383997D01*
X100551335Y-47373000D01*
X100551324Y-47373000D01*
X100514002Y-47369324D01*
X100476680Y-47373000D01*
X96176333Y-47373000D01*
X96139000Y-47369323D01*
X96101667Y-47373000D01*
X95990014Y-47383997D01*
X95846753Y-47427454D01*
X95714724Y-47498026D01*
X95598999Y-47592999D01*
X95575201Y-47621997D01*
X94448199Y-48749000D01*
X94386061Y-48749000D01*
X94186102Y-48788774D01*
X93997744Y-48866795D01*
X93828226Y-48980063D01*
X93684063Y-49124226D01*
X93570795Y-49293744D01*
X93492774Y-49482102D01*
X93464009Y-49626717D01*
X92764679Y-48927387D01*
X92777494Y-48920537D01*
X92874185Y-48841185D01*
X92953537Y-48744494D01*
X93012502Y-48634180D01*
X93048812Y-48514482D01*
X93061072Y-48390000D01*
X93058000Y-48138250D01*
X92899250Y-47979500D01*
X92075000Y-47979500D01*
X92075000Y-47999500D01*
X91836791Y-47999500D01*
X91821000Y-47983709D01*
X91821000Y-47979500D01*
X91816791Y-47979500D01*
X91801000Y-47963709D01*
X91801000Y-47725500D01*
X91821000Y-47725500D01*
X91821000Y-47705500D01*
X92075000Y-47705500D01*
X92075000Y-47725500D01*
X92899250Y-47725500D01*
X93058000Y-47566750D01*
X93061072Y-47315000D01*
X93048812Y-47190518D01*
X93012502Y-47070820D01*
X92953537Y-46960506D01*
X92914226Y-46912606D01*
X92994423Y-46762567D01*
X93044248Y-46598316D01*
X93061072Y-46427500D01*
X93061072Y-45827500D01*
X93044248Y-45656684D01*
X92994423Y-45492433D01*
X92913512Y-45341058D01*
X92910918Y-45337897D01*
X92943226Y-45259898D01*
X92983000Y-45059939D01*
X92983000Y-44856061D01*
X92943226Y-44656102D01*
X92865205Y-44467744D01*
X92751937Y-44298226D01*
X92708000Y-44254289D01*
X92708000Y-40889496D01*
X92801705Y-40749256D01*
X92879726Y-40560898D01*
X92919500Y-40360939D01*
X92919500Y-40157061D01*
X92879726Y-39957102D01*
X92801705Y-39768744D01*
X92688437Y-39599226D01*
X92544274Y-39455063D01*
X92374756Y-39341795D01*
X92186398Y-39263774D01*
X91986439Y-39224000D01*
X91888311Y-39224000D01*
X94955557Y-36156755D01*
X95040000Y-36165072D01*
X95241750Y-36162000D01*
X95400500Y-36003250D01*
X95400500Y-35179000D01*
X95654500Y-35179000D01*
X95654500Y-36003250D01*
X95813250Y-36162000D01*
X96015000Y-36165072D01*
X96139482Y-36152812D01*
X96259180Y-36116502D01*
X96369494Y-36057537D01*
X96466185Y-35978185D01*
X96545537Y-35881494D01*
X96604502Y-35771180D01*
X96640812Y-35651482D01*
X96653072Y-35527000D01*
X96650000Y-35337750D01*
X96491250Y-35179000D01*
X95654500Y-35179000D01*
X95400500Y-35179000D01*
X95380500Y-35179000D01*
X95380500Y-34925000D01*
X95400500Y-34925000D01*
X95400500Y-34905000D01*
X95654500Y-34905000D01*
X95654500Y-34925000D01*
X96491250Y-34925000D01*
X96650000Y-34766250D01*
X96653072Y-34577000D01*
X96648748Y-34533101D01*
X96799061Y-34563000D01*
X97002939Y-34563000D01*
X97202898Y-34523226D01*
X97391256Y-34445205D01*
X97535553Y-34348789D01*
X97517000Y-34442061D01*
G04 #@! TA.AperFunction,Conductor*
D20*
G36*
X97517000Y-34442061D02*
G01*
X97517000Y-34519774D01*
X97486412Y-34577000D01*
X97446455Y-34651753D01*
X97402998Y-34795014D01*
X97392001Y-34906667D01*
X97392001Y-34906677D01*
X97388325Y-34943999D01*
X97392001Y-34981322D01*
X97392002Y-36361289D01*
X97348064Y-36405227D01*
X97234796Y-36574745D01*
X97156775Y-36763103D01*
X97117001Y-36963062D01*
X97117001Y-37166940D01*
X97156775Y-37366899D01*
X97234796Y-37555257D01*
X97348064Y-37724775D01*
X97492227Y-37868938D01*
X97661745Y-37982206D01*
X97850103Y-38060227D01*
X98050062Y-38100001D01*
X98055246Y-38100001D01*
X98025000Y-38252061D01*
X98025000Y-38455939D01*
X98064774Y-38655898D01*
X98142795Y-38844256D01*
X98256063Y-39013774D01*
X98400226Y-39157937D01*
X98569744Y-39271205D01*
X98758102Y-39349226D01*
X98958061Y-39389000D01*
X99161939Y-39389000D01*
X99361898Y-39349226D01*
X99432017Y-39320182D01*
X99020199Y-39732000D01*
X98958061Y-39732000D01*
X98758102Y-39771774D01*
X98569744Y-39849795D01*
X98400226Y-39963063D01*
X98256063Y-40107226D01*
X98142795Y-40276744D01*
X98064774Y-40465102D01*
X98025000Y-40665061D01*
X98025000Y-40868939D01*
X98064774Y-41068898D01*
X98142795Y-41257256D01*
X98256063Y-41426774D01*
X98400226Y-41570937D01*
X98569744Y-41684205D01*
X98758102Y-41762226D01*
X98958061Y-41802000D01*
X99161939Y-41802000D01*
X99361898Y-41762226D01*
X99550256Y-41684205D01*
X99719774Y-41570937D01*
X99863937Y-41426774D01*
X99977205Y-41257256D01*
X100055226Y-41068898D01*
X100095000Y-40868939D01*
X100095000Y-40806801D01*
X100893001Y-40008801D01*
X100893001Y-40401668D01*
X100889324Y-40439000D01*
X100893001Y-40476333D01*
X100903998Y-40587986D01*
X100913107Y-40618015D01*
X100947454Y-40731246D01*
X101018026Y-40863276D01*
X101075023Y-40932726D01*
X101113000Y-40979001D01*
X101141998Y-41002799D01*
X101771500Y-41632302D01*
X101771500Y-41694439D01*
X101811274Y-41894398D01*
X101889295Y-42082756D01*
X102002563Y-42252274D01*
X102146726Y-42396437D01*
X102316244Y-42509705D01*
X102504602Y-42587726D01*
X102704561Y-42627500D01*
X102908439Y-42627500D01*
X103108398Y-42587726D01*
X103296756Y-42509705D01*
X103466274Y-42396437D01*
X103610437Y-42252274D01*
X103723705Y-42082756D01*
X103801726Y-41894398D01*
X103841500Y-41694439D01*
X103841500Y-41490561D01*
X103801726Y-41290602D01*
X103723705Y-41102244D01*
X103610437Y-40932726D01*
X103466274Y-40788563D01*
X103418235Y-40756465D01*
X103529774Y-40681937D01*
X103673937Y-40537774D01*
X103787205Y-40368256D01*
X103865226Y-40179898D01*
X103905000Y-39979939D01*
X103905000Y-39917802D01*
X104360009Y-39462794D01*
X104389002Y-39439000D01*
X104412796Y-39410007D01*
X104412800Y-39410003D01*
X104483974Y-39323276D01*
X104483975Y-39323275D01*
X104554547Y-39191246D01*
X104598004Y-39047985D01*
X104609001Y-38936332D01*
X104609001Y-38936323D01*
X104612677Y-38899000D01*
X104609001Y-38861677D01*
X104609001Y-35579000D01*
X104749939Y-35579000D01*
X104949898Y-35539226D01*
X105138256Y-35461205D01*
X105307774Y-35347937D01*
X105429588Y-35226123D01*
X105491010Y-35374411D01*
X105653525Y-35617632D01*
X105860368Y-35824475D01*
X106103589Y-35986990D01*
X106373842Y-36098932D01*
X106660740Y-36156000D01*
X106953260Y-36156000D01*
X107240158Y-36098932D01*
X107510411Y-35986990D01*
X107753632Y-35824475D01*
X107960475Y-35617632D01*
X107984618Y-35581500D01*
X108527822Y-35581500D01*
X108617377Y-35690623D01*
X108750058Y-35799512D01*
X108901433Y-35880423D01*
X109065684Y-35930248D01*
X109236500Y-35947072D01*
X109711500Y-35947072D01*
X109882316Y-35930248D01*
X110046567Y-35880423D01*
X110084000Y-35860415D01*
X110084000Y-56628196D01*
X101077806Y-47622003D01*
X101054003Y-47592999D01*
X100938278Y-47498026D01*
X100806249Y-47427454D01*
X100662988Y-47383997D01*
X100551335Y-47373000D01*
X100551324Y-47373000D01*
X100514002Y-47369324D01*
X100476680Y-47373000D01*
X96176333Y-47373000D01*
X96139000Y-47369323D01*
X96101667Y-47373000D01*
X95990014Y-47383997D01*
X95846753Y-47427454D01*
X95714724Y-47498026D01*
X95598999Y-47592999D01*
X95575201Y-47621997D01*
X94448199Y-48749000D01*
X94386061Y-48749000D01*
X94186102Y-48788774D01*
X93997744Y-48866795D01*
X93828226Y-48980063D01*
X93684063Y-49124226D01*
X93570795Y-49293744D01*
X93492774Y-49482102D01*
X93464009Y-49626717D01*
X92764679Y-48927387D01*
X92777494Y-48920537D01*
X92874185Y-48841185D01*
X92953537Y-48744494D01*
X93012502Y-48634180D01*
X93048812Y-48514482D01*
X93061072Y-48390000D01*
X93058000Y-48138250D01*
X92899250Y-47979500D01*
X92075000Y-47979500D01*
X92075000Y-47999500D01*
X91836791Y-47999500D01*
X91821000Y-47983709D01*
X91821000Y-47979500D01*
X91816791Y-47979500D01*
X91801000Y-47963709D01*
X91801000Y-47725500D01*
X91821000Y-47725500D01*
X91821000Y-47705500D01*
X92075000Y-47705500D01*
X92075000Y-47725500D01*
X92899250Y-47725500D01*
X93058000Y-47566750D01*
X93061072Y-47315000D01*
X93048812Y-47190518D01*
X93012502Y-47070820D01*
X92953537Y-46960506D01*
X92914226Y-46912606D01*
X92994423Y-46762567D01*
X93044248Y-46598316D01*
X93061072Y-46427500D01*
X93061072Y-45827500D01*
X93044248Y-45656684D01*
X92994423Y-45492433D01*
X92913512Y-45341058D01*
X92910918Y-45337897D01*
X92943226Y-45259898D01*
X92983000Y-45059939D01*
X92983000Y-44856061D01*
X92943226Y-44656102D01*
X92865205Y-44467744D01*
X92751937Y-44298226D01*
X92708000Y-44254289D01*
X92708000Y-40889496D01*
X92801705Y-40749256D01*
X92879726Y-40560898D01*
X92919500Y-40360939D01*
X92919500Y-40157061D01*
X92879726Y-39957102D01*
X92801705Y-39768744D01*
X92688437Y-39599226D01*
X92544274Y-39455063D01*
X92374756Y-39341795D01*
X92186398Y-39263774D01*
X91986439Y-39224000D01*
X91888311Y-39224000D01*
X94955557Y-36156755D01*
X95040000Y-36165072D01*
X95241750Y-36162000D01*
X95400500Y-36003250D01*
X95400500Y-35179000D01*
X95654500Y-35179000D01*
X95654500Y-36003250D01*
X95813250Y-36162000D01*
X96015000Y-36165072D01*
X96139482Y-36152812D01*
X96259180Y-36116502D01*
X96369494Y-36057537D01*
X96466185Y-35978185D01*
X96545537Y-35881494D01*
X96604502Y-35771180D01*
X96640812Y-35651482D01*
X96653072Y-35527000D01*
X96650000Y-35337750D01*
X96491250Y-35179000D01*
X95654500Y-35179000D01*
X95400500Y-35179000D01*
X95380500Y-35179000D01*
X95380500Y-34925000D01*
X95400500Y-34925000D01*
X95400500Y-34905000D01*
X95654500Y-34905000D01*
X95654500Y-34925000D01*
X96491250Y-34925000D01*
X96650000Y-34766250D01*
X96653072Y-34577000D01*
X96648748Y-34533101D01*
X96799061Y-34563000D01*
X97002939Y-34563000D01*
X97202898Y-34523226D01*
X97391256Y-34445205D01*
X97535553Y-34348789D01*
X97517000Y-34442061D01*
G37*
G04 #@! TD.AperFunction*
D19*
X95502000Y-56528196D02*
X95502000Y-53465278D01*
X95504823Y-53465000D01*
X98565196Y-53465000D01*
X95502000Y-56528196D01*
G04 #@! TA.AperFunction,Conductor*
D20*
G36*
X95502000Y-56528196D02*
G01*
X95502000Y-53465278D01*
X95504823Y-53465000D01*
X98565196Y-53465000D01*
X95502000Y-56528196D01*
G37*
G04 #@! TD.AperFunction*
D19*
X103251201Y-51945000D02*
X95782292Y-51945000D01*
X94645283Y-50807991D01*
X94789898Y-50779226D01*
X94978256Y-50701205D01*
X95147774Y-50587937D01*
X95291937Y-50443774D01*
X95405205Y-50274256D01*
X95483226Y-50085898D01*
X95523000Y-49885939D01*
X95523000Y-49823801D01*
X96453802Y-48893000D01*
X100199201Y-48893000D01*
X103251201Y-51945000D01*
G04 #@! TA.AperFunction,Conductor*
D20*
G36*
X103251201Y-51945000D02*
G01*
X95782292Y-51945000D01*
X94645283Y-50807991D01*
X94789898Y-50779226D01*
X94978256Y-50701205D01*
X95147774Y-50587937D01*
X95291937Y-50443774D01*
X95405205Y-50274256D01*
X95483226Y-50085898D01*
X95523000Y-49885939D01*
X95523000Y-49823801D01*
X96453802Y-48893000D01*
X100199201Y-48893000D01*
X103251201Y-51945000D01*
G37*
G04 #@! TD.AperFunction*
D19*
X90849500Y-40360939D02*
X90889274Y-40560898D01*
X90967295Y-40749256D01*
X91080563Y-40918774D01*
X91188001Y-41026212D01*
X91188000Y-44254289D01*
X91144063Y-44298226D01*
X91030795Y-44467744D01*
X90952774Y-44656102D01*
X90913000Y-44856061D01*
X90913000Y-45059939D01*
X90952774Y-45259898D01*
X90985082Y-45337897D01*
X90982488Y-45341058D01*
X90901577Y-45492433D01*
X90851752Y-45656684D01*
X90834928Y-45827500D01*
X90834928Y-46427500D01*
X90851752Y-46598316D01*
X90901577Y-46762567D01*
X90981774Y-46912606D01*
X90942463Y-46960506D01*
X90892072Y-47054780D01*
X88517000Y-44679709D01*
X88517000Y-43786935D01*
X88534602Y-43794226D01*
X88734561Y-43834000D01*
X88938439Y-43834000D01*
X89138398Y-43794226D01*
X89326756Y-43716205D01*
X89496274Y-43602937D01*
X89640437Y-43458774D01*
X89753705Y-43289256D01*
X89831726Y-43100898D01*
X89871500Y-42900939D01*
X89871500Y-42697061D01*
X89831726Y-42497102D01*
X89753705Y-42308744D01*
X89640437Y-42139226D01*
X89596500Y-42095289D01*
X89596500Y-41515811D01*
X90849500Y-40262811D01*
X90849500Y-40360939D01*
G04 #@! TA.AperFunction,Conductor*
D20*
G36*
X90849500Y-40360939D02*
G01*
X90889274Y-40560898D01*
X90967295Y-40749256D01*
X91080563Y-40918774D01*
X91188001Y-41026212D01*
X91188000Y-44254289D01*
X91144063Y-44298226D01*
X91030795Y-44467744D01*
X90952774Y-44656102D01*
X90913000Y-44856061D01*
X90913000Y-45059939D01*
X90952774Y-45259898D01*
X90985082Y-45337897D01*
X90982488Y-45341058D01*
X90901577Y-45492433D01*
X90851752Y-45656684D01*
X90834928Y-45827500D01*
X90834928Y-46427500D01*
X90851752Y-46598316D01*
X90901577Y-46762567D01*
X90981774Y-46912606D01*
X90942463Y-46960506D01*
X90892072Y-47054780D01*
X88517000Y-44679709D01*
X88517000Y-43786935D01*
X88534602Y-43794226D01*
X88734561Y-43834000D01*
X88938439Y-43834000D01*
X89138398Y-43794226D01*
X89326756Y-43716205D01*
X89496274Y-43602937D01*
X89640437Y-43458774D01*
X89753705Y-43289256D01*
X89831726Y-43100898D01*
X89871500Y-42900939D01*
X89871500Y-42697061D01*
X89831726Y-42497102D01*
X89753705Y-42308744D01*
X89640437Y-42139226D01*
X89596500Y-42095289D01*
X89596500Y-41515811D01*
X90849500Y-40262811D01*
X90849500Y-40360939D01*
G37*
G04 #@! TD.AperFunction*
D19*
X66156525Y-26346632D02*
X66363368Y-26553475D01*
X66606589Y-26715990D01*
X66876842Y-26827932D01*
X67163740Y-26885000D01*
X67456260Y-26885000D01*
X67743158Y-26827932D01*
X68013411Y-26715990D01*
X68256632Y-26553475D01*
X68463475Y-26346632D01*
X68580000Y-26172240D01*
X68696525Y-26346632D01*
X68903368Y-26553475D01*
X69146589Y-26715990D01*
X69416842Y-26827932D01*
X69703740Y-26885000D01*
X69996260Y-26885000D01*
X70283158Y-26827932D01*
X70553411Y-26715990D01*
X70796632Y-26553475D01*
X71003475Y-26346632D01*
X71120000Y-26172240D01*
X71236525Y-26346632D01*
X71443368Y-26553475D01*
X71630000Y-26678179D01*
X71630000Y-27775677D01*
X71626324Y-27813000D01*
X71630000Y-27850322D01*
X71630000Y-27850332D01*
X71640997Y-27961985D01*
X71684454Y-28105246D01*
X71755026Y-28237276D01*
X71778282Y-28265613D01*
X71849999Y-28353001D01*
X71879003Y-28376804D01*
X85198000Y-41695802D01*
X85198000Y-41757939D01*
X85237774Y-41957898D01*
X85315795Y-42146256D01*
X85429063Y-42315774D01*
X85573226Y-42459937D01*
X85742744Y-42573205D01*
X85864953Y-42623826D01*
X85816744Y-42643795D01*
X85647226Y-42757063D01*
X85603289Y-42801000D01*
X84725418Y-42801000D01*
X83181808Y-41257391D01*
X83181808Y-41195253D01*
X83142034Y-40995294D01*
X83064013Y-40806936D01*
X82950745Y-40637418D01*
X82806582Y-40493255D01*
X82637064Y-40379987D01*
X82448706Y-40301966D01*
X82248747Y-40262192D01*
X82044869Y-40262192D01*
X81844910Y-40301966D01*
X81656552Y-40379987D01*
X81487034Y-40493255D01*
X81439701Y-40540588D01*
X77015078Y-36115966D01*
X76987361Y-36082193D01*
X76852603Y-35971599D01*
X76698857Y-35889421D01*
X76532034Y-35838815D01*
X76402021Y-35826010D01*
X76402013Y-35826010D01*
X76358544Y-35821729D01*
X76315075Y-35826010D01*
X73907589Y-35826010D01*
X64897002Y-26815424D01*
X64897002Y-26720156D01*
X65126890Y-26841476D01*
X65274099Y-26796825D01*
X65536920Y-26671641D01*
X65770269Y-26497588D01*
X65965178Y-26281355D01*
X66034805Y-26164466D01*
X66156525Y-26346632D01*
G04 #@! TA.AperFunction,Conductor*
D20*
G36*
X66156525Y-26346632D02*
G01*
X66363368Y-26553475D01*
X66606589Y-26715990D01*
X66876842Y-26827932D01*
X67163740Y-26885000D01*
X67456260Y-26885000D01*
X67743158Y-26827932D01*
X68013411Y-26715990D01*
X68256632Y-26553475D01*
X68463475Y-26346632D01*
X68580000Y-26172240D01*
X68696525Y-26346632D01*
X68903368Y-26553475D01*
X69146589Y-26715990D01*
X69416842Y-26827932D01*
X69703740Y-26885000D01*
X69996260Y-26885000D01*
X70283158Y-26827932D01*
X70553411Y-26715990D01*
X70796632Y-26553475D01*
X71003475Y-26346632D01*
X71120000Y-26172240D01*
X71236525Y-26346632D01*
X71443368Y-26553475D01*
X71630000Y-26678179D01*
X71630000Y-27775677D01*
X71626324Y-27813000D01*
X71630000Y-27850322D01*
X71630000Y-27850332D01*
X71640997Y-27961985D01*
X71684454Y-28105246D01*
X71755026Y-28237276D01*
X71778282Y-28265613D01*
X71849999Y-28353001D01*
X71879003Y-28376804D01*
X85198000Y-41695802D01*
X85198000Y-41757939D01*
X85237774Y-41957898D01*
X85315795Y-42146256D01*
X85429063Y-42315774D01*
X85573226Y-42459937D01*
X85742744Y-42573205D01*
X85864953Y-42623826D01*
X85816744Y-42643795D01*
X85647226Y-42757063D01*
X85603289Y-42801000D01*
X84725418Y-42801000D01*
X83181808Y-41257391D01*
X83181808Y-41195253D01*
X83142034Y-40995294D01*
X83064013Y-40806936D01*
X82950745Y-40637418D01*
X82806582Y-40493255D01*
X82637064Y-40379987D01*
X82448706Y-40301966D01*
X82248747Y-40262192D01*
X82044869Y-40262192D01*
X81844910Y-40301966D01*
X81656552Y-40379987D01*
X81487034Y-40493255D01*
X81439701Y-40540588D01*
X77015078Y-36115966D01*
X76987361Y-36082193D01*
X76852603Y-35971599D01*
X76698857Y-35889421D01*
X76532034Y-35838815D01*
X76402021Y-35826010D01*
X76402013Y-35826010D01*
X76358544Y-35821729D01*
X76315075Y-35826010D01*
X73907589Y-35826010D01*
X64897002Y-26815424D01*
X64897002Y-26720156D01*
X65126890Y-26841476D01*
X65274099Y-26796825D01*
X65536920Y-26671641D01*
X65770269Y-26497588D01*
X65965178Y-26281355D01*
X66034805Y-26164466D01*
X66156525Y-26346632D01*
G37*
G04 #@! TD.AperFunction*
D19*
X90214500Y-36614439D02*
X90254274Y-36814398D01*
X90332295Y-37002756D01*
X90445563Y-37172274D01*
X90589726Y-37316437D01*
X90759244Y-37429705D01*
X90947602Y-37507726D01*
X91147561Y-37547500D01*
X91351439Y-37547500D01*
X91431042Y-37531666D01*
X88776166Y-40186543D01*
X88792000Y-40106939D01*
X88792000Y-39903061D01*
X88752226Y-39703102D01*
X88674205Y-39514744D01*
X88560937Y-39345226D01*
X88416774Y-39201063D01*
X88247256Y-39087795D01*
X88058898Y-39009774D01*
X87858939Y-38970000D01*
X87655061Y-38970000D01*
X87455102Y-39009774D01*
X87266744Y-39087795D01*
X87097226Y-39201063D01*
X86953063Y-39345226D01*
X86839795Y-39514744D01*
X86761774Y-39703102D01*
X86722202Y-39902046D01*
X86541744Y-39976795D01*
X86372226Y-40090063D01*
X86228063Y-40234226D01*
X86114795Y-40403744D01*
X86097441Y-40445639D01*
X85728721Y-40076919D01*
X85834256Y-40033205D01*
X86003774Y-39919937D01*
X86147937Y-39775774D01*
X86261205Y-39606256D01*
X86339226Y-39417898D01*
X86379000Y-39217939D01*
X86379000Y-39014061D01*
X86339226Y-38814102D01*
X86261205Y-38625744D01*
X86147937Y-38456226D01*
X86003774Y-38312063D01*
X85834256Y-38198795D01*
X85734314Y-38157397D01*
X85766937Y-38124774D01*
X85880205Y-37955256D01*
X85958226Y-37766898D01*
X85998000Y-37566939D01*
X85998000Y-37504801D01*
X86584048Y-36918754D01*
X86668500Y-36927072D01*
X87268500Y-36927072D01*
X87439316Y-36910248D01*
X87603567Y-36860423D01*
X87754942Y-36779512D01*
X87887623Y-36670623D01*
X87966920Y-36574000D01*
X90214500Y-36574000D01*
X90214500Y-36614439D01*
G04 #@! TA.AperFunction,Conductor*
D20*
G36*
X90214500Y-36614439D02*
G01*
X90254274Y-36814398D01*
X90332295Y-37002756D01*
X90445563Y-37172274D01*
X90589726Y-37316437D01*
X90759244Y-37429705D01*
X90947602Y-37507726D01*
X91147561Y-37547500D01*
X91351439Y-37547500D01*
X91431042Y-37531666D01*
X88776166Y-40186543D01*
X88792000Y-40106939D01*
X88792000Y-39903061D01*
X88752226Y-39703102D01*
X88674205Y-39514744D01*
X88560937Y-39345226D01*
X88416774Y-39201063D01*
X88247256Y-39087795D01*
X88058898Y-39009774D01*
X87858939Y-38970000D01*
X87655061Y-38970000D01*
X87455102Y-39009774D01*
X87266744Y-39087795D01*
X87097226Y-39201063D01*
X86953063Y-39345226D01*
X86839795Y-39514744D01*
X86761774Y-39703102D01*
X86722202Y-39902046D01*
X86541744Y-39976795D01*
X86372226Y-40090063D01*
X86228063Y-40234226D01*
X86114795Y-40403744D01*
X86097441Y-40445639D01*
X85728721Y-40076919D01*
X85834256Y-40033205D01*
X86003774Y-39919937D01*
X86147937Y-39775774D01*
X86261205Y-39606256D01*
X86339226Y-39417898D01*
X86379000Y-39217939D01*
X86379000Y-39014061D01*
X86339226Y-38814102D01*
X86261205Y-38625744D01*
X86147937Y-38456226D01*
X86003774Y-38312063D01*
X85834256Y-38198795D01*
X85734314Y-38157397D01*
X85766937Y-38124774D01*
X85880205Y-37955256D01*
X85958226Y-37766898D01*
X85998000Y-37566939D01*
X85998000Y-37504801D01*
X86584048Y-36918754D01*
X86668500Y-36927072D01*
X87268500Y-36927072D01*
X87439316Y-36910248D01*
X87603567Y-36860423D01*
X87754942Y-36779512D01*
X87887623Y-36670623D01*
X87966920Y-36574000D01*
X90214500Y-36574000D01*
X90214500Y-36614439D01*
G37*
G04 #@! TD.AperFunction*
D19*
X76818199Y-30102003D02*
X76841997Y-30131001D01*
X76870995Y-30154799D01*
X76957721Y-30225974D01*
X77065260Y-30283455D01*
X77089751Y-30296546D01*
X77233012Y-30340003D01*
X77344665Y-30351000D01*
X77344675Y-30351000D01*
X77381998Y-30354676D01*
X77419321Y-30351000D01*
X86287368Y-30351000D01*
X86253774Y-30432102D01*
X86214000Y-30632061D01*
X86214000Y-30694197D01*
X83727002Y-33181197D01*
X83697998Y-33205000D01*
X83649236Y-33264417D01*
X83603025Y-33320725D01*
X83552108Y-33415983D01*
X83532453Y-33452755D01*
X83488996Y-33596016D01*
X83477999Y-33707669D01*
X83477999Y-33707679D01*
X83474323Y-33745001D01*
X83477999Y-33782324D01*
X83478000Y-37826198D01*
X73150000Y-27498199D01*
X73150000Y-26678178D01*
X73296492Y-26580295D01*
X76818199Y-30102003D01*
G04 #@! TA.AperFunction,Conductor*
D20*
G36*
X76818199Y-30102003D02*
G01*
X76841997Y-30131001D01*
X76870995Y-30154799D01*
X76957721Y-30225974D01*
X77065260Y-30283455D01*
X77089751Y-30296546D01*
X77233012Y-30340003D01*
X77344665Y-30351000D01*
X77344675Y-30351000D01*
X77381998Y-30354676D01*
X77419321Y-30351000D01*
X86287368Y-30351000D01*
X86253774Y-30432102D01*
X86214000Y-30632061D01*
X86214000Y-30694197D01*
X83727002Y-33181197D01*
X83697998Y-33205000D01*
X83649236Y-33264417D01*
X83603025Y-33320725D01*
X83552108Y-33415983D01*
X83532453Y-33452755D01*
X83488996Y-33596016D01*
X83477999Y-33707669D01*
X83477999Y-33707679D01*
X83474323Y-33745001D01*
X83477999Y-33782324D01*
X83478000Y-37826198D01*
X73150000Y-27498199D01*
X73150000Y-26678178D01*
X73296492Y-26580295D01*
X76818199Y-30102003D01*
G37*
G04 #@! TD.AperFunction*
D19*
X60440725Y-21050025D02*
X60325000Y-21144998D01*
X60301202Y-21173996D01*
X60103270Y-21371928D01*
X58840000Y-21371928D01*
X58715518Y-21384188D01*
X58595820Y-21420498D01*
X58485506Y-21479463D01*
X58388815Y-21558815D01*
X58309463Y-21655506D01*
X58250498Y-21765820D01*
X58214188Y-21885518D01*
X58201928Y-22010000D01*
X58201928Y-23096494D01*
X57794955Y-23503467D01*
X57761182Y-23531184D01*
X57650588Y-23665943D01*
X57568410Y-23819689D01*
X57548290Y-23886015D01*
X57522186Y-23972068D01*
X57517804Y-23986512D01*
X57504999Y-24116525D01*
X57504999Y-24116532D01*
X57500718Y-24160001D01*
X57504999Y-24203470D01*
X57505000Y-27828020D01*
X57500718Y-27871499D01*
X57517804Y-28044989D01*
X57568411Y-28211812D01*
X57650589Y-28365558D01*
X57733467Y-28466545D01*
X57733470Y-28466548D01*
X57761183Y-28500316D01*
X57794950Y-28528028D01*
X58151928Y-28885006D01*
X58151928Y-29584002D01*
X58168992Y-29757256D01*
X58219528Y-29923852D01*
X58301595Y-30077387D01*
X58412038Y-30211962D01*
X58546613Y-30322405D01*
X58700148Y-30404472D01*
X58866744Y-30455008D01*
X59039998Y-30472072D01*
X60340002Y-30472072D01*
X60513256Y-30455008D01*
X60679852Y-30404472D01*
X60833387Y-30322405D01*
X60967962Y-30211962D01*
X61078405Y-30077387D01*
X61160472Y-29923852D01*
X61211008Y-29757256D01*
X61228072Y-29584002D01*
X61228072Y-28758998D01*
X61211008Y-28585744D01*
X61160472Y-28419148D01*
X61078405Y-28265613D01*
X60967962Y-28131038D01*
X60833387Y-28020595D01*
X60679852Y-27938528D01*
X60513256Y-27887992D01*
X60340002Y-27870928D01*
X59641006Y-27870928D01*
X59274999Y-27504921D01*
X59274999Y-26831544D01*
X59543740Y-26885000D01*
X59836260Y-26885000D01*
X60123158Y-26827932D01*
X60393411Y-26715990D01*
X60636632Y-26553475D01*
X60843475Y-26346632D01*
X60884656Y-26285000D01*
X61035344Y-26285000D01*
X61076525Y-26346632D01*
X61283368Y-26553475D01*
X61526589Y-26715990D01*
X61796842Y-26827932D01*
X62083740Y-26885000D01*
X62376260Y-26885000D01*
X62448961Y-26870539D01*
X72510421Y-36932000D01*
X63523906Y-36932000D01*
X62495530Y-36857382D01*
X61512104Y-36640262D01*
X60570325Y-36283454D01*
X59689905Y-35794424D01*
X58889316Y-35183435D01*
X58185306Y-34463268D01*
X57592630Y-33649013D01*
X57479929Y-33434805D01*
X57279034Y-32959000D01*
X58151928Y-32959000D01*
X58164188Y-33083482D01*
X58200498Y-33203180D01*
X58259463Y-33313494D01*
X58338815Y-33410185D01*
X58435506Y-33489537D01*
X58545820Y-33548502D01*
X58665518Y-33584812D01*
X58790000Y-33597072D01*
X59404250Y-33594000D01*
X59563000Y-33435250D01*
X59563000Y-32423500D01*
X59817000Y-32423500D01*
X59817000Y-33435250D01*
X59975750Y-33594000D01*
X60590000Y-33597072D01*
X60714482Y-33584812D01*
X60834180Y-33548502D01*
X60944494Y-33489537D01*
X61041185Y-33410185D01*
X61120537Y-33313494D01*
X61179502Y-33203180D01*
X61215812Y-33083482D01*
X61228072Y-32959000D01*
X61225000Y-32582250D01*
X61066250Y-32423500D01*
X59817000Y-32423500D01*
X59563000Y-32423500D01*
X58313750Y-32423500D01*
X58155000Y-32582250D01*
X58151928Y-32959000D01*
X57279034Y-32959000D01*
X56784199Y-31787021D01*
X56754039Y-31634000D01*
X58151928Y-31634000D01*
X58155000Y-32010750D01*
X58313750Y-32169500D01*
X59563000Y-32169500D01*
X59563000Y-31157750D01*
X59817000Y-31157750D01*
X59817000Y-32169500D01*
X61066250Y-32169500D01*
X61225000Y-32010750D01*
X61228072Y-31634000D01*
X61215812Y-31509518D01*
X61179502Y-31389820D01*
X61120537Y-31279506D01*
X61041185Y-31182815D01*
X60944494Y-31103463D01*
X60834180Y-31044498D01*
X60714482Y-31008188D01*
X60590000Y-30995928D01*
X59975750Y-30999000D01*
X59817000Y-31157750D01*
X59563000Y-31157750D01*
X59404250Y-30999000D01*
X58790000Y-30995928D01*
X58665518Y-31008188D01*
X58545820Y-31044498D01*
X58435506Y-31103463D01*
X58338815Y-31182815D01*
X58259463Y-31279506D01*
X58200498Y-31389820D01*
X58164188Y-31509518D01*
X58151928Y-31634000D01*
X56754039Y-31634000D01*
X56592873Y-30816309D01*
X56540000Y-29951835D01*
X56540000Y-23527278D01*
X56591002Y-23007116D01*
X56732694Y-22537812D01*
X56962837Y-22104975D01*
X57272678Y-21725073D01*
X57650397Y-21412597D01*
X58081627Y-21179431D01*
X58549928Y-21034468D01*
X59068153Y-20980000D01*
X60571731Y-20980000D01*
X60440725Y-21050025D01*
G04 #@! TA.AperFunction,Conductor*
D20*
G36*
X60440725Y-21050025D02*
G01*
X60325000Y-21144998D01*
X60301202Y-21173996D01*
X60103270Y-21371928D01*
X58840000Y-21371928D01*
X58715518Y-21384188D01*
X58595820Y-21420498D01*
X58485506Y-21479463D01*
X58388815Y-21558815D01*
X58309463Y-21655506D01*
X58250498Y-21765820D01*
X58214188Y-21885518D01*
X58201928Y-22010000D01*
X58201928Y-23096494D01*
X57794955Y-23503467D01*
X57761182Y-23531184D01*
X57650588Y-23665943D01*
X57568410Y-23819689D01*
X57548290Y-23886015D01*
X57522186Y-23972068D01*
X57517804Y-23986512D01*
X57504999Y-24116525D01*
X57504999Y-24116532D01*
X57500718Y-24160001D01*
X57504999Y-24203470D01*
X57505000Y-27828020D01*
X57500718Y-27871499D01*
X57517804Y-28044989D01*
X57568411Y-28211812D01*
X57650589Y-28365558D01*
X57733467Y-28466545D01*
X57733470Y-28466548D01*
X57761183Y-28500316D01*
X57794950Y-28528028D01*
X58151928Y-28885006D01*
X58151928Y-29584002D01*
X58168992Y-29757256D01*
X58219528Y-29923852D01*
X58301595Y-30077387D01*
X58412038Y-30211962D01*
X58546613Y-30322405D01*
X58700148Y-30404472D01*
X58866744Y-30455008D01*
X59039998Y-30472072D01*
X60340002Y-30472072D01*
X60513256Y-30455008D01*
X60679852Y-30404472D01*
X60833387Y-30322405D01*
X60967962Y-30211962D01*
X61078405Y-30077387D01*
X61160472Y-29923852D01*
X61211008Y-29757256D01*
X61228072Y-29584002D01*
X61228072Y-28758998D01*
X61211008Y-28585744D01*
X61160472Y-28419148D01*
X61078405Y-28265613D01*
X60967962Y-28131038D01*
X60833387Y-28020595D01*
X60679852Y-27938528D01*
X60513256Y-27887992D01*
X60340002Y-27870928D01*
X59641006Y-27870928D01*
X59274999Y-27504921D01*
X59274999Y-26831544D01*
X59543740Y-26885000D01*
X59836260Y-26885000D01*
X60123158Y-26827932D01*
X60393411Y-26715990D01*
X60636632Y-26553475D01*
X60843475Y-26346632D01*
X60884656Y-26285000D01*
X61035344Y-26285000D01*
X61076525Y-26346632D01*
X61283368Y-26553475D01*
X61526589Y-26715990D01*
X61796842Y-26827932D01*
X62083740Y-26885000D01*
X62376260Y-26885000D01*
X62448961Y-26870539D01*
X72510421Y-36932000D01*
X63523906Y-36932000D01*
X62495530Y-36857382D01*
X61512104Y-36640262D01*
X60570325Y-36283454D01*
X59689905Y-35794424D01*
X58889316Y-35183435D01*
X58185306Y-34463268D01*
X57592630Y-33649013D01*
X57479929Y-33434805D01*
X57279034Y-32959000D01*
X58151928Y-32959000D01*
X58164188Y-33083482D01*
X58200498Y-33203180D01*
X58259463Y-33313494D01*
X58338815Y-33410185D01*
X58435506Y-33489537D01*
X58545820Y-33548502D01*
X58665518Y-33584812D01*
X58790000Y-33597072D01*
X59404250Y-33594000D01*
X59563000Y-33435250D01*
X59563000Y-32423500D01*
X59817000Y-32423500D01*
X59817000Y-33435250D01*
X59975750Y-33594000D01*
X60590000Y-33597072D01*
X60714482Y-33584812D01*
X60834180Y-33548502D01*
X60944494Y-33489537D01*
X61041185Y-33410185D01*
X61120537Y-33313494D01*
X61179502Y-33203180D01*
X61215812Y-33083482D01*
X61228072Y-32959000D01*
X61225000Y-32582250D01*
X61066250Y-32423500D01*
X59817000Y-32423500D01*
X59563000Y-32423500D01*
X58313750Y-32423500D01*
X58155000Y-32582250D01*
X58151928Y-32959000D01*
X57279034Y-32959000D01*
X56784199Y-31787021D01*
X56754039Y-31634000D01*
X58151928Y-31634000D01*
X58155000Y-32010750D01*
X58313750Y-32169500D01*
X59563000Y-32169500D01*
X59563000Y-31157750D01*
X59817000Y-31157750D01*
X59817000Y-32169500D01*
X61066250Y-32169500D01*
X61225000Y-32010750D01*
X61228072Y-31634000D01*
X61215812Y-31509518D01*
X61179502Y-31389820D01*
X61120537Y-31279506D01*
X61041185Y-31182815D01*
X60944494Y-31103463D01*
X60834180Y-31044498D01*
X60714482Y-31008188D01*
X60590000Y-30995928D01*
X59975750Y-30999000D01*
X59817000Y-31157750D01*
X59563000Y-31157750D01*
X59404250Y-30999000D01*
X58790000Y-30995928D01*
X58665518Y-31008188D01*
X58545820Y-31044498D01*
X58435506Y-31103463D01*
X58338815Y-31182815D01*
X58259463Y-31279506D01*
X58200498Y-31389820D01*
X58164188Y-31509518D01*
X58151928Y-31634000D01*
X56754039Y-31634000D01*
X56592873Y-30816309D01*
X56540000Y-29951835D01*
X56540000Y-23527278D01*
X56591002Y-23007116D01*
X56732694Y-22537812D01*
X56962837Y-22104975D01*
X57272678Y-21725073D01*
X57650397Y-21412597D01*
X58081627Y-21179431D01*
X58549928Y-21034468D01*
X59068153Y-20980000D01*
X60571731Y-20980000D01*
X60440725Y-21050025D01*
G37*
G04 #@! TD.AperFunction*
D19*
X92564000Y-33426061D02*
X92564000Y-33629939D01*
X92603774Y-33829898D01*
X92681795Y-34018256D01*
X92795063Y-34187774D01*
X92819534Y-34212245D01*
X92724488Y-34328058D01*
X92643577Y-34479433D01*
X92593752Y-34643684D01*
X92576928Y-34814500D01*
X92576928Y-35289500D01*
X92593752Y-35460316D01*
X92643577Y-35624567D01*
X92724488Y-35775942D01*
X92833377Y-35908623D01*
X92954600Y-36008108D01*
X92268666Y-36694042D01*
X92284500Y-36614439D01*
X92284500Y-36410561D01*
X92244726Y-36210602D01*
X92166705Y-36022244D01*
X92053437Y-35852726D01*
X91909274Y-35708563D01*
X91739756Y-35595295D01*
X91551398Y-35517274D01*
X91351439Y-35477500D01*
X91289301Y-35477500D01*
X91114803Y-35303002D01*
X91091001Y-35273999D01*
X90975276Y-35179026D01*
X90843247Y-35108454D01*
X90699986Y-35064997D01*
X90588333Y-35054000D01*
X90588322Y-35054000D01*
X90551000Y-35050324D01*
X90513678Y-35054000D01*
X87966920Y-35054000D01*
X87887623Y-34957377D01*
X87853500Y-34929373D01*
X87853500Y-33844078D01*
X88217544Y-33480035D01*
X88274398Y-33468726D01*
X88462756Y-33390705D01*
X88632274Y-33277437D01*
X88676211Y-33233500D01*
X92602302Y-33233500D01*
X92564000Y-33426061D01*
G04 #@! TA.AperFunction,Conductor*
D20*
G36*
X92564000Y-33426061D02*
G01*
X92564000Y-33629939D01*
X92603774Y-33829898D01*
X92681795Y-34018256D01*
X92795063Y-34187774D01*
X92819534Y-34212245D01*
X92724488Y-34328058D01*
X92643577Y-34479433D01*
X92593752Y-34643684D01*
X92576928Y-34814500D01*
X92576928Y-35289500D01*
X92593752Y-35460316D01*
X92643577Y-35624567D01*
X92724488Y-35775942D01*
X92833377Y-35908623D01*
X92954600Y-36008108D01*
X92268666Y-36694042D01*
X92284500Y-36614439D01*
X92284500Y-36410561D01*
X92244726Y-36210602D01*
X92166705Y-36022244D01*
X92053437Y-35852726D01*
X91909274Y-35708563D01*
X91739756Y-35595295D01*
X91551398Y-35517274D01*
X91351439Y-35477500D01*
X91289301Y-35477500D01*
X91114803Y-35303002D01*
X91091001Y-35273999D01*
X90975276Y-35179026D01*
X90843247Y-35108454D01*
X90699986Y-35064997D01*
X90588333Y-35054000D01*
X90588322Y-35054000D01*
X90551000Y-35050324D01*
X90513678Y-35054000D01*
X87966920Y-35054000D01*
X87887623Y-34957377D01*
X87853500Y-34929373D01*
X87853500Y-33844078D01*
X88217544Y-33480035D01*
X88274398Y-33468726D01*
X88462756Y-33390705D01*
X88632274Y-33277437D01*
X88676211Y-33233500D01*
X92602302Y-33233500D01*
X92564000Y-33426061D01*
G37*
G04 #@! TD.AperFunction*
D19*
X85346000Y-35961000D02*
X85116500Y-35961000D01*
X85116500Y-35941000D01*
X85096500Y-35941000D01*
X85096500Y-35687000D01*
X85116500Y-35687000D01*
X85116500Y-34862750D01*
X84997999Y-34744249D01*
X84997999Y-34059802D01*
X85346001Y-33711801D01*
X85346000Y-35961000D01*
G04 #@! TA.AperFunction,Conductor*
D20*
G36*
X85346000Y-35961000D02*
G01*
X85116500Y-35961000D01*
X85116500Y-35941000D01*
X85096500Y-35941000D01*
X85096500Y-35687000D01*
X85116500Y-35687000D01*
X85116500Y-34862750D01*
X84997999Y-34744249D01*
X84997999Y-34059802D01*
X85346001Y-33711801D01*
X85346000Y-35961000D01*
G37*
G04 #@! TD.AperFunction*
D19*
X96167501Y-32797788D02*
X96097063Y-32868226D01*
X95983795Y-33037744D01*
X95905774Y-33226102D01*
X95866000Y-33426061D01*
X95866000Y-33629939D01*
X95905774Y-33829898D01*
X95951338Y-33939897D01*
X95813250Y-33942000D01*
X95654502Y-34100748D01*
X95654502Y-33942000D01*
X95562479Y-33942000D01*
X95562479Y-33797452D01*
X95522705Y-33597493D01*
X95444684Y-33409135D01*
X95331416Y-33239617D01*
X95187253Y-33095454D01*
X95017735Y-32982186D01*
X94829377Y-32904165D01*
X94629418Y-32864391D01*
X94425540Y-32864391D01*
X94403327Y-32868809D01*
X94402937Y-32868226D01*
X94258774Y-32724063D01*
X94244066Y-32714235D01*
X96167500Y-30790801D01*
X96167501Y-32797788D01*
G04 #@! TA.AperFunction,Conductor*
D20*
G36*
X96167501Y-32797788D02*
G01*
X96097063Y-32868226D01*
X95983795Y-33037744D01*
X95905774Y-33226102D01*
X95866000Y-33426061D01*
X95866000Y-33629939D01*
X95905774Y-33829898D01*
X95951338Y-33939897D01*
X95813250Y-33942000D01*
X95654502Y-34100748D01*
X95654502Y-33942000D01*
X95562479Y-33942000D01*
X95562479Y-33797452D01*
X95522705Y-33597493D01*
X95444684Y-33409135D01*
X95331416Y-33239617D01*
X95187253Y-33095454D01*
X95017735Y-32982186D01*
X94829377Y-32904165D01*
X94629418Y-32864391D01*
X94425540Y-32864391D01*
X94403327Y-32868809D01*
X94402937Y-32868226D01*
X94258774Y-32724063D01*
X94244066Y-32714235D01*
X96167500Y-30790801D01*
X96167501Y-32797788D01*
G37*
G04 #@! TD.AperFunction*
D19*
X108815010Y-31983771D02*
X108750058Y-32018488D01*
X108617377Y-32127377D01*
X108508488Y-32260058D01*
X108427577Y-32411433D01*
X108377752Y-32575684D01*
X108360928Y-32746500D01*
X108360928Y-33246500D01*
X108377752Y-33417316D01*
X108427577Y-33581567D01*
X108508488Y-33732942D01*
X108617377Y-33865623D01*
X108670232Y-33909000D01*
X108617377Y-33952377D01*
X108527822Y-34061500D01*
X108161889Y-34061500D01*
X108122990Y-33967589D01*
X107960475Y-33724368D01*
X107828620Y-33592513D01*
X107901180Y-33570502D01*
X108011494Y-33511537D01*
X108108185Y-33432185D01*
X108187537Y-33335494D01*
X108246502Y-33225180D01*
X108282812Y-33105482D01*
X108295072Y-32981000D01*
X108292000Y-32416750D01*
X108133250Y-32258000D01*
X106934000Y-32258000D01*
X106934000Y-32278000D01*
X106680000Y-32278000D01*
X106680000Y-32258000D01*
X106660000Y-32258000D01*
X106660000Y-32004000D01*
X106680000Y-32004000D01*
X106680000Y-30804750D01*
X106934000Y-30804750D01*
X106934000Y-32004000D01*
X108133250Y-32004000D01*
X108292000Y-31845250D01*
X108295072Y-31281000D01*
X108282812Y-31156518D01*
X108246502Y-31036820D01*
X108187537Y-30926506D01*
X108108185Y-30829815D01*
X108011494Y-30750463D01*
X107901180Y-30691498D01*
X107781482Y-30655188D01*
X107657000Y-30642928D01*
X107092750Y-30646000D01*
X106934000Y-30804750D01*
X106680000Y-30804750D01*
X106521250Y-30646000D01*
X105957000Y-30642928D01*
X105832518Y-30655188D01*
X105712820Y-30691498D01*
X105602506Y-30750463D01*
X105505815Y-30829815D01*
X105426463Y-30926506D01*
X105408000Y-30961047D01*
X105408000Y-29678750D01*
X105433500Y-29653250D01*
X105433500Y-28829000D01*
X105687500Y-28829000D01*
X105687500Y-29653250D01*
X105846250Y-29812000D01*
X106048000Y-29815072D01*
X106172482Y-29802812D01*
X106292180Y-29766502D01*
X106402494Y-29707537D01*
X106499185Y-29628185D01*
X106578537Y-29531494D01*
X106637502Y-29421180D01*
X106673812Y-29301482D01*
X106686072Y-29177000D01*
X106683000Y-28987750D01*
X106524250Y-28829000D01*
X105687500Y-28829000D01*
X105433500Y-28829000D01*
X105413500Y-28829000D01*
X105413500Y-28661990D01*
X107149690Y-28661990D01*
X107187012Y-28665666D01*
X107224334Y-28661990D01*
X107224345Y-28661990D01*
X107335998Y-28650993D01*
X107479259Y-28607536D01*
X107611288Y-28536964D01*
X107727013Y-28441991D01*
X107750816Y-28412987D01*
X108815011Y-27348793D01*
X108815010Y-31983771D01*
G04 #@! TA.AperFunction,Conductor*
D20*
G36*
X108815010Y-31983771D02*
G01*
X108750058Y-32018488D01*
X108617377Y-32127377D01*
X108508488Y-32260058D01*
X108427577Y-32411433D01*
X108377752Y-32575684D01*
X108360928Y-32746500D01*
X108360928Y-33246500D01*
X108377752Y-33417316D01*
X108427577Y-33581567D01*
X108508488Y-33732942D01*
X108617377Y-33865623D01*
X108670232Y-33909000D01*
X108617377Y-33952377D01*
X108527822Y-34061500D01*
X108161889Y-34061500D01*
X108122990Y-33967589D01*
X107960475Y-33724368D01*
X107828620Y-33592513D01*
X107901180Y-33570502D01*
X108011494Y-33511537D01*
X108108185Y-33432185D01*
X108187537Y-33335494D01*
X108246502Y-33225180D01*
X108282812Y-33105482D01*
X108295072Y-32981000D01*
X108292000Y-32416750D01*
X108133250Y-32258000D01*
X106934000Y-32258000D01*
X106934000Y-32278000D01*
X106680000Y-32278000D01*
X106680000Y-32258000D01*
X106660000Y-32258000D01*
X106660000Y-32004000D01*
X106680000Y-32004000D01*
X106680000Y-30804750D01*
X106934000Y-30804750D01*
X106934000Y-32004000D01*
X108133250Y-32004000D01*
X108292000Y-31845250D01*
X108295072Y-31281000D01*
X108282812Y-31156518D01*
X108246502Y-31036820D01*
X108187537Y-30926506D01*
X108108185Y-30829815D01*
X108011494Y-30750463D01*
X107901180Y-30691498D01*
X107781482Y-30655188D01*
X107657000Y-30642928D01*
X107092750Y-30646000D01*
X106934000Y-30804750D01*
X106680000Y-30804750D01*
X106521250Y-30646000D01*
X105957000Y-30642928D01*
X105832518Y-30655188D01*
X105712820Y-30691498D01*
X105602506Y-30750463D01*
X105505815Y-30829815D01*
X105426463Y-30926506D01*
X105408000Y-30961047D01*
X105408000Y-29678750D01*
X105433500Y-29653250D01*
X105433500Y-28829000D01*
X105687500Y-28829000D01*
X105687500Y-29653250D01*
X105846250Y-29812000D01*
X106048000Y-29815072D01*
X106172482Y-29802812D01*
X106292180Y-29766502D01*
X106402494Y-29707537D01*
X106499185Y-29628185D01*
X106578537Y-29531494D01*
X106637502Y-29421180D01*
X106673812Y-29301482D01*
X106686072Y-29177000D01*
X106683000Y-28987750D01*
X106524250Y-28829000D01*
X105687500Y-28829000D01*
X105433500Y-28829000D01*
X105413500Y-28829000D01*
X105413500Y-28661990D01*
X107149690Y-28661990D01*
X107187012Y-28665666D01*
X107224334Y-28661990D01*
X107224345Y-28661990D01*
X107335998Y-28650993D01*
X107479259Y-28607536D01*
X107611288Y-28536964D01*
X107727013Y-28441991D01*
X107750816Y-28412987D01*
X108815011Y-27348793D01*
X108815010Y-31983771D01*
G37*
G04 #@! TD.AperFunction*
D19*
X100212690Y-28897491D02*
X100124063Y-28986118D01*
X100010795Y-29155636D01*
X99932774Y-29343994D01*
X99931225Y-29351782D01*
X99901102Y-29357774D01*
X99827379Y-29388311D01*
X99825000Y-29241750D01*
X99666250Y-29083000D01*
X98779500Y-29083000D01*
X98779500Y-29907250D01*
X98938250Y-30066000D01*
X99190000Y-30069072D01*
X99204483Y-30067646D01*
X99168000Y-30251061D01*
X99168000Y-30454939D01*
X99207774Y-30654898D01*
X99285795Y-30843256D01*
X99399063Y-31012774D01*
X99443000Y-31056711D01*
X99443001Y-34014526D01*
X99355937Y-33884226D01*
X99211774Y-33740063D01*
X99042256Y-33626795D01*
X98853898Y-33548774D01*
X98653939Y-33509000D01*
X98450061Y-33509000D01*
X98250102Y-33548774D01*
X98061744Y-33626795D01*
X97917447Y-33723211D01*
X97936000Y-33629939D01*
X97936000Y-33426061D01*
X97896226Y-33226102D01*
X97818205Y-33037744D01*
X97704937Y-32868226D01*
X97687500Y-32850789D01*
X97687500Y-29935645D01*
X97712606Y-29922226D01*
X97760506Y-29961537D01*
X97870820Y-30020502D01*
X97990518Y-30056812D01*
X98115000Y-30069072D01*
X98366750Y-30066000D01*
X98525500Y-29907250D01*
X98525500Y-29083000D01*
X98505500Y-29083000D01*
X98505500Y-28829000D01*
X98525500Y-28829000D01*
X98525500Y-28809000D01*
X98779500Y-28809000D01*
X98779500Y-28829000D01*
X99666250Y-28829000D01*
X99825000Y-28670250D01*
X99827563Y-28512364D01*
X100212690Y-28897491D01*
G04 #@! TA.AperFunction,Conductor*
D20*
G36*
X100212690Y-28897491D02*
G01*
X100124063Y-28986118D01*
X100010795Y-29155636D01*
X99932774Y-29343994D01*
X99931225Y-29351782D01*
X99901102Y-29357774D01*
X99827379Y-29388311D01*
X99825000Y-29241750D01*
X99666250Y-29083000D01*
X98779500Y-29083000D01*
X98779500Y-29907250D01*
X98938250Y-30066000D01*
X99190000Y-30069072D01*
X99204483Y-30067646D01*
X99168000Y-30251061D01*
X99168000Y-30454939D01*
X99207774Y-30654898D01*
X99285795Y-30843256D01*
X99399063Y-31012774D01*
X99443000Y-31056711D01*
X99443001Y-34014526D01*
X99355937Y-33884226D01*
X99211774Y-33740063D01*
X99042256Y-33626795D01*
X98853898Y-33548774D01*
X98653939Y-33509000D01*
X98450061Y-33509000D01*
X98250102Y-33548774D01*
X98061744Y-33626795D01*
X97917447Y-33723211D01*
X97936000Y-33629939D01*
X97936000Y-33426061D01*
X97896226Y-33226102D01*
X97818205Y-33037744D01*
X97704937Y-32868226D01*
X97687500Y-32850789D01*
X97687500Y-29935645D01*
X97712606Y-29922226D01*
X97760506Y-29961537D01*
X97870820Y-30020502D01*
X97990518Y-30056812D01*
X98115000Y-30069072D01*
X98366750Y-30066000D01*
X98525500Y-29907250D01*
X98525500Y-29083000D01*
X98505500Y-29083000D01*
X98505500Y-28829000D01*
X98525500Y-28829000D01*
X98525500Y-28809000D01*
X98779500Y-28809000D01*
X98779500Y-28829000D01*
X99666250Y-28829000D01*
X99825000Y-28670250D01*
X99827563Y-28512364D01*
X100212690Y-28897491D01*
G37*
G04 #@! TD.AperFunction*
D19*
X95818577Y-28383433D02*
X95768752Y-28547684D01*
X95751928Y-28718500D01*
X95751928Y-29056770D01*
X93095199Y-31713500D01*
X88734300Y-31713500D01*
X89207800Y-31240000D01*
X91334289Y-31240000D01*
X91378226Y-31283937D01*
X91547744Y-31397205D01*
X91736102Y-31475226D01*
X91936061Y-31515000D01*
X92139939Y-31515000D01*
X92339898Y-31475226D01*
X92528256Y-31397205D01*
X92697774Y-31283937D01*
X92841937Y-31139774D01*
X92955205Y-30970256D01*
X93033226Y-30781898D01*
X93073000Y-30581939D01*
X93073000Y-30378061D01*
X93033226Y-30178102D01*
X92955205Y-29989744D01*
X92841937Y-29820226D01*
X92697774Y-29676063D01*
X92541190Y-29571437D01*
X92735061Y-29610000D01*
X92938939Y-29610000D01*
X93138898Y-29570226D01*
X93327256Y-29492205D01*
X93496774Y-29378937D01*
X93640937Y-29234774D01*
X93754205Y-29065256D01*
X93832226Y-28876898D01*
X93872000Y-28676939D01*
X93872000Y-28473061D01*
X93832226Y-28273102D01*
X93822006Y-28248429D01*
X95890738Y-28248429D01*
X95818577Y-28383433D01*
G04 #@! TA.AperFunction,Conductor*
D20*
G36*
X95818577Y-28383433D02*
G01*
X95768752Y-28547684D01*
X95751928Y-28718500D01*
X95751928Y-29056770D01*
X93095199Y-31713500D01*
X88734300Y-31713500D01*
X89207800Y-31240000D01*
X91334289Y-31240000D01*
X91378226Y-31283937D01*
X91547744Y-31397205D01*
X91736102Y-31475226D01*
X91936061Y-31515000D01*
X92139939Y-31515000D01*
X92339898Y-31475226D01*
X92528256Y-31397205D01*
X92697774Y-31283937D01*
X92841937Y-31139774D01*
X92955205Y-30970256D01*
X93033226Y-30781898D01*
X93073000Y-30581939D01*
X93073000Y-30378061D01*
X93033226Y-30178102D01*
X92955205Y-29989744D01*
X92841937Y-29820226D01*
X92697774Y-29676063D01*
X92541190Y-29571437D01*
X92735061Y-29610000D01*
X92938939Y-29610000D01*
X93138898Y-29570226D01*
X93327256Y-29492205D01*
X93496774Y-29378937D01*
X93640937Y-29234774D01*
X93754205Y-29065256D01*
X93832226Y-28876898D01*
X93872000Y-28676939D01*
X93872000Y-28473061D01*
X93832226Y-28273102D01*
X93822006Y-28248429D01*
X95890738Y-28248429D01*
X95818577Y-28383433D01*
G37*
G04 #@! TD.AperFunction*
D19*
X76316525Y-26346632D02*
X76523368Y-26553475D01*
X76766589Y-26715990D01*
X77036842Y-26827932D01*
X77323740Y-26885000D01*
X77616260Y-26885000D01*
X77836408Y-26841209D01*
X79826198Y-28831000D01*
X77696800Y-28831000D01*
X75588894Y-26723095D01*
X75696920Y-26671641D01*
X75930269Y-26497588D01*
X76125178Y-26281355D01*
X76194805Y-26164466D01*
X76316525Y-26346632D01*
G04 #@! TA.AperFunction,Conductor*
D20*
G36*
X76316525Y-26346632D02*
G01*
X76523368Y-26553475D01*
X76766589Y-26715990D01*
X77036842Y-26827932D01*
X77323740Y-26885000D01*
X77616260Y-26885000D01*
X77836408Y-26841209D01*
X79826198Y-28831000D01*
X77696800Y-28831000D01*
X75588894Y-26723095D01*
X75696920Y-26671641D01*
X75930269Y-26497588D01*
X76125178Y-26281355D01*
X76194805Y-26164466D01*
X76316525Y-26346632D01*
G37*
G04 #@! TD.AperFunction*
D19*
X82677000Y-25273000D02*
X82697000Y-25273000D01*
X82697000Y-25527000D01*
X82677000Y-25527000D01*
X82677000Y-26720155D01*
X82906890Y-26841476D01*
X83054099Y-26796825D01*
X83316920Y-26671641D01*
X83550269Y-26497588D01*
X83745178Y-26281355D01*
X83814805Y-26164466D01*
X83936525Y-26346632D01*
X84143368Y-26553475D01*
X84386589Y-26715990D01*
X84656842Y-26827932D01*
X84943740Y-26885000D01*
X85236260Y-26885000D01*
X85523158Y-26827932D01*
X85694999Y-26756753D01*
X85694999Y-27235676D01*
X85691323Y-27272999D01*
X85694999Y-27310321D01*
X85694999Y-27310331D01*
X85705996Y-27421984D01*
X85710212Y-27435884D01*
X85706000Y-27457061D01*
X85706000Y-27660939D01*
X85736644Y-27815000D01*
X80959802Y-27815000D01*
X80029802Y-26885000D01*
X80156260Y-26885000D01*
X80443158Y-26827932D01*
X80713411Y-26715990D01*
X80956632Y-26553475D01*
X81163475Y-26346632D01*
X81285195Y-26164466D01*
X81354822Y-26281355D01*
X81549731Y-26497588D01*
X81783080Y-26671641D01*
X82045901Y-26796825D01*
X82193110Y-26841476D01*
X82423000Y-26720155D01*
X82423000Y-25527000D01*
X82403000Y-25527000D01*
X82403000Y-25273000D01*
X82423000Y-25273000D01*
X82423000Y-25253000D01*
X82677000Y-25253000D01*
X82677000Y-25273000D01*
G04 #@! TA.AperFunction,Conductor*
D20*
G36*
X82677000Y-25273000D02*
G01*
X82697000Y-25273000D01*
X82697000Y-25527000D01*
X82677000Y-25527000D01*
X82677000Y-26720155D01*
X82906890Y-26841476D01*
X83054099Y-26796825D01*
X83316920Y-26671641D01*
X83550269Y-26497588D01*
X83745178Y-26281355D01*
X83814805Y-26164466D01*
X83936525Y-26346632D01*
X84143368Y-26553475D01*
X84386589Y-26715990D01*
X84656842Y-26827932D01*
X84943740Y-26885000D01*
X85236260Y-26885000D01*
X85523158Y-26827932D01*
X85694999Y-26756753D01*
X85694999Y-27235676D01*
X85691323Y-27272999D01*
X85694999Y-27310321D01*
X85694999Y-27310331D01*
X85705996Y-27421984D01*
X85710212Y-27435884D01*
X85706000Y-27457061D01*
X85706000Y-27660939D01*
X85736644Y-27815000D01*
X80959802Y-27815000D01*
X80029802Y-26885000D01*
X80156260Y-26885000D01*
X80443158Y-26827932D01*
X80713411Y-26715990D01*
X80956632Y-26553475D01*
X81163475Y-26346632D01*
X81285195Y-26164466D01*
X81354822Y-26281355D01*
X81549731Y-26497588D01*
X81783080Y-26671641D01*
X82045901Y-26796825D01*
X82193110Y-26841476D01*
X82423000Y-26720155D01*
X82423000Y-25527000D01*
X82403000Y-25527000D01*
X82403000Y-25273000D01*
X82423000Y-25273000D01*
X82423000Y-25253000D01*
X82677000Y-25253000D01*
X82677000Y-25273000D01*
G37*
G04 #@! TD.AperFunction*
D19*
X100457000Y-25273000D02*
X100477000Y-25273000D01*
X100477000Y-25527000D01*
X100457000Y-25527000D01*
X100457000Y-25547000D01*
X100203000Y-25547000D01*
X100203000Y-25527000D01*
X100183000Y-25527000D01*
X100183000Y-25273000D01*
X100203000Y-25273000D01*
X100203000Y-25253000D01*
X100457000Y-25253000D01*
X100457000Y-25273000D01*
G04 #@! TA.AperFunction,Conductor*
D20*
G36*
X100457000Y-25273000D02*
G01*
X100477000Y-25273000D01*
X100477000Y-25527000D01*
X100457000Y-25527000D01*
X100457000Y-25547000D01*
X100203000Y-25547000D01*
X100203000Y-25527000D01*
X100183000Y-25527000D01*
X100183000Y-25273000D01*
X100203000Y-25273000D01*
X100203000Y-25253000D01*
X100457000Y-25253000D01*
X100457000Y-25273000D01*
G37*
G04 #@! TD.AperFunction*
D19*
X95377000Y-25273000D02*
X95397000Y-25273000D01*
X95397000Y-25527000D01*
X95377000Y-25527000D01*
X95377000Y-25547000D01*
X95123000Y-25547000D01*
X95123000Y-25527000D01*
X95103000Y-25527000D01*
X95103000Y-25273000D01*
X95123000Y-25273000D01*
X95123000Y-25253000D01*
X95377000Y-25253000D01*
X95377000Y-25273000D01*
G04 #@! TA.AperFunction,Conductor*
D20*
G36*
X95377000Y-25273000D02*
G01*
X95397000Y-25273000D01*
X95397000Y-25527000D01*
X95377000Y-25527000D01*
X95377000Y-25547000D01*
X95123000Y-25547000D01*
X95123000Y-25527000D01*
X95103000Y-25527000D01*
X95103000Y-25273000D01*
X95123000Y-25273000D01*
X95123000Y-25253000D01*
X95377000Y-25253000D01*
X95377000Y-25273000D01*
G37*
G04 #@! TD.AperFunction*
D19*
X75057000Y-25273000D02*
X75077000Y-25273000D01*
X75077000Y-25527000D01*
X75057000Y-25527000D01*
X75057000Y-25547000D01*
X74803000Y-25547000D01*
X74803000Y-25527000D01*
X74783000Y-25527000D01*
X74783000Y-25273000D01*
X74803000Y-25273000D01*
X74803000Y-25253000D01*
X75057000Y-25253000D01*
X75057000Y-25273000D01*
G04 #@! TA.AperFunction,Conductor*
D20*
G36*
X75057000Y-25273000D02*
G01*
X75077000Y-25273000D01*
X75077000Y-25527000D01*
X75057000Y-25527000D01*
X75057000Y-25547000D01*
X74803000Y-25547000D01*
X74803000Y-25527000D01*
X74783000Y-25527000D01*
X74783000Y-25273000D01*
X74803000Y-25273000D01*
X74803000Y-25253000D01*
X75057000Y-25253000D01*
X75057000Y-25273000D01*
G37*
G04 #@! TD.AperFunction*
D19*
X64897000Y-25273000D02*
X64917000Y-25273000D01*
X64917000Y-25527000D01*
X64897000Y-25527000D01*
X64897000Y-25547000D01*
X64643000Y-25547000D01*
X64643000Y-25527000D01*
X64623000Y-25527000D01*
X64623000Y-25273000D01*
X64643000Y-25273000D01*
X64643000Y-25253000D01*
X64897000Y-25253000D01*
X64897000Y-25273000D01*
G04 #@! TA.AperFunction,Conductor*
D20*
G36*
X64897000Y-25273000D02*
G01*
X64917000Y-25273000D01*
X64917000Y-25527000D01*
X64897000Y-25527000D01*
X64897000Y-25547000D01*
X64643000Y-25547000D01*
X64643000Y-25527000D01*
X64623000Y-25527000D01*
X64623000Y-25273000D01*
X64643000Y-25273000D01*
X64643000Y-25253000D01*
X64897000Y-25253000D01*
X64897000Y-25273000D01*
G37*
G04 #@! TD.AperFunction*
D19*
X81396525Y-23806632D02*
X81603368Y-24013475D01*
X81779406Y-24131100D01*
X81549731Y-24302412D01*
X81354822Y-24518645D01*
X81285195Y-24635534D01*
X81163475Y-24453368D01*
X80956632Y-24246525D01*
X80782240Y-24130000D01*
X80956632Y-24013475D01*
X81163475Y-23806632D01*
X81280000Y-23632240D01*
X81396525Y-23806632D01*
G04 #@! TA.AperFunction,Conductor*
D20*
G36*
X81396525Y-23806632D02*
G01*
X81603368Y-24013475D01*
X81779406Y-24131100D01*
X81549731Y-24302412D01*
X81354822Y-24518645D01*
X81285195Y-24635534D01*
X81163475Y-24453368D01*
X80956632Y-24246525D01*
X80782240Y-24130000D01*
X80956632Y-24013475D01*
X81163475Y-23806632D01*
X81280000Y-23632240D01*
X81396525Y-23806632D01*
G37*
G04 #@! TD.AperFunction*
D19*
X99176525Y-23806632D02*
X99383368Y-24013475D01*
X99559406Y-24131100D01*
X99329731Y-24302412D01*
X99134822Y-24518645D01*
X99065195Y-24635534D01*
X98943475Y-24453368D01*
X98736632Y-24246525D01*
X98562240Y-24130000D01*
X98736632Y-24013475D01*
X98943475Y-23806632D01*
X99060000Y-23632240D01*
X99176525Y-23806632D01*
G04 #@! TA.AperFunction,Conductor*
D20*
G36*
X99176525Y-23806632D02*
G01*
X99383368Y-24013475D01*
X99559406Y-24131100D01*
X99329731Y-24302412D01*
X99134822Y-24518645D01*
X99065195Y-24635534D01*
X98943475Y-24453368D01*
X98736632Y-24246525D01*
X98562240Y-24130000D01*
X98736632Y-24013475D01*
X98943475Y-23806632D01*
X99060000Y-23632240D01*
X99176525Y-23806632D01*
G37*
G04 #@! TD.AperFunction*
D19*
X66156525Y-23806632D02*
X66363368Y-24013475D01*
X66537760Y-24130000D01*
X66363368Y-24246525D01*
X66156525Y-24453368D01*
X66034805Y-24635534D01*
X65965178Y-24518645D01*
X65770269Y-24302412D01*
X65540594Y-24131100D01*
X65716632Y-24013475D01*
X65923475Y-23806632D01*
X66040000Y-23632240D01*
X66156525Y-23806632D01*
G04 #@! TA.AperFunction,Conductor*
D20*
G36*
X66156525Y-23806632D02*
G01*
X66363368Y-24013475D01*
X66537760Y-24130000D01*
X66363368Y-24246525D01*
X66156525Y-24453368D01*
X66034805Y-24635534D01*
X65965178Y-24518645D01*
X65770269Y-24302412D01*
X65540594Y-24131100D01*
X65716632Y-24013475D01*
X65923475Y-23806632D01*
X66040000Y-23632240D01*
X66156525Y-23806632D01*
G37*
G04 #@! TD.AperFunction*
D19*
X76316525Y-23806632D02*
X76523368Y-24013475D01*
X76697760Y-24130000D01*
X76523368Y-24246525D01*
X76316525Y-24453368D01*
X76194805Y-24635534D01*
X76125178Y-24518645D01*
X75930269Y-24302412D01*
X75700594Y-24131100D01*
X75876632Y-24013475D01*
X76083475Y-23806632D01*
X76200000Y-23632240D01*
X76316525Y-23806632D01*
G04 #@! TA.AperFunction,Conductor*
D20*
G36*
X76316525Y-23806632D02*
G01*
X76523368Y-24013475D01*
X76697760Y-24130000D01*
X76523368Y-24246525D01*
X76316525Y-24453368D01*
X76194805Y-24635534D01*
X76125178Y-24518645D01*
X75930269Y-24302412D01*
X75700594Y-24131100D01*
X75876632Y-24013475D01*
X76083475Y-23806632D01*
X76200000Y-23632240D01*
X76316525Y-23806632D01*
G37*
G04 #@! TD.AperFunction*
D19*
X68654822Y-23741355D02*
X68849731Y-23957588D01*
X69079406Y-24128900D01*
X68903368Y-24246525D01*
X68696525Y-24453368D01*
X68580000Y-24627760D01*
X68463475Y-24453368D01*
X68256632Y-24246525D01*
X68082240Y-24130000D01*
X68256632Y-24013475D01*
X68463475Y-23806632D01*
X68585195Y-23624466D01*
X68654822Y-23741355D01*
G04 #@! TA.AperFunction,Conductor*
D20*
G36*
X68654822Y-23741355D02*
G01*
X68849731Y-23957588D01*
X69079406Y-24128900D01*
X68903368Y-24246525D01*
X68696525Y-24453368D01*
X68580000Y-24627760D01*
X68463475Y-24453368D01*
X68256632Y-24246525D01*
X68082240Y-24130000D01*
X68256632Y-24013475D01*
X68463475Y-23806632D01*
X68585195Y-23624466D01*
X68654822Y-23741355D01*
G37*
G04 #@! TD.AperFunction*
D19*
X108077000Y-22733000D02*
X108097000Y-22733000D01*
X108097000Y-22987000D01*
X108077000Y-22987000D01*
X108077000Y-23007000D01*
X107823000Y-23007000D01*
X107823000Y-22987000D01*
X107803000Y-22987000D01*
X107803000Y-22733000D01*
X107823000Y-22733000D01*
X107823000Y-22713000D01*
X108077000Y-22713000D01*
X108077000Y-22733000D01*
G04 #@! TA.AperFunction,Conductor*
D20*
G36*
X108077000Y-22733000D02*
G01*
X108097000Y-22733000D01*
X108097000Y-22987000D01*
X108077000Y-22987000D01*
X108077000Y-23007000D01*
X107823000Y-23007000D01*
X107823000Y-22987000D01*
X107803000Y-22987000D01*
X107803000Y-22733000D01*
X107823000Y-22733000D01*
X107823000Y-22713000D01*
X108077000Y-22713000D01*
X108077000Y-22733000D01*
G37*
G04 #@! TD.AperFunction*
D19*
X90297000Y-22733000D02*
X90317000Y-22733000D01*
X90317000Y-22987000D01*
X90297000Y-22987000D01*
X90297000Y-23007000D01*
X90043000Y-23007000D01*
X90043000Y-22987000D01*
X90023000Y-22987000D01*
X90023000Y-22733000D01*
X90043000Y-22733000D01*
X90043000Y-22713000D01*
X90297000Y-22713000D01*
X90297000Y-22733000D01*
G04 #@! TA.AperFunction,Conductor*
D20*
G36*
X90297000Y-22733000D02*
G01*
X90317000Y-22733000D01*
X90317000Y-22987000D01*
X90297000Y-22987000D01*
X90297000Y-23007000D01*
X90043000Y-23007000D01*
X90043000Y-22987000D01*
X90023000Y-22987000D01*
X90023000Y-22733000D01*
X90043000Y-22733000D01*
X90043000Y-22713000D01*
X90297000Y-22713000D01*
X90297000Y-22733000D01*
G37*
G04 #@! TD.AperFunction*
D19*
X69977000Y-22733000D02*
X69997000Y-22733000D01*
X69997000Y-22987000D01*
X69977000Y-22987000D01*
X69977000Y-23007000D01*
X69723000Y-23007000D01*
X69723000Y-22987000D01*
X69703000Y-22987000D01*
X69703000Y-22733000D01*
X69723000Y-22733000D01*
X69723000Y-22713000D01*
X69977000Y-22713000D01*
X69977000Y-22733000D01*
G04 #@! TA.AperFunction,Conductor*
D20*
G36*
X69977000Y-22733000D02*
G01*
X69997000Y-22733000D01*
X69997000Y-22987000D01*
X69977000Y-22987000D01*
X69977000Y-23007000D01*
X69723000Y-23007000D01*
X69723000Y-22987000D01*
X69703000Y-22987000D01*
X69703000Y-22733000D01*
X69723000Y-22733000D01*
X69723000Y-22713000D01*
X69977000Y-22713000D01*
X69977000Y-22733000D01*
G37*
G04 #@! TD.AperFunction*
D19*
X109696378Y-21126992D02*
X109826574Y-21233176D01*
X109933664Y-21362626D01*
X109969950Y-21429736D01*
X109634082Y-21093868D01*
X109696378Y-21126992D01*
G04 #@! TA.AperFunction,Conductor*
D20*
G36*
X109696378Y-21126992D02*
G01*
X109826574Y-21233176D01*
X109933664Y-21362626D01*
X109969950Y-21429736D01*
X109634082Y-21093868D01*
X109696378Y-21126992D01*
G37*
G04 #@! TD.AperFunction*
G04 #@! TD*
M02*
