G04 #@! TF.GenerationSoftware,KiCad,Pcbnew,6.99.0-unknown-672a8ca39b~146~ubuntu21.04.1*
G04 #@! TF.CreationDate,2022-01-14T10:30:43+00:00*
G04 #@! TF.ProjectId,A500,41353030-2e6b-4696-9361-645f70636258,rev?*
G04 #@! TF.SameCoordinates,Original*
G04 #@! TF.FileFunction,Soldermask,Bot*
G04 #@! TF.FilePolarity,Negative*
%FSLAX46Y46*%
G04 Gerber Fmt 4.6, Leading zero omitted, Abs format (unit mm)*
G04 Created by KiCad (PCBNEW 6.99.0-unknown-672a8ca39b~146~ubuntu21.04.1) date 2022-01-14 10:30:43*
%MOMM*%
%LPD*%
G01*
G04 APERTURE LIST*
%ADD10R,2.400000X1.600000*%
%ADD11O,2.400000X1.600000*%
%ADD12R,1.700000X1.700000*%
%ADD13C,5.000000*%
%ADD14O,1.700000X1.700000*%
G04 APERTURE END LIST*
D10*
G04 #@! TO.C,U2*
X93624400Y-68935600D03*
D11*
X93624400Y-71475600D03*
X93624400Y-74015600D03*
X93624400Y-76555600D03*
X93624400Y-79095600D03*
X93624400Y-81635600D03*
X93624400Y-84175600D03*
X93624400Y-86715600D03*
X93624400Y-89255600D03*
X93624400Y-91795600D03*
X93624400Y-94335600D03*
X93624400Y-96875600D03*
X93624400Y-99415600D03*
X93624400Y-101955600D03*
X93624400Y-104495600D03*
X93624400Y-107035600D03*
X93624400Y-109575600D03*
X93624400Y-112115600D03*
X93624400Y-114655600D03*
X93624400Y-117195600D03*
X93624400Y-119735600D03*
X93624400Y-122275600D03*
X93624400Y-124815600D03*
X93624400Y-127355600D03*
X108864400Y-127355600D03*
X108864400Y-124815600D03*
X108864400Y-122275600D03*
X108864400Y-119735600D03*
X108864400Y-117195600D03*
X108864400Y-114655600D03*
X108864400Y-112115600D03*
X108864400Y-109575600D03*
X108864400Y-107035600D03*
X108864400Y-104495600D03*
X108864400Y-101955600D03*
X108864400Y-99415600D03*
X108864400Y-96875600D03*
X108864400Y-94335600D03*
X108864400Y-91795600D03*
X108864400Y-89255600D03*
X108864400Y-86715600D03*
X108864400Y-84175600D03*
X108864400Y-81635600D03*
X108864400Y-79095600D03*
X108864400Y-76555600D03*
X108864400Y-74015600D03*
X108864400Y-71475600D03*
X108864400Y-68935600D03*
G04 #@! TD*
D10*
G04 #@! TO.C,U1*
X90750000Y-68965000D03*
D11*
X90750000Y-71505000D03*
X90750000Y-74045000D03*
X90750000Y-76585000D03*
X90750000Y-79125000D03*
X90750000Y-81665000D03*
X90750000Y-84205000D03*
X90750000Y-86745000D03*
X90750000Y-89285000D03*
X90750000Y-91825000D03*
X90750000Y-94365000D03*
X90750000Y-96905000D03*
X90750000Y-99445000D03*
X90750000Y-101985000D03*
X90750000Y-104525000D03*
X90750000Y-107065000D03*
X90750000Y-109605000D03*
X90750000Y-112145000D03*
X90750000Y-114685000D03*
X90750000Y-117225000D03*
X90750000Y-119765000D03*
X90750000Y-122305000D03*
X90750000Y-124845000D03*
X90750000Y-127385000D03*
X105990000Y-127385000D03*
X105990000Y-124845000D03*
X105990000Y-122305000D03*
X105990000Y-119765000D03*
X105990000Y-117225000D03*
X105990000Y-114685000D03*
X105990000Y-112145000D03*
X105990000Y-109605000D03*
X105990000Y-107065000D03*
X105990000Y-104525000D03*
X105990000Y-101985000D03*
X105990000Y-99445000D03*
X105990000Y-96905000D03*
X105990000Y-94365000D03*
X105990000Y-91825000D03*
X105990000Y-89285000D03*
X105990000Y-86745000D03*
X105990000Y-84205000D03*
X105990000Y-81665000D03*
X105990000Y-79125000D03*
X105990000Y-76585000D03*
X105990000Y-74045000D03*
X105990000Y-71505000D03*
X105990000Y-68965000D03*
G04 #@! TD*
D12*
G04 #@! TO.C,J2*
X106826200Y-41097200D03*
G04 #@! TD*
D13*
G04 #@! TO.C,H2*
X54762400Y-24130000D03*
G04 #@! TD*
G04 #@! TO.C,H1*
X112877600Y-24130000D03*
G04 #@! TD*
D12*
G04 #@! TO.C,J1*
X59690000Y-22860000D03*
D14*
X59690000Y-25400000D03*
X62230000Y-22860000D03*
X62230000Y-25400000D03*
X64770000Y-22860000D03*
X64770000Y-25400000D03*
X67310000Y-22860000D03*
X67310000Y-25400000D03*
X69850000Y-22860000D03*
X69850000Y-25400000D03*
X72390000Y-22860000D03*
X72390000Y-25400000D03*
X74930000Y-22860000D03*
X74930000Y-25400000D03*
X77470000Y-22860000D03*
X77470000Y-25400000D03*
X80010000Y-22860000D03*
X80010000Y-25400000D03*
X82550000Y-22860000D03*
X82550000Y-25400000D03*
X85090000Y-22860000D03*
X85090000Y-25400000D03*
X87630000Y-22860000D03*
X87630000Y-25400000D03*
X90170000Y-22860000D03*
X90170000Y-25400000D03*
X92710000Y-22860000D03*
X92710000Y-25400000D03*
X95250000Y-22860000D03*
X95250000Y-25400000D03*
X97790000Y-22860000D03*
X97790000Y-25400000D03*
X100330000Y-22860000D03*
X100330000Y-25400000D03*
X102870000Y-22860000D03*
X102870000Y-25400000D03*
X105410000Y-22860000D03*
X105410000Y-25400000D03*
X107950000Y-22860000D03*
X107950000Y-25400000D03*
G04 #@! TD*
D12*
G04 #@! TO.C,JP1*
X106807000Y-32131000D03*
D14*
X106807000Y-34671000D03*
G04 #@! TD*
M02*
