G04 #@! TF.GenerationSoftware,KiCad,Pcbnew,5.1.10-1.fc34*
G04 #@! TF.CreationDate,2021-06-07T07:45:22+01:00*
G04 #@! TF.ProjectId,A500,41353030-2e6b-4696-9361-645f70636258,rev?*
G04 #@! TF.SameCoordinates,Original*
G04 #@! TF.FileFunction,Paste,Bot*
G04 #@! TF.FilePolarity,Positive*
%FSLAX46Y46*%
G04 Gerber Fmt 4.6, Leading zero omitted, Abs format (unit mm)*
G04 Created by KiCad (PCBNEW 5.1.10-1.fc34) date 2021-06-07 07:45:22*
%MOMM*%
%LPD*%
G01*
G04 APERTURE LIST*
G04 APERTURE END LIST*
G04 #@! TO.C,C1*
G36*
G01*
X59039998Y-31634000D02*
X60340002Y-31634000D01*
G75*
G02*
X60590000Y-31883998I0J-249998D01*
G01*
X60590000Y-32709002D01*
G75*
G02*
X60340002Y-32959000I-249998J0D01*
G01*
X59039998Y-32959000D01*
G75*
G02*
X58790000Y-32709002I0J249998D01*
G01*
X58790000Y-31883998D01*
G75*
G02*
X59039998Y-31634000I249998J0D01*
G01*
G37*
G36*
G01*
X59039998Y-28509000D02*
X60340002Y-28509000D01*
G75*
G02*
X60590000Y-28758998I0J-249998D01*
G01*
X60590000Y-29584002D01*
G75*
G02*
X60340002Y-29834000I-249998J0D01*
G01*
X59039998Y-29834000D01*
G75*
G02*
X58790000Y-29584002I0J249998D01*
G01*
X58790000Y-28758998D01*
G75*
G02*
X59039998Y-28509000I249998J0D01*
G01*
G37*
G04 #@! TD*
G04 #@! TO.C,R3*
G36*
G01*
X95040000Y-35289500D02*
X95040000Y-34814500D01*
G75*
G02*
X95277500Y-34577000I237500J0D01*
G01*
X95777500Y-34577000D01*
G75*
G02*
X96015000Y-34814500I0J-237500D01*
G01*
X96015000Y-35289500D01*
G75*
G02*
X95777500Y-35527000I-237500J0D01*
G01*
X95277500Y-35527000D01*
G75*
G02*
X95040000Y-35289500I0J237500D01*
G01*
G37*
G36*
G01*
X93215000Y-35289500D02*
X93215000Y-34814500D01*
G75*
G02*
X93452500Y-34577000I237500J0D01*
G01*
X93952500Y-34577000D01*
G75*
G02*
X94190000Y-34814500I0J-237500D01*
G01*
X94190000Y-35289500D01*
G75*
G02*
X93952500Y-35527000I-237500J0D01*
G01*
X93452500Y-35527000D01*
G75*
G02*
X93215000Y-35289500I0J237500D01*
G01*
G37*
G04 #@! TD*
G04 #@! TO.C,C4*
G36*
G01*
X91710500Y-47315000D02*
X92185500Y-47315000D01*
G75*
G02*
X92423000Y-47552500I0J-237500D01*
G01*
X92423000Y-48152500D01*
G75*
G02*
X92185500Y-48390000I-237500J0D01*
G01*
X91710500Y-48390000D01*
G75*
G02*
X91473000Y-48152500I0J237500D01*
G01*
X91473000Y-47552500D01*
G75*
G02*
X91710500Y-47315000I237500J0D01*
G01*
G37*
G36*
G01*
X91710500Y-45590000D02*
X92185500Y-45590000D01*
G75*
G02*
X92423000Y-45827500I0J-237500D01*
G01*
X92423000Y-46427500D01*
G75*
G02*
X92185500Y-46665000I-237500J0D01*
G01*
X91710500Y-46665000D01*
G75*
G02*
X91473000Y-46427500I0J237500D01*
G01*
X91473000Y-45827500D01*
G75*
G02*
X91710500Y-45590000I237500J0D01*
G01*
G37*
G04 #@! TD*
G04 #@! TO.C,C3*
G36*
G01*
X85781000Y-35576500D02*
X85781000Y-36051500D01*
G75*
G02*
X85543500Y-36289000I-237500J0D01*
G01*
X84943500Y-36289000D01*
G75*
G02*
X84706000Y-36051500I0J237500D01*
G01*
X84706000Y-35576500D01*
G75*
G02*
X84943500Y-35339000I237500J0D01*
G01*
X85543500Y-35339000D01*
G75*
G02*
X85781000Y-35576500I0J-237500D01*
G01*
G37*
G36*
G01*
X87506000Y-35576500D02*
X87506000Y-36051500D01*
G75*
G02*
X87268500Y-36289000I-237500J0D01*
G01*
X86668500Y-36289000D01*
G75*
G02*
X86431000Y-36051500I0J237500D01*
G01*
X86431000Y-35576500D01*
G75*
G02*
X86668500Y-35339000I237500J0D01*
G01*
X87268500Y-35339000D01*
G75*
G02*
X87506000Y-35576500I0J-237500D01*
G01*
G37*
G04 #@! TD*
G04 #@! TO.C,R2*
G36*
G01*
X105073000Y-28939500D02*
X105073000Y-28464500D01*
G75*
G02*
X105310500Y-28227000I237500J0D01*
G01*
X105810500Y-28227000D01*
G75*
G02*
X106048000Y-28464500I0J-237500D01*
G01*
X106048000Y-28939500D01*
G75*
G02*
X105810500Y-29177000I-237500J0D01*
G01*
X105310500Y-29177000D01*
G75*
G02*
X105073000Y-28939500I0J237500D01*
G01*
G37*
G36*
G01*
X103248000Y-28939500D02*
X103248000Y-28464500D01*
G75*
G02*
X103485500Y-28227000I237500J0D01*
G01*
X103985500Y-28227000D01*
G75*
G02*
X104223000Y-28464500I0J-237500D01*
G01*
X104223000Y-28939500D01*
G75*
G02*
X103985500Y-29177000I-237500J0D01*
G01*
X103485500Y-29177000D01*
G75*
G02*
X103248000Y-28939500I0J237500D01*
G01*
G37*
G04 #@! TD*
G04 #@! TO.C,R1*
G36*
G01*
X109236500Y-34334000D02*
X109711500Y-34334000D01*
G75*
G02*
X109949000Y-34571500I0J-237500D01*
G01*
X109949000Y-35071500D01*
G75*
G02*
X109711500Y-35309000I-237500J0D01*
G01*
X109236500Y-35309000D01*
G75*
G02*
X108999000Y-35071500I0J237500D01*
G01*
X108999000Y-34571500D01*
G75*
G02*
X109236500Y-34334000I237500J0D01*
G01*
G37*
G36*
G01*
X109236500Y-32509000D02*
X109711500Y-32509000D01*
G75*
G02*
X109949000Y-32746500I0J-237500D01*
G01*
X109949000Y-33246500D01*
G75*
G02*
X109711500Y-33484000I-237500J0D01*
G01*
X109236500Y-33484000D01*
G75*
G02*
X108999000Y-33246500I0J237500D01*
G01*
X108999000Y-32746500D01*
G75*
G02*
X109236500Y-32509000I237500J0D01*
G01*
G37*
G04 #@! TD*
G04 #@! TO.C,C2*
G36*
G01*
X98115000Y-29193500D02*
X98115000Y-28718500D01*
G75*
G02*
X98352500Y-28481000I237500J0D01*
G01*
X98952500Y-28481000D01*
G75*
G02*
X99190000Y-28718500I0J-237500D01*
G01*
X99190000Y-29193500D01*
G75*
G02*
X98952500Y-29431000I-237500J0D01*
G01*
X98352500Y-29431000D01*
G75*
G02*
X98115000Y-29193500I0J237500D01*
G01*
G37*
G36*
G01*
X96390000Y-29193500D02*
X96390000Y-28718500D01*
G75*
G02*
X96627500Y-28481000I237500J0D01*
G01*
X97227500Y-28481000D01*
G75*
G02*
X97465000Y-28718500I0J-237500D01*
G01*
X97465000Y-29193500D01*
G75*
G02*
X97227500Y-29431000I-237500J0D01*
G01*
X96627500Y-29431000D01*
G75*
G02*
X96390000Y-29193500I0J237500D01*
G01*
G37*
G04 #@! TD*
M02*
