G04 #@! TF.GenerationSoftware,KiCad,Pcbnew,5.1.10-1.fc34*
G04 #@! TF.CreationDate,2021-06-07T07:45:22+01:00*
G04 #@! TF.ProjectId,A500,41353030-2e6b-4696-9361-645f70636258,rev?*
G04 #@! TF.SameCoordinates,Original*
G04 #@! TF.FileFunction,Soldermask,Top*
G04 #@! TF.FilePolarity,Negative*
%FSLAX46Y46*%
G04 Gerber Fmt 4.6, Leading zero omitted, Abs format (unit mm)*
G04 Created by KiCad (PCBNEW 5.1.10-1.fc34) date 2021-06-07 07:45:22*
%MOMM*%
%LPD*%
G01*
G04 APERTURE LIST*
%ADD10R,0.550000X1.500000*%
%ADD11R,1.500000X0.550000*%
%ADD12O,2.000000X1.200000*%
%ADD13O,1.700000X1.700000*%
%ADD14R,1.700000X1.700000*%
%ADD15O,1.600000X1.600000*%
%ADD16R,1.600000X1.600000*%
G04 APERTURE END LIST*
D10*
G04 #@! TO.C,U3*
X99250000Y-43292000D03*
X98450000Y-43292000D03*
X97650000Y-43292000D03*
X96850000Y-43292000D03*
X96050000Y-43292000D03*
X95250000Y-43292000D03*
X94450000Y-43292000D03*
X93650000Y-43292000D03*
X92850000Y-43292000D03*
X92050000Y-43292000D03*
X91250000Y-43292000D03*
D11*
X89550000Y-41592000D03*
X89550000Y-40792000D03*
X89550000Y-39992000D03*
X89550000Y-39192000D03*
X89550000Y-38392000D03*
X89550000Y-37592000D03*
X89550000Y-36792000D03*
X89550000Y-35992000D03*
X89550000Y-35192000D03*
X89550000Y-34392000D03*
X89550000Y-33592000D03*
D10*
X91250000Y-31892000D03*
X92050000Y-31892000D03*
X92850000Y-31892000D03*
X93650000Y-31892000D03*
X94450000Y-31892000D03*
X95250000Y-31892000D03*
X96050000Y-31892000D03*
X96850000Y-31892000D03*
X97650000Y-31892000D03*
X98450000Y-31892000D03*
X99250000Y-31892000D03*
D11*
X100950000Y-33592000D03*
X100950000Y-34392000D03*
X100950000Y-35192000D03*
X100950000Y-35992000D03*
X100950000Y-36792000D03*
X100950000Y-37592000D03*
X100950000Y-38392000D03*
X100950000Y-39192000D03*
X100950000Y-39992000D03*
X100950000Y-40792000D03*
X100950000Y-41592000D03*
G04 #@! TD*
D12*
G04 #@! TO.C,U2*
X93472000Y-127406400D03*
X108712000Y-127406400D03*
X93472000Y-124866400D03*
X108712000Y-124866400D03*
X93472000Y-122326400D03*
X108712000Y-122326400D03*
X93472000Y-119786400D03*
X108712000Y-119786400D03*
X93472000Y-117246400D03*
X108712000Y-117246400D03*
X93472000Y-114706400D03*
X108712000Y-114706400D03*
X93472000Y-112166400D03*
X108712000Y-112166400D03*
X93472000Y-109626400D03*
X108712000Y-109626400D03*
X93472000Y-107086400D03*
X108712000Y-107086400D03*
X93472000Y-104546400D03*
X108712000Y-104546400D03*
X93472000Y-102006400D03*
X108712000Y-102006400D03*
X93472000Y-99466400D03*
X108712000Y-99466400D03*
X93472000Y-96926400D03*
X108712000Y-96926400D03*
X93472000Y-94386400D03*
X108712000Y-94386400D03*
X93472000Y-91846400D03*
X108712000Y-91846400D03*
X93472000Y-89306400D03*
X108712000Y-89306400D03*
X93472000Y-86766400D03*
X108712000Y-86766400D03*
X93472000Y-84226400D03*
X108712000Y-84226400D03*
X93472000Y-81686400D03*
X108712000Y-81686400D03*
X93472000Y-79146400D03*
X108712000Y-79146400D03*
X93472000Y-76606400D03*
X108712000Y-76606400D03*
X93472000Y-74066400D03*
X108712000Y-74066400D03*
X93472000Y-71526400D03*
X108712000Y-71526400D03*
X93472000Y-68986400D03*
X108712000Y-68986400D03*
G04 #@! TD*
D13*
G04 #@! TO.C,J1*
X107950000Y-25400000D03*
X107950000Y-22860000D03*
X105410000Y-25400000D03*
X105410000Y-22860000D03*
X102870000Y-25400000D03*
X102870000Y-22860000D03*
X100330000Y-25400000D03*
X100330000Y-22860000D03*
X97790000Y-25400000D03*
X97790000Y-22860000D03*
X95250000Y-25400000D03*
X95250000Y-22860000D03*
X92710000Y-25400000D03*
X92710000Y-22860000D03*
X90170000Y-25400000D03*
X90170000Y-22860000D03*
X87630000Y-25400000D03*
X87630000Y-22860000D03*
X85090000Y-25400000D03*
X85090000Y-22860000D03*
X82550000Y-25400000D03*
X82550000Y-22860000D03*
X80010000Y-25400000D03*
X80010000Y-22860000D03*
X77470000Y-25400000D03*
X77470000Y-22860000D03*
X74930000Y-25400000D03*
X74930000Y-22860000D03*
X72390000Y-25400000D03*
X72390000Y-22860000D03*
X69850000Y-25400000D03*
X69850000Y-22860000D03*
X67310000Y-25400000D03*
X67310000Y-22860000D03*
X64770000Y-25400000D03*
X64770000Y-22860000D03*
X62230000Y-25400000D03*
X62230000Y-22860000D03*
X59690000Y-25400000D03*
D14*
X59690000Y-22860000D03*
G04 #@! TD*
D15*
G04 #@! TO.C,U1*
X105990000Y-68965000D03*
X90750000Y-127385000D03*
X105990000Y-71505000D03*
X90750000Y-124845000D03*
X105990000Y-74045000D03*
X90750000Y-122305000D03*
X105990000Y-76585000D03*
X90750000Y-119765000D03*
X105990000Y-79125000D03*
X90750000Y-117225000D03*
X105990000Y-81665000D03*
X90750000Y-114685000D03*
X105990000Y-84205000D03*
X90750000Y-112145000D03*
X105990000Y-86745000D03*
X90750000Y-109605000D03*
X105990000Y-89285000D03*
X90750000Y-107065000D03*
X105990000Y-91825000D03*
X90750000Y-104525000D03*
X105990000Y-94365000D03*
X90750000Y-101985000D03*
X105990000Y-96905000D03*
X90750000Y-99445000D03*
X105990000Y-99445000D03*
X90750000Y-96905000D03*
X105990000Y-101985000D03*
X90750000Y-94365000D03*
X105990000Y-104525000D03*
X90750000Y-91825000D03*
X105990000Y-107065000D03*
X90750000Y-89285000D03*
X105990000Y-109605000D03*
X90750000Y-86745000D03*
X105990000Y-112145000D03*
X90750000Y-84205000D03*
X105990000Y-114685000D03*
X90750000Y-81665000D03*
X105990000Y-117225000D03*
X90750000Y-79125000D03*
X105990000Y-119765000D03*
X90750000Y-76585000D03*
X105990000Y-122305000D03*
X90750000Y-74045000D03*
X105990000Y-124845000D03*
X90750000Y-71505000D03*
X105990000Y-127385000D03*
D16*
X90750000Y-68965000D03*
G04 #@! TD*
D13*
G04 #@! TO.C,JP1*
X106807000Y-34671000D03*
D14*
X106807000Y-32131000D03*
G04 #@! TD*
M02*
