G04 #@! TF.GenerationSoftware,KiCad,Pcbnew,6.99.0-dde629330d~145~ubuntu21.04.1*
G04 #@! TF.CreationDate,2022-01-09T07:55:56+00:00*
G04 #@! TF.ProjectId,videoslotadapter,76696465-6f73-46c6-9f74-616461707465,rev?*
G04 #@! TF.SameCoordinates,Original*
G04 #@! TF.FileFunction,Copper,L2,Bot*
G04 #@! TF.FilePolarity,Positive*
%FSLAX46Y46*%
G04 Gerber Fmt 4.6, Leading zero omitted, Abs format (unit mm)*
G04 Created by KiCad (PCBNEW 6.99.0-dde629330d~145~ubuntu21.04.1) date 2022-01-09 07:55:56*
%MOMM*%
%LPD*%
G01*
G04 APERTURE LIST*
%ADD10C,0.300000*%
G04 #@! TA.AperFunction,NonConductor*
%ADD11C,0.300000*%
G04 #@! TD*
G04 #@! TA.AperFunction,ConnectorPad*
%ADD12R,1.780000X7.620000*%
G04 #@! TD*
G04 #@! TA.AperFunction,ComponentPad*
%ADD13R,1.700000X1.700000*%
G04 #@! TD*
G04 #@! TA.AperFunction,ComponentPad*
%ADD14O,1.700000X1.700000*%
G04 #@! TD*
G04 #@! TA.AperFunction,ComponentPad*
%ADD15C,2.200000*%
G04 #@! TD*
G04 #@! TA.AperFunction,ComponentPad*
%ADD16C,1.700000*%
G04 #@! TD*
G04 #@! TA.AperFunction,ViaPad*
%ADD17C,1.600000*%
G04 #@! TD*
G04 #@! TA.AperFunction,ViaPad*
%ADD18C,0.800000*%
G04 #@! TD*
G04 #@! TA.AperFunction,Conductor*
%ADD19C,0.500000*%
G04 #@! TD*
G04 #@! TA.AperFunction,Conductor*
%ADD20C,0.250000*%
G04 #@! TD*
G04 APERTURE END LIST*
D10*
D11*
X217038152Y-29451527D02*
X216118792Y-28266295D01*
X215965263Y-29018171D02*
X216578170Y-29808326D01*
X216052821Y-29131050D02*
X215952602Y-29118390D01*
X215795944Y-29149508D01*
X215626625Y-29280846D01*
X215557525Y-29424843D01*
X215588643Y-29581502D01*
X216070213Y-30202338D01*
X215622890Y-30458919D02*
X215553790Y-30602916D01*
X215328032Y-30778033D01*
X215171373Y-30809151D01*
X215027376Y-30740051D01*
X214983596Y-30683611D01*
X214952478Y-30526953D01*
X215021578Y-30382955D01*
X215190897Y-30251618D01*
X215259997Y-30107620D01*
X215228879Y-29950962D01*
X215185100Y-29894522D01*
X215041102Y-29825422D01*
X214884444Y-29856540D01*
X214715125Y-29987878D01*
X214646024Y-30131875D01*
X214203434Y-31559962D02*
X214360092Y-31528844D01*
X214585851Y-31353727D01*
X214654951Y-31209729D01*
X214623832Y-31053071D01*
X214273600Y-30601554D01*
X214129602Y-30532454D01*
X213972944Y-30563572D01*
X213747185Y-30738689D01*
X213678085Y-30882686D01*
X213709203Y-31039345D01*
X213796762Y-31152224D01*
X214448716Y-30827313D01*
X213730790Y-32016980D02*
X213117883Y-31226825D01*
X213292999Y-31452584D02*
X213149002Y-31383484D01*
X213048783Y-31370823D01*
X212892124Y-31401942D01*
X212779245Y-31489500D01*
X212488581Y-31714962D02*
X212037064Y-32065194D01*
X212012809Y-31451221D02*
X212800832Y-32467135D01*
X212831951Y-32623793D01*
X212762850Y-32767791D01*
X212649971Y-32855349D01*
X211478849Y-33763765D02*
X210559489Y-32578532D01*
X210277290Y-32797428D01*
X210151750Y-32985204D01*
X210126429Y-33185642D01*
X210157548Y-33342300D01*
X210276224Y-33611838D01*
X210407562Y-33781157D01*
X210639118Y-33963136D01*
X210783115Y-34032237D01*
X210983553Y-34057558D01*
X211196651Y-33982660D01*
X211478849Y-33763765D01*
X210341591Y-34645913D02*
X209728684Y-33855758D01*
X209422230Y-33460680D02*
X209522449Y-33473341D01*
X209509788Y-33573559D01*
X209409570Y-33560899D01*
X209422230Y-33460680D01*
X209509788Y-33573559D01*
X209837829Y-34946272D02*
X209768729Y-35090270D01*
X209542970Y-35265386D01*
X209386312Y-35296505D01*
X209242314Y-35227405D01*
X209198535Y-35170965D01*
X209167416Y-35014307D01*
X209236517Y-34870309D01*
X209405836Y-34738972D01*
X209474936Y-34594974D01*
X209443817Y-34438315D01*
X209400038Y-34381876D01*
X209256040Y-34312776D01*
X209099382Y-34343894D01*
X208930063Y-34475231D01*
X208860963Y-34619229D01*
X208913669Y-35753523D02*
X207994308Y-34568290D01*
X208450557Y-35389564D02*
X208462151Y-36103755D01*
X207849244Y-35313600D02*
X208650994Y-35414885D01*
X206734562Y-36178237D02*
X205887967Y-36834923D01*
X206001912Y-35932954D02*
X207522585Y-37194150D01*
X206394858Y-37255322D02*
X207241453Y-36598635D01*
X207127508Y-37500604D02*
X205606835Y-36239408D01*
X205265529Y-36865745D02*
X205165310Y-36853084D01*
X205008652Y-36884203D01*
X204726454Y-37103098D01*
X204657353Y-37247096D01*
X204644693Y-37347314D01*
X204675811Y-37503973D01*
X204763369Y-37616852D01*
X204951146Y-37742392D01*
X206153771Y-37894319D01*
X205420056Y-38463447D01*
X204184710Y-37704114D02*
X204084491Y-37691453D01*
X203927833Y-37722572D01*
X203645635Y-37941467D01*
X203576534Y-38085465D01*
X203563874Y-38185684D01*
X203594992Y-38342342D01*
X203682550Y-38455221D01*
X203870327Y-38580761D01*
X205072952Y-38732688D01*
X204339237Y-39301816D01*
D12*
X209554000Y-112272000D03*
X207014000Y-112272000D03*
X204474000Y-112272000D03*
X201934000Y-112272000D03*
X199394000Y-112272000D03*
X196854000Y-112272000D03*
X194314000Y-112272000D03*
X191774000Y-112272000D03*
X189234000Y-112272000D03*
X186694000Y-112272000D03*
X184154000Y-112272000D03*
X181614000Y-112272000D03*
X179074000Y-112272000D03*
X176534000Y-112272000D03*
X173994000Y-112272000D03*
X171454000Y-112272000D03*
X168914000Y-112272000D03*
X166374000Y-112272000D03*
X156214000Y-112272000D03*
X153674000Y-112272000D03*
X151134000Y-112272000D03*
X148594000Y-112272000D03*
X146054000Y-112272000D03*
X143514000Y-112272000D03*
X140974000Y-112272000D03*
X138434000Y-112272000D03*
X135894000Y-112272000D03*
X133354000Y-112272000D03*
X130814000Y-112272000D03*
X128274000Y-112272000D03*
X125734000Y-112272000D03*
X123194000Y-112272000D03*
X120654000Y-112272000D03*
X118114000Y-112272000D03*
X115574000Y-112272000D03*
X113034000Y-112272000D03*
D13*
X218450000Y-50500000D03*
D14*
X215910000Y-50500000D03*
X218450000Y-53040000D03*
X215910000Y-53040000D03*
X218450000Y-55580000D03*
X215910000Y-55580000D03*
X218450000Y-58120000D03*
X215910000Y-58120000D03*
X218450000Y-60660000D03*
X215910000Y-60660000D03*
X218450000Y-63200000D03*
X215910000Y-63200000D03*
X218450000Y-65740000D03*
X215910000Y-65740000D03*
X218450000Y-68280000D03*
X215910000Y-68280000D03*
X218450000Y-70820000D03*
X215910000Y-70820000D03*
X218450000Y-73360000D03*
X215910000Y-73360000D03*
X218450000Y-75900000D03*
X215910000Y-75900000D03*
X218450000Y-78440000D03*
X215910000Y-78440000D03*
X218450000Y-80980000D03*
X215910000Y-80980000D03*
X218450000Y-83520000D03*
X215910000Y-83520000D03*
X218450000Y-86060000D03*
X215910000Y-86060000D03*
X218450000Y-88600000D03*
X215910000Y-88600000D03*
X218450000Y-91140000D03*
X215910000Y-91140000D03*
X218450000Y-93680000D03*
X215910000Y-93680000D03*
X218450000Y-96220000D03*
X215910000Y-96220000D03*
X218450000Y-98760000D03*
X215910000Y-98760000D03*
D15*
X238225000Y-23275000D03*
X238225000Y-30275000D03*
D16*
X240725000Y-24525000D03*
X240725000Y-29025000D03*
D15*
X238225000Y-20475000D03*
X238225000Y-13475000D03*
D16*
X240725000Y-14725000D03*
X240725000Y-19225000D03*
D15*
X238225000Y-40050000D03*
X238225000Y-33050000D03*
D16*
X240725000Y-34300000D03*
X240725000Y-38800000D03*
D17*
X156150000Y-99800000D03*
X209550000Y-94150000D03*
X156200000Y-105500000D03*
X211450000Y-61350000D03*
X210600000Y-80250000D03*
X146100000Y-105500000D03*
X191750000Y-65950000D03*
X172950000Y-68775000D03*
X208900000Y-51450000D03*
X143550000Y-105450000D03*
X174900000Y-86800000D03*
X167350000Y-94550000D03*
X171950000Y-100650000D03*
X199600000Y-80350000D03*
X209250000Y-55500000D03*
X136950000Y-101675000D03*
X206250000Y-58100000D03*
X191200000Y-78550000D03*
X151150000Y-105500000D03*
X161250000Y-94450000D03*
X198800000Y-61250000D03*
X199800000Y-94400000D03*
D18*
X186350000Y-79800000D03*
X182550000Y-72200000D03*
X194540120Y-74509880D03*
X188900000Y-76450000D03*
X182200000Y-78950000D03*
X162400000Y-104550000D03*
X187850000Y-74350000D03*
X162850000Y-100250000D03*
X183300000Y-78350000D03*
X168900000Y-92950000D03*
X156950000Y-95000000D03*
X166600000Y-101750000D03*
X180444024Y-89544024D03*
X153600000Y-103450000D03*
X184400000Y-78700000D03*
X168100000Y-96150000D03*
X167800000Y-97950000D03*
X147869000Y-103600000D03*
X184350000Y-71500000D03*
X202750000Y-70972540D03*
X176350000Y-74550000D03*
X184800000Y-67650000D03*
D17*
X204550000Y-104900000D03*
D18*
X184150000Y-105200000D03*
X189750000Y-79600000D03*
D19*
X146054000Y-112272000D02*
X146054000Y-105546000D01*
X151134000Y-112272000D02*
X151134000Y-105516000D01*
X174900000Y-88208002D02*
X168558002Y-94550000D01*
X146054000Y-105546000D02*
X146100000Y-105500000D01*
X156214000Y-112272000D02*
X156214000Y-105514000D01*
X151134000Y-105516000D02*
X151150000Y-105500000D01*
X174900000Y-86800000D02*
X174900000Y-88208002D01*
X168558002Y-94550000D02*
X167350000Y-94550000D01*
X156214000Y-105514000D02*
X156200000Y-105500000D01*
X217149999Y-49199999D02*
X204900001Y-49199999D01*
X186350000Y-79800000D02*
X186350000Y-77741998D01*
X222800000Y-66470000D02*
X218450000Y-70820000D01*
X203600001Y-71380541D02*
X200470662Y-74509880D01*
X186350000Y-77741998D02*
X189582118Y-74509880D01*
X204900001Y-49199999D02*
X202800000Y-51300000D01*
X218450000Y-50500000D02*
X217149999Y-49199999D01*
X221850000Y-50500000D02*
X222800000Y-51450000D01*
X202800000Y-51300000D02*
X203600001Y-52100001D01*
X182550000Y-71550000D02*
X182550000Y-72200000D01*
X202800000Y-51300000D02*
X182550000Y-71550000D01*
X218450000Y-50500000D02*
X221850000Y-50500000D01*
X200470662Y-74509880D02*
X194540120Y-74509880D01*
X222800000Y-51450000D02*
X222800000Y-66470000D01*
X203600001Y-52100001D02*
X203600001Y-71380541D01*
X189582118Y-74509880D02*
X194540120Y-74509880D01*
D20*
X188900000Y-84070280D02*
X188900000Y-76450000D01*
X181614000Y-91356280D02*
X188900000Y-84070280D01*
X181614000Y-112272000D02*
X181614000Y-91356280D01*
X173994000Y-112272000D02*
X173994000Y-97067050D01*
X173994000Y-97067050D02*
X182200000Y-88861050D01*
X182200000Y-88861050D02*
X182200000Y-78950000D01*
X155884997Y-104150001D02*
X153674000Y-106360998D01*
X162000001Y-104150001D02*
X155884997Y-104150001D01*
X162400000Y-104550000D02*
X162000001Y-104150001D01*
X153674000Y-106360998D02*
X153674000Y-112272000D01*
X177500000Y-81750000D02*
X184900000Y-74350000D01*
X177500000Y-81750000D02*
X177500000Y-89323002D01*
X177500000Y-89323002D02*
X166573002Y-100250000D01*
X184900000Y-74350000D02*
X187850000Y-74350000D01*
X166573002Y-100250000D02*
X162850000Y-100250000D01*
X176534000Y-112272000D02*
X176534000Y-95163460D01*
X183300000Y-88397460D02*
X183300000Y-78350000D01*
X176534000Y-95163460D02*
X183300000Y-88397460D01*
X168900000Y-92950000D02*
X159000000Y-92950000D01*
X159000000Y-92950000D02*
X156950000Y-95000000D01*
X148594000Y-112272000D02*
X148594000Y-106390998D01*
X148594000Y-106390998D02*
X153234998Y-101750000D01*
X153234998Y-101750000D02*
X166600000Y-101750000D01*
X166538048Y-103450000D02*
X180444024Y-89544024D01*
X153600000Y-103450000D02*
X166538048Y-103450000D01*
X179074000Y-93259870D02*
X184400000Y-87933870D01*
X184400000Y-87933870D02*
X184400000Y-78700000D01*
X179074000Y-112272000D02*
X179074000Y-93259870D01*
X168100000Y-96150000D02*
X153784998Y-96150000D01*
X153784998Y-96150000D02*
X144675001Y-105259997D01*
X144675001Y-106074999D02*
X143514000Y-107236000D01*
X144675001Y-105259997D02*
X144675001Y-106074999D01*
X143514000Y-107236000D02*
X143514000Y-112272000D01*
X167800000Y-97950000D02*
X153519000Y-97950000D01*
X153519000Y-97950000D02*
X147869000Y-103600000D01*
X230070000Y-44955000D02*
X240725000Y-34300000D01*
X218450000Y-96220000D02*
X230070000Y-84600000D01*
X230070000Y-84600000D02*
X230070000Y-44955000D01*
X224990000Y-30460000D02*
X240725000Y-14725000D01*
X224990000Y-86339002D02*
X224990000Y-30460000D01*
X218824003Y-92504999D02*
X224990000Y-86339002D01*
X217085001Y-92504999D02*
X218824003Y-92504999D01*
X215910000Y-93680000D02*
X217085001Y-92504999D01*
X202750000Y-70972540D02*
X202222540Y-71500000D01*
X202222540Y-71500000D02*
X184350000Y-71500000D01*
X183250000Y-67650000D02*
X176350000Y-74550000D01*
X184800000Y-67650000D02*
X183250000Y-67650000D01*
D19*
X204550000Y-104900000D02*
X204550000Y-64400000D01*
X204550000Y-64400000D02*
X215910000Y-53040000D01*
X215910000Y-50500000D02*
X215910000Y-53040000D01*
D20*
X189750000Y-99600000D02*
X184150000Y-105200000D01*
X189750000Y-79600000D02*
X189750000Y-99600000D01*
G04 #@! TA.AperFunction,Conductor*
G36*
X152608522Y-103376546D02*
G01*
X152665358Y-103419093D01*
X152689799Y-103481431D01*
X152706458Y-103639928D01*
X152765473Y-103821556D01*
X152860960Y-103986944D01*
X152865378Y-103991851D01*
X152865379Y-103991852D01*
X152980350Y-104119540D01*
X152988747Y-104128866D01*
X153143248Y-104241118D01*
X153149276Y-104243802D01*
X153149278Y-104243803D01*
X153236753Y-104282749D01*
X153317712Y-104318794D01*
X153411112Y-104338647D01*
X153498056Y-104357128D01*
X153498061Y-104357128D01*
X153504513Y-104358500D01*
X153695487Y-104358500D01*
X153701939Y-104357128D01*
X153701944Y-104357128D01*
X153788888Y-104338647D01*
X153882288Y-104318794D01*
X153963247Y-104282749D01*
X154050722Y-104243803D01*
X154050724Y-104243802D01*
X154056752Y-104241118D01*
X154156961Y-104168312D01*
X154200135Y-104136944D01*
X154211253Y-104128866D01*
X154215668Y-104123963D01*
X154220580Y-104119540D01*
X154221705Y-104120789D01*
X154275014Y-104087949D01*
X154308200Y-104083500D01*
X154751404Y-104083500D01*
X154819525Y-104103502D01*
X154866018Y-104157158D01*
X154876122Y-104227432D01*
X154846628Y-104292012D01*
X154840501Y-104298593D01*
X154057867Y-105081226D01*
X153281747Y-105857346D01*
X153273461Y-105864886D01*
X153266982Y-105868998D01*
X153261557Y-105874775D01*
X153220357Y-105918649D01*
X153217602Y-105921491D01*
X153197865Y-105941228D01*
X153195385Y-105944425D01*
X153187682Y-105953445D01*
X153157414Y-105985677D01*
X153153595Y-105992623D01*
X153153593Y-105992626D01*
X153147652Y-106003432D01*
X153136801Y-106019951D01*
X153124386Y-106035957D01*
X153121241Y-106043226D01*
X153121238Y-106043230D01*
X153106826Y-106076535D01*
X153101609Y-106087185D01*
X153080305Y-106125938D01*
X153078334Y-106133613D01*
X153078334Y-106133614D01*
X153075267Y-106145560D01*
X153068863Y-106164264D01*
X153060819Y-106182853D01*
X153059580Y-106190676D01*
X153059577Y-106190686D01*
X153053901Y-106226522D01*
X153051495Y-106238142D01*
X153043793Y-106268142D01*
X153040500Y-106280968D01*
X153040500Y-106301222D01*
X153038949Y-106320932D01*
X153035780Y-106340941D01*
X153036526Y-106348833D01*
X153039941Y-106384959D01*
X153040500Y-106396817D01*
X153040500Y-107474000D01*
X153020498Y-107542121D01*
X152966842Y-107588614D01*
X152914500Y-107600000D01*
X149353500Y-107600000D01*
X149285379Y-107579998D01*
X149238886Y-107526342D01*
X149227500Y-107474000D01*
X149227500Y-106705592D01*
X149247502Y-106637471D01*
X149264405Y-106616497D01*
X152475395Y-103405507D01*
X152537707Y-103371481D01*
X152608522Y-103376546D01*
G37*
G04 #@! TD.AperFunction*
G04 #@! TA.AperFunction,Conductor*
G36*
X241486056Y-7925500D02*
G01*
X241487496Y-7925724D01*
X241500858Y-7927805D01*
X241500861Y-7927805D01*
X241509730Y-7929186D01*
X241518632Y-7928022D01*
X241518634Y-7928022D01*
X241522174Y-7927559D01*
X241524957Y-7927195D01*
X241550279Y-7926452D01*
X241700962Y-7937229D01*
X241741971Y-7940162D01*
X241759765Y-7942720D01*
X241972337Y-7988962D01*
X241989586Y-7994027D01*
X242042298Y-8013687D01*
X242193414Y-8070050D01*
X242209761Y-8077516D01*
X242400692Y-8181773D01*
X242415815Y-8191492D01*
X242589965Y-8321859D01*
X242603551Y-8333632D01*
X242757368Y-8487449D01*
X242769141Y-8501035D01*
X242899508Y-8675185D01*
X242909227Y-8690308D01*
X243013484Y-8881239D01*
X243020950Y-8897586D01*
X243051913Y-8980602D01*
X243096973Y-9101414D01*
X243102038Y-9118663D01*
X243148280Y-9331235D01*
X243150838Y-9349029D01*
X243164041Y-9533628D01*
X243163297Y-9551532D01*
X243163195Y-9559858D01*
X243161814Y-9568730D01*
X243162978Y-9577632D01*
X243162978Y-9577635D01*
X243165936Y-9600251D01*
X243167000Y-9616589D01*
X243167000Y-104882509D01*
X243165500Y-104901894D01*
X243163095Y-104917337D01*
X243163095Y-104917341D01*
X243161714Y-104926210D01*
X243162878Y-104935112D01*
X243162878Y-104935114D01*
X243163705Y-104941435D01*
X243164448Y-104966759D01*
X243160287Y-105024937D01*
X243150738Y-105158451D01*
X243148180Y-105176245D01*
X243101938Y-105388817D01*
X243096873Y-105406066D01*
X243020850Y-105609894D01*
X243013384Y-105626241D01*
X242909127Y-105817172D01*
X242899408Y-105832295D01*
X242769041Y-106006445D01*
X242757268Y-106020031D01*
X242603451Y-106173848D01*
X242589865Y-106185621D01*
X242415715Y-106315988D01*
X242400592Y-106325707D01*
X242209661Y-106429964D01*
X242193314Y-106437430D01*
X242074138Y-106481880D01*
X241989486Y-106513453D01*
X241972237Y-106518518D01*
X241759665Y-106564760D01*
X241741871Y-106567318D01*
X241719834Y-106568894D01*
X241557269Y-106580521D01*
X241539368Y-106579777D01*
X241531042Y-106579675D01*
X241522170Y-106578294D01*
X241513268Y-106579458D01*
X241513265Y-106579458D01*
X241490649Y-106582416D01*
X241474311Y-106583480D01*
X212144555Y-106583480D01*
X212143817Y-106583478D01*
X212065938Y-106583022D01*
X212037613Y-106591125D01*
X212020827Y-106594710D01*
X212015549Y-106595466D01*
X211991675Y-106598885D01*
X211983508Y-106602598D01*
X211983502Y-106602600D01*
X211968254Y-106609533D01*
X211950763Y-106615971D01*
X211926036Y-106623045D01*
X211901125Y-106638771D01*
X211886028Y-106646920D01*
X211859210Y-106659113D01*
X211852407Y-106664975D01*
X211839723Y-106675904D01*
X211824740Y-106686994D01*
X211802989Y-106700725D01*
X211797050Y-106707453D01*
X211797049Y-106707454D01*
X211783501Y-106722803D01*
X211771284Y-106734875D01*
X211748973Y-106754099D01*
X211744090Y-106761633D01*
X211734988Y-106775676D01*
X211723715Y-106790533D01*
X211712632Y-106803087D01*
X211712630Y-106803091D01*
X211706692Y-106809817D01*
X211694180Y-106836483D01*
X211685848Y-106851488D01*
X211674709Y-106868674D01*
X211674708Y-106868677D01*
X211669827Y-106876207D01*
X211664221Y-106894953D01*
X211662457Y-106900850D01*
X211655809Y-106918264D01*
X211648696Y-106933425D01*
X211644883Y-106941553D01*
X211643505Y-106950419D01*
X211643504Y-106950422D01*
X211640361Y-106970648D01*
X211636572Y-106987403D01*
X211630705Y-107007019D01*
X211630704Y-107007023D01*
X211628133Y-107015621D01*
X211628078Y-107024593D01*
X211628078Y-107024595D01*
X211627923Y-107050051D01*
X211627888Y-107050889D01*
X211627710Y-107052033D01*
X211627718Y-107083086D01*
X211627716Y-107083857D01*
X211627244Y-107161132D01*
X211627643Y-107162527D01*
X211627738Y-107163925D01*
X211627817Y-107473968D01*
X211607832Y-107542094D01*
X211554188Y-107588600D01*
X211501817Y-107600000D01*
X182373500Y-107600000D01*
X182305379Y-107579998D01*
X182258886Y-107526342D01*
X182247500Y-107474000D01*
X182247500Y-91670874D01*
X182267502Y-91602753D01*
X182284405Y-91581779D01*
X188901405Y-84964780D01*
X188963717Y-84930754D01*
X189034532Y-84935819D01*
X189091368Y-84978366D01*
X189116179Y-85044886D01*
X189116500Y-85053875D01*
X189116500Y-99285406D01*
X189096498Y-99353527D01*
X189079595Y-99374501D01*
X184199500Y-104254595D01*
X184137188Y-104288621D01*
X184110405Y-104291500D01*
X184054513Y-104291500D01*
X184048061Y-104292872D01*
X184048056Y-104292872D01*
X183961112Y-104311353D01*
X183867712Y-104331206D01*
X183861682Y-104333891D01*
X183861681Y-104333891D01*
X183699278Y-104406197D01*
X183699276Y-104406198D01*
X183693248Y-104408882D01*
X183538747Y-104521134D01*
X183534326Y-104526044D01*
X183534325Y-104526045D01*
X183417780Y-104655482D01*
X183410960Y-104663056D01*
X183402683Y-104677393D01*
X183320882Y-104819076D01*
X183315473Y-104828444D01*
X183256458Y-105010072D01*
X183255768Y-105016633D01*
X183255768Y-105016635D01*
X183240863Y-105158451D01*
X183236496Y-105200000D01*
X183237186Y-105206565D01*
X183252706Y-105354225D01*
X183256458Y-105389928D01*
X183315473Y-105571556D01*
X183410960Y-105736944D01*
X183415378Y-105741851D01*
X183415379Y-105741852D01*
X183490317Y-105825079D01*
X183538747Y-105878866D01*
X183595469Y-105920077D01*
X183662013Y-105968424D01*
X183693248Y-105991118D01*
X183699276Y-105993802D01*
X183699278Y-105993803D01*
X183861340Y-106065957D01*
X183867712Y-106068794D01*
X183954136Y-106087164D01*
X184048056Y-106107128D01*
X184048061Y-106107128D01*
X184054513Y-106108500D01*
X184245487Y-106108500D01*
X184251939Y-106107128D01*
X184251944Y-106107128D01*
X184345864Y-106087164D01*
X184432288Y-106068794D01*
X184438660Y-106065957D01*
X184600722Y-105993803D01*
X184600724Y-105993802D01*
X184606752Y-105991118D01*
X184637988Y-105968424D01*
X184704531Y-105920077D01*
X184761253Y-105878866D01*
X184809683Y-105825079D01*
X184884621Y-105741852D01*
X184884622Y-105741851D01*
X184889040Y-105736944D01*
X184984527Y-105571556D01*
X185043542Y-105389928D01*
X185047295Y-105354225D01*
X185060907Y-105224707D01*
X185087920Y-105159050D01*
X185097122Y-105148782D01*
X190142253Y-100103652D01*
X190150539Y-100096112D01*
X190157018Y-100092000D01*
X190203644Y-100042348D01*
X190206398Y-100039507D01*
X190226135Y-100019770D01*
X190228615Y-100016573D01*
X190236320Y-100007551D01*
X190266586Y-99975321D01*
X190270405Y-99968375D01*
X190270407Y-99968372D01*
X190276348Y-99957566D01*
X190287199Y-99941047D01*
X190294758Y-99931301D01*
X190299614Y-99925041D01*
X190302759Y-99917772D01*
X190302762Y-99917768D01*
X190317174Y-99884463D01*
X190322391Y-99873813D01*
X190343695Y-99835060D01*
X190348733Y-99815437D01*
X190355137Y-99796734D01*
X190360033Y-99785420D01*
X190360033Y-99785419D01*
X190363181Y-99778145D01*
X190364420Y-99770322D01*
X190364423Y-99770312D01*
X190370099Y-99734476D01*
X190372505Y-99722856D01*
X190381528Y-99687711D01*
X190381528Y-99687710D01*
X190383500Y-99680030D01*
X190383500Y-99659776D01*
X190385051Y-99640065D01*
X190386980Y-99627886D01*
X190388220Y-99620057D01*
X190384059Y-99576038D01*
X190383500Y-99564181D01*
X190383500Y-80302524D01*
X190403502Y-80234403D01*
X190415858Y-80218221D01*
X190489040Y-80136944D01*
X190575472Y-79987240D01*
X190581223Y-79977279D01*
X190581224Y-79977278D01*
X190584527Y-79971556D01*
X190643542Y-79789928D01*
X190652030Y-79709174D01*
X190662814Y-79606565D01*
X190663504Y-79600000D01*
X190652137Y-79491847D01*
X190644232Y-79416635D01*
X190644232Y-79416633D01*
X190643542Y-79410072D01*
X190584527Y-79228444D01*
X190489040Y-79063056D01*
X190477131Y-79049829D01*
X190365675Y-78926045D01*
X190365674Y-78926044D01*
X190361253Y-78921134D01*
X190206752Y-78808882D01*
X190200724Y-78806198D01*
X190200722Y-78806197D01*
X190038319Y-78733891D01*
X190038318Y-78733891D01*
X190032288Y-78731206D01*
X189916362Y-78706565D01*
X189851944Y-78692872D01*
X189851939Y-78692872D01*
X189845487Y-78691500D01*
X189659500Y-78691500D01*
X189591379Y-78671498D01*
X189544886Y-78617842D01*
X189533500Y-78565500D01*
X189533500Y-77152524D01*
X189553502Y-77084403D01*
X189565858Y-77068221D01*
X189639040Y-76986944D01*
X189734527Y-76821556D01*
X189793542Y-76639928D01*
X189797004Y-76606994D01*
X189812814Y-76456565D01*
X189813504Y-76450000D01*
X189806954Y-76387680D01*
X189794232Y-76266635D01*
X189794232Y-76266633D01*
X189793542Y-76260072D01*
X189734527Y-76078444D01*
X189639040Y-75913056D01*
X189535488Y-75798050D01*
X189504773Y-75734046D01*
X189513536Y-75663593D01*
X189540031Y-75624648D01*
X189859394Y-75305285D01*
X189921706Y-75271259D01*
X189948489Y-75268380D01*
X193997533Y-75268380D01*
X194071592Y-75292443D01*
X194078022Y-75297115D01*
X194078029Y-75297119D01*
X194083368Y-75300998D01*
X194089396Y-75303682D01*
X194089398Y-75303683D01*
X194173479Y-75341118D01*
X194257832Y-75378674D01*
X194349520Y-75398163D01*
X194438176Y-75417008D01*
X194438181Y-75417008D01*
X194444633Y-75418380D01*
X194635607Y-75418380D01*
X194642059Y-75417008D01*
X194642064Y-75417008D01*
X194730720Y-75398163D01*
X194822408Y-75378674D01*
X194906761Y-75341118D01*
X194990842Y-75303683D01*
X194990844Y-75303682D01*
X194996872Y-75300998D01*
X195002211Y-75297119D01*
X195002218Y-75297115D01*
X195008648Y-75292443D01*
X195082707Y-75268380D01*
X200403592Y-75268380D01*
X200422542Y-75269813D01*
X200436777Y-75271979D01*
X200436781Y-75271979D01*
X200444011Y-75273079D01*
X200451303Y-75272486D01*
X200451306Y-75272486D01*
X200496680Y-75268795D01*
X200506895Y-75268380D01*
X200514955Y-75268380D01*
X200528245Y-75266831D01*
X200543169Y-75265091D01*
X200547544Y-75264658D01*
X200613001Y-75259334D01*
X200613004Y-75259333D01*
X200620299Y-75258740D01*
X200627263Y-75256484D01*
X200633222Y-75255293D01*
X200639077Y-75253909D01*
X200646343Y-75253062D01*
X200714989Y-75228145D01*
X200719117Y-75226728D01*
X200781598Y-75206487D01*
X200781600Y-75206486D01*
X200788561Y-75204231D01*
X200794816Y-75200435D01*
X200800290Y-75197929D01*
X200805720Y-75195210D01*
X200812599Y-75192713D01*
X200873638Y-75152694D01*
X200877342Y-75150357D01*
X200939769Y-75112475D01*
X200948146Y-75105077D01*
X200948170Y-75105104D01*
X200951162Y-75102451D01*
X200954395Y-75099748D01*
X200960514Y-75095736D01*
X201013790Y-75039497D01*
X201016168Y-75037055D01*
X203576405Y-72476818D01*
X203638717Y-72442792D01*
X203709532Y-72447857D01*
X203766368Y-72490404D01*
X203791179Y-72556924D01*
X203791500Y-72565913D01*
X203791500Y-103768133D01*
X203771498Y-103836254D01*
X203737772Y-103871345D01*
X203705700Y-103893802D01*
X203543802Y-104055700D01*
X203540645Y-104060208D01*
X203540643Y-104060211D01*
X203499101Y-104119540D01*
X203412477Y-104243251D01*
X203410154Y-104248233D01*
X203410151Y-104248238D01*
X203333433Y-104412763D01*
X203315716Y-104450757D01*
X203314294Y-104456065D01*
X203314293Y-104456067D01*
X203261917Y-104651537D01*
X203256457Y-104671913D01*
X203236502Y-104900000D01*
X203256457Y-105128087D01*
X203257881Y-105133400D01*
X203257881Y-105133402D01*
X203264754Y-105159050D01*
X203315716Y-105349243D01*
X203318039Y-105354224D01*
X203318039Y-105354225D01*
X203410151Y-105551762D01*
X203410154Y-105551767D01*
X203412477Y-105556749D01*
X203543802Y-105744300D01*
X203705700Y-105906198D01*
X203710208Y-105909355D01*
X203710211Y-105909357D01*
X203770385Y-105951491D01*
X203893251Y-106037523D01*
X203898233Y-106039846D01*
X203898238Y-106039849D01*
X204095775Y-106131961D01*
X204100757Y-106134284D01*
X204106065Y-106135706D01*
X204106067Y-106135707D01*
X204316598Y-106192119D01*
X204316600Y-106192119D01*
X204321913Y-106193543D01*
X204550000Y-106213498D01*
X204778087Y-106193543D01*
X204783400Y-106192119D01*
X204783402Y-106192119D01*
X204993933Y-106135707D01*
X204993935Y-106135706D01*
X204999243Y-106134284D01*
X205004225Y-106131961D01*
X205201762Y-106039849D01*
X205201767Y-106039846D01*
X205206749Y-106037523D01*
X205329615Y-105951491D01*
X205389789Y-105909357D01*
X205389792Y-105909355D01*
X205394300Y-105906198D01*
X205556198Y-105744300D01*
X205687523Y-105556749D01*
X205689846Y-105551767D01*
X205689849Y-105551762D01*
X205781961Y-105354225D01*
X205781961Y-105354224D01*
X205784284Y-105349243D01*
X205835247Y-105159050D01*
X205842119Y-105133402D01*
X205842119Y-105133400D01*
X205843543Y-105128087D01*
X205863498Y-104900000D01*
X205843543Y-104671913D01*
X205838083Y-104651537D01*
X205785707Y-104456067D01*
X205785706Y-104456065D01*
X205784284Y-104450757D01*
X205766567Y-104412763D01*
X205689849Y-104248238D01*
X205689846Y-104248233D01*
X205687523Y-104243251D01*
X205600899Y-104119540D01*
X205559357Y-104060211D01*
X205559355Y-104060208D01*
X205556198Y-104055700D01*
X205394300Y-103893802D01*
X205362229Y-103871345D01*
X205317901Y-103815890D01*
X205308500Y-103768133D01*
X205308500Y-103642277D01*
X215337009Y-103642277D01*
X215362625Y-103910769D01*
X215363710Y-103915203D01*
X215363711Y-103915209D01*
X215409786Y-104103502D01*
X215426731Y-104172750D01*
X215527985Y-104422733D01*
X215664265Y-104655482D01*
X215681788Y-104677393D01*
X215814510Y-104843353D01*
X215832716Y-104866119D01*
X216029809Y-105050234D01*
X216251416Y-105203968D01*
X216255499Y-105205999D01*
X216255502Y-105206001D01*
X216371013Y-105263466D01*
X216492894Y-105324101D01*
X216497228Y-105325522D01*
X216497231Y-105325523D01*
X216744853Y-105406698D01*
X216744859Y-105406699D01*
X216749186Y-105408118D01*
X216753677Y-105408898D01*
X216753678Y-105408898D01*
X217011140Y-105453601D01*
X217011148Y-105453602D01*
X217014921Y-105454257D01*
X217018758Y-105454448D01*
X217098578Y-105458422D01*
X217098586Y-105458422D01*
X217100149Y-105458500D01*
X217268512Y-105458500D01*
X217270780Y-105458335D01*
X217270792Y-105458335D01*
X217401884Y-105448823D01*
X217469004Y-105443953D01*
X217473459Y-105442969D01*
X217473462Y-105442969D01*
X217727912Y-105386791D01*
X217727916Y-105386790D01*
X217732372Y-105385806D01*
X217866852Y-105334856D01*
X217980318Y-105291868D01*
X217980321Y-105291867D01*
X217984588Y-105290250D01*
X218196964Y-105172286D01*
X218216375Y-105161504D01*
X218216376Y-105161503D01*
X218220368Y-105159286D01*
X218434773Y-104995657D01*
X218494113Y-104934956D01*
X218574772Y-104852446D01*
X218623312Y-104802792D01*
X218782034Y-104584730D01*
X218849727Y-104456067D01*
X218905490Y-104350079D01*
X218905493Y-104350073D01*
X218907615Y-104346039D01*
X218917237Y-104318794D01*
X218995902Y-104096033D01*
X218995902Y-104096032D01*
X218997425Y-104091720D01*
X219023667Y-103958580D01*
X219048700Y-103831572D01*
X219048701Y-103831566D01*
X219049581Y-103827100D01*
X219051119Y-103796206D01*
X219058782Y-103642277D01*
X238337009Y-103642277D01*
X238362625Y-103910769D01*
X238363710Y-103915203D01*
X238363711Y-103915209D01*
X238409786Y-104103502D01*
X238426731Y-104172750D01*
X238527985Y-104422733D01*
X238664265Y-104655482D01*
X238681788Y-104677393D01*
X238814510Y-104843353D01*
X238832716Y-104866119D01*
X239029809Y-105050234D01*
X239251416Y-105203968D01*
X239255499Y-105205999D01*
X239255502Y-105206001D01*
X239371013Y-105263466D01*
X239492894Y-105324101D01*
X239497228Y-105325522D01*
X239497231Y-105325523D01*
X239744853Y-105406698D01*
X239744859Y-105406699D01*
X239749186Y-105408118D01*
X239753677Y-105408898D01*
X239753678Y-105408898D01*
X240011140Y-105453601D01*
X240011148Y-105453602D01*
X240014921Y-105454257D01*
X240018758Y-105454448D01*
X240098578Y-105458422D01*
X240098586Y-105458422D01*
X240100149Y-105458500D01*
X240268512Y-105458500D01*
X240270780Y-105458335D01*
X240270792Y-105458335D01*
X240401884Y-105448823D01*
X240469004Y-105443953D01*
X240473459Y-105442969D01*
X240473462Y-105442969D01*
X240727912Y-105386791D01*
X240727916Y-105386790D01*
X240732372Y-105385806D01*
X240866852Y-105334856D01*
X240980318Y-105291868D01*
X240980321Y-105291867D01*
X240984588Y-105290250D01*
X241196964Y-105172286D01*
X241216375Y-105161504D01*
X241216376Y-105161503D01*
X241220368Y-105159286D01*
X241434773Y-104995657D01*
X241494113Y-104934956D01*
X241574772Y-104852446D01*
X241623312Y-104802792D01*
X241782034Y-104584730D01*
X241849727Y-104456067D01*
X241905490Y-104350079D01*
X241905493Y-104350073D01*
X241907615Y-104346039D01*
X241917237Y-104318794D01*
X241995902Y-104096033D01*
X241995902Y-104096032D01*
X241997425Y-104091720D01*
X242023667Y-103958580D01*
X242048700Y-103831572D01*
X242048701Y-103831566D01*
X242049581Y-103827100D01*
X242051119Y-103796206D01*
X242062764Y-103562292D01*
X242062764Y-103562286D01*
X242062991Y-103557723D01*
X242037375Y-103289231D01*
X241992042Y-103103967D01*
X241974355Y-103031688D01*
X241973269Y-103027250D01*
X241872015Y-102777267D01*
X241735735Y-102544518D01*
X241616474Y-102395390D01*
X241570136Y-102337447D01*
X241570135Y-102337445D01*
X241567284Y-102333881D01*
X241370191Y-102149766D01*
X241148584Y-101996032D01*
X241144501Y-101994001D01*
X241144498Y-101993999D01*
X240979606Y-101911967D01*
X240907106Y-101875899D01*
X240902772Y-101874478D01*
X240902769Y-101874477D01*
X240655147Y-101793302D01*
X240655141Y-101793301D01*
X240650814Y-101791882D01*
X240646322Y-101791102D01*
X240388860Y-101746399D01*
X240388852Y-101746398D01*
X240385079Y-101745743D01*
X240373817Y-101745182D01*
X240301422Y-101741578D01*
X240301414Y-101741578D01*
X240299851Y-101741500D01*
X240131488Y-101741500D01*
X240129220Y-101741665D01*
X240129208Y-101741665D01*
X239998116Y-101751177D01*
X239930996Y-101756047D01*
X239926541Y-101757031D01*
X239926538Y-101757031D01*
X239672088Y-101813209D01*
X239672084Y-101813210D01*
X239667628Y-101814194D01*
X239541520Y-101861972D01*
X239419682Y-101908132D01*
X239419679Y-101908133D01*
X239415412Y-101909750D01*
X239179632Y-102040714D01*
X238965227Y-102204343D01*
X238776688Y-102397208D01*
X238617966Y-102615270D01*
X238595021Y-102658882D01*
X238494510Y-102849921D01*
X238494507Y-102849927D01*
X238492385Y-102853961D01*
X238490865Y-102858266D01*
X238490863Y-102858270D01*
X238404098Y-103103967D01*
X238402575Y-103108280D01*
X238350419Y-103372900D01*
X238350192Y-103377453D01*
X238350192Y-103377456D01*
X238337453Y-103633365D01*
X238337009Y-103642277D01*
X219058782Y-103642277D01*
X219062764Y-103562292D01*
X219062764Y-103562286D01*
X219062991Y-103557723D01*
X219037375Y-103289231D01*
X218992042Y-103103967D01*
X218974355Y-103031688D01*
X218973269Y-103027250D01*
X218872015Y-102777267D01*
X218735735Y-102544518D01*
X218616474Y-102395390D01*
X218570136Y-102337447D01*
X218570135Y-102337445D01*
X218567284Y-102333881D01*
X218370191Y-102149766D01*
X218148584Y-101996032D01*
X218144501Y-101994001D01*
X218144498Y-101993999D01*
X217979606Y-101911967D01*
X217907106Y-101875899D01*
X217902772Y-101874478D01*
X217902769Y-101874477D01*
X217655147Y-101793302D01*
X217655141Y-101793301D01*
X217650814Y-101791882D01*
X217646322Y-101791102D01*
X217388860Y-101746399D01*
X217388852Y-101746398D01*
X217385079Y-101745743D01*
X217373817Y-101745182D01*
X217301422Y-101741578D01*
X217301414Y-101741578D01*
X217299851Y-101741500D01*
X217131488Y-101741500D01*
X217129220Y-101741665D01*
X217129208Y-101741665D01*
X216998116Y-101751177D01*
X216930996Y-101756047D01*
X216926541Y-101757031D01*
X216926538Y-101757031D01*
X216672088Y-101813209D01*
X216672084Y-101813210D01*
X216667628Y-101814194D01*
X216541520Y-101861972D01*
X216419682Y-101908132D01*
X216419679Y-101908133D01*
X216415412Y-101909750D01*
X216179632Y-102040714D01*
X215965227Y-102204343D01*
X215776688Y-102397208D01*
X215617966Y-102615270D01*
X215595021Y-102658882D01*
X215494510Y-102849921D01*
X215494507Y-102849927D01*
X215492385Y-102853961D01*
X215490865Y-102858266D01*
X215490863Y-102858270D01*
X215404098Y-103103967D01*
X215402575Y-103108280D01*
X215350419Y-103372900D01*
X215350192Y-103377453D01*
X215350192Y-103377456D01*
X215337453Y-103633365D01*
X215337009Y-103642277D01*
X205308500Y-103642277D01*
X205308500Y-64766371D01*
X205328502Y-64698250D01*
X205345405Y-64677276D01*
X214345130Y-55677551D01*
X214407442Y-55643525D01*
X214478257Y-55648590D01*
X214535093Y-55691137D01*
X214560016Y-55759394D01*
X214560309Y-55764477D01*
X214561745Y-55774697D01*
X214608565Y-55982446D01*
X214611645Y-55992275D01*
X214691770Y-56189603D01*
X214696413Y-56198794D01*
X214807694Y-56380388D01*
X214813777Y-56388699D01*
X214953213Y-56549667D01*
X214960580Y-56556883D01*
X215124434Y-56692916D01*
X215132881Y-56698831D01*
X215201969Y-56739203D01*
X215250693Y-56790842D01*
X215263764Y-56860625D01*
X215237033Y-56926396D01*
X215196584Y-56959752D01*
X215183607Y-56966507D01*
X215179474Y-56969610D01*
X215179471Y-56969612D01*
X215155247Y-56987800D01*
X215004965Y-57100635D01*
X214850629Y-57262138D01*
X214724743Y-57446680D01*
X214630688Y-57649305D01*
X214570989Y-57864570D01*
X214547251Y-58086695D01*
X214547548Y-58091848D01*
X214547548Y-58091851D01*
X214553011Y-58186590D01*
X214560110Y-58309715D01*
X214561247Y-58314761D01*
X214561248Y-58314767D01*
X214581119Y-58402939D01*
X214609222Y-58527639D01*
X214693266Y-58734616D01*
X214744019Y-58817438D01*
X214807291Y-58920688D01*
X214809987Y-58925088D01*
X214956250Y-59093938D01*
X215128126Y-59236632D01*
X215198595Y-59277811D01*
X215201445Y-59279476D01*
X215250169Y-59331114D01*
X215263240Y-59400897D01*
X215236509Y-59466669D01*
X215196055Y-59500027D01*
X215183607Y-59506507D01*
X215179474Y-59509610D01*
X215179471Y-59509612D01*
X215155247Y-59527800D01*
X215004965Y-59640635D01*
X214850629Y-59802138D01*
X214724743Y-59986680D01*
X214630688Y-60189305D01*
X214570989Y-60404570D01*
X214547251Y-60626695D01*
X214560110Y-60849715D01*
X214561247Y-60854761D01*
X214561248Y-60854767D01*
X214574597Y-60914000D01*
X214609222Y-61067639D01*
X214693266Y-61274616D01*
X214809987Y-61465088D01*
X214956250Y-61633938D01*
X215128126Y-61776632D01*
X215198595Y-61817811D01*
X215201445Y-61819476D01*
X215250169Y-61871114D01*
X215263240Y-61940897D01*
X215236509Y-62006669D01*
X215196055Y-62040027D01*
X215183607Y-62046507D01*
X215179474Y-62049610D01*
X215179471Y-62049612D01*
X215155247Y-62067800D01*
X215004965Y-62180635D01*
X214850629Y-62342138D01*
X214724743Y-62526680D01*
X214630688Y-62729305D01*
X214570989Y-62944570D01*
X214547251Y-63166695D01*
X214547548Y-63171848D01*
X214547548Y-63171851D01*
X214553011Y-63266590D01*
X214560110Y-63389715D01*
X214561247Y-63394761D01*
X214561248Y-63394767D01*
X214581119Y-63482939D01*
X214609222Y-63607639D01*
X214693266Y-63814616D01*
X214744019Y-63897438D01*
X214807291Y-64000688D01*
X214809987Y-64005088D01*
X214956250Y-64173938D01*
X215128126Y-64316632D01*
X215201445Y-64359476D01*
X215201955Y-64359774D01*
X215250679Y-64411412D01*
X215263750Y-64481195D01*
X215237019Y-64546967D01*
X215196562Y-64580327D01*
X215188457Y-64584546D01*
X215179738Y-64590036D01*
X215009433Y-64717905D01*
X215001726Y-64724748D01*
X214854590Y-64878717D01*
X214848104Y-64886727D01*
X214728098Y-65062649D01*
X214723000Y-65071623D01*
X214633338Y-65264783D01*
X214629775Y-65274470D01*
X214574389Y-65474183D01*
X214575912Y-65482607D01*
X214588292Y-65486000D01*
X216038000Y-65486000D01*
X216106121Y-65506002D01*
X216152614Y-65559658D01*
X216164000Y-65612000D01*
X216164000Y-65868000D01*
X216143998Y-65936121D01*
X216090342Y-65982614D01*
X216038000Y-65994000D01*
X214593225Y-65994000D01*
X214579694Y-65997973D01*
X214578257Y-66007966D01*
X214608565Y-66142446D01*
X214611645Y-66152275D01*
X214691770Y-66349603D01*
X214696413Y-66358794D01*
X214807694Y-66540388D01*
X214813777Y-66548699D01*
X214953213Y-66709667D01*
X214960580Y-66716883D01*
X215124434Y-66852916D01*
X215132881Y-66858831D01*
X215201969Y-66899203D01*
X215250693Y-66950842D01*
X215263764Y-67020625D01*
X215237033Y-67086396D01*
X215196584Y-67119752D01*
X215183607Y-67126507D01*
X215179474Y-67129610D01*
X215179471Y-67129612D01*
X215049251Y-67227384D01*
X215004965Y-67260635D01*
X214850629Y-67422138D01*
X214724743Y-67606680D01*
X214630688Y-67809305D01*
X214570989Y-68024570D01*
X214547251Y-68246695D01*
X214547548Y-68251848D01*
X214547548Y-68251851D01*
X214553011Y-68346590D01*
X214560110Y-68469715D01*
X214561247Y-68474761D01*
X214561248Y-68474767D01*
X214579410Y-68555353D01*
X214609222Y-68687639D01*
X214693266Y-68894616D01*
X214744942Y-68978944D01*
X214807291Y-69080688D01*
X214809987Y-69085088D01*
X214956250Y-69253938D01*
X215128126Y-69396632D01*
X215198595Y-69437811D01*
X215201445Y-69439476D01*
X215250169Y-69491114D01*
X215263240Y-69560897D01*
X215236509Y-69626669D01*
X215196055Y-69660027D01*
X215183607Y-69666507D01*
X215179474Y-69669610D01*
X215179471Y-69669612D01*
X215155247Y-69687800D01*
X215004965Y-69800635D01*
X215001393Y-69804373D01*
X214873658Y-69938040D01*
X214850629Y-69962138D01*
X214847720Y-69966403D01*
X214847714Y-69966411D01*
X214788883Y-70052654D01*
X214724743Y-70146680D01*
X214630688Y-70349305D01*
X214570989Y-70564570D01*
X214547251Y-70786695D01*
X214547548Y-70791848D01*
X214547548Y-70791851D01*
X214553011Y-70886590D01*
X214560110Y-71009715D01*
X214561247Y-71014761D01*
X214561248Y-71014767D01*
X214581119Y-71102939D01*
X214609222Y-71227639D01*
X214693266Y-71434616D01*
X214744019Y-71517438D01*
X214807291Y-71620688D01*
X214809987Y-71625088D01*
X214956250Y-71793938D01*
X215128126Y-71936632D01*
X215201445Y-71979476D01*
X215201955Y-71979774D01*
X215250679Y-72031412D01*
X215263750Y-72101195D01*
X215237019Y-72166967D01*
X215196562Y-72200327D01*
X215188457Y-72204546D01*
X215179738Y-72210036D01*
X215009433Y-72337905D01*
X215001726Y-72344748D01*
X214854590Y-72498717D01*
X214848104Y-72506727D01*
X214728098Y-72682649D01*
X214723000Y-72691623D01*
X214633338Y-72884783D01*
X214629775Y-72894470D01*
X214574389Y-73094183D01*
X214575912Y-73102607D01*
X214588292Y-73106000D01*
X216038000Y-73106000D01*
X216106121Y-73126002D01*
X216152614Y-73179658D01*
X216164000Y-73232000D01*
X216164000Y-73488000D01*
X216143998Y-73556121D01*
X216090342Y-73602614D01*
X216038000Y-73614000D01*
X214593225Y-73614000D01*
X214579694Y-73617973D01*
X214578257Y-73627966D01*
X214608565Y-73762446D01*
X214611645Y-73772275D01*
X214691770Y-73969603D01*
X214696413Y-73978794D01*
X214807694Y-74160388D01*
X214813777Y-74168699D01*
X214953213Y-74329667D01*
X214960580Y-74336883D01*
X215124434Y-74472916D01*
X215132881Y-74478831D01*
X215201969Y-74519203D01*
X215250693Y-74570842D01*
X215263764Y-74640625D01*
X215237033Y-74706396D01*
X215196584Y-74739752D01*
X215183607Y-74746507D01*
X215179474Y-74749610D01*
X215179471Y-74749612D01*
X215155247Y-74767800D01*
X215004965Y-74880635D01*
X215001393Y-74884373D01*
X214871398Y-75020405D01*
X214850629Y-75042138D01*
X214847720Y-75046403D01*
X214847714Y-75046411D01*
X214805184Y-75108758D01*
X214724743Y-75226680D01*
X214694217Y-75292443D01*
X214634938Y-75420150D01*
X214630688Y-75429305D01*
X214570989Y-75644570D01*
X214547251Y-75866695D01*
X214547548Y-75871848D01*
X214547548Y-75871851D01*
X214553011Y-75966590D01*
X214560110Y-76089715D01*
X214561247Y-76094761D01*
X214561248Y-76094767D01*
X214581119Y-76182939D01*
X214609222Y-76307639D01*
X214693266Y-76514616D01*
X214744019Y-76597438D01*
X214807291Y-76700688D01*
X214809987Y-76705088D01*
X214956250Y-76873938D01*
X215128126Y-77016632D01*
X215198595Y-77057811D01*
X215201445Y-77059476D01*
X215250169Y-77111114D01*
X215263240Y-77180897D01*
X215236509Y-77246669D01*
X215196055Y-77280027D01*
X215183607Y-77286507D01*
X215179474Y-77289610D01*
X215179471Y-77289612D01*
X215009100Y-77417530D01*
X215004965Y-77420635D01*
X215001393Y-77424373D01*
X214855827Y-77576699D01*
X214850629Y-77582138D01*
X214847720Y-77586403D01*
X214847714Y-77586411D01*
X214805968Y-77647608D01*
X214724743Y-77766680D01*
X214630688Y-77969305D01*
X214570989Y-78184570D01*
X214547251Y-78406695D01*
X214547548Y-78411848D01*
X214547548Y-78411851D01*
X214553590Y-78516635D01*
X214560110Y-78629715D01*
X214561247Y-78634761D01*
X214561248Y-78634767D01*
X214577429Y-78706565D01*
X214609222Y-78847639D01*
X214693266Y-79054616D01*
X214737562Y-79126900D01*
X214807291Y-79240688D01*
X214809987Y-79245088D01*
X214956250Y-79413938D01*
X215128126Y-79556632D01*
X215147945Y-79568213D01*
X215201445Y-79599476D01*
X215250169Y-79651114D01*
X215263240Y-79720897D01*
X215236509Y-79786669D01*
X215196055Y-79820027D01*
X215183607Y-79826507D01*
X215179474Y-79829610D01*
X215179471Y-79829612D01*
X215155247Y-79847800D01*
X215004965Y-79960635D01*
X214850629Y-80122138D01*
X214847715Y-80126410D01*
X214847714Y-80126411D01*
X214840529Y-80136944D01*
X214724743Y-80306680D01*
X214630688Y-80509305D01*
X214570989Y-80724570D01*
X214547251Y-80946695D01*
X214560110Y-81169715D01*
X214561247Y-81174761D01*
X214561248Y-81174767D01*
X214579181Y-81254337D01*
X214609222Y-81387639D01*
X214693266Y-81594616D01*
X214713199Y-81627144D01*
X214771397Y-81722114D01*
X214809987Y-81785088D01*
X214956250Y-81953938D01*
X215128126Y-82096632D01*
X215198595Y-82137811D01*
X215201445Y-82139476D01*
X215250169Y-82191114D01*
X215263240Y-82260897D01*
X215236509Y-82326669D01*
X215196055Y-82360027D01*
X215183607Y-82366507D01*
X215179474Y-82369610D01*
X215179471Y-82369612D01*
X215155247Y-82387800D01*
X215004965Y-82500635D01*
X214850629Y-82662138D01*
X214724743Y-82846680D01*
X214630688Y-83049305D01*
X214570989Y-83264570D01*
X214547251Y-83486695D01*
X214547548Y-83491848D01*
X214547548Y-83491851D01*
X214553011Y-83586590D01*
X214560110Y-83709715D01*
X214561247Y-83714761D01*
X214561248Y-83714767D01*
X214570470Y-83755686D01*
X214609222Y-83927639D01*
X214693266Y-84134616D01*
X214744019Y-84217438D01*
X214807291Y-84320688D01*
X214809987Y-84325088D01*
X214956250Y-84493938D01*
X215128126Y-84636632D01*
X215188824Y-84672101D01*
X215201955Y-84679774D01*
X215250679Y-84731412D01*
X215263750Y-84801195D01*
X215237019Y-84866967D01*
X215196562Y-84900327D01*
X215188457Y-84904546D01*
X215179738Y-84910036D01*
X215009433Y-85037905D01*
X215001726Y-85044748D01*
X214854590Y-85198717D01*
X214848104Y-85206727D01*
X214728098Y-85382649D01*
X214723000Y-85391623D01*
X214633338Y-85584783D01*
X214629775Y-85594470D01*
X214574389Y-85794183D01*
X214575912Y-85802607D01*
X214588292Y-85806000D01*
X216038000Y-85806000D01*
X216106121Y-85826002D01*
X216152614Y-85879658D01*
X216164000Y-85932000D01*
X216164000Y-86188000D01*
X216143998Y-86256121D01*
X216090342Y-86302614D01*
X216038000Y-86314000D01*
X214593225Y-86314000D01*
X214579694Y-86317973D01*
X214578257Y-86327966D01*
X214608565Y-86462446D01*
X214611645Y-86472275D01*
X214691770Y-86669603D01*
X214696413Y-86678794D01*
X214807694Y-86860388D01*
X214813777Y-86868699D01*
X214953213Y-87029667D01*
X214960580Y-87036883D01*
X215124434Y-87172916D01*
X215132881Y-87178831D01*
X215201969Y-87219203D01*
X215250693Y-87270842D01*
X215263764Y-87340625D01*
X215237033Y-87406396D01*
X215196584Y-87439752D01*
X215183607Y-87446507D01*
X215179474Y-87449610D01*
X215179471Y-87449612D01*
X215155247Y-87467800D01*
X215004965Y-87580635D01*
X214850629Y-87742138D01*
X214724743Y-87926680D01*
X214630688Y-88129305D01*
X214570989Y-88344570D01*
X214547251Y-88566695D01*
X214547548Y-88571848D01*
X214547548Y-88571851D01*
X214553011Y-88666590D01*
X214560110Y-88789715D01*
X214561247Y-88794761D01*
X214561248Y-88794767D01*
X214576237Y-88861275D01*
X214609222Y-89007639D01*
X214693266Y-89214616D01*
X214737735Y-89287183D01*
X214807291Y-89400688D01*
X214809987Y-89405088D01*
X214956250Y-89573938D01*
X215074228Y-89671885D01*
X215113034Y-89704102D01*
X215128126Y-89716632D01*
X215177658Y-89745576D01*
X215201955Y-89759774D01*
X215250679Y-89811412D01*
X215263750Y-89881195D01*
X215237019Y-89946967D01*
X215196562Y-89980327D01*
X215188457Y-89984546D01*
X215179738Y-89990036D01*
X215009433Y-90117905D01*
X215001726Y-90124748D01*
X214854590Y-90278717D01*
X214848104Y-90286727D01*
X214728098Y-90462649D01*
X214723000Y-90471623D01*
X214633338Y-90664783D01*
X214629775Y-90674470D01*
X214574389Y-90874183D01*
X214575912Y-90882607D01*
X214588292Y-90886000D01*
X216038000Y-90886000D01*
X216106121Y-90906002D01*
X216152614Y-90959658D01*
X216164000Y-91012000D01*
X216164000Y-91268000D01*
X216143998Y-91336121D01*
X216090342Y-91382614D01*
X216038000Y-91394000D01*
X214593225Y-91394000D01*
X214579694Y-91397973D01*
X214578257Y-91407966D01*
X214608565Y-91542446D01*
X214611645Y-91552275D01*
X214691770Y-91749603D01*
X214696413Y-91758794D01*
X214807694Y-91940388D01*
X214813777Y-91948699D01*
X214953213Y-92109667D01*
X214960580Y-92116883D01*
X215124434Y-92252916D01*
X215132881Y-92258831D01*
X215201969Y-92299203D01*
X215250693Y-92350842D01*
X215263764Y-92420625D01*
X215237033Y-92486396D01*
X215196584Y-92519752D01*
X215183607Y-92526507D01*
X215179474Y-92529610D01*
X215179471Y-92529612D01*
X215114433Y-92578444D01*
X215004965Y-92660635D01*
X214850629Y-92822138D01*
X214847715Y-92826410D01*
X214847714Y-92826411D01*
X214767886Y-92943435D01*
X214724743Y-93006680D01*
X214709003Y-93040590D01*
X214662892Y-93139928D01*
X214630688Y-93209305D01*
X214570989Y-93424570D01*
X214547251Y-93646695D01*
X214547548Y-93651848D01*
X214547548Y-93651851D01*
X214552695Y-93741118D01*
X214560110Y-93869715D01*
X214561247Y-93874761D01*
X214561248Y-93874767D01*
X214582275Y-93968069D01*
X214609222Y-94087639D01*
X214693266Y-94294616D01*
X214744942Y-94378944D01*
X214807291Y-94480688D01*
X214809987Y-94485088D01*
X214956250Y-94653938D01*
X215128126Y-94796632D01*
X215151126Y-94810072D01*
X215201445Y-94839476D01*
X215250169Y-94891114D01*
X215263240Y-94960897D01*
X215236509Y-95026669D01*
X215196055Y-95060027D01*
X215183607Y-95066507D01*
X215179474Y-95069610D01*
X215179471Y-95069612D01*
X215009100Y-95197530D01*
X215004965Y-95200635D01*
X214850629Y-95362138D01*
X214724743Y-95546680D01*
X214692368Y-95616427D01*
X214662919Y-95679870D01*
X214630688Y-95749305D01*
X214570989Y-95964570D01*
X214547251Y-96186695D01*
X214547548Y-96191848D01*
X214547548Y-96191851D01*
X214552927Y-96285135D01*
X214560110Y-96409715D01*
X214561247Y-96414761D01*
X214561248Y-96414767D01*
X214581119Y-96502939D01*
X214609222Y-96627639D01*
X214647461Y-96721811D01*
X214687496Y-96820405D01*
X214693266Y-96834616D01*
X214744019Y-96917438D01*
X214807291Y-97020688D01*
X214809987Y-97025088D01*
X214956250Y-97193938D01*
X215128126Y-97336632D01*
X215133960Y-97340041D01*
X215201445Y-97379476D01*
X215250169Y-97431114D01*
X215263240Y-97500897D01*
X215236509Y-97566669D01*
X215196055Y-97600027D01*
X215183607Y-97606507D01*
X215179474Y-97609610D01*
X215179471Y-97609612D01*
X215017896Y-97730926D01*
X215004965Y-97740635D01*
X214993977Y-97752133D01*
X214858713Y-97893679D01*
X214850629Y-97902138D01*
X214724743Y-98086680D01*
X214630688Y-98289305D01*
X214570989Y-98504570D01*
X214547251Y-98726695D01*
X214547548Y-98731848D01*
X214547548Y-98731851D01*
X214553011Y-98826590D01*
X214560110Y-98949715D01*
X214561247Y-98954761D01*
X214561248Y-98954767D01*
X214574597Y-99014000D01*
X214609222Y-99167639D01*
X214693266Y-99374616D01*
X214809987Y-99565088D01*
X214956250Y-99733938D01*
X215128126Y-99876632D01*
X215321000Y-99989338D01*
X215529692Y-100069030D01*
X215534760Y-100070061D01*
X215534763Y-100070062D01*
X215629862Y-100089410D01*
X215748597Y-100113567D01*
X215753772Y-100113757D01*
X215753774Y-100113757D01*
X215966673Y-100121564D01*
X215966677Y-100121564D01*
X215971837Y-100121753D01*
X215976957Y-100121097D01*
X215976959Y-100121097D01*
X216188288Y-100094025D01*
X216188289Y-100094025D01*
X216193416Y-100093368D01*
X216198366Y-100091883D01*
X216402429Y-100030661D01*
X216402434Y-100030659D01*
X216407384Y-100029174D01*
X216607994Y-99930896D01*
X216789860Y-99801173D01*
X216856791Y-99734476D01*
X216931752Y-99659776D01*
X216948096Y-99643489D01*
X216967490Y-99616500D01*
X217078453Y-99462077D01*
X217079640Y-99462930D01*
X217126960Y-99419362D01*
X217196897Y-99407145D01*
X217262338Y-99434678D01*
X217290166Y-99466511D01*
X217347694Y-99560388D01*
X217353777Y-99568699D01*
X217493213Y-99729667D01*
X217500580Y-99736883D01*
X217664434Y-99872916D01*
X217672881Y-99878831D01*
X217856756Y-99986279D01*
X217866042Y-99990729D01*
X218065001Y-100066703D01*
X218074899Y-100069579D01*
X218178250Y-100090606D01*
X218192299Y-100089410D01*
X218196000Y-100079065D01*
X218196000Y-100078517D01*
X218704000Y-100078517D01*
X218708064Y-100092359D01*
X218721478Y-100094393D01*
X218728184Y-100093534D01*
X218738262Y-100091392D01*
X218942255Y-100030191D01*
X218951842Y-100026433D01*
X219143095Y-99932739D01*
X219151945Y-99927464D01*
X219325328Y-99803792D01*
X219333200Y-99797139D01*
X219484052Y-99646812D01*
X219490730Y-99638965D01*
X219615003Y-99466020D01*
X219620313Y-99457183D01*
X219714670Y-99266267D01*
X219718469Y-99256672D01*
X219780377Y-99052910D01*
X219782555Y-99042837D01*
X219783986Y-99031962D01*
X219781775Y-99017778D01*
X219768617Y-99014000D01*
X218722115Y-99014000D01*
X218706876Y-99018475D01*
X218705671Y-99019865D01*
X218704000Y-99027548D01*
X218704000Y-100078517D01*
X218196000Y-100078517D01*
X218196000Y-98632000D01*
X218216002Y-98563879D01*
X218269658Y-98517386D01*
X218322000Y-98506000D01*
X219768344Y-98506000D01*
X219781875Y-98502027D01*
X219783180Y-98492947D01*
X219741214Y-98325875D01*
X219737894Y-98316124D01*
X219652972Y-98120814D01*
X219648105Y-98111739D01*
X219532426Y-97932926D01*
X219526136Y-97924757D01*
X219382806Y-97767240D01*
X219375273Y-97760215D01*
X219208139Y-97628222D01*
X219199556Y-97622520D01*
X219162602Y-97602120D01*
X219112631Y-97551687D01*
X219097859Y-97482245D01*
X219122975Y-97415839D01*
X219150327Y-97389232D01*
X219219290Y-97340041D01*
X219329860Y-97261173D01*
X219488096Y-97103489D01*
X219547594Y-97020689D01*
X219615435Y-96926277D01*
X219618453Y-96922077D01*
X219639320Y-96879857D01*
X219715136Y-96726453D01*
X219715137Y-96726451D01*
X219717430Y-96721811D01*
X219772849Y-96539406D01*
X219780865Y-96513023D01*
X219780865Y-96513021D01*
X219782370Y-96508069D01*
X219811529Y-96286590D01*
X219811611Y-96283240D01*
X219812846Y-96232703D01*
X233940743Y-96232703D01*
X233941302Y-96236947D01*
X233941302Y-96236951D01*
X233942044Y-96242588D01*
X233978268Y-96517734D01*
X234054129Y-96795036D01*
X234055813Y-96798984D01*
X234159256Y-97041500D01*
X234166923Y-97059476D01*
X234192017Y-97101405D01*
X234308778Y-97296498D01*
X234314561Y-97306161D01*
X234494313Y-97530528D01*
X234593442Y-97624598D01*
X234677664Y-97704521D01*
X234702851Y-97728423D01*
X234936317Y-97896186D01*
X234940112Y-97898195D01*
X234940113Y-97898196D01*
X234961869Y-97909715D01*
X235190392Y-98030712D01*
X235325382Y-98080111D01*
X235415930Y-98113247D01*
X235460373Y-98129511D01*
X235741264Y-98190755D01*
X235769841Y-98193004D01*
X235964282Y-98208307D01*
X235964291Y-98208307D01*
X235966739Y-98208500D01*
X236122271Y-98208500D01*
X236124407Y-98208354D01*
X236124418Y-98208354D01*
X236332548Y-98194165D01*
X236332554Y-98194164D01*
X236336825Y-98193873D01*
X236341020Y-98193004D01*
X236341022Y-98193004D01*
X236477584Y-98164723D01*
X236618342Y-98135574D01*
X236889343Y-98039607D01*
X237105042Y-97928277D01*
X237141005Y-97909715D01*
X237141006Y-97909715D01*
X237144812Y-97907750D01*
X237148313Y-97905289D01*
X237148317Y-97905287D01*
X237271584Y-97818653D01*
X237380023Y-97742441D01*
X237526305Y-97606507D01*
X237587479Y-97549661D01*
X237587481Y-97549658D01*
X237590622Y-97546740D01*
X237772713Y-97324268D01*
X237922927Y-97079142D01*
X238038483Y-96815898D01*
X238117244Y-96539406D01*
X238153224Y-96286590D01*
X238157146Y-96259036D01*
X238157146Y-96259034D01*
X238157751Y-96254784D01*
X238157842Y-96237523D01*
X238159235Y-95971583D01*
X238159235Y-95971576D01*
X238159257Y-95967297D01*
X238157480Y-95953794D01*
X238134394Y-95778444D01*
X238121732Y-95682266D01*
X238104678Y-95619925D01*
X238075781Y-95514298D01*
X238045871Y-95404964D01*
X237994229Y-95283891D01*
X237934763Y-95144476D01*
X237934761Y-95144472D01*
X237933077Y-95140524D01*
X237827045Y-94963357D01*
X237787643Y-94897521D01*
X237787640Y-94897517D01*
X237785439Y-94893839D01*
X237605687Y-94669472D01*
X237482289Y-94552372D01*
X237400258Y-94474527D01*
X237400255Y-94474525D01*
X237397149Y-94471577D01*
X237187786Y-94321134D01*
X237167172Y-94306321D01*
X237167171Y-94306320D01*
X237163683Y-94303814D01*
X237141843Y-94292250D01*
X237118654Y-94279972D01*
X236909608Y-94169288D01*
X236774617Y-94119888D01*
X236643658Y-94071964D01*
X236643656Y-94071963D01*
X236639627Y-94070489D01*
X236358736Y-94009245D01*
X236327685Y-94006801D01*
X236135718Y-93991693D01*
X236135709Y-93991693D01*
X236133261Y-93991500D01*
X235977729Y-93991500D01*
X235975593Y-93991646D01*
X235975582Y-93991646D01*
X235767452Y-94005835D01*
X235767446Y-94005836D01*
X235763175Y-94006127D01*
X235758980Y-94006996D01*
X235758978Y-94006996D01*
X235622416Y-94035277D01*
X235481658Y-94064426D01*
X235210657Y-94160393D01*
X235206848Y-94162359D01*
X234959879Y-94289829D01*
X234955188Y-94292250D01*
X234951687Y-94294711D01*
X234951683Y-94294713D01*
X234904854Y-94327625D01*
X234719977Y-94457559D01*
X234704892Y-94471577D01*
X234512853Y-94650031D01*
X234509378Y-94653260D01*
X234327287Y-94875732D01*
X234177073Y-95120858D01*
X234175347Y-95124791D01*
X234175346Y-95124792D01*
X234070884Y-95362763D01*
X234061517Y-95384102D01*
X233982756Y-95660594D01*
X233942249Y-95945216D01*
X233942227Y-95949505D01*
X233942226Y-95949512D01*
X233940765Y-96228417D01*
X233940743Y-96232703D01*
X219812846Y-96232703D01*
X219813074Y-96223365D01*
X219813074Y-96223361D01*
X219813156Y-96220000D01*
X219794852Y-95997361D01*
X219766821Y-95885765D01*
X219769625Y-95814823D01*
X219799930Y-95765974D01*
X230462247Y-85103657D01*
X230470537Y-85096113D01*
X230477018Y-85092000D01*
X230507211Y-85059848D01*
X230523658Y-85042333D01*
X230526413Y-85039491D01*
X230546135Y-85019769D01*
X230548612Y-85016576D01*
X230556317Y-85007555D01*
X230581159Y-84981100D01*
X230586586Y-84975321D01*
X230592381Y-84964780D01*
X230596346Y-84957568D01*
X230607202Y-84941041D01*
X230614757Y-84931302D01*
X230614758Y-84931300D01*
X230619614Y-84925040D01*
X230637174Y-84884460D01*
X230642391Y-84873812D01*
X230659875Y-84842009D01*
X230659876Y-84842007D01*
X230663695Y-84835060D01*
X230668733Y-84815437D01*
X230675137Y-84796734D01*
X230680033Y-84785420D01*
X230680033Y-84785419D01*
X230683181Y-84778145D01*
X230684420Y-84770322D01*
X230684423Y-84770312D01*
X230690099Y-84734476D01*
X230692505Y-84722856D01*
X230701528Y-84687711D01*
X230701528Y-84687710D01*
X230703500Y-84680030D01*
X230703500Y-84659776D01*
X230705051Y-84640065D01*
X230706980Y-84627886D01*
X230708220Y-84620057D01*
X230704059Y-84576038D01*
X230703500Y-84564181D01*
X230703500Y-54582703D01*
X234090743Y-54582703D01*
X234128268Y-54867734D01*
X234204129Y-55145036D01*
X234316923Y-55409476D01*
X234328693Y-55429142D01*
X234460819Y-55649908D01*
X234464561Y-55656161D01*
X234644313Y-55880528D01*
X234852851Y-56078423D01*
X235086317Y-56246186D01*
X235090112Y-56248195D01*
X235090113Y-56248196D01*
X235111869Y-56259715D01*
X235340392Y-56380712D01*
X235610373Y-56479511D01*
X235891264Y-56540755D01*
X235919841Y-56543004D01*
X236114282Y-56558307D01*
X236114291Y-56558307D01*
X236116739Y-56558500D01*
X236272271Y-56558500D01*
X236274407Y-56558354D01*
X236274418Y-56558354D01*
X236482548Y-56544165D01*
X236482554Y-56544164D01*
X236486825Y-56543873D01*
X236491020Y-56543004D01*
X236491022Y-56543004D01*
X236627584Y-56514723D01*
X236768342Y-56485574D01*
X237039343Y-56389607D01*
X237127363Y-56344177D01*
X237291005Y-56259715D01*
X237291006Y-56259715D01*
X237294812Y-56257750D01*
X237298313Y-56255289D01*
X237298317Y-56255287D01*
X237412417Y-56175096D01*
X237530023Y-56092441D01*
X237740622Y-55896740D01*
X237922713Y-55674268D01*
X238072927Y-55429142D01*
X238188483Y-55165898D01*
X238267244Y-54889406D01*
X238307751Y-54604784D01*
X238307845Y-54586951D01*
X238309235Y-54321583D01*
X238309235Y-54321576D01*
X238309257Y-54317297D01*
X238307276Y-54302245D01*
X238272292Y-54036522D01*
X238271732Y-54032266D01*
X238195871Y-53754964D01*
X238102840Y-53536857D01*
X238084763Y-53494476D01*
X238084761Y-53494472D01*
X238083077Y-53490524D01*
X237985850Y-53328069D01*
X237937643Y-53247521D01*
X237937640Y-53247517D01*
X237935439Y-53243839D01*
X237755687Y-53019472D01*
X237547149Y-52821577D01*
X237313683Y-52653814D01*
X237291843Y-52642250D01*
X237213372Y-52600702D01*
X237059608Y-52519288D01*
X236789627Y-52420489D01*
X236508736Y-52359245D01*
X236477685Y-52356801D01*
X236285718Y-52341693D01*
X236285709Y-52341693D01*
X236283261Y-52341500D01*
X236127729Y-52341500D01*
X236125593Y-52341646D01*
X236125582Y-52341646D01*
X235917452Y-52355835D01*
X235917446Y-52355836D01*
X235913175Y-52356127D01*
X235908980Y-52356996D01*
X235908978Y-52356996D01*
X235833238Y-52372681D01*
X235631658Y-52414426D01*
X235360657Y-52510393D01*
X235105188Y-52642250D01*
X235101687Y-52644711D01*
X235101683Y-52644713D01*
X235091594Y-52651804D01*
X234869977Y-52807559D01*
X234659378Y-53003260D01*
X234477287Y-53225732D01*
X234327073Y-53470858D01*
X234211517Y-53734102D01*
X234132756Y-54010594D01*
X234111972Y-54156632D01*
X234098526Y-54251114D01*
X234092249Y-54295216D01*
X234092227Y-54299505D01*
X234092226Y-54299512D01*
X234090839Y-54564373D01*
X234090743Y-54582703D01*
X230703500Y-54582703D01*
X230703500Y-45642277D01*
X238337009Y-45642277D01*
X238362625Y-45910769D01*
X238363710Y-45915203D01*
X238363711Y-45915209D01*
X238425645Y-46168312D01*
X238426731Y-46172750D01*
X238527985Y-46422733D01*
X238664265Y-46655482D01*
X238667118Y-46659049D01*
X238784686Y-46806060D01*
X238832716Y-46866119D01*
X239029809Y-47050234D01*
X239251416Y-47203968D01*
X239255499Y-47205999D01*
X239255502Y-47206001D01*
X239371013Y-47263466D01*
X239492894Y-47324101D01*
X239497228Y-47325522D01*
X239497231Y-47325523D01*
X239744853Y-47406698D01*
X239744859Y-47406699D01*
X239749186Y-47408118D01*
X239753677Y-47408898D01*
X239753678Y-47408898D01*
X240011140Y-47453601D01*
X240011148Y-47453602D01*
X240014921Y-47454257D01*
X240018758Y-47454448D01*
X240098578Y-47458422D01*
X240098586Y-47458422D01*
X240100149Y-47458500D01*
X240268512Y-47458500D01*
X240270780Y-47458335D01*
X240270792Y-47458335D01*
X240401884Y-47448823D01*
X240469004Y-47443953D01*
X240473459Y-47442969D01*
X240473462Y-47442969D01*
X240727912Y-47386791D01*
X240727916Y-47386790D01*
X240732372Y-47385806D01*
X240858480Y-47338028D01*
X240980318Y-47291868D01*
X240980321Y-47291867D01*
X240984588Y-47290250D01*
X241220368Y-47159286D01*
X241434773Y-46995657D01*
X241623312Y-46802792D01*
X241782034Y-46584730D01*
X241865190Y-46426676D01*
X241905490Y-46350079D01*
X241905493Y-46350073D01*
X241907615Y-46346039D01*
X241970378Y-46168312D01*
X241995902Y-46096033D01*
X241995902Y-46096032D01*
X241997425Y-46091720D01*
X242049581Y-45827100D01*
X242058782Y-45642277D01*
X242062764Y-45562292D01*
X242062764Y-45562286D01*
X242062991Y-45557723D01*
X242037375Y-45289231D01*
X241992042Y-45103967D01*
X241974355Y-45031688D01*
X241973269Y-45027250D01*
X241872015Y-44777267D01*
X241735735Y-44544518D01*
X241617928Y-44397208D01*
X241570136Y-44337447D01*
X241570135Y-44337445D01*
X241567284Y-44333881D01*
X241370191Y-44149766D01*
X241148584Y-43996032D01*
X241144501Y-43994001D01*
X241144498Y-43993999D01*
X240979606Y-43911967D01*
X240907106Y-43875899D01*
X240902772Y-43874478D01*
X240902769Y-43874477D01*
X240655147Y-43793302D01*
X240655141Y-43793301D01*
X240650814Y-43791882D01*
X240646322Y-43791102D01*
X240388860Y-43746399D01*
X240388852Y-43746398D01*
X240385079Y-43745743D01*
X240373817Y-43745182D01*
X240301422Y-43741578D01*
X240301414Y-43741578D01*
X240299851Y-43741500D01*
X240131488Y-43741500D01*
X240129220Y-43741665D01*
X240129208Y-43741665D01*
X239998116Y-43751177D01*
X239930996Y-43756047D01*
X239926541Y-43757031D01*
X239926538Y-43757031D01*
X239672088Y-43813209D01*
X239672084Y-43813210D01*
X239667628Y-43814194D01*
X239541520Y-43861972D01*
X239419682Y-43908132D01*
X239419679Y-43908133D01*
X239415412Y-43909750D01*
X239179632Y-44040714D01*
X238965227Y-44204343D01*
X238776688Y-44397208D01*
X238617966Y-44615270D01*
X238588889Y-44670537D01*
X238494510Y-44849921D01*
X238494507Y-44849927D01*
X238492385Y-44853961D01*
X238490865Y-44858266D01*
X238490863Y-44858270D01*
X238404098Y-45103967D01*
X238402575Y-45108280D01*
X238350419Y-45372900D01*
X238350192Y-45377453D01*
X238350192Y-45377456D01*
X238340991Y-45562292D01*
X238337009Y-45642277D01*
X230703500Y-45642277D01*
X230703500Y-45269594D01*
X230723502Y-45201473D01*
X230740405Y-45180499D01*
X236475999Y-39444905D01*
X236538311Y-39410879D01*
X236609126Y-39415944D01*
X236665962Y-39458491D01*
X236690773Y-39525011D01*
X236687613Y-39563413D01*
X236631391Y-39797597D01*
X236611526Y-40050000D01*
X236631391Y-40302403D01*
X236690495Y-40548591D01*
X236692388Y-40553162D01*
X236692389Y-40553164D01*
X236784254Y-40774945D01*
X236787384Y-40782502D01*
X236919672Y-40998376D01*
X237084102Y-41190898D01*
X237276624Y-41355328D01*
X237492498Y-41487616D01*
X237497068Y-41489509D01*
X237497072Y-41489511D01*
X237721836Y-41582611D01*
X237726409Y-41584505D01*
X237811032Y-41604821D01*
X237967784Y-41642454D01*
X237967790Y-41642455D01*
X237972597Y-41643609D01*
X238225000Y-41663474D01*
X238477403Y-41643609D01*
X238482210Y-41642455D01*
X238482216Y-41642454D01*
X238638968Y-41604821D01*
X238723591Y-41584505D01*
X238728164Y-41582611D01*
X238952928Y-41489511D01*
X238952932Y-41489509D01*
X238957502Y-41487616D01*
X239173376Y-41355328D01*
X239365898Y-41190898D01*
X239530328Y-40998376D01*
X239662616Y-40782502D01*
X239665747Y-40774945D01*
X239757611Y-40553164D01*
X239757612Y-40553162D01*
X239759505Y-40548591D01*
X239818609Y-40302403D01*
X239837394Y-40063718D01*
X239862680Y-39997378D01*
X239919818Y-39955238D01*
X239990668Y-39950679D01*
X240026576Y-39964817D01*
X240131756Y-40026279D01*
X240141042Y-40030729D01*
X240340001Y-40106703D01*
X240349899Y-40109579D01*
X240558595Y-40152038D01*
X240568823Y-40153257D01*
X240781650Y-40161062D01*
X240791936Y-40160595D01*
X241003185Y-40133534D01*
X241013262Y-40131392D01*
X241217255Y-40070191D01*
X241226842Y-40066433D01*
X241418098Y-39972738D01*
X241426944Y-39967465D01*
X241474247Y-39933723D01*
X241482648Y-39923023D01*
X241475660Y-39909870D01*
X240366922Y-38801132D01*
X241089408Y-38801132D01*
X241089539Y-38802965D01*
X241093790Y-38809580D01*
X241835474Y-39551264D01*
X241847484Y-39557823D01*
X241859223Y-39548855D01*
X241890004Y-39506019D01*
X241895315Y-39497180D01*
X241989670Y-39306267D01*
X241993469Y-39296672D01*
X242055376Y-39092915D01*
X242057555Y-39082834D01*
X242085590Y-38869887D01*
X242086109Y-38863212D01*
X242087572Y-38803364D01*
X242087378Y-38796646D01*
X242069781Y-38582604D01*
X242068096Y-38572424D01*
X242016214Y-38365875D01*
X242012894Y-38356124D01*
X241927972Y-38160814D01*
X241923105Y-38151739D01*
X241858063Y-38051197D01*
X241847377Y-38041995D01*
X241837812Y-38046398D01*
X241097022Y-38787188D01*
X241089408Y-38801132D01*
X240366922Y-38801132D01*
X239614849Y-38049059D01*
X239603313Y-38042759D01*
X239591031Y-38052382D01*
X239543089Y-38122662D01*
X239538004Y-38131613D01*
X239448338Y-38324783D01*
X239444775Y-38334470D01*
X239387864Y-38539681D01*
X239385933Y-38549800D01*
X239374390Y-38657815D01*
X239347262Y-38723425D01*
X239288970Y-38763953D01*
X239218020Y-38766532D01*
X239175736Y-38746688D01*
X239173376Y-38744672D01*
X239169164Y-38742091D01*
X239169160Y-38742088D01*
X238961722Y-38614970D01*
X238957502Y-38612384D01*
X238952932Y-38610491D01*
X238952928Y-38610489D01*
X238728164Y-38517389D01*
X238728162Y-38517388D01*
X238723591Y-38515495D01*
X238638968Y-38495179D01*
X238482216Y-38457546D01*
X238482210Y-38457545D01*
X238477403Y-38456391D01*
X238225000Y-38436526D01*
X237972597Y-38456391D01*
X237967790Y-38457545D01*
X237967784Y-38457546D01*
X237783800Y-38501717D01*
X237738414Y-38512613D01*
X237667506Y-38509066D01*
X237609772Y-38467746D01*
X237583542Y-38401772D01*
X237597145Y-38332091D01*
X237619905Y-38300999D01*
X238244477Y-37676427D01*
X239966223Y-37676427D01*
X239972968Y-37688758D01*
X240712188Y-38427978D01*
X240726132Y-38435592D01*
X240727965Y-38435461D01*
X240734580Y-38431210D01*
X241478389Y-37687401D01*
X241485410Y-37674544D01*
X241478611Y-37665213D01*
X241474554Y-37662518D01*
X241288117Y-37559599D01*
X241278705Y-37555369D01*
X241077959Y-37484280D01*
X241067989Y-37481646D01*
X240858327Y-37444301D01*
X240848073Y-37443331D01*
X240635116Y-37440728D01*
X240624832Y-37441448D01*
X240414321Y-37473661D01*
X240404293Y-37476050D01*
X240201868Y-37542212D01*
X240192359Y-37546209D01*
X240003466Y-37644540D01*
X239994734Y-37650039D01*
X239974677Y-37665099D01*
X239966223Y-37676427D01*
X238244477Y-37676427D01*
X240269549Y-35651355D01*
X240331861Y-35617329D01*
X240383762Y-35616979D01*
X240563597Y-35653567D01*
X240568772Y-35653757D01*
X240568774Y-35653757D01*
X240781673Y-35661564D01*
X240781677Y-35661564D01*
X240786837Y-35661753D01*
X240791957Y-35661097D01*
X240791959Y-35661097D01*
X241003288Y-35634025D01*
X241003289Y-35634025D01*
X241008416Y-35633368D01*
X241013366Y-35631883D01*
X241217429Y-35570661D01*
X241217434Y-35570659D01*
X241222384Y-35569174D01*
X241422994Y-35470896D01*
X241604860Y-35341173D01*
X241763096Y-35183489D01*
X241893453Y-35002077D01*
X241992430Y-34801811D01*
X242057370Y-34588069D01*
X242086529Y-34366590D01*
X242086883Y-34352117D01*
X242088074Y-34303365D01*
X242088074Y-34303361D01*
X242088156Y-34300000D01*
X242069852Y-34077361D01*
X242015431Y-33860702D01*
X241926354Y-33655840D01*
X241859930Y-33553164D01*
X241807822Y-33472617D01*
X241807820Y-33472614D01*
X241805014Y-33468277D01*
X241654670Y-33303051D01*
X241650619Y-33299852D01*
X241650615Y-33299848D01*
X241483414Y-33167800D01*
X241483410Y-33167798D01*
X241479359Y-33164598D01*
X241283789Y-33056638D01*
X241278920Y-33054914D01*
X241278916Y-33054912D01*
X241078087Y-32983795D01*
X241078083Y-32983794D01*
X241073212Y-32982069D01*
X241068119Y-32981162D01*
X241068116Y-32981161D01*
X240858373Y-32943800D01*
X240858367Y-32943799D01*
X240853284Y-32942894D01*
X240779452Y-32941992D01*
X240635081Y-32940228D01*
X240635079Y-32940228D01*
X240629911Y-32940165D01*
X240409091Y-32973955D01*
X240196756Y-33043357D01*
X240171244Y-33056638D01*
X240020929Y-33134887D01*
X239951270Y-33148600D01*
X239885255Y-33122475D01*
X239843843Y-33064807D01*
X239837137Y-33033010D01*
X239818997Y-32802531D01*
X239818609Y-32797597D01*
X239759505Y-32551409D01*
X239662616Y-32317498D01*
X239530328Y-32101624D01*
X239365898Y-31909102D01*
X239189345Y-31758311D01*
X239150536Y-31698860D01*
X239150030Y-31627866D01*
X239189345Y-31566689D01*
X239362142Y-31419106D01*
X239365898Y-31415898D01*
X239530328Y-31223376D01*
X239662616Y-31007502D01*
X239759505Y-30773591D01*
X239818609Y-30527403D01*
X239837394Y-30288718D01*
X239862680Y-30222378D01*
X239919818Y-30180238D01*
X239990668Y-30175679D01*
X240026576Y-30189817D01*
X240131756Y-30251279D01*
X240141042Y-30255729D01*
X240340001Y-30331703D01*
X240349899Y-30334579D01*
X240558595Y-30377038D01*
X240568823Y-30378257D01*
X240781650Y-30386062D01*
X240791936Y-30385595D01*
X241003185Y-30358534D01*
X241013262Y-30356392D01*
X241217255Y-30295191D01*
X241226842Y-30291433D01*
X241418098Y-30197738D01*
X241426944Y-30192465D01*
X241474247Y-30158723D01*
X241482648Y-30148023D01*
X241475660Y-30134870D01*
X240366922Y-29026132D01*
X241089408Y-29026132D01*
X241089539Y-29027965D01*
X241093790Y-29034580D01*
X241835474Y-29776264D01*
X241847484Y-29782823D01*
X241859223Y-29773855D01*
X241890004Y-29731019D01*
X241895315Y-29722180D01*
X241989670Y-29531267D01*
X241993469Y-29521672D01*
X242055376Y-29317915D01*
X242057555Y-29307834D01*
X242085590Y-29094887D01*
X242086109Y-29088212D01*
X242087572Y-29028364D01*
X242087378Y-29021646D01*
X242069781Y-28807604D01*
X242068096Y-28797424D01*
X242016214Y-28590875D01*
X242012894Y-28581124D01*
X241927972Y-28385814D01*
X241923105Y-28376739D01*
X241858063Y-28276197D01*
X241847377Y-28266995D01*
X241837812Y-28271398D01*
X241097022Y-29012188D01*
X241089408Y-29026132D01*
X240366922Y-29026132D01*
X239614849Y-28274059D01*
X239603313Y-28267759D01*
X239591031Y-28277382D01*
X239543089Y-28347662D01*
X239538004Y-28356613D01*
X239448338Y-28549783D01*
X239444775Y-28559470D01*
X239387864Y-28764681D01*
X239385933Y-28774800D01*
X239374390Y-28882815D01*
X239347262Y-28948425D01*
X239288970Y-28988953D01*
X239218020Y-28991532D01*
X239175736Y-28971688D01*
X239173376Y-28969672D01*
X239169163Y-28967090D01*
X239169160Y-28967088D01*
X238961722Y-28839970D01*
X238957502Y-28837384D01*
X238952932Y-28835491D01*
X238952928Y-28835489D01*
X238728164Y-28742389D01*
X238728162Y-28742388D01*
X238723591Y-28740495D01*
X238638968Y-28720179D01*
X238482216Y-28682546D01*
X238482210Y-28682545D01*
X238477403Y-28681391D01*
X238225000Y-28661526D01*
X237972597Y-28681391D01*
X237967790Y-28682545D01*
X237967784Y-28682546D01*
X237811032Y-28720179D01*
X237726409Y-28740495D01*
X237721838Y-28742388D01*
X237721836Y-28742389D01*
X237497072Y-28835489D01*
X237497068Y-28835491D01*
X237492498Y-28837384D01*
X237276624Y-28969672D01*
X237084102Y-29134102D01*
X236919672Y-29326624D01*
X236787384Y-29542498D01*
X236785491Y-29547068D01*
X236785489Y-29547072D01*
X236697499Y-29759499D01*
X236690495Y-29776409D01*
X236689340Y-29781221D01*
X236643112Y-29973777D01*
X236631391Y-30022597D01*
X236611526Y-30275000D01*
X236631391Y-30527403D01*
X236690495Y-30773591D01*
X236787384Y-31007502D01*
X236919672Y-31223376D01*
X237084102Y-31415898D01*
X237087858Y-31419106D01*
X237260655Y-31566689D01*
X237299464Y-31626140D01*
X237299970Y-31697134D01*
X237260655Y-31758311D01*
X237084102Y-31909102D01*
X236919672Y-32101624D01*
X236787384Y-32317498D01*
X236690495Y-32551409D01*
X236631391Y-32797597D01*
X236611526Y-33050000D01*
X236631391Y-33302403D01*
X236690495Y-33548591D01*
X236787384Y-33782502D01*
X236919672Y-33998376D01*
X237084102Y-34190898D01*
X237276624Y-34355328D01*
X237492498Y-34487616D01*
X237497068Y-34489509D01*
X237497072Y-34489511D01*
X237721836Y-34582611D01*
X237726409Y-34584505D01*
X237811032Y-34604821D01*
X237967784Y-34642454D01*
X237967790Y-34642455D01*
X237972597Y-34643609D01*
X238225000Y-34663474D01*
X238477403Y-34643609D01*
X238482210Y-34642455D01*
X238482216Y-34642454D01*
X238638968Y-34604821D01*
X238723591Y-34584505D01*
X238728164Y-34582611D01*
X238952928Y-34489511D01*
X238952932Y-34489509D01*
X238957502Y-34487616D01*
X239173376Y-34355328D01*
X239174033Y-34354766D01*
X239239833Y-34331293D01*
X239308984Y-34347377D01*
X239358461Y-34398293D01*
X239372811Y-34449834D01*
X239375110Y-34489715D01*
X239376247Y-34494761D01*
X239376248Y-34494767D01*
X239408453Y-34637668D01*
X239403917Y-34708520D01*
X239374631Y-34754464D01*
X229677747Y-44451348D01*
X229669461Y-44458888D01*
X229662982Y-44463000D01*
X229657557Y-44468777D01*
X229616357Y-44512651D01*
X229613602Y-44515493D01*
X229593865Y-44535230D01*
X229591385Y-44538427D01*
X229583682Y-44547447D01*
X229553414Y-44579679D01*
X229549595Y-44586625D01*
X229549593Y-44586628D01*
X229543652Y-44597434D01*
X229532801Y-44613953D01*
X229520386Y-44629959D01*
X229517241Y-44637228D01*
X229517238Y-44637232D01*
X229502826Y-44670537D01*
X229497609Y-44681187D01*
X229476305Y-44719940D01*
X229474334Y-44727615D01*
X229474334Y-44727616D01*
X229471267Y-44739562D01*
X229464863Y-44758266D01*
X229456819Y-44776855D01*
X229455580Y-44784678D01*
X229455577Y-44784688D01*
X229449901Y-44820524D01*
X229447495Y-44832144D01*
X229436500Y-44874970D01*
X229436500Y-44895224D01*
X229434949Y-44914934D01*
X229431780Y-44934943D01*
X229432526Y-44942835D01*
X229435941Y-44978961D01*
X229436500Y-44990819D01*
X229436500Y-84285406D01*
X229416498Y-84353527D01*
X229399595Y-84374501D01*
X220026877Y-93747218D01*
X219964565Y-93781244D01*
X219893750Y-93776179D01*
X219836914Y-93733632D01*
X219812206Y-93668447D01*
X219804479Y-93574464D01*
X219794852Y-93457361D01*
X219740431Y-93240702D01*
X219651354Y-93035840D01*
X219530014Y-92848277D01*
X219529981Y-92848241D01*
X219504803Y-92783457D01*
X219518943Y-92713883D01*
X219541252Y-92683654D01*
X225382247Y-86842659D01*
X225390537Y-86835115D01*
X225397018Y-86831002D01*
X225443659Y-86781334D01*
X225446413Y-86778493D01*
X225466135Y-86758771D01*
X225468612Y-86755578D01*
X225476317Y-86746557D01*
X225501159Y-86720102D01*
X225506586Y-86714323D01*
X225510532Y-86707145D01*
X225516346Y-86696570D01*
X225527202Y-86680043D01*
X225534757Y-86670304D01*
X225534758Y-86670302D01*
X225539614Y-86664042D01*
X225557174Y-86623462D01*
X225562391Y-86612814D01*
X225579875Y-86581011D01*
X225579876Y-86581009D01*
X225583695Y-86574062D01*
X225588733Y-86554439D01*
X225595137Y-86535736D01*
X225600033Y-86524422D01*
X225600033Y-86524421D01*
X225603181Y-86517147D01*
X225604420Y-86509324D01*
X225604423Y-86509314D01*
X225610099Y-86473478D01*
X225612505Y-86461858D01*
X225621528Y-86426713D01*
X225621528Y-86426712D01*
X225623500Y-86419032D01*
X225623500Y-86398778D01*
X225625051Y-86379067D01*
X225626980Y-86366888D01*
X225628220Y-86359059D01*
X225624059Y-86315040D01*
X225623500Y-86303183D01*
X225623500Y-30774594D01*
X225643502Y-30706473D01*
X225660405Y-30685499D01*
X228444477Y-27901427D01*
X239966223Y-27901427D01*
X239972968Y-27913758D01*
X240712188Y-28652978D01*
X240726132Y-28660592D01*
X240727965Y-28660461D01*
X240734580Y-28656210D01*
X241478389Y-27912401D01*
X241485410Y-27899544D01*
X241478611Y-27890213D01*
X241474554Y-27887518D01*
X241288117Y-27784599D01*
X241278705Y-27780369D01*
X241077959Y-27709280D01*
X241067989Y-27706646D01*
X240858327Y-27669301D01*
X240848073Y-27668331D01*
X240635116Y-27665728D01*
X240624832Y-27666448D01*
X240414321Y-27698661D01*
X240404293Y-27701050D01*
X240201868Y-27767212D01*
X240192359Y-27771209D01*
X240003466Y-27869540D01*
X239994734Y-27875039D01*
X239974677Y-27890099D01*
X239966223Y-27901427D01*
X228444477Y-27901427D01*
X236475999Y-19869905D01*
X236538311Y-19835879D01*
X236609126Y-19840944D01*
X236665962Y-19883491D01*
X236690773Y-19950011D01*
X236687613Y-19988413D01*
X236631391Y-20222597D01*
X236611526Y-20475000D01*
X236631391Y-20727403D01*
X236690495Y-20973591D01*
X236787384Y-21207502D01*
X236919672Y-21423376D01*
X237084102Y-21615898D01*
X237087858Y-21619106D01*
X237275290Y-21779189D01*
X237314099Y-21838640D01*
X237314605Y-21909635D01*
X237275290Y-21970811D01*
X237084102Y-22134102D01*
X236919672Y-22326624D01*
X236787384Y-22542498D01*
X236690495Y-22776409D01*
X236631391Y-23022597D01*
X236611526Y-23275000D01*
X236631391Y-23527403D01*
X236690495Y-23773591D01*
X236787384Y-24007502D01*
X236919672Y-24223376D01*
X237084102Y-24415898D01*
X237276624Y-24580328D01*
X237492498Y-24712616D01*
X237497068Y-24714509D01*
X237497072Y-24714511D01*
X237721836Y-24807611D01*
X237726409Y-24809505D01*
X237811032Y-24829821D01*
X237967784Y-24867454D01*
X237967790Y-24867455D01*
X237972597Y-24868609D01*
X238225000Y-24888474D01*
X238477403Y-24868609D01*
X238482210Y-24867455D01*
X238482216Y-24867454D01*
X238638968Y-24829821D01*
X238723591Y-24809505D01*
X238728164Y-24807611D01*
X238952928Y-24714511D01*
X238952932Y-24714509D01*
X238957502Y-24712616D01*
X239173376Y-24580328D01*
X239174033Y-24579766D01*
X239239833Y-24556293D01*
X239308984Y-24572377D01*
X239358461Y-24623293D01*
X239372811Y-24674834D01*
X239375110Y-24714715D01*
X239376247Y-24719761D01*
X239376248Y-24719767D01*
X239396045Y-24807611D01*
X239424222Y-24932639D01*
X239508266Y-25139616D01*
X239624987Y-25330088D01*
X239771250Y-25498938D01*
X239943126Y-25641632D01*
X240136000Y-25754338D01*
X240344692Y-25834030D01*
X240349760Y-25835061D01*
X240349763Y-25835062D01*
X240457017Y-25856883D01*
X240563597Y-25878567D01*
X240568772Y-25878757D01*
X240568774Y-25878757D01*
X240781673Y-25886564D01*
X240781677Y-25886564D01*
X240786837Y-25886753D01*
X240791957Y-25886097D01*
X240791959Y-25886097D01*
X241003288Y-25859025D01*
X241003289Y-25859025D01*
X241008416Y-25858368D01*
X241013366Y-25856883D01*
X241217429Y-25795661D01*
X241217434Y-25795659D01*
X241222384Y-25794174D01*
X241422994Y-25695896D01*
X241604860Y-25566173D01*
X241763096Y-25408489D01*
X241822594Y-25325689D01*
X241890435Y-25231277D01*
X241893453Y-25227077D01*
X241992430Y-25026811D01*
X242057370Y-24813069D01*
X242086529Y-24591590D01*
X242086883Y-24577117D01*
X242088074Y-24528365D01*
X242088074Y-24528361D01*
X242088156Y-24525000D01*
X242069852Y-24302361D01*
X242015431Y-24085702D01*
X241926354Y-23880840D01*
X241859930Y-23778164D01*
X241807822Y-23697617D01*
X241807820Y-23697614D01*
X241805014Y-23693277D01*
X241654670Y-23528051D01*
X241650619Y-23524852D01*
X241650615Y-23524848D01*
X241483414Y-23392800D01*
X241483410Y-23392798D01*
X241479359Y-23389598D01*
X241283789Y-23281638D01*
X241278920Y-23279914D01*
X241278916Y-23279912D01*
X241078087Y-23208795D01*
X241078083Y-23208794D01*
X241073212Y-23207069D01*
X241068119Y-23206162D01*
X241068116Y-23206161D01*
X240858373Y-23168800D01*
X240858367Y-23168799D01*
X240853284Y-23167894D01*
X240779452Y-23166992D01*
X240635081Y-23165228D01*
X240635079Y-23165228D01*
X240629911Y-23165165D01*
X240409091Y-23198955D01*
X240196756Y-23268357D01*
X240171244Y-23281638D01*
X240020929Y-23359887D01*
X239951270Y-23373600D01*
X239885255Y-23347475D01*
X239843843Y-23289807D01*
X239837137Y-23258010D01*
X239818997Y-23027531D01*
X239818609Y-23022597D01*
X239759505Y-22776409D01*
X239662616Y-22542498D01*
X239530328Y-22326624D01*
X239365898Y-22134102D01*
X239174710Y-21970811D01*
X239135901Y-21911360D01*
X239135395Y-21840365D01*
X239174710Y-21779189D01*
X239362142Y-21619106D01*
X239365898Y-21615898D01*
X239530328Y-21423376D01*
X239662616Y-21207502D01*
X239759505Y-20973591D01*
X239818609Y-20727403D01*
X239837394Y-20488718D01*
X239862680Y-20422378D01*
X239919818Y-20380238D01*
X239990668Y-20375679D01*
X240026576Y-20389817D01*
X240131756Y-20451279D01*
X240141042Y-20455729D01*
X240340001Y-20531703D01*
X240349899Y-20534579D01*
X240558595Y-20577038D01*
X240568823Y-20578257D01*
X240781650Y-20586062D01*
X240791936Y-20585595D01*
X241003185Y-20558534D01*
X241013262Y-20556392D01*
X241217255Y-20495191D01*
X241226842Y-20491433D01*
X241418098Y-20397738D01*
X241426944Y-20392465D01*
X241474247Y-20358723D01*
X241482648Y-20348023D01*
X241475660Y-20334870D01*
X240366922Y-19226132D01*
X241089408Y-19226132D01*
X241089539Y-19227965D01*
X241093790Y-19234580D01*
X241835474Y-19976264D01*
X241847484Y-19982823D01*
X241859223Y-19973855D01*
X241890004Y-19931019D01*
X241895315Y-19922180D01*
X241989670Y-19731267D01*
X241993469Y-19721672D01*
X242055376Y-19517915D01*
X242057555Y-19507834D01*
X242085590Y-19294887D01*
X242086109Y-19288212D01*
X242087572Y-19228364D01*
X242087378Y-19221646D01*
X242069781Y-19007604D01*
X242068096Y-18997424D01*
X242016214Y-18790875D01*
X242012894Y-18781124D01*
X241927972Y-18585814D01*
X241923105Y-18576739D01*
X241858063Y-18476197D01*
X241847377Y-18466995D01*
X241837812Y-18471398D01*
X241097022Y-19212188D01*
X241089408Y-19226132D01*
X240366922Y-19226132D01*
X239614849Y-18474059D01*
X239603313Y-18467759D01*
X239591031Y-18477382D01*
X239543089Y-18547662D01*
X239538004Y-18556613D01*
X239448338Y-18749783D01*
X239444775Y-18759470D01*
X239387864Y-18964681D01*
X239385933Y-18974800D01*
X239374390Y-19082815D01*
X239347262Y-19148425D01*
X239288970Y-19188953D01*
X239218020Y-19191532D01*
X239175736Y-19171688D01*
X239173376Y-19169672D01*
X239169164Y-19167091D01*
X239169160Y-19167088D01*
X238961722Y-19039970D01*
X238957502Y-19037384D01*
X238952932Y-19035491D01*
X238952928Y-19035489D01*
X238728164Y-18942389D01*
X238728162Y-18942388D01*
X238723591Y-18940495D01*
X238638968Y-18920179D01*
X238482216Y-18882546D01*
X238482210Y-18882545D01*
X238477403Y-18881391D01*
X238225000Y-18861526D01*
X237972597Y-18881391D01*
X237967790Y-18882545D01*
X237967784Y-18882546D01*
X237783800Y-18926717D01*
X237738414Y-18937613D01*
X237667506Y-18934066D01*
X237609772Y-18892746D01*
X237583542Y-18826772D01*
X237597145Y-18757091D01*
X237619905Y-18725999D01*
X238244477Y-18101427D01*
X239966223Y-18101427D01*
X239972968Y-18113758D01*
X240712188Y-18852978D01*
X240726132Y-18860592D01*
X240727965Y-18860461D01*
X240734580Y-18856210D01*
X241478389Y-18112401D01*
X241485410Y-18099544D01*
X241478611Y-18090213D01*
X241474554Y-18087518D01*
X241288117Y-17984599D01*
X241278705Y-17980369D01*
X241077959Y-17909280D01*
X241067989Y-17906646D01*
X240858327Y-17869301D01*
X240848073Y-17868331D01*
X240635116Y-17865728D01*
X240624832Y-17866448D01*
X240414321Y-17898661D01*
X240404293Y-17901050D01*
X240201868Y-17967212D01*
X240192359Y-17971209D01*
X240003466Y-18069540D01*
X239994734Y-18075039D01*
X239974677Y-18090099D01*
X239966223Y-18101427D01*
X238244477Y-18101427D01*
X240269549Y-16076355D01*
X240331861Y-16042329D01*
X240383762Y-16041979D01*
X240563597Y-16078567D01*
X240568772Y-16078757D01*
X240568774Y-16078757D01*
X240781673Y-16086564D01*
X240781677Y-16086564D01*
X240786837Y-16086753D01*
X240791957Y-16086097D01*
X240791959Y-16086097D01*
X241003288Y-16059025D01*
X241003289Y-16059025D01*
X241008416Y-16058368D01*
X241013366Y-16056883D01*
X241217429Y-15995661D01*
X241217434Y-15995659D01*
X241222384Y-15994174D01*
X241422994Y-15895896D01*
X241604860Y-15766173D01*
X241763096Y-15608489D01*
X241893453Y-15427077D01*
X241992430Y-15226811D01*
X242057370Y-15013069D01*
X242086529Y-14791590D01*
X242086883Y-14777117D01*
X242088074Y-14728365D01*
X242088074Y-14728361D01*
X242088156Y-14725000D01*
X242069852Y-14502361D01*
X242015431Y-14285702D01*
X241926354Y-14080840D01*
X241859930Y-13978164D01*
X241807822Y-13897617D01*
X241807820Y-13897614D01*
X241805014Y-13893277D01*
X241654670Y-13728051D01*
X241650619Y-13724852D01*
X241650615Y-13724848D01*
X241483414Y-13592800D01*
X241483410Y-13592798D01*
X241479359Y-13589598D01*
X241283789Y-13481638D01*
X241278920Y-13479914D01*
X241278916Y-13479912D01*
X241078087Y-13408795D01*
X241078083Y-13408794D01*
X241073212Y-13407069D01*
X241068119Y-13406162D01*
X241068116Y-13406161D01*
X240858373Y-13368800D01*
X240858367Y-13368799D01*
X240853284Y-13367894D01*
X240779452Y-13366992D01*
X240635081Y-13365228D01*
X240635079Y-13365228D01*
X240629911Y-13365165D01*
X240409091Y-13398955D01*
X240196756Y-13468357D01*
X240171244Y-13481638D01*
X240020929Y-13559887D01*
X239951270Y-13573600D01*
X239885255Y-13547475D01*
X239843843Y-13489807D01*
X239837137Y-13458010D01*
X239818997Y-13227531D01*
X239818609Y-13222597D01*
X239759505Y-12976409D01*
X239662616Y-12742498D01*
X239530328Y-12526624D01*
X239365898Y-12334102D01*
X239173376Y-12169672D01*
X238957502Y-12037384D01*
X238952932Y-12035491D01*
X238952928Y-12035489D01*
X238728164Y-11942389D01*
X238728162Y-11942388D01*
X238723591Y-11940495D01*
X238638968Y-11920179D01*
X238482216Y-11882546D01*
X238482210Y-11882545D01*
X238477403Y-11881391D01*
X238225000Y-11861526D01*
X237972597Y-11881391D01*
X237967790Y-11882545D01*
X237967784Y-11882546D01*
X237811032Y-11920179D01*
X237726409Y-11940495D01*
X237721838Y-11942388D01*
X237721836Y-11942389D01*
X237497072Y-12035489D01*
X237497068Y-12035491D01*
X237492498Y-12037384D01*
X237276624Y-12169672D01*
X237084102Y-12334102D01*
X236919672Y-12526624D01*
X236787384Y-12742498D01*
X236690495Y-12976409D01*
X236631391Y-13222597D01*
X236611526Y-13475000D01*
X236631391Y-13727403D01*
X236690495Y-13973591D01*
X236787384Y-14207502D01*
X236919672Y-14423376D01*
X237084102Y-14615898D01*
X237276624Y-14780328D01*
X237492498Y-14912616D01*
X237497068Y-14914509D01*
X237497072Y-14914511D01*
X237721836Y-15007611D01*
X237726409Y-15009505D01*
X237811032Y-15029821D01*
X237967784Y-15067454D01*
X237967790Y-15067455D01*
X237972597Y-15068609D01*
X238225000Y-15088474D01*
X238477403Y-15068609D01*
X238482210Y-15067455D01*
X238482216Y-15067454D01*
X238638968Y-15029821D01*
X238723591Y-15009505D01*
X238728164Y-15007611D01*
X238952928Y-14914511D01*
X238952932Y-14914509D01*
X238957502Y-14912616D01*
X239173376Y-14780328D01*
X239174033Y-14779766D01*
X239239833Y-14756293D01*
X239308984Y-14772377D01*
X239358461Y-14823293D01*
X239372811Y-14874834D01*
X239375110Y-14914715D01*
X239376247Y-14919761D01*
X239376248Y-14919767D01*
X239408453Y-15062668D01*
X239403917Y-15133520D01*
X239374631Y-15179464D01*
X224597747Y-29956348D01*
X224589461Y-29963888D01*
X224582982Y-29968000D01*
X224577557Y-29973777D01*
X224536357Y-30017651D01*
X224533602Y-30020493D01*
X224513865Y-30040230D01*
X224511385Y-30043427D01*
X224503682Y-30052447D01*
X224473414Y-30084679D01*
X224469595Y-30091625D01*
X224469593Y-30091628D01*
X224463652Y-30102434D01*
X224452801Y-30118953D01*
X224440386Y-30134959D01*
X224437241Y-30142228D01*
X224437238Y-30142232D01*
X224422826Y-30175537D01*
X224417609Y-30186187D01*
X224396305Y-30224940D01*
X224394334Y-30232615D01*
X224394334Y-30232616D01*
X224391267Y-30244562D01*
X224384863Y-30263266D01*
X224376819Y-30281855D01*
X224375580Y-30289678D01*
X224375577Y-30289688D01*
X224369901Y-30325524D01*
X224367495Y-30337144D01*
X224358472Y-30372289D01*
X224356500Y-30379970D01*
X224356500Y-30400224D01*
X224354949Y-30419934D01*
X224351780Y-30439943D01*
X224352526Y-30447835D01*
X224355941Y-30483961D01*
X224356500Y-30495819D01*
X224356500Y-86024408D01*
X224336498Y-86092529D01*
X224319595Y-86113503D01*
X219868849Y-90564248D01*
X219806537Y-90598274D01*
X219735722Y-90593209D01*
X219678886Y-90550662D01*
X219664206Y-90525398D01*
X219651354Y-90495840D01*
X219530014Y-90308277D01*
X219379670Y-90143051D01*
X219375619Y-90139852D01*
X219375615Y-90139848D01*
X219208414Y-90007800D01*
X219208410Y-90007798D01*
X219204359Y-90004598D01*
X219163053Y-89981796D01*
X219113084Y-89931364D01*
X219098312Y-89861921D01*
X219123428Y-89795516D01*
X219150780Y-89768909D01*
X219204553Y-89730553D01*
X219329860Y-89641173D01*
X219488096Y-89483489D01*
X219515137Y-89445858D01*
X219615435Y-89306277D01*
X219618453Y-89302077D01*
X219622877Y-89293127D01*
X219715136Y-89106453D01*
X219715137Y-89106451D01*
X219717430Y-89101811D01*
X219768396Y-88934064D01*
X219780865Y-88893023D01*
X219780865Y-88893021D01*
X219782370Y-88888069D01*
X219811529Y-88666590D01*
X219812255Y-88636896D01*
X219813074Y-88603365D01*
X219813074Y-88603361D01*
X219813156Y-88600000D01*
X219794852Y-88377361D01*
X219740431Y-88160702D01*
X219651354Y-87955840D01*
X219530014Y-87768277D01*
X219379670Y-87603051D01*
X219375619Y-87599852D01*
X219375615Y-87599848D01*
X219208414Y-87467800D01*
X219208410Y-87467798D01*
X219204359Y-87464598D01*
X219163053Y-87441796D01*
X219113084Y-87391364D01*
X219098312Y-87321921D01*
X219123428Y-87255516D01*
X219150780Y-87228909D01*
X219194603Y-87197650D01*
X219329860Y-87101173D01*
X219488096Y-86943489D01*
X219618453Y-86762077D01*
X219623984Y-86750887D01*
X219715136Y-86566453D01*
X219715137Y-86566451D01*
X219717430Y-86561811D01*
X219782370Y-86348069D01*
X219811529Y-86126590D01*
X219812361Y-86092529D01*
X219813074Y-86063365D01*
X219813074Y-86063361D01*
X219813156Y-86060000D01*
X219794852Y-85837361D01*
X219740431Y-85620702D01*
X219651354Y-85415840D01*
X219530014Y-85228277D01*
X219379670Y-85063051D01*
X219375619Y-85059852D01*
X219375615Y-85059848D01*
X219208414Y-84927800D01*
X219208410Y-84927798D01*
X219204359Y-84924598D01*
X219163053Y-84901796D01*
X219113084Y-84851364D01*
X219098312Y-84781921D01*
X219123428Y-84715516D01*
X219150780Y-84688909D01*
X219219257Y-84640065D01*
X219329860Y-84561173D01*
X219488096Y-84403489D01*
X219547594Y-84320689D01*
X219615435Y-84226277D01*
X219618453Y-84222077D01*
X219639320Y-84179857D01*
X219715136Y-84026453D01*
X219715137Y-84026451D01*
X219717430Y-84021811D01*
X219771216Y-83844781D01*
X219780865Y-83813023D01*
X219780865Y-83813021D01*
X219782370Y-83808069D01*
X219811529Y-83586590D01*
X219813156Y-83520000D01*
X219794852Y-83297361D01*
X219740431Y-83080702D01*
X219651354Y-82875840D01*
X219530014Y-82688277D01*
X219379670Y-82523051D01*
X219375619Y-82519852D01*
X219375615Y-82519848D01*
X219208414Y-82387800D01*
X219208410Y-82387798D01*
X219204359Y-82384598D01*
X219162569Y-82361529D01*
X219112598Y-82311097D01*
X219097826Y-82241654D01*
X219122942Y-82175248D01*
X219150294Y-82148641D01*
X219325328Y-82023792D01*
X219333200Y-82017139D01*
X219484052Y-81866812D01*
X219490730Y-81858965D01*
X219615003Y-81686020D01*
X219620313Y-81677183D01*
X219714670Y-81486267D01*
X219718469Y-81476672D01*
X219780377Y-81272910D01*
X219782555Y-81262837D01*
X219783986Y-81251962D01*
X219781775Y-81237778D01*
X219768617Y-81234000D01*
X218322000Y-81234000D01*
X218253879Y-81213998D01*
X218207386Y-81160342D01*
X218196000Y-81108000D01*
X218196000Y-80852000D01*
X218216002Y-80783879D01*
X218269658Y-80737386D01*
X218322000Y-80726000D01*
X219768344Y-80726000D01*
X219781875Y-80722027D01*
X219783180Y-80712947D01*
X219741214Y-80545875D01*
X219737894Y-80536124D01*
X219652972Y-80340814D01*
X219648105Y-80331739D01*
X219532426Y-80152926D01*
X219526136Y-80144757D01*
X219382806Y-79987240D01*
X219375273Y-79980215D01*
X219208139Y-79848222D01*
X219199556Y-79842520D01*
X219162602Y-79822120D01*
X219112631Y-79771687D01*
X219097859Y-79702245D01*
X219122975Y-79635839D01*
X219150327Y-79609232D01*
X219173797Y-79592491D01*
X219329860Y-79481173D01*
X219488096Y-79323489D01*
X219547594Y-79240689D01*
X219615435Y-79146277D01*
X219618453Y-79142077D01*
X219624836Y-79129163D01*
X219715136Y-78946453D01*
X219715137Y-78946451D01*
X219717430Y-78941811D01*
X219782370Y-78728069D01*
X219811529Y-78506590D01*
X219813156Y-78440000D01*
X219794852Y-78217361D01*
X219740431Y-78000702D01*
X219651354Y-77795840D01*
X219562673Y-77658760D01*
X219532822Y-77612617D01*
X219532820Y-77612614D01*
X219530014Y-77608277D01*
X219379670Y-77443051D01*
X219375619Y-77439852D01*
X219375615Y-77439848D01*
X219208414Y-77307800D01*
X219208410Y-77307798D01*
X219204359Y-77304598D01*
X219163053Y-77281796D01*
X219113084Y-77231364D01*
X219098312Y-77161921D01*
X219123428Y-77095516D01*
X219150780Y-77068909D01*
X219194603Y-77037650D01*
X219329860Y-76941173D01*
X219488096Y-76783489D01*
X219547594Y-76700689D01*
X219615435Y-76606277D01*
X219618453Y-76602077D01*
X219639320Y-76559857D01*
X219715136Y-76406453D01*
X219715137Y-76406451D01*
X219717430Y-76401811D01*
X219782370Y-76188069D01*
X219811529Y-75966590D01*
X219813156Y-75900000D01*
X219794852Y-75677361D01*
X219740431Y-75460702D01*
X219651354Y-75255840D01*
X219583847Y-75151490D01*
X219532822Y-75072617D01*
X219532820Y-75072614D01*
X219530014Y-75068277D01*
X219379670Y-74903051D01*
X219375619Y-74899852D01*
X219375615Y-74899848D01*
X219208414Y-74767800D01*
X219208410Y-74767798D01*
X219204359Y-74764598D01*
X219163053Y-74741796D01*
X219113084Y-74691364D01*
X219098312Y-74621921D01*
X219123428Y-74555516D01*
X219150780Y-74528909D01*
X219194603Y-74497650D01*
X219329860Y-74401173D01*
X219488096Y-74243489D01*
X219618453Y-74062077D01*
X219623507Y-74051852D01*
X219715136Y-73866453D01*
X219715137Y-73866451D01*
X219717430Y-73861811D01*
X219762931Y-73712051D01*
X219780865Y-73653023D01*
X219780865Y-73653021D01*
X219782370Y-73648069D01*
X219811529Y-73426590D01*
X219813156Y-73360000D01*
X219794852Y-73137361D01*
X219740431Y-72920702D01*
X219651354Y-72715840D01*
X219561715Y-72577279D01*
X219532822Y-72532617D01*
X219532820Y-72532614D01*
X219530014Y-72528277D01*
X219379670Y-72363051D01*
X219375619Y-72359852D01*
X219375615Y-72359848D01*
X219208414Y-72227800D01*
X219208410Y-72227798D01*
X219204359Y-72224598D01*
X219163053Y-72201796D01*
X219113084Y-72151364D01*
X219098312Y-72081921D01*
X219123428Y-72015516D01*
X219150780Y-71988909D01*
X219194603Y-71957650D01*
X219329860Y-71861173D01*
X219488096Y-71703489D01*
X219517190Y-71663001D01*
X219615435Y-71526277D01*
X219618453Y-71522077D01*
X219638204Y-71482115D01*
X219715136Y-71326453D01*
X219715137Y-71326451D01*
X219717430Y-71321811D01*
X219768008Y-71155341D01*
X219780865Y-71113023D01*
X219780865Y-71113021D01*
X219782370Y-71108069D01*
X219811529Y-70886590D01*
X219812715Y-70838042D01*
X219813074Y-70823365D01*
X219813074Y-70823361D01*
X219813156Y-70820000D01*
X219795870Y-70609747D01*
X219810223Y-70540219D01*
X219832351Y-70510330D01*
X223288911Y-67053770D01*
X223303323Y-67041384D01*
X223314918Y-67032851D01*
X223314923Y-67032846D01*
X223320818Y-67028508D01*
X223325557Y-67022930D01*
X223325560Y-67022927D01*
X223355035Y-66988232D01*
X223361965Y-66980716D01*
X223367660Y-66975021D01*
X223377907Y-66962069D01*
X223385281Y-66952749D01*
X223388072Y-66949345D01*
X223430591Y-66899297D01*
X223430592Y-66899295D01*
X223435333Y-66893715D01*
X223438661Y-66887199D01*
X223442028Y-66882150D01*
X223445195Y-66877021D01*
X223449734Y-66871284D01*
X223480655Y-66805125D01*
X223482561Y-66801225D01*
X223494860Y-66777139D01*
X223515769Y-66736192D01*
X223517508Y-66729084D01*
X223519607Y-66723441D01*
X223521524Y-66717678D01*
X223524622Y-66711050D01*
X223539487Y-66639583D01*
X223540457Y-66635299D01*
X223556473Y-66569845D01*
X223557808Y-66564390D01*
X223558500Y-66553236D01*
X223558536Y-66553238D01*
X223558775Y-66549245D01*
X223559149Y-66545053D01*
X223560640Y-66537885D01*
X223558546Y-66460479D01*
X223558500Y-66457072D01*
X223558500Y-51517070D01*
X223559933Y-51498120D01*
X223562099Y-51483885D01*
X223562099Y-51483881D01*
X223563199Y-51476651D01*
X223562473Y-51467715D01*
X223558915Y-51423982D01*
X223558500Y-51413767D01*
X223558500Y-51405707D01*
X223555209Y-51377480D01*
X223554778Y-51373121D01*
X223551009Y-51326783D01*
X223548860Y-51300364D01*
X223546605Y-51293403D01*
X223545418Y-51287463D01*
X223544029Y-51281588D01*
X223543182Y-51274319D01*
X223518264Y-51205670D01*
X223516847Y-51201542D01*
X223496607Y-51139064D01*
X223496606Y-51139062D01*
X223494351Y-51132101D01*
X223490555Y-51125846D01*
X223488049Y-51120372D01*
X223485330Y-51114942D01*
X223482833Y-51108063D01*
X223442814Y-51047024D01*
X223440467Y-51043305D01*
X223402595Y-50980893D01*
X223395197Y-50972516D01*
X223395224Y-50972492D01*
X223392571Y-50969500D01*
X223389868Y-50966267D01*
X223385856Y-50960148D01*
X223329617Y-50906872D01*
X223327175Y-50904494D01*
X222433770Y-50011089D01*
X222421384Y-49996677D01*
X222412851Y-49985082D01*
X222412846Y-49985077D01*
X222408508Y-49979182D01*
X222402930Y-49974443D01*
X222402927Y-49974440D01*
X222368232Y-49944965D01*
X222360716Y-49938035D01*
X222355021Y-49932340D01*
X222348880Y-49927482D01*
X222332749Y-49914719D01*
X222329345Y-49911928D01*
X222279297Y-49869409D01*
X222279295Y-49869408D01*
X222273715Y-49864667D01*
X222267199Y-49861339D01*
X222262150Y-49857972D01*
X222257021Y-49854805D01*
X222251284Y-49850266D01*
X222185125Y-49819345D01*
X222181225Y-49817439D01*
X222116192Y-49784231D01*
X222109084Y-49782492D01*
X222103441Y-49780393D01*
X222097678Y-49778476D01*
X222091050Y-49775378D01*
X222019583Y-49760513D01*
X222015299Y-49759543D01*
X221944390Y-49742192D01*
X221938788Y-49741844D01*
X221938785Y-49741844D01*
X221933236Y-49741500D01*
X221933238Y-49741464D01*
X221929245Y-49741225D01*
X221925053Y-49740851D01*
X221917885Y-49739360D01*
X221851675Y-49741151D01*
X221840479Y-49741454D01*
X221837072Y-49741500D01*
X219934500Y-49741500D01*
X219866379Y-49721498D01*
X219819886Y-49667842D01*
X219808500Y-49615500D01*
X219808500Y-49601866D01*
X219801745Y-49539684D01*
X219750615Y-49403295D01*
X219663261Y-49286739D01*
X219546705Y-49199385D01*
X219410316Y-49148255D01*
X219348134Y-49141500D01*
X218216371Y-49141500D01*
X218148250Y-49121498D01*
X218127276Y-49104595D01*
X217733769Y-48711088D01*
X217721383Y-48696676D01*
X217712850Y-48685081D01*
X217712845Y-48685076D01*
X217708507Y-48679181D01*
X217702929Y-48674442D01*
X217702926Y-48674439D01*
X217668231Y-48644964D01*
X217660715Y-48638034D01*
X217655020Y-48632339D01*
X217638735Y-48619455D01*
X217632748Y-48614718D01*
X217629344Y-48611927D01*
X217579296Y-48569408D01*
X217579294Y-48569407D01*
X217573714Y-48564666D01*
X217567198Y-48561338D01*
X217562149Y-48557971D01*
X217557020Y-48554804D01*
X217551283Y-48550265D01*
X217485124Y-48519344D01*
X217481224Y-48517438D01*
X217416191Y-48484230D01*
X217409083Y-48482491D01*
X217403440Y-48480392D01*
X217397677Y-48478475D01*
X217391049Y-48475377D01*
X217319582Y-48460512D01*
X217315298Y-48459542D01*
X217244389Y-48442191D01*
X217238787Y-48441843D01*
X217238784Y-48441843D01*
X217233235Y-48441499D01*
X217233237Y-48441463D01*
X217229244Y-48441224D01*
X217225052Y-48440850D01*
X217217884Y-48439359D01*
X217154119Y-48441084D01*
X217140478Y-48441453D01*
X217137071Y-48441499D01*
X204967071Y-48441499D01*
X204948121Y-48440066D01*
X204933886Y-48437900D01*
X204933882Y-48437900D01*
X204926652Y-48436800D01*
X204919360Y-48437393D01*
X204919357Y-48437393D01*
X204873983Y-48441084D01*
X204863768Y-48441499D01*
X204855708Y-48441499D01*
X204852074Y-48441923D01*
X204852068Y-48441923D01*
X204839043Y-48443442D01*
X204827481Y-48444790D01*
X204823133Y-48445220D01*
X204750365Y-48451139D01*
X204743404Y-48453394D01*
X204737464Y-48454581D01*
X204731589Y-48455970D01*
X204724320Y-48456817D01*
X204655671Y-48481735D01*
X204651543Y-48483152D01*
X204589065Y-48503392D01*
X204589063Y-48503393D01*
X204582102Y-48505648D01*
X204575847Y-48509444D01*
X204570373Y-48511950D01*
X204564943Y-48514669D01*
X204558064Y-48517166D01*
X204551944Y-48521179D01*
X204551943Y-48521179D01*
X204497025Y-48557185D01*
X204493321Y-48559522D01*
X204430894Y-48597404D01*
X204422517Y-48604802D01*
X204422493Y-48604775D01*
X204419501Y-48607428D01*
X204416268Y-48610131D01*
X204410149Y-48614143D01*
X204380952Y-48644964D01*
X204356873Y-48670382D01*
X204354495Y-48672824D01*
X202283350Y-50743969D01*
X202277663Y-50749315D01*
X202231596Y-50790000D01*
X202227370Y-50795980D01*
X202227368Y-50795982D01*
X202224003Y-50800744D01*
X202210201Y-50817119D01*
X185792493Y-67234827D01*
X185730181Y-67268853D01*
X185659366Y-67263788D01*
X185602530Y-67221241D01*
X185594279Y-67208732D01*
X185542342Y-67118774D01*
X185542339Y-67118769D01*
X185539040Y-67113056D01*
X185522881Y-67095109D01*
X185415675Y-66976045D01*
X185415674Y-66976044D01*
X185411253Y-66971134D01*
X185273822Y-66871284D01*
X185262094Y-66862763D01*
X185262093Y-66862762D01*
X185256752Y-66858882D01*
X185250724Y-66856198D01*
X185250722Y-66856197D01*
X185088319Y-66783891D01*
X185088318Y-66783891D01*
X185082288Y-66781206D01*
X184988887Y-66761353D01*
X184901944Y-66742872D01*
X184901939Y-66742872D01*
X184895487Y-66741500D01*
X184704513Y-66741500D01*
X184698061Y-66742872D01*
X184698056Y-66742872D01*
X184611113Y-66761353D01*
X184517712Y-66781206D01*
X184511682Y-66783891D01*
X184511681Y-66783891D01*
X184349278Y-66856197D01*
X184349276Y-66856198D01*
X184343248Y-66858882D01*
X184337907Y-66862762D01*
X184337906Y-66862763D01*
X184255143Y-66922894D01*
X184188747Y-66971134D01*
X184184332Y-66976037D01*
X184179420Y-66980460D01*
X184178295Y-66979211D01*
X184124986Y-67012051D01*
X184091800Y-67016500D01*
X183328768Y-67016500D01*
X183317585Y-67015973D01*
X183310092Y-67014298D01*
X183302166Y-67014547D01*
X183302165Y-67014547D01*
X183242002Y-67016438D01*
X183238044Y-67016500D01*
X183210144Y-67016500D01*
X183206154Y-67017004D01*
X183194320Y-67017936D01*
X183150111Y-67019326D01*
X183142495Y-67021539D01*
X183142493Y-67021539D01*
X183130652Y-67024979D01*
X183111293Y-67028988D01*
X183109983Y-67029154D01*
X183091203Y-67031526D01*
X183083837Y-67034442D01*
X183083831Y-67034444D01*
X183050098Y-67047800D01*
X183038868Y-67051645D01*
X183031554Y-67053770D01*
X182996407Y-67063981D01*
X182989584Y-67068016D01*
X182978966Y-67074295D01*
X182961213Y-67082992D01*
X182953568Y-67086019D01*
X182942383Y-67090448D01*
X182935968Y-67095109D01*
X182906612Y-67116437D01*
X182896695Y-67122951D01*
X182858638Y-67145458D01*
X182844317Y-67159779D01*
X182829284Y-67172619D01*
X182812893Y-67184528D01*
X182807842Y-67190634D01*
X182784702Y-67218605D01*
X182776712Y-67227384D01*
X176399500Y-73604595D01*
X176337188Y-73638621D01*
X176310405Y-73641500D01*
X176254513Y-73641500D01*
X176248061Y-73642872D01*
X176248056Y-73642872D01*
X176161112Y-73661353D01*
X176067712Y-73681206D01*
X176061682Y-73683891D01*
X176061681Y-73683891D01*
X175899278Y-73756197D01*
X175899276Y-73756198D01*
X175893248Y-73758882D01*
X175738747Y-73871134D01*
X175734326Y-73876044D01*
X175734325Y-73876045D01*
X175641810Y-73978794D01*
X175610960Y-74013056D01*
X175515473Y-74178444D01*
X175456458Y-74360072D01*
X175455768Y-74366633D01*
X175455768Y-74366635D01*
X175444207Y-74476632D01*
X175436496Y-74550000D01*
X175437186Y-74556565D01*
X175446050Y-74640897D01*
X175456458Y-74739928D01*
X175515473Y-74921556D01*
X175610960Y-75086944D01*
X175615378Y-75091851D01*
X175615379Y-75091852D01*
X175729678Y-75218794D01*
X175738747Y-75228866D01*
X175893248Y-75341118D01*
X175899276Y-75343802D01*
X175899278Y-75343803D01*
X176051118Y-75411406D01*
X176067712Y-75418794D01*
X176161112Y-75438647D01*
X176248056Y-75457128D01*
X176248061Y-75457128D01*
X176254513Y-75458500D01*
X176445487Y-75458500D01*
X176451939Y-75457128D01*
X176451944Y-75457128D01*
X176538888Y-75438647D01*
X176632288Y-75418794D01*
X176648882Y-75411406D01*
X176800722Y-75343803D01*
X176800724Y-75343802D01*
X176806752Y-75341118D01*
X176961253Y-75228866D01*
X176970322Y-75218794D01*
X177084621Y-75091852D01*
X177084622Y-75091851D01*
X177089040Y-75086944D01*
X177184527Y-74921556D01*
X177243542Y-74739928D01*
X177260907Y-74574706D01*
X177287920Y-74509050D01*
X177297122Y-74498782D01*
X183475499Y-68320405D01*
X183537811Y-68286379D01*
X183564594Y-68283500D01*
X184091800Y-68283500D01*
X184159921Y-68303502D01*
X184179147Y-68319843D01*
X184179420Y-68319540D01*
X184184332Y-68323963D01*
X184188747Y-68328866D01*
X184343248Y-68441118D01*
X184349278Y-68443803D01*
X184355001Y-68447107D01*
X184353554Y-68449614D01*
X184397996Y-68487418D01*
X184418620Y-68555353D01*
X184399241Y-68623653D01*
X184381720Y-68645599D01*
X182061089Y-70966230D01*
X182046677Y-70978616D01*
X182035082Y-70987149D01*
X182035077Y-70987154D01*
X182029182Y-70991492D01*
X182024443Y-70997070D01*
X182024440Y-70997073D01*
X181994965Y-71031768D01*
X181988035Y-71039284D01*
X181982340Y-71044979D01*
X181980060Y-71047861D01*
X181964719Y-71067251D01*
X181961928Y-71070655D01*
X181925934Y-71113023D01*
X181914667Y-71126285D01*
X181911339Y-71132801D01*
X181907972Y-71137850D01*
X181904805Y-71142979D01*
X181900266Y-71148716D01*
X181869345Y-71214875D01*
X181867442Y-71218769D01*
X181834231Y-71283808D01*
X181832492Y-71290916D01*
X181830393Y-71296559D01*
X181828476Y-71302322D01*
X181825378Y-71308950D01*
X181823888Y-71316112D01*
X181823888Y-71316113D01*
X181810514Y-71380412D01*
X181809544Y-71384696D01*
X181792192Y-71455610D01*
X181791500Y-71466764D01*
X181791464Y-71466762D01*
X181791225Y-71470755D01*
X181790851Y-71474947D01*
X181789360Y-71482115D01*
X181790316Y-71517438D01*
X181791454Y-71559521D01*
X181791500Y-71562928D01*
X181791500Y-71663001D01*
X181774619Y-71726000D01*
X181715473Y-71828444D01*
X181656458Y-72010072D01*
X181655768Y-72016633D01*
X181655768Y-72016635D01*
X181652331Y-72049338D01*
X181636496Y-72200000D01*
X181637186Y-72206565D01*
X181654035Y-72366870D01*
X181656458Y-72389928D01*
X181715473Y-72571556D01*
X181810960Y-72736944D01*
X181938747Y-72878866D01*
X182093248Y-72991118D01*
X182099276Y-72993802D01*
X182099278Y-72993803D01*
X182261681Y-73066109D01*
X182267712Y-73068794D01*
X182361113Y-73088647D01*
X182448056Y-73107128D01*
X182448061Y-73107128D01*
X182454513Y-73108500D01*
X182645487Y-73108500D01*
X182651939Y-73107128D01*
X182651944Y-73107128D01*
X182738887Y-73088647D01*
X182832288Y-73068794D01*
X182838319Y-73066109D01*
X183000722Y-72993803D01*
X183000724Y-72993802D01*
X183006752Y-72991118D01*
X183161253Y-72878866D01*
X183289040Y-72736944D01*
X183384527Y-72571556D01*
X183443542Y-72389928D01*
X183445966Y-72366870D01*
X183462814Y-72206565D01*
X183463504Y-72200000D01*
X183463373Y-72198750D01*
X183482816Y-72132531D01*
X183536472Y-72086038D01*
X183606746Y-72075934D01*
X183671326Y-72105428D01*
X183682444Y-72116335D01*
X183738747Y-72178866D01*
X183893248Y-72291118D01*
X183899276Y-72293802D01*
X183899278Y-72293803D01*
X184048443Y-72360215D01*
X184067712Y-72368794D01*
X184136263Y-72383365D01*
X184248056Y-72407128D01*
X184248061Y-72407128D01*
X184254513Y-72408500D01*
X184445487Y-72408500D01*
X184451939Y-72407128D01*
X184451944Y-72407128D01*
X184563737Y-72383365D01*
X184632288Y-72368794D01*
X184651557Y-72360215D01*
X184800722Y-72293803D01*
X184800724Y-72293802D01*
X184806752Y-72291118D01*
X184893902Y-72227800D01*
X184941201Y-72193435D01*
X184961253Y-72178866D01*
X184965668Y-72173963D01*
X184970580Y-72169540D01*
X184971705Y-72170789D01*
X185025014Y-72137949D01*
X185058200Y-72133500D01*
X201470171Y-72133500D01*
X201538292Y-72153502D01*
X201584785Y-72207158D01*
X201594889Y-72277432D01*
X201565395Y-72342012D01*
X201559266Y-72348595D01*
X200193386Y-73714475D01*
X200131074Y-73748501D01*
X200104291Y-73751380D01*
X195082707Y-73751380D01*
X195008648Y-73727317D01*
X195002218Y-73722645D01*
X195002211Y-73722641D01*
X194996872Y-73718762D01*
X194990844Y-73716078D01*
X194990842Y-73716077D01*
X194828439Y-73643771D01*
X194828438Y-73643771D01*
X194822408Y-73641086D01*
X194729007Y-73621233D01*
X194642064Y-73602752D01*
X194642059Y-73602752D01*
X194635607Y-73601380D01*
X194444633Y-73601380D01*
X194438181Y-73602752D01*
X194438176Y-73602752D01*
X194351233Y-73621233D01*
X194257832Y-73641086D01*
X194251802Y-73643771D01*
X194251801Y-73643771D01*
X194089398Y-73716077D01*
X194089396Y-73716078D01*
X194083368Y-73718762D01*
X194078029Y-73722641D01*
X194078022Y-73722645D01*
X194071592Y-73727317D01*
X193997533Y-73751380D01*
X189649188Y-73751380D01*
X189630238Y-73749947D01*
X189616003Y-73747781D01*
X189615999Y-73747781D01*
X189608769Y-73746681D01*
X189601477Y-73747274D01*
X189601474Y-73747274D01*
X189556100Y-73750965D01*
X189545885Y-73751380D01*
X189537825Y-73751380D01*
X189524535Y-73752929D01*
X189509611Y-73754669D01*
X189505236Y-73755102D01*
X189439779Y-73760426D01*
X189439776Y-73760427D01*
X189432481Y-73761020D01*
X189425517Y-73763276D01*
X189419558Y-73764467D01*
X189413703Y-73765851D01*
X189406437Y-73766698D01*
X189337791Y-73791615D01*
X189333663Y-73793032D01*
X189271182Y-73813273D01*
X189271180Y-73813274D01*
X189264219Y-73815529D01*
X189257964Y-73819325D01*
X189252490Y-73821831D01*
X189247060Y-73824550D01*
X189240181Y-73827047D01*
X189234061Y-73831060D01*
X189234060Y-73831060D01*
X189179142Y-73867066D01*
X189175438Y-73869403D01*
X189113011Y-73907285D01*
X189104634Y-73914683D01*
X189104610Y-73914656D01*
X189101618Y-73917309D01*
X189098385Y-73920012D01*
X189092266Y-73924024D01*
X189087234Y-73929336D01*
X189038990Y-73980263D01*
X189036612Y-73982705D01*
X188917307Y-74102010D01*
X188854995Y-74136036D01*
X188784180Y-74130971D01*
X188727344Y-74088424D01*
X188708379Y-74051852D01*
X188686568Y-73984726D01*
X188684527Y-73978444D01*
X188589040Y-73813056D01*
X188572881Y-73795109D01*
X188465675Y-73676045D01*
X188465674Y-73676044D01*
X188461253Y-73671134D01*
X188306752Y-73558882D01*
X188300724Y-73556198D01*
X188300722Y-73556197D01*
X188138319Y-73483891D01*
X188138318Y-73483891D01*
X188132288Y-73481206D01*
X188038888Y-73461353D01*
X187951944Y-73442872D01*
X187951939Y-73442872D01*
X187945487Y-73441500D01*
X187754513Y-73441500D01*
X187748061Y-73442872D01*
X187748056Y-73442872D01*
X187661112Y-73461353D01*
X187567712Y-73481206D01*
X187561682Y-73483891D01*
X187561681Y-73483891D01*
X187399278Y-73556197D01*
X187399276Y-73556198D01*
X187393248Y-73558882D01*
X187387907Y-73562762D01*
X187387906Y-73562763D01*
X187277646Y-73642872D01*
X187238747Y-73671134D01*
X187234332Y-73676037D01*
X187229420Y-73680460D01*
X187228295Y-73679211D01*
X187174986Y-73712051D01*
X187141800Y-73716500D01*
X184978763Y-73716500D01*
X184967579Y-73715973D01*
X184960091Y-73714299D01*
X184952168Y-73714548D01*
X184892033Y-73716438D01*
X184888075Y-73716500D01*
X184860144Y-73716500D01*
X184856229Y-73716995D01*
X184856225Y-73716995D01*
X184856167Y-73717003D01*
X184856138Y-73717006D01*
X184844296Y-73717939D01*
X184800110Y-73719327D01*
X184788689Y-73722645D01*
X184780658Y-73724978D01*
X184761306Y-73728986D01*
X184754235Y-73729880D01*
X184741203Y-73731526D01*
X184733834Y-73734443D01*
X184733832Y-73734444D01*
X184700097Y-73747800D01*
X184688869Y-73751645D01*
X184646407Y-73763982D01*
X184639585Y-73768016D01*
X184639579Y-73768019D01*
X184628968Y-73774294D01*
X184611218Y-73782990D01*
X184599756Y-73787528D01*
X184599751Y-73787531D01*
X184592383Y-73790448D01*
X184585968Y-73795109D01*
X184556625Y-73816427D01*
X184546707Y-73822943D01*
X184528019Y-73833995D01*
X184508637Y-73845458D01*
X184494313Y-73859782D01*
X184479281Y-73872621D01*
X184462893Y-73884528D01*
X184444067Y-73907285D01*
X184434712Y-73918593D01*
X184426722Y-73927373D01*
X177107747Y-81246348D01*
X177099461Y-81253888D01*
X177092982Y-81258000D01*
X177087557Y-81263777D01*
X177046357Y-81307651D01*
X177043602Y-81310493D01*
X177023865Y-81330230D01*
X177021385Y-81333427D01*
X177013682Y-81342447D01*
X176983414Y-81374679D01*
X176979595Y-81381625D01*
X176979593Y-81381628D01*
X176973652Y-81392434D01*
X176962801Y-81408953D01*
X176950386Y-81424959D01*
X176947241Y-81432228D01*
X176947238Y-81432232D01*
X176932826Y-81465537D01*
X176927609Y-81476187D01*
X176906305Y-81514940D01*
X176904334Y-81522615D01*
X176904334Y-81522616D01*
X176901267Y-81534562D01*
X176894863Y-81553266D01*
X176886819Y-81571855D01*
X176885580Y-81579678D01*
X176885577Y-81579688D01*
X176879901Y-81615524D01*
X176877495Y-81627144D01*
X176866500Y-81669970D01*
X176866500Y-81690224D01*
X176864949Y-81709934D01*
X176861780Y-81729943D01*
X176862526Y-81737835D01*
X176865941Y-81773961D01*
X176866500Y-81785819D01*
X176866500Y-89008408D01*
X176846498Y-89076529D01*
X176829595Y-89097503D01*
X168621083Y-97306015D01*
X168558771Y-97340041D01*
X168487956Y-97334976D01*
X168438352Y-97301231D01*
X168411253Y-97271134D01*
X168401670Y-97264171D01*
X168361457Y-97234955D01*
X168318103Y-97178733D01*
X168312028Y-97107996D01*
X168345159Y-97045205D01*
X168384269Y-97017912D01*
X168550722Y-96943803D01*
X168550724Y-96943802D01*
X168556752Y-96941118D01*
X168584075Y-96921267D01*
X168612157Y-96900864D01*
X168711253Y-96828866D01*
X168719650Y-96819540D01*
X168834621Y-96691852D01*
X168834622Y-96691851D01*
X168839040Y-96686944D01*
X168934527Y-96521556D01*
X168993542Y-96339928D01*
X169002943Y-96250488D01*
X169012814Y-96156565D01*
X169013504Y-96150000D01*
X168994555Y-95969707D01*
X168994232Y-95966635D01*
X168994232Y-95966633D01*
X168993542Y-95960072D01*
X168934527Y-95778444D01*
X168927328Y-95765974D01*
X168897314Y-95713990D01*
X168839040Y-95613056D01*
X168822881Y-95595109D01*
X168715675Y-95476045D01*
X168715674Y-95476044D01*
X168711253Y-95471134D01*
X168556752Y-95358882D01*
X168550724Y-95356198D01*
X168550722Y-95356197D01*
X168388319Y-95283891D01*
X168388318Y-95283891D01*
X168382288Y-95281206D01*
X168288888Y-95261353D01*
X168201944Y-95242872D01*
X168201939Y-95242872D01*
X168195487Y-95241500D01*
X168004513Y-95241500D01*
X167998061Y-95242872D01*
X167998056Y-95242872D01*
X167911113Y-95261353D01*
X167817712Y-95281206D01*
X167811682Y-95283891D01*
X167811681Y-95283891D01*
X167649278Y-95356197D01*
X167649276Y-95356198D01*
X167643248Y-95358882D01*
X167637907Y-95362762D01*
X167637906Y-95362763D01*
X167527687Y-95442842D01*
X167488747Y-95471134D01*
X167484332Y-95476037D01*
X167479420Y-95480460D01*
X167478295Y-95479211D01*
X167424986Y-95512051D01*
X167391800Y-95516500D01*
X157910856Y-95516500D01*
X157842735Y-95496498D01*
X157796242Y-95442842D01*
X157786138Y-95372568D01*
X157791023Y-95351564D01*
X157841502Y-95196206D01*
X157843542Y-95189928D01*
X157850802Y-95120858D01*
X157854875Y-95082104D01*
X157860907Y-95024706D01*
X157887920Y-94959050D01*
X157897122Y-94948782D01*
X159225500Y-93620405D01*
X159287812Y-93586379D01*
X159314595Y-93583500D01*
X168191800Y-93583500D01*
X168259921Y-93603502D01*
X168279147Y-93619843D01*
X168279420Y-93619540D01*
X168284332Y-93623963D01*
X168288747Y-93628866D01*
X168443248Y-93741118D01*
X168449276Y-93743802D01*
X168449278Y-93743803D01*
X168611681Y-93816109D01*
X168617712Y-93818794D01*
X168711113Y-93838647D01*
X168798056Y-93857128D01*
X168798061Y-93857128D01*
X168804513Y-93858500D01*
X168995487Y-93858500D01*
X169001939Y-93857128D01*
X169001944Y-93857128D01*
X169088888Y-93838647D01*
X169182288Y-93818794D01*
X169188319Y-93816109D01*
X169350722Y-93743803D01*
X169350724Y-93743802D01*
X169356752Y-93741118D01*
X169511253Y-93628866D01*
X169534091Y-93603502D01*
X169634621Y-93491852D01*
X169634622Y-93491851D01*
X169639040Y-93486944D01*
X169734527Y-93321556D01*
X169793542Y-93139928D01*
X169807997Y-93002401D01*
X169812814Y-92956565D01*
X169813504Y-92950000D01*
X169802813Y-92848277D01*
X169794232Y-92766635D01*
X169794232Y-92766633D01*
X169793542Y-92760072D01*
X169734527Y-92578444D01*
X169639040Y-92413056D01*
X169622882Y-92395110D01*
X169515675Y-92276045D01*
X169515674Y-92276044D01*
X169511253Y-92271134D01*
X169356752Y-92158882D01*
X169350724Y-92156198D01*
X169350722Y-92156197D01*
X169188319Y-92083891D01*
X169188318Y-92083891D01*
X169182288Y-92081206D01*
X169088887Y-92061353D01*
X169001944Y-92042872D01*
X169001939Y-92042872D01*
X168995487Y-92041500D01*
X168804513Y-92041500D01*
X168798061Y-92042872D01*
X168798056Y-92042872D01*
X168711113Y-92061353D01*
X168617712Y-92081206D01*
X168611682Y-92083891D01*
X168611681Y-92083891D01*
X168449278Y-92156197D01*
X168449276Y-92156198D01*
X168443248Y-92158882D01*
X168288747Y-92271134D01*
X168284332Y-92276037D01*
X168279420Y-92280460D01*
X168278295Y-92279211D01*
X168224986Y-92312051D01*
X168191800Y-92316500D01*
X159078767Y-92316500D01*
X159067584Y-92315973D01*
X159060091Y-92314298D01*
X159052165Y-92314547D01*
X159052164Y-92314547D01*
X158992001Y-92316438D01*
X158988043Y-92316500D01*
X158960144Y-92316500D01*
X158956154Y-92317004D01*
X158944320Y-92317936D01*
X158900111Y-92319326D01*
X158892497Y-92321538D01*
X158892492Y-92321539D01*
X158880659Y-92324977D01*
X158861296Y-92328988D01*
X158841203Y-92331526D01*
X158833836Y-92334443D01*
X158833831Y-92334444D01*
X158800092Y-92347802D01*
X158788865Y-92351646D01*
X158746407Y-92363982D01*
X158739581Y-92368019D01*
X158728972Y-92374293D01*
X158711224Y-92382988D01*
X158692383Y-92390448D01*
X158685967Y-92395110D01*
X158685966Y-92395110D01*
X158656613Y-92416436D01*
X158646693Y-92422952D01*
X158615465Y-92441420D01*
X158615462Y-92441422D01*
X158608638Y-92445458D01*
X158594317Y-92459779D01*
X158579284Y-92472619D01*
X158562893Y-92484528D01*
X158557842Y-92490634D01*
X158534702Y-92518605D01*
X158526712Y-92527384D01*
X156999500Y-94054595D01*
X156937188Y-94088621D01*
X156910405Y-94091500D01*
X156854513Y-94091500D01*
X156848061Y-94092872D01*
X156848056Y-94092872D01*
X156761112Y-94111353D01*
X156667712Y-94131206D01*
X156661682Y-94133891D01*
X156661681Y-94133891D01*
X156499278Y-94206197D01*
X156499276Y-94206198D01*
X156493248Y-94208882D01*
X156338747Y-94321134D01*
X156334326Y-94326044D01*
X156334325Y-94326045D01*
X156215910Y-94457559D01*
X156210960Y-94463056D01*
X156115473Y-94628444D01*
X156056458Y-94810072D01*
X156055768Y-94816633D01*
X156055768Y-94816635D01*
X156047940Y-94891114D01*
X156036496Y-95000000D01*
X156037186Y-95006565D01*
X156049199Y-95120858D01*
X156056458Y-95189928D01*
X156058498Y-95196206D01*
X156108977Y-95351564D01*
X156111005Y-95422531D01*
X156074342Y-95483329D01*
X156010630Y-95514655D01*
X155989144Y-95516500D01*
X153863765Y-95516500D01*
X153852582Y-95515973D01*
X153845089Y-95514298D01*
X153837163Y-95514547D01*
X153837162Y-95514547D01*
X153777012Y-95516438D01*
X153773053Y-95516500D01*
X153745142Y-95516500D01*
X153741208Y-95516997D01*
X153741207Y-95516997D01*
X153741142Y-95517005D01*
X153729305Y-95517938D01*
X153697488Y-95518938D01*
X153693027Y-95519078D01*
X153685108Y-95519327D01*
X153667452Y-95524456D01*
X153665656Y-95524978D01*
X153646304Y-95528986D01*
X153639233Y-95529880D01*
X153626201Y-95531526D01*
X153618832Y-95534443D01*
X153618830Y-95534444D01*
X153585095Y-95547800D01*
X153573867Y-95551645D01*
X153531405Y-95563982D01*
X153524583Y-95568016D01*
X153524577Y-95568019D01*
X153513966Y-95574294D01*
X153496216Y-95582990D01*
X153484754Y-95587528D01*
X153484749Y-95587531D01*
X153477381Y-95590448D01*
X153470966Y-95595109D01*
X153441623Y-95616427D01*
X153431705Y-95622943D01*
X153413017Y-95633995D01*
X153393635Y-95645458D01*
X153379311Y-95659782D01*
X153364279Y-95672621D01*
X153347891Y-95684528D01*
X153319710Y-95718593D01*
X153311720Y-95727373D01*
X144282748Y-104756345D01*
X144274462Y-104763885D01*
X144267983Y-104767997D01*
X144262558Y-104773774D01*
X144221358Y-104817648D01*
X144218603Y-104820490D01*
X144198866Y-104840227D01*
X144196386Y-104843424D01*
X144188683Y-104852444D01*
X144158415Y-104884676D01*
X144154596Y-104891622D01*
X144154594Y-104891625D01*
X144148653Y-104902431D01*
X144137802Y-104918950D01*
X144125387Y-104934956D01*
X144122242Y-104942225D01*
X144122239Y-104942229D01*
X144107827Y-104975534D01*
X144102610Y-104986184D01*
X144081306Y-105024937D01*
X144079335Y-105032612D01*
X144079335Y-105032613D01*
X144076268Y-105044559D01*
X144069864Y-105063263D01*
X144061820Y-105081852D01*
X144060581Y-105089675D01*
X144060578Y-105089685D01*
X144054902Y-105125521D01*
X144052496Y-105137141D01*
X144047522Y-105156514D01*
X144041501Y-105179967D01*
X144041501Y-105200221D01*
X144039950Y-105219931D01*
X144036781Y-105239940D01*
X144037527Y-105247832D01*
X144040942Y-105283958D01*
X144041501Y-105295816D01*
X144041501Y-105760404D01*
X144021499Y-105828525D01*
X144004596Y-105849499D01*
X143121747Y-106732348D01*
X143113461Y-106739888D01*
X143106982Y-106744000D01*
X143101557Y-106749777D01*
X143060357Y-106793651D01*
X143057602Y-106796493D01*
X143037865Y-106816230D01*
X143035385Y-106819427D01*
X143027682Y-106828447D01*
X142997414Y-106860679D01*
X142993595Y-106867625D01*
X142993593Y-106867628D01*
X142987652Y-106878434D01*
X142976801Y-106894953D01*
X142964386Y-106910959D01*
X142961241Y-106918228D01*
X142961238Y-106918232D01*
X142946826Y-106951537D01*
X142941609Y-106962187D01*
X142920305Y-107000940D01*
X142918334Y-107008615D01*
X142918334Y-107008616D01*
X142915267Y-107020562D01*
X142908863Y-107039266D01*
X142900819Y-107057855D01*
X142899580Y-107065678D01*
X142899577Y-107065688D01*
X142893901Y-107101524D01*
X142891495Y-107113144D01*
X142888307Y-107125562D01*
X142880500Y-107155970D01*
X142880500Y-107176224D01*
X142878949Y-107195934D01*
X142875780Y-107215943D01*
X142876526Y-107223835D01*
X142879941Y-107259961D01*
X142880500Y-107271819D01*
X142880500Y-107474000D01*
X142860498Y-107542121D01*
X142806842Y-107588614D01*
X142754500Y-107600000D01*
X111177340Y-107600000D01*
X111109219Y-107579998D01*
X111062726Y-107526342D01*
X111051340Y-107474000D01*
X111051340Y-107183988D01*
X111052840Y-107164603D01*
X111055145Y-107149802D01*
X111055145Y-107149799D01*
X111056526Y-107140930D01*
X111054516Y-107125559D01*
X111053766Y-107100338D01*
X111054954Y-107083542D01*
X111066321Y-106922737D01*
X111068821Y-106905144D01*
X111111594Y-106706148D01*
X111116544Y-106689081D01*
X111186887Y-106498080D01*
X111194188Y-106481880D01*
X111290704Y-106302670D01*
X111300213Y-106287657D01*
X111420976Y-106123814D01*
X111432501Y-106110289D01*
X111518586Y-106022626D01*
X111575121Y-105965055D01*
X111588433Y-105953288D01*
X111593881Y-105949118D01*
X111724162Y-105849391D01*
X111740190Y-105839766D01*
X111746586Y-105835661D01*
X111754748Y-105831935D01*
X111761534Y-105826069D01*
X111761539Y-105826066D01*
X111797779Y-105794741D01*
X111802894Y-105790549D01*
X167254473Y-62729305D01*
X189258080Y-45642277D01*
X215337009Y-45642277D01*
X215362625Y-45910769D01*
X215363710Y-45915203D01*
X215363711Y-45915209D01*
X215425645Y-46168312D01*
X215426731Y-46172750D01*
X215527985Y-46422733D01*
X215664265Y-46655482D01*
X215667118Y-46659049D01*
X215784686Y-46806060D01*
X215832716Y-46866119D01*
X216029809Y-47050234D01*
X216251416Y-47203968D01*
X216255499Y-47205999D01*
X216255502Y-47206001D01*
X216371013Y-47263466D01*
X216492894Y-47324101D01*
X216497228Y-47325522D01*
X216497231Y-47325523D01*
X216744853Y-47406698D01*
X216744859Y-47406699D01*
X216749186Y-47408118D01*
X216753677Y-47408898D01*
X216753678Y-47408898D01*
X217011140Y-47453601D01*
X217011148Y-47453602D01*
X217014921Y-47454257D01*
X217018758Y-47454448D01*
X217098578Y-47458422D01*
X217098586Y-47458422D01*
X217100149Y-47458500D01*
X217268512Y-47458500D01*
X217270780Y-47458335D01*
X217270792Y-47458335D01*
X217401884Y-47448823D01*
X217469004Y-47443953D01*
X217473459Y-47442969D01*
X217473462Y-47442969D01*
X217727912Y-47386791D01*
X217727916Y-47386790D01*
X217732372Y-47385806D01*
X217858480Y-47338028D01*
X217980318Y-47291868D01*
X217980321Y-47291867D01*
X217984588Y-47290250D01*
X218220368Y-47159286D01*
X218434773Y-46995657D01*
X218623312Y-46802792D01*
X218782034Y-46584730D01*
X218865190Y-46426676D01*
X218905490Y-46350079D01*
X218905493Y-46350073D01*
X218907615Y-46346039D01*
X218970378Y-46168312D01*
X218995902Y-46096033D01*
X218995902Y-46096032D01*
X218997425Y-46091720D01*
X219049581Y-45827100D01*
X219058782Y-45642277D01*
X219062764Y-45562292D01*
X219062764Y-45562286D01*
X219062991Y-45557723D01*
X219037375Y-45289231D01*
X218992042Y-45103967D01*
X218974355Y-45031688D01*
X218973269Y-45027250D01*
X218872015Y-44777267D01*
X218735735Y-44544518D01*
X218617928Y-44397208D01*
X218570136Y-44337447D01*
X218570135Y-44337445D01*
X218567284Y-44333881D01*
X218370191Y-44149766D01*
X218148584Y-43996032D01*
X218144501Y-43994001D01*
X218144498Y-43993999D01*
X217979606Y-43911967D01*
X217907106Y-43875899D01*
X217902772Y-43874478D01*
X217902769Y-43874477D01*
X217655147Y-43793302D01*
X217655141Y-43793301D01*
X217650814Y-43791882D01*
X217646322Y-43791102D01*
X217388860Y-43746399D01*
X217388852Y-43746398D01*
X217385079Y-43745743D01*
X217373817Y-43745182D01*
X217301422Y-43741578D01*
X217301414Y-43741578D01*
X217299851Y-43741500D01*
X217131488Y-43741500D01*
X217129220Y-43741665D01*
X217129208Y-43741665D01*
X216998116Y-43751177D01*
X216930996Y-43756047D01*
X216926541Y-43757031D01*
X216926538Y-43757031D01*
X216672088Y-43813209D01*
X216672084Y-43813210D01*
X216667628Y-43814194D01*
X216541520Y-43861972D01*
X216419682Y-43908132D01*
X216419679Y-43908133D01*
X216415412Y-43909750D01*
X216179632Y-44040714D01*
X215965227Y-44204343D01*
X215776688Y-44397208D01*
X215617966Y-44615270D01*
X215588889Y-44670537D01*
X215494510Y-44849921D01*
X215494507Y-44849927D01*
X215492385Y-44853961D01*
X215490865Y-44858266D01*
X215490863Y-44858270D01*
X215404098Y-45103967D01*
X215402575Y-45108280D01*
X215350419Y-45372900D01*
X215350192Y-45377453D01*
X215350192Y-45377456D01*
X215340991Y-45562292D01*
X215337009Y-45642277D01*
X189258080Y-45642277D01*
X198616425Y-38375000D01*
X202075000Y-38375000D01*
X202137832Y-38456003D01*
X203675007Y-40437716D01*
X203775817Y-40567680D01*
X203943367Y-40437715D01*
X204009451Y-40411769D01*
X204079073Y-40425669D01*
X204120151Y-40460049D01*
X204199748Y-40562664D01*
X204364410Y-40774945D01*
X204375113Y-40766643D01*
X204375115Y-40766642D01*
X218548838Y-29772375D01*
X218563153Y-29761271D01*
X218390182Y-29538278D01*
X218318895Y-29446376D01*
X218292948Y-29380291D01*
X218306848Y-29310669D01*
X218341227Y-29269591D01*
X218438631Y-29194036D01*
X218452946Y-29182932D01*
X218444644Y-29172229D01*
X218444643Y-29172227D01*
X216763233Y-27004566D01*
X216752129Y-26990251D01*
X216741425Y-26998554D01*
X216640410Y-27076909D01*
X216574325Y-27102856D01*
X216504702Y-27088955D01*
X216463625Y-27054576D01*
X216413729Y-26990251D01*
X216285590Y-26825055D01*
X216274887Y-26833357D01*
X216274885Y-26833358D01*
X202314017Y-37662518D01*
X202086847Y-37838729D01*
X202095149Y-37849432D01*
X202095150Y-37849434D01*
X202264882Y-38068251D01*
X202290829Y-38134336D01*
X202276928Y-38203959D01*
X202242549Y-38245036D01*
X202075000Y-38375000D01*
X198616425Y-38375000D01*
X237362415Y-8286577D01*
X237378879Y-8275744D01*
X237399256Y-8264515D01*
X237405585Y-8258151D01*
X237405588Y-8258149D01*
X237410775Y-8252934D01*
X237429771Y-8237249D01*
X237567922Y-8144289D01*
X237582249Y-8135962D01*
X237754985Y-8050233D01*
X237770278Y-8043859D01*
X237952774Y-7981542D01*
X237968776Y-7977230D01*
X238157866Y-7939404D01*
X238174296Y-7937229D01*
X238333292Y-7926750D01*
X238356013Y-7927758D01*
X238359863Y-7927805D01*
X238368731Y-7929186D01*
X238377633Y-7928022D01*
X238377636Y-7928022D01*
X238400252Y-7925064D01*
X238416590Y-7924000D01*
X241466672Y-7924000D01*
X241486056Y-7925500D01*
G37*
G04 #@! TD.AperFunction*
G04 #@! TA.AperFunction,Conductor*
G36*
X167107528Y-98603502D02*
G01*
X167154021Y-98657158D01*
X167164125Y-98727432D01*
X167134631Y-98792012D01*
X167128502Y-98798595D01*
X166347502Y-99579595D01*
X166285190Y-99613621D01*
X166258407Y-99616500D01*
X163558200Y-99616500D01*
X163490079Y-99596498D01*
X163470853Y-99580157D01*
X163470580Y-99580460D01*
X163465668Y-99576037D01*
X163461253Y-99571134D01*
X163439671Y-99555454D01*
X163312094Y-99462763D01*
X163312093Y-99462762D01*
X163306752Y-99458882D01*
X163300724Y-99456198D01*
X163300722Y-99456197D01*
X163138319Y-99383891D01*
X163138318Y-99383891D01*
X163132288Y-99381206D01*
X163038888Y-99361353D01*
X162951944Y-99342872D01*
X162951939Y-99342872D01*
X162945487Y-99341500D01*
X162754513Y-99341500D01*
X162748061Y-99342872D01*
X162748056Y-99342872D01*
X162661113Y-99361353D01*
X162567712Y-99381206D01*
X162561682Y-99383891D01*
X162561681Y-99383891D01*
X162399278Y-99456197D01*
X162399276Y-99456198D01*
X162393248Y-99458882D01*
X162387907Y-99462762D01*
X162387906Y-99462763D01*
X162337843Y-99499136D01*
X162238747Y-99571134D01*
X162234326Y-99576044D01*
X162234325Y-99576045D01*
X162194697Y-99620057D01*
X162110960Y-99713056D01*
X162015473Y-99878444D01*
X161956458Y-100060072D01*
X161955768Y-100066633D01*
X161955768Y-100066635D01*
X161950044Y-100121097D01*
X161936496Y-100250000D01*
X161956458Y-100439928D01*
X162015473Y-100621556D01*
X162110960Y-100786944D01*
X162115378Y-100791851D01*
X162115379Y-100791852D01*
X162218329Y-100906190D01*
X162249047Y-100970197D01*
X162240282Y-101040651D01*
X162194819Y-101095182D01*
X162124693Y-101116500D01*
X153313765Y-101116500D01*
X153302582Y-101115973D01*
X153295089Y-101114298D01*
X153287163Y-101114547D01*
X153287162Y-101114547D01*
X153227012Y-101116438D01*
X153223053Y-101116500D01*
X153195142Y-101116500D01*
X153191208Y-101116997D01*
X153191207Y-101116997D01*
X153191142Y-101117005D01*
X153179305Y-101117938D01*
X153147488Y-101118938D01*
X153143027Y-101119078D01*
X153135108Y-101119327D01*
X153117452Y-101124456D01*
X153115656Y-101124978D01*
X153096304Y-101128986D01*
X153089233Y-101129880D01*
X153076201Y-101131526D01*
X153068832Y-101134443D01*
X153068830Y-101134444D01*
X153035095Y-101147800D01*
X153023867Y-101151645D01*
X152981405Y-101163982D01*
X152974583Y-101168016D01*
X152974577Y-101168019D01*
X152963966Y-101174294D01*
X152946216Y-101182990D01*
X152934754Y-101187528D01*
X152934749Y-101187531D01*
X152927381Y-101190448D01*
X152920966Y-101195109D01*
X152891623Y-101216427D01*
X152881705Y-101222943D01*
X152863017Y-101233995D01*
X152843635Y-101245458D01*
X152829311Y-101259782D01*
X152814279Y-101272621D01*
X152797891Y-101284528D01*
X152769710Y-101318593D01*
X152761720Y-101327373D01*
X148201747Y-105887346D01*
X148193461Y-105894886D01*
X148186982Y-105898998D01*
X148181557Y-105904775D01*
X148140357Y-105948649D01*
X148137602Y-105951491D01*
X148117865Y-105971228D01*
X148115385Y-105974425D01*
X148107682Y-105983445D01*
X148077414Y-106015677D01*
X148073595Y-106022623D01*
X148073593Y-106022626D01*
X148067652Y-106033432D01*
X148056801Y-106049951D01*
X148044386Y-106065957D01*
X148041241Y-106073226D01*
X148041238Y-106073230D01*
X148026826Y-106106535D01*
X148021609Y-106117185D01*
X148000305Y-106155938D01*
X147995707Y-106173848D01*
X147995267Y-106175560D01*
X147988863Y-106194264D01*
X147980819Y-106212853D01*
X147979580Y-106220676D01*
X147979577Y-106220686D01*
X147973901Y-106256522D01*
X147971495Y-106268142D01*
X147965770Y-106290441D01*
X147960500Y-106310968D01*
X147960500Y-106331222D01*
X147958949Y-106350932D01*
X147955780Y-106370941D01*
X147956526Y-106378833D01*
X147959941Y-106414959D01*
X147960500Y-106426817D01*
X147960500Y-107474000D01*
X147940498Y-107542121D01*
X147886842Y-107588614D01*
X147834500Y-107600000D01*
X144350094Y-107600000D01*
X144281973Y-107579998D01*
X144235480Y-107526342D01*
X144225376Y-107456068D01*
X144254870Y-107391488D01*
X144260999Y-107384905D01*
X145067248Y-106578656D01*
X145075538Y-106571112D01*
X145082019Y-106566999D01*
X145128660Y-106517331D01*
X145131414Y-106514490D01*
X145151135Y-106494769D01*
X145153613Y-106491574D01*
X145161319Y-106482552D01*
X145186159Y-106456100D01*
X145191587Y-106450320D01*
X145198672Y-106437433D01*
X145201347Y-106432567D01*
X145212200Y-106416044D01*
X145219754Y-106406305D01*
X145224614Y-106400040D01*
X145242177Y-106359456D01*
X145247384Y-106348826D01*
X145268696Y-106310059D01*
X145270667Y-106302382D01*
X145270669Y-106302377D01*
X145273733Y-106290441D01*
X145280139Y-106271729D01*
X145281692Y-106268142D01*
X145288182Y-106253144D01*
X145294462Y-106213498D01*
X145295098Y-106209480D01*
X145297505Y-106197859D01*
X145306529Y-106162710D01*
X145306529Y-106162709D01*
X145308501Y-106155029D01*
X145308501Y-106134768D01*
X145310052Y-106115057D01*
X145311980Y-106102884D01*
X145313220Y-106095056D01*
X145309060Y-106051045D01*
X145308501Y-106039188D01*
X145308501Y-105574591D01*
X145328503Y-105506470D01*
X145345406Y-105485496D01*
X146854261Y-103976641D01*
X146916573Y-103942615D01*
X146987388Y-103947680D01*
X147044224Y-103990227D01*
X147052474Y-104002734D01*
X147129960Y-104136944D01*
X147134378Y-104141851D01*
X147134379Y-104141852D01*
X147225679Y-104243251D01*
X147257747Y-104278866D01*
X147412248Y-104391118D01*
X147418276Y-104393802D01*
X147418278Y-104393803D01*
X147580681Y-104466109D01*
X147586712Y-104468794D01*
X147680113Y-104488647D01*
X147767056Y-104507128D01*
X147767061Y-104507128D01*
X147773513Y-104508500D01*
X147964487Y-104508500D01*
X147970939Y-104507128D01*
X147970944Y-104507128D01*
X148057887Y-104488647D01*
X148151288Y-104468794D01*
X148157319Y-104466109D01*
X148319722Y-104393803D01*
X148319724Y-104393802D01*
X148325752Y-104391118D01*
X148480253Y-104278866D01*
X148512321Y-104243251D01*
X148603621Y-104141852D01*
X148603622Y-104141851D01*
X148608040Y-104136944D01*
X148703527Y-103971556D01*
X148762542Y-103789928D01*
X148779907Y-103624706D01*
X148806920Y-103559050D01*
X148816122Y-103548782D01*
X153744499Y-98620405D01*
X153806811Y-98586379D01*
X153833594Y-98583500D01*
X167039407Y-98583500D01*
X167107528Y-98603502D01*
G37*
G04 #@! TD.AperFunction*
G04 #@! TA.AperFunction,Conductor*
G36*
X173278532Y-97709586D02*
G01*
X173335368Y-97752133D01*
X173360179Y-97818653D01*
X173360500Y-97827642D01*
X173360500Y-107474000D01*
X173340498Y-107542121D01*
X173286842Y-107588614D01*
X173234500Y-107600000D01*
X154433500Y-107600000D01*
X154365379Y-107579998D01*
X154318886Y-107526342D01*
X154307500Y-107474000D01*
X154307500Y-106675592D01*
X154327502Y-106607471D01*
X154344405Y-106586497D01*
X156110497Y-104820406D01*
X156172809Y-104786380D01*
X156199592Y-104783501D01*
X161429072Y-104783501D01*
X161497193Y-104803503D01*
X161543686Y-104857159D01*
X161548905Y-104870564D01*
X161565473Y-104921556D01*
X161568776Y-104927278D01*
X161568777Y-104927279D01*
X161579019Y-104945019D01*
X161660960Y-105086944D01*
X161665378Y-105091851D01*
X161665379Y-105091852D01*
X161766329Y-105203968D01*
X161788747Y-105228866D01*
X161880895Y-105295816D01*
X161917027Y-105322067D01*
X161943248Y-105341118D01*
X161949276Y-105343802D01*
X161949278Y-105343803D01*
X162093733Y-105408118D01*
X162117712Y-105418794D01*
X162211113Y-105438647D01*
X162298056Y-105457128D01*
X162298061Y-105457128D01*
X162304513Y-105458500D01*
X162495487Y-105458500D01*
X162501939Y-105457128D01*
X162501944Y-105457128D01*
X162588887Y-105438647D01*
X162682288Y-105418794D01*
X162706267Y-105408118D01*
X162850722Y-105343803D01*
X162850724Y-105343802D01*
X162856752Y-105341118D01*
X162882974Y-105322067D01*
X162919105Y-105295816D01*
X163011253Y-105228866D01*
X163033671Y-105203968D01*
X163134621Y-105091852D01*
X163134622Y-105091851D01*
X163139040Y-105086944D01*
X163220981Y-104945019D01*
X163231223Y-104927279D01*
X163231224Y-104927278D01*
X163234527Y-104921556D01*
X163293542Y-104739928D01*
X163301021Y-104668774D01*
X163312814Y-104556565D01*
X163313504Y-104550000D01*
X163293542Y-104360072D01*
X163257269Y-104248436D01*
X163255241Y-104177469D01*
X163291904Y-104116671D01*
X163355616Y-104085345D01*
X163377102Y-104083500D01*
X166459281Y-104083500D01*
X166470464Y-104084027D01*
X166477957Y-104085702D01*
X166485883Y-104085453D01*
X166485884Y-104085453D01*
X166546034Y-104083562D01*
X166549993Y-104083500D01*
X166577904Y-104083500D01*
X166581839Y-104083003D01*
X166581904Y-104082995D01*
X166593741Y-104082062D01*
X166625999Y-104081048D01*
X166630018Y-104080922D01*
X166637937Y-104080673D01*
X166657391Y-104075021D01*
X166676748Y-104071013D01*
X166688978Y-104069468D01*
X166688979Y-104069468D01*
X166696845Y-104068474D01*
X166704216Y-104065555D01*
X166704218Y-104065555D01*
X166737960Y-104052196D01*
X166749190Y-104048351D01*
X166784031Y-104038229D01*
X166784032Y-104038229D01*
X166791641Y-104036018D01*
X166798460Y-104031985D01*
X166798465Y-104031983D01*
X166809076Y-104025707D01*
X166826824Y-104017012D01*
X166845665Y-104009552D01*
X166881435Y-103983564D01*
X166891355Y-103977048D01*
X166922583Y-103958580D01*
X166922586Y-103958578D01*
X166929410Y-103954542D01*
X166943731Y-103940221D01*
X166958765Y-103927380D01*
X166968742Y-103920131D01*
X166975155Y-103915472D01*
X167003346Y-103881395D01*
X167011336Y-103872616D01*
X173145405Y-97738547D01*
X173207717Y-97704521D01*
X173278532Y-97709586D01*
G37*
G04 #@! TD.AperFunction*
G04 #@! TA.AperFunction,Conductor*
G36*
X202759533Y-52517314D02*
G01*
X202816369Y-52559861D01*
X202841180Y-52626381D01*
X202841501Y-52635370D01*
X202841501Y-69938040D01*
X202821499Y-70006161D01*
X202767843Y-70052654D01*
X202715501Y-70064040D01*
X202654513Y-70064040D01*
X202648061Y-70065412D01*
X202648056Y-70065412D01*
X202561112Y-70083893D01*
X202467712Y-70103746D01*
X202461682Y-70106431D01*
X202461681Y-70106431D01*
X202299278Y-70178737D01*
X202299276Y-70178738D01*
X202293248Y-70181422D01*
X202138747Y-70293674D01*
X202010960Y-70435596D01*
X201915473Y-70600984D01*
X201913431Y-70607269D01*
X201857490Y-70779436D01*
X201817416Y-70838042D01*
X201752020Y-70865679D01*
X201737657Y-70866500D01*
X185058200Y-70866500D01*
X184990079Y-70846498D01*
X184970853Y-70830157D01*
X184970580Y-70830460D01*
X184965668Y-70826037D01*
X184961253Y-70821134D01*
X184806752Y-70708882D01*
X184736932Y-70677796D01*
X184682837Y-70631818D01*
X184662187Y-70563891D01*
X184681539Y-70495583D01*
X184699086Y-70473595D01*
X202626406Y-52546275D01*
X202688718Y-52512249D01*
X202759533Y-52517314D01*
G37*
G04 #@! TD.AperFunction*
G04 #@! TA.AperFunction,Conductor*
G36*
X221551750Y-51278502D02*
G01*
X221572724Y-51295405D01*
X222004595Y-51727276D01*
X222038621Y-51789588D01*
X222041500Y-51816371D01*
X222041500Y-66103629D01*
X222021498Y-66171750D01*
X222004595Y-66192724D01*
X220013448Y-68183871D01*
X219951136Y-68217897D01*
X219880321Y-68212832D01*
X219823485Y-68170285D01*
X219798777Y-68105101D01*
X219795276Y-68062521D01*
X219794852Y-68057361D01*
X219740431Y-67840702D01*
X219651354Y-67635840D01*
X219530014Y-67448277D01*
X219379670Y-67283051D01*
X219375619Y-67279852D01*
X219375615Y-67279848D01*
X219208414Y-67147800D01*
X219208410Y-67147798D01*
X219204359Y-67144598D01*
X219163053Y-67121796D01*
X219113084Y-67071364D01*
X219098312Y-67001921D01*
X219123428Y-66935516D01*
X219150780Y-66908909D01*
X219215474Y-66862763D01*
X219329860Y-66781173D01*
X219374999Y-66736192D01*
X219411209Y-66700107D01*
X219488096Y-66623489D01*
X219541446Y-66549245D01*
X219615435Y-66446277D01*
X219618453Y-66442077D01*
X219631995Y-66414678D01*
X219715136Y-66246453D01*
X219715137Y-66246451D01*
X219717430Y-66241811D01*
X219782370Y-66028069D01*
X219811529Y-65806590D01*
X219813156Y-65740000D01*
X219794852Y-65517361D01*
X219740431Y-65300702D01*
X219651354Y-65095840D01*
X219530014Y-64908277D01*
X219379670Y-64743051D01*
X219375619Y-64739852D01*
X219375615Y-64739848D01*
X219208414Y-64607800D01*
X219208410Y-64607798D01*
X219204359Y-64604598D01*
X219163053Y-64581796D01*
X219113084Y-64531364D01*
X219098312Y-64461921D01*
X219123428Y-64395516D01*
X219150780Y-64368909D01*
X219194603Y-64337650D01*
X219329860Y-64241173D01*
X219488096Y-64083489D01*
X219547594Y-64000689D01*
X219615435Y-63906277D01*
X219618453Y-63902077D01*
X219639320Y-63859857D01*
X219715136Y-63706453D01*
X219715137Y-63706451D01*
X219717430Y-63701811D01*
X219782370Y-63488069D01*
X219811529Y-63266590D01*
X219813156Y-63200000D01*
X219794852Y-62977361D01*
X219740431Y-62760702D01*
X219651354Y-62555840D01*
X219530014Y-62368277D01*
X219379670Y-62203051D01*
X219375619Y-62199852D01*
X219375615Y-62199848D01*
X219208414Y-62067800D01*
X219208410Y-62067798D01*
X219204359Y-62064598D01*
X219162569Y-62041529D01*
X219112598Y-61991097D01*
X219097826Y-61921654D01*
X219122942Y-61855248D01*
X219150294Y-61828641D01*
X219325328Y-61703792D01*
X219333200Y-61697139D01*
X219484052Y-61546812D01*
X219490730Y-61538965D01*
X219615003Y-61366020D01*
X219620313Y-61357183D01*
X219714670Y-61166267D01*
X219718469Y-61156672D01*
X219780377Y-60952910D01*
X219782555Y-60942837D01*
X219783986Y-60931962D01*
X219781775Y-60917778D01*
X219768617Y-60914000D01*
X218322000Y-60914000D01*
X218253879Y-60893998D01*
X218207386Y-60840342D01*
X218196000Y-60788000D01*
X218196000Y-60532000D01*
X218216002Y-60463879D01*
X218269658Y-60417386D01*
X218322000Y-60406000D01*
X219768344Y-60406000D01*
X219781875Y-60402027D01*
X219783180Y-60392947D01*
X219741214Y-60225875D01*
X219737894Y-60216124D01*
X219652972Y-60020814D01*
X219648105Y-60011739D01*
X219532426Y-59832926D01*
X219526136Y-59824757D01*
X219382806Y-59667240D01*
X219375273Y-59660215D01*
X219208139Y-59528222D01*
X219199556Y-59522520D01*
X219162602Y-59502120D01*
X219112631Y-59451687D01*
X219097859Y-59382245D01*
X219122975Y-59315839D01*
X219150327Y-59289232D01*
X219173797Y-59272491D01*
X219329860Y-59161173D01*
X219488096Y-59003489D01*
X219547594Y-58920689D01*
X219615435Y-58826277D01*
X219618453Y-58822077D01*
X219639320Y-58779857D01*
X219715136Y-58626453D01*
X219715137Y-58626451D01*
X219717430Y-58621811D01*
X219782370Y-58408069D01*
X219811529Y-58186590D01*
X219813156Y-58120000D01*
X219794852Y-57897361D01*
X219740431Y-57680702D01*
X219651354Y-57475840D01*
X219530014Y-57288277D01*
X219379670Y-57123051D01*
X219375619Y-57119852D01*
X219375615Y-57119848D01*
X219208414Y-56987800D01*
X219208410Y-56987798D01*
X219204359Y-56984598D01*
X219163053Y-56961796D01*
X219113084Y-56911364D01*
X219098312Y-56841921D01*
X219123428Y-56775516D01*
X219150780Y-56748909D01*
X219194603Y-56717650D01*
X219329860Y-56621173D01*
X219488096Y-56463489D01*
X219618453Y-56282077D01*
X219631694Y-56255287D01*
X219715136Y-56086453D01*
X219715137Y-56086451D01*
X219717430Y-56081811D01*
X219773659Y-55896740D01*
X219780865Y-55873023D01*
X219780865Y-55873021D01*
X219782370Y-55868069D01*
X219811529Y-55646590D01*
X219813156Y-55580000D01*
X219794852Y-55357361D01*
X219740431Y-55140702D01*
X219651354Y-54935840D01*
X219530014Y-54748277D01*
X219379670Y-54583051D01*
X219375619Y-54579852D01*
X219375615Y-54579848D01*
X219208414Y-54447800D01*
X219208410Y-54447798D01*
X219204359Y-54444598D01*
X219163053Y-54421796D01*
X219113084Y-54371364D01*
X219098312Y-54301921D01*
X219123428Y-54235516D01*
X219150780Y-54208909D01*
X219194603Y-54177650D01*
X219329860Y-54081173D01*
X219488096Y-53923489D01*
X219618453Y-53742077D01*
X219622395Y-53734102D01*
X219715136Y-53546453D01*
X219715137Y-53546451D01*
X219717430Y-53541811D01*
X219782370Y-53328069D01*
X219811529Y-53106590D01*
X219813156Y-53040000D01*
X219794852Y-52817361D01*
X219740431Y-52600702D01*
X219651354Y-52395840D01*
X219530014Y-52208277D01*
X219526532Y-52204450D01*
X219382798Y-52046488D01*
X219351746Y-51982642D01*
X219360141Y-51912143D01*
X219405317Y-51857375D01*
X219431761Y-51843706D01*
X219538297Y-51803767D01*
X219546705Y-51800615D01*
X219663261Y-51713261D01*
X219750615Y-51596705D01*
X219801745Y-51460316D01*
X219808500Y-51398134D01*
X219808500Y-51384500D01*
X219828502Y-51316379D01*
X219882158Y-51269886D01*
X219934500Y-51258500D01*
X221483629Y-51258500D01*
X221551750Y-51278502D01*
G37*
G04 #@! TD.AperFunction*
G04 #@! TA.AperFunction,Conductor*
G36*
X214552747Y-49978501D02*
G01*
X214599240Y-50032157D01*
X214609344Y-50102431D01*
X214606043Y-50118171D01*
X214570989Y-50244570D01*
X214547251Y-50466695D01*
X214560110Y-50689715D01*
X214561247Y-50694761D01*
X214561248Y-50694767D01*
X214584059Y-50795982D01*
X214609222Y-50907639D01*
X214630544Y-50960148D01*
X214688120Y-51101942D01*
X214693266Y-51114616D01*
X214809987Y-51305088D01*
X214956250Y-51473938D01*
X215104124Y-51596705D01*
X215105985Y-51598250D01*
X215145620Y-51657152D01*
X215151500Y-51695194D01*
X215151500Y-51847655D01*
X215131498Y-51915776D01*
X215101153Y-51948415D01*
X215055567Y-51982642D01*
X215004965Y-52020635D01*
X214850629Y-52182138D01*
X214724743Y-52366680D01*
X214700190Y-52419575D01*
X214635072Y-52559861D01*
X214630688Y-52569305D01*
X214570989Y-52784570D01*
X214547251Y-53006695D01*
X214547548Y-53011848D01*
X214547548Y-53011851D01*
X214548180Y-53022814D01*
X214560110Y-53229715D01*
X214561247Y-53234760D01*
X214561966Y-53239877D01*
X214560518Y-53240081D01*
X214556398Y-53304274D01*
X214527119Y-53350200D01*
X204573596Y-63303723D01*
X204511284Y-63337749D01*
X204440469Y-63332684D01*
X204383633Y-63290137D01*
X204358822Y-63223617D01*
X204358501Y-63214628D01*
X204358501Y-52167070D01*
X204359934Y-52148119D01*
X204362100Y-52133884D01*
X204362100Y-52133882D01*
X204363200Y-52126652D01*
X204358916Y-52073983D01*
X204358501Y-52063768D01*
X204358501Y-52055708D01*
X204355212Y-52027494D01*
X204354779Y-52023119D01*
X204349455Y-51957662D01*
X204349454Y-51957659D01*
X204348861Y-51950364D01*
X204346605Y-51943400D01*
X204345414Y-51937441D01*
X204344030Y-51931586D01*
X204343183Y-51924320D01*
X204318266Y-51855674D01*
X204316849Y-51851546D01*
X204296608Y-51789065D01*
X204296607Y-51789063D01*
X204294352Y-51782102D01*
X204290556Y-51775847D01*
X204288050Y-51770373D01*
X204285331Y-51764943D01*
X204282834Y-51758064D01*
X204242810Y-51697017D01*
X204240473Y-51693313D01*
X204205510Y-51635694D01*
X204205506Y-51635689D01*
X204202596Y-51630893D01*
X204195198Y-51622517D01*
X204195224Y-51622494D01*
X204192575Y-51619504D01*
X204189867Y-51616265D01*
X204185857Y-51610149D01*
X204180550Y-51605122D01*
X204180547Y-51605118D01*
X204129618Y-51556873D01*
X204127176Y-51554495D01*
X203961776Y-51389095D01*
X203927750Y-51326783D01*
X203932815Y-51255968D01*
X203961776Y-51210905D01*
X205177277Y-49995404D01*
X205239589Y-49961378D01*
X205266372Y-49958499D01*
X214484626Y-49958499D01*
X214552747Y-49978501D01*
G37*
G04 #@! TD.AperFunction*
M02*
