G04 #@! TF.GenerationSoftware,KiCad,Pcbnew,6.99.0-dde629330d~145~ubuntu21.04.1*
G04 #@! TF.CreationDate,2022-01-09T07:55:56+00:00*
G04 #@! TF.ProjectId,videoslotadapter,76696465-6f73-46c6-9f74-616461707465,rev?*
G04 #@! TF.SameCoordinates,Original*
G04 #@! TF.FileFunction,Legend,Top*
G04 #@! TF.FilePolarity,Positive*
%FSLAX46Y46*%
G04 Gerber Fmt 4.6, Leading zero omitted, Abs format (unit mm)*
G04 Created by KiCad (PCBNEW 6.99.0-dde629330d~145~ubuntu21.04.1) date 2022-01-09 07:55:56*
%MOMM*%
%LPD*%
G01*
G04 APERTURE LIST*
%ADD10C,0.100000*%
%ADD11C,0.150000*%
%ADD12C,0.120000*%
G04 APERTURE END LIST*
D10*
X240030000Y-74930000D02*
X238760000Y-76200000D01*
X238760000Y-76200000D02*
X238760000Y-73660000D01*
X238760000Y-73660000D02*
X240030000Y-74930000D01*
G36*
X240030000Y-74930000D02*
G01*
X238760000Y-76200000D01*
X238760000Y-73660000D01*
X240030000Y-74930000D01*
G37*
X240030000Y-74930000D02*
X238760000Y-76200000D01*
X238760000Y-73660000D01*
X240030000Y-74930000D01*
X238760000Y-75438000D02*
X233680000Y-75438000D01*
X233680000Y-75438000D02*
X233680000Y-74422000D01*
X233680000Y-74422000D02*
X238760000Y-74422000D01*
X238760000Y-74422000D02*
X238760000Y-75438000D01*
G36*
X238760000Y-75438000D02*
G01*
X233680000Y-75438000D01*
X233680000Y-74422000D01*
X238760000Y-74422000D01*
X238760000Y-75438000D01*
G37*
X238760000Y-75438000D02*
X233680000Y-75438000D01*
X233680000Y-74422000D01*
X238760000Y-74422000D01*
X238760000Y-75438000D01*
D11*
X229666290Y-71413380D02*
X230237718Y-71413380D01*
X229952004Y-72413380D02*
X229952004Y-71413380D01*
X230816289Y-71413380D02*
X231006765Y-71413380D01*
X231102003Y-71461000D01*
X231197241Y-71556238D01*
X231244860Y-71746714D01*
X231244860Y-72080047D01*
X231197241Y-72270523D01*
X231102003Y-72365761D01*
X231006765Y-72413380D01*
X230816289Y-72413380D01*
X230721051Y-72365761D01*
X230625813Y-72270523D01*
X230578194Y-72080047D01*
X230578194Y-71746714D01*
X230625813Y-71556238D01*
X230721051Y-71461000D01*
X230816289Y-71413380D01*
X231537717Y-71413380D02*
X231775812Y-72413380D01*
X231966288Y-71699095D01*
X232156764Y-72413380D01*
X232394860Y-71413380D01*
X232735336Y-72127666D02*
X233211526Y-72127666D01*
X232640098Y-72413380D02*
X232973431Y-71413380D01*
X233306764Y-72413380D01*
X234266287Y-72413380D02*
X233932954Y-71937190D01*
X233694859Y-72413380D02*
X233694859Y-71413380D01*
X234075811Y-71413380D01*
X234171049Y-71461000D01*
X234218668Y-71508619D01*
X234266287Y-71603857D01*
X234266287Y-71746714D01*
X234218668Y-71841952D01*
X234171049Y-71889571D01*
X234075811Y-71937190D01*
X233694859Y-71937190D01*
X234654382Y-72413380D02*
X234654382Y-71413380D01*
X234892477Y-71413380D01*
X235035334Y-71461000D01*
X235130572Y-71556238D01*
X235178191Y-71651476D01*
X235225810Y-71841952D01*
X235225810Y-71984809D01*
X235178191Y-72175285D01*
X235130572Y-72270523D01*
X235035334Y-72365761D01*
X234892477Y-72413380D01*
X234654382Y-72413380D01*
X235566286Y-72365761D02*
X235709143Y-72413380D01*
X235947238Y-72413380D01*
X236042476Y-72365761D01*
X236090095Y-72318142D01*
X236137714Y-72222904D01*
X236137714Y-72127666D01*
X236090095Y-72032428D01*
X236042476Y-71984809D01*
X235947238Y-71937190D01*
X235756762Y-71889571D01*
X235661524Y-71841952D01*
X235613905Y-71794333D01*
X235566286Y-71699095D01*
X235566286Y-71603857D01*
X235613905Y-71508619D01*
X235661524Y-71461000D01*
X235756762Y-71413380D01*
X235994857Y-71413380D01*
X236137714Y-71461000D01*
X237697237Y-72413380D02*
X237363904Y-71937190D01*
X237125809Y-72413380D02*
X237125809Y-71413380D01*
X237506761Y-71413380D01*
X237601999Y-71461000D01*
X237649618Y-71508619D01*
X237697237Y-71603857D01*
X237697237Y-71746714D01*
X237649618Y-71841952D01*
X237601999Y-71889571D01*
X237506761Y-71937190D01*
X237125809Y-71937190D01*
X238085332Y-71889571D02*
X238418665Y-71889571D01*
X238561522Y-72413380D02*
X238085332Y-72413380D01*
X238085332Y-71413380D01*
X238561522Y-71413380D01*
X238901998Y-72127666D02*
X239378188Y-72127666D01*
X238806760Y-72413380D02*
X239140093Y-71413380D01*
X239473426Y-72413380D01*
X240432949Y-72413380D02*
X240099616Y-71937190D01*
X239861521Y-72413380D02*
X239861521Y-71413380D01*
X240242473Y-71413380D01*
X240337711Y-71461000D01*
X240385330Y-71508619D01*
X240432949Y-71603857D01*
X240432949Y-71746714D01*
X240385330Y-71841952D01*
X240337711Y-71889571D01*
X240242473Y-71937190D01*
X239861521Y-71937190D01*
X232156764Y-73033380D02*
X232347240Y-73033380D01*
X232442478Y-73081000D01*
X232537716Y-73176238D01*
X232585335Y-73366714D01*
X232585335Y-73700047D01*
X232537716Y-73890523D01*
X232442478Y-73985761D01*
X232347240Y-74033380D01*
X232156764Y-74033380D01*
X232061526Y-73985761D01*
X231966288Y-73890523D01*
X231918669Y-73700047D01*
X231918669Y-73366714D01*
X231966288Y-73176238D01*
X232061526Y-73081000D01*
X232156764Y-73033380D01*
X233306763Y-73509571D02*
X232973430Y-73509571D01*
X232973430Y-74033380D02*
X232973430Y-73033380D01*
X233449620Y-73033380D01*
X234390096Y-73747666D02*
X234866286Y-73747666D01*
X234294858Y-74033380D02*
X234628191Y-73033380D01*
X234961524Y-74033380D01*
X235349619Y-74033380D02*
X235349619Y-73033380D01*
X235682952Y-73747666D01*
X236016285Y-73033380D01*
X236016285Y-74033380D01*
X236404380Y-74033380D02*
X236404380Y-73033380D01*
X237316284Y-73081000D02*
X237221046Y-73033380D01*
X237078189Y-73033380D01*
X236935332Y-73081000D01*
X236840094Y-73176238D01*
X236792475Y-73271476D01*
X236744856Y-73461952D01*
X236744856Y-73604809D01*
X236792475Y-73795285D01*
X236840094Y-73890523D01*
X236935332Y-73985761D01*
X237078189Y-74033380D01*
X237173427Y-74033380D01*
X237316284Y-73985761D01*
X237363903Y-73938142D01*
X237363903Y-73604809D01*
X237173427Y-73604809D01*
X237704379Y-73747666D02*
X238180569Y-73747666D01*
X237609141Y-74033380D02*
X237942474Y-73033380D01*
X238275807Y-74033380D01*
D10*
X235327380Y-27448808D02*
X236136904Y-27448808D01*
X236232142Y-27401189D01*
X236279761Y-27353570D01*
X236327380Y-27258332D01*
X236327380Y-27067856D01*
X236279761Y-26972618D01*
X236232142Y-26924999D01*
X236136904Y-26877380D01*
X235327380Y-26877380D01*
X235660714Y-26489285D02*
X236660714Y-26489285D01*
X235708333Y-26489285D02*
X235660714Y-26394047D01*
X235660714Y-26203571D01*
X235708333Y-26108333D01*
X235755952Y-26060714D01*
X235851190Y-26013095D01*
X236136904Y-26013095D01*
X236232142Y-26060714D01*
X236279761Y-26108333D01*
X236327380Y-26203571D01*
X236327380Y-26394047D01*
X236279761Y-26489285D01*
X236279761Y-19044045D02*
X236327380Y-18901188D01*
X236327380Y-18663093D01*
X236279761Y-18567855D01*
X236232142Y-18520236D01*
X236136904Y-18472617D01*
X236041666Y-18472617D01*
X235946428Y-18520236D01*
X235898809Y-18567855D01*
X235851190Y-18663093D01*
X235803571Y-18853569D01*
X235755952Y-18948807D01*
X235708333Y-18996426D01*
X235613095Y-19044045D01*
X235517857Y-19044045D01*
X235422619Y-18996426D01*
X235375000Y-18948807D01*
X235327380Y-18853569D01*
X235327380Y-18615474D01*
X235375000Y-18472617D01*
X236279761Y-17703570D02*
X236327380Y-17798808D01*
X236327380Y-17989284D01*
X236279761Y-18084522D01*
X236184523Y-18132141D01*
X235803571Y-18132141D01*
X235708333Y-18084522D01*
X235660714Y-17989284D01*
X235660714Y-17798808D01*
X235708333Y-17703570D01*
X235803571Y-17655951D01*
X235898809Y-17655951D01*
X235994047Y-18132141D01*
X236327380Y-17124999D02*
X236279761Y-17220237D01*
X236184523Y-17267856D01*
X235327380Y-17267856D01*
X236279761Y-16355952D02*
X236327380Y-16451190D01*
X236327380Y-16641666D01*
X236279761Y-16736904D01*
X236184523Y-16784523D01*
X235803571Y-16784523D01*
X235708333Y-16736904D01*
X235660714Y-16641666D01*
X235660714Y-16451190D01*
X235708333Y-16355952D01*
X235803571Y-16308333D01*
X235898809Y-16308333D01*
X235994047Y-16784523D01*
X236279761Y-15491667D02*
X236327380Y-15586905D01*
X236327380Y-15777381D01*
X236279761Y-15872619D01*
X236232142Y-15920238D01*
X236136904Y-15967857D01*
X235851190Y-15967857D01*
X235755952Y-15920238D01*
X235708333Y-15872619D01*
X235660714Y-15777381D01*
X235660714Y-15586905D01*
X235708333Y-15491667D01*
X235660714Y-15246429D02*
X235660714Y-14865477D01*
X235327380Y-15103572D02*
X236184523Y-15103572D01*
X236279761Y-15055953D01*
X236327380Y-14960715D01*
X236327380Y-14865477D01*
D11*
X177304772Y-96701666D02*
X177780962Y-96701666D01*
X177209534Y-96987380D02*
X177542867Y-95987380D01*
X177876200Y-96987380D01*
X178264295Y-96987380D02*
X178264295Y-96320714D01*
X178264295Y-96415952D02*
X178311914Y-96368333D01*
X178407152Y-96320714D01*
X178550009Y-96320714D01*
X178645247Y-96368333D01*
X178692866Y-96463571D01*
X178692866Y-96987380D01*
X178692866Y-96463571D02*
X178740485Y-96368333D01*
X178835723Y-96320714D01*
X178978580Y-96320714D01*
X179073819Y-96368333D01*
X179121438Y-96463571D01*
X179121438Y-96987380D01*
X179509533Y-96987380D02*
X179509533Y-96320714D01*
X179509533Y-95987380D02*
X179461914Y-96035000D01*
X179509533Y-96082619D01*
X179557152Y-96035000D01*
X179509533Y-95987380D01*
X179509533Y-96082619D01*
X180373818Y-96320714D02*
X180373818Y-97130238D01*
X180326199Y-97225476D01*
X180278580Y-97273095D01*
X180183342Y-97320714D01*
X180040485Y-97320714D01*
X179945247Y-97273095D01*
X180373818Y-96939761D02*
X180278580Y-96987380D01*
X180088104Y-96987380D01*
X179992866Y-96939761D01*
X179945247Y-96892142D01*
X179897628Y-96796904D01*
X179897628Y-96511190D01*
X179945247Y-96415952D01*
X179992866Y-96368333D01*
X180088104Y-96320714D01*
X180278580Y-96320714D01*
X180373818Y-96368333D01*
X181190484Y-96987380D02*
X181190484Y-96463571D01*
X181142865Y-96368333D01*
X181047627Y-96320714D01*
X180857151Y-96320714D01*
X180761913Y-96368333D01*
X181190484Y-96939761D02*
X181095246Y-96987380D01*
X180857151Y-96987380D01*
X180761913Y-96939761D01*
X180714294Y-96844523D01*
X180714294Y-96749285D01*
X180761913Y-96654047D01*
X180857151Y-96606428D01*
X181095246Y-96606428D01*
X181190484Y-96558809D01*
X182083341Y-96320714D02*
X182321436Y-96987380D01*
X182559531Y-96320714D01*
X182947626Y-96987380D02*
X182947626Y-96320714D01*
X182947626Y-95987380D02*
X182900007Y-96035000D01*
X182947626Y-96082619D01*
X182995245Y-96035000D01*
X182947626Y-95987380D01*
X182947626Y-96082619D01*
X183811911Y-96987380D02*
X183811911Y-95987380D01*
X183811911Y-96939761D02*
X183716673Y-96987380D01*
X183526197Y-96987380D01*
X183430959Y-96939761D01*
X183383340Y-96892142D01*
X183335721Y-96796904D01*
X183335721Y-96511190D01*
X183383340Y-96415952D01*
X183430959Y-96368333D01*
X183526197Y-96320714D01*
X183716673Y-96320714D01*
X183811911Y-96368333D01*
X184580958Y-96939761D02*
X184485720Y-96987380D01*
X184295244Y-96987380D01*
X184200006Y-96939761D01*
X184152387Y-96844523D01*
X184152387Y-96463571D01*
X184200006Y-96368333D01*
X184295244Y-96320714D01*
X184485720Y-96320714D01*
X184580958Y-96368333D01*
X184628577Y-96463571D01*
X184628577Y-96558809D01*
X184152387Y-96654047D01*
X185159529Y-96987380D02*
X185064291Y-96939761D01*
X185016672Y-96892142D01*
X184969053Y-96796904D01*
X184969053Y-96511190D01*
X185016672Y-96415952D01*
X185064291Y-96368333D01*
X185159529Y-96320714D01*
X185302386Y-96320714D01*
X185397624Y-96368333D01*
X185445243Y-96415952D01*
X185492862Y-96511190D01*
X185492862Y-96796904D01*
X185445243Y-96892142D01*
X185397624Y-96939761D01*
X185302386Y-96987380D01*
X185159529Y-96987380D01*
X186433338Y-96939761D02*
X186528576Y-96987380D01*
X186719052Y-96987380D01*
X186814290Y-96939761D01*
X186861909Y-96844523D01*
X186861909Y-96796904D01*
X186814290Y-96701666D01*
X186719052Y-96654047D01*
X186576195Y-96654047D01*
X186480957Y-96606428D01*
X186433338Y-96511190D01*
X186433338Y-96463571D01*
X186480957Y-96368333D01*
X186576195Y-96320714D01*
X186719052Y-96320714D01*
X186814290Y-96368333D01*
X187392861Y-96987380D02*
X187297623Y-96939761D01*
X187250004Y-96844523D01*
X187250004Y-95987380D01*
X187923813Y-96987380D02*
X187828575Y-96939761D01*
X187780956Y-96892142D01*
X187733337Y-96796904D01*
X187733337Y-96511190D01*
X187780956Y-96415952D01*
X187828575Y-96368333D01*
X187923813Y-96320714D01*
X188066670Y-96320714D01*
X188161908Y-96368333D01*
X188209527Y-96415952D01*
X188257146Y-96511190D01*
X188257146Y-96796904D01*
X188209527Y-96892142D01*
X188161908Y-96939761D01*
X188066670Y-96987380D01*
X187923813Y-96987380D01*
X188502384Y-96320714D02*
X188883336Y-96320714D01*
X188645241Y-95987380D02*
X188645241Y-96844523D01*
X188692860Y-96939761D01*
X188788098Y-96987380D01*
X188883336Y-96987380D01*
X190442859Y-96987380D02*
X190109526Y-96511190D01*
X189871431Y-96987380D02*
X189871431Y-95987380D01*
X190252383Y-95987380D01*
X190347621Y-96035000D01*
X190395240Y-96082619D01*
X190442859Y-96177857D01*
X190442859Y-96320714D01*
X190395240Y-96415952D01*
X190347621Y-96463571D01*
X190252383Y-96511190D01*
X189871431Y-96511190D01*
X191354763Y-96035000D02*
X191259525Y-95987380D01*
X191116668Y-95987380D01*
X190973811Y-96035000D01*
X190878573Y-96130238D01*
X190830954Y-96225476D01*
X190783335Y-96415952D01*
X190783335Y-96558809D01*
X190830954Y-96749285D01*
X190878573Y-96844523D01*
X190973811Y-96939761D01*
X191116668Y-96987380D01*
X191211906Y-96987380D01*
X191354763Y-96939761D01*
X191402382Y-96892142D01*
X191402382Y-96558809D01*
X191211906Y-96558809D01*
X192123810Y-96463571D02*
X192266667Y-96511190D01*
X192314286Y-96558809D01*
X192361905Y-96654047D01*
X192361905Y-96796904D01*
X192314286Y-96892142D01*
X192266667Y-96939761D01*
X192171429Y-96987380D01*
X191790477Y-96987380D01*
X191790477Y-95987380D01*
X192123810Y-95987380D01*
X192219048Y-96035000D01*
X192266667Y-96082619D01*
X192314286Y-96177857D01*
X192314286Y-96273095D01*
X192266667Y-96368333D01*
X192219048Y-96415952D01*
X192123810Y-96463571D01*
X191790477Y-96463571D01*
X192607143Y-96320714D02*
X192988095Y-96320714D01*
X192750000Y-95987380D02*
X192750000Y-96844523D01*
X192797619Y-96939761D01*
X192892857Y-96987380D01*
X192988095Y-96987380D01*
X193519047Y-96987380D02*
X193423809Y-96939761D01*
X193376190Y-96892142D01*
X193328571Y-96796904D01*
X193328571Y-96511190D01*
X193376190Y-96415952D01*
X193423809Y-96368333D01*
X193519047Y-96320714D01*
X193661904Y-96320714D01*
X193757142Y-96368333D01*
X193804761Y-96415952D01*
X193852380Y-96511190D01*
X193852380Y-96796904D01*
X193804761Y-96892142D01*
X193757142Y-96939761D01*
X193661904Y-96987380D01*
X193519047Y-96987380D01*
X194240475Y-96987380D02*
X194240475Y-95987380D01*
X194240475Y-96463571D02*
X194811903Y-96463571D01*
X194811903Y-96987380D02*
X194811903Y-95987380D01*
X195199998Y-96987380D02*
X195199998Y-95987380D01*
X195438093Y-95987380D01*
X195580950Y-96035000D01*
X195676188Y-96130238D01*
X195723807Y-96225476D01*
X195771426Y-96415952D01*
X195771426Y-96558809D01*
X195723807Y-96749285D01*
X195676188Y-96844523D01*
X195580950Y-96939761D01*
X195438093Y-96987380D01*
X195199998Y-96987380D01*
X196159521Y-96987380D02*
X196159521Y-95987380D01*
X196492854Y-96701666D01*
X196826187Y-95987380D01*
X196826187Y-96987380D01*
X197214282Y-96987380D02*
X197214282Y-95987380D01*
X198773805Y-96892142D02*
X198726186Y-96939761D01*
X198583329Y-96987380D01*
X198488091Y-96987380D01*
X198345234Y-96939761D01*
X198249996Y-96844523D01*
X198202377Y-96749285D01*
X198154758Y-96558809D01*
X198154758Y-96415952D01*
X198202377Y-96225476D01*
X198249996Y-96130238D01*
X198345234Y-96035000D01*
X198488091Y-95987380D01*
X198583329Y-95987380D01*
X198726186Y-96035000D01*
X198773805Y-96082619D01*
X199161900Y-96987380D02*
X199161900Y-95987380D01*
X199542852Y-95987380D01*
X199638090Y-96035000D01*
X199685709Y-96082619D01*
X199733328Y-96177857D01*
X199733328Y-96320714D01*
X199685709Y-96415952D01*
X199638090Y-96463571D01*
X199542852Y-96511190D01*
X199161900Y-96511190D01*
X200597613Y-96987380D02*
X200121423Y-96987380D01*
X200121423Y-95987380D01*
X200985708Y-96987380D02*
X200985708Y-95987380D01*
X201223803Y-95987380D01*
X201366660Y-96035000D01*
X201461898Y-96130238D01*
X201509517Y-96225476D01*
X201557136Y-96415952D01*
X201557136Y-96558809D01*
X201509517Y-96749285D01*
X201461898Y-96844523D01*
X201366660Y-96939761D01*
X201223803Y-96987380D01*
X200985708Y-96987380D01*
X202449993Y-96320714D02*
X202688088Y-96987380D01*
X202926183Y-96320714D01*
X203266659Y-96082619D02*
X203314278Y-96035000D01*
X203409516Y-95987380D01*
X203647611Y-95987380D01*
X203742849Y-96035000D01*
X203790468Y-96082619D01*
X203838087Y-96177857D01*
X203838087Y-96273095D01*
X203790468Y-96415952D01*
X203219040Y-96987380D01*
X203838087Y-96987380D01*
X204226182Y-96892142D02*
X204273801Y-96939761D01*
X204226182Y-96987380D01*
X204178563Y-96939761D01*
X204226182Y-96892142D01*
X204226182Y-96987380D01*
X205185705Y-96987380D02*
X204614277Y-96987380D01*
X204899991Y-96987380D02*
X204899991Y-95987380D01*
X204804753Y-96130238D01*
X204709515Y-96225476D01*
X204614277Y-96273095D01*
X184972624Y-98988333D02*
X184925005Y-98940714D01*
X184829767Y-98797857D01*
X184782148Y-98702619D01*
X184734529Y-98559761D01*
X184686910Y-98321666D01*
X184686910Y-98131190D01*
X184734529Y-97893095D01*
X184782148Y-97750238D01*
X184829767Y-97655000D01*
X184925005Y-97512142D01*
X184972624Y-97464523D01*
X185932147Y-98512142D02*
X185884528Y-98559761D01*
X185741671Y-98607380D01*
X185646433Y-98607380D01*
X185503576Y-98559761D01*
X185408338Y-98464523D01*
X185360719Y-98369285D01*
X185313100Y-98178809D01*
X185313100Y-98035952D01*
X185360719Y-97845476D01*
X185408338Y-97750238D01*
X185503576Y-97655000D01*
X185646433Y-97607380D01*
X185741671Y-97607380D01*
X185884528Y-97655000D01*
X185932147Y-97702619D01*
X186225004Y-98988333D02*
X186272623Y-98940714D01*
X186367861Y-98797857D01*
X186415480Y-98702619D01*
X186463099Y-98559761D01*
X186510718Y-98321666D01*
X186510718Y-98131190D01*
X186463099Y-97893095D01*
X186415480Y-97750238D01*
X186367861Y-97655000D01*
X186272623Y-97512142D01*
X186225004Y-97464523D01*
X187451194Y-97702619D02*
X187498813Y-97655000D01*
X187594051Y-97607380D01*
X187832146Y-97607380D01*
X187927384Y-97655000D01*
X187975003Y-97702619D01*
X188022622Y-97797857D01*
X188022622Y-97893095D01*
X187975003Y-98035952D01*
X187403575Y-98607380D01*
X188022622Y-98607380D01*
X188601193Y-97607380D02*
X188696431Y-97607380D01*
X188791669Y-97655000D01*
X188839288Y-97702619D01*
X188886907Y-97797857D01*
X188934526Y-97988333D01*
X188934526Y-98226428D01*
X188886907Y-98416904D01*
X188839288Y-98512142D01*
X188791669Y-98559761D01*
X188696431Y-98607380D01*
X188601193Y-98607380D01*
X188505955Y-98559761D01*
X188458336Y-98512142D01*
X188410717Y-98416904D01*
X188363098Y-98226428D01*
X188363098Y-97988333D01*
X188410717Y-97797857D01*
X188458336Y-97702619D01*
X188505955Y-97655000D01*
X188601193Y-97607380D01*
X189275002Y-97702619D02*
X189322621Y-97655000D01*
X189417859Y-97607380D01*
X189655954Y-97607380D01*
X189751192Y-97655000D01*
X189798811Y-97702619D01*
X189846430Y-97797857D01*
X189846430Y-97893095D01*
X189798811Y-98035952D01*
X189227383Y-98607380D01*
X189846430Y-98607380D01*
X190758334Y-98607380D02*
X190186906Y-98607380D01*
X190472620Y-98607380D02*
X190472620Y-97607380D01*
X190377382Y-97750238D01*
X190282144Y-97845476D01*
X190186906Y-97893095D01*
X192222619Y-98607380D02*
X191746429Y-98607380D01*
X191746429Y-97607380D01*
X192610714Y-98607380D02*
X192610714Y-97940714D01*
X192610714Y-97607380D02*
X192563095Y-97655000D01*
X192610714Y-97702619D01*
X192658333Y-97655000D01*
X192610714Y-97607380D01*
X192610714Y-97702619D01*
X193046428Y-97940714D02*
X193046428Y-98607380D01*
X193046428Y-98035952D02*
X193094047Y-97988333D01*
X193189285Y-97940714D01*
X193332142Y-97940714D01*
X193427380Y-97988333D01*
X193474999Y-98083571D01*
X193474999Y-98607380D01*
X194291665Y-97940714D02*
X194291665Y-98607380D01*
X193863094Y-97940714D02*
X193863094Y-98464523D01*
X193910713Y-98559761D01*
X194005951Y-98607380D01*
X194148808Y-98607380D01*
X194244046Y-98559761D01*
X194291665Y-98512142D01*
X194584522Y-98607380D02*
X195108331Y-97940714D01*
X194584522Y-97940714D02*
X195108331Y-98607380D01*
X195782140Y-97607380D02*
X195782140Y-98321666D01*
X195734521Y-98464523D01*
X195639283Y-98559761D01*
X195496426Y-98607380D01*
X195401188Y-98607380D01*
X196551187Y-98559761D02*
X196455949Y-98607380D01*
X196265473Y-98607380D01*
X196170235Y-98559761D01*
X196122616Y-98464523D01*
X196122616Y-98083571D01*
X196170235Y-97988333D01*
X196265473Y-97940714D01*
X196455949Y-97940714D01*
X196551187Y-97988333D01*
X196598806Y-98083571D01*
X196598806Y-98178809D01*
X196122616Y-98274047D01*
X197415472Y-98607380D02*
X197415472Y-97607380D01*
X197415472Y-98559761D02*
X197320234Y-98607380D01*
X197129758Y-98607380D01*
X197034520Y-98559761D01*
X196986901Y-98512142D01*
X196939282Y-98416904D01*
X196939282Y-98131190D01*
X196986901Y-98035952D01*
X197034520Y-97988333D01*
X197129758Y-97940714D01*
X197320234Y-97940714D01*
X197415472Y-97988333D01*
X197803567Y-98607380D02*
X197803567Y-97940714D01*
X197803567Y-97607380D02*
X197755948Y-97655000D01*
X197803567Y-97702619D01*
X197851186Y-97655000D01*
X197803567Y-97607380D01*
X197803567Y-97702619D01*
X179533342Y-99703571D02*
X179676199Y-99751190D01*
X179723818Y-99798809D01*
X179771437Y-99894047D01*
X179771437Y-100036904D01*
X179723818Y-100132142D01*
X179676199Y-100179761D01*
X179580961Y-100227380D01*
X179200009Y-100227380D01*
X179200009Y-99227380D01*
X179533342Y-99227380D01*
X179628580Y-99275000D01*
X179676199Y-99322619D01*
X179723818Y-99417857D01*
X179723818Y-99513095D01*
X179676199Y-99608333D01*
X179628580Y-99655952D01*
X179533342Y-99703571D01*
X179200009Y-99703571D01*
X180588103Y-100227380D02*
X180588103Y-99703571D01*
X180540484Y-99608333D01*
X180445246Y-99560714D01*
X180254770Y-99560714D01*
X180159532Y-99608333D01*
X180588103Y-100179761D02*
X180492865Y-100227380D01*
X180254770Y-100227380D01*
X180159532Y-100179761D01*
X180111913Y-100084523D01*
X180111913Y-99989285D01*
X180159532Y-99894047D01*
X180254770Y-99846428D01*
X180492865Y-99846428D01*
X180588103Y-99798809D01*
X180928579Y-100179761D02*
X181023817Y-100227380D01*
X181214293Y-100227380D01*
X181309531Y-100179761D01*
X181357150Y-100084523D01*
X181357150Y-100036904D01*
X181309531Y-99941666D01*
X181214293Y-99894047D01*
X181071436Y-99894047D01*
X180976198Y-99846428D01*
X180928579Y-99751190D01*
X180928579Y-99703571D01*
X180976198Y-99608333D01*
X181071436Y-99560714D01*
X181214293Y-99560714D01*
X181309531Y-99608333D01*
X182126197Y-100179761D02*
X182030959Y-100227380D01*
X181840483Y-100227380D01*
X181745245Y-100179761D01*
X181697626Y-100084523D01*
X181697626Y-99703571D01*
X181745245Y-99608333D01*
X181840483Y-99560714D01*
X182030959Y-99560714D01*
X182126197Y-99608333D01*
X182173816Y-99703571D01*
X182173816Y-99798809D01*
X181697626Y-99894047D01*
X182990482Y-100227380D02*
X182990482Y-99227380D01*
X182990482Y-100179761D02*
X182895244Y-100227380D01*
X182704768Y-100227380D01*
X182609530Y-100179761D01*
X182561911Y-100132142D01*
X182514292Y-100036904D01*
X182514292Y-99751190D01*
X182561911Y-99655952D01*
X182609530Y-99608333D01*
X182704768Y-99560714D01*
X182895244Y-99560714D01*
X182990482Y-99608333D01*
X184121434Y-100227380D02*
X184026196Y-100179761D01*
X183978577Y-100132142D01*
X183930958Y-100036904D01*
X183930958Y-99751190D01*
X183978577Y-99655952D01*
X184026196Y-99608333D01*
X184121434Y-99560714D01*
X184264291Y-99560714D01*
X184359529Y-99608333D01*
X184407148Y-99655952D01*
X184454767Y-99751190D01*
X184454767Y-100036904D01*
X184407148Y-100132142D01*
X184359529Y-100179761D01*
X184264291Y-100227380D01*
X184121434Y-100227380D01*
X184842862Y-99560714D02*
X184842862Y-100227380D01*
X184842862Y-99655952D02*
X184890481Y-99608333D01*
X184985719Y-99560714D01*
X185128576Y-99560714D01*
X185223814Y-99608333D01*
X185271433Y-99703571D01*
X185271433Y-100227380D01*
X186164290Y-99560714D02*
X186354766Y-100227380D01*
X186545242Y-99751190D01*
X186735718Y-100227380D01*
X186926194Y-99560714D01*
X187457146Y-100227380D02*
X187361908Y-100179761D01*
X187314289Y-100132142D01*
X187266670Y-100036904D01*
X187266670Y-99751190D01*
X187314289Y-99655952D01*
X187361908Y-99608333D01*
X187457146Y-99560714D01*
X187600003Y-99560714D01*
X187695241Y-99608333D01*
X187742860Y-99655952D01*
X187790479Y-99751190D01*
X187790479Y-100036904D01*
X187742860Y-100132142D01*
X187695241Y-100179761D01*
X187600003Y-100227380D01*
X187457146Y-100227380D01*
X188178574Y-100227380D02*
X188178574Y-99560714D01*
X188178574Y-99751190D02*
X188226193Y-99655952D01*
X188273812Y-99608333D01*
X188369050Y-99560714D01*
X188464288Y-99560714D01*
X188852383Y-100227380D02*
X188852383Y-99227380D01*
X188947621Y-99846428D02*
X189233335Y-100227380D01*
X189233335Y-99560714D02*
X188852383Y-99941666D01*
X190221430Y-100227380D02*
X190221430Y-99227380D01*
X190221430Y-99608333D02*
X190316668Y-99560714D01*
X190507144Y-99560714D01*
X190602382Y-99608333D01*
X190650001Y-99655952D01*
X190697620Y-99751190D01*
X190697620Y-100036904D01*
X190650001Y-100132142D01*
X190602382Y-100179761D01*
X190507144Y-100227380D01*
X190316668Y-100227380D01*
X190221430Y-100179761D01*
X190990477Y-99560714D02*
X191228572Y-100227380D01*
X191466667Y-99560714D02*
X191228572Y-100227380D01*
X191133334Y-100465476D01*
X191085715Y-100513095D01*
X190990477Y-100560714D01*
X192454762Y-100227380D02*
X192454762Y-99227380D01*
X193271428Y-100227380D02*
X193271428Y-99703571D01*
X193223809Y-99608333D01*
X193128571Y-99560714D01*
X192938095Y-99560714D01*
X192842857Y-99608333D01*
X193271428Y-100179761D02*
X193176190Y-100227380D01*
X192938095Y-100227380D01*
X192842857Y-100179761D01*
X192795238Y-100084523D01*
X192795238Y-99989285D01*
X192842857Y-99894047D01*
X192938095Y-99846428D01*
X193176190Y-99846428D01*
X193271428Y-99798809D01*
X193659523Y-99560714D02*
X193659523Y-100227380D01*
X193659523Y-99655952D02*
X193707142Y-99608333D01*
X193802380Y-99560714D01*
X193945237Y-99560714D01*
X194040475Y-99608333D01*
X194088094Y-99703571D01*
X194088094Y-100227380D01*
X194428570Y-100179761D02*
X194571427Y-100227380D01*
X194809522Y-100227380D01*
X194904760Y-100179761D01*
X194952379Y-100132142D01*
X194999998Y-100036904D01*
X194999998Y-99941666D01*
X194952379Y-99846428D01*
X194904760Y-99798809D01*
X194809522Y-99751190D01*
X194619046Y-99703571D01*
X194523808Y-99655952D01*
X194476189Y-99608333D01*
X194428570Y-99513095D01*
X194428570Y-99417857D01*
X194476189Y-99322619D01*
X194523808Y-99275000D01*
X194619046Y-99227380D01*
X194857141Y-99227380D01*
X194999998Y-99275000D01*
X195721426Y-99703571D02*
X195864283Y-99751190D01*
X195911902Y-99798809D01*
X195959521Y-99894047D01*
X195959521Y-100036904D01*
X195911902Y-100132142D01*
X195864283Y-100179761D01*
X195769045Y-100227380D01*
X195388093Y-100227380D01*
X195388093Y-99227380D01*
X195721426Y-99227380D01*
X195816664Y-99275000D01*
X195864283Y-99322619D01*
X195911902Y-99417857D01*
X195911902Y-99513095D01*
X195864283Y-99608333D01*
X195816664Y-99655952D01*
X195721426Y-99703571D01*
X195388093Y-99703571D01*
X196395235Y-100179761D02*
X196395235Y-100227380D01*
X196347616Y-100322619D01*
X196299997Y-100370238D01*
X197383330Y-100227380D02*
X197383330Y-99227380D01*
X197811901Y-100227380D02*
X197811901Y-99703571D01*
X197764282Y-99608333D01*
X197669044Y-99560714D01*
X197526187Y-99560714D01*
X197430949Y-99608333D01*
X197383330Y-99655952D01*
X198342853Y-100227380D02*
X198247615Y-100179761D01*
X198199996Y-100132142D01*
X198152377Y-100036904D01*
X198152377Y-99751190D01*
X198199996Y-99655952D01*
X198247615Y-99608333D01*
X198342853Y-99560714D01*
X198485710Y-99560714D01*
X198580948Y-99608333D01*
X198628567Y-99655952D01*
X198676186Y-99751190D01*
X198676186Y-100036904D01*
X198628567Y-100132142D01*
X198580948Y-100179761D01*
X198485710Y-100227380D01*
X198342853Y-100227380D01*
X199492852Y-99560714D02*
X199492852Y-100370238D01*
X199445233Y-100465476D01*
X199397614Y-100513095D01*
X199302376Y-100560714D01*
X199159519Y-100560714D01*
X199064281Y-100513095D01*
X199492852Y-100179761D02*
X199397614Y-100227380D01*
X199207138Y-100227380D01*
X199111900Y-100179761D01*
X199064281Y-100132142D01*
X199016662Y-100036904D01*
X199016662Y-99751190D01*
X199064281Y-99655952D01*
X199111900Y-99608333D01*
X199207138Y-99560714D01*
X199397614Y-99560714D01*
X199492852Y-99608333D01*
X200023804Y-100227380D02*
X199928566Y-100179761D01*
X199880947Y-100084523D01*
X199880947Y-99227380D01*
X200792851Y-100179761D02*
X200697613Y-100227380D01*
X200507137Y-100227380D01*
X200411899Y-100179761D01*
X200364280Y-100084523D01*
X200364280Y-99703571D01*
X200411899Y-99608333D01*
X200507137Y-99560714D01*
X200697613Y-99560714D01*
X200792851Y-99608333D01*
X200840470Y-99703571D01*
X200840470Y-99798809D01*
X200364280Y-99894047D01*
X201085708Y-99560714D02*
X201466660Y-99560714D01*
X201228565Y-99227380D02*
X201228565Y-100084523D01*
X201276184Y-100179761D01*
X201371422Y-100227380D01*
X201466660Y-100227380D01*
X202283326Y-99227380D02*
X202092850Y-99227380D01*
X201997612Y-99275000D01*
X201949993Y-99322619D01*
X201854755Y-99465476D01*
X201807136Y-99655952D01*
X201807136Y-100036904D01*
X201854755Y-100132142D01*
X201902374Y-100179761D01*
X201997612Y-100227380D01*
X202188088Y-100227380D01*
X202283326Y-100179761D01*
X202330945Y-100132142D01*
X202378564Y-100036904D01*
X202378564Y-99798809D01*
X202330945Y-99703571D01*
X202283326Y-99655952D01*
X202188088Y-99608333D01*
X201997612Y-99608333D01*
X201902374Y-99655952D01*
X201854755Y-99703571D01*
X201807136Y-99798809D01*
X202671421Y-99227380D02*
X203338087Y-99227380D01*
X202909516Y-100227380D01*
X185755956Y-101847380D02*
X185755956Y-101323571D01*
X185708337Y-101228333D01*
X185613099Y-101180714D01*
X185422623Y-101180714D01*
X185327385Y-101228333D01*
X185755956Y-101799761D02*
X185660718Y-101847380D01*
X185422623Y-101847380D01*
X185327385Y-101799761D01*
X185279766Y-101704523D01*
X185279766Y-101609285D01*
X185327385Y-101514047D01*
X185422623Y-101466428D01*
X185660718Y-101466428D01*
X185755956Y-101418809D01*
X186144051Y-101180714D02*
X186144051Y-101847380D01*
X186144051Y-101275952D02*
X186191670Y-101228333D01*
X186286908Y-101180714D01*
X186429765Y-101180714D01*
X186525003Y-101228333D01*
X186572622Y-101323571D01*
X186572622Y-101847380D01*
X187389288Y-101847380D02*
X187389288Y-100847380D01*
X187389288Y-101799761D02*
X187294050Y-101847380D01*
X187103574Y-101847380D01*
X187008336Y-101799761D01*
X186960717Y-101752142D01*
X186913098Y-101656904D01*
X186913098Y-101371190D01*
X186960717Y-101275952D01*
X187008336Y-101228333D01*
X187103574Y-101180714D01*
X187294050Y-101180714D01*
X187389288Y-101228333D01*
X188710716Y-101323571D02*
X188853573Y-101371190D01*
X188901192Y-101418809D01*
X188948811Y-101514047D01*
X188948811Y-101656904D01*
X188901192Y-101752142D01*
X188853573Y-101799761D01*
X188758335Y-101847380D01*
X188377383Y-101847380D01*
X188377383Y-100847380D01*
X188710716Y-100847380D01*
X188805954Y-100895000D01*
X188853573Y-100942619D01*
X188901192Y-101037857D01*
X188901192Y-101133095D01*
X188853573Y-101228333D01*
X188805954Y-101275952D01*
X188710716Y-101323571D01*
X188377383Y-101323571D01*
X189479763Y-101847380D02*
X189384525Y-101799761D01*
X189336906Y-101704523D01*
X189336906Y-100847380D01*
X190010715Y-101847380D02*
X189915477Y-101799761D01*
X189867858Y-101752142D01*
X189820239Y-101656904D01*
X189820239Y-101371190D01*
X189867858Y-101275952D01*
X189915477Y-101228333D01*
X190010715Y-101180714D01*
X190153572Y-101180714D01*
X190248810Y-101228333D01*
X190296429Y-101275952D01*
X190344048Y-101371190D01*
X190344048Y-101656904D01*
X190296429Y-101752142D01*
X190248810Y-101799761D01*
X190153572Y-101847380D01*
X190010715Y-101847380D01*
X190875000Y-101847380D02*
X190779762Y-101799761D01*
X190732143Y-101752142D01*
X190684524Y-101656904D01*
X190684524Y-101371190D01*
X190732143Y-101275952D01*
X190779762Y-101228333D01*
X190875000Y-101180714D01*
X191017857Y-101180714D01*
X191113095Y-101228333D01*
X191160714Y-101275952D01*
X191208333Y-101371190D01*
X191208333Y-101656904D01*
X191160714Y-101752142D01*
X191113095Y-101799761D01*
X191017857Y-101847380D01*
X190875000Y-101847380D01*
X192024999Y-101847380D02*
X192024999Y-100847380D01*
X192024999Y-101799761D02*
X191929761Y-101847380D01*
X191739285Y-101847380D01*
X191644047Y-101799761D01*
X191596428Y-101752142D01*
X191548809Y-101656904D01*
X191548809Y-101371190D01*
X191596428Y-101275952D01*
X191644047Y-101228333D01*
X191739285Y-101180714D01*
X191929761Y-101180714D01*
X192024999Y-101228333D01*
X192413094Y-101847380D02*
X192413094Y-101180714D01*
X192413094Y-101275952D02*
X192460713Y-101228333D01*
X192555951Y-101180714D01*
X192698808Y-101180714D01*
X192794046Y-101228333D01*
X192841665Y-101323571D01*
X192841665Y-101847380D01*
X192841665Y-101323571D02*
X192889284Y-101228333D01*
X192984522Y-101180714D01*
X193127379Y-101180714D01*
X193222618Y-101228333D01*
X193270237Y-101323571D01*
X193270237Y-101847380D01*
X193801189Y-101847380D02*
X193705951Y-101799761D01*
X193658332Y-101752142D01*
X193610713Y-101656904D01*
X193610713Y-101371190D01*
X193658332Y-101275952D01*
X193705951Y-101228333D01*
X193801189Y-101180714D01*
X193944046Y-101180714D01*
X194039284Y-101228333D01*
X194086903Y-101275952D01*
X194134522Y-101371190D01*
X194134522Y-101656904D01*
X194086903Y-101752142D01*
X194039284Y-101799761D01*
X193944046Y-101847380D01*
X193801189Y-101847380D01*
X194474998Y-101799761D02*
X194570236Y-101847380D01*
X194760712Y-101847380D01*
X194855950Y-101799761D01*
X194903569Y-101704523D01*
X194903569Y-101656904D01*
X194855950Y-101561666D01*
X194760712Y-101514047D01*
X194617855Y-101514047D01*
X194522617Y-101466428D01*
X194474998Y-101371190D01*
X194474998Y-101323571D01*
X194522617Y-101228333D01*
X194617855Y-101180714D01*
X194760712Y-101180714D01*
X194855950Y-101228333D01*
X195291664Y-101847380D02*
X195291664Y-100847380D01*
X195720235Y-101847380D02*
X195720235Y-101323571D01*
X195672616Y-101228333D01*
X195577378Y-101180714D01*
X195434521Y-101180714D01*
X195339283Y-101228333D01*
X195291664Y-101275952D01*
X196489282Y-101799761D02*
X196394044Y-101847380D01*
X196203568Y-101847380D01*
X196108330Y-101799761D01*
X196060711Y-101704523D01*
X196060711Y-101323571D01*
X196108330Y-101228333D01*
X196203568Y-101180714D01*
X196394044Y-101180714D01*
X196489282Y-101228333D01*
X196536901Y-101323571D01*
X196536901Y-101418809D01*
X196060711Y-101514047D01*
X196924996Y-101847380D02*
X196924996Y-101180714D01*
X196924996Y-101371190D02*
X196972615Y-101275952D01*
X197020234Y-101228333D01*
X197115472Y-101180714D01*
X197210710Y-101180714D01*
X174095251Y-103467380D02*
X174095251Y-102467380D01*
X174523822Y-103467380D02*
X174523822Y-102943571D01*
X174476203Y-102848333D01*
X174380965Y-102800714D01*
X174238108Y-102800714D01*
X174142870Y-102848333D01*
X174095251Y-102895952D01*
X174769060Y-102800714D02*
X175150012Y-102800714D01*
X174911917Y-102467380D02*
X174911917Y-103324523D01*
X174959536Y-103419761D01*
X175054774Y-103467380D01*
X175150012Y-103467380D01*
X175395250Y-102800714D02*
X175776202Y-102800714D01*
X175538107Y-102467380D02*
X175538107Y-103324523D01*
X175585726Y-103419761D01*
X175680964Y-103467380D01*
X175776202Y-103467380D01*
X176164297Y-102800714D02*
X176164297Y-103800714D01*
X176164297Y-102848333D02*
X176259535Y-102800714D01*
X176450011Y-102800714D01*
X176545249Y-102848333D01*
X176592868Y-102895952D01*
X176640487Y-102991190D01*
X176640487Y-103276904D01*
X176592868Y-103372142D01*
X176545249Y-103419761D01*
X176450011Y-103467380D01*
X176259535Y-103467380D01*
X176164297Y-103419761D01*
X176980963Y-103419761D02*
X177076201Y-103467380D01*
X177266677Y-103467380D01*
X177361915Y-103419761D01*
X177409534Y-103324523D01*
X177409534Y-103276904D01*
X177361915Y-103181666D01*
X177266677Y-103134047D01*
X177123820Y-103134047D01*
X177028582Y-103086428D01*
X176980963Y-102991190D01*
X176980963Y-102943571D01*
X177028582Y-102848333D01*
X177123820Y-102800714D01*
X177266677Y-102800714D01*
X177361915Y-102848333D01*
X177797629Y-103372142D02*
X177845248Y-103419761D01*
X177797629Y-103467380D01*
X177750010Y-103419761D01*
X177797629Y-103372142D01*
X177797629Y-103467380D01*
X177797629Y-102848333D02*
X177845248Y-102895952D01*
X177797629Y-102943571D01*
X177750010Y-102895952D01*
X177797629Y-102848333D01*
X177797629Y-102943571D01*
X178947628Y-102419761D02*
X178090486Y-103705476D01*
X180050008Y-102419761D02*
X179192866Y-103705476D01*
X180866674Y-102800714D02*
X180866674Y-103610238D01*
X180819055Y-103705476D01*
X180771436Y-103753095D01*
X180676198Y-103800714D01*
X180533341Y-103800714D01*
X180438103Y-103753095D01*
X180866674Y-103419761D02*
X180771436Y-103467380D01*
X180580960Y-103467380D01*
X180485722Y-103419761D01*
X180438103Y-103372142D01*
X180390484Y-103276904D01*
X180390484Y-102991190D01*
X180438103Y-102895952D01*
X180485722Y-102848333D01*
X180580960Y-102800714D01*
X180771436Y-102800714D01*
X180866674Y-102848333D01*
X181254769Y-103467380D02*
X181254769Y-102800714D01*
X181254769Y-102467380D02*
X181207150Y-102515000D01*
X181254769Y-102562619D01*
X181302388Y-102515000D01*
X181254769Y-102467380D01*
X181254769Y-102562619D01*
X181547626Y-102800714D02*
X181928578Y-102800714D01*
X181690483Y-102467380D02*
X181690483Y-103324523D01*
X181738102Y-103419761D01*
X181833340Y-103467380D01*
X181928578Y-103467380D01*
X182316673Y-103467380D02*
X182316673Y-102467380D01*
X182745244Y-103467380D02*
X182745244Y-102943571D01*
X182697625Y-102848333D01*
X182602387Y-102800714D01*
X182459530Y-102800714D01*
X182364292Y-102848333D01*
X182316673Y-102895952D01*
X183561910Y-102800714D02*
X183561910Y-103467380D01*
X183133339Y-102800714D02*
X183133339Y-103324523D01*
X183180958Y-103419761D01*
X183276196Y-103467380D01*
X183419053Y-103467380D01*
X183514291Y-103419761D01*
X183561910Y-103372142D01*
X183950005Y-103467380D02*
X183950005Y-102467380D01*
X183950005Y-102848333D02*
X184045243Y-102800714D01*
X184235719Y-102800714D01*
X184330957Y-102848333D01*
X184378576Y-102895952D01*
X184426195Y-102991190D01*
X184426195Y-103276904D01*
X184378576Y-103372142D01*
X184330957Y-103419761D01*
X184235719Y-103467380D01*
X184045243Y-103467380D01*
X183950005Y-103419761D01*
X184814290Y-103372142D02*
X184861909Y-103419761D01*
X184814290Y-103467380D01*
X184766671Y-103419761D01*
X184814290Y-103372142D01*
X184814290Y-103467380D01*
X185678575Y-103419761D02*
X185583337Y-103467380D01*
X185392861Y-103467380D01*
X185297623Y-103419761D01*
X185250004Y-103372142D01*
X185202385Y-103276904D01*
X185202385Y-102991190D01*
X185250004Y-102895952D01*
X185297623Y-102848333D01*
X185392861Y-102800714D01*
X185583337Y-102800714D01*
X185678575Y-102848333D01*
X186209527Y-103467380D02*
X186114289Y-103419761D01*
X186066670Y-103372142D01*
X186019051Y-103276904D01*
X186019051Y-102991190D01*
X186066670Y-102895952D01*
X186114289Y-102848333D01*
X186209527Y-102800714D01*
X186352384Y-102800714D01*
X186447622Y-102848333D01*
X186495241Y-102895952D01*
X186542860Y-102991190D01*
X186542860Y-103276904D01*
X186495241Y-103372142D01*
X186447622Y-103419761D01*
X186352384Y-103467380D01*
X186209527Y-103467380D01*
X186930955Y-103467380D02*
X186930955Y-102800714D01*
X186930955Y-102895952D02*
X186978574Y-102848333D01*
X187073812Y-102800714D01*
X187216669Y-102800714D01*
X187311907Y-102848333D01*
X187359526Y-102943571D01*
X187359526Y-103467380D01*
X187359526Y-102943571D02*
X187407145Y-102848333D01*
X187502383Y-102800714D01*
X187645240Y-102800714D01*
X187740479Y-102848333D01*
X187788098Y-102943571D01*
X187788098Y-103467380D01*
X188890478Y-102419761D02*
X188033336Y-103705476D01*
X189754763Y-103467380D02*
X189278573Y-103467380D01*
X189278573Y-102467380D01*
X190142858Y-103467380D02*
X190142858Y-102800714D01*
X190142858Y-102467380D02*
X190095239Y-102515000D01*
X190142858Y-102562619D01*
X190190477Y-102515000D01*
X190142858Y-102467380D01*
X190142858Y-102562619D01*
X190578572Y-102800714D02*
X190578572Y-103467380D01*
X190578572Y-102895952D02*
X190626191Y-102848333D01*
X190721429Y-102800714D01*
X190864286Y-102800714D01*
X190959524Y-102848333D01*
X191007143Y-102943571D01*
X191007143Y-103467380D01*
X191823809Y-102800714D02*
X191823809Y-103467380D01*
X191395238Y-102800714D02*
X191395238Y-103324523D01*
X191442857Y-103419761D01*
X191538095Y-103467380D01*
X191680952Y-103467380D01*
X191776190Y-103419761D01*
X191823809Y-103372142D01*
X192116666Y-103467380D02*
X192640475Y-102800714D01*
X192116666Y-102800714D02*
X192640475Y-103467380D01*
X193314284Y-102467380D02*
X193314284Y-103181666D01*
X193266665Y-103324523D01*
X193171427Y-103419761D01*
X193028570Y-103467380D01*
X192933332Y-103467380D01*
X194083331Y-103419761D02*
X193988093Y-103467380D01*
X193797617Y-103467380D01*
X193702379Y-103419761D01*
X193654760Y-103324523D01*
X193654760Y-102943571D01*
X193702379Y-102848333D01*
X193797617Y-102800714D01*
X193988093Y-102800714D01*
X194083331Y-102848333D01*
X194130950Y-102943571D01*
X194130950Y-103038809D01*
X193654760Y-103134047D01*
X194947616Y-103467380D02*
X194947616Y-102467380D01*
X194947616Y-103419761D02*
X194852378Y-103467380D01*
X194661902Y-103467380D01*
X194566664Y-103419761D01*
X194519045Y-103372142D01*
X194471426Y-103276904D01*
X194471426Y-102991190D01*
X194519045Y-102895952D01*
X194566664Y-102848333D01*
X194661902Y-102800714D01*
X194852378Y-102800714D01*
X194947616Y-102848333D01*
X195335711Y-103467380D02*
X195335711Y-102800714D01*
X195335711Y-102467380D02*
X195288092Y-102515000D01*
X195335711Y-102562619D01*
X195383330Y-102515000D01*
X195335711Y-102467380D01*
X195335711Y-102562619D01*
X196485710Y-102419761D02*
X195628568Y-103705476D01*
X196826186Y-103181666D02*
X197302376Y-103181666D01*
X196730948Y-103467380D02*
X197064281Y-102467380D01*
X197397614Y-103467380D01*
X197785709Y-103467380D02*
X197785709Y-102800714D01*
X197785709Y-102895952D02*
X197833328Y-102848333D01*
X197928566Y-102800714D01*
X198071423Y-102800714D01*
X198166661Y-102848333D01*
X198214280Y-102943571D01*
X198214280Y-103467380D01*
X198214280Y-102943571D02*
X198261899Y-102848333D01*
X198357137Y-102800714D01*
X198499994Y-102800714D01*
X198595233Y-102848333D01*
X198642852Y-102943571D01*
X198642852Y-103467380D01*
X199030947Y-103467380D02*
X199030947Y-102800714D01*
X199030947Y-102467380D02*
X198983328Y-102515000D01*
X199030947Y-102562619D01*
X199078566Y-102515000D01*
X199030947Y-102467380D01*
X199030947Y-102562619D01*
X199895232Y-102800714D02*
X199895232Y-103610238D01*
X199847613Y-103705476D01*
X199799994Y-103753095D01*
X199704756Y-103800714D01*
X199561899Y-103800714D01*
X199466661Y-103753095D01*
X199895232Y-103419761D02*
X199799994Y-103467380D01*
X199609518Y-103467380D01*
X199514280Y-103419761D01*
X199466661Y-103372142D01*
X199419042Y-103276904D01*
X199419042Y-102991190D01*
X199466661Y-102895952D01*
X199514280Y-102848333D01*
X199609518Y-102800714D01*
X199799994Y-102800714D01*
X199895232Y-102848333D01*
X200711898Y-103467380D02*
X200711898Y-102943571D01*
X200664279Y-102848333D01*
X200569041Y-102800714D01*
X200378565Y-102800714D01*
X200283327Y-102848333D01*
X200711898Y-103419761D02*
X200616660Y-103467380D01*
X200378565Y-103467380D01*
X200283327Y-103419761D01*
X200235708Y-103324523D01*
X200235708Y-103229285D01*
X200283327Y-103134047D01*
X200378565Y-103086428D01*
X200616660Y-103086428D01*
X200711898Y-103038809D01*
X201671421Y-103467380D02*
X201338088Y-102991190D01*
X201099993Y-103467380D02*
X201099993Y-102467380D01*
X201480945Y-102467380D01*
X201576183Y-102515000D01*
X201623802Y-102562619D01*
X201671421Y-102657857D01*
X201671421Y-102800714D01*
X201623802Y-102895952D01*
X201576183Y-102943571D01*
X201480945Y-102991190D01*
X201099993Y-102991190D01*
X202583325Y-102515000D02*
X202488087Y-102467380D01*
X202345230Y-102467380D01*
X202202373Y-102515000D01*
X202107135Y-102610238D01*
X202059516Y-102705476D01*
X202011897Y-102895952D01*
X202011897Y-103038809D01*
X202059516Y-103229285D01*
X202107135Y-103324523D01*
X202202373Y-103419761D01*
X202345230Y-103467380D01*
X202440468Y-103467380D01*
X202583325Y-103419761D01*
X202630944Y-103372142D01*
X202630944Y-103038809D01*
X202440468Y-103038809D01*
X203352372Y-102943571D02*
X203495229Y-102991190D01*
X203542848Y-103038809D01*
X203590467Y-103134047D01*
X203590467Y-103276904D01*
X203542848Y-103372142D01*
X203495229Y-103419761D01*
X203399991Y-103467380D01*
X203019039Y-103467380D01*
X203019039Y-102467380D01*
X203352372Y-102467380D01*
X203447610Y-102515000D01*
X203495229Y-102562619D01*
X203542848Y-102657857D01*
X203542848Y-102753095D01*
X203495229Y-102848333D01*
X203447610Y-102895952D01*
X203352372Y-102943571D01*
X203019039Y-102943571D01*
X203835705Y-102800714D02*
X204216657Y-102800714D01*
X203978562Y-102467380D02*
X203978562Y-103324523D01*
X204026181Y-103419761D01*
X204121419Y-103467380D01*
X204216657Y-103467380D01*
X204747609Y-103467380D02*
X204652371Y-103419761D01*
X204604752Y-103372142D01*
X204557133Y-103276904D01*
X204557133Y-102991190D01*
X204604752Y-102895952D01*
X204652371Y-102848333D01*
X204747609Y-102800714D01*
X204890466Y-102800714D01*
X204985704Y-102848333D01*
X205033323Y-102895952D01*
X205080942Y-102991190D01*
X205080942Y-103276904D01*
X205033323Y-103372142D01*
X204985704Y-103419761D01*
X204890466Y-103467380D01*
X204747609Y-103467380D01*
X205469037Y-103467380D02*
X205469037Y-102467380D01*
X205469037Y-102943571D02*
X206040465Y-102943571D01*
X206040465Y-103467380D02*
X206040465Y-102467380D01*
X206428560Y-103467380D02*
X206428560Y-102467380D01*
X206666655Y-102467380D01*
X206809512Y-102515000D01*
X206904750Y-102610238D01*
X206952369Y-102705476D01*
X206999988Y-102895952D01*
X206999988Y-103038809D01*
X206952369Y-103229285D01*
X206904750Y-103324523D01*
X206809512Y-103419761D01*
X206666655Y-103467380D01*
X206428560Y-103467380D01*
X207388083Y-103467380D02*
X207388083Y-102467380D01*
X207721416Y-103181666D01*
X208054749Y-102467380D01*
X208054749Y-103467380D01*
X208442844Y-103467380D02*
X208442844Y-102467380D01*
D10*
X236327380Y-38134521D02*
X235327380Y-38134521D01*
X235327380Y-37896426D01*
X235375000Y-37753569D01*
X235470238Y-37658331D01*
X235565476Y-37610712D01*
X235755952Y-37563093D01*
X235898809Y-37563093D01*
X236089285Y-37610712D01*
X236184523Y-37658331D01*
X236279761Y-37753569D01*
X236327380Y-37896426D01*
X236327380Y-38134521D01*
X236327380Y-37032141D02*
X236279761Y-37127379D01*
X236232142Y-37174998D01*
X236136904Y-37222617D01*
X235851190Y-37222617D01*
X235755952Y-37174998D01*
X235708333Y-37127379D01*
X235660714Y-37032141D01*
X235660714Y-36889284D01*
X235708333Y-36794046D01*
X235755952Y-36746427D01*
X235851190Y-36698808D01*
X236136904Y-36698808D01*
X236232142Y-36746427D01*
X236279761Y-36794046D01*
X236327380Y-36889284D01*
X236327380Y-37032141D01*
X235660714Y-36405951D02*
X236327380Y-36215475D01*
X235851190Y-36024999D01*
X236327380Y-35834523D01*
X235660714Y-35644047D01*
X235660714Y-35255952D02*
X236327380Y-35255952D01*
X235755952Y-35255952D02*
X235708333Y-35208333D01*
X235660714Y-35113095D01*
X235660714Y-34970238D01*
X235708333Y-34875000D01*
X235803571Y-34827381D01*
X236327380Y-34827381D01*
D11*
X163824953Y-107309380D02*
X164444000Y-107309380D01*
X164110667Y-107690333D01*
X164253524Y-107690333D01*
X164348762Y-107737952D01*
X164396381Y-107785571D01*
X164444000Y-107880809D01*
X164444000Y-108118904D01*
X164396381Y-108214142D01*
X164348762Y-108261761D01*
X164253524Y-108309380D01*
X163967810Y-108309380D01*
X163872572Y-108261761D01*
X163824953Y-108214142D01*
X165260666Y-107309380D02*
X165070190Y-107309380D01*
X164974952Y-107357000D01*
X164927333Y-107404619D01*
X164832095Y-107547476D01*
X164784476Y-107737952D01*
X164784476Y-108118904D01*
X164832095Y-108214142D01*
X164879714Y-108261761D01*
X164974952Y-108309380D01*
X165165428Y-108309380D01*
X165260666Y-108261761D01*
X165308285Y-108214142D01*
X165355904Y-108118904D01*
X165355904Y-107880809D01*
X165308285Y-107785571D01*
X165260666Y-107737952D01*
X165165428Y-107690333D01*
X164974952Y-107690333D01*
X164879714Y-107737952D01*
X164832095Y-107785571D01*
X164784476Y-107880809D01*
X157378524Y-107404619D02*
X157426143Y-107357000D01*
X157521381Y-107309380D01*
X157759476Y-107309380D01*
X157854714Y-107357000D01*
X157902333Y-107404619D01*
X157949952Y-107499857D01*
X157949952Y-107595095D01*
X157902333Y-107737952D01*
X157330905Y-108309380D01*
X157949952Y-108309380D01*
X210828524Y-107409619D02*
X210876143Y-107362000D01*
X210971381Y-107314380D01*
X211209476Y-107314380D01*
X211304714Y-107362000D01*
X211352333Y-107409619D01*
X211399952Y-107504857D01*
X211399952Y-107600095D01*
X211352333Y-107742952D01*
X210780905Y-108314380D01*
X211399952Y-108314380D01*
X110599953Y-107309380D02*
X111219000Y-107309380D01*
X110885667Y-107690333D01*
X111028524Y-107690333D01*
X111123762Y-107737952D01*
X111171381Y-107785571D01*
X111219000Y-107880809D01*
X111219000Y-108118904D01*
X111171381Y-108214142D01*
X111123762Y-108261761D01*
X111028524Y-108309380D01*
X110742810Y-108309380D01*
X110647572Y-108261761D01*
X110599953Y-108214142D01*
X112035666Y-107309380D02*
X111845190Y-107309380D01*
X111749952Y-107357000D01*
X111702333Y-107404619D01*
X111607095Y-107547476D01*
X111559476Y-107737952D01*
X111559476Y-108118904D01*
X111607095Y-108214142D01*
X111654714Y-108261761D01*
X111749952Y-108309380D01*
X111940428Y-108309380D01*
X112035666Y-108261761D01*
X112083285Y-108214142D01*
X112130904Y-108118904D01*
X112130904Y-107880809D01*
X112083285Y-107785571D01*
X112035666Y-107737952D01*
X111940428Y-107690333D01*
X111749952Y-107690333D01*
X111654714Y-107737952D01*
X111607095Y-107785571D01*
X111559476Y-107880809D01*
X179424471Y-85302929D02*
X179424471Y-85370273D01*
X179357128Y-85504960D01*
X179289784Y-85572303D01*
X179155097Y-85639647D01*
X179020410Y-85639647D01*
X178919395Y-85605975D01*
X178751036Y-85504960D01*
X178650021Y-85403945D01*
X178549005Y-85235586D01*
X178515334Y-85134571D01*
X178515334Y-84999884D01*
X178582677Y-84865197D01*
X178650021Y-84797853D01*
X178784708Y-84730510D01*
X178852051Y-84730510D01*
X180136628Y-84725460D02*
X179732567Y-85129521D01*
X179934597Y-84927490D02*
X179227491Y-84220383D01*
X179261162Y-84388742D01*
X179261162Y-84523429D01*
X179227491Y-84624444D01*
X181270723Y-72437974D02*
X181338067Y-72437974D01*
X181472754Y-72505317D01*
X181540097Y-72572661D01*
X181607441Y-72707348D01*
X181607441Y-72842035D01*
X181573769Y-72943050D01*
X181472754Y-73111409D01*
X181371739Y-73212424D01*
X181203380Y-73313440D01*
X181102365Y-73347111D01*
X180967678Y-73347111D01*
X180832991Y-73279768D01*
X180765647Y-73212424D01*
X180698304Y-73077737D01*
X180698304Y-73010394D01*
X180457551Y-72769641D02*
X180390208Y-72769641D01*
X180289192Y-72735970D01*
X180120834Y-72567611D01*
X180087162Y-72466596D01*
X180087162Y-72399252D01*
X180120834Y-72298237D01*
X180188177Y-72230893D01*
X180322864Y-72163550D01*
X181130986Y-72163550D01*
X180693254Y-71725817D01*
X194302145Y-73230603D02*
X194302145Y-73297947D01*
X194234802Y-73432634D01*
X194167458Y-73499977D01*
X194032771Y-73567321D01*
X193898084Y-73567321D01*
X193797069Y-73533649D01*
X193628710Y-73432634D01*
X193527695Y-73331619D01*
X193426679Y-73163260D01*
X193393008Y-73062245D01*
X193393008Y-72927558D01*
X193460351Y-72792871D01*
X193527695Y-72725527D01*
X193662382Y-72658184D01*
X193729725Y-72658184D01*
X193869462Y-72383759D02*
X194307195Y-71946027D01*
X194340867Y-72451103D01*
X194441882Y-72350088D01*
X194542897Y-72316416D01*
X194610241Y-72316416D01*
X194711256Y-72350088D01*
X194879615Y-72518446D01*
X194913287Y-72619462D01*
X194913287Y-72686805D01*
X194879615Y-72787821D01*
X194677584Y-72989851D01*
X194576569Y-73023523D01*
X194509226Y-73023523D01*
X222173810Y-82572380D02*
X221840477Y-82096190D01*
X221602382Y-82572380D02*
X221602382Y-81572380D01*
X221983334Y-81572380D01*
X222078572Y-81620000D01*
X222126191Y-81667619D01*
X222173810Y-81762857D01*
X222173810Y-81905714D01*
X222126191Y-82000952D01*
X222078572Y-82048571D01*
X221983334Y-82096190D01*
X221602382Y-82096190D01*
X223085714Y-82572380D02*
X222514286Y-82572380D01*
X222800000Y-82572380D02*
X222800000Y-81572380D01*
X222704762Y-81715238D01*
X222609524Y-81810476D01*
X222514286Y-81858095D01*
X192169489Y-71197947D02*
X191597069Y-71096932D01*
X191765428Y-71602008D02*
X191058321Y-70894901D01*
X191327695Y-70625527D01*
X191428710Y-70591855D01*
X191496053Y-70591855D01*
X191597069Y-70625527D01*
X191698084Y-70726542D01*
X191731756Y-70827558D01*
X191731756Y-70894901D01*
X191698084Y-70995916D01*
X191428710Y-71265290D01*
X191770478Y-70317431D02*
X191770478Y-70250088D01*
X191804149Y-70149072D01*
X191972508Y-69980714D01*
X192073523Y-69947042D01*
X192140867Y-69947042D01*
X192241882Y-69980714D01*
X192309226Y-70048057D01*
X192376569Y-70182744D01*
X192376569Y-70990866D01*
X192814302Y-70553134D01*
X182188118Y-85498461D02*
X182760538Y-84926042D01*
X182794210Y-84825026D01*
X182794210Y-84757683D01*
X182760538Y-84656667D01*
X182625851Y-84521980D01*
X182524836Y-84488309D01*
X182457492Y-84488309D01*
X182356477Y-84521980D01*
X181784057Y-85094400D01*
X181846351Y-83742480D02*
X182250412Y-84146541D01*
X182048381Y-83944511D02*
X181341274Y-84651617D01*
X181509633Y-84617946D01*
X181644320Y-84617946D01*
X181745335Y-84651617D01*
X238629761Y-28071427D02*
X238677380Y-27928570D01*
X238677380Y-27690475D01*
X238629761Y-27595237D01*
X238582142Y-27547618D01*
X238486904Y-27499999D01*
X238391666Y-27499999D01*
X238296428Y-27547618D01*
X238248809Y-27595237D01*
X238201190Y-27690475D01*
X238153571Y-27880951D01*
X238105952Y-27976189D01*
X238058333Y-28023808D01*
X237963095Y-28071427D01*
X237867857Y-28071427D01*
X237772619Y-28023808D01*
X237725000Y-27976189D01*
X237677380Y-27880951D01*
X237677380Y-27642856D01*
X237725000Y-27499999D01*
X237677380Y-27207142D02*
X238677380Y-26969047D01*
X237963095Y-26778571D01*
X238677380Y-26588095D01*
X237677380Y-26350000D01*
X237677380Y-26057142D02*
X237677380Y-25438095D01*
X238058333Y-25771428D01*
X238058333Y-25628571D01*
X238105952Y-25533333D01*
X238153571Y-25485714D01*
X238248809Y-25438095D01*
X238486904Y-25438095D01*
X238582142Y-25485714D01*
X238629761Y-25533333D01*
X238677380Y-25628571D01*
X238677380Y-25914285D01*
X238629761Y-26009523D01*
X238582142Y-26057142D01*
X238629761Y-18271427D02*
X238677380Y-18128570D01*
X238677380Y-17890475D01*
X238629761Y-17795237D01*
X238582142Y-17747618D01*
X238486904Y-17699999D01*
X238391666Y-17699999D01*
X238296428Y-17747618D01*
X238248809Y-17795237D01*
X238201190Y-17890475D01*
X238153571Y-18080951D01*
X238105952Y-18176189D01*
X238058333Y-18223808D01*
X237963095Y-18271427D01*
X237867857Y-18271427D01*
X237772619Y-18223808D01*
X237725000Y-18176189D01*
X237677380Y-18080951D01*
X237677380Y-17842856D01*
X237725000Y-17699999D01*
X237677380Y-17407142D02*
X238677380Y-17169047D01*
X237963095Y-16978571D01*
X238677380Y-16788095D01*
X237677380Y-16550000D01*
X238677380Y-15638095D02*
X238677380Y-16209523D01*
X238677380Y-15923809D02*
X237677380Y-15923809D01*
X237820238Y-16019047D01*
X237915476Y-16114285D01*
X237963095Y-16209523D01*
X238629761Y-37846427D02*
X238677380Y-37703570D01*
X238677380Y-37465475D01*
X238629761Y-37370237D01*
X238582142Y-37322618D01*
X238486904Y-37274999D01*
X238391666Y-37274999D01*
X238296428Y-37322618D01*
X238248809Y-37370237D01*
X238201190Y-37465475D01*
X238153571Y-37655951D01*
X238105952Y-37751189D01*
X238058333Y-37798808D01*
X237963095Y-37846427D01*
X237867857Y-37846427D01*
X237772619Y-37798808D01*
X237725000Y-37751189D01*
X237677380Y-37655951D01*
X237677380Y-37417856D01*
X237725000Y-37274999D01*
X237677380Y-36982142D02*
X238677380Y-36744047D01*
X237963095Y-36553571D01*
X238677380Y-36363095D01*
X237677380Y-36125000D01*
X237772619Y-35784523D02*
X237725000Y-35736904D01*
X237677380Y-35641666D01*
X237677380Y-35403571D01*
X237725000Y-35308333D01*
X237772619Y-35260714D01*
X237867857Y-35213095D01*
X237963095Y-35213095D01*
X238105952Y-35260714D01*
X238677380Y-35832142D01*
X238677380Y-35213095D01*
D12*
X212164000Y-116122000D02*
X212164000Y-107172000D01*
X110424000Y-116122000D02*
X110424000Y-107172000D01*
X110424000Y-107172000D02*
X110024000Y-107172000D01*
X158824000Y-116122000D02*
X158824000Y-108522000D01*
X163774000Y-108522000D02*
X163774000Y-116122000D01*
X212164000Y-107172000D02*
X212564000Y-107172000D01*
X158824000Y-108522000D02*
X163774000Y-108522000D01*
X177992802Y-83485949D02*
X177785949Y-83692802D01*
X178714051Y-84207198D02*
X178507198Y-84414051D01*
X182404171Y-71332922D02*
X182197318Y-71126069D01*
X181682922Y-72054171D02*
X181476069Y-71847318D01*
X194685949Y-73642802D02*
X194892802Y-73435949D01*
X195407198Y-74364051D02*
X195614051Y-74157198D01*
X218450000Y-49170000D02*
X219780000Y-49170000D01*
X219780000Y-51770000D02*
X219780000Y-100090000D01*
X214580000Y-49170000D02*
X217180000Y-49170000D01*
X217180000Y-51770000D02*
X219780000Y-51770000D01*
X214580000Y-100090000D02*
X219780000Y-100090000D01*
X217180000Y-49170000D02*
X217180000Y-51770000D01*
X219780000Y-49170000D02*
X219780000Y-50500000D01*
X214580000Y-49170000D02*
X214580000Y-100090000D01*
X222045276Y-84072500D02*
X222554724Y-84072500D01*
X222045276Y-83027500D02*
X222554724Y-83027500D01*
X192400420Y-71610654D02*
X192760654Y-71250420D01*
X193139346Y-72349580D02*
X193499580Y-71989346D01*
D11*
X194668555Y-79350000D02*
X194191258Y-79827297D01*
X187350000Y-72031445D02*
X186872703Y-72508742D01*
X187350000Y-86668555D02*
X186872703Y-86191258D01*
X187350000Y-86668555D02*
X187756586Y-86261969D01*
X180031445Y-79350000D02*
X180508742Y-79827297D01*
X194668555Y-79350000D02*
X194191258Y-78872703D01*
X187756586Y-86261969D02*
X188658148Y-87163530D01*
X187350000Y-72031445D02*
X187827297Y-72508742D01*
X180031445Y-79350000D02*
X180508742Y-78872703D01*
D12*
X236605000Y-30645000D02*
X236605000Y-29755000D01*
X236605000Y-23795000D02*
X236605000Y-22905000D01*
X239155000Y-24285000D02*
X239155000Y-29265000D01*
X243395000Y-30645000D02*
X243395000Y-22905000D01*
X243395000Y-22905000D02*
X239545000Y-22905000D01*
X236905000Y-30645000D02*
X236605000Y-30645000D01*
X236605000Y-23795000D02*
X236955000Y-23795000D01*
X236605000Y-29755000D02*
X236955000Y-29755000D01*
X239545000Y-30645000D02*
X243395000Y-30645000D01*
X236905000Y-22905000D02*
X236605000Y-22905000D01*
X236605000Y-20845000D02*
X236605000Y-19955000D01*
X243395000Y-20845000D02*
X243395000Y-13105000D01*
X243395000Y-13105000D02*
X239545000Y-13105000D01*
X236605000Y-13995000D02*
X236605000Y-13105000D01*
X239545000Y-20845000D02*
X243395000Y-20845000D01*
X236905000Y-20845000D02*
X236605000Y-20845000D01*
X236905000Y-13105000D02*
X236605000Y-13105000D01*
X236605000Y-19955000D02*
X236955000Y-19955000D01*
X239155000Y-14485000D02*
X239155000Y-19465000D01*
X236605000Y-13995000D02*
X236955000Y-13995000D01*
X236905000Y-32680000D02*
X236605000Y-32680000D01*
X236605000Y-39530000D02*
X236955000Y-39530000D01*
X243395000Y-32680000D02*
X239545000Y-32680000D01*
X236605000Y-40420000D02*
X236605000Y-39530000D01*
X236605000Y-33570000D02*
X236955000Y-33570000D01*
X236905000Y-40420000D02*
X236605000Y-40420000D01*
X236605000Y-33570000D02*
X236605000Y-32680000D01*
X239155000Y-34060000D02*
X239155000Y-39040000D01*
X243395000Y-40420000D02*
X243395000Y-32680000D01*
X239545000Y-40420000D02*
X243395000Y-40420000D01*
M02*
