M48
; DRILL file {KiCad 6.99.0-dde629330d~145~ubuntu21.04.1} date Sun 09 Jan 2022 07:56:00 GMT
; FORMAT={-:-/ absolute / inch / decimal}
; #@! TF.CreationDate,2022-01-09T07:56:00+00:00
; #@! TF.GenerationSoftware,Kicad,Pcbnew,6.99.0-dde629330d~145~ubuntu21.04.1
; #@! TF.FileFunction,Plated,1,2,PTH
FMAT,2
INCH
; #@! TA.AperFunction,Plated,PTH,ViaDrill
T1C0.0157
; #@! TA.AperFunction,Plated,PTH,ViaDrill
T2C0.0315
; #@! TA.AperFunction,Plated,PTH,ComponentDrill
T3C0.0394
; #@! TA.AperFunction,Plated,PTH,ComponentDrill
T4C0.0512
%
G90
G05
T1
X5.8216Y-4.0787
X6.0472Y-4.0728
X6.1791Y-3.7402
X6.3937Y-4.1161
X6.4114Y-3.9469
X6.5591Y-4.0059
X6.6063Y-3.8563
X6.6181Y-3.7854
X6.6496Y-3.6594
X6.9429Y-2.935
X7.1041Y-3.5254
X7.1732Y-3.1083
X7.187Y-2.8425
X7.2165Y-3.0846
X7.25Y-4.1417
X7.2579Y-2.815
X7.2598Y-3.0984
X7.2756Y-2.6634
X7.3366Y-3.1417
X7.3957Y-2.9272
X7.437Y-3.0098
X7.4705Y-3.1339
X7.6591Y-2.9335
X7.9823Y-2.7942
T2
X5.3917Y-4.003
X5.6516Y-4.1516
X5.752Y-4.1535
X5.9508Y-4.1535
X6.1476Y-3.9291
X6.1496Y-4.1535
X6.3484Y-3.7185
X6.5886Y-3.7224
X6.7697Y-3.9626
X6.8091Y-2.7077
X6.8858Y-3.4173
X7.5276Y-3.0925
X7.5492Y-2.5965
X7.8268Y-2.4114
X7.8583Y-3.1634
X7.8661Y-3.7165
X8.0531Y-4.1299
X8.1201Y-2.2874
X8.2244Y-2.0256
X8.2382Y-2.185
X8.25Y-3.7067
X8.2913Y-3.1594
X8.3248Y-2.4154
T3
X8.5004Y-1.9882
X8.5004Y-2.0882
X8.5004Y-2.1882
X8.5004Y-2.2882
X8.5004Y-2.3882
X8.5004Y-2.4882
X8.5004Y-2.5882
X8.5004Y-2.6882
X8.5004Y-2.7882
X8.5004Y-2.8882
X8.5004Y-2.9882
X8.5004Y-3.0882
X8.5004Y-3.1882
X8.5004Y-3.2882
X8.5004Y-3.3882
X8.5004Y-3.4882
X8.5004Y-3.5882
X8.5004Y-3.6882
X8.5004Y-3.7882
X8.5004Y-3.8882
X8.6004Y-1.9882
X8.6004Y-2.0882
X8.6004Y-2.1882
X8.6004Y-2.2882
X8.6004Y-2.3882
X8.6004Y-2.4882
X8.6004Y-2.5882
X8.6004Y-2.6882
X8.6004Y-2.7882
X8.6004Y-2.8882
X8.6004Y-2.9882
X8.6004Y-3.0882
X8.6004Y-3.1882
X8.6004Y-3.2882
X8.6004Y-3.3882
X8.6004Y-3.4882
X8.6004Y-3.5882
X8.6004Y-3.6882
X8.6004Y-3.7882
X8.6004Y-3.8882
X9.4774Y-0.5797
X9.4774Y-0.7569
X9.4774Y-0.9656
X9.4774Y-1.1427
X9.4774Y-1.3504
X9.4774Y-1.5276
T4
X9.3789Y-0.5305
X9.3789Y-0.8061
X9.3789Y-0.9163
X9.3789Y-1.1919
X9.3789Y-1.3012
X9.3789Y-1.5768
T0
M30
