G04 #@! TF.GenerationSoftware,KiCad,Pcbnew,6.99.0-dde629330d~145~ubuntu21.04.1*
G04 #@! TF.CreationDate,2022-01-09T07:55:56+00:00*
G04 #@! TF.ProjectId,videoslotadapter,76696465-6f73-46c6-9f74-616461707465,rev?*
G04 #@! TF.SameCoordinates,Original*
G04 #@! TF.FileFunction,Soldermask,Top*
G04 #@! TF.FilePolarity,Negative*
%FSLAX46Y46*%
G04 Gerber Fmt 4.6, Leading zero omitted, Abs format (unit mm)*
G04 Created by KiCad (PCBNEW 6.99.0-dde629330d~145~ubuntu21.04.1) date 2022-01-09 07:55:56*
%MOMM*%
%LPD*%
G01*
G04 APERTURE LIST*
G04 Aperture macros list*
%AMRoundRect*
0 Rectangle with rounded corners*
0 $1 Rounding radius*
0 $2 $3 $4 $5 $6 $7 $8 $9 X,Y pos of 4 corners*
0 Add a 4 corners polygon primitive as box body*
4,1,4,$2,$3,$4,$5,$6,$7,$8,$9,$2,$3,0*
0 Add four circle primitives for the rounded corners*
1,1,$1+$1,$2,$3*
1,1,$1+$1,$4,$5*
1,1,$1+$1,$6,$7*
1,1,$1+$1,$8,$9*
0 Add four rect primitives between the rounded corners*
20,1,$1+$1,$2,$3,$4,$5,0*
20,1,$1+$1,$4,$5,$6,$7,0*
20,1,$1+$1,$6,$7,$8,$9,0*
20,1,$1+$1,$8,$9,$2,$3,0*%
G04 Aperture macros list end*
%ADD10RoundRect,0.200000X-0.890000X-3.810000X0.890000X-3.810000X0.890000X3.810000X-0.890000X3.810000X0*%
%ADD11RoundRect,0.437500X0.044194X0.380070X-0.380070X-0.044194X-0.044194X-0.380070X0.380070X0.044194X0*%
%ADD12RoundRect,0.437500X0.380070X-0.044194X-0.044194X0.380070X-0.380070X0.044194X0.044194X-0.380070X0*%
%ADD13RoundRect,0.437500X-0.044194X-0.380070X0.380070X0.044194X0.044194X0.380070X-0.380070X-0.044194X0*%
%ADD14C,3.600000*%
%ADD15RoundRect,0.200000X-0.850000X-0.850000X0.850000X-0.850000X0.850000X0.850000X-0.850000X0.850000X0*%
%ADD16O,2.100000X2.100000*%
%ADD17RoundRect,0.437500X-0.250000X-0.237500X0.250000X-0.237500X0.250000X0.237500X-0.250000X0.237500X0*%
%ADD18RoundRect,0.437500X-0.008839X-0.344715X0.344715X0.008839X0.008839X0.344715X-0.344715X-0.008839X0*%
%ADD19RoundRect,0.200000X0.724784X-0.335876X-0.335876X0.724784X-0.724784X0.335876X0.335876X-0.724784X0*%
%ADD20RoundRect,0.200000X0.335876X0.724784X-0.724784X-0.335876X-0.335876X-0.724784X0.724784X0.335876X0*%
%ADD21C,3.100000*%
%ADD22C,2.600000*%
%ADD23C,2.100000*%
G04 APERTURE END LIST*
D10*
X209554000Y-112272000D03*
X207014000Y-112272000D03*
X204474000Y-112272000D03*
X201934000Y-112272000D03*
X199394000Y-112272000D03*
X196854000Y-112272000D03*
X194314000Y-112272000D03*
X191774000Y-112272000D03*
X189234000Y-112272000D03*
X186694000Y-112272000D03*
X184154000Y-112272000D03*
X181614000Y-112272000D03*
X179074000Y-112272000D03*
X176534000Y-112272000D03*
X173994000Y-112272000D03*
X171454000Y-112272000D03*
X168914000Y-112272000D03*
X166374000Y-112272000D03*
X156214000Y-112272000D03*
X153674000Y-112272000D03*
X151134000Y-112272000D03*
X148594000Y-112272000D03*
X146054000Y-112272000D03*
X143514000Y-112272000D03*
X140974000Y-112272000D03*
X138434000Y-112272000D03*
X135894000Y-112272000D03*
X133354000Y-112272000D03*
X130814000Y-112272000D03*
X128274000Y-112272000D03*
X125734000Y-112272000D03*
X123194000Y-112272000D03*
X120654000Y-112272000D03*
X118114000Y-112272000D03*
X115574000Y-112272000D03*
X113034000Y-112272000D03*
D11*
X178859880Y-83340120D03*
X177640120Y-84559880D03*
D12*
X182550000Y-72200000D03*
X181330240Y-70980240D03*
D13*
X194540120Y-74509880D03*
X195759880Y-73290120D03*
D14*
X236200000Y-54450000D03*
X236050000Y-96100000D03*
D15*
X218450000Y-50500000D03*
D16*
X215910000Y-50500000D03*
X218450000Y-53040000D03*
X215910000Y-53040000D03*
X218450000Y-55580000D03*
X215910000Y-55580000D03*
X218450000Y-58120000D03*
X215910000Y-58120000D03*
X218450000Y-60660000D03*
X215910000Y-60660000D03*
X218450000Y-63200000D03*
X215910000Y-63200000D03*
X218450000Y-65740000D03*
X215910000Y-65740000D03*
X218450000Y-68280000D03*
X215910000Y-68280000D03*
X218450000Y-70820000D03*
X215910000Y-70820000D03*
X218450000Y-73360000D03*
X215910000Y-73360000D03*
X218450000Y-75900000D03*
X215910000Y-75900000D03*
X218450000Y-78440000D03*
X215910000Y-78440000D03*
X218450000Y-80980000D03*
X215910000Y-80980000D03*
X218450000Y-83520000D03*
X215910000Y-83520000D03*
X218450000Y-86060000D03*
X215910000Y-86060000D03*
X218450000Y-88600000D03*
X215910000Y-88600000D03*
X218450000Y-91140000D03*
X215910000Y-91140000D03*
X218450000Y-93680000D03*
X215910000Y-93680000D03*
X218450000Y-96220000D03*
X215910000Y-96220000D03*
X218450000Y-98760000D03*
X215910000Y-98760000D03*
D17*
X221387500Y-83550000D03*
X223212500Y-83550000D03*
D18*
X192304765Y-72445235D03*
X193595235Y-71154765D03*
D19*
X188552082Y-86208936D03*
X189117767Y-85643250D03*
X189683452Y-85077565D03*
X190249138Y-84511880D03*
X190814823Y-83946194D03*
X191380509Y-83380509D03*
X191946194Y-82814823D03*
X192511880Y-82249138D03*
X193077565Y-81683452D03*
X193643250Y-81117767D03*
X194208936Y-80552082D03*
D20*
X194208936Y-78147918D03*
X193643250Y-77582233D03*
X193077565Y-77016548D03*
X192511880Y-76450862D03*
X191946194Y-75885177D03*
X191380509Y-75319491D03*
X190814823Y-74753806D03*
X190249138Y-74188120D03*
X189683452Y-73622435D03*
X189117767Y-73056750D03*
X188552082Y-72491064D03*
D19*
X186147918Y-72491064D03*
X185582233Y-73056750D03*
X185016548Y-73622435D03*
X184450862Y-74188120D03*
X183885177Y-74753806D03*
X183319491Y-75319491D03*
X182753806Y-75885177D03*
X182188120Y-76450862D03*
X181622435Y-77016548D03*
X181056750Y-77582233D03*
X180491064Y-78147918D03*
D20*
X180491064Y-80552082D03*
X181056750Y-81117767D03*
X181622435Y-81683452D03*
X182188120Y-82249138D03*
X182753806Y-82814823D03*
X183319491Y-83380509D03*
X183885177Y-83946194D03*
X184450862Y-84511880D03*
X185016548Y-85077565D03*
X185582233Y-85643250D03*
X186147918Y-86208936D03*
D21*
X217200000Y-103600000D03*
X217200000Y-45600000D03*
X240200000Y-45600000D03*
X240200000Y-103600000D03*
D22*
X238225000Y-23275000D03*
X238225000Y-30275000D03*
D23*
X240725000Y-24525000D03*
X240725000Y-29025000D03*
D22*
X238225000Y-20475000D03*
X238225000Y-13475000D03*
D23*
X240725000Y-14725000D03*
X240725000Y-19225000D03*
D22*
X238225000Y-40050000D03*
X238225000Y-33050000D03*
D23*
X240725000Y-34300000D03*
X240725000Y-38800000D03*
M02*
