G04 #@! TF.GenerationSoftware,KiCad,Pcbnew,5.1.9-73d0e3b20d~88~ubuntu20.10.1*
G04 #@! TF.CreationDate,2021-04-11T18:11:58+01:00*
G04 #@! TF.ProjectId,videoslotadapter,76696465-6f73-46c6-9f74-616461707465,rev?*
G04 #@! TF.SameCoordinates,Original*
G04 #@! TF.FileFunction,Legend,Top*
G04 #@! TF.FilePolarity,Positive*
%FSLAX46Y46*%
G04 Gerber Fmt 4.6, Leading zero omitted, Abs format (unit mm)*
G04 Created by KiCad (PCBNEW 5.1.9-73d0e3b20d~88~ubuntu20.10.1) date 2021-04-11 18:11:58*
%MOMM*%
%LPD*%
G01*
G04 APERTURE LIST*
%ADD10C,0.150000*%
%ADD11C,0.300000*%
%ADD12C,0.120000*%
G04 APERTURE END LIST*
D10*
X107441597Y-74144831D02*
X107584454Y-74192450D01*
X107632073Y-74240069D01*
X107679692Y-74335307D01*
X107679692Y-74478164D01*
X107632073Y-74573402D01*
X107584454Y-74621021D01*
X107489216Y-74668640D01*
X107108263Y-74668640D01*
X107108263Y-73668640D01*
X107441597Y-73668640D01*
X107536835Y-73716260D01*
X107584454Y-73763879D01*
X107632073Y-73859117D01*
X107632073Y-73954355D01*
X107584454Y-74049593D01*
X107536835Y-74097212D01*
X107441597Y-74144831D01*
X107108263Y-74144831D01*
X108536835Y-74001974D02*
X108536835Y-74668640D01*
X108108263Y-74001974D02*
X108108263Y-74525783D01*
X108155882Y-74621021D01*
X108251120Y-74668640D01*
X108393978Y-74668640D01*
X108489216Y-74621021D01*
X108536835Y-74573402D01*
X108870168Y-74001974D02*
X109251120Y-74001974D01*
X109013025Y-73668640D02*
X109013025Y-74525783D01*
X109060644Y-74621021D01*
X109155882Y-74668640D01*
X109251120Y-74668640D01*
X109441597Y-74001974D02*
X109822549Y-74001974D01*
X109584454Y-73668640D02*
X109584454Y-74525783D01*
X109632073Y-74621021D01*
X109727311Y-74668640D01*
X109822549Y-74668640D01*
X110298740Y-74668640D02*
X110203501Y-74621021D01*
X110155882Y-74573402D01*
X110108263Y-74478164D01*
X110108263Y-74192450D01*
X110155882Y-74097212D01*
X110203501Y-74049593D01*
X110298740Y-74001974D01*
X110441597Y-74001974D01*
X110536835Y-74049593D01*
X110584454Y-74097212D01*
X110632073Y-74192450D01*
X110632073Y-74478164D01*
X110584454Y-74573402D01*
X110536835Y-74621021D01*
X110441597Y-74668640D01*
X110298740Y-74668640D01*
X111060644Y-74001974D02*
X111060644Y-74668640D01*
X111060644Y-74097212D02*
X111108263Y-74049593D01*
X111203501Y-74001974D01*
X111346359Y-74001974D01*
X111441597Y-74049593D01*
X111489216Y-74144831D01*
X111489216Y-74668640D01*
X202414737Y-73382831D02*
X202557594Y-73430450D01*
X202605213Y-73478069D01*
X202652832Y-73573307D01*
X202652832Y-73716164D01*
X202605213Y-73811402D01*
X202557594Y-73859021D01*
X202462356Y-73906640D01*
X202081403Y-73906640D01*
X202081403Y-72906640D01*
X202414737Y-72906640D01*
X202509975Y-72954260D01*
X202557594Y-73001879D01*
X202605213Y-73097117D01*
X202605213Y-73192355D01*
X202557594Y-73287593D01*
X202509975Y-73335212D01*
X202414737Y-73382831D01*
X202081403Y-73382831D01*
X203509975Y-73239974D02*
X203509975Y-73906640D01*
X203081403Y-73239974D02*
X203081403Y-73763783D01*
X203129022Y-73859021D01*
X203224260Y-73906640D01*
X203367118Y-73906640D01*
X203462356Y-73859021D01*
X203509975Y-73811402D01*
X203843308Y-73239974D02*
X204224260Y-73239974D01*
X203986165Y-72906640D02*
X203986165Y-73763783D01*
X204033784Y-73859021D01*
X204129022Y-73906640D01*
X204224260Y-73906640D01*
X204414737Y-73239974D02*
X204795689Y-73239974D01*
X204557594Y-72906640D02*
X204557594Y-73763783D01*
X204605213Y-73859021D01*
X204700451Y-73906640D01*
X204795689Y-73906640D01*
X205271880Y-73906640D02*
X205176641Y-73859021D01*
X205129022Y-73811402D01*
X205081403Y-73716164D01*
X205081403Y-73430450D01*
X205129022Y-73335212D01*
X205176641Y-73287593D01*
X205271880Y-73239974D01*
X205414737Y-73239974D01*
X205509975Y-73287593D01*
X205557594Y-73335212D01*
X205605213Y-73430450D01*
X205605213Y-73716164D01*
X205557594Y-73811402D01*
X205509975Y-73859021D01*
X205414737Y-73906640D01*
X205271880Y-73906640D01*
X206033784Y-73239974D02*
X206033784Y-73906640D01*
X206033784Y-73335212D02*
X206081403Y-73287593D01*
X206176641Y-73239974D01*
X206319499Y-73239974D01*
X206414737Y-73287593D01*
X206462356Y-73382831D01*
X206462356Y-73906640D01*
X208411942Y-78113146D02*
X208888133Y-78113146D01*
X208316704Y-78398860D02*
X208650038Y-77398860D01*
X208983371Y-78398860D01*
X209316704Y-78398860D02*
X209316704Y-77732194D01*
X209316704Y-77827432D02*
X209364323Y-77779813D01*
X209459561Y-77732194D01*
X209602419Y-77732194D01*
X209697657Y-77779813D01*
X209745276Y-77875051D01*
X209745276Y-78398860D01*
X209745276Y-77875051D02*
X209792895Y-77779813D01*
X209888133Y-77732194D01*
X210030990Y-77732194D01*
X210126228Y-77779813D01*
X210173847Y-77875051D01*
X210173847Y-78398860D01*
X210650038Y-78398860D02*
X210650038Y-77732194D01*
X210650038Y-77398860D02*
X210602419Y-77446480D01*
X210650038Y-77494099D01*
X210697657Y-77446480D01*
X210650038Y-77398860D01*
X210650038Y-77494099D01*
X211554800Y-77732194D02*
X211554800Y-78541718D01*
X211507180Y-78636956D01*
X211459561Y-78684575D01*
X211364323Y-78732194D01*
X211221466Y-78732194D01*
X211126228Y-78684575D01*
X211554800Y-78351241D02*
X211459561Y-78398860D01*
X211269085Y-78398860D01*
X211173847Y-78351241D01*
X211126228Y-78303622D01*
X211078609Y-78208384D01*
X211078609Y-77922670D01*
X211126228Y-77827432D01*
X211173847Y-77779813D01*
X211269085Y-77732194D01*
X211459561Y-77732194D01*
X211554800Y-77779813D01*
X212459561Y-78398860D02*
X212459561Y-77875051D01*
X212411942Y-77779813D01*
X212316704Y-77732194D01*
X212126228Y-77732194D01*
X212030990Y-77779813D01*
X212459561Y-78351241D02*
X212364323Y-78398860D01*
X212126228Y-78398860D01*
X212030990Y-78351241D01*
X211983371Y-78256003D01*
X211983371Y-78160765D01*
X212030990Y-78065527D01*
X212126228Y-78017908D01*
X212364323Y-78017908D01*
X212459561Y-77970289D01*
X213602419Y-77732194D02*
X213840514Y-78398860D01*
X214078609Y-77732194D01*
X214459561Y-78398860D02*
X214459561Y-77732194D01*
X214459561Y-77398860D02*
X214411942Y-77446480D01*
X214459561Y-77494099D01*
X214507180Y-77446480D01*
X214459561Y-77398860D01*
X214459561Y-77494099D01*
X215364323Y-78398860D02*
X215364323Y-77398860D01*
X215364323Y-78351241D02*
X215269085Y-78398860D01*
X215078609Y-78398860D01*
X214983371Y-78351241D01*
X214935752Y-78303622D01*
X214888133Y-78208384D01*
X214888133Y-77922670D01*
X214935752Y-77827432D01*
X214983371Y-77779813D01*
X215078609Y-77732194D01*
X215269085Y-77732194D01*
X215364323Y-77779813D01*
X216221466Y-78351241D02*
X216126228Y-78398860D01*
X215935752Y-78398860D01*
X215840514Y-78351241D01*
X215792895Y-78256003D01*
X215792895Y-77875051D01*
X215840514Y-77779813D01*
X215935752Y-77732194D01*
X216126228Y-77732194D01*
X216221466Y-77779813D01*
X216269085Y-77875051D01*
X216269085Y-77970289D01*
X215792895Y-78065527D01*
X216840514Y-78398860D02*
X216745276Y-78351241D01*
X216697657Y-78303622D01*
X216650038Y-78208384D01*
X216650038Y-77922670D01*
X216697657Y-77827432D01*
X216745276Y-77779813D01*
X216840514Y-77732194D01*
X216983371Y-77732194D01*
X217078609Y-77779813D01*
X217126228Y-77827432D01*
X217173847Y-77922670D01*
X217173847Y-78208384D01*
X217126228Y-78303622D01*
X217078609Y-78351241D01*
X216983371Y-78398860D01*
X216840514Y-78398860D01*
X218316704Y-78351241D02*
X218411942Y-78398860D01*
X218602419Y-78398860D01*
X218697657Y-78351241D01*
X218745276Y-78256003D01*
X218745276Y-78208384D01*
X218697657Y-78113146D01*
X218602419Y-78065527D01*
X218459561Y-78065527D01*
X218364323Y-78017908D01*
X218316704Y-77922670D01*
X218316704Y-77875051D01*
X218364323Y-77779813D01*
X218459561Y-77732194D01*
X218602419Y-77732194D01*
X218697657Y-77779813D01*
X219316704Y-78398860D02*
X219221466Y-78351241D01*
X219173847Y-78256003D01*
X219173847Y-77398860D01*
X219840514Y-78398860D02*
X219745276Y-78351241D01*
X219697657Y-78303622D01*
X219650038Y-78208384D01*
X219650038Y-77922670D01*
X219697657Y-77827432D01*
X219745276Y-77779813D01*
X219840514Y-77732194D01*
X219983371Y-77732194D01*
X220078609Y-77779813D01*
X220126228Y-77827432D01*
X220173847Y-77922670D01*
X220173847Y-78208384D01*
X220126228Y-78303622D01*
X220078609Y-78351241D01*
X219983371Y-78398860D01*
X219840514Y-78398860D01*
X220459561Y-77732194D02*
X220840514Y-77732194D01*
X220602419Y-77398860D02*
X220602419Y-78256003D01*
X220650038Y-78351241D01*
X220745276Y-78398860D01*
X220840514Y-78398860D01*
X222507180Y-78398860D02*
X222173847Y-77922670D01*
X221935752Y-78398860D02*
X221935752Y-77398860D01*
X222316704Y-77398860D01*
X222411942Y-77446480D01*
X222459561Y-77494099D01*
X222507180Y-77589337D01*
X222507180Y-77732194D01*
X222459561Y-77827432D01*
X222411942Y-77875051D01*
X222316704Y-77922670D01*
X221935752Y-77922670D01*
X223459561Y-77446480D02*
X223364323Y-77398860D01*
X223221466Y-77398860D01*
X223078609Y-77446480D01*
X222983371Y-77541718D01*
X222935752Y-77636956D01*
X222888133Y-77827432D01*
X222888133Y-77970289D01*
X222935752Y-78160765D01*
X222983371Y-78256003D01*
X223078609Y-78351241D01*
X223221466Y-78398860D01*
X223316704Y-78398860D01*
X223459561Y-78351241D01*
X223507180Y-78303622D01*
X223507180Y-77970289D01*
X223316704Y-77970289D01*
X224269085Y-77875051D02*
X224411942Y-77922670D01*
X224459561Y-77970289D01*
X224507180Y-78065527D01*
X224507180Y-78208384D01*
X224459561Y-78303622D01*
X224411942Y-78351241D01*
X224316704Y-78398860D01*
X223935752Y-78398860D01*
X223935752Y-77398860D01*
X224269085Y-77398860D01*
X224364323Y-77446480D01*
X224411942Y-77494099D01*
X224459561Y-77589337D01*
X224459561Y-77684575D01*
X224411942Y-77779813D01*
X224364323Y-77827432D01*
X224269085Y-77875051D01*
X223935752Y-77875051D01*
X224792895Y-77732194D02*
X225173847Y-77732194D01*
X224935752Y-77398860D02*
X224935752Y-78256003D01*
X224983371Y-78351241D01*
X225078609Y-78398860D01*
X225173847Y-78398860D01*
X225650038Y-78398860D02*
X225554800Y-78351241D01*
X225507180Y-78303622D01*
X225459561Y-78208384D01*
X225459561Y-77922670D01*
X225507180Y-77827432D01*
X225554800Y-77779813D01*
X225650038Y-77732194D01*
X225792895Y-77732194D01*
X225888133Y-77779813D01*
X225935752Y-77827432D01*
X225983371Y-77922670D01*
X225983371Y-78208384D01*
X225935752Y-78303622D01*
X225888133Y-78351241D01*
X225792895Y-78398860D01*
X225650038Y-78398860D01*
X226411942Y-78398860D02*
X226411942Y-77398860D01*
X226411942Y-77875051D02*
X226983371Y-77875051D01*
X226983371Y-78398860D02*
X226983371Y-77398860D01*
X227459561Y-78398860D02*
X227459561Y-77398860D01*
X227697657Y-77398860D01*
X227840514Y-77446480D01*
X227935752Y-77541718D01*
X227983371Y-77636956D01*
X228030990Y-77827432D01*
X228030990Y-77970289D01*
X227983371Y-78160765D01*
X227935752Y-78256003D01*
X227840514Y-78351241D01*
X227697657Y-78398860D01*
X227459561Y-78398860D01*
X228459561Y-78398860D02*
X228459561Y-77398860D01*
X228792895Y-78113146D01*
X229126228Y-77398860D01*
X229126228Y-78398860D01*
X229602419Y-78398860D02*
X229602419Y-77398860D01*
X231411942Y-78303622D02*
X231364323Y-78351241D01*
X231221466Y-78398860D01*
X231126228Y-78398860D01*
X230983371Y-78351241D01*
X230888133Y-78256003D01*
X230840514Y-78160765D01*
X230792895Y-77970289D01*
X230792895Y-77827432D01*
X230840514Y-77636956D01*
X230888133Y-77541718D01*
X230983371Y-77446480D01*
X231126228Y-77398860D01*
X231221466Y-77398860D01*
X231364323Y-77446480D01*
X231411942Y-77494099D01*
X231840514Y-78398860D02*
X231840514Y-77398860D01*
X232221466Y-77398860D01*
X232316704Y-77446480D01*
X232364323Y-77494099D01*
X232411942Y-77589337D01*
X232411942Y-77732194D01*
X232364323Y-77827432D01*
X232316704Y-77875051D01*
X232221466Y-77922670D01*
X231840514Y-77922670D01*
X233316704Y-78398860D02*
X232840514Y-78398860D01*
X232840514Y-77398860D01*
X233650038Y-78398860D02*
X233650038Y-77398860D01*
X233888133Y-77398860D01*
X234030990Y-77446480D01*
X234126228Y-77541718D01*
X234173847Y-77636956D01*
X234221466Y-77827432D01*
X234221466Y-77970289D01*
X234173847Y-78160765D01*
X234126228Y-78256003D01*
X234030990Y-78351241D01*
X233888133Y-78398860D01*
X233650038Y-78398860D01*
X235316704Y-77732194D02*
X235554800Y-78398860D01*
X235792895Y-77732194D01*
X236697657Y-78398860D02*
X236126228Y-78398860D01*
X236411942Y-78398860D02*
X236411942Y-77398860D01*
X236316704Y-77541718D01*
X236221466Y-77636956D01*
X236126228Y-77684575D01*
X215792895Y-80429813D02*
X215745276Y-80382194D01*
X215650038Y-80239337D01*
X215602419Y-80144099D01*
X215554800Y-80001241D01*
X215507180Y-79763146D01*
X215507180Y-79572670D01*
X215554800Y-79334575D01*
X215602419Y-79191718D01*
X215650038Y-79096480D01*
X215745276Y-78953622D01*
X215792895Y-78906003D01*
X216745276Y-79953622D02*
X216697657Y-80001241D01*
X216554800Y-80048860D01*
X216459561Y-80048860D01*
X216316704Y-80001241D01*
X216221466Y-79906003D01*
X216173847Y-79810765D01*
X216126228Y-79620289D01*
X216126228Y-79477432D01*
X216173847Y-79286956D01*
X216221466Y-79191718D01*
X216316704Y-79096480D01*
X216459561Y-79048860D01*
X216554800Y-79048860D01*
X216697657Y-79096480D01*
X216745276Y-79144099D01*
X217078609Y-80429813D02*
X217126228Y-80382194D01*
X217221466Y-80239337D01*
X217269085Y-80144099D01*
X217316704Y-80001241D01*
X217364323Y-79763146D01*
X217364323Y-79572670D01*
X217316704Y-79334575D01*
X217269085Y-79191718D01*
X217221466Y-79096480D01*
X217126228Y-78953622D01*
X217078609Y-78906003D01*
X218554800Y-79144099D02*
X218602419Y-79096480D01*
X218697657Y-79048860D01*
X218935752Y-79048860D01*
X219030990Y-79096480D01*
X219078609Y-79144099D01*
X219126228Y-79239337D01*
X219126228Y-79334575D01*
X219078609Y-79477432D01*
X218507180Y-80048860D01*
X219126228Y-80048860D01*
X219745276Y-79048860D02*
X219840514Y-79048860D01*
X219935752Y-79096480D01*
X219983371Y-79144099D01*
X220030990Y-79239337D01*
X220078609Y-79429813D01*
X220078609Y-79667908D01*
X220030990Y-79858384D01*
X219983371Y-79953622D01*
X219935752Y-80001241D01*
X219840514Y-80048860D01*
X219745276Y-80048860D01*
X219650038Y-80001241D01*
X219602419Y-79953622D01*
X219554800Y-79858384D01*
X219507180Y-79667908D01*
X219507180Y-79429813D01*
X219554800Y-79239337D01*
X219602419Y-79144099D01*
X219650038Y-79096480D01*
X219745276Y-79048860D01*
X220459561Y-79144099D02*
X220507180Y-79096480D01*
X220602419Y-79048860D01*
X220840514Y-79048860D01*
X220935752Y-79096480D01*
X220983371Y-79144099D01*
X221030990Y-79239337D01*
X221030990Y-79334575D01*
X220983371Y-79477432D01*
X220411942Y-80048860D01*
X221030990Y-80048860D01*
X221983371Y-80048860D02*
X221411942Y-80048860D01*
X221697657Y-80048860D02*
X221697657Y-79048860D01*
X221602419Y-79191718D01*
X221507180Y-79286956D01*
X221411942Y-79334575D01*
X223650038Y-80048860D02*
X223173847Y-80048860D01*
X223173847Y-79048860D01*
X223983371Y-80048860D02*
X223983371Y-79382194D01*
X223983371Y-79048860D02*
X223935752Y-79096480D01*
X223983371Y-79144099D01*
X224030990Y-79096480D01*
X223983371Y-79048860D01*
X223983371Y-79144099D01*
X224459561Y-79382194D02*
X224459561Y-80048860D01*
X224459561Y-79477432D02*
X224507180Y-79429813D01*
X224602419Y-79382194D01*
X224745276Y-79382194D01*
X224840514Y-79429813D01*
X224888133Y-79525051D01*
X224888133Y-80048860D01*
X225792895Y-79382194D02*
X225792895Y-80048860D01*
X225364323Y-79382194D02*
X225364323Y-79906003D01*
X225411942Y-80001241D01*
X225507180Y-80048860D01*
X225650038Y-80048860D01*
X225745276Y-80001241D01*
X225792895Y-79953622D01*
X226173847Y-80048860D02*
X226697657Y-79382194D01*
X226173847Y-79382194D02*
X226697657Y-80048860D01*
X227364323Y-79048860D02*
X227364323Y-79763146D01*
X227316704Y-79906003D01*
X227221466Y-80001241D01*
X227078609Y-80048860D01*
X226983371Y-80048860D01*
X228221466Y-80001241D02*
X228126228Y-80048860D01*
X227935752Y-80048860D01*
X227840514Y-80001241D01*
X227792895Y-79906003D01*
X227792895Y-79525051D01*
X227840514Y-79429813D01*
X227935752Y-79382194D01*
X228126228Y-79382194D01*
X228221466Y-79429813D01*
X228269085Y-79525051D01*
X228269085Y-79620289D01*
X227792895Y-79715527D01*
X229126228Y-80048860D02*
X229126228Y-79048860D01*
X229126228Y-80001241D02*
X229030990Y-80048860D01*
X228840514Y-80048860D01*
X228745276Y-80001241D01*
X228697657Y-79953622D01*
X228650038Y-79858384D01*
X228650038Y-79572670D01*
X228697657Y-79477432D01*
X228745276Y-79429813D01*
X228840514Y-79382194D01*
X229030990Y-79382194D01*
X229126228Y-79429813D01*
X229602419Y-80048860D02*
X229602419Y-79382194D01*
X229602419Y-79048860D02*
X229554800Y-79096480D01*
X229602419Y-79144099D01*
X229650038Y-79096480D01*
X229602419Y-79048860D01*
X229602419Y-79144099D01*
X202959561Y-81175051D02*
X203102419Y-81222670D01*
X203150038Y-81270289D01*
X203197657Y-81365527D01*
X203197657Y-81508384D01*
X203150038Y-81603622D01*
X203102419Y-81651241D01*
X203007180Y-81698860D01*
X202626228Y-81698860D01*
X202626228Y-80698860D01*
X202959561Y-80698860D01*
X203054799Y-80746480D01*
X203102419Y-80794099D01*
X203150038Y-80889337D01*
X203150038Y-80984575D01*
X203102419Y-81079813D01*
X203054799Y-81127432D01*
X202959561Y-81175051D01*
X202626228Y-81175051D01*
X204054799Y-81698860D02*
X204054799Y-81175051D01*
X204007180Y-81079813D01*
X203911942Y-81032194D01*
X203721466Y-81032194D01*
X203626228Y-81079813D01*
X204054799Y-81651241D02*
X203959561Y-81698860D01*
X203721466Y-81698860D01*
X203626228Y-81651241D01*
X203578609Y-81556003D01*
X203578609Y-81460765D01*
X203626228Y-81365527D01*
X203721466Y-81317908D01*
X203959561Y-81317908D01*
X204054799Y-81270289D01*
X204483371Y-81651241D02*
X204578609Y-81698860D01*
X204769085Y-81698860D01*
X204864323Y-81651241D01*
X204911942Y-81556003D01*
X204911942Y-81508384D01*
X204864323Y-81413146D01*
X204769085Y-81365527D01*
X204626228Y-81365527D01*
X204530990Y-81317908D01*
X204483371Y-81222670D01*
X204483371Y-81175051D01*
X204530990Y-81079813D01*
X204626228Y-81032194D01*
X204769085Y-81032194D01*
X204864323Y-81079813D01*
X205721466Y-81651241D02*
X205626228Y-81698860D01*
X205435752Y-81698860D01*
X205340514Y-81651241D01*
X205292895Y-81556003D01*
X205292895Y-81175051D01*
X205340514Y-81079813D01*
X205435752Y-81032194D01*
X205626228Y-81032194D01*
X205721466Y-81079813D01*
X205769085Y-81175051D01*
X205769085Y-81270289D01*
X205292895Y-81365527D01*
X206626228Y-81698860D02*
X206626228Y-80698860D01*
X206626228Y-81651241D02*
X206530990Y-81698860D01*
X206340514Y-81698860D01*
X206245276Y-81651241D01*
X206197657Y-81603622D01*
X206150038Y-81508384D01*
X206150038Y-81222670D01*
X206197657Y-81127432D01*
X206245276Y-81079813D01*
X206340514Y-81032194D01*
X206530990Y-81032194D01*
X206626228Y-81079813D01*
X208007180Y-81698860D02*
X207911942Y-81651241D01*
X207864323Y-81603622D01*
X207816704Y-81508384D01*
X207816704Y-81222670D01*
X207864323Y-81127432D01*
X207911942Y-81079813D01*
X208007180Y-81032194D01*
X208150038Y-81032194D01*
X208245276Y-81079813D01*
X208292895Y-81127432D01*
X208340514Y-81222670D01*
X208340514Y-81508384D01*
X208292895Y-81603622D01*
X208245276Y-81651241D01*
X208150038Y-81698860D01*
X208007180Y-81698860D01*
X208769085Y-81032194D02*
X208769085Y-81698860D01*
X208769085Y-81127432D02*
X208816704Y-81079813D01*
X208911942Y-81032194D01*
X209054799Y-81032194D01*
X209150038Y-81079813D01*
X209197657Y-81175051D01*
X209197657Y-81698860D01*
X210340514Y-81032194D02*
X210530990Y-81698860D01*
X210721466Y-81222670D01*
X210911942Y-81698860D01*
X211102419Y-81032194D01*
X211626228Y-81698860D02*
X211530990Y-81651241D01*
X211483371Y-81603622D01*
X211435752Y-81508384D01*
X211435752Y-81222670D01*
X211483371Y-81127432D01*
X211530990Y-81079813D01*
X211626228Y-81032194D01*
X211769085Y-81032194D01*
X211864323Y-81079813D01*
X211911942Y-81127432D01*
X211959561Y-81222670D01*
X211959561Y-81508384D01*
X211911942Y-81603622D01*
X211864323Y-81651241D01*
X211769085Y-81698860D01*
X211626228Y-81698860D01*
X212388133Y-81698860D02*
X212388133Y-81032194D01*
X212388133Y-81222670D02*
X212435752Y-81127432D01*
X212483371Y-81079813D01*
X212578609Y-81032194D01*
X212673847Y-81032194D01*
X213007180Y-81698860D02*
X213007180Y-80698860D01*
X213102419Y-81317908D02*
X213388133Y-81698860D01*
X213388133Y-81032194D02*
X213007180Y-81413146D01*
X214578609Y-81698860D02*
X214578609Y-80698860D01*
X214578609Y-81079813D02*
X214673847Y-81032194D01*
X214864323Y-81032194D01*
X214959561Y-81079813D01*
X215007180Y-81127432D01*
X215054799Y-81222670D01*
X215054799Y-81508384D01*
X215007180Y-81603622D01*
X214959561Y-81651241D01*
X214864323Y-81698860D01*
X214673847Y-81698860D01*
X214578609Y-81651241D01*
X215388133Y-81032194D02*
X215626228Y-81698860D01*
X215864323Y-81032194D02*
X215626228Y-81698860D01*
X215530990Y-81936956D01*
X215483371Y-81984575D01*
X215388133Y-82032194D01*
X217007180Y-81698860D02*
X217007180Y-80698860D01*
X217911942Y-81698860D02*
X217911942Y-81175051D01*
X217864323Y-81079813D01*
X217769085Y-81032194D01*
X217578609Y-81032194D01*
X217483371Y-81079813D01*
X217911942Y-81651241D02*
X217816704Y-81698860D01*
X217578609Y-81698860D01*
X217483371Y-81651241D01*
X217435752Y-81556003D01*
X217435752Y-81460765D01*
X217483371Y-81365527D01*
X217578609Y-81317908D01*
X217816704Y-81317908D01*
X217911942Y-81270289D01*
X218388133Y-81032194D02*
X218388133Y-81698860D01*
X218388133Y-81127432D02*
X218435752Y-81079813D01*
X218530990Y-81032194D01*
X218673847Y-81032194D01*
X218769085Y-81079813D01*
X218816704Y-81175051D01*
X218816704Y-81698860D01*
X219245276Y-81651241D02*
X219388133Y-81698860D01*
X219626228Y-81698860D01*
X219721466Y-81651241D01*
X219769085Y-81603622D01*
X219816704Y-81508384D01*
X219816704Y-81413146D01*
X219769085Y-81317908D01*
X219721466Y-81270289D01*
X219626228Y-81222670D01*
X219435752Y-81175051D01*
X219340514Y-81127432D01*
X219292895Y-81079813D01*
X219245276Y-80984575D01*
X219245276Y-80889337D01*
X219292895Y-80794099D01*
X219340514Y-80746480D01*
X219435752Y-80698860D01*
X219673847Y-80698860D01*
X219816704Y-80746480D01*
X220578609Y-81175051D02*
X220721466Y-81222670D01*
X220769085Y-81270289D01*
X220816704Y-81365527D01*
X220816704Y-81508384D01*
X220769085Y-81603622D01*
X220721466Y-81651241D01*
X220626228Y-81698860D01*
X220245276Y-81698860D01*
X220245276Y-80698860D01*
X220578609Y-80698860D01*
X220673847Y-80746480D01*
X220721466Y-80794099D01*
X220769085Y-80889337D01*
X220769085Y-80984575D01*
X220721466Y-81079813D01*
X220673847Y-81127432D01*
X220578609Y-81175051D01*
X220245276Y-81175051D01*
X221292895Y-81651241D02*
X221292895Y-81698860D01*
X221245276Y-81794099D01*
X221197657Y-81841718D01*
X222483371Y-81698860D02*
X222483371Y-80698860D01*
X222911942Y-81698860D02*
X222911942Y-81175051D01*
X222864323Y-81079813D01*
X222769085Y-81032194D01*
X222626228Y-81032194D01*
X222530990Y-81079813D01*
X222483371Y-81127432D01*
X223530990Y-81698860D02*
X223435752Y-81651241D01*
X223388133Y-81603622D01*
X223340514Y-81508384D01*
X223340514Y-81222670D01*
X223388133Y-81127432D01*
X223435752Y-81079813D01*
X223530990Y-81032194D01*
X223673847Y-81032194D01*
X223769085Y-81079813D01*
X223816704Y-81127432D01*
X223864323Y-81222670D01*
X223864323Y-81508384D01*
X223816704Y-81603622D01*
X223769085Y-81651241D01*
X223673847Y-81698860D01*
X223530990Y-81698860D01*
X224721466Y-81032194D02*
X224721466Y-81841718D01*
X224673847Y-81936956D01*
X224626228Y-81984575D01*
X224530990Y-82032194D01*
X224388133Y-82032194D01*
X224292895Y-81984575D01*
X224721466Y-81651241D02*
X224626228Y-81698860D01*
X224435752Y-81698860D01*
X224340514Y-81651241D01*
X224292895Y-81603622D01*
X224245276Y-81508384D01*
X224245276Y-81222670D01*
X224292895Y-81127432D01*
X224340514Y-81079813D01*
X224435752Y-81032194D01*
X224626228Y-81032194D01*
X224721466Y-81079813D01*
X225340514Y-81698860D02*
X225245276Y-81651241D01*
X225197657Y-81556003D01*
X225197657Y-80698860D01*
X226102419Y-81651241D02*
X226007180Y-81698860D01*
X225816704Y-81698860D01*
X225721466Y-81651241D01*
X225673847Y-81556003D01*
X225673847Y-81175051D01*
X225721466Y-81079813D01*
X225816704Y-81032194D01*
X226007180Y-81032194D01*
X226102419Y-81079813D01*
X226150038Y-81175051D01*
X226150038Y-81270289D01*
X225673847Y-81365527D01*
X226435752Y-81032194D02*
X226816704Y-81032194D01*
X226578609Y-80698860D02*
X226578609Y-81556003D01*
X226626228Y-81651241D01*
X226721466Y-81698860D01*
X226816704Y-81698860D01*
X227578609Y-80698860D02*
X227388133Y-80698860D01*
X227292895Y-80746480D01*
X227245276Y-80794099D01*
X227150038Y-80936956D01*
X227102419Y-81127432D01*
X227102419Y-81508384D01*
X227150038Y-81603622D01*
X227197657Y-81651241D01*
X227292895Y-81698860D01*
X227483371Y-81698860D01*
X227578609Y-81651241D01*
X227626228Y-81603622D01*
X227673847Y-81508384D01*
X227673847Y-81270289D01*
X227626228Y-81175051D01*
X227578609Y-81127432D01*
X227483371Y-81079813D01*
X227292895Y-81079813D01*
X227197657Y-81127432D01*
X227150038Y-81175051D01*
X227102419Y-81270289D01*
X228007180Y-80698860D02*
X228673847Y-80698860D01*
X228245276Y-81698860D01*
X230245276Y-81698860D02*
X230245276Y-81175051D01*
X230197657Y-81079813D01*
X230102419Y-81032194D01*
X229911942Y-81032194D01*
X229816704Y-81079813D01*
X230245276Y-81651241D02*
X230150038Y-81698860D01*
X229911942Y-81698860D01*
X229816704Y-81651241D01*
X229769085Y-81556003D01*
X229769085Y-81460765D01*
X229816704Y-81365527D01*
X229911942Y-81317908D01*
X230150038Y-81317908D01*
X230245276Y-81270289D01*
X230721466Y-81032194D02*
X230721466Y-81698860D01*
X230721466Y-81127432D02*
X230769085Y-81079813D01*
X230864323Y-81032194D01*
X231007180Y-81032194D01*
X231102419Y-81079813D01*
X231150038Y-81175051D01*
X231150038Y-81698860D01*
X232054799Y-81698860D02*
X232054799Y-80698860D01*
X232054799Y-81651241D02*
X231959561Y-81698860D01*
X231769085Y-81698860D01*
X231673847Y-81651241D01*
X231626228Y-81603622D01*
X231578609Y-81508384D01*
X231578609Y-81222670D01*
X231626228Y-81127432D01*
X231673847Y-81079813D01*
X231769085Y-81032194D01*
X231959561Y-81032194D01*
X232054799Y-81079813D01*
X233626228Y-81175051D02*
X233769085Y-81222670D01*
X233816704Y-81270289D01*
X233864323Y-81365527D01*
X233864323Y-81508384D01*
X233816704Y-81603622D01*
X233769085Y-81651241D01*
X233673847Y-81698860D01*
X233292895Y-81698860D01*
X233292895Y-80698860D01*
X233626228Y-80698860D01*
X233721466Y-80746480D01*
X233769085Y-80794099D01*
X233816704Y-80889337D01*
X233816704Y-80984575D01*
X233769085Y-81079813D01*
X233721466Y-81127432D01*
X233626228Y-81175051D01*
X233292895Y-81175051D01*
X234435752Y-81698860D02*
X234340514Y-81651241D01*
X234292895Y-81556003D01*
X234292895Y-80698860D01*
X234959561Y-81698860D02*
X234864323Y-81651241D01*
X234816704Y-81603622D01*
X234769085Y-81508384D01*
X234769085Y-81222670D01*
X234816704Y-81127432D01*
X234864323Y-81079813D01*
X234959561Y-81032194D01*
X235102419Y-81032194D01*
X235197657Y-81079813D01*
X235245276Y-81127432D01*
X235292895Y-81222670D01*
X235292895Y-81508384D01*
X235245276Y-81603622D01*
X235197657Y-81651241D01*
X235102419Y-81698860D01*
X234959561Y-81698860D01*
X235864323Y-81698860D02*
X235769085Y-81651241D01*
X235721466Y-81603622D01*
X235673847Y-81508384D01*
X235673847Y-81222670D01*
X235721466Y-81127432D01*
X235769085Y-81079813D01*
X235864323Y-81032194D01*
X236007180Y-81032194D01*
X236102419Y-81079813D01*
X236150038Y-81127432D01*
X236197657Y-81222670D01*
X236197657Y-81508384D01*
X236150038Y-81603622D01*
X236102419Y-81651241D01*
X236007180Y-81698860D01*
X235864323Y-81698860D01*
X237054799Y-81698860D02*
X237054799Y-80698860D01*
X237054799Y-81651241D02*
X236959561Y-81698860D01*
X236769085Y-81698860D01*
X236673847Y-81651241D01*
X236626228Y-81603622D01*
X236578609Y-81508384D01*
X236578609Y-81222670D01*
X236626228Y-81127432D01*
X236673847Y-81079813D01*
X236769085Y-81032194D01*
X236959561Y-81032194D01*
X237054799Y-81079813D01*
X237530990Y-81698860D02*
X237530990Y-81032194D01*
X237530990Y-81127432D02*
X237578609Y-81079813D01*
X237673847Y-81032194D01*
X237816704Y-81032194D01*
X237911942Y-81079813D01*
X237959561Y-81175051D01*
X237959561Y-81698860D01*
X237959561Y-81175051D02*
X238007180Y-81079813D01*
X238102419Y-81032194D01*
X238245276Y-81032194D01*
X238340514Y-81079813D01*
X238388133Y-81175051D01*
X238388133Y-81698860D01*
X239007180Y-81698860D02*
X238911942Y-81651241D01*
X238864323Y-81603622D01*
X238816704Y-81508384D01*
X238816704Y-81222670D01*
X238864323Y-81127432D01*
X238911942Y-81079813D01*
X239007180Y-81032194D01*
X239150038Y-81032194D01*
X239245276Y-81079813D01*
X239292895Y-81127432D01*
X239340514Y-81222670D01*
X239340514Y-81508384D01*
X239292895Y-81603622D01*
X239245276Y-81651241D01*
X239150038Y-81698860D01*
X239007180Y-81698860D01*
X239721466Y-81651241D02*
X239816704Y-81698860D01*
X240007180Y-81698860D01*
X240102419Y-81651241D01*
X240150038Y-81556003D01*
X240150038Y-81508384D01*
X240102419Y-81413146D01*
X240007180Y-81365527D01*
X239864323Y-81365527D01*
X239769085Y-81317908D01*
X239721466Y-81222670D01*
X239721466Y-81175051D01*
X239769085Y-81079813D01*
X239864323Y-81032194D01*
X240007180Y-81032194D01*
X240102419Y-81079813D01*
X240578609Y-81698860D02*
X240578609Y-80698860D01*
X241007180Y-81698860D02*
X241007180Y-81175051D01*
X240959561Y-81079813D01*
X240864323Y-81032194D01*
X240721466Y-81032194D01*
X240626228Y-81079813D01*
X240578609Y-81127432D01*
X241864323Y-81651241D02*
X241769085Y-81698860D01*
X241578609Y-81698860D01*
X241483371Y-81651241D01*
X241435752Y-81556003D01*
X241435752Y-81175051D01*
X241483371Y-81079813D01*
X241578609Y-81032194D01*
X241769085Y-81032194D01*
X241864323Y-81079813D01*
X241911942Y-81175051D01*
X241911942Y-81270289D01*
X241435752Y-81365527D01*
X242340514Y-81698860D02*
X242340514Y-81032194D01*
X242340514Y-81222670D02*
X242388133Y-81127432D01*
X242435752Y-81079813D01*
X242530990Y-81032194D01*
X242626228Y-81032194D01*
X204697657Y-83348860D02*
X204697657Y-82348860D01*
X205126228Y-83348860D02*
X205126228Y-82825051D01*
X205078609Y-82729813D01*
X204983371Y-82682194D01*
X204840514Y-82682194D01*
X204745276Y-82729813D01*
X204697657Y-82777432D01*
X205459561Y-82682194D02*
X205840514Y-82682194D01*
X205602419Y-82348860D02*
X205602419Y-83206003D01*
X205650038Y-83301241D01*
X205745276Y-83348860D01*
X205840514Y-83348860D01*
X206030990Y-82682194D02*
X206411942Y-82682194D01*
X206173847Y-82348860D02*
X206173847Y-83206003D01*
X206221466Y-83301241D01*
X206316704Y-83348860D01*
X206411942Y-83348860D01*
X206745276Y-82682194D02*
X206745276Y-83682194D01*
X206745276Y-82729813D02*
X206840514Y-82682194D01*
X207030990Y-82682194D01*
X207126228Y-82729813D01*
X207173847Y-82777432D01*
X207221466Y-82872670D01*
X207221466Y-83158384D01*
X207173847Y-83253622D01*
X207126228Y-83301241D01*
X207030990Y-83348860D01*
X206840514Y-83348860D01*
X206745276Y-83301241D01*
X207602419Y-83301241D02*
X207697657Y-83348860D01*
X207888133Y-83348860D01*
X207983371Y-83301241D01*
X208030990Y-83206003D01*
X208030990Y-83158384D01*
X207983371Y-83063146D01*
X207888133Y-83015527D01*
X207745276Y-83015527D01*
X207650038Y-82967908D01*
X207602419Y-82872670D01*
X207602419Y-82825051D01*
X207650038Y-82729813D01*
X207745276Y-82682194D01*
X207888133Y-82682194D01*
X207983371Y-82729813D01*
X208459561Y-83253622D02*
X208507180Y-83301241D01*
X208459561Y-83348860D01*
X208411942Y-83301241D01*
X208459561Y-83253622D01*
X208459561Y-83348860D01*
X208459561Y-82729813D02*
X208507180Y-82777432D01*
X208459561Y-82825051D01*
X208411942Y-82777432D01*
X208459561Y-82729813D01*
X208459561Y-82825051D01*
X209650038Y-82301241D02*
X208792895Y-83586956D01*
X210697657Y-82301241D02*
X209840514Y-83586956D01*
X211459561Y-82682194D02*
X211459561Y-83491718D01*
X211411942Y-83586956D01*
X211364323Y-83634575D01*
X211269085Y-83682194D01*
X211126228Y-83682194D01*
X211030990Y-83634575D01*
X211459561Y-83301241D02*
X211364323Y-83348860D01*
X211173847Y-83348860D01*
X211078609Y-83301241D01*
X211030990Y-83253622D01*
X210983371Y-83158384D01*
X210983371Y-82872670D01*
X211030990Y-82777432D01*
X211078609Y-82729813D01*
X211173847Y-82682194D01*
X211364323Y-82682194D01*
X211459561Y-82729813D01*
X211935752Y-83348860D02*
X211935752Y-82682194D01*
X211935752Y-82348860D02*
X211888133Y-82396480D01*
X211935752Y-82444099D01*
X211983371Y-82396480D01*
X211935752Y-82348860D01*
X211935752Y-82444099D01*
X212269085Y-82682194D02*
X212650038Y-82682194D01*
X212411942Y-82348860D02*
X212411942Y-83206003D01*
X212459561Y-83301241D01*
X212554800Y-83348860D01*
X212650038Y-83348860D01*
X212983371Y-83348860D02*
X212983371Y-82348860D01*
X213411942Y-83348860D02*
X213411942Y-82825051D01*
X213364323Y-82729813D01*
X213269085Y-82682194D01*
X213126228Y-82682194D01*
X213030990Y-82729813D01*
X212983371Y-82777432D01*
X214316704Y-82682194D02*
X214316704Y-83348860D01*
X213888133Y-82682194D02*
X213888133Y-83206003D01*
X213935752Y-83301241D01*
X214030990Y-83348860D01*
X214173847Y-83348860D01*
X214269085Y-83301241D01*
X214316704Y-83253622D01*
X214792895Y-83348860D02*
X214792895Y-82348860D01*
X214792895Y-82729813D02*
X214888133Y-82682194D01*
X215078609Y-82682194D01*
X215173847Y-82729813D01*
X215221466Y-82777432D01*
X215269085Y-82872670D01*
X215269085Y-83158384D01*
X215221466Y-83253622D01*
X215173847Y-83301241D01*
X215078609Y-83348860D01*
X214888133Y-83348860D01*
X214792895Y-83301241D01*
X215697657Y-83253622D02*
X215745276Y-83301241D01*
X215697657Y-83348860D01*
X215650038Y-83301241D01*
X215697657Y-83253622D01*
X215697657Y-83348860D01*
X216602419Y-83301241D02*
X216507180Y-83348860D01*
X216316704Y-83348860D01*
X216221466Y-83301241D01*
X216173847Y-83253622D01*
X216126228Y-83158384D01*
X216126228Y-82872670D01*
X216173847Y-82777432D01*
X216221466Y-82729813D01*
X216316704Y-82682194D01*
X216507180Y-82682194D01*
X216602419Y-82729813D01*
X217173847Y-83348860D02*
X217078609Y-83301241D01*
X217030990Y-83253622D01*
X216983371Y-83158384D01*
X216983371Y-82872670D01*
X217030990Y-82777432D01*
X217078609Y-82729813D01*
X217173847Y-82682194D01*
X217316704Y-82682194D01*
X217411942Y-82729813D01*
X217459561Y-82777432D01*
X217507180Y-82872670D01*
X217507180Y-83158384D01*
X217459561Y-83253622D01*
X217411942Y-83301241D01*
X217316704Y-83348860D01*
X217173847Y-83348860D01*
X217935752Y-83348860D02*
X217935752Y-82682194D01*
X217935752Y-82777432D02*
X217983371Y-82729813D01*
X218078609Y-82682194D01*
X218221466Y-82682194D01*
X218316704Y-82729813D01*
X218364323Y-82825051D01*
X218364323Y-83348860D01*
X218364323Y-82825051D02*
X218411942Y-82729813D01*
X218507180Y-82682194D01*
X218650038Y-82682194D01*
X218745276Y-82729813D01*
X218792895Y-82825051D01*
X218792895Y-83348860D01*
X219983371Y-82301241D02*
X219126228Y-83586956D01*
X220792895Y-83348860D02*
X220316704Y-83348860D01*
X220316704Y-82348860D01*
X221126228Y-83348860D02*
X221126228Y-82682194D01*
X221126228Y-82348860D02*
X221078609Y-82396480D01*
X221126228Y-82444099D01*
X221173847Y-82396480D01*
X221126228Y-82348860D01*
X221126228Y-82444099D01*
X221602419Y-82682194D02*
X221602419Y-83348860D01*
X221602419Y-82777432D02*
X221650038Y-82729813D01*
X221745276Y-82682194D01*
X221888133Y-82682194D01*
X221983371Y-82729813D01*
X222030990Y-82825051D01*
X222030990Y-83348860D01*
X222935752Y-82682194D02*
X222935752Y-83348860D01*
X222507180Y-82682194D02*
X222507180Y-83206003D01*
X222554800Y-83301241D01*
X222650038Y-83348860D01*
X222792895Y-83348860D01*
X222888133Y-83301241D01*
X222935752Y-83253622D01*
X223316704Y-83348860D02*
X223840514Y-82682194D01*
X223316704Y-82682194D02*
X223840514Y-83348860D01*
X224507180Y-82348860D02*
X224507180Y-83063146D01*
X224459561Y-83206003D01*
X224364323Y-83301241D01*
X224221466Y-83348860D01*
X224126228Y-83348860D01*
X225364323Y-83301241D02*
X225269085Y-83348860D01*
X225078609Y-83348860D01*
X224983371Y-83301241D01*
X224935752Y-83206003D01*
X224935752Y-82825051D01*
X224983371Y-82729813D01*
X225078609Y-82682194D01*
X225269085Y-82682194D01*
X225364323Y-82729813D01*
X225411942Y-82825051D01*
X225411942Y-82920289D01*
X224935752Y-83015527D01*
X226269085Y-83348860D02*
X226269085Y-82348860D01*
X226269085Y-83301241D02*
X226173847Y-83348860D01*
X225983371Y-83348860D01*
X225888133Y-83301241D01*
X225840514Y-83253622D01*
X225792895Y-83158384D01*
X225792895Y-82872670D01*
X225840514Y-82777432D01*
X225888133Y-82729813D01*
X225983371Y-82682194D01*
X226173847Y-82682194D01*
X226269085Y-82729813D01*
X226745276Y-83348860D02*
X226745276Y-82682194D01*
X226745276Y-82348860D02*
X226697657Y-82396480D01*
X226745276Y-82444099D01*
X226792895Y-82396480D01*
X226745276Y-82348860D01*
X226745276Y-82444099D01*
X227935752Y-82301241D02*
X227078609Y-83586956D01*
X228221466Y-83063146D02*
X228697657Y-83063146D01*
X228126228Y-83348860D02*
X228459561Y-82348860D01*
X228792895Y-83348860D01*
X229126228Y-83348860D02*
X229126228Y-82682194D01*
X229126228Y-82777432D02*
X229173847Y-82729813D01*
X229269085Y-82682194D01*
X229411942Y-82682194D01*
X229507180Y-82729813D01*
X229554800Y-82825051D01*
X229554800Y-83348860D01*
X229554800Y-82825051D02*
X229602419Y-82729813D01*
X229697657Y-82682194D01*
X229840514Y-82682194D01*
X229935752Y-82729813D01*
X229983371Y-82825051D01*
X229983371Y-83348860D01*
X230459561Y-83348860D02*
X230459561Y-82682194D01*
X230459561Y-82348860D02*
X230411942Y-82396480D01*
X230459561Y-82444099D01*
X230507180Y-82396480D01*
X230459561Y-82348860D01*
X230459561Y-82444099D01*
X231364323Y-82682194D02*
X231364323Y-83491718D01*
X231316704Y-83586956D01*
X231269085Y-83634575D01*
X231173847Y-83682194D01*
X231030990Y-83682194D01*
X230935752Y-83634575D01*
X231364323Y-83301241D02*
X231269085Y-83348860D01*
X231078609Y-83348860D01*
X230983371Y-83301241D01*
X230935752Y-83253622D01*
X230888133Y-83158384D01*
X230888133Y-82872670D01*
X230935752Y-82777432D01*
X230983371Y-82729813D01*
X231078609Y-82682194D01*
X231269085Y-82682194D01*
X231364323Y-82729813D01*
X232269085Y-83348860D02*
X232269085Y-82825051D01*
X232221466Y-82729813D01*
X232126228Y-82682194D01*
X231935752Y-82682194D01*
X231840514Y-82729813D01*
X232269085Y-83301241D02*
X232173847Y-83348860D01*
X231935752Y-83348860D01*
X231840514Y-83301241D01*
X231792895Y-83206003D01*
X231792895Y-83110765D01*
X231840514Y-83015527D01*
X231935752Y-82967908D01*
X232173847Y-82967908D01*
X232269085Y-82920289D01*
X233316704Y-83348860D02*
X232983371Y-82872670D01*
X232745276Y-83348860D02*
X232745276Y-82348860D01*
X233126228Y-82348860D01*
X233221466Y-82396480D01*
X233269085Y-82444099D01*
X233316704Y-82539337D01*
X233316704Y-82682194D01*
X233269085Y-82777432D01*
X233221466Y-82825051D01*
X233126228Y-82872670D01*
X232745276Y-82872670D01*
X234269085Y-82396480D02*
X234173847Y-82348860D01*
X234030990Y-82348860D01*
X233888133Y-82396480D01*
X233792895Y-82491718D01*
X233745276Y-82586956D01*
X233697657Y-82777432D01*
X233697657Y-82920289D01*
X233745276Y-83110765D01*
X233792895Y-83206003D01*
X233888133Y-83301241D01*
X234030990Y-83348860D01*
X234126228Y-83348860D01*
X234269085Y-83301241D01*
X234316704Y-83253622D01*
X234316704Y-82920289D01*
X234126228Y-82920289D01*
X235078609Y-82825051D02*
X235221466Y-82872670D01*
X235269085Y-82920289D01*
X235316704Y-83015527D01*
X235316704Y-83158384D01*
X235269085Y-83253622D01*
X235221466Y-83301241D01*
X235126228Y-83348860D01*
X234745276Y-83348860D01*
X234745276Y-82348860D01*
X235078609Y-82348860D01*
X235173847Y-82396480D01*
X235221466Y-82444099D01*
X235269085Y-82539337D01*
X235269085Y-82634575D01*
X235221466Y-82729813D01*
X235173847Y-82777432D01*
X235078609Y-82825051D01*
X234745276Y-82825051D01*
X235602419Y-82682194D02*
X235983371Y-82682194D01*
X235745276Y-82348860D02*
X235745276Y-83206003D01*
X235792895Y-83301241D01*
X235888133Y-83348860D01*
X235983371Y-83348860D01*
X236459561Y-83348860D02*
X236364323Y-83301241D01*
X236316704Y-83253622D01*
X236269085Y-83158384D01*
X236269085Y-82872670D01*
X236316704Y-82777432D01*
X236364323Y-82729813D01*
X236459561Y-82682194D01*
X236602419Y-82682194D01*
X236697657Y-82729813D01*
X236745276Y-82777432D01*
X236792895Y-82872670D01*
X236792895Y-83158384D01*
X236745276Y-83253622D01*
X236697657Y-83301241D01*
X236602419Y-83348860D01*
X236459561Y-83348860D01*
X237221466Y-83348860D02*
X237221466Y-82348860D01*
X237221466Y-82825051D02*
X237792895Y-82825051D01*
X237792895Y-83348860D02*
X237792895Y-82348860D01*
X238269085Y-83348860D02*
X238269085Y-82348860D01*
X238507180Y-82348860D01*
X238650038Y-82396480D01*
X238745276Y-82491718D01*
X238792895Y-82586956D01*
X238840514Y-82777432D01*
X238840514Y-82920289D01*
X238792895Y-83110765D01*
X238745276Y-83206003D01*
X238650038Y-83301241D01*
X238507180Y-83348860D01*
X238269085Y-83348860D01*
X239269085Y-83348860D02*
X239269085Y-82348860D01*
X239602419Y-83063146D01*
X239935752Y-82348860D01*
X239935752Y-83348860D01*
X240411942Y-83348860D02*
X240411942Y-82348860D01*
D11*
X132131271Y-70124380D02*
X131416985Y-70624380D01*
X132131271Y-70981522D02*
X130631271Y-70981522D01*
X130631271Y-70410094D01*
X130702700Y-70267237D01*
X130774128Y-70195808D01*
X130916985Y-70124380D01*
X131131271Y-70124380D01*
X131274128Y-70195808D01*
X131345557Y-70267237D01*
X131416985Y-70410094D01*
X131416985Y-70981522D01*
X132131271Y-69481522D02*
X130631271Y-69481522D01*
X130631271Y-68910094D01*
X130702700Y-68767237D01*
X130774128Y-68695808D01*
X130916985Y-68624380D01*
X131131271Y-68624380D01*
X131274128Y-68695808D01*
X131345557Y-68767237D01*
X131416985Y-68910094D01*
X131416985Y-69481522D01*
X132131271Y-67981522D02*
X131131271Y-67981522D01*
X130631271Y-67981522D02*
X130702700Y-68052951D01*
X130774128Y-67981522D01*
X130702700Y-67910094D01*
X130631271Y-67981522D01*
X130774128Y-67981522D01*
X134681271Y-67910094D02*
X134681271Y-68767237D01*
X134681271Y-68338665D02*
X133181271Y-68338665D01*
X133395557Y-68481522D01*
X133538414Y-68624380D01*
X133609842Y-68767237D01*
D12*
X124273000Y-82356000D02*
X126933000Y-82356000D01*
X124273000Y-69596000D02*
X124273000Y-82356000D01*
X126933000Y-69596000D02*
X126933000Y-82356000D01*
X124273000Y-69596000D02*
X126933000Y-69596000D01*
X124273000Y-68326000D02*
X124273000Y-66996000D01*
X124273000Y-66996000D02*
X125603000Y-66996000D01*
X151382000Y-85871267D02*
X151382000Y-85578733D01*
X152402000Y-85871267D02*
X152402000Y-85578733D01*
D10*
X166719000Y-93567000D02*
X166719000Y-92992000D01*
X156369000Y-93567000D02*
X156369000Y-92892000D01*
X156369000Y-83217000D02*
X156369000Y-83892000D01*
X166719000Y-83217000D02*
X166719000Y-83892000D01*
X166719000Y-93567000D02*
X166044000Y-93567000D01*
X166719000Y-83217000D02*
X166044000Y-83217000D01*
X156369000Y-83217000D02*
X157044000Y-83217000D01*
X156369000Y-93567000D02*
X157044000Y-93567000D01*
X166719000Y-92992000D02*
X167994000Y-92992000D01*
D12*
X159497500Y-77597724D02*
X159497500Y-77088276D01*
X160542500Y-77597724D02*
X160542500Y-77088276D01*
X174624276Y-86980500D02*
X175133724Y-86980500D01*
X174624276Y-88025500D02*
X175133724Y-88025500D01*
X137735000Y-72069000D02*
X137735000Y-69469000D01*
X137735000Y-72069000D02*
X188655000Y-72069000D01*
X188655000Y-72069000D02*
X188655000Y-66869000D01*
X140335000Y-66869000D02*
X188655000Y-66869000D01*
X140335000Y-69469000D02*
X140335000Y-66869000D01*
X137735000Y-69469000D02*
X140335000Y-69469000D01*
X137735000Y-66869000D02*
X139065000Y-66869000D01*
X137735000Y-68199000D02*
X137735000Y-66869000D01*
X162558000Y-77489267D02*
X162558000Y-77196733D01*
X163578000Y-77489267D02*
X163578000Y-77196733D01*
X158752000Y-99675733D02*
X158752000Y-99968267D01*
X157732000Y-99675733D02*
X157732000Y-99968267D01*
X110424000Y-107172000D02*
X110024000Y-107172000D01*
X110424000Y-116122000D02*
X110424000Y-107172000D01*
X163774000Y-108522000D02*
X163774000Y-116122000D01*
X158824000Y-108522000D02*
X163774000Y-108522000D01*
X158824000Y-116122000D02*
X158824000Y-108522000D01*
X212164000Y-107172000D02*
X212564000Y-107172000D01*
X212164000Y-116122000D02*
X212164000Y-107172000D01*
X197866000Y-67310000D02*
X199136000Y-67310000D01*
X197866000Y-68580000D02*
X197866000Y-67310000D01*
X200178929Y-71500000D02*
X200576000Y-71500000D01*
X200178929Y-70740000D02*
X200576000Y-70740000D01*
X209236000Y-71500000D02*
X203236000Y-71500000D01*
X209236000Y-70740000D02*
X209236000Y-71500000D01*
X203236000Y-70740000D02*
X209236000Y-70740000D01*
X200576000Y-69850000D02*
X203236000Y-69850000D01*
X200246000Y-68960000D02*
X200576000Y-68960000D01*
X200246000Y-68200000D02*
X200576000Y-68200000D01*
X203236000Y-68860000D02*
X209236000Y-68860000D01*
X203236000Y-68740000D02*
X209236000Y-68740000D01*
X203236000Y-68620000D02*
X209236000Y-68620000D01*
X203236000Y-68500000D02*
X209236000Y-68500000D01*
X203236000Y-68380000D02*
X209236000Y-68380000D01*
X203236000Y-68260000D02*
X209236000Y-68260000D01*
X209236000Y-68960000D02*
X203236000Y-68960000D01*
X209236000Y-68200000D02*
X209236000Y-68960000D01*
X203236000Y-68200000D02*
X209236000Y-68200000D01*
X203236000Y-67250000D02*
X200576000Y-67250000D01*
X203236000Y-72450000D02*
X203236000Y-67250000D01*
X200576000Y-72450000D02*
X203236000Y-72450000D01*
X200576000Y-67250000D02*
X200576000Y-72450000D01*
X117678200Y-72433180D02*
X116408200Y-72433180D01*
X117678200Y-71163180D02*
X117678200Y-72433180D01*
X115365271Y-68243180D02*
X114968200Y-68243180D01*
X115365271Y-69003180D02*
X114968200Y-69003180D01*
X106308200Y-68243180D02*
X112308200Y-68243180D01*
X106308200Y-69003180D02*
X106308200Y-68243180D01*
X112308200Y-69003180D02*
X106308200Y-69003180D01*
X114968200Y-69893180D02*
X112308200Y-69893180D01*
X115298200Y-70783180D02*
X114968200Y-70783180D01*
X115298200Y-71543180D02*
X114968200Y-71543180D01*
X112308200Y-70883180D02*
X106308200Y-70883180D01*
X112308200Y-71003180D02*
X106308200Y-71003180D01*
X112308200Y-71123180D02*
X106308200Y-71123180D01*
X112308200Y-71243180D02*
X106308200Y-71243180D01*
X112308200Y-71363180D02*
X106308200Y-71363180D01*
X112308200Y-71483180D02*
X106308200Y-71483180D01*
X106308200Y-70783180D02*
X112308200Y-70783180D01*
X106308200Y-71543180D02*
X106308200Y-70783180D01*
X112308200Y-71543180D02*
X106308200Y-71543180D01*
X112308200Y-72493180D02*
X114968200Y-72493180D01*
X112308200Y-67293180D02*
X112308200Y-72493180D01*
X114968200Y-67293180D02*
X112308200Y-67293180D01*
X114968200Y-72493180D02*
X114968200Y-67293180D01*
D10*
X124436333Y-82808380D02*
X124436333Y-83522666D01*
X124388714Y-83665523D01*
X124293476Y-83760761D01*
X124150619Y-83808380D01*
X124055380Y-83808380D01*
X124769666Y-82808380D02*
X125341095Y-82808380D01*
X125055380Y-83808380D02*
X125055380Y-82808380D01*
X125626809Y-83522666D02*
X126103000Y-83522666D01*
X125531571Y-83808380D02*
X125864904Y-82808380D01*
X126198238Y-83808380D01*
X127055380Y-82856000D02*
X126960142Y-82808380D01*
X126817285Y-82808380D01*
X126674428Y-82856000D01*
X126579190Y-82951238D01*
X126531571Y-83046476D01*
X126483952Y-83236952D01*
X126483952Y-83379809D01*
X126531571Y-83570285D01*
X126579190Y-83665523D01*
X126674428Y-83760761D01*
X126817285Y-83808380D01*
X126912523Y-83808380D01*
X127055380Y-83760761D01*
X127103000Y-83713142D01*
X127103000Y-83379809D01*
X126912523Y-83379809D01*
X150819142Y-85891666D02*
X150866761Y-85939285D01*
X150914380Y-86082142D01*
X150914380Y-86177380D01*
X150866761Y-86320238D01*
X150771523Y-86415476D01*
X150676285Y-86463095D01*
X150485809Y-86510714D01*
X150342952Y-86510714D01*
X150152476Y-86463095D01*
X150057238Y-86415476D01*
X149962000Y-86320238D01*
X149914380Y-86177380D01*
X149914380Y-86082142D01*
X149962000Y-85939285D01*
X150009619Y-85891666D01*
X149914380Y-85558333D02*
X149914380Y-84939285D01*
X150295333Y-85272619D01*
X150295333Y-85129761D01*
X150342952Y-85034523D01*
X150390571Y-84986904D01*
X150485809Y-84939285D01*
X150723904Y-84939285D01*
X150819142Y-84986904D01*
X150866761Y-85034523D01*
X150914380Y-85129761D01*
X150914380Y-85415476D01*
X150866761Y-85510714D01*
X150819142Y-85558333D01*
X160782095Y-95294380D02*
X160782095Y-96103904D01*
X160829714Y-96199142D01*
X160877333Y-96246761D01*
X160972571Y-96294380D01*
X161163047Y-96294380D01*
X161258285Y-96246761D01*
X161305904Y-96199142D01*
X161353523Y-96103904D01*
X161353523Y-95294380D01*
X162353523Y-96294380D02*
X161782095Y-96294380D01*
X162067809Y-96294380D02*
X162067809Y-95294380D01*
X161972571Y-95437238D01*
X161877333Y-95532476D01*
X161782095Y-95580095D01*
X159042380Y-77509666D02*
X158566190Y-77843000D01*
X159042380Y-78081095D02*
X158042380Y-78081095D01*
X158042380Y-77700142D01*
X158090000Y-77604904D01*
X158137619Y-77557285D01*
X158232857Y-77509666D01*
X158375714Y-77509666D01*
X158470952Y-77557285D01*
X158518571Y-77604904D01*
X158566190Y-77700142D01*
X158566190Y-78081095D01*
X158137619Y-77128714D02*
X158090000Y-77081095D01*
X158042380Y-76985857D01*
X158042380Y-76747761D01*
X158090000Y-76652523D01*
X158137619Y-76604904D01*
X158232857Y-76557285D01*
X158328095Y-76557285D01*
X158470952Y-76604904D01*
X159042380Y-77176333D01*
X159042380Y-76557285D01*
X174712333Y-86525380D02*
X174379000Y-86049190D01*
X174140904Y-86525380D02*
X174140904Y-85525380D01*
X174521857Y-85525380D01*
X174617095Y-85573000D01*
X174664714Y-85620619D01*
X174712333Y-85715857D01*
X174712333Y-85858714D01*
X174664714Y-85953952D01*
X174617095Y-86001571D01*
X174521857Y-86049190D01*
X174140904Y-86049190D01*
X175664714Y-86525380D02*
X175093285Y-86525380D01*
X175379000Y-86525380D02*
X175379000Y-85525380D01*
X175283761Y-85668238D01*
X175188523Y-85763476D01*
X175093285Y-85811095D01*
X135747380Y-69802333D02*
X136461666Y-69802333D01*
X136604523Y-69849952D01*
X136699761Y-69945190D01*
X136747380Y-70088047D01*
X136747380Y-70183285D01*
X136747380Y-68802333D02*
X136747380Y-69373761D01*
X136747380Y-69088047D02*
X135747380Y-69088047D01*
X135890238Y-69183285D01*
X135985476Y-69278523D01*
X136033095Y-69373761D01*
X161995142Y-77509666D02*
X162042761Y-77557285D01*
X162090380Y-77700142D01*
X162090380Y-77795380D01*
X162042761Y-77938238D01*
X161947523Y-78033476D01*
X161852285Y-78081095D01*
X161661809Y-78128714D01*
X161518952Y-78128714D01*
X161328476Y-78081095D01*
X161233238Y-78033476D01*
X161138000Y-77938238D01*
X161090380Y-77795380D01*
X161090380Y-77700142D01*
X161138000Y-77557285D01*
X161185619Y-77509666D01*
X161185619Y-77128714D02*
X161138000Y-77081095D01*
X161090380Y-76985857D01*
X161090380Y-76747761D01*
X161138000Y-76652523D01*
X161185619Y-76604904D01*
X161280857Y-76557285D01*
X161376095Y-76557285D01*
X161518952Y-76604904D01*
X162090380Y-77176333D01*
X162090380Y-76557285D01*
X160029142Y-99988666D02*
X160076761Y-100036285D01*
X160124380Y-100179142D01*
X160124380Y-100274380D01*
X160076761Y-100417238D01*
X159981523Y-100512476D01*
X159886285Y-100560095D01*
X159695809Y-100607714D01*
X159552952Y-100607714D01*
X159362476Y-100560095D01*
X159267238Y-100512476D01*
X159172000Y-100417238D01*
X159124380Y-100274380D01*
X159124380Y-100179142D01*
X159172000Y-100036285D01*
X159219619Y-99988666D01*
X160124380Y-99036285D02*
X160124380Y-99607714D01*
X160124380Y-99322000D02*
X159124380Y-99322000D01*
X159267238Y-99417238D01*
X159362476Y-99512476D01*
X159410095Y-99607714D01*
X157664476Y-104024380D02*
X157664476Y-104738666D01*
X157616857Y-104881523D01*
X157521619Y-104976761D01*
X157378761Y-105024380D01*
X157283523Y-105024380D01*
X157997809Y-104024380D02*
X158331142Y-105024380D01*
X158664476Y-104024380D01*
X158997809Y-105024380D02*
X158997809Y-104357714D01*
X158997809Y-104024380D02*
X158950190Y-104072000D01*
X158997809Y-104119619D01*
X159045428Y-104072000D01*
X158997809Y-104024380D01*
X158997809Y-104119619D01*
X159902571Y-105024380D02*
X159902571Y-104024380D01*
X159902571Y-104976761D02*
X159807333Y-105024380D01*
X159616857Y-105024380D01*
X159521619Y-104976761D01*
X159474000Y-104929142D01*
X159426380Y-104833904D01*
X159426380Y-104548190D01*
X159474000Y-104452952D01*
X159521619Y-104405333D01*
X159616857Y-104357714D01*
X159807333Y-104357714D01*
X159902571Y-104405333D01*
X160759714Y-104976761D02*
X160664476Y-105024380D01*
X160474000Y-105024380D01*
X160378761Y-104976761D01*
X160331142Y-104881523D01*
X160331142Y-104500571D01*
X160378761Y-104405333D01*
X160474000Y-104357714D01*
X160664476Y-104357714D01*
X160759714Y-104405333D01*
X160807333Y-104500571D01*
X160807333Y-104595809D01*
X160331142Y-104691047D01*
X161378761Y-105024380D02*
X161283523Y-104976761D01*
X161235904Y-104929142D01*
X161188285Y-104833904D01*
X161188285Y-104548190D01*
X161235904Y-104452952D01*
X161283523Y-104405333D01*
X161378761Y-104357714D01*
X161521619Y-104357714D01*
X161616857Y-104405333D01*
X161664476Y-104452952D01*
X161712095Y-104548190D01*
X161712095Y-104833904D01*
X161664476Y-104929142D01*
X161616857Y-104976761D01*
X161521619Y-105024380D01*
X161378761Y-105024380D01*
X162093047Y-104976761D02*
X162235904Y-105024380D01*
X162474000Y-105024380D01*
X162569238Y-104976761D01*
X162616857Y-104929142D01*
X162664476Y-104833904D01*
X162664476Y-104738666D01*
X162616857Y-104643428D01*
X162569238Y-104595809D01*
X162474000Y-104548190D01*
X162283523Y-104500571D01*
X162188285Y-104452952D01*
X162140666Y-104405333D01*
X162093047Y-104310095D01*
X162093047Y-104214857D01*
X162140666Y-104119619D01*
X162188285Y-104072000D01*
X162283523Y-104024380D01*
X162521619Y-104024380D01*
X162664476Y-104072000D01*
X163235904Y-105024380D02*
X163140666Y-104976761D01*
X163093047Y-104881523D01*
X163093047Y-104024380D01*
X163759714Y-105024380D02*
X163664476Y-104976761D01*
X163616857Y-104929142D01*
X163569238Y-104833904D01*
X163569238Y-104548190D01*
X163616857Y-104452952D01*
X163664476Y-104405333D01*
X163759714Y-104357714D01*
X163902571Y-104357714D01*
X163997809Y-104405333D01*
X164045428Y-104452952D01*
X164093047Y-104548190D01*
X164093047Y-104833904D01*
X164045428Y-104929142D01*
X163997809Y-104976761D01*
X163902571Y-105024380D01*
X163759714Y-105024380D01*
X164378761Y-104357714D02*
X164759714Y-104357714D01*
X164521619Y-104024380D02*
X164521619Y-104881523D01*
X164569238Y-104976761D01*
X164664476Y-105024380D01*
X164759714Y-105024380D01*
X165616857Y-105024380D02*
X165045428Y-105024380D01*
X165331142Y-105024380D02*
X165331142Y-104024380D01*
X165235904Y-104167238D01*
X165140666Y-104262476D01*
X165045428Y-104310095D01*
X189783523Y-106629142D02*
X189735904Y-106676761D01*
X189593047Y-106724380D01*
X189497809Y-106724380D01*
X189354952Y-106676761D01*
X189259714Y-106581523D01*
X189212095Y-106486285D01*
X189164476Y-106295809D01*
X189164476Y-106152952D01*
X189212095Y-105962476D01*
X189259714Y-105867238D01*
X189354952Y-105772000D01*
X189497809Y-105724380D01*
X189593047Y-105724380D01*
X189735904Y-105772000D01*
X189783523Y-105819619D01*
X190212095Y-106724380D02*
X190212095Y-105724380D01*
X190783523Y-106724380D01*
X190783523Y-105724380D01*
X191783523Y-106724380D02*
X191212095Y-106724380D01*
X191497809Y-106724380D02*
X191497809Y-105724380D01*
X191402571Y-105867238D01*
X191307333Y-105962476D01*
X191212095Y-106010095D01*
X163784476Y-107309380D02*
X164403523Y-107309380D01*
X164070190Y-107690333D01*
X164213047Y-107690333D01*
X164308285Y-107737952D01*
X164355904Y-107785571D01*
X164403523Y-107880809D01*
X164403523Y-108118904D01*
X164355904Y-108214142D01*
X164308285Y-108261761D01*
X164213047Y-108309380D01*
X163927333Y-108309380D01*
X163832095Y-108261761D01*
X163784476Y-108214142D01*
X165260666Y-107309380D02*
X165070190Y-107309380D01*
X164974952Y-107357000D01*
X164927333Y-107404619D01*
X164832095Y-107547476D01*
X164784476Y-107737952D01*
X164784476Y-108118904D01*
X164832095Y-108214142D01*
X164879714Y-108261761D01*
X164974952Y-108309380D01*
X165165428Y-108309380D01*
X165260666Y-108261761D01*
X165308285Y-108214142D01*
X165355904Y-108118904D01*
X165355904Y-107880809D01*
X165308285Y-107785571D01*
X165260666Y-107737952D01*
X165165428Y-107690333D01*
X164974952Y-107690333D01*
X164879714Y-107737952D01*
X164832095Y-107785571D01*
X164784476Y-107880809D01*
X210808285Y-107409619D02*
X210855904Y-107362000D01*
X210951142Y-107314380D01*
X211189238Y-107314380D01*
X211284476Y-107362000D01*
X211332095Y-107409619D01*
X211379714Y-107504857D01*
X211379714Y-107600095D01*
X211332095Y-107742952D01*
X210760666Y-108314380D01*
X211379714Y-108314380D01*
X136483523Y-106229142D02*
X136435904Y-106276761D01*
X136293047Y-106324380D01*
X136197809Y-106324380D01*
X136054952Y-106276761D01*
X135959714Y-106181523D01*
X135912095Y-106086285D01*
X135864476Y-105895809D01*
X135864476Y-105752952D01*
X135912095Y-105562476D01*
X135959714Y-105467238D01*
X136054952Y-105372000D01*
X136197809Y-105324380D01*
X136293047Y-105324380D01*
X136435904Y-105372000D01*
X136483523Y-105419619D01*
X136912095Y-106324380D02*
X136912095Y-105324380D01*
X137483523Y-106324380D01*
X137483523Y-105324380D01*
X137912095Y-105419619D02*
X137959714Y-105372000D01*
X138054952Y-105324380D01*
X138293047Y-105324380D01*
X138388285Y-105372000D01*
X138435904Y-105419619D01*
X138483523Y-105514857D01*
X138483523Y-105610095D01*
X138435904Y-105752952D01*
X137864476Y-106324380D01*
X138483523Y-106324380D01*
X157358285Y-107404619D02*
X157405904Y-107357000D01*
X157501142Y-107309380D01*
X157739238Y-107309380D01*
X157834476Y-107357000D01*
X157882095Y-107404619D01*
X157929714Y-107499857D01*
X157929714Y-107595095D01*
X157882095Y-107737952D01*
X157310666Y-108309380D01*
X157929714Y-108309380D01*
X110559476Y-107309380D02*
X111178523Y-107309380D01*
X110845190Y-107690333D01*
X110988047Y-107690333D01*
X111083285Y-107737952D01*
X111130904Y-107785571D01*
X111178523Y-107880809D01*
X111178523Y-108118904D01*
X111130904Y-108214142D01*
X111083285Y-108261761D01*
X110988047Y-108309380D01*
X110702333Y-108309380D01*
X110607095Y-108261761D01*
X110559476Y-108214142D01*
X112035666Y-107309380D02*
X111845190Y-107309380D01*
X111749952Y-107357000D01*
X111702333Y-107404619D01*
X111607095Y-107547476D01*
X111559476Y-107737952D01*
X111559476Y-108118904D01*
X111607095Y-108214142D01*
X111654714Y-108261761D01*
X111749952Y-108309380D01*
X111940428Y-108309380D01*
X112035666Y-108261761D01*
X112083285Y-108214142D01*
X112130904Y-108118904D01*
X112130904Y-107880809D01*
X112083285Y-107785571D01*
X112035666Y-107737952D01*
X111940428Y-107690333D01*
X111749952Y-107690333D01*
X111654714Y-107737952D01*
X111607095Y-107785571D01*
X111559476Y-107880809D01*
M02*
