G04 #@! TF.GenerationSoftware,KiCad,Pcbnew,5.1.9-73d0e3b20d~88~ubuntu20.10.1*
G04 #@! TF.CreationDate,2021-04-12T20:34:23+01:00*
G04 #@! TF.ProjectId,videoslotadapter,76696465-6f73-46c6-9f74-616461707465,rev?*
G04 #@! TF.SameCoordinates,Original*
G04 #@! TF.FileFunction,Legend,Top*
G04 #@! TF.FilePolarity,Positive*
%FSLAX46Y46*%
G04 Gerber Fmt 4.6, Leading zero omitted, Abs format (unit mm)*
G04 Created by KiCad (PCBNEW 5.1.9-73d0e3b20d~88~ubuntu20.10.1) date 2021-04-12 20:34:23*
%MOMM*%
%LPD*%
G01*
G04 APERTURE LIST*
%ADD10C,0.150000*%
%ADD11C,0.100000*%
%ADD12C,0.300000*%
%ADD13C,0.120000*%
G04 APERTURE END LIST*
D10*
X229529380Y-71398380D02*
X230100809Y-71398380D01*
X229815095Y-72398380D02*
X229815095Y-71398380D01*
X230624619Y-71398380D02*
X230815095Y-71398380D01*
X230910333Y-71446000D01*
X231005571Y-71541238D01*
X231053190Y-71731714D01*
X231053190Y-72065047D01*
X231005571Y-72255523D01*
X230910333Y-72350761D01*
X230815095Y-72398380D01*
X230624619Y-72398380D01*
X230529380Y-72350761D01*
X230434142Y-72255523D01*
X230386523Y-72065047D01*
X230386523Y-71731714D01*
X230434142Y-71541238D01*
X230529380Y-71446000D01*
X230624619Y-71398380D01*
X231386523Y-71398380D02*
X231624619Y-72398380D01*
X231815095Y-71684095D01*
X232005571Y-72398380D01*
X232243666Y-71398380D01*
X232577000Y-72112666D02*
X233053190Y-72112666D01*
X232481761Y-72398380D02*
X232815095Y-71398380D01*
X233148428Y-72398380D01*
X234053190Y-72398380D02*
X233719857Y-71922190D01*
X233481761Y-72398380D02*
X233481761Y-71398380D01*
X233862714Y-71398380D01*
X233957952Y-71446000D01*
X234005571Y-71493619D01*
X234053190Y-71588857D01*
X234053190Y-71731714D01*
X234005571Y-71826952D01*
X233957952Y-71874571D01*
X233862714Y-71922190D01*
X233481761Y-71922190D01*
X234481761Y-72398380D02*
X234481761Y-71398380D01*
X234719857Y-71398380D01*
X234862714Y-71446000D01*
X234957952Y-71541238D01*
X235005571Y-71636476D01*
X235053190Y-71826952D01*
X235053190Y-71969809D01*
X235005571Y-72160285D01*
X234957952Y-72255523D01*
X234862714Y-72350761D01*
X234719857Y-72398380D01*
X234481761Y-72398380D01*
X235434142Y-72350761D02*
X235577000Y-72398380D01*
X235815095Y-72398380D01*
X235910333Y-72350761D01*
X235957952Y-72303142D01*
X236005571Y-72207904D01*
X236005571Y-72112666D01*
X235957952Y-72017428D01*
X235910333Y-71969809D01*
X235815095Y-71922190D01*
X235624619Y-71874571D01*
X235529380Y-71826952D01*
X235481761Y-71779333D01*
X235434142Y-71684095D01*
X235434142Y-71588857D01*
X235481761Y-71493619D01*
X235529380Y-71446000D01*
X235624619Y-71398380D01*
X235862714Y-71398380D01*
X236005571Y-71446000D01*
X237767476Y-72398380D02*
X237434142Y-71922190D01*
X237196047Y-72398380D02*
X237196047Y-71398380D01*
X237577000Y-71398380D01*
X237672238Y-71446000D01*
X237719857Y-71493619D01*
X237767476Y-71588857D01*
X237767476Y-71731714D01*
X237719857Y-71826952D01*
X237672238Y-71874571D01*
X237577000Y-71922190D01*
X237196047Y-71922190D01*
X238196047Y-71874571D02*
X238529380Y-71874571D01*
X238672238Y-72398380D02*
X238196047Y-72398380D01*
X238196047Y-71398380D01*
X238672238Y-71398380D01*
X239053190Y-72112666D02*
X239529380Y-72112666D01*
X238957952Y-72398380D02*
X239291285Y-71398380D01*
X239624619Y-72398380D01*
X240529380Y-72398380D02*
X240196047Y-71922190D01*
X239957952Y-72398380D02*
X239957952Y-71398380D01*
X240338904Y-71398380D01*
X240434142Y-71446000D01*
X240481761Y-71493619D01*
X240529380Y-71588857D01*
X240529380Y-71731714D01*
X240481761Y-71826952D01*
X240434142Y-71874571D01*
X240338904Y-71922190D01*
X239957952Y-71922190D01*
X232005571Y-73048380D02*
X232196047Y-73048380D01*
X232291285Y-73096000D01*
X232386523Y-73191238D01*
X232434142Y-73381714D01*
X232434142Y-73715047D01*
X232386523Y-73905523D01*
X232291285Y-74000761D01*
X232196047Y-74048380D01*
X232005571Y-74048380D01*
X231910333Y-74000761D01*
X231815095Y-73905523D01*
X231767476Y-73715047D01*
X231767476Y-73381714D01*
X231815095Y-73191238D01*
X231910333Y-73096000D01*
X232005571Y-73048380D01*
X233196047Y-73524571D02*
X232862714Y-73524571D01*
X232862714Y-74048380D02*
X232862714Y-73048380D01*
X233338904Y-73048380D01*
X234434142Y-73762666D02*
X234910333Y-73762666D01*
X234338904Y-74048380D02*
X234672238Y-73048380D01*
X235005571Y-74048380D01*
X235338904Y-74048380D02*
X235338904Y-73048380D01*
X235672238Y-73762666D01*
X236005571Y-73048380D01*
X236005571Y-74048380D01*
X236481761Y-74048380D02*
X236481761Y-73048380D01*
X237481761Y-73096000D02*
X237386523Y-73048380D01*
X237243666Y-73048380D01*
X237100809Y-73096000D01*
X237005571Y-73191238D01*
X236957952Y-73286476D01*
X236910333Y-73476952D01*
X236910333Y-73619809D01*
X236957952Y-73810285D01*
X237005571Y-73905523D01*
X237100809Y-74000761D01*
X237243666Y-74048380D01*
X237338904Y-74048380D01*
X237481761Y-74000761D01*
X237529380Y-73953142D01*
X237529380Y-73619809D01*
X237338904Y-73619809D01*
X237910333Y-73762666D02*
X238386523Y-73762666D01*
X237815095Y-74048380D02*
X238148428Y-73048380D01*
X238481761Y-74048380D01*
D11*
G36*
X238760000Y-75438000D02*
G01*
X233680000Y-75438000D01*
X233680000Y-74422000D01*
X238760000Y-74422000D01*
X238760000Y-75438000D01*
G37*
X238760000Y-75438000D02*
X233680000Y-75438000D01*
X233680000Y-74422000D01*
X238760000Y-74422000D01*
X238760000Y-75438000D01*
G36*
X240030000Y-74930000D02*
G01*
X238760000Y-76200000D01*
X238760000Y-73660000D01*
X240030000Y-74930000D01*
G37*
X240030000Y-74930000D02*
X238760000Y-76200000D01*
X238760000Y-73660000D01*
X240030000Y-74930000D01*
D10*
X203787714Y-82224571D02*
X203930571Y-82272190D01*
X203978190Y-82319809D01*
X204025809Y-82415047D01*
X204025809Y-82557904D01*
X203978190Y-82653142D01*
X203930571Y-82700761D01*
X203835333Y-82748380D01*
X203454380Y-82748380D01*
X203454380Y-81748380D01*
X203787714Y-81748380D01*
X203882952Y-81796000D01*
X203930571Y-81843619D01*
X203978190Y-81938857D01*
X203978190Y-82034095D01*
X203930571Y-82129333D01*
X203882952Y-82176952D01*
X203787714Y-82224571D01*
X203454380Y-82224571D01*
X204882952Y-82081714D02*
X204882952Y-82748380D01*
X204454380Y-82081714D02*
X204454380Y-82605523D01*
X204502000Y-82700761D01*
X204597238Y-82748380D01*
X204740095Y-82748380D01*
X204835333Y-82700761D01*
X204882952Y-82653142D01*
X205216285Y-82081714D02*
X205597238Y-82081714D01*
X205359142Y-81748380D02*
X205359142Y-82605523D01*
X205406761Y-82700761D01*
X205502000Y-82748380D01*
X205597238Y-82748380D01*
X205787714Y-82081714D02*
X206168666Y-82081714D01*
X205930571Y-81748380D02*
X205930571Y-82605523D01*
X205978190Y-82700761D01*
X206073428Y-82748380D01*
X206168666Y-82748380D01*
X206644857Y-82748380D02*
X206549619Y-82700761D01*
X206502000Y-82653142D01*
X206454380Y-82557904D01*
X206454380Y-82272190D01*
X206502000Y-82176952D01*
X206549619Y-82129333D01*
X206644857Y-82081714D01*
X206787714Y-82081714D01*
X206882952Y-82129333D01*
X206930571Y-82176952D01*
X206978190Y-82272190D01*
X206978190Y-82557904D01*
X206930571Y-82653142D01*
X206882952Y-82700761D01*
X206787714Y-82748380D01*
X206644857Y-82748380D01*
X207406761Y-82081714D02*
X207406761Y-82748380D01*
X207406761Y-82176952D02*
X207454380Y-82129333D01*
X207549619Y-82081714D01*
X207692476Y-82081714D01*
X207787714Y-82129333D01*
X207835333Y-82224571D01*
X207835333Y-82748380D01*
X208978190Y-81748380D02*
X209597238Y-81748380D01*
X209263904Y-82129333D01*
X209406761Y-82129333D01*
X209502000Y-82176952D01*
X209549619Y-82224571D01*
X209597238Y-82319809D01*
X209597238Y-82557904D01*
X209549619Y-82653142D01*
X209502000Y-82700761D01*
X209406761Y-82748380D01*
X209121047Y-82748380D01*
X209025809Y-82700761D01*
X208978190Y-82653142D01*
X203787714Y-74350571D02*
X203930571Y-74398190D01*
X203978190Y-74445809D01*
X204025809Y-74541047D01*
X204025809Y-74683904D01*
X203978190Y-74779142D01*
X203930571Y-74826761D01*
X203835333Y-74874380D01*
X203454380Y-74874380D01*
X203454380Y-73874380D01*
X203787714Y-73874380D01*
X203882952Y-73922000D01*
X203930571Y-73969619D01*
X203978190Y-74064857D01*
X203978190Y-74160095D01*
X203930571Y-74255333D01*
X203882952Y-74302952D01*
X203787714Y-74350571D01*
X203454380Y-74350571D01*
X204882952Y-74207714D02*
X204882952Y-74874380D01*
X204454380Y-74207714D02*
X204454380Y-74731523D01*
X204502000Y-74826761D01*
X204597238Y-74874380D01*
X204740095Y-74874380D01*
X204835333Y-74826761D01*
X204882952Y-74779142D01*
X205216285Y-74207714D02*
X205597238Y-74207714D01*
X205359142Y-73874380D02*
X205359142Y-74731523D01*
X205406761Y-74826761D01*
X205502000Y-74874380D01*
X205597238Y-74874380D01*
X205787714Y-74207714D02*
X206168666Y-74207714D01*
X205930571Y-73874380D02*
X205930571Y-74731523D01*
X205978190Y-74826761D01*
X206073428Y-74874380D01*
X206168666Y-74874380D01*
X206644857Y-74874380D02*
X206549619Y-74826761D01*
X206502000Y-74779142D01*
X206454380Y-74683904D01*
X206454380Y-74398190D01*
X206502000Y-74302952D01*
X206549619Y-74255333D01*
X206644857Y-74207714D01*
X206787714Y-74207714D01*
X206882952Y-74255333D01*
X206930571Y-74302952D01*
X206978190Y-74398190D01*
X206978190Y-74683904D01*
X206930571Y-74779142D01*
X206882952Y-74826761D01*
X206787714Y-74874380D01*
X206644857Y-74874380D01*
X207406761Y-74207714D02*
X207406761Y-74874380D01*
X207406761Y-74302952D02*
X207454380Y-74255333D01*
X207549619Y-74207714D01*
X207692476Y-74207714D01*
X207787714Y-74255333D01*
X207835333Y-74350571D01*
X207835333Y-74874380D01*
X209025809Y-73969619D02*
X209073428Y-73922000D01*
X209168666Y-73874380D01*
X209406761Y-73874380D01*
X209502000Y-73922000D01*
X209549619Y-73969619D01*
X209597238Y-74064857D01*
X209597238Y-74160095D01*
X209549619Y-74302952D01*
X208978190Y-74874380D01*
X209597238Y-74874380D01*
X106251714Y-82097571D02*
X106394571Y-82145190D01*
X106442190Y-82192809D01*
X106489809Y-82288047D01*
X106489809Y-82430904D01*
X106442190Y-82526142D01*
X106394571Y-82573761D01*
X106299333Y-82621380D01*
X105918380Y-82621380D01*
X105918380Y-81621380D01*
X106251714Y-81621380D01*
X106346952Y-81669000D01*
X106394571Y-81716619D01*
X106442190Y-81811857D01*
X106442190Y-81907095D01*
X106394571Y-82002333D01*
X106346952Y-82049952D01*
X106251714Y-82097571D01*
X105918380Y-82097571D01*
X107346952Y-81954714D02*
X107346952Y-82621380D01*
X106918380Y-81954714D02*
X106918380Y-82478523D01*
X106966000Y-82573761D01*
X107061238Y-82621380D01*
X107204095Y-82621380D01*
X107299333Y-82573761D01*
X107346952Y-82526142D01*
X107680285Y-81954714D02*
X108061238Y-81954714D01*
X107823142Y-81621380D02*
X107823142Y-82478523D01*
X107870761Y-82573761D01*
X107966000Y-82621380D01*
X108061238Y-82621380D01*
X108251714Y-81954714D02*
X108632666Y-81954714D01*
X108394571Y-81621380D02*
X108394571Y-82478523D01*
X108442190Y-82573761D01*
X108537428Y-82621380D01*
X108632666Y-82621380D01*
X109108857Y-82621380D02*
X109013619Y-82573761D01*
X108966000Y-82526142D01*
X108918380Y-82430904D01*
X108918380Y-82145190D01*
X108966000Y-82049952D01*
X109013619Y-82002333D01*
X109108857Y-81954714D01*
X109251714Y-81954714D01*
X109346952Y-82002333D01*
X109394571Y-82049952D01*
X109442190Y-82145190D01*
X109442190Y-82430904D01*
X109394571Y-82526142D01*
X109346952Y-82573761D01*
X109251714Y-82621380D01*
X109108857Y-82621380D01*
X109870761Y-81954714D02*
X109870761Y-82621380D01*
X109870761Y-82049952D02*
X109918380Y-82002333D01*
X110013619Y-81954714D01*
X110156476Y-81954714D01*
X110251714Y-82002333D01*
X110299333Y-82097571D01*
X110299333Y-82621380D01*
X111442190Y-81621380D02*
X112061238Y-81621380D01*
X111727904Y-82002333D01*
X111870761Y-82002333D01*
X111966000Y-82049952D01*
X112013619Y-82097571D01*
X112061238Y-82192809D01*
X112061238Y-82430904D01*
X112013619Y-82526142D01*
X111966000Y-82573761D01*
X111870761Y-82621380D01*
X111585047Y-82621380D01*
X111489809Y-82573761D01*
X111442190Y-82526142D01*
X106251714Y-74096571D02*
X106394571Y-74144190D01*
X106442190Y-74191809D01*
X106489809Y-74287047D01*
X106489809Y-74429904D01*
X106442190Y-74525142D01*
X106394571Y-74572761D01*
X106299333Y-74620380D01*
X105918380Y-74620380D01*
X105918380Y-73620380D01*
X106251714Y-73620380D01*
X106346952Y-73668000D01*
X106394571Y-73715619D01*
X106442190Y-73810857D01*
X106442190Y-73906095D01*
X106394571Y-74001333D01*
X106346952Y-74048952D01*
X106251714Y-74096571D01*
X105918380Y-74096571D01*
X107346952Y-73953714D02*
X107346952Y-74620380D01*
X106918380Y-73953714D02*
X106918380Y-74477523D01*
X106966000Y-74572761D01*
X107061238Y-74620380D01*
X107204095Y-74620380D01*
X107299333Y-74572761D01*
X107346952Y-74525142D01*
X107680285Y-73953714D02*
X108061238Y-73953714D01*
X107823142Y-73620380D02*
X107823142Y-74477523D01*
X107870761Y-74572761D01*
X107966000Y-74620380D01*
X108061238Y-74620380D01*
X108251714Y-73953714D02*
X108632666Y-73953714D01*
X108394571Y-73620380D02*
X108394571Y-74477523D01*
X108442190Y-74572761D01*
X108537428Y-74620380D01*
X108632666Y-74620380D01*
X109108857Y-74620380D02*
X109013619Y-74572761D01*
X108966000Y-74525142D01*
X108918380Y-74429904D01*
X108918380Y-74144190D01*
X108966000Y-74048952D01*
X109013619Y-74001333D01*
X109108857Y-73953714D01*
X109251714Y-73953714D01*
X109346952Y-74001333D01*
X109394571Y-74048952D01*
X109442190Y-74144190D01*
X109442190Y-74429904D01*
X109394571Y-74525142D01*
X109346952Y-74572761D01*
X109251714Y-74620380D01*
X109108857Y-74620380D01*
X109870761Y-73953714D02*
X109870761Y-74620380D01*
X109870761Y-74048952D02*
X109918380Y-74001333D01*
X110013619Y-73953714D01*
X110156476Y-73953714D01*
X110251714Y-74001333D01*
X110299333Y-74096571D01*
X110299333Y-74620380D01*
X111489809Y-73715619D02*
X111537428Y-73668000D01*
X111632666Y-73620380D01*
X111870761Y-73620380D01*
X111966000Y-73668000D01*
X112013619Y-73715619D01*
X112061238Y-73810857D01*
X112061238Y-73906095D01*
X112013619Y-74048952D01*
X111442190Y-74620380D01*
X112061238Y-74620380D01*
X106251714Y-66095571D02*
X106394571Y-66143190D01*
X106442190Y-66190809D01*
X106489809Y-66286047D01*
X106489809Y-66428904D01*
X106442190Y-66524142D01*
X106394571Y-66571761D01*
X106299333Y-66619380D01*
X105918380Y-66619380D01*
X105918380Y-65619380D01*
X106251714Y-65619380D01*
X106346952Y-65667000D01*
X106394571Y-65714619D01*
X106442190Y-65809857D01*
X106442190Y-65905095D01*
X106394571Y-66000333D01*
X106346952Y-66047952D01*
X106251714Y-66095571D01*
X105918380Y-66095571D01*
X107346952Y-65952714D02*
X107346952Y-66619380D01*
X106918380Y-65952714D02*
X106918380Y-66476523D01*
X106966000Y-66571761D01*
X107061238Y-66619380D01*
X107204095Y-66619380D01*
X107299333Y-66571761D01*
X107346952Y-66524142D01*
X107680285Y-65952714D02*
X108061238Y-65952714D01*
X107823142Y-65619380D02*
X107823142Y-66476523D01*
X107870761Y-66571761D01*
X107966000Y-66619380D01*
X108061238Y-66619380D01*
X108251714Y-65952714D02*
X108632666Y-65952714D01*
X108394571Y-65619380D02*
X108394571Y-66476523D01*
X108442190Y-66571761D01*
X108537428Y-66619380D01*
X108632666Y-66619380D01*
X109108857Y-66619380D02*
X109013619Y-66571761D01*
X108966000Y-66524142D01*
X108918380Y-66428904D01*
X108918380Y-66143190D01*
X108966000Y-66047952D01*
X109013619Y-66000333D01*
X109108857Y-65952714D01*
X109251714Y-65952714D01*
X109346952Y-66000333D01*
X109394571Y-66047952D01*
X109442190Y-66143190D01*
X109442190Y-66428904D01*
X109394571Y-66524142D01*
X109346952Y-66571761D01*
X109251714Y-66619380D01*
X109108857Y-66619380D01*
X109870761Y-65952714D02*
X109870761Y-66619380D01*
X109870761Y-66047952D02*
X109918380Y-66000333D01*
X110013619Y-65952714D01*
X110156476Y-65952714D01*
X110251714Y-66000333D01*
X110299333Y-66095571D01*
X110299333Y-66619380D01*
X112061238Y-66619380D02*
X111489809Y-66619380D01*
X111775523Y-66619380D02*
X111775523Y-65619380D01*
X111680285Y-65762238D01*
X111585047Y-65857476D01*
X111489809Y-65905095D01*
X203787714Y-66222571D02*
X203930571Y-66270190D01*
X203978190Y-66317809D01*
X204025809Y-66413047D01*
X204025809Y-66555904D01*
X203978190Y-66651142D01*
X203930571Y-66698761D01*
X203835333Y-66746380D01*
X203454380Y-66746380D01*
X203454380Y-65746380D01*
X203787714Y-65746380D01*
X203882952Y-65794000D01*
X203930571Y-65841619D01*
X203978190Y-65936857D01*
X203978190Y-66032095D01*
X203930571Y-66127333D01*
X203882952Y-66174952D01*
X203787714Y-66222571D01*
X203454380Y-66222571D01*
X204882952Y-66079714D02*
X204882952Y-66746380D01*
X204454380Y-66079714D02*
X204454380Y-66603523D01*
X204502000Y-66698761D01*
X204597238Y-66746380D01*
X204740095Y-66746380D01*
X204835333Y-66698761D01*
X204882952Y-66651142D01*
X205216285Y-66079714D02*
X205597238Y-66079714D01*
X205359142Y-65746380D02*
X205359142Y-66603523D01*
X205406761Y-66698761D01*
X205502000Y-66746380D01*
X205597238Y-66746380D01*
X205787714Y-66079714D02*
X206168666Y-66079714D01*
X205930571Y-65746380D02*
X205930571Y-66603523D01*
X205978190Y-66698761D01*
X206073428Y-66746380D01*
X206168666Y-66746380D01*
X206644857Y-66746380D02*
X206549619Y-66698761D01*
X206502000Y-66651142D01*
X206454380Y-66555904D01*
X206454380Y-66270190D01*
X206502000Y-66174952D01*
X206549619Y-66127333D01*
X206644857Y-66079714D01*
X206787714Y-66079714D01*
X206882952Y-66127333D01*
X206930571Y-66174952D01*
X206978190Y-66270190D01*
X206978190Y-66555904D01*
X206930571Y-66651142D01*
X206882952Y-66698761D01*
X206787714Y-66746380D01*
X206644857Y-66746380D01*
X207406761Y-66079714D02*
X207406761Y-66746380D01*
X207406761Y-66174952D02*
X207454380Y-66127333D01*
X207549619Y-66079714D01*
X207692476Y-66079714D01*
X207787714Y-66127333D01*
X207835333Y-66222571D01*
X207835333Y-66746380D01*
X209597238Y-66746380D02*
X209025809Y-66746380D01*
X209311523Y-66746380D02*
X209311523Y-65746380D01*
X209216285Y-65889238D01*
X209121047Y-65984476D01*
X209025809Y-66032095D01*
X211075857Y-85258666D02*
X211552047Y-85258666D01*
X210980619Y-85544380D02*
X211313952Y-84544380D01*
X211647285Y-85544380D01*
X211980619Y-85544380D02*
X211980619Y-84877714D01*
X211980619Y-84972952D02*
X212028238Y-84925333D01*
X212123476Y-84877714D01*
X212266333Y-84877714D01*
X212361571Y-84925333D01*
X212409190Y-85020571D01*
X212409190Y-85544380D01*
X212409190Y-85020571D02*
X212456809Y-84925333D01*
X212552047Y-84877714D01*
X212694904Y-84877714D01*
X212790142Y-84925333D01*
X212837761Y-85020571D01*
X212837761Y-85544380D01*
X213313952Y-85544380D02*
X213313952Y-84877714D01*
X213313952Y-84544380D02*
X213266333Y-84592000D01*
X213313952Y-84639619D01*
X213361571Y-84592000D01*
X213313952Y-84544380D01*
X213313952Y-84639619D01*
X214218714Y-84877714D02*
X214218714Y-85687238D01*
X214171095Y-85782476D01*
X214123476Y-85830095D01*
X214028238Y-85877714D01*
X213885380Y-85877714D01*
X213790142Y-85830095D01*
X214218714Y-85496761D02*
X214123476Y-85544380D01*
X213933000Y-85544380D01*
X213837761Y-85496761D01*
X213790142Y-85449142D01*
X213742523Y-85353904D01*
X213742523Y-85068190D01*
X213790142Y-84972952D01*
X213837761Y-84925333D01*
X213933000Y-84877714D01*
X214123476Y-84877714D01*
X214218714Y-84925333D01*
X215123476Y-85544380D02*
X215123476Y-85020571D01*
X215075857Y-84925333D01*
X214980619Y-84877714D01*
X214790142Y-84877714D01*
X214694904Y-84925333D01*
X215123476Y-85496761D02*
X215028238Y-85544380D01*
X214790142Y-85544380D01*
X214694904Y-85496761D01*
X214647285Y-85401523D01*
X214647285Y-85306285D01*
X214694904Y-85211047D01*
X214790142Y-85163428D01*
X215028238Y-85163428D01*
X215123476Y-85115809D01*
X216266333Y-84877714D02*
X216504428Y-85544380D01*
X216742523Y-84877714D01*
X217123476Y-85544380D02*
X217123476Y-84877714D01*
X217123476Y-84544380D02*
X217075857Y-84592000D01*
X217123476Y-84639619D01*
X217171095Y-84592000D01*
X217123476Y-84544380D01*
X217123476Y-84639619D01*
X218028238Y-85544380D02*
X218028238Y-84544380D01*
X218028238Y-85496761D02*
X217933000Y-85544380D01*
X217742523Y-85544380D01*
X217647285Y-85496761D01*
X217599666Y-85449142D01*
X217552047Y-85353904D01*
X217552047Y-85068190D01*
X217599666Y-84972952D01*
X217647285Y-84925333D01*
X217742523Y-84877714D01*
X217933000Y-84877714D01*
X218028238Y-84925333D01*
X218885380Y-85496761D02*
X218790142Y-85544380D01*
X218599666Y-85544380D01*
X218504428Y-85496761D01*
X218456809Y-85401523D01*
X218456809Y-85020571D01*
X218504428Y-84925333D01*
X218599666Y-84877714D01*
X218790142Y-84877714D01*
X218885380Y-84925333D01*
X218933000Y-85020571D01*
X218933000Y-85115809D01*
X218456809Y-85211047D01*
X219504428Y-85544380D02*
X219409190Y-85496761D01*
X219361571Y-85449142D01*
X219313952Y-85353904D01*
X219313952Y-85068190D01*
X219361571Y-84972952D01*
X219409190Y-84925333D01*
X219504428Y-84877714D01*
X219647285Y-84877714D01*
X219742523Y-84925333D01*
X219790142Y-84972952D01*
X219837761Y-85068190D01*
X219837761Y-85353904D01*
X219790142Y-85449142D01*
X219742523Y-85496761D01*
X219647285Y-85544380D01*
X219504428Y-85544380D01*
X220980619Y-85496761D02*
X221075857Y-85544380D01*
X221266333Y-85544380D01*
X221361571Y-85496761D01*
X221409190Y-85401523D01*
X221409190Y-85353904D01*
X221361571Y-85258666D01*
X221266333Y-85211047D01*
X221123476Y-85211047D01*
X221028238Y-85163428D01*
X220980619Y-85068190D01*
X220980619Y-85020571D01*
X221028238Y-84925333D01*
X221123476Y-84877714D01*
X221266333Y-84877714D01*
X221361571Y-84925333D01*
X221980619Y-85544380D02*
X221885380Y-85496761D01*
X221837761Y-85401523D01*
X221837761Y-84544380D01*
X222504428Y-85544380D02*
X222409190Y-85496761D01*
X222361571Y-85449142D01*
X222313952Y-85353904D01*
X222313952Y-85068190D01*
X222361571Y-84972952D01*
X222409190Y-84925333D01*
X222504428Y-84877714D01*
X222647285Y-84877714D01*
X222742523Y-84925333D01*
X222790142Y-84972952D01*
X222837761Y-85068190D01*
X222837761Y-85353904D01*
X222790142Y-85449142D01*
X222742523Y-85496761D01*
X222647285Y-85544380D01*
X222504428Y-85544380D01*
X223123476Y-84877714D02*
X223504428Y-84877714D01*
X223266333Y-84544380D02*
X223266333Y-85401523D01*
X223313952Y-85496761D01*
X223409190Y-85544380D01*
X223504428Y-85544380D01*
X225171095Y-85544380D02*
X224837761Y-85068190D01*
X224599666Y-85544380D02*
X224599666Y-84544380D01*
X224980619Y-84544380D01*
X225075857Y-84592000D01*
X225123476Y-84639619D01*
X225171095Y-84734857D01*
X225171095Y-84877714D01*
X225123476Y-84972952D01*
X225075857Y-85020571D01*
X224980619Y-85068190D01*
X224599666Y-85068190D01*
X226123476Y-84592000D02*
X226028238Y-84544380D01*
X225885380Y-84544380D01*
X225742523Y-84592000D01*
X225647285Y-84687238D01*
X225599666Y-84782476D01*
X225552047Y-84972952D01*
X225552047Y-85115809D01*
X225599666Y-85306285D01*
X225647285Y-85401523D01*
X225742523Y-85496761D01*
X225885380Y-85544380D01*
X225980619Y-85544380D01*
X226123476Y-85496761D01*
X226171095Y-85449142D01*
X226171095Y-85115809D01*
X225980619Y-85115809D01*
X226933000Y-85020571D02*
X227075857Y-85068190D01*
X227123476Y-85115809D01*
X227171095Y-85211047D01*
X227171095Y-85353904D01*
X227123476Y-85449142D01*
X227075857Y-85496761D01*
X226980619Y-85544380D01*
X226599666Y-85544380D01*
X226599666Y-84544380D01*
X226933000Y-84544380D01*
X227028238Y-84592000D01*
X227075857Y-84639619D01*
X227123476Y-84734857D01*
X227123476Y-84830095D01*
X227075857Y-84925333D01*
X227028238Y-84972952D01*
X226933000Y-85020571D01*
X226599666Y-85020571D01*
X227456809Y-84877714D02*
X227837761Y-84877714D01*
X227599666Y-84544380D02*
X227599666Y-85401523D01*
X227647285Y-85496761D01*
X227742523Y-85544380D01*
X227837761Y-85544380D01*
X228313952Y-85544380D02*
X228218714Y-85496761D01*
X228171095Y-85449142D01*
X228123476Y-85353904D01*
X228123476Y-85068190D01*
X228171095Y-84972952D01*
X228218714Y-84925333D01*
X228313952Y-84877714D01*
X228456809Y-84877714D01*
X228552047Y-84925333D01*
X228599666Y-84972952D01*
X228647285Y-85068190D01*
X228647285Y-85353904D01*
X228599666Y-85449142D01*
X228552047Y-85496761D01*
X228456809Y-85544380D01*
X228313952Y-85544380D01*
X229075857Y-85544380D02*
X229075857Y-84544380D01*
X229075857Y-85020571D02*
X229647285Y-85020571D01*
X229647285Y-85544380D02*
X229647285Y-84544380D01*
X230123476Y-85544380D02*
X230123476Y-84544380D01*
X230361571Y-84544380D01*
X230504428Y-84592000D01*
X230599666Y-84687238D01*
X230647285Y-84782476D01*
X230694904Y-84972952D01*
X230694904Y-85115809D01*
X230647285Y-85306285D01*
X230599666Y-85401523D01*
X230504428Y-85496761D01*
X230361571Y-85544380D01*
X230123476Y-85544380D01*
X231123476Y-85544380D02*
X231123476Y-84544380D01*
X231456809Y-85258666D01*
X231790142Y-84544380D01*
X231790142Y-85544380D01*
X232266333Y-85544380D02*
X232266333Y-84544380D01*
X234075857Y-85449142D02*
X234028238Y-85496761D01*
X233885380Y-85544380D01*
X233790142Y-85544380D01*
X233647285Y-85496761D01*
X233552047Y-85401523D01*
X233504428Y-85306285D01*
X233456809Y-85115809D01*
X233456809Y-84972952D01*
X233504428Y-84782476D01*
X233552047Y-84687238D01*
X233647285Y-84592000D01*
X233790142Y-84544380D01*
X233885380Y-84544380D01*
X234028238Y-84592000D01*
X234075857Y-84639619D01*
X234504428Y-85544380D02*
X234504428Y-84544380D01*
X234885380Y-84544380D01*
X234980619Y-84592000D01*
X235028238Y-84639619D01*
X235075857Y-84734857D01*
X235075857Y-84877714D01*
X235028238Y-84972952D01*
X234980619Y-85020571D01*
X234885380Y-85068190D01*
X234504428Y-85068190D01*
X235980619Y-85544380D02*
X235504428Y-85544380D01*
X235504428Y-84544380D01*
X236313952Y-85544380D02*
X236313952Y-84544380D01*
X236552047Y-84544380D01*
X236694904Y-84592000D01*
X236790142Y-84687238D01*
X236837761Y-84782476D01*
X236885380Y-84972952D01*
X236885380Y-85115809D01*
X236837761Y-85306285D01*
X236790142Y-85401523D01*
X236694904Y-85496761D01*
X236552047Y-85544380D01*
X236313952Y-85544380D01*
X237980619Y-84877714D02*
X238218714Y-85544380D01*
X238456809Y-84877714D01*
X239361571Y-85544380D02*
X238790142Y-85544380D01*
X239075857Y-85544380D02*
X239075857Y-84544380D01*
X238980619Y-84687238D01*
X238885380Y-84782476D01*
X238790142Y-84830095D01*
X239790142Y-85449142D02*
X239837761Y-85496761D01*
X239790142Y-85544380D01*
X239742523Y-85496761D01*
X239790142Y-85449142D01*
X239790142Y-85544380D01*
X240790142Y-85544380D02*
X240218714Y-85544380D01*
X240504428Y-85544380D02*
X240504428Y-84544380D01*
X240409190Y-84687238D01*
X240313952Y-84782476D01*
X240218714Y-84830095D01*
X219171095Y-87575333D02*
X219123476Y-87527714D01*
X219028238Y-87384857D01*
X218980619Y-87289619D01*
X218933000Y-87146761D01*
X218885380Y-86908666D01*
X218885380Y-86718190D01*
X218933000Y-86480095D01*
X218980619Y-86337238D01*
X219028238Y-86242000D01*
X219123476Y-86099142D01*
X219171095Y-86051523D01*
X220123476Y-87099142D02*
X220075857Y-87146761D01*
X219933000Y-87194380D01*
X219837761Y-87194380D01*
X219694904Y-87146761D01*
X219599666Y-87051523D01*
X219552047Y-86956285D01*
X219504428Y-86765809D01*
X219504428Y-86622952D01*
X219552047Y-86432476D01*
X219599666Y-86337238D01*
X219694904Y-86242000D01*
X219837761Y-86194380D01*
X219933000Y-86194380D01*
X220075857Y-86242000D01*
X220123476Y-86289619D01*
X220456809Y-87575333D02*
X220504428Y-87527714D01*
X220599666Y-87384857D01*
X220647285Y-87289619D01*
X220694904Y-87146761D01*
X220742523Y-86908666D01*
X220742523Y-86718190D01*
X220694904Y-86480095D01*
X220647285Y-86337238D01*
X220599666Y-86242000D01*
X220504428Y-86099142D01*
X220456809Y-86051523D01*
X221933000Y-86289619D02*
X221980619Y-86242000D01*
X222075857Y-86194380D01*
X222313952Y-86194380D01*
X222409190Y-86242000D01*
X222456809Y-86289619D01*
X222504428Y-86384857D01*
X222504428Y-86480095D01*
X222456809Y-86622952D01*
X221885380Y-87194380D01*
X222504428Y-87194380D01*
X223123476Y-86194380D02*
X223218714Y-86194380D01*
X223313952Y-86242000D01*
X223361571Y-86289619D01*
X223409190Y-86384857D01*
X223456809Y-86575333D01*
X223456809Y-86813428D01*
X223409190Y-87003904D01*
X223361571Y-87099142D01*
X223313952Y-87146761D01*
X223218714Y-87194380D01*
X223123476Y-87194380D01*
X223028238Y-87146761D01*
X222980619Y-87099142D01*
X222933000Y-87003904D01*
X222885380Y-86813428D01*
X222885380Y-86575333D01*
X222933000Y-86384857D01*
X222980619Y-86289619D01*
X223028238Y-86242000D01*
X223123476Y-86194380D01*
X223837761Y-86289619D02*
X223885380Y-86242000D01*
X223980619Y-86194380D01*
X224218714Y-86194380D01*
X224313952Y-86242000D01*
X224361571Y-86289619D01*
X224409190Y-86384857D01*
X224409190Y-86480095D01*
X224361571Y-86622952D01*
X223790142Y-87194380D01*
X224409190Y-87194380D01*
X225361571Y-87194380D02*
X224790142Y-87194380D01*
X225075857Y-87194380D02*
X225075857Y-86194380D01*
X224980619Y-86337238D01*
X224885380Y-86432476D01*
X224790142Y-86480095D01*
X227028238Y-87194380D02*
X226552047Y-87194380D01*
X226552047Y-86194380D01*
X227361571Y-87194380D02*
X227361571Y-86527714D01*
X227361571Y-86194380D02*
X227313952Y-86242000D01*
X227361571Y-86289619D01*
X227409190Y-86242000D01*
X227361571Y-86194380D01*
X227361571Y-86289619D01*
X227837761Y-86527714D02*
X227837761Y-87194380D01*
X227837761Y-86622952D02*
X227885380Y-86575333D01*
X227980619Y-86527714D01*
X228123476Y-86527714D01*
X228218714Y-86575333D01*
X228266333Y-86670571D01*
X228266333Y-87194380D01*
X229171095Y-86527714D02*
X229171095Y-87194380D01*
X228742523Y-86527714D02*
X228742523Y-87051523D01*
X228790142Y-87146761D01*
X228885380Y-87194380D01*
X229028238Y-87194380D01*
X229123476Y-87146761D01*
X229171095Y-87099142D01*
X229552047Y-87194380D02*
X230075857Y-86527714D01*
X229552047Y-86527714D02*
X230075857Y-87194380D01*
X230742523Y-86194380D02*
X230742523Y-86908666D01*
X230694904Y-87051523D01*
X230599666Y-87146761D01*
X230456809Y-87194380D01*
X230361571Y-87194380D01*
X231599666Y-87146761D02*
X231504428Y-87194380D01*
X231313952Y-87194380D01*
X231218714Y-87146761D01*
X231171095Y-87051523D01*
X231171095Y-86670571D01*
X231218714Y-86575333D01*
X231313952Y-86527714D01*
X231504428Y-86527714D01*
X231599666Y-86575333D01*
X231647285Y-86670571D01*
X231647285Y-86765809D01*
X231171095Y-86861047D01*
X232504428Y-87194380D02*
X232504428Y-86194380D01*
X232504428Y-87146761D02*
X232409190Y-87194380D01*
X232218714Y-87194380D01*
X232123476Y-87146761D01*
X232075857Y-87099142D01*
X232028238Y-87003904D01*
X232028238Y-86718190D01*
X232075857Y-86622952D01*
X232123476Y-86575333D01*
X232218714Y-86527714D01*
X232409190Y-86527714D01*
X232504428Y-86575333D01*
X232980619Y-87194380D02*
X232980619Y-86527714D01*
X232980619Y-86194380D02*
X232933000Y-86242000D01*
X232980619Y-86289619D01*
X233028238Y-86242000D01*
X232980619Y-86194380D01*
X232980619Y-86289619D01*
X213290142Y-88320571D02*
X213433000Y-88368190D01*
X213480619Y-88415809D01*
X213528238Y-88511047D01*
X213528238Y-88653904D01*
X213480619Y-88749142D01*
X213433000Y-88796761D01*
X213337761Y-88844380D01*
X212956809Y-88844380D01*
X212956809Y-87844380D01*
X213290142Y-87844380D01*
X213385380Y-87892000D01*
X213433000Y-87939619D01*
X213480619Y-88034857D01*
X213480619Y-88130095D01*
X213433000Y-88225333D01*
X213385380Y-88272952D01*
X213290142Y-88320571D01*
X212956809Y-88320571D01*
X214385380Y-88844380D02*
X214385380Y-88320571D01*
X214337761Y-88225333D01*
X214242523Y-88177714D01*
X214052047Y-88177714D01*
X213956809Y-88225333D01*
X214385380Y-88796761D02*
X214290142Y-88844380D01*
X214052047Y-88844380D01*
X213956809Y-88796761D01*
X213909190Y-88701523D01*
X213909190Y-88606285D01*
X213956809Y-88511047D01*
X214052047Y-88463428D01*
X214290142Y-88463428D01*
X214385380Y-88415809D01*
X214813952Y-88796761D02*
X214909190Y-88844380D01*
X215099666Y-88844380D01*
X215194904Y-88796761D01*
X215242523Y-88701523D01*
X215242523Y-88653904D01*
X215194904Y-88558666D01*
X215099666Y-88511047D01*
X214956809Y-88511047D01*
X214861571Y-88463428D01*
X214813952Y-88368190D01*
X214813952Y-88320571D01*
X214861571Y-88225333D01*
X214956809Y-88177714D01*
X215099666Y-88177714D01*
X215194904Y-88225333D01*
X216052047Y-88796761D02*
X215956809Y-88844380D01*
X215766333Y-88844380D01*
X215671095Y-88796761D01*
X215623476Y-88701523D01*
X215623476Y-88320571D01*
X215671095Y-88225333D01*
X215766333Y-88177714D01*
X215956809Y-88177714D01*
X216052047Y-88225333D01*
X216099666Y-88320571D01*
X216099666Y-88415809D01*
X215623476Y-88511047D01*
X216956809Y-88844380D02*
X216956809Y-87844380D01*
X216956809Y-88796761D02*
X216861571Y-88844380D01*
X216671095Y-88844380D01*
X216575857Y-88796761D01*
X216528238Y-88749142D01*
X216480619Y-88653904D01*
X216480619Y-88368190D01*
X216528238Y-88272952D01*
X216575857Y-88225333D01*
X216671095Y-88177714D01*
X216861571Y-88177714D01*
X216956809Y-88225333D01*
X218337761Y-88844380D02*
X218242523Y-88796761D01*
X218194904Y-88749142D01*
X218147285Y-88653904D01*
X218147285Y-88368190D01*
X218194904Y-88272952D01*
X218242523Y-88225333D01*
X218337761Y-88177714D01*
X218480619Y-88177714D01*
X218575857Y-88225333D01*
X218623476Y-88272952D01*
X218671095Y-88368190D01*
X218671095Y-88653904D01*
X218623476Y-88749142D01*
X218575857Y-88796761D01*
X218480619Y-88844380D01*
X218337761Y-88844380D01*
X219099666Y-88177714D02*
X219099666Y-88844380D01*
X219099666Y-88272952D02*
X219147285Y-88225333D01*
X219242523Y-88177714D01*
X219385380Y-88177714D01*
X219480619Y-88225333D01*
X219528238Y-88320571D01*
X219528238Y-88844380D01*
X220671095Y-88177714D02*
X220861571Y-88844380D01*
X221052047Y-88368190D01*
X221242523Y-88844380D01*
X221433000Y-88177714D01*
X221956809Y-88844380D02*
X221861571Y-88796761D01*
X221813952Y-88749142D01*
X221766333Y-88653904D01*
X221766333Y-88368190D01*
X221813952Y-88272952D01*
X221861571Y-88225333D01*
X221956809Y-88177714D01*
X222099666Y-88177714D01*
X222194904Y-88225333D01*
X222242523Y-88272952D01*
X222290142Y-88368190D01*
X222290142Y-88653904D01*
X222242523Y-88749142D01*
X222194904Y-88796761D01*
X222099666Y-88844380D01*
X221956809Y-88844380D01*
X222718714Y-88844380D02*
X222718714Y-88177714D01*
X222718714Y-88368190D02*
X222766333Y-88272952D01*
X222813952Y-88225333D01*
X222909190Y-88177714D01*
X223004428Y-88177714D01*
X223337761Y-88844380D02*
X223337761Y-87844380D01*
X223433000Y-88463428D02*
X223718714Y-88844380D01*
X223718714Y-88177714D02*
X223337761Y-88558666D01*
X224909190Y-88844380D02*
X224909190Y-87844380D01*
X224909190Y-88225333D02*
X225004428Y-88177714D01*
X225194904Y-88177714D01*
X225290142Y-88225333D01*
X225337761Y-88272952D01*
X225385380Y-88368190D01*
X225385380Y-88653904D01*
X225337761Y-88749142D01*
X225290142Y-88796761D01*
X225194904Y-88844380D01*
X225004428Y-88844380D01*
X224909190Y-88796761D01*
X225718714Y-88177714D02*
X225956809Y-88844380D01*
X226194904Y-88177714D02*
X225956809Y-88844380D01*
X225861571Y-89082476D01*
X225813952Y-89130095D01*
X225718714Y-89177714D01*
X227337761Y-88844380D02*
X227337761Y-87844380D01*
X228242523Y-88844380D02*
X228242523Y-88320571D01*
X228194904Y-88225333D01*
X228099666Y-88177714D01*
X227909190Y-88177714D01*
X227813952Y-88225333D01*
X228242523Y-88796761D02*
X228147285Y-88844380D01*
X227909190Y-88844380D01*
X227813952Y-88796761D01*
X227766333Y-88701523D01*
X227766333Y-88606285D01*
X227813952Y-88511047D01*
X227909190Y-88463428D01*
X228147285Y-88463428D01*
X228242523Y-88415809D01*
X228718714Y-88177714D02*
X228718714Y-88844380D01*
X228718714Y-88272952D02*
X228766333Y-88225333D01*
X228861571Y-88177714D01*
X229004428Y-88177714D01*
X229099666Y-88225333D01*
X229147285Y-88320571D01*
X229147285Y-88844380D01*
X229575857Y-88796761D02*
X229718714Y-88844380D01*
X229956809Y-88844380D01*
X230052047Y-88796761D01*
X230099666Y-88749142D01*
X230147285Y-88653904D01*
X230147285Y-88558666D01*
X230099666Y-88463428D01*
X230052047Y-88415809D01*
X229956809Y-88368190D01*
X229766333Y-88320571D01*
X229671095Y-88272952D01*
X229623476Y-88225333D01*
X229575857Y-88130095D01*
X229575857Y-88034857D01*
X229623476Y-87939619D01*
X229671095Y-87892000D01*
X229766333Y-87844380D01*
X230004428Y-87844380D01*
X230147285Y-87892000D01*
X230909190Y-88320571D02*
X231052047Y-88368190D01*
X231099666Y-88415809D01*
X231147285Y-88511047D01*
X231147285Y-88653904D01*
X231099666Y-88749142D01*
X231052047Y-88796761D01*
X230956809Y-88844380D01*
X230575857Y-88844380D01*
X230575857Y-87844380D01*
X230909190Y-87844380D01*
X231004428Y-87892000D01*
X231052047Y-87939619D01*
X231099666Y-88034857D01*
X231099666Y-88130095D01*
X231052047Y-88225333D01*
X231004428Y-88272952D01*
X230909190Y-88320571D01*
X230575857Y-88320571D01*
X231623476Y-88796761D02*
X231623476Y-88844380D01*
X231575857Y-88939619D01*
X231528238Y-88987238D01*
X232813952Y-88844380D02*
X232813952Y-87844380D01*
X233242523Y-88844380D02*
X233242523Y-88320571D01*
X233194904Y-88225333D01*
X233099666Y-88177714D01*
X232956809Y-88177714D01*
X232861571Y-88225333D01*
X232813952Y-88272952D01*
X233861571Y-88844380D02*
X233766333Y-88796761D01*
X233718714Y-88749142D01*
X233671095Y-88653904D01*
X233671095Y-88368190D01*
X233718714Y-88272952D01*
X233766333Y-88225333D01*
X233861571Y-88177714D01*
X234004428Y-88177714D01*
X234099666Y-88225333D01*
X234147285Y-88272952D01*
X234194904Y-88368190D01*
X234194904Y-88653904D01*
X234147285Y-88749142D01*
X234099666Y-88796761D01*
X234004428Y-88844380D01*
X233861571Y-88844380D01*
X235052047Y-88177714D02*
X235052047Y-88987238D01*
X235004428Y-89082476D01*
X234956809Y-89130095D01*
X234861571Y-89177714D01*
X234718714Y-89177714D01*
X234623476Y-89130095D01*
X235052047Y-88796761D02*
X234956809Y-88844380D01*
X234766333Y-88844380D01*
X234671095Y-88796761D01*
X234623476Y-88749142D01*
X234575857Y-88653904D01*
X234575857Y-88368190D01*
X234623476Y-88272952D01*
X234671095Y-88225333D01*
X234766333Y-88177714D01*
X234956809Y-88177714D01*
X235052047Y-88225333D01*
X235671095Y-88844380D02*
X235575857Y-88796761D01*
X235528238Y-88701523D01*
X235528238Y-87844380D01*
X236433000Y-88796761D02*
X236337761Y-88844380D01*
X236147285Y-88844380D01*
X236052047Y-88796761D01*
X236004428Y-88701523D01*
X236004428Y-88320571D01*
X236052047Y-88225333D01*
X236147285Y-88177714D01*
X236337761Y-88177714D01*
X236433000Y-88225333D01*
X236480619Y-88320571D01*
X236480619Y-88415809D01*
X236004428Y-88511047D01*
X236766333Y-88177714D02*
X237147285Y-88177714D01*
X236909190Y-87844380D02*
X236909190Y-88701523D01*
X236956809Y-88796761D01*
X237052047Y-88844380D01*
X237147285Y-88844380D01*
X237909190Y-87844380D02*
X237718714Y-87844380D01*
X237623476Y-87892000D01*
X237575857Y-87939619D01*
X237480619Y-88082476D01*
X237433000Y-88272952D01*
X237433000Y-88653904D01*
X237480619Y-88749142D01*
X237528238Y-88796761D01*
X237623476Y-88844380D01*
X237813952Y-88844380D01*
X237909190Y-88796761D01*
X237956809Y-88749142D01*
X238004428Y-88653904D01*
X238004428Y-88415809D01*
X237956809Y-88320571D01*
X237909190Y-88272952D01*
X237813952Y-88225333D01*
X237623476Y-88225333D01*
X237528238Y-88272952D01*
X237480619Y-88320571D01*
X237433000Y-88415809D01*
X238337761Y-87844380D02*
X239004428Y-87844380D01*
X238575857Y-88844380D01*
X220028238Y-90494380D02*
X220028238Y-89970571D01*
X219980619Y-89875333D01*
X219885380Y-89827714D01*
X219694904Y-89827714D01*
X219599666Y-89875333D01*
X220028238Y-90446761D02*
X219933000Y-90494380D01*
X219694904Y-90494380D01*
X219599666Y-90446761D01*
X219552047Y-90351523D01*
X219552047Y-90256285D01*
X219599666Y-90161047D01*
X219694904Y-90113428D01*
X219933000Y-90113428D01*
X220028238Y-90065809D01*
X220504428Y-89827714D02*
X220504428Y-90494380D01*
X220504428Y-89922952D02*
X220552047Y-89875333D01*
X220647285Y-89827714D01*
X220790142Y-89827714D01*
X220885380Y-89875333D01*
X220933000Y-89970571D01*
X220933000Y-90494380D01*
X221837761Y-90494380D02*
X221837761Y-89494380D01*
X221837761Y-90446761D02*
X221742523Y-90494380D01*
X221552047Y-90494380D01*
X221456809Y-90446761D01*
X221409190Y-90399142D01*
X221361571Y-90303904D01*
X221361571Y-90018190D01*
X221409190Y-89922952D01*
X221456809Y-89875333D01*
X221552047Y-89827714D01*
X221742523Y-89827714D01*
X221837761Y-89875333D01*
X223409190Y-89970571D02*
X223552047Y-90018190D01*
X223599666Y-90065809D01*
X223647285Y-90161047D01*
X223647285Y-90303904D01*
X223599666Y-90399142D01*
X223552047Y-90446761D01*
X223456809Y-90494380D01*
X223075857Y-90494380D01*
X223075857Y-89494380D01*
X223409190Y-89494380D01*
X223504428Y-89542000D01*
X223552047Y-89589619D01*
X223599666Y-89684857D01*
X223599666Y-89780095D01*
X223552047Y-89875333D01*
X223504428Y-89922952D01*
X223409190Y-89970571D01*
X223075857Y-89970571D01*
X224218714Y-90494380D02*
X224123476Y-90446761D01*
X224075857Y-90351523D01*
X224075857Y-89494380D01*
X224742523Y-90494380D02*
X224647285Y-90446761D01*
X224599666Y-90399142D01*
X224552047Y-90303904D01*
X224552047Y-90018190D01*
X224599666Y-89922952D01*
X224647285Y-89875333D01*
X224742523Y-89827714D01*
X224885380Y-89827714D01*
X224980619Y-89875333D01*
X225028238Y-89922952D01*
X225075857Y-90018190D01*
X225075857Y-90303904D01*
X225028238Y-90399142D01*
X224980619Y-90446761D01*
X224885380Y-90494380D01*
X224742523Y-90494380D01*
X225647285Y-90494380D02*
X225552047Y-90446761D01*
X225504428Y-90399142D01*
X225456809Y-90303904D01*
X225456809Y-90018190D01*
X225504428Y-89922952D01*
X225552047Y-89875333D01*
X225647285Y-89827714D01*
X225790142Y-89827714D01*
X225885380Y-89875333D01*
X225933000Y-89922952D01*
X225980619Y-90018190D01*
X225980619Y-90303904D01*
X225933000Y-90399142D01*
X225885380Y-90446761D01*
X225790142Y-90494380D01*
X225647285Y-90494380D01*
X226837761Y-90494380D02*
X226837761Y-89494380D01*
X226837761Y-90446761D02*
X226742523Y-90494380D01*
X226552047Y-90494380D01*
X226456809Y-90446761D01*
X226409190Y-90399142D01*
X226361571Y-90303904D01*
X226361571Y-90018190D01*
X226409190Y-89922952D01*
X226456809Y-89875333D01*
X226552047Y-89827714D01*
X226742523Y-89827714D01*
X226837761Y-89875333D01*
X227313952Y-90494380D02*
X227313952Y-89827714D01*
X227313952Y-89922952D02*
X227361571Y-89875333D01*
X227456809Y-89827714D01*
X227599666Y-89827714D01*
X227694904Y-89875333D01*
X227742523Y-89970571D01*
X227742523Y-90494380D01*
X227742523Y-89970571D02*
X227790142Y-89875333D01*
X227885380Y-89827714D01*
X228028238Y-89827714D01*
X228123476Y-89875333D01*
X228171095Y-89970571D01*
X228171095Y-90494380D01*
X228790142Y-90494380D02*
X228694904Y-90446761D01*
X228647285Y-90399142D01*
X228599666Y-90303904D01*
X228599666Y-90018190D01*
X228647285Y-89922952D01*
X228694904Y-89875333D01*
X228790142Y-89827714D01*
X228933000Y-89827714D01*
X229028238Y-89875333D01*
X229075857Y-89922952D01*
X229123476Y-90018190D01*
X229123476Y-90303904D01*
X229075857Y-90399142D01*
X229028238Y-90446761D01*
X228933000Y-90494380D01*
X228790142Y-90494380D01*
X229504428Y-90446761D02*
X229599666Y-90494380D01*
X229790142Y-90494380D01*
X229885380Y-90446761D01*
X229933000Y-90351523D01*
X229933000Y-90303904D01*
X229885380Y-90208666D01*
X229790142Y-90161047D01*
X229647285Y-90161047D01*
X229552047Y-90113428D01*
X229504428Y-90018190D01*
X229504428Y-89970571D01*
X229552047Y-89875333D01*
X229647285Y-89827714D01*
X229790142Y-89827714D01*
X229885380Y-89875333D01*
X230361571Y-90494380D02*
X230361571Y-89494380D01*
X230790142Y-90494380D02*
X230790142Y-89970571D01*
X230742523Y-89875333D01*
X230647285Y-89827714D01*
X230504428Y-89827714D01*
X230409190Y-89875333D01*
X230361571Y-89922952D01*
X231647285Y-90446761D02*
X231552047Y-90494380D01*
X231361571Y-90494380D01*
X231266333Y-90446761D01*
X231218714Y-90351523D01*
X231218714Y-89970571D01*
X231266333Y-89875333D01*
X231361571Y-89827714D01*
X231552047Y-89827714D01*
X231647285Y-89875333D01*
X231694904Y-89970571D01*
X231694904Y-90065809D01*
X231218714Y-90161047D01*
X232123476Y-90494380D02*
X232123476Y-89827714D01*
X232123476Y-90018190D02*
X232171095Y-89922952D01*
X232218714Y-89875333D01*
X232313952Y-89827714D01*
X232409190Y-89827714D01*
X208075857Y-92144380D02*
X208075857Y-91144380D01*
X208504428Y-92144380D02*
X208504428Y-91620571D01*
X208456809Y-91525333D01*
X208361571Y-91477714D01*
X208218714Y-91477714D01*
X208123476Y-91525333D01*
X208075857Y-91572952D01*
X208837761Y-91477714D02*
X209218714Y-91477714D01*
X208980619Y-91144380D02*
X208980619Y-92001523D01*
X209028238Y-92096761D01*
X209123476Y-92144380D01*
X209218714Y-92144380D01*
X209409190Y-91477714D02*
X209790142Y-91477714D01*
X209552047Y-91144380D02*
X209552047Y-92001523D01*
X209599666Y-92096761D01*
X209694904Y-92144380D01*
X209790142Y-92144380D01*
X210123476Y-91477714D02*
X210123476Y-92477714D01*
X210123476Y-91525333D02*
X210218714Y-91477714D01*
X210409190Y-91477714D01*
X210504428Y-91525333D01*
X210552047Y-91572952D01*
X210599666Y-91668190D01*
X210599666Y-91953904D01*
X210552047Y-92049142D01*
X210504428Y-92096761D01*
X210409190Y-92144380D01*
X210218714Y-92144380D01*
X210123476Y-92096761D01*
X210980619Y-92096761D02*
X211075857Y-92144380D01*
X211266333Y-92144380D01*
X211361571Y-92096761D01*
X211409190Y-92001523D01*
X211409190Y-91953904D01*
X211361571Y-91858666D01*
X211266333Y-91811047D01*
X211123476Y-91811047D01*
X211028238Y-91763428D01*
X210980619Y-91668190D01*
X210980619Y-91620571D01*
X211028238Y-91525333D01*
X211123476Y-91477714D01*
X211266333Y-91477714D01*
X211361571Y-91525333D01*
X211837761Y-92049142D02*
X211885380Y-92096761D01*
X211837761Y-92144380D01*
X211790142Y-92096761D01*
X211837761Y-92049142D01*
X211837761Y-92144380D01*
X211837761Y-91525333D02*
X211885380Y-91572952D01*
X211837761Y-91620571D01*
X211790142Y-91572952D01*
X211837761Y-91525333D01*
X211837761Y-91620571D01*
X213028238Y-91096761D02*
X212171095Y-92382476D01*
X214075857Y-91096761D02*
X213218714Y-92382476D01*
X214837761Y-91477714D02*
X214837761Y-92287238D01*
X214790142Y-92382476D01*
X214742523Y-92430095D01*
X214647285Y-92477714D01*
X214504428Y-92477714D01*
X214409190Y-92430095D01*
X214837761Y-92096761D02*
X214742523Y-92144380D01*
X214552047Y-92144380D01*
X214456809Y-92096761D01*
X214409190Y-92049142D01*
X214361571Y-91953904D01*
X214361571Y-91668190D01*
X214409190Y-91572952D01*
X214456809Y-91525333D01*
X214552047Y-91477714D01*
X214742523Y-91477714D01*
X214837761Y-91525333D01*
X215313952Y-92144380D02*
X215313952Y-91477714D01*
X215313952Y-91144380D02*
X215266333Y-91192000D01*
X215313952Y-91239619D01*
X215361571Y-91192000D01*
X215313952Y-91144380D01*
X215313952Y-91239619D01*
X215647285Y-91477714D02*
X216028238Y-91477714D01*
X215790142Y-91144380D02*
X215790142Y-92001523D01*
X215837761Y-92096761D01*
X215933000Y-92144380D01*
X216028238Y-92144380D01*
X216361571Y-92144380D02*
X216361571Y-91144380D01*
X216790142Y-92144380D02*
X216790142Y-91620571D01*
X216742523Y-91525333D01*
X216647285Y-91477714D01*
X216504428Y-91477714D01*
X216409190Y-91525333D01*
X216361571Y-91572952D01*
X217694904Y-91477714D02*
X217694904Y-92144380D01*
X217266333Y-91477714D02*
X217266333Y-92001523D01*
X217313952Y-92096761D01*
X217409190Y-92144380D01*
X217552047Y-92144380D01*
X217647285Y-92096761D01*
X217694904Y-92049142D01*
X218171095Y-92144380D02*
X218171095Y-91144380D01*
X218171095Y-91525333D02*
X218266333Y-91477714D01*
X218456809Y-91477714D01*
X218552047Y-91525333D01*
X218599666Y-91572952D01*
X218647285Y-91668190D01*
X218647285Y-91953904D01*
X218599666Y-92049142D01*
X218552047Y-92096761D01*
X218456809Y-92144380D01*
X218266333Y-92144380D01*
X218171095Y-92096761D01*
X219075857Y-92049142D02*
X219123476Y-92096761D01*
X219075857Y-92144380D01*
X219028238Y-92096761D01*
X219075857Y-92049142D01*
X219075857Y-92144380D01*
X219980619Y-92096761D02*
X219885380Y-92144380D01*
X219694904Y-92144380D01*
X219599666Y-92096761D01*
X219552047Y-92049142D01*
X219504428Y-91953904D01*
X219504428Y-91668190D01*
X219552047Y-91572952D01*
X219599666Y-91525333D01*
X219694904Y-91477714D01*
X219885380Y-91477714D01*
X219980619Y-91525333D01*
X220552047Y-92144380D02*
X220456809Y-92096761D01*
X220409190Y-92049142D01*
X220361571Y-91953904D01*
X220361571Y-91668190D01*
X220409190Y-91572952D01*
X220456809Y-91525333D01*
X220552047Y-91477714D01*
X220694904Y-91477714D01*
X220790142Y-91525333D01*
X220837761Y-91572952D01*
X220885380Y-91668190D01*
X220885380Y-91953904D01*
X220837761Y-92049142D01*
X220790142Y-92096761D01*
X220694904Y-92144380D01*
X220552047Y-92144380D01*
X221313952Y-92144380D02*
X221313952Y-91477714D01*
X221313952Y-91572952D02*
X221361571Y-91525333D01*
X221456809Y-91477714D01*
X221599666Y-91477714D01*
X221694904Y-91525333D01*
X221742523Y-91620571D01*
X221742523Y-92144380D01*
X221742523Y-91620571D02*
X221790142Y-91525333D01*
X221885380Y-91477714D01*
X222028238Y-91477714D01*
X222123476Y-91525333D01*
X222171095Y-91620571D01*
X222171095Y-92144380D01*
X223361571Y-91096761D02*
X222504428Y-92382476D01*
X224171095Y-92144380D02*
X223694904Y-92144380D01*
X223694904Y-91144380D01*
X224504428Y-92144380D02*
X224504428Y-91477714D01*
X224504428Y-91144380D02*
X224456809Y-91192000D01*
X224504428Y-91239619D01*
X224552047Y-91192000D01*
X224504428Y-91144380D01*
X224504428Y-91239619D01*
X224980619Y-91477714D02*
X224980619Y-92144380D01*
X224980619Y-91572952D02*
X225028238Y-91525333D01*
X225123476Y-91477714D01*
X225266333Y-91477714D01*
X225361571Y-91525333D01*
X225409190Y-91620571D01*
X225409190Y-92144380D01*
X226313952Y-91477714D02*
X226313952Y-92144380D01*
X225885380Y-91477714D02*
X225885380Y-92001523D01*
X225933000Y-92096761D01*
X226028238Y-92144380D01*
X226171095Y-92144380D01*
X226266333Y-92096761D01*
X226313952Y-92049142D01*
X226694904Y-92144380D02*
X227218714Y-91477714D01*
X226694904Y-91477714D02*
X227218714Y-92144380D01*
X227885380Y-91144380D02*
X227885380Y-91858666D01*
X227837761Y-92001523D01*
X227742523Y-92096761D01*
X227599666Y-92144380D01*
X227504428Y-92144380D01*
X228742523Y-92096761D02*
X228647285Y-92144380D01*
X228456809Y-92144380D01*
X228361571Y-92096761D01*
X228313952Y-92001523D01*
X228313952Y-91620571D01*
X228361571Y-91525333D01*
X228456809Y-91477714D01*
X228647285Y-91477714D01*
X228742523Y-91525333D01*
X228790142Y-91620571D01*
X228790142Y-91715809D01*
X228313952Y-91811047D01*
X229647285Y-92144380D02*
X229647285Y-91144380D01*
X229647285Y-92096761D02*
X229552047Y-92144380D01*
X229361571Y-92144380D01*
X229266333Y-92096761D01*
X229218714Y-92049142D01*
X229171095Y-91953904D01*
X229171095Y-91668190D01*
X229218714Y-91572952D01*
X229266333Y-91525333D01*
X229361571Y-91477714D01*
X229552047Y-91477714D01*
X229647285Y-91525333D01*
X230123476Y-92144380D02*
X230123476Y-91477714D01*
X230123476Y-91144380D02*
X230075857Y-91192000D01*
X230123476Y-91239619D01*
X230171095Y-91192000D01*
X230123476Y-91144380D01*
X230123476Y-91239619D01*
X231313952Y-91096761D02*
X230456809Y-92382476D01*
X231599666Y-91858666D02*
X232075857Y-91858666D01*
X231504428Y-92144380D02*
X231837761Y-91144380D01*
X232171095Y-92144380D01*
X232504428Y-92144380D02*
X232504428Y-91477714D01*
X232504428Y-91572952D02*
X232552047Y-91525333D01*
X232647285Y-91477714D01*
X232790142Y-91477714D01*
X232885380Y-91525333D01*
X232933000Y-91620571D01*
X232933000Y-92144380D01*
X232933000Y-91620571D02*
X232980619Y-91525333D01*
X233075857Y-91477714D01*
X233218714Y-91477714D01*
X233313952Y-91525333D01*
X233361571Y-91620571D01*
X233361571Y-92144380D01*
X233837761Y-92144380D02*
X233837761Y-91477714D01*
X233837761Y-91144380D02*
X233790142Y-91192000D01*
X233837761Y-91239619D01*
X233885380Y-91192000D01*
X233837761Y-91144380D01*
X233837761Y-91239619D01*
X234742523Y-91477714D02*
X234742523Y-92287238D01*
X234694904Y-92382476D01*
X234647285Y-92430095D01*
X234552047Y-92477714D01*
X234409190Y-92477714D01*
X234313952Y-92430095D01*
X234742523Y-92096761D02*
X234647285Y-92144380D01*
X234456809Y-92144380D01*
X234361571Y-92096761D01*
X234313952Y-92049142D01*
X234266333Y-91953904D01*
X234266333Y-91668190D01*
X234313952Y-91572952D01*
X234361571Y-91525333D01*
X234456809Y-91477714D01*
X234647285Y-91477714D01*
X234742523Y-91525333D01*
X235647285Y-92144380D02*
X235647285Y-91620571D01*
X235599666Y-91525333D01*
X235504428Y-91477714D01*
X235313952Y-91477714D01*
X235218714Y-91525333D01*
X235647285Y-92096761D02*
X235552047Y-92144380D01*
X235313952Y-92144380D01*
X235218714Y-92096761D01*
X235171095Y-92001523D01*
X235171095Y-91906285D01*
X235218714Y-91811047D01*
X235313952Y-91763428D01*
X235552047Y-91763428D01*
X235647285Y-91715809D01*
X236694904Y-92144380D02*
X236361571Y-91668190D01*
X236123476Y-92144380D02*
X236123476Y-91144380D01*
X236504428Y-91144380D01*
X236599666Y-91192000D01*
X236647285Y-91239619D01*
X236694904Y-91334857D01*
X236694904Y-91477714D01*
X236647285Y-91572952D01*
X236599666Y-91620571D01*
X236504428Y-91668190D01*
X236123476Y-91668190D01*
X237647285Y-91192000D02*
X237552047Y-91144380D01*
X237409190Y-91144380D01*
X237266333Y-91192000D01*
X237171095Y-91287238D01*
X237123476Y-91382476D01*
X237075857Y-91572952D01*
X237075857Y-91715809D01*
X237123476Y-91906285D01*
X237171095Y-92001523D01*
X237266333Y-92096761D01*
X237409190Y-92144380D01*
X237504428Y-92144380D01*
X237647285Y-92096761D01*
X237694904Y-92049142D01*
X237694904Y-91715809D01*
X237504428Y-91715809D01*
X238456809Y-91620571D02*
X238599666Y-91668190D01*
X238647285Y-91715809D01*
X238694904Y-91811047D01*
X238694904Y-91953904D01*
X238647285Y-92049142D01*
X238599666Y-92096761D01*
X238504428Y-92144380D01*
X238123476Y-92144380D01*
X238123476Y-91144380D01*
X238456809Y-91144380D01*
X238552047Y-91192000D01*
X238599666Y-91239619D01*
X238647285Y-91334857D01*
X238647285Y-91430095D01*
X238599666Y-91525333D01*
X238552047Y-91572952D01*
X238456809Y-91620571D01*
X238123476Y-91620571D01*
X238980619Y-91477714D02*
X239361571Y-91477714D01*
X239123476Y-91144380D02*
X239123476Y-92001523D01*
X239171095Y-92096761D01*
X239266333Y-92144380D01*
X239361571Y-92144380D01*
X239837761Y-92144380D02*
X239742523Y-92096761D01*
X239694904Y-92049142D01*
X239647285Y-91953904D01*
X239647285Y-91668190D01*
X239694904Y-91572952D01*
X239742523Y-91525333D01*
X239837761Y-91477714D01*
X239980619Y-91477714D01*
X240075857Y-91525333D01*
X240123476Y-91572952D01*
X240171095Y-91668190D01*
X240171095Y-91953904D01*
X240123476Y-92049142D01*
X240075857Y-92096761D01*
X239980619Y-92144380D01*
X239837761Y-92144380D01*
X240599666Y-92144380D02*
X240599666Y-91144380D01*
X240599666Y-91620571D02*
X241171095Y-91620571D01*
X241171095Y-92144380D02*
X241171095Y-91144380D01*
X241647285Y-92144380D02*
X241647285Y-91144380D01*
X241885380Y-91144380D01*
X242028238Y-91192000D01*
X242123476Y-91287238D01*
X242171095Y-91382476D01*
X242218714Y-91572952D01*
X242218714Y-91715809D01*
X242171095Y-91906285D01*
X242123476Y-92001523D01*
X242028238Y-92096761D01*
X241885380Y-92144380D01*
X241647285Y-92144380D01*
X242647285Y-92144380D02*
X242647285Y-91144380D01*
X242980619Y-91858666D01*
X243313952Y-91144380D01*
X243313952Y-92144380D01*
X243790142Y-92144380D02*
X243790142Y-91144380D01*
D12*
X132131271Y-70124380D02*
X131416985Y-70624380D01*
X132131271Y-70981522D02*
X130631271Y-70981522D01*
X130631271Y-70410094D01*
X130702700Y-70267237D01*
X130774128Y-70195808D01*
X130916985Y-70124380D01*
X131131271Y-70124380D01*
X131274128Y-70195808D01*
X131345557Y-70267237D01*
X131416985Y-70410094D01*
X131416985Y-70981522D01*
X132131271Y-69481522D02*
X130631271Y-69481522D01*
X130631271Y-68910094D01*
X130702700Y-68767237D01*
X130774128Y-68695808D01*
X130916985Y-68624380D01*
X131131271Y-68624380D01*
X131274128Y-68695808D01*
X131345557Y-68767237D01*
X131416985Y-68910094D01*
X131416985Y-69481522D01*
X132131271Y-67981522D02*
X131131271Y-67981522D01*
X130631271Y-67981522D02*
X130702700Y-68052951D01*
X130774128Y-67981522D01*
X130702700Y-67910094D01*
X130631271Y-67981522D01*
X130774128Y-67981522D01*
X134681271Y-67910094D02*
X134681271Y-68767237D01*
X134681271Y-68338665D02*
X133181271Y-68338665D01*
X133395557Y-68481522D01*
X133538414Y-68624380D01*
X133609842Y-68767237D01*
D13*
X200576000Y-75378000D02*
X200576000Y-80578000D01*
X200576000Y-80578000D02*
X203236000Y-80578000D01*
X203236000Y-80578000D02*
X203236000Y-75378000D01*
X203236000Y-75378000D02*
X200576000Y-75378000D01*
X203236000Y-76328000D02*
X209236000Y-76328000D01*
X209236000Y-76328000D02*
X209236000Y-77088000D01*
X209236000Y-77088000D02*
X203236000Y-77088000D01*
X203236000Y-76388000D02*
X209236000Y-76388000D01*
X203236000Y-76508000D02*
X209236000Y-76508000D01*
X203236000Y-76628000D02*
X209236000Y-76628000D01*
X203236000Y-76748000D02*
X209236000Y-76748000D01*
X203236000Y-76868000D02*
X209236000Y-76868000D01*
X203236000Y-76988000D02*
X209236000Y-76988000D01*
X200246000Y-76328000D02*
X200576000Y-76328000D01*
X200246000Y-77088000D02*
X200576000Y-77088000D01*
X200576000Y-77978000D02*
X203236000Y-77978000D01*
X203236000Y-78868000D02*
X209236000Y-78868000D01*
X209236000Y-78868000D02*
X209236000Y-79628000D01*
X209236000Y-79628000D02*
X203236000Y-79628000D01*
X200178929Y-78868000D02*
X200576000Y-78868000D01*
X200178929Y-79628000D02*
X200576000Y-79628000D01*
X197866000Y-76708000D02*
X197866000Y-75438000D01*
X197866000Y-75438000D02*
X199136000Y-75438000D01*
X115019000Y-80451000D02*
X115019000Y-75251000D01*
X115019000Y-75251000D02*
X112359000Y-75251000D01*
X112359000Y-75251000D02*
X112359000Y-80451000D01*
X112359000Y-80451000D02*
X115019000Y-80451000D01*
X112359000Y-79501000D02*
X106359000Y-79501000D01*
X106359000Y-79501000D02*
X106359000Y-78741000D01*
X106359000Y-78741000D02*
X112359000Y-78741000D01*
X112359000Y-79441000D02*
X106359000Y-79441000D01*
X112359000Y-79321000D02*
X106359000Y-79321000D01*
X112359000Y-79201000D02*
X106359000Y-79201000D01*
X112359000Y-79081000D02*
X106359000Y-79081000D01*
X112359000Y-78961000D02*
X106359000Y-78961000D01*
X112359000Y-78841000D02*
X106359000Y-78841000D01*
X115349000Y-79501000D02*
X115019000Y-79501000D01*
X115349000Y-78741000D02*
X115019000Y-78741000D01*
X115019000Y-77851000D02*
X112359000Y-77851000D01*
X112359000Y-76961000D02*
X106359000Y-76961000D01*
X106359000Y-76961000D02*
X106359000Y-76201000D01*
X106359000Y-76201000D02*
X112359000Y-76201000D01*
X115416071Y-76961000D02*
X115019000Y-76961000D01*
X115416071Y-76201000D02*
X115019000Y-76201000D01*
X117729000Y-79121000D02*
X117729000Y-80391000D01*
X117729000Y-80391000D02*
X116459000Y-80391000D01*
X200576000Y-83379000D02*
X200576000Y-88579000D01*
X200576000Y-88579000D02*
X203236000Y-88579000D01*
X203236000Y-88579000D02*
X203236000Y-83379000D01*
X203236000Y-83379000D02*
X200576000Y-83379000D01*
X203236000Y-84329000D02*
X209236000Y-84329000D01*
X209236000Y-84329000D02*
X209236000Y-85089000D01*
X209236000Y-85089000D02*
X203236000Y-85089000D01*
X203236000Y-84389000D02*
X209236000Y-84389000D01*
X203236000Y-84509000D02*
X209236000Y-84509000D01*
X203236000Y-84629000D02*
X209236000Y-84629000D01*
X203236000Y-84749000D02*
X209236000Y-84749000D01*
X203236000Y-84869000D02*
X209236000Y-84869000D01*
X203236000Y-84989000D02*
X209236000Y-84989000D01*
X200246000Y-84329000D02*
X200576000Y-84329000D01*
X200246000Y-85089000D02*
X200576000Y-85089000D01*
X200576000Y-85979000D02*
X203236000Y-85979000D01*
X203236000Y-86869000D02*
X209236000Y-86869000D01*
X209236000Y-86869000D02*
X209236000Y-87629000D01*
X209236000Y-87629000D02*
X203236000Y-87629000D01*
X200178929Y-86869000D02*
X200576000Y-86869000D01*
X200178929Y-87629000D02*
X200576000Y-87629000D01*
X197866000Y-84709000D02*
X197866000Y-83439000D01*
X197866000Y-83439000D02*
X199136000Y-83439000D01*
X115019000Y-88452000D02*
X115019000Y-83252000D01*
X115019000Y-83252000D02*
X112359000Y-83252000D01*
X112359000Y-83252000D02*
X112359000Y-88452000D01*
X112359000Y-88452000D02*
X115019000Y-88452000D01*
X112359000Y-87502000D02*
X106359000Y-87502000D01*
X106359000Y-87502000D02*
X106359000Y-86742000D01*
X106359000Y-86742000D02*
X112359000Y-86742000D01*
X112359000Y-87442000D02*
X106359000Y-87442000D01*
X112359000Y-87322000D02*
X106359000Y-87322000D01*
X112359000Y-87202000D02*
X106359000Y-87202000D01*
X112359000Y-87082000D02*
X106359000Y-87082000D01*
X112359000Y-86962000D02*
X106359000Y-86962000D01*
X112359000Y-86842000D02*
X106359000Y-86842000D01*
X115349000Y-87502000D02*
X115019000Y-87502000D01*
X115349000Y-86742000D02*
X115019000Y-86742000D01*
X115019000Y-85852000D02*
X112359000Y-85852000D01*
X112359000Y-84962000D02*
X106359000Y-84962000D01*
X106359000Y-84962000D02*
X106359000Y-84202000D01*
X106359000Y-84202000D02*
X112359000Y-84202000D01*
X115416071Y-84962000D02*
X115019000Y-84962000D01*
X115416071Y-84202000D02*
X115019000Y-84202000D01*
X117729000Y-87122000D02*
X117729000Y-88392000D01*
X117729000Y-88392000D02*
X116459000Y-88392000D01*
X124273000Y-66996000D02*
X125603000Y-66996000D01*
X124273000Y-68326000D02*
X124273000Y-66996000D01*
X124273000Y-69596000D02*
X126933000Y-69596000D01*
X126933000Y-69596000D02*
X126933000Y-82356000D01*
X124273000Y-69596000D02*
X124273000Y-82356000D01*
X124273000Y-82356000D02*
X126933000Y-82356000D01*
X152402000Y-85871267D02*
X152402000Y-85578733D01*
X151382000Y-85871267D02*
X151382000Y-85578733D01*
D10*
X166719000Y-92992000D02*
X167994000Y-92992000D01*
X156369000Y-93567000D02*
X157044000Y-93567000D01*
X156369000Y-83217000D02*
X157044000Y-83217000D01*
X166719000Y-83217000D02*
X166044000Y-83217000D01*
X166719000Y-93567000D02*
X166044000Y-93567000D01*
X166719000Y-83217000D02*
X166719000Y-83892000D01*
X156369000Y-83217000D02*
X156369000Y-83892000D01*
X156369000Y-93567000D02*
X156369000Y-92892000D01*
X166719000Y-93567000D02*
X166719000Y-92992000D01*
D13*
X160542500Y-77597724D02*
X160542500Y-77088276D01*
X159497500Y-77597724D02*
X159497500Y-77088276D01*
X174624276Y-88025500D02*
X175133724Y-88025500D01*
X174624276Y-86980500D02*
X175133724Y-86980500D01*
X137735000Y-68199000D02*
X137735000Y-66869000D01*
X137735000Y-66869000D02*
X139065000Y-66869000D01*
X137735000Y-69469000D02*
X140335000Y-69469000D01*
X140335000Y-69469000D02*
X140335000Y-66869000D01*
X140335000Y-66869000D02*
X188655000Y-66869000D01*
X188655000Y-72069000D02*
X188655000Y-66869000D01*
X137735000Y-72069000D02*
X188655000Y-72069000D01*
X137735000Y-72069000D02*
X137735000Y-69469000D01*
X163578000Y-77489267D02*
X163578000Y-77196733D01*
X162558000Y-77489267D02*
X162558000Y-77196733D01*
X157732000Y-99675733D02*
X157732000Y-99968267D01*
X158752000Y-99675733D02*
X158752000Y-99968267D01*
X212164000Y-116122000D02*
X212164000Y-107172000D01*
X212164000Y-107172000D02*
X212564000Y-107172000D01*
X158824000Y-116122000D02*
X158824000Y-108522000D01*
X158824000Y-108522000D02*
X163774000Y-108522000D01*
X163774000Y-108522000D02*
X163774000Y-116122000D01*
X110424000Y-116122000D02*
X110424000Y-107172000D01*
X110424000Y-107172000D02*
X110024000Y-107172000D01*
X200576000Y-67377000D02*
X200576000Y-72577000D01*
X200576000Y-72577000D02*
X203236000Y-72577000D01*
X203236000Y-72577000D02*
X203236000Y-67377000D01*
X203236000Y-67377000D02*
X200576000Y-67377000D01*
X203236000Y-68327000D02*
X209236000Y-68327000D01*
X209236000Y-68327000D02*
X209236000Y-69087000D01*
X209236000Y-69087000D02*
X203236000Y-69087000D01*
X203236000Y-68387000D02*
X209236000Y-68387000D01*
X203236000Y-68507000D02*
X209236000Y-68507000D01*
X203236000Y-68627000D02*
X209236000Y-68627000D01*
X203236000Y-68747000D02*
X209236000Y-68747000D01*
X203236000Y-68867000D02*
X209236000Y-68867000D01*
X203236000Y-68987000D02*
X209236000Y-68987000D01*
X200246000Y-68327000D02*
X200576000Y-68327000D01*
X200246000Y-69087000D02*
X200576000Y-69087000D01*
X200576000Y-69977000D02*
X203236000Y-69977000D01*
X203236000Y-70867000D02*
X209236000Y-70867000D01*
X209236000Y-70867000D02*
X209236000Y-71627000D01*
X209236000Y-71627000D02*
X203236000Y-71627000D01*
X200178929Y-70867000D02*
X200576000Y-70867000D01*
X200178929Y-71627000D02*
X200576000Y-71627000D01*
X197866000Y-68707000D02*
X197866000Y-67437000D01*
X197866000Y-67437000D02*
X199136000Y-67437000D01*
X115019000Y-72450000D02*
X115019000Y-67250000D01*
X115019000Y-67250000D02*
X112359000Y-67250000D01*
X112359000Y-67250000D02*
X112359000Y-72450000D01*
X112359000Y-72450000D02*
X115019000Y-72450000D01*
X112359000Y-71500000D02*
X106359000Y-71500000D01*
X106359000Y-71500000D02*
X106359000Y-70740000D01*
X106359000Y-70740000D02*
X112359000Y-70740000D01*
X112359000Y-71440000D02*
X106359000Y-71440000D01*
X112359000Y-71320000D02*
X106359000Y-71320000D01*
X112359000Y-71200000D02*
X106359000Y-71200000D01*
X112359000Y-71080000D02*
X106359000Y-71080000D01*
X112359000Y-70960000D02*
X106359000Y-70960000D01*
X112359000Y-70840000D02*
X106359000Y-70840000D01*
X115349000Y-71500000D02*
X115019000Y-71500000D01*
X115349000Y-70740000D02*
X115019000Y-70740000D01*
X115019000Y-69850000D02*
X112359000Y-69850000D01*
X112359000Y-68960000D02*
X106359000Y-68960000D01*
X106359000Y-68960000D02*
X106359000Y-68200000D01*
X106359000Y-68200000D02*
X112359000Y-68200000D01*
X115416071Y-68960000D02*
X115019000Y-68960000D01*
X115416071Y-68200000D02*
X115019000Y-68200000D01*
X117729000Y-71120000D02*
X117729000Y-72390000D01*
X117729000Y-72390000D02*
X116459000Y-72390000D01*
D10*
X124436333Y-82808380D02*
X124436333Y-83522666D01*
X124388714Y-83665523D01*
X124293476Y-83760761D01*
X124150619Y-83808380D01*
X124055380Y-83808380D01*
X124769666Y-82808380D02*
X125341095Y-82808380D01*
X125055380Y-83808380D02*
X125055380Y-82808380D01*
X125626809Y-83522666D02*
X126103000Y-83522666D01*
X125531571Y-83808380D02*
X125864904Y-82808380D01*
X126198238Y-83808380D01*
X127055380Y-82856000D02*
X126960142Y-82808380D01*
X126817285Y-82808380D01*
X126674428Y-82856000D01*
X126579190Y-82951238D01*
X126531571Y-83046476D01*
X126483952Y-83236952D01*
X126483952Y-83379809D01*
X126531571Y-83570285D01*
X126579190Y-83665523D01*
X126674428Y-83760761D01*
X126817285Y-83808380D01*
X126912523Y-83808380D01*
X127055380Y-83760761D01*
X127103000Y-83713142D01*
X127103000Y-83379809D01*
X126912523Y-83379809D01*
X150819142Y-85891666D02*
X150866761Y-85939285D01*
X150914380Y-86082142D01*
X150914380Y-86177380D01*
X150866761Y-86320238D01*
X150771523Y-86415476D01*
X150676285Y-86463095D01*
X150485809Y-86510714D01*
X150342952Y-86510714D01*
X150152476Y-86463095D01*
X150057238Y-86415476D01*
X149962000Y-86320238D01*
X149914380Y-86177380D01*
X149914380Y-86082142D01*
X149962000Y-85939285D01*
X150009619Y-85891666D01*
X149914380Y-85558333D02*
X149914380Y-84939285D01*
X150295333Y-85272619D01*
X150295333Y-85129761D01*
X150342952Y-85034523D01*
X150390571Y-84986904D01*
X150485809Y-84939285D01*
X150723904Y-84939285D01*
X150819142Y-84986904D01*
X150866761Y-85034523D01*
X150914380Y-85129761D01*
X150914380Y-85415476D01*
X150866761Y-85510714D01*
X150819142Y-85558333D01*
X160782095Y-95294380D02*
X160782095Y-96103904D01*
X160829714Y-96199142D01*
X160877333Y-96246761D01*
X160972571Y-96294380D01*
X161163047Y-96294380D01*
X161258285Y-96246761D01*
X161305904Y-96199142D01*
X161353523Y-96103904D01*
X161353523Y-95294380D01*
X162353523Y-96294380D02*
X161782095Y-96294380D01*
X162067809Y-96294380D02*
X162067809Y-95294380D01*
X161972571Y-95437238D01*
X161877333Y-95532476D01*
X161782095Y-95580095D01*
X159042380Y-77509666D02*
X158566190Y-77843000D01*
X159042380Y-78081095D02*
X158042380Y-78081095D01*
X158042380Y-77700142D01*
X158090000Y-77604904D01*
X158137619Y-77557285D01*
X158232857Y-77509666D01*
X158375714Y-77509666D01*
X158470952Y-77557285D01*
X158518571Y-77604904D01*
X158566190Y-77700142D01*
X158566190Y-78081095D01*
X158137619Y-77128714D02*
X158090000Y-77081095D01*
X158042380Y-76985857D01*
X158042380Y-76747761D01*
X158090000Y-76652523D01*
X158137619Y-76604904D01*
X158232857Y-76557285D01*
X158328095Y-76557285D01*
X158470952Y-76604904D01*
X159042380Y-77176333D01*
X159042380Y-76557285D01*
X174712333Y-86525380D02*
X174379000Y-86049190D01*
X174140904Y-86525380D02*
X174140904Y-85525380D01*
X174521857Y-85525380D01*
X174617095Y-85573000D01*
X174664714Y-85620619D01*
X174712333Y-85715857D01*
X174712333Y-85858714D01*
X174664714Y-85953952D01*
X174617095Y-86001571D01*
X174521857Y-86049190D01*
X174140904Y-86049190D01*
X175664714Y-86525380D02*
X175093285Y-86525380D01*
X175379000Y-86525380D02*
X175379000Y-85525380D01*
X175283761Y-85668238D01*
X175188523Y-85763476D01*
X175093285Y-85811095D01*
X135747380Y-69802333D02*
X136461666Y-69802333D01*
X136604523Y-69849952D01*
X136699761Y-69945190D01*
X136747380Y-70088047D01*
X136747380Y-70183285D01*
X136747380Y-68802333D02*
X136747380Y-69373761D01*
X136747380Y-69088047D02*
X135747380Y-69088047D01*
X135890238Y-69183285D01*
X135985476Y-69278523D01*
X136033095Y-69373761D01*
X161995142Y-77509666D02*
X162042761Y-77557285D01*
X162090380Y-77700142D01*
X162090380Y-77795380D01*
X162042761Y-77938238D01*
X161947523Y-78033476D01*
X161852285Y-78081095D01*
X161661809Y-78128714D01*
X161518952Y-78128714D01*
X161328476Y-78081095D01*
X161233238Y-78033476D01*
X161138000Y-77938238D01*
X161090380Y-77795380D01*
X161090380Y-77700142D01*
X161138000Y-77557285D01*
X161185619Y-77509666D01*
X161185619Y-77128714D02*
X161138000Y-77081095D01*
X161090380Y-76985857D01*
X161090380Y-76747761D01*
X161138000Y-76652523D01*
X161185619Y-76604904D01*
X161280857Y-76557285D01*
X161376095Y-76557285D01*
X161518952Y-76604904D01*
X162090380Y-77176333D01*
X162090380Y-76557285D01*
X160029142Y-99988666D02*
X160076761Y-100036285D01*
X160124380Y-100179142D01*
X160124380Y-100274380D01*
X160076761Y-100417238D01*
X159981523Y-100512476D01*
X159886285Y-100560095D01*
X159695809Y-100607714D01*
X159552952Y-100607714D01*
X159362476Y-100560095D01*
X159267238Y-100512476D01*
X159172000Y-100417238D01*
X159124380Y-100274380D01*
X159124380Y-100179142D01*
X159172000Y-100036285D01*
X159219619Y-99988666D01*
X160124380Y-99036285D02*
X160124380Y-99607714D01*
X160124380Y-99322000D02*
X159124380Y-99322000D01*
X159267238Y-99417238D01*
X159362476Y-99512476D01*
X159410095Y-99607714D01*
X157664476Y-104024380D02*
X157664476Y-104738666D01*
X157616857Y-104881523D01*
X157521619Y-104976761D01*
X157378761Y-105024380D01*
X157283523Y-105024380D01*
X157997809Y-104024380D02*
X158331142Y-105024380D01*
X158664476Y-104024380D01*
X158997809Y-105024380D02*
X158997809Y-104357714D01*
X158997809Y-104024380D02*
X158950190Y-104072000D01*
X158997809Y-104119619D01*
X159045428Y-104072000D01*
X158997809Y-104024380D01*
X158997809Y-104119619D01*
X159902571Y-105024380D02*
X159902571Y-104024380D01*
X159902571Y-104976761D02*
X159807333Y-105024380D01*
X159616857Y-105024380D01*
X159521619Y-104976761D01*
X159474000Y-104929142D01*
X159426380Y-104833904D01*
X159426380Y-104548190D01*
X159474000Y-104452952D01*
X159521619Y-104405333D01*
X159616857Y-104357714D01*
X159807333Y-104357714D01*
X159902571Y-104405333D01*
X160759714Y-104976761D02*
X160664476Y-105024380D01*
X160474000Y-105024380D01*
X160378761Y-104976761D01*
X160331142Y-104881523D01*
X160331142Y-104500571D01*
X160378761Y-104405333D01*
X160474000Y-104357714D01*
X160664476Y-104357714D01*
X160759714Y-104405333D01*
X160807333Y-104500571D01*
X160807333Y-104595809D01*
X160331142Y-104691047D01*
X161378761Y-105024380D02*
X161283523Y-104976761D01*
X161235904Y-104929142D01*
X161188285Y-104833904D01*
X161188285Y-104548190D01*
X161235904Y-104452952D01*
X161283523Y-104405333D01*
X161378761Y-104357714D01*
X161521619Y-104357714D01*
X161616857Y-104405333D01*
X161664476Y-104452952D01*
X161712095Y-104548190D01*
X161712095Y-104833904D01*
X161664476Y-104929142D01*
X161616857Y-104976761D01*
X161521619Y-105024380D01*
X161378761Y-105024380D01*
X162093047Y-104976761D02*
X162235904Y-105024380D01*
X162474000Y-105024380D01*
X162569238Y-104976761D01*
X162616857Y-104929142D01*
X162664476Y-104833904D01*
X162664476Y-104738666D01*
X162616857Y-104643428D01*
X162569238Y-104595809D01*
X162474000Y-104548190D01*
X162283523Y-104500571D01*
X162188285Y-104452952D01*
X162140666Y-104405333D01*
X162093047Y-104310095D01*
X162093047Y-104214857D01*
X162140666Y-104119619D01*
X162188285Y-104072000D01*
X162283523Y-104024380D01*
X162521619Y-104024380D01*
X162664476Y-104072000D01*
X163235904Y-105024380D02*
X163140666Y-104976761D01*
X163093047Y-104881523D01*
X163093047Y-104024380D01*
X163759714Y-105024380D02*
X163664476Y-104976761D01*
X163616857Y-104929142D01*
X163569238Y-104833904D01*
X163569238Y-104548190D01*
X163616857Y-104452952D01*
X163664476Y-104405333D01*
X163759714Y-104357714D01*
X163902571Y-104357714D01*
X163997809Y-104405333D01*
X164045428Y-104452952D01*
X164093047Y-104548190D01*
X164093047Y-104833904D01*
X164045428Y-104929142D01*
X163997809Y-104976761D01*
X163902571Y-105024380D01*
X163759714Y-105024380D01*
X164378761Y-104357714D02*
X164759714Y-104357714D01*
X164521619Y-104024380D02*
X164521619Y-104881523D01*
X164569238Y-104976761D01*
X164664476Y-105024380D01*
X164759714Y-105024380D01*
X165616857Y-105024380D02*
X165045428Y-105024380D01*
X165331142Y-105024380D02*
X165331142Y-104024380D01*
X165235904Y-104167238D01*
X165140666Y-104262476D01*
X165045428Y-104310095D01*
X189783523Y-106629142D02*
X189735904Y-106676761D01*
X189593047Y-106724380D01*
X189497809Y-106724380D01*
X189354952Y-106676761D01*
X189259714Y-106581523D01*
X189212095Y-106486285D01*
X189164476Y-106295809D01*
X189164476Y-106152952D01*
X189212095Y-105962476D01*
X189259714Y-105867238D01*
X189354952Y-105772000D01*
X189497809Y-105724380D01*
X189593047Y-105724380D01*
X189735904Y-105772000D01*
X189783523Y-105819619D01*
X190212095Y-106724380D02*
X190212095Y-105724380D01*
X190783523Y-106724380D01*
X190783523Y-105724380D01*
X191783523Y-106724380D02*
X191212095Y-106724380D01*
X191497809Y-106724380D02*
X191497809Y-105724380D01*
X191402571Y-105867238D01*
X191307333Y-105962476D01*
X191212095Y-106010095D01*
X163784476Y-107309380D02*
X164403523Y-107309380D01*
X164070190Y-107690333D01*
X164213047Y-107690333D01*
X164308285Y-107737952D01*
X164355904Y-107785571D01*
X164403523Y-107880809D01*
X164403523Y-108118904D01*
X164355904Y-108214142D01*
X164308285Y-108261761D01*
X164213047Y-108309380D01*
X163927333Y-108309380D01*
X163832095Y-108261761D01*
X163784476Y-108214142D01*
X165260666Y-107309380D02*
X165070190Y-107309380D01*
X164974952Y-107357000D01*
X164927333Y-107404619D01*
X164832095Y-107547476D01*
X164784476Y-107737952D01*
X164784476Y-108118904D01*
X164832095Y-108214142D01*
X164879714Y-108261761D01*
X164974952Y-108309380D01*
X165165428Y-108309380D01*
X165260666Y-108261761D01*
X165308285Y-108214142D01*
X165355904Y-108118904D01*
X165355904Y-107880809D01*
X165308285Y-107785571D01*
X165260666Y-107737952D01*
X165165428Y-107690333D01*
X164974952Y-107690333D01*
X164879714Y-107737952D01*
X164832095Y-107785571D01*
X164784476Y-107880809D01*
X210808285Y-107409619D02*
X210855904Y-107362000D01*
X210951142Y-107314380D01*
X211189238Y-107314380D01*
X211284476Y-107362000D01*
X211332095Y-107409619D01*
X211379714Y-107504857D01*
X211379714Y-107600095D01*
X211332095Y-107742952D01*
X210760666Y-108314380D01*
X211379714Y-108314380D01*
X136483523Y-106229142D02*
X136435904Y-106276761D01*
X136293047Y-106324380D01*
X136197809Y-106324380D01*
X136054952Y-106276761D01*
X135959714Y-106181523D01*
X135912095Y-106086285D01*
X135864476Y-105895809D01*
X135864476Y-105752952D01*
X135912095Y-105562476D01*
X135959714Y-105467238D01*
X136054952Y-105372000D01*
X136197809Y-105324380D01*
X136293047Y-105324380D01*
X136435904Y-105372000D01*
X136483523Y-105419619D01*
X136912095Y-106324380D02*
X136912095Y-105324380D01*
X137483523Y-106324380D01*
X137483523Y-105324380D01*
X137912095Y-105419619D02*
X137959714Y-105372000D01*
X138054952Y-105324380D01*
X138293047Y-105324380D01*
X138388285Y-105372000D01*
X138435904Y-105419619D01*
X138483523Y-105514857D01*
X138483523Y-105610095D01*
X138435904Y-105752952D01*
X137864476Y-106324380D01*
X138483523Y-106324380D01*
X157358285Y-107404619D02*
X157405904Y-107357000D01*
X157501142Y-107309380D01*
X157739238Y-107309380D01*
X157834476Y-107357000D01*
X157882095Y-107404619D01*
X157929714Y-107499857D01*
X157929714Y-107595095D01*
X157882095Y-107737952D01*
X157310666Y-108309380D01*
X157929714Y-108309380D01*
X110559476Y-107309380D02*
X111178523Y-107309380D01*
X110845190Y-107690333D01*
X110988047Y-107690333D01*
X111083285Y-107737952D01*
X111130904Y-107785571D01*
X111178523Y-107880809D01*
X111178523Y-108118904D01*
X111130904Y-108214142D01*
X111083285Y-108261761D01*
X110988047Y-108309380D01*
X110702333Y-108309380D01*
X110607095Y-108261761D01*
X110559476Y-108214142D01*
X112035666Y-107309380D02*
X111845190Y-107309380D01*
X111749952Y-107357000D01*
X111702333Y-107404619D01*
X111607095Y-107547476D01*
X111559476Y-107737952D01*
X111559476Y-108118904D01*
X111607095Y-108214142D01*
X111654714Y-108261761D01*
X111749952Y-108309380D01*
X111940428Y-108309380D01*
X112035666Y-108261761D01*
X112083285Y-108214142D01*
X112130904Y-108118904D01*
X112130904Y-107880809D01*
X112083285Y-107785571D01*
X112035666Y-107737952D01*
X111940428Y-107690333D01*
X111749952Y-107690333D01*
X111654714Y-107737952D01*
X111607095Y-107785571D01*
X111559476Y-107880809D01*
M02*
