G04 #@! TF.GenerationSoftware,KiCad,Pcbnew,5.1.9-73d0e3b20d~88~ubuntu20.10.1*
G04 #@! TF.CreationDate,2021-04-12T20:34:23+01:00*
G04 #@! TF.ProjectId,videoslotadapter,76696465-6f73-46c6-9f74-616461707465,rev?*
G04 #@! TF.SameCoordinates,Original*
G04 #@! TF.FileFunction,Copper,L1,Top*
G04 #@! TF.FilePolarity,Positive*
%FSLAX46Y46*%
G04 Gerber Fmt 4.6, Leading zero omitted, Abs format (unit mm)*
G04 Created by KiCad (PCBNEW 5.1.9-73d0e3b20d~88~ubuntu20.10.1) date 2021-04-12 20:34:23*
%MOMM*%
%LPD*%
G01*
G04 APERTURE LIST*
G04 #@! TA.AperFunction,ComponentPad*
%ADD10O,1.700000X1.700000*%
G04 #@! TD*
G04 #@! TA.AperFunction,ComponentPad*
%ADD11R,1.700000X1.700000*%
G04 #@! TD*
G04 #@! TA.AperFunction,SMDPad,CuDef*
%ADD12R,0.550000X1.500000*%
G04 #@! TD*
G04 #@! TA.AperFunction,SMDPad,CuDef*
%ADD13R,1.500000X0.550000*%
G04 #@! TD*
G04 #@! TA.AperFunction,ConnectorPad*
%ADD14R,1.780000X7.620000*%
G04 #@! TD*
G04 #@! TA.AperFunction,ViaPad*
%ADD15C,1.600000*%
G04 #@! TD*
G04 #@! TA.AperFunction,ViaPad*
%ADD16C,0.800000*%
G04 #@! TD*
G04 #@! TA.AperFunction,Conductor*
%ADD17C,0.250000*%
G04 #@! TD*
G04 #@! TA.AperFunction,Conductor*
%ADD18C,0.500000*%
G04 #@! TD*
G04 #@! TA.AperFunction,Conductor*
%ADD19C,0.254000*%
G04 #@! TD*
G04 #@! TA.AperFunction,Conductor*
%ADD20C,0.100000*%
G04 #@! TD*
G04 APERTURE END LIST*
D10*
X199136000Y-79248000D03*
D11*
X199136000Y-76708000D03*
D10*
X116459000Y-76581000D03*
D11*
X116459000Y-79121000D03*
D10*
X199136000Y-87249000D03*
D11*
X199136000Y-84709000D03*
D10*
X116459000Y-84582000D03*
D11*
X116459000Y-87122000D03*
D10*
X125603000Y-81026000D03*
X125603000Y-78486000D03*
X125603000Y-75946000D03*
X125603000Y-73406000D03*
X125603000Y-70866000D03*
D11*
X125603000Y-68326000D03*
G04 #@! TA.AperFunction,SMDPad,CuDef*
G36*
G01*
X152129500Y-85400000D02*
X151654500Y-85400000D01*
G75*
G02*
X151417000Y-85162500I0J237500D01*
G01*
X151417000Y-84562500D01*
G75*
G02*
X151654500Y-84325000I237500J0D01*
G01*
X152129500Y-84325000D01*
G75*
G02*
X152367000Y-84562500I0J-237500D01*
G01*
X152367000Y-85162500D01*
G75*
G02*
X152129500Y-85400000I-237500J0D01*
G01*
G37*
G04 #@! TD.AperFunction*
G04 #@! TA.AperFunction,SMDPad,CuDef*
G36*
G01*
X152129500Y-87125000D02*
X151654500Y-87125000D01*
G75*
G02*
X151417000Y-86887500I0J237500D01*
G01*
X151417000Y-86287500D01*
G75*
G02*
X151654500Y-86050000I237500J0D01*
G01*
X152129500Y-86050000D01*
G75*
G02*
X152367000Y-86287500I0J-237500D01*
G01*
X152367000Y-86887500D01*
G75*
G02*
X152129500Y-87125000I-237500J0D01*
G01*
G37*
G04 #@! TD.AperFunction*
D12*
X165544000Y-94092000D03*
X164744000Y-94092000D03*
X163944000Y-94092000D03*
X163144000Y-94092000D03*
X162344000Y-94092000D03*
X161544000Y-94092000D03*
X160744000Y-94092000D03*
X159944000Y-94092000D03*
X159144000Y-94092000D03*
X158344000Y-94092000D03*
X157544000Y-94092000D03*
D13*
X155844000Y-92392000D03*
X155844000Y-91592000D03*
X155844000Y-90792000D03*
X155844000Y-89992000D03*
X155844000Y-89192000D03*
X155844000Y-88392000D03*
X155844000Y-87592000D03*
X155844000Y-86792000D03*
X155844000Y-85992000D03*
X155844000Y-85192000D03*
X155844000Y-84392000D03*
D12*
X157544000Y-82692000D03*
X158344000Y-82692000D03*
X159144000Y-82692000D03*
X159944000Y-82692000D03*
X160744000Y-82692000D03*
X161544000Y-82692000D03*
X162344000Y-82692000D03*
X163144000Y-82692000D03*
X163944000Y-82692000D03*
X164744000Y-82692000D03*
X165544000Y-82692000D03*
D13*
X167244000Y-84392000D03*
X167244000Y-85192000D03*
X167244000Y-85992000D03*
X167244000Y-86792000D03*
X167244000Y-87592000D03*
X167244000Y-88392000D03*
X167244000Y-89192000D03*
X167244000Y-89992000D03*
X167244000Y-90792000D03*
X167244000Y-91592000D03*
X167244000Y-92392000D03*
G04 #@! TA.AperFunction,SMDPad,CuDef*
G36*
G01*
X160257500Y-76918000D02*
X159782500Y-76918000D01*
G75*
G02*
X159545000Y-76680500I0J237500D01*
G01*
X159545000Y-76180500D01*
G75*
G02*
X159782500Y-75943000I237500J0D01*
G01*
X160257500Y-75943000D01*
G75*
G02*
X160495000Y-76180500I0J-237500D01*
G01*
X160495000Y-76680500D01*
G75*
G02*
X160257500Y-76918000I-237500J0D01*
G01*
G37*
G04 #@! TD.AperFunction*
G04 #@! TA.AperFunction,SMDPad,CuDef*
G36*
G01*
X160257500Y-78743000D02*
X159782500Y-78743000D01*
G75*
G02*
X159545000Y-78505500I0J237500D01*
G01*
X159545000Y-78005500D01*
G75*
G02*
X159782500Y-77768000I237500J0D01*
G01*
X160257500Y-77768000D01*
G75*
G02*
X160495000Y-78005500I0J-237500D01*
G01*
X160495000Y-78505500D01*
G75*
G02*
X160257500Y-78743000I-237500J0D01*
G01*
G37*
G04 #@! TD.AperFunction*
G04 #@! TA.AperFunction,SMDPad,CuDef*
G36*
G01*
X175304000Y-87740500D02*
X175304000Y-87265500D01*
G75*
G02*
X175541500Y-87028000I237500J0D01*
G01*
X176041500Y-87028000D01*
G75*
G02*
X176279000Y-87265500I0J-237500D01*
G01*
X176279000Y-87740500D01*
G75*
G02*
X176041500Y-87978000I-237500J0D01*
G01*
X175541500Y-87978000D01*
G75*
G02*
X175304000Y-87740500I0J237500D01*
G01*
G37*
G04 #@! TD.AperFunction*
G04 #@! TA.AperFunction,SMDPad,CuDef*
G36*
G01*
X173479000Y-87740500D02*
X173479000Y-87265500D01*
G75*
G02*
X173716500Y-87028000I237500J0D01*
G01*
X174216500Y-87028000D01*
G75*
G02*
X174454000Y-87265500I0J-237500D01*
G01*
X174454000Y-87740500D01*
G75*
G02*
X174216500Y-87978000I-237500J0D01*
G01*
X173716500Y-87978000D01*
G75*
G02*
X173479000Y-87740500I0J237500D01*
G01*
G37*
G04 #@! TD.AperFunction*
D10*
X187325000Y-70739000D03*
X187325000Y-68199000D03*
X184785000Y-70739000D03*
X184785000Y-68199000D03*
X182245000Y-70739000D03*
X182245000Y-68199000D03*
X179705000Y-70739000D03*
X179705000Y-68199000D03*
X177165000Y-70739000D03*
X177165000Y-68199000D03*
X174625000Y-70739000D03*
X174625000Y-68199000D03*
X172085000Y-70739000D03*
X172085000Y-68199000D03*
X169545000Y-70739000D03*
X169545000Y-68199000D03*
X167005000Y-70739000D03*
X167005000Y-68199000D03*
X164465000Y-70739000D03*
X164465000Y-68199000D03*
X161925000Y-70739000D03*
X161925000Y-68199000D03*
X159385000Y-70739000D03*
X159385000Y-68199000D03*
X156845000Y-70739000D03*
X156845000Y-68199000D03*
X154305000Y-70739000D03*
X154305000Y-68199000D03*
X151765000Y-70739000D03*
X151765000Y-68199000D03*
X149225000Y-70739000D03*
X149225000Y-68199000D03*
X146685000Y-70739000D03*
X146685000Y-68199000D03*
X144145000Y-70739000D03*
X144145000Y-68199000D03*
X141605000Y-70739000D03*
X141605000Y-68199000D03*
X139065000Y-70739000D03*
D11*
X139065000Y-68199000D03*
G04 #@! TA.AperFunction,SMDPad,CuDef*
G36*
G01*
X163305500Y-77018000D02*
X162830500Y-77018000D01*
G75*
G02*
X162593000Y-76780500I0J237500D01*
G01*
X162593000Y-76180500D01*
G75*
G02*
X162830500Y-75943000I237500J0D01*
G01*
X163305500Y-75943000D01*
G75*
G02*
X163543000Y-76180500I0J-237500D01*
G01*
X163543000Y-76780500D01*
G75*
G02*
X163305500Y-77018000I-237500J0D01*
G01*
G37*
G04 #@! TD.AperFunction*
G04 #@! TA.AperFunction,SMDPad,CuDef*
G36*
G01*
X163305500Y-78743000D02*
X162830500Y-78743000D01*
G75*
G02*
X162593000Y-78505500I0J237500D01*
G01*
X162593000Y-77905500D01*
G75*
G02*
X162830500Y-77668000I237500J0D01*
G01*
X163305500Y-77668000D01*
G75*
G02*
X163543000Y-77905500I0J-237500D01*
G01*
X163543000Y-78505500D01*
G75*
G02*
X163305500Y-78743000I-237500J0D01*
G01*
G37*
G04 #@! TD.AperFunction*
G04 #@! TA.AperFunction,SMDPad,CuDef*
G36*
G01*
X158004500Y-100147000D02*
X158479500Y-100147000D01*
G75*
G02*
X158717000Y-100384500I0J-237500D01*
G01*
X158717000Y-100984500D01*
G75*
G02*
X158479500Y-101222000I-237500J0D01*
G01*
X158004500Y-101222000D01*
G75*
G02*
X157767000Y-100984500I0J237500D01*
G01*
X157767000Y-100384500D01*
G75*
G02*
X158004500Y-100147000I237500J0D01*
G01*
G37*
G04 #@! TD.AperFunction*
G04 #@! TA.AperFunction,SMDPad,CuDef*
G36*
G01*
X158004500Y-98422000D02*
X158479500Y-98422000D01*
G75*
G02*
X158717000Y-98659500I0J-237500D01*
G01*
X158717000Y-99259500D01*
G75*
G02*
X158479500Y-99497000I-237500J0D01*
G01*
X158004500Y-99497000D01*
G75*
G02*
X157767000Y-99259500I0J237500D01*
G01*
X157767000Y-98659500D01*
G75*
G02*
X158004500Y-98422000I237500J0D01*
G01*
G37*
G04 #@! TD.AperFunction*
D14*
X209554000Y-112272000D03*
X207014000Y-112272000D03*
X204474000Y-112272000D03*
X201934000Y-112272000D03*
X199394000Y-112272000D03*
X196854000Y-112272000D03*
X194314000Y-112272000D03*
X191774000Y-112272000D03*
X189234000Y-112272000D03*
X186694000Y-112272000D03*
X184154000Y-112272000D03*
X181614000Y-112272000D03*
X179074000Y-112272000D03*
X176534000Y-112272000D03*
X173994000Y-112272000D03*
X171454000Y-112272000D03*
X168914000Y-112272000D03*
X166374000Y-112272000D03*
X156214000Y-112272000D03*
X153674000Y-112272000D03*
X151134000Y-112272000D03*
X148594000Y-112272000D03*
X146054000Y-112272000D03*
X143514000Y-112272000D03*
X140974000Y-112272000D03*
X138434000Y-112272000D03*
X135894000Y-112272000D03*
X133354000Y-112272000D03*
X130814000Y-112272000D03*
X128274000Y-112272000D03*
X125734000Y-112272000D03*
X123194000Y-112272000D03*
X120654000Y-112272000D03*
X118114000Y-112272000D03*
X115574000Y-112272000D03*
X113034000Y-112272000D03*
D10*
X199136000Y-71247000D03*
D11*
X199136000Y-68707000D03*
X116459000Y-71120000D03*
D10*
X116459000Y-68580000D03*
D15*
X130810000Y-104648000D03*
X147359496Y-105957496D03*
X143637000Y-104521000D03*
X159512000Y-105537000D03*
D16*
X157099000Y-102743000D03*
X161542990Y-78486000D03*
X154305000Y-66167000D03*
X160528000Y-86360000D03*
X164719000Y-84455000D03*
X146558000Y-82169000D03*
X146558000Y-74930000D03*
X168148000Y-75692000D03*
X164465000Y-74041000D03*
X159512000Y-88265000D03*
X159385000Y-74168000D03*
X155135153Y-100525153D03*
X160020000Y-92456000D03*
X149987000Y-79756000D03*
X186055000Y-75819000D03*
X175260000Y-105537000D03*
X177673000Y-105537000D03*
D15*
X240284000Y-103759000D03*
X240284000Y-62992000D03*
X95123000Y-63119000D03*
X95123000Y-103759000D03*
D16*
X135001000Y-78232000D03*
X149733000Y-82550000D03*
X163068000Y-84328000D03*
X153534346Y-84717654D03*
X158115000Y-87757000D03*
X158242000Y-92329000D03*
X135001000Y-73660000D03*
X165100000Y-89408000D03*
X161925000Y-91694000D03*
X161417000Y-100076000D03*
X161036000Y-88519000D03*
X156718000Y-106045000D03*
X163449000Y-91313000D03*
X148590000Y-104902000D03*
X159069000Y-97155000D03*
X162306000Y-96520000D03*
X152400000Y-105918000D03*
X163957000Y-98298000D03*
X163449000Y-89662000D03*
X159893000Y-96393000D03*
X146050000Y-99949000D03*
X160655000Y-97155000D03*
X135255000Y-65532000D03*
X137287000Y-63246000D03*
X136271000Y-64081999D03*
X170815000Y-92456000D03*
X170815000Y-90805000D03*
X172085000Y-91567000D03*
X170815000Y-89154000D03*
X132461000Y-70739000D03*
X170180000Y-65532000D03*
X170955000Y-85992000D03*
X164719000Y-86741000D03*
X149479000Y-77089000D03*
X159131000Y-79121000D03*
X152019000Y-92456000D03*
X157480000Y-79121000D03*
D15*
X204470000Y-104648000D03*
D16*
X157480000Y-84963000D03*
X184150000Y-105156000D03*
D17*
X153021500Y-85992000D02*
X151892000Y-84862500D01*
X155844000Y-85992000D02*
X153021500Y-85992000D01*
X173302500Y-89992000D02*
X175791500Y-87503000D01*
X167244000Y-89992000D02*
X173302500Y-89992000D01*
D18*
X130814000Y-104652000D02*
X130810000Y-104648000D01*
X130814000Y-112272000D02*
X130814000Y-104652000D01*
X143514000Y-104644000D02*
X143637000Y-104521000D01*
X143514000Y-112272000D02*
X143514000Y-104644000D01*
X161544000Y-78487010D02*
X161542990Y-78486000D01*
X161544000Y-82692000D02*
X161544000Y-78487010D01*
D17*
X155480001Y-67342001D02*
X154305000Y-66167000D01*
X155480001Y-69563999D02*
X155480001Y-67342001D01*
X154305000Y-70739000D02*
X155480001Y-69563999D01*
X170909999Y-69563999D02*
X169545000Y-68199000D01*
X173449999Y-69563999D02*
X170909999Y-69563999D01*
X174625000Y-70739000D02*
X173449999Y-69563999D01*
X159512000Y-88080998D02*
X159512000Y-88265000D01*
X157423002Y-85992000D02*
X159512000Y-88080998D01*
X155844000Y-85992000D02*
X157423002Y-85992000D01*
X161925000Y-75337500D02*
X161925000Y-70739000D01*
X163068000Y-76480500D02*
X161925000Y-75337500D01*
X160020000Y-74803000D02*
X159385000Y-74168000D01*
X160020000Y-76430500D02*
X160020000Y-74803000D01*
X155135153Y-100779153D02*
X155135153Y-100525153D01*
X157099000Y-102743000D02*
X155135153Y-100779153D01*
X163780000Y-92456000D02*
X160020000Y-92456000D01*
X166244000Y-89992000D02*
X163780000Y-92456000D01*
X167244000Y-89992000D02*
X166244000Y-89992000D01*
X152096500Y-86792000D02*
X151892000Y-86587500D01*
X155844000Y-86792000D02*
X152096500Y-86792000D01*
X158344000Y-98857500D02*
X158242000Y-98959500D01*
X158344000Y-94092000D02*
X158344000Y-98857500D01*
X163068000Y-82616000D02*
X163144000Y-82692000D01*
X163068000Y-78205500D02*
X163068000Y-82616000D01*
D18*
X139065000Y-68199000D02*
X137033000Y-68199000D01*
X137033000Y-68199000D02*
X135001000Y-70231000D01*
X149733000Y-84428500D02*
X151892000Y-86587500D01*
X149733000Y-82550000D02*
X149733000Y-84428500D01*
X163144000Y-84252000D02*
X163068000Y-84328000D01*
X163144000Y-82692000D02*
X163144000Y-84252000D01*
X151366692Y-82550000D02*
X149733000Y-82550000D01*
X153534346Y-84717654D02*
X151366692Y-82550000D01*
X157150000Y-86792000D02*
X158115000Y-87757000D01*
X155844000Y-86792000D02*
X157150000Y-86792000D01*
X158344000Y-92431000D02*
X158344000Y-94092000D01*
X158242000Y-92329000D02*
X158344000Y-92431000D01*
X159385000Y-68199000D02*
X156337000Y-65151000D01*
X142113000Y-65151000D02*
X139065000Y-68199000D01*
X156337000Y-65151000D02*
X142113000Y-65151000D01*
X135001000Y-73660000D02*
X135001000Y-78232000D01*
X135001000Y-70231000D02*
X135001000Y-73660000D01*
D17*
X160744000Y-85052000D02*
X165100000Y-89408000D01*
X160744000Y-82692000D02*
X160744000Y-85052000D01*
X161823000Y-91592000D02*
X161925000Y-91694000D01*
X155844000Y-91592000D02*
X161823000Y-91592000D01*
X157544000Y-94092000D02*
X157544000Y-97091000D01*
X153674000Y-100961000D02*
X153674000Y-112272000D01*
X157544000Y-97091000D02*
X153674000Y-100961000D01*
X161417000Y-94219000D02*
X161544000Y-94092000D01*
X161417000Y-100076000D02*
X161417000Y-94219000D01*
X158344000Y-85827000D02*
X161036000Y-88519000D01*
X158344000Y-82692000D02*
X158344000Y-85827000D01*
X156718000Y-111768000D02*
X156214000Y-112272000D01*
X156718000Y-106045000D02*
X156718000Y-111768000D01*
X162928000Y-90792000D02*
X163449000Y-91313000D01*
X155844000Y-90792000D02*
X162928000Y-90792000D01*
X148594000Y-104906000D02*
X148590000Y-104902000D01*
X148594000Y-112272000D02*
X148594000Y-104906000D01*
X159069000Y-94167000D02*
X159144000Y-94092000D01*
X159069000Y-97155000D02*
X159069000Y-94167000D01*
X162306000Y-94130000D02*
X162344000Y-94092000D01*
X162306000Y-96520000D02*
X162306000Y-94130000D01*
X151134000Y-107184000D02*
X152400000Y-105918000D01*
X151134000Y-112272000D02*
X151134000Y-107184000D01*
X163957000Y-94105000D02*
X163944000Y-94092000D01*
X163957000Y-98298000D02*
X163957000Y-94105000D01*
X163119000Y-89992000D02*
X163449000Y-89662000D01*
X155844000Y-89992000D02*
X163119000Y-89992000D01*
X159893000Y-94143000D02*
X159944000Y-94092000D01*
X159893000Y-96393000D02*
X159893000Y-94143000D01*
X146054000Y-99953000D02*
X146050000Y-99949000D01*
X146054000Y-112272000D02*
X146054000Y-99953000D01*
X160655000Y-94181000D02*
X160744000Y-94092000D01*
X160655000Y-97155000D02*
X160655000Y-94181000D01*
X164744000Y-96799000D02*
X164744000Y-94092000D01*
X168275000Y-97409000D02*
X165354000Y-97409000D01*
X187325000Y-78359000D02*
X168275000Y-97409000D01*
X165354000Y-97409000D02*
X164744000Y-96799000D01*
X187325000Y-70739000D02*
X187325000Y-78359000D01*
X167244000Y-84392000D02*
X177863000Y-84392000D01*
X184785000Y-77470000D02*
X184785000Y-70739000D01*
X177863000Y-84392000D02*
X184785000Y-77470000D01*
X177863000Y-86862002D02*
X177863000Y-84392000D01*
X170633002Y-94092000D02*
X177863000Y-86862002D01*
X165544000Y-94092000D02*
X170633002Y-94092000D01*
X127381000Y-73406000D02*
X125603000Y-73406000D01*
X135255000Y-65532000D02*
X127381000Y-73406000D01*
X185960001Y-69374001D02*
X184785000Y-68199000D01*
X189262001Y-69374001D02*
X185960001Y-69374001D01*
X199136000Y-79248000D02*
X189262001Y-69374001D01*
X116459000Y-74548588D02*
X116459000Y-76581000D01*
X127761588Y-63246000D02*
X116459000Y-74548588D01*
X137287000Y-63246000D02*
X127761588Y-63246000D01*
X191262000Y-63246000D02*
X199136000Y-71120000D01*
X183609999Y-65437001D02*
X185801000Y-63246000D01*
X183609999Y-69374001D02*
X183609999Y-65437001D01*
X182245000Y-70739000D02*
X183609999Y-69374001D01*
X185801000Y-63246000D02*
X191262000Y-63246000D01*
X122518001Y-62520999D02*
X116459000Y-68580000D01*
X175766001Y-62520999D02*
X122518001Y-62520999D01*
X180880001Y-67634999D02*
X175766001Y-62520999D01*
X180880001Y-69374001D02*
X180880001Y-67634999D01*
X182245000Y-70739000D02*
X180880001Y-69374001D01*
X127561999Y-64081999D02*
X121539000Y-70104998D01*
X136271000Y-64081999D02*
X127561999Y-64081999D01*
X121539000Y-79502000D02*
X116459000Y-84582000D01*
X121539000Y-70104998D02*
X121539000Y-79502000D01*
X167308000Y-92456000D02*
X167244000Y-92392000D01*
X170815000Y-92456000D02*
X167308000Y-92456000D01*
X167257000Y-90805000D02*
X167244000Y-90792000D01*
X170815000Y-90805000D02*
X167257000Y-90805000D01*
X167269000Y-91567000D02*
X167244000Y-91592000D01*
X172085000Y-91567000D02*
X167269000Y-91567000D01*
X167282000Y-89154000D02*
X167244000Y-89192000D01*
X170815000Y-89154000D02*
X167282000Y-89154000D01*
X166168999Y-84927001D02*
X166168999Y-82497001D01*
X166433998Y-85192000D02*
X166168999Y-84927001D01*
X167244000Y-85192000D02*
X166433998Y-85192000D01*
X172085000Y-76581000D02*
X172085000Y-70739000D01*
X166168999Y-82497001D02*
X172085000Y-76581000D01*
X163993999Y-87089001D02*
X165296998Y-88392000D01*
X163993999Y-86392999D02*
X163993999Y-87089001D01*
X165296998Y-88392000D02*
X167244000Y-88392000D01*
X165194998Y-85192000D02*
X163993999Y-86392999D01*
X167244000Y-85192000D02*
X165194998Y-85192000D01*
X138624010Y-64575990D02*
X169223990Y-64575990D01*
X169223990Y-64575990D02*
X170180000Y-65532000D01*
X132461000Y-70739000D02*
X138624010Y-64575990D01*
X172455500Y-85992000D02*
X173966500Y-87503000D01*
X167333000Y-87503000D02*
X167244000Y-87592000D01*
X173966500Y-87503000D02*
X167333000Y-87503000D01*
X170955000Y-85992000D02*
X172455500Y-85992000D01*
X167244000Y-85992000D02*
X170955000Y-85992000D01*
X172085000Y-66363998D02*
X172085000Y-68199000D01*
X169846983Y-64125981D02*
X172085000Y-66363998D01*
X138001017Y-64125981D02*
X169846983Y-64125981D01*
X126778001Y-75348997D02*
X138001017Y-64125981D01*
X126778001Y-77310999D02*
X126778001Y-75348997D01*
X125603000Y-78486000D02*
X126778001Y-77310999D01*
X164770000Y-86792000D02*
X164719000Y-86741000D01*
X167244000Y-86792000D02*
X164770000Y-86792000D01*
X167005000Y-70739000D02*
X167005000Y-78740000D01*
X165544000Y-80201000D02*
X165544000Y-82692000D01*
X167005000Y-78740000D02*
X165544000Y-80201000D01*
X165829999Y-69374001D02*
X165829999Y-77756001D01*
X167005000Y-68199000D02*
X165829999Y-69374001D01*
X164744000Y-78842000D02*
X164744000Y-82692000D01*
X165829999Y-77756001D02*
X164744000Y-78842000D01*
X163944000Y-76023490D02*
X163944000Y-82692000D01*
X163289999Y-75369489D02*
X163944000Y-76023490D01*
X163289999Y-69374001D02*
X163289999Y-75369489D01*
X164465000Y-68199000D02*
X163289999Y-69374001D01*
X162267990Y-82615990D02*
X162344000Y-82692000D01*
X162267990Y-77395480D02*
X162267990Y-82615990D01*
X160749999Y-75877489D02*
X162267990Y-77395480D01*
X160749999Y-69374001D02*
X160749999Y-75877489D01*
X161925000Y-68199000D02*
X160749999Y-69374001D01*
X155033998Y-85192000D02*
X152908000Y-83066002D01*
X155844000Y-85192000D02*
X155033998Y-85192000D01*
X152908000Y-77216000D02*
X159385000Y-70739000D01*
X152908000Y-83066002D02*
X152908000Y-77216000D01*
X153035000Y-77089000D02*
X149479000Y-77089000D01*
X159385000Y-70739000D02*
X153035000Y-77089000D01*
X159131000Y-82679000D02*
X159144000Y-82692000D01*
X159131000Y-79121000D02*
X159131000Y-82679000D01*
X155780000Y-92456000D02*
X155844000Y-92392000D01*
X152019000Y-92456000D02*
X155780000Y-92456000D01*
X157480000Y-82628000D02*
X157544000Y-82692000D01*
X157480000Y-79121000D02*
X157480000Y-82628000D01*
X151563490Y-87592000D02*
X155844000Y-87592000D01*
X147860001Y-83888511D02*
X151563490Y-87592000D01*
X147860001Y-69374001D02*
X147860001Y-83888511D01*
X146685000Y-68199000D02*
X147860001Y-69374001D01*
X145320001Y-69374001D02*
X145320001Y-84142511D01*
X145320001Y-84142511D02*
X149442490Y-88265000D01*
X144145000Y-68199000D02*
X145320001Y-69374001D01*
X155717000Y-88265000D02*
X155844000Y-88392000D01*
X149442490Y-88265000D02*
X155717000Y-88265000D01*
D18*
X204474000Y-104652000D02*
X204470000Y-104648000D01*
X204474000Y-112272000D02*
X204474000Y-104652000D01*
X141605000Y-70739000D02*
X139065000Y-70739000D01*
D17*
X142780001Y-69374001D02*
X142780001Y-82963001D01*
X141605000Y-68199000D02*
X142780001Y-69374001D01*
X149009000Y-89192000D02*
X155844000Y-89192000D01*
X142780001Y-82963001D02*
X149009000Y-89192000D01*
X156909000Y-84392000D02*
X157480000Y-84963000D01*
X155844000Y-84392000D02*
X156909000Y-84392000D01*
X184150000Y-112268000D02*
X184154000Y-112272000D01*
X184150000Y-105156000D02*
X184150000Y-112268000D01*
X163144000Y-98558002D02*
X167582998Y-102997000D01*
X163144000Y-94092000D02*
X163144000Y-98558002D01*
X167582998Y-102997000D02*
X178181000Y-102997000D01*
X179074000Y-103890000D02*
X179074000Y-112272000D01*
X178181000Y-102997000D02*
X179074000Y-103890000D01*
X160020000Y-82616000D02*
X159944000Y-82692000D01*
X160020000Y-78255500D02*
X160020000Y-82616000D01*
D19*
X241486245Y-60184099D02*
X241801762Y-60215035D01*
X242071852Y-60296580D01*
X242320962Y-60429035D01*
X242539595Y-60607347D01*
X242719434Y-60824736D01*
X242853621Y-61072909D01*
X242937049Y-61342421D01*
X242969978Y-61655727D01*
X242964904Y-104897717D01*
X242933965Y-105213262D01*
X242852419Y-105483354D01*
X242719967Y-105732459D01*
X242541652Y-105951096D01*
X242324267Y-106130932D01*
X242076091Y-106265121D01*
X241806579Y-106348549D01*
X241493255Y-106381480D01*
X212173137Y-106381480D01*
X212138260Y-106378045D01*
X212103383Y-106381480D01*
X212100843Y-106381480D01*
X211996536Y-106391753D01*
X211862700Y-106432352D01*
X211739357Y-106498280D01*
X211631245Y-106587005D01*
X211542520Y-106695117D01*
X211476592Y-106818460D01*
X211441543Y-106934000D01*
X205359000Y-106934000D01*
X205359000Y-105779849D01*
X205384759Y-105762637D01*
X205584637Y-105562759D01*
X205741680Y-105327727D01*
X205849853Y-105066574D01*
X205905000Y-104789335D01*
X205905000Y-104506665D01*
X205849853Y-104229426D01*
X205741680Y-103968273D01*
X205584637Y-103733241D01*
X205384759Y-103533363D01*
X205149727Y-103376320D01*
X204888574Y-103268147D01*
X204611335Y-103213000D01*
X204328665Y-103213000D01*
X204051426Y-103268147D01*
X203790273Y-103376320D01*
X203555241Y-103533363D01*
X203355363Y-103733241D01*
X203198320Y-103968273D01*
X203090147Y-104229426D01*
X203035000Y-104506665D01*
X203035000Y-104789335D01*
X203090147Y-105066574D01*
X203198320Y-105327727D01*
X203355363Y-105562759D01*
X203555241Y-105762637D01*
X203589001Y-105785195D01*
X203589001Y-106934000D01*
X184910000Y-106934000D01*
X184910000Y-105859711D01*
X184953937Y-105815774D01*
X185067205Y-105646256D01*
X185145226Y-105457898D01*
X185185000Y-105257939D01*
X185185000Y-105054061D01*
X185145226Y-104854102D01*
X185067205Y-104665744D01*
X184953937Y-104496226D01*
X184809774Y-104352063D01*
X184640256Y-104238795D01*
X184451898Y-104160774D01*
X184251939Y-104121000D01*
X184048061Y-104121000D01*
X183848102Y-104160774D01*
X183659744Y-104238795D01*
X183490226Y-104352063D01*
X183346063Y-104496226D01*
X183232795Y-104665744D01*
X183154774Y-104854102D01*
X183115000Y-105054061D01*
X183115000Y-105257939D01*
X183154774Y-105457898D01*
X183232795Y-105646256D01*
X183346063Y-105815774D01*
X183390000Y-105859711D01*
X183390000Y-106934000D01*
X179834000Y-106934000D01*
X179834000Y-103927325D01*
X179837676Y-103890000D01*
X179834000Y-103852675D01*
X179834000Y-103852667D01*
X179823003Y-103741014D01*
X179779546Y-103597753D01*
X179708974Y-103465724D01*
X179614001Y-103349999D01*
X179585004Y-103326202D01*
X178744803Y-102486002D01*
X178721001Y-102456999D01*
X178605276Y-102362026D01*
X178473247Y-102291454D01*
X178329986Y-102247997D01*
X178218333Y-102237000D01*
X178218322Y-102237000D01*
X178181000Y-102233324D01*
X178143678Y-102237000D01*
X167897800Y-102237000D01*
X166024672Y-100363872D01*
X233858000Y-100363872D01*
X233858000Y-100804128D01*
X233943890Y-101235925D01*
X234112369Y-101642669D01*
X234356962Y-102008729D01*
X234668271Y-102320038D01*
X235034331Y-102564631D01*
X235441075Y-102733110D01*
X235872872Y-102819000D01*
X236313128Y-102819000D01*
X236744925Y-102733110D01*
X237151669Y-102564631D01*
X237517729Y-102320038D01*
X237829038Y-102008729D01*
X238073631Y-101642669D01*
X238242110Y-101235925D01*
X238328000Y-100804128D01*
X238328000Y-100363872D01*
X238242110Y-99932075D01*
X238073631Y-99525331D01*
X237829038Y-99159271D01*
X237517729Y-98847962D01*
X237151669Y-98603369D01*
X236744925Y-98434890D01*
X236313128Y-98349000D01*
X235872872Y-98349000D01*
X235441075Y-98434890D01*
X235034331Y-98603369D01*
X234668271Y-98847962D01*
X234356962Y-99159271D01*
X234112369Y-99525331D01*
X233943890Y-99932075D01*
X233858000Y-100363872D01*
X166024672Y-100363872D01*
X164689755Y-99028956D01*
X164760937Y-98957774D01*
X164874205Y-98788256D01*
X164952226Y-98599898D01*
X164992000Y-98399939D01*
X164992000Y-98196061D01*
X164965558Y-98063128D01*
X165061753Y-98114546D01*
X165205014Y-98158003D01*
X165316667Y-98169000D01*
X165316676Y-98169000D01*
X165353999Y-98172676D01*
X165391322Y-98169000D01*
X168237678Y-98169000D01*
X168275000Y-98172676D01*
X168312322Y-98169000D01*
X168312333Y-98169000D01*
X168423986Y-98158003D01*
X168567247Y-98114546D01*
X168699276Y-98043974D01*
X168815001Y-97949001D01*
X168838804Y-97919997D01*
X181199801Y-85559000D01*
X197647928Y-85559000D01*
X197660188Y-85683482D01*
X197696498Y-85803180D01*
X197755463Y-85913494D01*
X197834815Y-86010185D01*
X197931506Y-86089537D01*
X198041820Y-86148502D01*
X198114380Y-86170513D01*
X197982525Y-86302368D01*
X197820010Y-86545589D01*
X197708068Y-86815842D01*
X197651000Y-87102740D01*
X197651000Y-87395260D01*
X197708068Y-87682158D01*
X197820010Y-87952411D01*
X197982525Y-88195632D01*
X198189368Y-88402475D01*
X198432589Y-88564990D01*
X198702842Y-88676932D01*
X198989740Y-88734000D01*
X199282260Y-88734000D01*
X199569158Y-88676932D01*
X199839411Y-88564990D01*
X200082632Y-88402475D01*
X200289475Y-88195632D01*
X200451990Y-87952411D01*
X200563932Y-87682158D01*
X200621000Y-87395260D01*
X200621000Y-87102740D01*
X200563932Y-86815842D01*
X200451990Y-86545589D01*
X200289475Y-86302368D01*
X200157620Y-86170513D01*
X200230180Y-86148502D01*
X200340494Y-86089537D01*
X200437185Y-86010185D01*
X200516537Y-85913494D01*
X200575502Y-85803180D01*
X200611812Y-85683482D01*
X200624072Y-85559000D01*
X200621000Y-84994750D01*
X200462250Y-84836000D01*
X199263000Y-84836000D01*
X199263000Y-84856000D01*
X199009000Y-84856000D01*
X199009000Y-84836000D01*
X197809750Y-84836000D01*
X197651000Y-84994750D01*
X197647928Y-85559000D01*
X181199801Y-85559000D01*
X182899801Y-83859000D01*
X197647928Y-83859000D01*
X197651000Y-84423250D01*
X197809750Y-84582000D01*
X199009000Y-84582000D01*
X199009000Y-83382750D01*
X199263000Y-83382750D01*
X199263000Y-84582000D01*
X200462250Y-84582000D01*
X200621000Y-84423250D01*
X200624072Y-83859000D01*
X200611812Y-83734518D01*
X200575502Y-83614820D01*
X200516537Y-83504506D01*
X200437185Y-83407815D01*
X200340494Y-83328463D01*
X200230180Y-83269498D01*
X200110482Y-83233188D01*
X199986000Y-83220928D01*
X199421750Y-83224000D01*
X199263000Y-83382750D01*
X199009000Y-83382750D01*
X198850250Y-83224000D01*
X198286000Y-83220928D01*
X198161518Y-83233188D01*
X198041820Y-83269498D01*
X197931506Y-83328463D01*
X197834815Y-83407815D01*
X197755463Y-83504506D01*
X197696498Y-83614820D01*
X197660188Y-83734518D01*
X197647928Y-83859000D01*
X182899801Y-83859000D01*
X187836003Y-78922799D01*
X187865001Y-78899001D01*
X187959974Y-78783276D01*
X188030546Y-78651247D01*
X188074003Y-78507986D01*
X188085000Y-78396333D01*
X188085000Y-78396324D01*
X188088676Y-78359001D01*
X188085000Y-78321678D01*
X188085000Y-72017178D01*
X188271632Y-71892475D01*
X188478475Y-71685632D01*
X188640990Y-71442411D01*
X188752932Y-71172158D01*
X188810000Y-70885260D01*
X188810000Y-70592740D01*
X188752932Y-70305842D01*
X188681753Y-70134001D01*
X188947200Y-70134001D01*
X197694790Y-78881592D01*
X197651000Y-79101740D01*
X197651000Y-79394260D01*
X197708068Y-79681158D01*
X197820010Y-79951411D01*
X197982525Y-80194632D01*
X198189368Y-80401475D01*
X198432589Y-80563990D01*
X198702842Y-80675932D01*
X198989740Y-80733000D01*
X199282260Y-80733000D01*
X199569158Y-80675932D01*
X199839411Y-80563990D01*
X200082632Y-80401475D01*
X200289475Y-80194632D01*
X200451990Y-79951411D01*
X200563932Y-79681158D01*
X200621000Y-79394260D01*
X200621000Y-79101740D01*
X200563932Y-78814842D01*
X200451990Y-78544589D01*
X200289475Y-78301368D01*
X200157620Y-78169513D01*
X200230180Y-78147502D01*
X200340494Y-78088537D01*
X200437185Y-78009185D01*
X200516537Y-77912494D01*
X200575502Y-77802180D01*
X200611812Y-77682482D01*
X200624072Y-77558000D01*
X200621000Y-76993750D01*
X200462250Y-76835000D01*
X199263000Y-76835000D01*
X199263000Y-76855000D01*
X199009000Y-76855000D01*
X199009000Y-76835000D01*
X198989000Y-76835000D01*
X198989000Y-76581000D01*
X199009000Y-76581000D01*
X199009000Y-75381750D01*
X199263000Y-75381750D01*
X199263000Y-76581000D01*
X200462250Y-76581000D01*
X200621000Y-76422250D01*
X200624072Y-75858000D01*
X200611812Y-75733518D01*
X200575502Y-75613820D01*
X200516537Y-75503506D01*
X200437185Y-75406815D01*
X200340494Y-75327463D01*
X200230180Y-75268498D01*
X200110482Y-75232188D01*
X199986000Y-75219928D01*
X199421750Y-75223000D01*
X199263000Y-75381750D01*
X199009000Y-75381750D01*
X198850250Y-75223000D01*
X198286000Y-75219928D01*
X198161518Y-75232188D01*
X198041820Y-75268498D01*
X197931506Y-75327463D01*
X197834815Y-75406815D01*
X197755463Y-75503506D01*
X197696498Y-75613820D01*
X197660188Y-75733518D01*
X197647928Y-75858000D01*
X197651000Y-76422250D01*
X197809748Y-76580998D01*
X197651000Y-76580998D01*
X197651000Y-76688198D01*
X189825805Y-68863004D01*
X189802002Y-68834000D01*
X189686277Y-68739027D01*
X189554248Y-68668455D01*
X189410987Y-68624998D01*
X189299334Y-68614001D01*
X189299323Y-68614001D01*
X189262001Y-68610325D01*
X189224679Y-68614001D01*
X188745868Y-68614001D01*
X188766481Y-68555891D01*
X188645814Y-68326000D01*
X187452000Y-68326000D01*
X187452000Y-68346000D01*
X187198000Y-68346000D01*
X187198000Y-68326000D01*
X187178000Y-68326000D01*
X187178000Y-68072000D01*
X187198000Y-68072000D01*
X187198000Y-66878845D01*
X187452000Y-66878845D01*
X187452000Y-68072000D01*
X188645814Y-68072000D01*
X188766481Y-67842109D01*
X188669157Y-67567748D01*
X188520178Y-67317645D01*
X188325269Y-67101412D01*
X188091920Y-66927359D01*
X187829099Y-66802175D01*
X187681890Y-66757524D01*
X187452000Y-66878845D01*
X187198000Y-66878845D01*
X186968110Y-66757524D01*
X186820901Y-66802175D01*
X186558080Y-66927359D01*
X186324731Y-67101412D01*
X186129822Y-67317645D01*
X186060195Y-67434534D01*
X185938475Y-67252368D01*
X185731632Y-67045525D01*
X185488411Y-66883010D01*
X185218158Y-66771068D01*
X184931260Y-66714000D01*
X184638740Y-66714000D01*
X184369999Y-66767456D01*
X184369999Y-65751802D01*
X186115802Y-64006000D01*
X190947199Y-64006000D01*
X197721826Y-70780628D01*
X197708068Y-70813842D01*
X197651000Y-71100740D01*
X197651000Y-71393260D01*
X197708068Y-71680158D01*
X197820010Y-71950411D01*
X197982525Y-72193632D01*
X198189368Y-72400475D01*
X198432589Y-72562990D01*
X198702842Y-72674932D01*
X198989740Y-72732000D01*
X199282260Y-72732000D01*
X199569158Y-72674932D01*
X199839411Y-72562990D01*
X200082632Y-72400475D01*
X200289475Y-72193632D01*
X200451990Y-71950411D01*
X200563932Y-71680158D01*
X200621000Y-71393260D01*
X200621000Y-71100740D01*
X200563932Y-70813842D01*
X200451990Y-70543589D01*
X200289475Y-70300368D01*
X200157620Y-70168513D01*
X200230180Y-70146502D01*
X200340494Y-70087537D01*
X200437185Y-70008185D01*
X200516537Y-69911494D01*
X200575502Y-69801180D01*
X200611812Y-69681482D01*
X200624072Y-69557000D01*
X200621000Y-68992750D01*
X200462250Y-68834000D01*
X199263000Y-68834000D01*
X199263000Y-68854000D01*
X199009000Y-68854000D01*
X199009000Y-68834000D01*
X198989000Y-68834000D01*
X198989000Y-68580000D01*
X199009000Y-68580000D01*
X199009000Y-67380750D01*
X199263000Y-67380750D01*
X199263000Y-68580000D01*
X200462250Y-68580000D01*
X200621000Y-68421250D01*
X200624072Y-67857000D01*
X200611812Y-67732518D01*
X200575502Y-67612820D01*
X200516537Y-67502506D01*
X200437185Y-67405815D01*
X200340494Y-67326463D01*
X200230180Y-67267498D01*
X200110482Y-67231188D01*
X199986000Y-67218928D01*
X199421750Y-67222000D01*
X199263000Y-67380750D01*
X199009000Y-67380750D01*
X198850250Y-67222000D01*
X198286000Y-67218928D01*
X198161518Y-67231188D01*
X198041820Y-67267498D01*
X197931506Y-67326463D01*
X197834815Y-67405815D01*
X197755463Y-67502506D01*
X197696498Y-67612820D01*
X197660188Y-67732518D01*
X197647928Y-67857000D01*
X197651000Y-68421250D01*
X197809748Y-68579998D01*
X197670800Y-68579998D01*
X193386674Y-64295872D01*
X233985000Y-64295872D01*
X233985000Y-64736128D01*
X234070890Y-65167925D01*
X234239369Y-65574669D01*
X234483962Y-65940729D01*
X234795271Y-66252038D01*
X235161331Y-66496631D01*
X235568075Y-66665110D01*
X235999872Y-66751000D01*
X236440128Y-66751000D01*
X236871925Y-66665110D01*
X237278669Y-66496631D01*
X237644729Y-66252038D01*
X237956038Y-65940729D01*
X238200631Y-65574669D01*
X238369110Y-65167925D01*
X238455000Y-64736128D01*
X238455000Y-64295872D01*
X238369110Y-63864075D01*
X238200631Y-63457331D01*
X237956038Y-63091271D01*
X237644729Y-62779962D01*
X237278669Y-62535369D01*
X236871925Y-62366890D01*
X236440128Y-62281000D01*
X235999872Y-62281000D01*
X235568075Y-62366890D01*
X235161331Y-62535369D01*
X234795271Y-62779962D01*
X234483962Y-63091271D01*
X234239369Y-63457331D01*
X234070890Y-63864075D01*
X233985000Y-64295872D01*
X193386674Y-64295872D01*
X191825804Y-62735003D01*
X191802001Y-62705999D01*
X191686276Y-62611026D01*
X191554247Y-62540454D01*
X191410986Y-62496997D01*
X191299333Y-62486000D01*
X191299322Y-62486000D01*
X191262000Y-62482324D01*
X191224678Y-62486000D01*
X185838322Y-62486000D01*
X185800999Y-62482324D01*
X185763676Y-62486000D01*
X185763667Y-62486000D01*
X185652014Y-62496997D01*
X185508753Y-62540454D01*
X185376724Y-62611026D01*
X185260999Y-62705999D01*
X185237201Y-62734997D01*
X183098997Y-64873202D01*
X183069999Y-64897000D01*
X183046201Y-64925998D01*
X183046200Y-64925999D01*
X182975025Y-65012725D01*
X182904453Y-65144755D01*
X182902559Y-65151000D01*
X182860997Y-65288015D01*
X182857404Y-65324491D01*
X182846323Y-65437001D01*
X182850000Y-65474333D01*
X182850000Y-66842247D01*
X182678158Y-66771068D01*
X182391260Y-66714000D01*
X182098740Y-66714000D01*
X181811842Y-66771068D01*
X181541589Y-66883010D01*
X181338508Y-67018704D01*
X176329805Y-62010002D01*
X176306002Y-61980998D01*
X176190277Y-61886025D01*
X176058248Y-61815453D01*
X175914987Y-61771996D01*
X175803334Y-61760999D01*
X175803323Y-61760999D01*
X175766001Y-61757323D01*
X175728679Y-61760999D01*
X122555323Y-61760999D01*
X122518000Y-61757323D01*
X122480677Y-61760999D01*
X122480668Y-61760999D01*
X122369015Y-61771996D01*
X122225754Y-61815453D01*
X122093725Y-61886025D01*
X122089148Y-61889781D01*
X122006997Y-61957200D01*
X122006993Y-61957204D01*
X121978000Y-61980998D01*
X121954206Y-62009991D01*
X116825408Y-67138791D01*
X116605260Y-67095000D01*
X116312740Y-67095000D01*
X116025842Y-67152068D01*
X115755589Y-67264010D01*
X115512368Y-67426525D01*
X115305525Y-67633368D01*
X115143010Y-67876589D01*
X115031068Y-68146842D01*
X114974000Y-68433740D01*
X114974000Y-68726260D01*
X115031068Y-69013158D01*
X115143010Y-69283411D01*
X115305525Y-69526632D01*
X115437380Y-69658487D01*
X115364820Y-69680498D01*
X115254506Y-69739463D01*
X115157815Y-69818815D01*
X115078463Y-69915506D01*
X115019498Y-70025820D01*
X114983188Y-70145518D01*
X114970928Y-70270000D01*
X114974000Y-70834250D01*
X115132750Y-70993000D01*
X116332000Y-70993000D01*
X116332000Y-70973000D01*
X116586000Y-70973000D01*
X116586000Y-70993000D01*
X117785250Y-70993000D01*
X117944000Y-70834250D01*
X117947072Y-70270000D01*
X117934812Y-70145518D01*
X117898502Y-70025820D01*
X117839537Y-69915506D01*
X117760185Y-69818815D01*
X117663494Y-69739463D01*
X117553180Y-69680498D01*
X117480620Y-69658487D01*
X117612475Y-69526632D01*
X117774990Y-69283411D01*
X117886932Y-69013158D01*
X117944000Y-68726260D01*
X117944000Y-68433740D01*
X117900209Y-68213592D01*
X122832804Y-63280999D01*
X126651787Y-63280999D01*
X117945355Y-71987432D01*
X117947072Y-71970000D01*
X117944000Y-71405750D01*
X117785250Y-71247000D01*
X116586000Y-71247000D01*
X116586000Y-72446250D01*
X116744750Y-72605000D01*
X117309000Y-72608072D01*
X117326432Y-72606355D01*
X115948003Y-73984784D01*
X115918999Y-74008587D01*
X115863871Y-74075762D01*
X115824026Y-74124312D01*
X115753455Y-74256341D01*
X115753454Y-74256342D01*
X115709997Y-74399603D01*
X115699000Y-74511256D01*
X115699000Y-74511266D01*
X115695324Y-74548588D01*
X115699000Y-74585911D01*
X115699000Y-75302821D01*
X115512368Y-75427525D01*
X115305525Y-75634368D01*
X115143010Y-75877589D01*
X115031068Y-76147842D01*
X114974000Y-76434740D01*
X114974000Y-76727260D01*
X115031068Y-77014158D01*
X115143010Y-77284411D01*
X115305525Y-77527632D01*
X115437380Y-77659487D01*
X115364820Y-77681498D01*
X115254506Y-77740463D01*
X115157815Y-77819815D01*
X115078463Y-77916506D01*
X115019498Y-78026820D01*
X114983188Y-78146518D01*
X114970928Y-78271000D01*
X114974000Y-78835250D01*
X115132750Y-78994000D01*
X116332000Y-78994000D01*
X116332000Y-78974000D01*
X116586000Y-78974000D01*
X116586000Y-78994000D01*
X117785250Y-78994000D01*
X117944000Y-78835250D01*
X117947072Y-78271000D01*
X117934812Y-78146518D01*
X117898502Y-78026820D01*
X117839537Y-77916506D01*
X117760185Y-77819815D01*
X117663494Y-77740463D01*
X117553180Y-77681498D01*
X117480620Y-77659487D01*
X117612475Y-77527632D01*
X117774990Y-77284411D01*
X117886932Y-77014158D01*
X117944000Y-76727260D01*
X117944000Y-76434740D01*
X117886932Y-76147842D01*
X117774990Y-75877589D01*
X117612475Y-75634368D01*
X117405632Y-75427525D01*
X117219000Y-75302822D01*
X117219000Y-74863389D01*
X120779000Y-71303389D01*
X120779001Y-79187197D01*
X116825408Y-83140791D01*
X116605260Y-83097000D01*
X116312740Y-83097000D01*
X116025842Y-83154068D01*
X115755589Y-83266010D01*
X115512368Y-83428525D01*
X115305525Y-83635368D01*
X115143010Y-83878589D01*
X115031068Y-84148842D01*
X114974000Y-84435740D01*
X114974000Y-84728260D01*
X115031068Y-85015158D01*
X115143010Y-85285411D01*
X115305525Y-85528632D01*
X115437380Y-85660487D01*
X115364820Y-85682498D01*
X115254506Y-85741463D01*
X115157815Y-85820815D01*
X115078463Y-85917506D01*
X115019498Y-86027820D01*
X114983188Y-86147518D01*
X114970928Y-86272000D01*
X114974000Y-86836250D01*
X115132750Y-86995000D01*
X116332000Y-86995000D01*
X116332000Y-86975000D01*
X116586000Y-86975000D01*
X116586000Y-86995000D01*
X117785250Y-86995000D01*
X117944000Y-86836250D01*
X117947072Y-86272000D01*
X117934812Y-86147518D01*
X117898502Y-86027820D01*
X117839537Y-85917506D01*
X117760185Y-85820815D01*
X117663494Y-85741463D01*
X117553180Y-85682498D01*
X117480620Y-85660487D01*
X117612475Y-85528632D01*
X117774990Y-85285411D01*
X117886932Y-85015158D01*
X117944000Y-84728260D01*
X117944000Y-84435740D01*
X117900209Y-84215592D01*
X122050003Y-80065799D01*
X122079001Y-80042001D01*
X122151595Y-79953545D01*
X122173974Y-79926277D01*
X122244546Y-79794247D01*
X122249861Y-79776724D01*
X122288003Y-79650986D01*
X122299000Y-79539333D01*
X122299000Y-79539323D01*
X122302676Y-79502000D01*
X122299000Y-79464677D01*
X122299000Y-70419799D01*
X124114928Y-68603871D01*
X124114928Y-69176000D01*
X124127188Y-69300482D01*
X124163498Y-69420180D01*
X124222463Y-69530494D01*
X124301815Y-69627185D01*
X124398506Y-69706537D01*
X124508820Y-69765502D01*
X124589466Y-69789966D01*
X124505412Y-69865731D01*
X124331359Y-70099080D01*
X124206175Y-70361901D01*
X124161524Y-70509110D01*
X124282845Y-70739000D01*
X125476000Y-70739000D01*
X125476000Y-70719000D01*
X125730000Y-70719000D01*
X125730000Y-70739000D01*
X126923155Y-70739000D01*
X127044476Y-70509110D01*
X126999825Y-70361901D01*
X126874641Y-70099080D01*
X126700588Y-69865731D01*
X126616534Y-69789966D01*
X126697180Y-69765502D01*
X126807494Y-69706537D01*
X126904185Y-69627185D01*
X126983537Y-69530494D01*
X127042502Y-69420180D01*
X127078812Y-69300482D01*
X127091072Y-69176000D01*
X127091072Y-67476000D01*
X127078812Y-67351518D01*
X127042502Y-67231820D01*
X126983537Y-67121506D01*
X126904185Y-67024815D01*
X126807494Y-66945463D01*
X126697180Y-66886498D01*
X126577482Y-66850188D01*
X126453000Y-66837928D01*
X125880872Y-66837928D01*
X127876801Y-64841999D01*
X134481290Y-64841999D01*
X134451063Y-64872226D01*
X134337795Y-65041744D01*
X134259774Y-65230102D01*
X134220000Y-65430061D01*
X134220000Y-65492198D01*
X127066199Y-72646000D01*
X126881178Y-72646000D01*
X126756475Y-72459368D01*
X126549632Y-72252525D01*
X126367466Y-72130805D01*
X126484355Y-72061178D01*
X126700588Y-71866269D01*
X126874641Y-71632920D01*
X126999825Y-71370099D01*
X127044476Y-71222890D01*
X126923155Y-70993000D01*
X125730000Y-70993000D01*
X125730000Y-71013000D01*
X125476000Y-71013000D01*
X125476000Y-70993000D01*
X124282845Y-70993000D01*
X124161524Y-71222890D01*
X124206175Y-71370099D01*
X124331359Y-71632920D01*
X124505412Y-71866269D01*
X124721645Y-72061178D01*
X124838534Y-72130805D01*
X124656368Y-72252525D01*
X124449525Y-72459368D01*
X124287010Y-72702589D01*
X124175068Y-72972842D01*
X124118000Y-73259740D01*
X124118000Y-73552260D01*
X124175068Y-73839158D01*
X124287010Y-74109411D01*
X124449525Y-74352632D01*
X124656368Y-74559475D01*
X124830760Y-74676000D01*
X124656368Y-74792525D01*
X124449525Y-74999368D01*
X124287010Y-75242589D01*
X124175068Y-75512842D01*
X124118000Y-75799740D01*
X124118000Y-76092260D01*
X124175068Y-76379158D01*
X124287010Y-76649411D01*
X124449525Y-76892632D01*
X124656368Y-77099475D01*
X124830760Y-77216000D01*
X124656368Y-77332525D01*
X124449525Y-77539368D01*
X124287010Y-77782589D01*
X124175068Y-78052842D01*
X124118000Y-78339740D01*
X124118000Y-78632260D01*
X124175068Y-78919158D01*
X124287010Y-79189411D01*
X124449525Y-79432632D01*
X124656368Y-79639475D01*
X124830760Y-79756000D01*
X124656368Y-79872525D01*
X124449525Y-80079368D01*
X124287010Y-80322589D01*
X124175068Y-80592842D01*
X124118000Y-80879740D01*
X124118000Y-81172260D01*
X124175068Y-81459158D01*
X124287010Y-81729411D01*
X124449525Y-81972632D01*
X124656368Y-82179475D01*
X124899589Y-82341990D01*
X125169842Y-82453932D01*
X125456740Y-82511000D01*
X125749260Y-82511000D01*
X126036158Y-82453932D01*
X126306411Y-82341990D01*
X126549632Y-82179475D01*
X126756475Y-81972632D01*
X126918990Y-81729411D01*
X127030932Y-81459158D01*
X127088000Y-81172260D01*
X127088000Y-80879740D01*
X127030932Y-80592842D01*
X126918990Y-80322589D01*
X126756475Y-80079368D01*
X126549632Y-79872525D01*
X126375240Y-79756000D01*
X126549632Y-79639475D01*
X126756475Y-79432632D01*
X126918990Y-79189411D01*
X127030932Y-78919158D01*
X127088000Y-78632260D01*
X127088000Y-78339740D01*
X127044210Y-78119592D01*
X127289005Y-77874797D01*
X127318002Y-77851000D01*
X127412975Y-77735275D01*
X127483547Y-77603246D01*
X127527004Y-77459985D01*
X127538001Y-77348332D01*
X127538001Y-77348323D01*
X127541677Y-77311000D01*
X127538001Y-77273677D01*
X127538001Y-75663798D01*
X131730044Y-71471755D01*
X131801226Y-71542937D01*
X131970744Y-71656205D01*
X132159102Y-71734226D01*
X132359061Y-71774000D01*
X132562939Y-71774000D01*
X132762898Y-71734226D01*
X132951256Y-71656205D01*
X133120774Y-71542937D01*
X133264937Y-71398774D01*
X133378205Y-71229256D01*
X133456226Y-71040898D01*
X133496000Y-70840939D01*
X133496000Y-70778801D01*
X134119138Y-70155663D01*
X134116000Y-70187524D01*
X134116000Y-70187531D01*
X134111719Y-70231000D01*
X134116000Y-70274469D01*
X134116001Y-73121544D01*
X134083795Y-73169744D01*
X134005774Y-73358102D01*
X133966000Y-73558061D01*
X133966000Y-73761939D01*
X134005774Y-73961898D01*
X134083795Y-74150256D01*
X134116000Y-74198455D01*
X134116001Y-77693544D01*
X134083795Y-77741744D01*
X134005774Y-77930102D01*
X133966000Y-78130061D01*
X133966000Y-78333939D01*
X134005774Y-78533898D01*
X134083795Y-78722256D01*
X134197063Y-78891774D01*
X134341226Y-79035937D01*
X134510744Y-79149205D01*
X134699102Y-79227226D01*
X134899061Y-79267000D01*
X135102939Y-79267000D01*
X135302898Y-79227226D01*
X135491256Y-79149205D01*
X135660774Y-79035937D01*
X135804937Y-78891774D01*
X135918205Y-78722256D01*
X135996226Y-78533898D01*
X136036000Y-78333939D01*
X136036000Y-78130061D01*
X135996226Y-77930102D01*
X135918205Y-77741744D01*
X135886000Y-77693546D01*
X135886000Y-74198454D01*
X135918205Y-74150256D01*
X135996226Y-73961898D01*
X136036000Y-73761939D01*
X136036000Y-73558061D01*
X135996226Y-73358102D01*
X135918205Y-73169744D01*
X135886000Y-73121546D01*
X135886000Y-70597578D01*
X137399579Y-69084000D01*
X137580375Y-69084000D01*
X137589188Y-69173482D01*
X137625498Y-69293180D01*
X137684463Y-69403494D01*
X137763815Y-69500185D01*
X137860506Y-69579537D01*
X137970820Y-69638502D01*
X138043380Y-69660513D01*
X137911525Y-69792368D01*
X137749010Y-70035589D01*
X137637068Y-70305842D01*
X137580000Y-70592740D01*
X137580000Y-70885260D01*
X137637068Y-71172158D01*
X137749010Y-71442411D01*
X137911525Y-71685632D01*
X138118368Y-71892475D01*
X138361589Y-72054990D01*
X138631842Y-72166932D01*
X138918740Y-72224000D01*
X139211260Y-72224000D01*
X139498158Y-72166932D01*
X139768411Y-72054990D01*
X140011632Y-71892475D01*
X140218475Y-71685632D01*
X140259656Y-71624000D01*
X140410344Y-71624000D01*
X140451525Y-71685632D01*
X140658368Y-71892475D01*
X140901589Y-72054990D01*
X141171842Y-72166932D01*
X141458740Y-72224000D01*
X141751260Y-72224000D01*
X142020001Y-72170544D01*
X142020002Y-82925669D01*
X142016325Y-82963001D01*
X142020002Y-83000334D01*
X142030999Y-83111987D01*
X142035551Y-83126992D01*
X142074455Y-83255247D01*
X142145027Y-83387277D01*
X142201162Y-83455677D01*
X142240001Y-83503002D01*
X142268999Y-83526800D01*
X148445201Y-89703003D01*
X148468999Y-89732001D01*
X148584724Y-89826974D01*
X148716753Y-89897546D01*
X148860014Y-89941003D01*
X148971667Y-89952000D01*
X148971677Y-89952000D01*
X149009000Y-89955676D01*
X149046323Y-89952000D01*
X154455928Y-89952000D01*
X154455928Y-90267000D01*
X154468188Y-90391482D01*
X154468345Y-90392000D01*
X154468188Y-90392518D01*
X154455928Y-90517000D01*
X154455928Y-91067000D01*
X154468188Y-91191482D01*
X154468345Y-91192000D01*
X154468188Y-91192518D01*
X154455928Y-91317000D01*
X154455928Y-91696000D01*
X152722711Y-91696000D01*
X152678774Y-91652063D01*
X152509256Y-91538795D01*
X152320898Y-91460774D01*
X152120939Y-91421000D01*
X151917061Y-91421000D01*
X151717102Y-91460774D01*
X151528744Y-91538795D01*
X151359226Y-91652063D01*
X151215063Y-91796226D01*
X151101795Y-91965744D01*
X151023774Y-92154102D01*
X150984000Y-92354061D01*
X150984000Y-92557939D01*
X151023774Y-92757898D01*
X151101795Y-92946256D01*
X151215063Y-93115774D01*
X151359226Y-93259937D01*
X151528744Y-93373205D01*
X151717102Y-93451226D01*
X151917061Y-93491000D01*
X152120939Y-93491000D01*
X152320898Y-93451226D01*
X152509256Y-93373205D01*
X152678774Y-93259937D01*
X152722711Y-93216000D01*
X154774047Y-93216000D01*
X154849820Y-93256502D01*
X154969518Y-93292812D01*
X155094000Y-93305072D01*
X156594000Y-93305072D01*
X156634962Y-93301038D01*
X156630928Y-93342000D01*
X156630928Y-94842000D01*
X156643188Y-94966482D01*
X156679498Y-95086180D01*
X156738463Y-95196494D01*
X156784000Y-95251982D01*
X156784001Y-96776196D01*
X153163003Y-100397196D01*
X153133999Y-100420999D01*
X153078871Y-100488174D01*
X153039026Y-100536724D01*
X153027921Y-100557500D01*
X152968454Y-100668754D01*
X152924997Y-100812015D01*
X152914000Y-100923668D01*
X152914000Y-100923678D01*
X152910324Y-100961000D01*
X152914000Y-100998322D01*
X152914000Y-105016660D01*
X152890256Y-105000795D01*
X152701898Y-104922774D01*
X152501939Y-104883000D01*
X152298061Y-104883000D01*
X152098102Y-104922774D01*
X151909744Y-105000795D01*
X151740226Y-105114063D01*
X151596063Y-105258226D01*
X151482795Y-105427744D01*
X151404774Y-105616102D01*
X151365000Y-105816061D01*
X151365000Y-105878198D01*
X150622998Y-106620201D01*
X150594000Y-106643999D01*
X150570202Y-106672997D01*
X150570201Y-106672998D01*
X150499026Y-106759724D01*
X150428454Y-106891754D01*
X150415640Y-106934000D01*
X149354000Y-106934000D01*
X149354000Y-105601711D01*
X149393937Y-105561774D01*
X149507205Y-105392256D01*
X149585226Y-105203898D01*
X149625000Y-105003939D01*
X149625000Y-104800061D01*
X149585226Y-104600102D01*
X149507205Y-104411744D01*
X149393937Y-104242226D01*
X149249774Y-104098063D01*
X149080256Y-103984795D01*
X148891898Y-103906774D01*
X148691939Y-103867000D01*
X148488061Y-103867000D01*
X148288102Y-103906774D01*
X148099744Y-103984795D01*
X147930226Y-104098063D01*
X147786063Y-104242226D01*
X147672795Y-104411744D01*
X147594774Y-104600102D01*
X147555000Y-104800061D01*
X147555000Y-105003939D01*
X147594774Y-105203898D01*
X147672795Y-105392256D01*
X147786063Y-105561774D01*
X147834001Y-105609712D01*
X147834001Y-106934000D01*
X146814000Y-106934000D01*
X146814000Y-100648711D01*
X146853937Y-100608774D01*
X146967205Y-100439256D01*
X147045226Y-100250898D01*
X147085000Y-100050939D01*
X147085000Y-99847061D01*
X147045226Y-99647102D01*
X146967205Y-99458744D01*
X146853937Y-99289226D01*
X146709774Y-99145063D01*
X146540256Y-99031795D01*
X146351898Y-98953774D01*
X146151939Y-98914000D01*
X145948061Y-98914000D01*
X145748102Y-98953774D01*
X145559744Y-99031795D01*
X145390226Y-99145063D01*
X145246063Y-99289226D01*
X145132795Y-99458744D01*
X145054774Y-99647102D01*
X145015000Y-99847061D01*
X145015000Y-100050939D01*
X145054774Y-100250898D01*
X145132795Y-100439256D01*
X145246063Y-100608774D01*
X145294001Y-100656712D01*
X145294000Y-106934000D01*
X111224418Y-106934000D01*
X111224141Y-106933086D01*
X111202468Y-106861640D01*
X111202441Y-106861590D01*
X111202426Y-106861540D01*
X111171407Y-106803529D01*
X111136540Y-106738297D01*
X111136503Y-106738252D01*
X111136479Y-106738207D01*
X111094962Y-106687634D01*
X111047815Y-106630185D01*
X111047770Y-106630148D01*
X111047738Y-106630109D01*
X110997360Y-106588778D01*
X110939703Y-106541460D01*
X110939652Y-106541433D01*
X110939612Y-106541400D01*
X110882054Y-106510646D01*
X110816360Y-106475532D01*
X110816304Y-106475515D01*
X110816259Y-106475491D01*
X110752701Y-106456221D01*
X110682524Y-106434933D01*
X110682468Y-106434927D01*
X110682417Y-106434912D01*
X110615136Y-106428296D01*
X110543340Y-106421225D01*
X110508406Y-106424666D01*
X93857194Y-106427195D01*
X93541738Y-106396265D01*
X93271646Y-106314719D01*
X93022541Y-106182267D01*
X92803904Y-106003952D01*
X92624068Y-105786567D01*
X92489879Y-105538391D01*
X92406451Y-105268879D01*
X92373522Y-104955572D01*
X92375512Y-87972000D01*
X114970928Y-87972000D01*
X114983188Y-88096482D01*
X115019498Y-88216180D01*
X115078463Y-88326494D01*
X115157815Y-88423185D01*
X115254506Y-88502537D01*
X115364820Y-88561502D01*
X115484518Y-88597812D01*
X115609000Y-88610072D01*
X116173250Y-88607000D01*
X116332000Y-88448250D01*
X116332000Y-87249000D01*
X116586000Y-87249000D01*
X116586000Y-88448250D01*
X116744750Y-88607000D01*
X117309000Y-88610072D01*
X117433482Y-88597812D01*
X117553180Y-88561502D01*
X117663494Y-88502537D01*
X117760185Y-88423185D01*
X117839537Y-88326494D01*
X117898502Y-88216180D01*
X117934812Y-88096482D01*
X117947072Y-87972000D01*
X117944000Y-87407750D01*
X117785250Y-87249000D01*
X116586000Y-87249000D01*
X116332000Y-87249000D01*
X115132750Y-87249000D01*
X114974000Y-87407750D01*
X114970928Y-87972000D01*
X92375512Y-87972000D01*
X92376449Y-79971000D01*
X114970928Y-79971000D01*
X114983188Y-80095482D01*
X115019498Y-80215180D01*
X115078463Y-80325494D01*
X115157815Y-80422185D01*
X115254506Y-80501537D01*
X115364820Y-80560502D01*
X115484518Y-80596812D01*
X115609000Y-80609072D01*
X116173250Y-80606000D01*
X116332000Y-80447250D01*
X116332000Y-79248000D01*
X116586000Y-79248000D01*
X116586000Y-80447250D01*
X116744750Y-80606000D01*
X117309000Y-80609072D01*
X117433482Y-80596812D01*
X117553180Y-80560502D01*
X117663494Y-80501537D01*
X117760185Y-80422185D01*
X117839537Y-80325494D01*
X117898502Y-80215180D01*
X117934812Y-80095482D01*
X117947072Y-79971000D01*
X117944000Y-79406750D01*
X117785250Y-79248000D01*
X116586000Y-79248000D01*
X116332000Y-79248000D01*
X115132750Y-79248000D01*
X114974000Y-79406750D01*
X114970928Y-79971000D01*
X92376449Y-79971000D01*
X92377387Y-71970000D01*
X114970928Y-71970000D01*
X114983188Y-72094482D01*
X115019498Y-72214180D01*
X115078463Y-72324494D01*
X115157815Y-72421185D01*
X115254506Y-72500537D01*
X115364820Y-72559502D01*
X115484518Y-72595812D01*
X115609000Y-72608072D01*
X116173250Y-72605000D01*
X116332000Y-72446250D01*
X116332000Y-71247000D01*
X115132750Y-71247000D01*
X114974000Y-71405750D01*
X114970928Y-71970000D01*
X92377387Y-71970000D01*
X92378596Y-61662783D01*
X92409535Y-61347238D01*
X92491080Y-61077148D01*
X92623535Y-60828038D01*
X92801847Y-60609405D01*
X93019236Y-60429566D01*
X93267409Y-60295379D01*
X93536921Y-60211951D01*
X93850244Y-60179020D01*
X241486245Y-60184099D01*
G04 #@! TA.AperFunction,Conductor*
D20*
G36*
X241486245Y-60184099D02*
G01*
X241801762Y-60215035D01*
X242071852Y-60296580D01*
X242320962Y-60429035D01*
X242539595Y-60607347D01*
X242719434Y-60824736D01*
X242853621Y-61072909D01*
X242937049Y-61342421D01*
X242969978Y-61655727D01*
X242964904Y-104897717D01*
X242933965Y-105213262D01*
X242852419Y-105483354D01*
X242719967Y-105732459D01*
X242541652Y-105951096D01*
X242324267Y-106130932D01*
X242076091Y-106265121D01*
X241806579Y-106348549D01*
X241493255Y-106381480D01*
X212173137Y-106381480D01*
X212138260Y-106378045D01*
X212103383Y-106381480D01*
X212100843Y-106381480D01*
X211996536Y-106391753D01*
X211862700Y-106432352D01*
X211739357Y-106498280D01*
X211631245Y-106587005D01*
X211542520Y-106695117D01*
X211476592Y-106818460D01*
X211441543Y-106934000D01*
X205359000Y-106934000D01*
X205359000Y-105779849D01*
X205384759Y-105762637D01*
X205584637Y-105562759D01*
X205741680Y-105327727D01*
X205849853Y-105066574D01*
X205905000Y-104789335D01*
X205905000Y-104506665D01*
X205849853Y-104229426D01*
X205741680Y-103968273D01*
X205584637Y-103733241D01*
X205384759Y-103533363D01*
X205149727Y-103376320D01*
X204888574Y-103268147D01*
X204611335Y-103213000D01*
X204328665Y-103213000D01*
X204051426Y-103268147D01*
X203790273Y-103376320D01*
X203555241Y-103533363D01*
X203355363Y-103733241D01*
X203198320Y-103968273D01*
X203090147Y-104229426D01*
X203035000Y-104506665D01*
X203035000Y-104789335D01*
X203090147Y-105066574D01*
X203198320Y-105327727D01*
X203355363Y-105562759D01*
X203555241Y-105762637D01*
X203589001Y-105785195D01*
X203589001Y-106934000D01*
X184910000Y-106934000D01*
X184910000Y-105859711D01*
X184953937Y-105815774D01*
X185067205Y-105646256D01*
X185145226Y-105457898D01*
X185185000Y-105257939D01*
X185185000Y-105054061D01*
X185145226Y-104854102D01*
X185067205Y-104665744D01*
X184953937Y-104496226D01*
X184809774Y-104352063D01*
X184640256Y-104238795D01*
X184451898Y-104160774D01*
X184251939Y-104121000D01*
X184048061Y-104121000D01*
X183848102Y-104160774D01*
X183659744Y-104238795D01*
X183490226Y-104352063D01*
X183346063Y-104496226D01*
X183232795Y-104665744D01*
X183154774Y-104854102D01*
X183115000Y-105054061D01*
X183115000Y-105257939D01*
X183154774Y-105457898D01*
X183232795Y-105646256D01*
X183346063Y-105815774D01*
X183390000Y-105859711D01*
X183390000Y-106934000D01*
X179834000Y-106934000D01*
X179834000Y-103927325D01*
X179837676Y-103890000D01*
X179834000Y-103852675D01*
X179834000Y-103852667D01*
X179823003Y-103741014D01*
X179779546Y-103597753D01*
X179708974Y-103465724D01*
X179614001Y-103349999D01*
X179585004Y-103326202D01*
X178744803Y-102486002D01*
X178721001Y-102456999D01*
X178605276Y-102362026D01*
X178473247Y-102291454D01*
X178329986Y-102247997D01*
X178218333Y-102237000D01*
X178218322Y-102237000D01*
X178181000Y-102233324D01*
X178143678Y-102237000D01*
X167897800Y-102237000D01*
X166024672Y-100363872D01*
X233858000Y-100363872D01*
X233858000Y-100804128D01*
X233943890Y-101235925D01*
X234112369Y-101642669D01*
X234356962Y-102008729D01*
X234668271Y-102320038D01*
X235034331Y-102564631D01*
X235441075Y-102733110D01*
X235872872Y-102819000D01*
X236313128Y-102819000D01*
X236744925Y-102733110D01*
X237151669Y-102564631D01*
X237517729Y-102320038D01*
X237829038Y-102008729D01*
X238073631Y-101642669D01*
X238242110Y-101235925D01*
X238328000Y-100804128D01*
X238328000Y-100363872D01*
X238242110Y-99932075D01*
X238073631Y-99525331D01*
X237829038Y-99159271D01*
X237517729Y-98847962D01*
X237151669Y-98603369D01*
X236744925Y-98434890D01*
X236313128Y-98349000D01*
X235872872Y-98349000D01*
X235441075Y-98434890D01*
X235034331Y-98603369D01*
X234668271Y-98847962D01*
X234356962Y-99159271D01*
X234112369Y-99525331D01*
X233943890Y-99932075D01*
X233858000Y-100363872D01*
X166024672Y-100363872D01*
X164689755Y-99028956D01*
X164760937Y-98957774D01*
X164874205Y-98788256D01*
X164952226Y-98599898D01*
X164992000Y-98399939D01*
X164992000Y-98196061D01*
X164965558Y-98063128D01*
X165061753Y-98114546D01*
X165205014Y-98158003D01*
X165316667Y-98169000D01*
X165316676Y-98169000D01*
X165353999Y-98172676D01*
X165391322Y-98169000D01*
X168237678Y-98169000D01*
X168275000Y-98172676D01*
X168312322Y-98169000D01*
X168312333Y-98169000D01*
X168423986Y-98158003D01*
X168567247Y-98114546D01*
X168699276Y-98043974D01*
X168815001Y-97949001D01*
X168838804Y-97919997D01*
X181199801Y-85559000D01*
X197647928Y-85559000D01*
X197660188Y-85683482D01*
X197696498Y-85803180D01*
X197755463Y-85913494D01*
X197834815Y-86010185D01*
X197931506Y-86089537D01*
X198041820Y-86148502D01*
X198114380Y-86170513D01*
X197982525Y-86302368D01*
X197820010Y-86545589D01*
X197708068Y-86815842D01*
X197651000Y-87102740D01*
X197651000Y-87395260D01*
X197708068Y-87682158D01*
X197820010Y-87952411D01*
X197982525Y-88195632D01*
X198189368Y-88402475D01*
X198432589Y-88564990D01*
X198702842Y-88676932D01*
X198989740Y-88734000D01*
X199282260Y-88734000D01*
X199569158Y-88676932D01*
X199839411Y-88564990D01*
X200082632Y-88402475D01*
X200289475Y-88195632D01*
X200451990Y-87952411D01*
X200563932Y-87682158D01*
X200621000Y-87395260D01*
X200621000Y-87102740D01*
X200563932Y-86815842D01*
X200451990Y-86545589D01*
X200289475Y-86302368D01*
X200157620Y-86170513D01*
X200230180Y-86148502D01*
X200340494Y-86089537D01*
X200437185Y-86010185D01*
X200516537Y-85913494D01*
X200575502Y-85803180D01*
X200611812Y-85683482D01*
X200624072Y-85559000D01*
X200621000Y-84994750D01*
X200462250Y-84836000D01*
X199263000Y-84836000D01*
X199263000Y-84856000D01*
X199009000Y-84856000D01*
X199009000Y-84836000D01*
X197809750Y-84836000D01*
X197651000Y-84994750D01*
X197647928Y-85559000D01*
X181199801Y-85559000D01*
X182899801Y-83859000D01*
X197647928Y-83859000D01*
X197651000Y-84423250D01*
X197809750Y-84582000D01*
X199009000Y-84582000D01*
X199009000Y-83382750D01*
X199263000Y-83382750D01*
X199263000Y-84582000D01*
X200462250Y-84582000D01*
X200621000Y-84423250D01*
X200624072Y-83859000D01*
X200611812Y-83734518D01*
X200575502Y-83614820D01*
X200516537Y-83504506D01*
X200437185Y-83407815D01*
X200340494Y-83328463D01*
X200230180Y-83269498D01*
X200110482Y-83233188D01*
X199986000Y-83220928D01*
X199421750Y-83224000D01*
X199263000Y-83382750D01*
X199009000Y-83382750D01*
X198850250Y-83224000D01*
X198286000Y-83220928D01*
X198161518Y-83233188D01*
X198041820Y-83269498D01*
X197931506Y-83328463D01*
X197834815Y-83407815D01*
X197755463Y-83504506D01*
X197696498Y-83614820D01*
X197660188Y-83734518D01*
X197647928Y-83859000D01*
X182899801Y-83859000D01*
X187836003Y-78922799D01*
X187865001Y-78899001D01*
X187959974Y-78783276D01*
X188030546Y-78651247D01*
X188074003Y-78507986D01*
X188085000Y-78396333D01*
X188085000Y-78396324D01*
X188088676Y-78359001D01*
X188085000Y-78321678D01*
X188085000Y-72017178D01*
X188271632Y-71892475D01*
X188478475Y-71685632D01*
X188640990Y-71442411D01*
X188752932Y-71172158D01*
X188810000Y-70885260D01*
X188810000Y-70592740D01*
X188752932Y-70305842D01*
X188681753Y-70134001D01*
X188947200Y-70134001D01*
X197694790Y-78881592D01*
X197651000Y-79101740D01*
X197651000Y-79394260D01*
X197708068Y-79681158D01*
X197820010Y-79951411D01*
X197982525Y-80194632D01*
X198189368Y-80401475D01*
X198432589Y-80563990D01*
X198702842Y-80675932D01*
X198989740Y-80733000D01*
X199282260Y-80733000D01*
X199569158Y-80675932D01*
X199839411Y-80563990D01*
X200082632Y-80401475D01*
X200289475Y-80194632D01*
X200451990Y-79951411D01*
X200563932Y-79681158D01*
X200621000Y-79394260D01*
X200621000Y-79101740D01*
X200563932Y-78814842D01*
X200451990Y-78544589D01*
X200289475Y-78301368D01*
X200157620Y-78169513D01*
X200230180Y-78147502D01*
X200340494Y-78088537D01*
X200437185Y-78009185D01*
X200516537Y-77912494D01*
X200575502Y-77802180D01*
X200611812Y-77682482D01*
X200624072Y-77558000D01*
X200621000Y-76993750D01*
X200462250Y-76835000D01*
X199263000Y-76835000D01*
X199263000Y-76855000D01*
X199009000Y-76855000D01*
X199009000Y-76835000D01*
X198989000Y-76835000D01*
X198989000Y-76581000D01*
X199009000Y-76581000D01*
X199009000Y-75381750D01*
X199263000Y-75381750D01*
X199263000Y-76581000D01*
X200462250Y-76581000D01*
X200621000Y-76422250D01*
X200624072Y-75858000D01*
X200611812Y-75733518D01*
X200575502Y-75613820D01*
X200516537Y-75503506D01*
X200437185Y-75406815D01*
X200340494Y-75327463D01*
X200230180Y-75268498D01*
X200110482Y-75232188D01*
X199986000Y-75219928D01*
X199421750Y-75223000D01*
X199263000Y-75381750D01*
X199009000Y-75381750D01*
X198850250Y-75223000D01*
X198286000Y-75219928D01*
X198161518Y-75232188D01*
X198041820Y-75268498D01*
X197931506Y-75327463D01*
X197834815Y-75406815D01*
X197755463Y-75503506D01*
X197696498Y-75613820D01*
X197660188Y-75733518D01*
X197647928Y-75858000D01*
X197651000Y-76422250D01*
X197809748Y-76580998D01*
X197651000Y-76580998D01*
X197651000Y-76688198D01*
X189825805Y-68863004D01*
X189802002Y-68834000D01*
X189686277Y-68739027D01*
X189554248Y-68668455D01*
X189410987Y-68624998D01*
X189299334Y-68614001D01*
X189299323Y-68614001D01*
X189262001Y-68610325D01*
X189224679Y-68614001D01*
X188745868Y-68614001D01*
X188766481Y-68555891D01*
X188645814Y-68326000D01*
X187452000Y-68326000D01*
X187452000Y-68346000D01*
X187198000Y-68346000D01*
X187198000Y-68326000D01*
X187178000Y-68326000D01*
X187178000Y-68072000D01*
X187198000Y-68072000D01*
X187198000Y-66878845D01*
X187452000Y-66878845D01*
X187452000Y-68072000D01*
X188645814Y-68072000D01*
X188766481Y-67842109D01*
X188669157Y-67567748D01*
X188520178Y-67317645D01*
X188325269Y-67101412D01*
X188091920Y-66927359D01*
X187829099Y-66802175D01*
X187681890Y-66757524D01*
X187452000Y-66878845D01*
X187198000Y-66878845D01*
X186968110Y-66757524D01*
X186820901Y-66802175D01*
X186558080Y-66927359D01*
X186324731Y-67101412D01*
X186129822Y-67317645D01*
X186060195Y-67434534D01*
X185938475Y-67252368D01*
X185731632Y-67045525D01*
X185488411Y-66883010D01*
X185218158Y-66771068D01*
X184931260Y-66714000D01*
X184638740Y-66714000D01*
X184369999Y-66767456D01*
X184369999Y-65751802D01*
X186115802Y-64006000D01*
X190947199Y-64006000D01*
X197721826Y-70780628D01*
X197708068Y-70813842D01*
X197651000Y-71100740D01*
X197651000Y-71393260D01*
X197708068Y-71680158D01*
X197820010Y-71950411D01*
X197982525Y-72193632D01*
X198189368Y-72400475D01*
X198432589Y-72562990D01*
X198702842Y-72674932D01*
X198989740Y-72732000D01*
X199282260Y-72732000D01*
X199569158Y-72674932D01*
X199839411Y-72562990D01*
X200082632Y-72400475D01*
X200289475Y-72193632D01*
X200451990Y-71950411D01*
X200563932Y-71680158D01*
X200621000Y-71393260D01*
X200621000Y-71100740D01*
X200563932Y-70813842D01*
X200451990Y-70543589D01*
X200289475Y-70300368D01*
X200157620Y-70168513D01*
X200230180Y-70146502D01*
X200340494Y-70087537D01*
X200437185Y-70008185D01*
X200516537Y-69911494D01*
X200575502Y-69801180D01*
X200611812Y-69681482D01*
X200624072Y-69557000D01*
X200621000Y-68992750D01*
X200462250Y-68834000D01*
X199263000Y-68834000D01*
X199263000Y-68854000D01*
X199009000Y-68854000D01*
X199009000Y-68834000D01*
X198989000Y-68834000D01*
X198989000Y-68580000D01*
X199009000Y-68580000D01*
X199009000Y-67380750D01*
X199263000Y-67380750D01*
X199263000Y-68580000D01*
X200462250Y-68580000D01*
X200621000Y-68421250D01*
X200624072Y-67857000D01*
X200611812Y-67732518D01*
X200575502Y-67612820D01*
X200516537Y-67502506D01*
X200437185Y-67405815D01*
X200340494Y-67326463D01*
X200230180Y-67267498D01*
X200110482Y-67231188D01*
X199986000Y-67218928D01*
X199421750Y-67222000D01*
X199263000Y-67380750D01*
X199009000Y-67380750D01*
X198850250Y-67222000D01*
X198286000Y-67218928D01*
X198161518Y-67231188D01*
X198041820Y-67267498D01*
X197931506Y-67326463D01*
X197834815Y-67405815D01*
X197755463Y-67502506D01*
X197696498Y-67612820D01*
X197660188Y-67732518D01*
X197647928Y-67857000D01*
X197651000Y-68421250D01*
X197809748Y-68579998D01*
X197670800Y-68579998D01*
X193386674Y-64295872D01*
X233985000Y-64295872D01*
X233985000Y-64736128D01*
X234070890Y-65167925D01*
X234239369Y-65574669D01*
X234483962Y-65940729D01*
X234795271Y-66252038D01*
X235161331Y-66496631D01*
X235568075Y-66665110D01*
X235999872Y-66751000D01*
X236440128Y-66751000D01*
X236871925Y-66665110D01*
X237278669Y-66496631D01*
X237644729Y-66252038D01*
X237956038Y-65940729D01*
X238200631Y-65574669D01*
X238369110Y-65167925D01*
X238455000Y-64736128D01*
X238455000Y-64295872D01*
X238369110Y-63864075D01*
X238200631Y-63457331D01*
X237956038Y-63091271D01*
X237644729Y-62779962D01*
X237278669Y-62535369D01*
X236871925Y-62366890D01*
X236440128Y-62281000D01*
X235999872Y-62281000D01*
X235568075Y-62366890D01*
X235161331Y-62535369D01*
X234795271Y-62779962D01*
X234483962Y-63091271D01*
X234239369Y-63457331D01*
X234070890Y-63864075D01*
X233985000Y-64295872D01*
X193386674Y-64295872D01*
X191825804Y-62735003D01*
X191802001Y-62705999D01*
X191686276Y-62611026D01*
X191554247Y-62540454D01*
X191410986Y-62496997D01*
X191299333Y-62486000D01*
X191299322Y-62486000D01*
X191262000Y-62482324D01*
X191224678Y-62486000D01*
X185838322Y-62486000D01*
X185800999Y-62482324D01*
X185763676Y-62486000D01*
X185763667Y-62486000D01*
X185652014Y-62496997D01*
X185508753Y-62540454D01*
X185376724Y-62611026D01*
X185260999Y-62705999D01*
X185237201Y-62734997D01*
X183098997Y-64873202D01*
X183069999Y-64897000D01*
X183046201Y-64925998D01*
X183046200Y-64925999D01*
X182975025Y-65012725D01*
X182904453Y-65144755D01*
X182902559Y-65151000D01*
X182860997Y-65288015D01*
X182857404Y-65324491D01*
X182846323Y-65437001D01*
X182850000Y-65474333D01*
X182850000Y-66842247D01*
X182678158Y-66771068D01*
X182391260Y-66714000D01*
X182098740Y-66714000D01*
X181811842Y-66771068D01*
X181541589Y-66883010D01*
X181338508Y-67018704D01*
X176329805Y-62010002D01*
X176306002Y-61980998D01*
X176190277Y-61886025D01*
X176058248Y-61815453D01*
X175914987Y-61771996D01*
X175803334Y-61760999D01*
X175803323Y-61760999D01*
X175766001Y-61757323D01*
X175728679Y-61760999D01*
X122555323Y-61760999D01*
X122518000Y-61757323D01*
X122480677Y-61760999D01*
X122480668Y-61760999D01*
X122369015Y-61771996D01*
X122225754Y-61815453D01*
X122093725Y-61886025D01*
X122089148Y-61889781D01*
X122006997Y-61957200D01*
X122006993Y-61957204D01*
X121978000Y-61980998D01*
X121954206Y-62009991D01*
X116825408Y-67138791D01*
X116605260Y-67095000D01*
X116312740Y-67095000D01*
X116025842Y-67152068D01*
X115755589Y-67264010D01*
X115512368Y-67426525D01*
X115305525Y-67633368D01*
X115143010Y-67876589D01*
X115031068Y-68146842D01*
X114974000Y-68433740D01*
X114974000Y-68726260D01*
X115031068Y-69013158D01*
X115143010Y-69283411D01*
X115305525Y-69526632D01*
X115437380Y-69658487D01*
X115364820Y-69680498D01*
X115254506Y-69739463D01*
X115157815Y-69818815D01*
X115078463Y-69915506D01*
X115019498Y-70025820D01*
X114983188Y-70145518D01*
X114970928Y-70270000D01*
X114974000Y-70834250D01*
X115132750Y-70993000D01*
X116332000Y-70993000D01*
X116332000Y-70973000D01*
X116586000Y-70973000D01*
X116586000Y-70993000D01*
X117785250Y-70993000D01*
X117944000Y-70834250D01*
X117947072Y-70270000D01*
X117934812Y-70145518D01*
X117898502Y-70025820D01*
X117839537Y-69915506D01*
X117760185Y-69818815D01*
X117663494Y-69739463D01*
X117553180Y-69680498D01*
X117480620Y-69658487D01*
X117612475Y-69526632D01*
X117774990Y-69283411D01*
X117886932Y-69013158D01*
X117944000Y-68726260D01*
X117944000Y-68433740D01*
X117900209Y-68213592D01*
X122832804Y-63280999D01*
X126651787Y-63280999D01*
X117945355Y-71987432D01*
X117947072Y-71970000D01*
X117944000Y-71405750D01*
X117785250Y-71247000D01*
X116586000Y-71247000D01*
X116586000Y-72446250D01*
X116744750Y-72605000D01*
X117309000Y-72608072D01*
X117326432Y-72606355D01*
X115948003Y-73984784D01*
X115918999Y-74008587D01*
X115863871Y-74075762D01*
X115824026Y-74124312D01*
X115753455Y-74256341D01*
X115753454Y-74256342D01*
X115709997Y-74399603D01*
X115699000Y-74511256D01*
X115699000Y-74511266D01*
X115695324Y-74548588D01*
X115699000Y-74585911D01*
X115699000Y-75302821D01*
X115512368Y-75427525D01*
X115305525Y-75634368D01*
X115143010Y-75877589D01*
X115031068Y-76147842D01*
X114974000Y-76434740D01*
X114974000Y-76727260D01*
X115031068Y-77014158D01*
X115143010Y-77284411D01*
X115305525Y-77527632D01*
X115437380Y-77659487D01*
X115364820Y-77681498D01*
X115254506Y-77740463D01*
X115157815Y-77819815D01*
X115078463Y-77916506D01*
X115019498Y-78026820D01*
X114983188Y-78146518D01*
X114970928Y-78271000D01*
X114974000Y-78835250D01*
X115132750Y-78994000D01*
X116332000Y-78994000D01*
X116332000Y-78974000D01*
X116586000Y-78974000D01*
X116586000Y-78994000D01*
X117785250Y-78994000D01*
X117944000Y-78835250D01*
X117947072Y-78271000D01*
X117934812Y-78146518D01*
X117898502Y-78026820D01*
X117839537Y-77916506D01*
X117760185Y-77819815D01*
X117663494Y-77740463D01*
X117553180Y-77681498D01*
X117480620Y-77659487D01*
X117612475Y-77527632D01*
X117774990Y-77284411D01*
X117886932Y-77014158D01*
X117944000Y-76727260D01*
X117944000Y-76434740D01*
X117886932Y-76147842D01*
X117774990Y-75877589D01*
X117612475Y-75634368D01*
X117405632Y-75427525D01*
X117219000Y-75302822D01*
X117219000Y-74863389D01*
X120779000Y-71303389D01*
X120779001Y-79187197D01*
X116825408Y-83140791D01*
X116605260Y-83097000D01*
X116312740Y-83097000D01*
X116025842Y-83154068D01*
X115755589Y-83266010D01*
X115512368Y-83428525D01*
X115305525Y-83635368D01*
X115143010Y-83878589D01*
X115031068Y-84148842D01*
X114974000Y-84435740D01*
X114974000Y-84728260D01*
X115031068Y-85015158D01*
X115143010Y-85285411D01*
X115305525Y-85528632D01*
X115437380Y-85660487D01*
X115364820Y-85682498D01*
X115254506Y-85741463D01*
X115157815Y-85820815D01*
X115078463Y-85917506D01*
X115019498Y-86027820D01*
X114983188Y-86147518D01*
X114970928Y-86272000D01*
X114974000Y-86836250D01*
X115132750Y-86995000D01*
X116332000Y-86995000D01*
X116332000Y-86975000D01*
X116586000Y-86975000D01*
X116586000Y-86995000D01*
X117785250Y-86995000D01*
X117944000Y-86836250D01*
X117947072Y-86272000D01*
X117934812Y-86147518D01*
X117898502Y-86027820D01*
X117839537Y-85917506D01*
X117760185Y-85820815D01*
X117663494Y-85741463D01*
X117553180Y-85682498D01*
X117480620Y-85660487D01*
X117612475Y-85528632D01*
X117774990Y-85285411D01*
X117886932Y-85015158D01*
X117944000Y-84728260D01*
X117944000Y-84435740D01*
X117900209Y-84215592D01*
X122050003Y-80065799D01*
X122079001Y-80042001D01*
X122151595Y-79953545D01*
X122173974Y-79926277D01*
X122244546Y-79794247D01*
X122249861Y-79776724D01*
X122288003Y-79650986D01*
X122299000Y-79539333D01*
X122299000Y-79539323D01*
X122302676Y-79502000D01*
X122299000Y-79464677D01*
X122299000Y-70419799D01*
X124114928Y-68603871D01*
X124114928Y-69176000D01*
X124127188Y-69300482D01*
X124163498Y-69420180D01*
X124222463Y-69530494D01*
X124301815Y-69627185D01*
X124398506Y-69706537D01*
X124508820Y-69765502D01*
X124589466Y-69789966D01*
X124505412Y-69865731D01*
X124331359Y-70099080D01*
X124206175Y-70361901D01*
X124161524Y-70509110D01*
X124282845Y-70739000D01*
X125476000Y-70739000D01*
X125476000Y-70719000D01*
X125730000Y-70719000D01*
X125730000Y-70739000D01*
X126923155Y-70739000D01*
X127044476Y-70509110D01*
X126999825Y-70361901D01*
X126874641Y-70099080D01*
X126700588Y-69865731D01*
X126616534Y-69789966D01*
X126697180Y-69765502D01*
X126807494Y-69706537D01*
X126904185Y-69627185D01*
X126983537Y-69530494D01*
X127042502Y-69420180D01*
X127078812Y-69300482D01*
X127091072Y-69176000D01*
X127091072Y-67476000D01*
X127078812Y-67351518D01*
X127042502Y-67231820D01*
X126983537Y-67121506D01*
X126904185Y-67024815D01*
X126807494Y-66945463D01*
X126697180Y-66886498D01*
X126577482Y-66850188D01*
X126453000Y-66837928D01*
X125880872Y-66837928D01*
X127876801Y-64841999D01*
X134481290Y-64841999D01*
X134451063Y-64872226D01*
X134337795Y-65041744D01*
X134259774Y-65230102D01*
X134220000Y-65430061D01*
X134220000Y-65492198D01*
X127066199Y-72646000D01*
X126881178Y-72646000D01*
X126756475Y-72459368D01*
X126549632Y-72252525D01*
X126367466Y-72130805D01*
X126484355Y-72061178D01*
X126700588Y-71866269D01*
X126874641Y-71632920D01*
X126999825Y-71370099D01*
X127044476Y-71222890D01*
X126923155Y-70993000D01*
X125730000Y-70993000D01*
X125730000Y-71013000D01*
X125476000Y-71013000D01*
X125476000Y-70993000D01*
X124282845Y-70993000D01*
X124161524Y-71222890D01*
X124206175Y-71370099D01*
X124331359Y-71632920D01*
X124505412Y-71866269D01*
X124721645Y-72061178D01*
X124838534Y-72130805D01*
X124656368Y-72252525D01*
X124449525Y-72459368D01*
X124287010Y-72702589D01*
X124175068Y-72972842D01*
X124118000Y-73259740D01*
X124118000Y-73552260D01*
X124175068Y-73839158D01*
X124287010Y-74109411D01*
X124449525Y-74352632D01*
X124656368Y-74559475D01*
X124830760Y-74676000D01*
X124656368Y-74792525D01*
X124449525Y-74999368D01*
X124287010Y-75242589D01*
X124175068Y-75512842D01*
X124118000Y-75799740D01*
X124118000Y-76092260D01*
X124175068Y-76379158D01*
X124287010Y-76649411D01*
X124449525Y-76892632D01*
X124656368Y-77099475D01*
X124830760Y-77216000D01*
X124656368Y-77332525D01*
X124449525Y-77539368D01*
X124287010Y-77782589D01*
X124175068Y-78052842D01*
X124118000Y-78339740D01*
X124118000Y-78632260D01*
X124175068Y-78919158D01*
X124287010Y-79189411D01*
X124449525Y-79432632D01*
X124656368Y-79639475D01*
X124830760Y-79756000D01*
X124656368Y-79872525D01*
X124449525Y-80079368D01*
X124287010Y-80322589D01*
X124175068Y-80592842D01*
X124118000Y-80879740D01*
X124118000Y-81172260D01*
X124175068Y-81459158D01*
X124287010Y-81729411D01*
X124449525Y-81972632D01*
X124656368Y-82179475D01*
X124899589Y-82341990D01*
X125169842Y-82453932D01*
X125456740Y-82511000D01*
X125749260Y-82511000D01*
X126036158Y-82453932D01*
X126306411Y-82341990D01*
X126549632Y-82179475D01*
X126756475Y-81972632D01*
X126918990Y-81729411D01*
X127030932Y-81459158D01*
X127088000Y-81172260D01*
X127088000Y-80879740D01*
X127030932Y-80592842D01*
X126918990Y-80322589D01*
X126756475Y-80079368D01*
X126549632Y-79872525D01*
X126375240Y-79756000D01*
X126549632Y-79639475D01*
X126756475Y-79432632D01*
X126918990Y-79189411D01*
X127030932Y-78919158D01*
X127088000Y-78632260D01*
X127088000Y-78339740D01*
X127044210Y-78119592D01*
X127289005Y-77874797D01*
X127318002Y-77851000D01*
X127412975Y-77735275D01*
X127483547Y-77603246D01*
X127527004Y-77459985D01*
X127538001Y-77348332D01*
X127538001Y-77348323D01*
X127541677Y-77311000D01*
X127538001Y-77273677D01*
X127538001Y-75663798D01*
X131730044Y-71471755D01*
X131801226Y-71542937D01*
X131970744Y-71656205D01*
X132159102Y-71734226D01*
X132359061Y-71774000D01*
X132562939Y-71774000D01*
X132762898Y-71734226D01*
X132951256Y-71656205D01*
X133120774Y-71542937D01*
X133264937Y-71398774D01*
X133378205Y-71229256D01*
X133456226Y-71040898D01*
X133496000Y-70840939D01*
X133496000Y-70778801D01*
X134119138Y-70155663D01*
X134116000Y-70187524D01*
X134116000Y-70187531D01*
X134111719Y-70231000D01*
X134116000Y-70274469D01*
X134116001Y-73121544D01*
X134083795Y-73169744D01*
X134005774Y-73358102D01*
X133966000Y-73558061D01*
X133966000Y-73761939D01*
X134005774Y-73961898D01*
X134083795Y-74150256D01*
X134116000Y-74198455D01*
X134116001Y-77693544D01*
X134083795Y-77741744D01*
X134005774Y-77930102D01*
X133966000Y-78130061D01*
X133966000Y-78333939D01*
X134005774Y-78533898D01*
X134083795Y-78722256D01*
X134197063Y-78891774D01*
X134341226Y-79035937D01*
X134510744Y-79149205D01*
X134699102Y-79227226D01*
X134899061Y-79267000D01*
X135102939Y-79267000D01*
X135302898Y-79227226D01*
X135491256Y-79149205D01*
X135660774Y-79035937D01*
X135804937Y-78891774D01*
X135918205Y-78722256D01*
X135996226Y-78533898D01*
X136036000Y-78333939D01*
X136036000Y-78130061D01*
X135996226Y-77930102D01*
X135918205Y-77741744D01*
X135886000Y-77693546D01*
X135886000Y-74198454D01*
X135918205Y-74150256D01*
X135996226Y-73961898D01*
X136036000Y-73761939D01*
X136036000Y-73558061D01*
X135996226Y-73358102D01*
X135918205Y-73169744D01*
X135886000Y-73121546D01*
X135886000Y-70597578D01*
X137399579Y-69084000D01*
X137580375Y-69084000D01*
X137589188Y-69173482D01*
X137625498Y-69293180D01*
X137684463Y-69403494D01*
X137763815Y-69500185D01*
X137860506Y-69579537D01*
X137970820Y-69638502D01*
X138043380Y-69660513D01*
X137911525Y-69792368D01*
X137749010Y-70035589D01*
X137637068Y-70305842D01*
X137580000Y-70592740D01*
X137580000Y-70885260D01*
X137637068Y-71172158D01*
X137749010Y-71442411D01*
X137911525Y-71685632D01*
X138118368Y-71892475D01*
X138361589Y-72054990D01*
X138631842Y-72166932D01*
X138918740Y-72224000D01*
X139211260Y-72224000D01*
X139498158Y-72166932D01*
X139768411Y-72054990D01*
X140011632Y-71892475D01*
X140218475Y-71685632D01*
X140259656Y-71624000D01*
X140410344Y-71624000D01*
X140451525Y-71685632D01*
X140658368Y-71892475D01*
X140901589Y-72054990D01*
X141171842Y-72166932D01*
X141458740Y-72224000D01*
X141751260Y-72224000D01*
X142020001Y-72170544D01*
X142020002Y-82925669D01*
X142016325Y-82963001D01*
X142020002Y-83000334D01*
X142030999Y-83111987D01*
X142035551Y-83126992D01*
X142074455Y-83255247D01*
X142145027Y-83387277D01*
X142201162Y-83455677D01*
X142240001Y-83503002D01*
X142268999Y-83526800D01*
X148445201Y-89703003D01*
X148468999Y-89732001D01*
X148584724Y-89826974D01*
X148716753Y-89897546D01*
X148860014Y-89941003D01*
X148971667Y-89952000D01*
X148971677Y-89952000D01*
X149009000Y-89955676D01*
X149046323Y-89952000D01*
X154455928Y-89952000D01*
X154455928Y-90267000D01*
X154468188Y-90391482D01*
X154468345Y-90392000D01*
X154468188Y-90392518D01*
X154455928Y-90517000D01*
X154455928Y-91067000D01*
X154468188Y-91191482D01*
X154468345Y-91192000D01*
X154468188Y-91192518D01*
X154455928Y-91317000D01*
X154455928Y-91696000D01*
X152722711Y-91696000D01*
X152678774Y-91652063D01*
X152509256Y-91538795D01*
X152320898Y-91460774D01*
X152120939Y-91421000D01*
X151917061Y-91421000D01*
X151717102Y-91460774D01*
X151528744Y-91538795D01*
X151359226Y-91652063D01*
X151215063Y-91796226D01*
X151101795Y-91965744D01*
X151023774Y-92154102D01*
X150984000Y-92354061D01*
X150984000Y-92557939D01*
X151023774Y-92757898D01*
X151101795Y-92946256D01*
X151215063Y-93115774D01*
X151359226Y-93259937D01*
X151528744Y-93373205D01*
X151717102Y-93451226D01*
X151917061Y-93491000D01*
X152120939Y-93491000D01*
X152320898Y-93451226D01*
X152509256Y-93373205D01*
X152678774Y-93259937D01*
X152722711Y-93216000D01*
X154774047Y-93216000D01*
X154849820Y-93256502D01*
X154969518Y-93292812D01*
X155094000Y-93305072D01*
X156594000Y-93305072D01*
X156634962Y-93301038D01*
X156630928Y-93342000D01*
X156630928Y-94842000D01*
X156643188Y-94966482D01*
X156679498Y-95086180D01*
X156738463Y-95196494D01*
X156784000Y-95251982D01*
X156784001Y-96776196D01*
X153163003Y-100397196D01*
X153133999Y-100420999D01*
X153078871Y-100488174D01*
X153039026Y-100536724D01*
X153027921Y-100557500D01*
X152968454Y-100668754D01*
X152924997Y-100812015D01*
X152914000Y-100923668D01*
X152914000Y-100923678D01*
X152910324Y-100961000D01*
X152914000Y-100998322D01*
X152914000Y-105016660D01*
X152890256Y-105000795D01*
X152701898Y-104922774D01*
X152501939Y-104883000D01*
X152298061Y-104883000D01*
X152098102Y-104922774D01*
X151909744Y-105000795D01*
X151740226Y-105114063D01*
X151596063Y-105258226D01*
X151482795Y-105427744D01*
X151404774Y-105616102D01*
X151365000Y-105816061D01*
X151365000Y-105878198D01*
X150622998Y-106620201D01*
X150594000Y-106643999D01*
X150570202Y-106672997D01*
X150570201Y-106672998D01*
X150499026Y-106759724D01*
X150428454Y-106891754D01*
X150415640Y-106934000D01*
X149354000Y-106934000D01*
X149354000Y-105601711D01*
X149393937Y-105561774D01*
X149507205Y-105392256D01*
X149585226Y-105203898D01*
X149625000Y-105003939D01*
X149625000Y-104800061D01*
X149585226Y-104600102D01*
X149507205Y-104411744D01*
X149393937Y-104242226D01*
X149249774Y-104098063D01*
X149080256Y-103984795D01*
X148891898Y-103906774D01*
X148691939Y-103867000D01*
X148488061Y-103867000D01*
X148288102Y-103906774D01*
X148099744Y-103984795D01*
X147930226Y-104098063D01*
X147786063Y-104242226D01*
X147672795Y-104411744D01*
X147594774Y-104600102D01*
X147555000Y-104800061D01*
X147555000Y-105003939D01*
X147594774Y-105203898D01*
X147672795Y-105392256D01*
X147786063Y-105561774D01*
X147834001Y-105609712D01*
X147834001Y-106934000D01*
X146814000Y-106934000D01*
X146814000Y-100648711D01*
X146853937Y-100608774D01*
X146967205Y-100439256D01*
X147045226Y-100250898D01*
X147085000Y-100050939D01*
X147085000Y-99847061D01*
X147045226Y-99647102D01*
X146967205Y-99458744D01*
X146853937Y-99289226D01*
X146709774Y-99145063D01*
X146540256Y-99031795D01*
X146351898Y-98953774D01*
X146151939Y-98914000D01*
X145948061Y-98914000D01*
X145748102Y-98953774D01*
X145559744Y-99031795D01*
X145390226Y-99145063D01*
X145246063Y-99289226D01*
X145132795Y-99458744D01*
X145054774Y-99647102D01*
X145015000Y-99847061D01*
X145015000Y-100050939D01*
X145054774Y-100250898D01*
X145132795Y-100439256D01*
X145246063Y-100608774D01*
X145294001Y-100656712D01*
X145294000Y-106934000D01*
X111224418Y-106934000D01*
X111224141Y-106933086D01*
X111202468Y-106861640D01*
X111202441Y-106861590D01*
X111202426Y-106861540D01*
X111171407Y-106803529D01*
X111136540Y-106738297D01*
X111136503Y-106738252D01*
X111136479Y-106738207D01*
X111094962Y-106687634D01*
X111047815Y-106630185D01*
X111047770Y-106630148D01*
X111047738Y-106630109D01*
X110997360Y-106588778D01*
X110939703Y-106541460D01*
X110939652Y-106541433D01*
X110939612Y-106541400D01*
X110882054Y-106510646D01*
X110816360Y-106475532D01*
X110816304Y-106475515D01*
X110816259Y-106475491D01*
X110752701Y-106456221D01*
X110682524Y-106434933D01*
X110682468Y-106434927D01*
X110682417Y-106434912D01*
X110615136Y-106428296D01*
X110543340Y-106421225D01*
X110508406Y-106424666D01*
X93857194Y-106427195D01*
X93541738Y-106396265D01*
X93271646Y-106314719D01*
X93022541Y-106182267D01*
X92803904Y-106003952D01*
X92624068Y-105786567D01*
X92489879Y-105538391D01*
X92406451Y-105268879D01*
X92373522Y-104955572D01*
X92375512Y-87972000D01*
X114970928Y-87972000D01*
X114983188Y-88096482D01*
X115019498Y-88216180D01*
X115078463Y-88326494D01*
X115157815Y-88423185D01*
X115254506Y-88502537D01*
X115364820Y-88561502D01*
X115484518Y-88597812D01*
X115609000Y-88610072D01*
X116173250Y-88607000D01*
X116332000Y-88448250D01*
X116332000Y-87249000D01*
X116586000Y-87249000D01*
X116586000Y-88448250D01*
X116744750Y-88607000D01*
X117309000Y-88610072D01*
X117433482Y-88597812D01*
X117553180Y-88561502D01*
X117663494Y-88502537D01*
X117760185Y-88423185D01*
X117839537Y-88326494D01*
X117898502Y-88216180D01*
X117934812Y-88096482D01*
X117947072Y-87972000D01*
X117944000Y-87407750D01*
X117785250Y-87249000D01*
X116586000Y-87249000D01*
X116332000Y-87249000D01*
X115132750Y-87249000D01*
X114974000Y-87407750D01*
X114970928Y-87972000D01*
X92375512Y-87972000D01*
X92376449Y-79971000D01*
X114970928Y-79971000D01*
X114983188Y-80095482D01*
X115019498Y-80215180D01*
X115078463Y-80325494D01*
X115157815Y-80422185D01*
X115254506Y-80501537D01*
X115364820Y-80560502D01*
X115484518Y-80596812D01*
X115609000Y-80609072D01*
X116173250Y-80606000D01*
X116332000Y-80447250D01*
X116332000Y-79248000D01*
X116586000Y-79248000D01*
X116586000Y-80447250D01*
X116744750Y-80606000D01*
X117309000Y-80609072D01*
X117433482Y-80596812D01*
X117553180Y-80560502D01*
X117663494Y-80501537D01*
X117760185Y-80422185D01*
X117839537Y-80325494D01*
X117898502Y-80215180D01*
X117934812Y-80095482D01*
X117947072Y-79971000D01*
X117944000Y-79406750D01*
X117785250Y-79248000D01*
X116586000Y-79248000D01*
X116332000Y-79248000D01*
X115132750Y-79248000D01*
X114974000Y-79406750D01*
X114970928Y-79971000D01*
X92376449Y-79971000D01*
X92377387Y-71970000D01*
X114970928Y-71970000D01*
X114983188Y-72094482D01*
X115019498Y-72214180D01*
X115078463Y-72324494D01*
X115157815Y-72421185D01*
X115254506Y-72500537D01*
X115364820Y-72559502D01*
X115484518Y-72595812D01*
X115609000Y-72608072D01*
X116173250Y-72605000D01*
X116332000Y-72446250D01*
X116332000Y-71247000D01*
X115132750Y-71247000D01*
X114974000Y-71405750D01*
X114970928Y-71970000D01*
X92377387Y-71970000D01*
X92378596Y-61662783D01*
X92409535Y-61347238D01*
X92491080Y-61077148D01*
X92623535Y-60828038D01*
X92801847Y-60609405D01*
X93019236Y-60429566D01*
X93267409Y-60295379D01*
X93536921Y-60211951D01*
X93850244Y-60179020D01*
X241486245Y-60184099D01*
G37*
G04 #@! TD.AperFunction*
D19*
X162204061Y-97555000D02*
X162384001Y-97555000D01*
X162384001Y-98520670D01*
X162380324Y-98558002D01*
X162384001Y-98595335D01*
X162394998Y-98706988D01*
X162408180Y-98750444D01*
X162438454Y-98850248D01*
X162509026Y-98982278D01*
X162562145Y-99047003D01*
X162604000Y-99098003D01*
X162632998Y-99121801D01*
X167019198Y-103508002D01*
X167042997Y-103537001D01*
X167158722Y-103631974D01*
X167290751Y-103702546D01*
X167434012Y-103746003D01*
X167545665Y-103757000D01*
X167545674Y-103757000D01*
X167582997Y-103760676D01*
X167620320Y-103757000D01*
X177866199Y-103757000D01*
X178314000Y-104204802D01*
X178314000Y-106934000D01*
X157478000Y-106934000D01*
X157478000Y-106748711D01*
X157521937Y-106704774D01*
X157635205Y-106535256D01*
X157713226Y-106346898D01*
X157753000Y-106146939D01*
X157753000Y-105943061D01*
X157713226Y-105743102D01*
X157635205Y-105554744D01*
X157521937Y-105385226D01*
X157377774Y-105241063D01*
X157208256Y-105127795D01*
X157019898Y-105049774D01*
X156819939Y-105010000D01*
X156616061Y-105010000D01*
X156416102Y-105049774D01*
X156227744Y-105127795D01*
X156058226Y-105241063D01*
X155914063Y-105385226D01*
X155800795Y-105554744D01*
X155722774Y-105743102D01*
X155683000Y-105943061D01*
X155683000Y-106146939D01*
X155722774Y-106346898D01*
X155800795Y-106535256D01*
X155914063Y-106704774D01*
X155958000Y-106748711D01*
X155958000Y-106934000D01*
X154434000Y-106934000D01*
X154434000Y-101275801D01*
X154487801Y-101222000D01*
X157128928Y-101222000D01*
X157141188Y-101346482D01*
X157177498Y-101466180D01*
X157236463Y-101576494D01*
X157315815Y-101673185D01*
X157412506Y-101752537D01*
X157522820Y-101811502D01*
X157642518Y-101847812D01*
X157767000Y-101860072D01*
X157956250Y-101857000D01*
X158115000Y-101698250D01*
X158115000Y-100811500D01*
X158369000Y-100811500D01*
X158369000Y-101698250D01*
X158527750Y-101857000D01*
X158717000Y-101860072D01*
X158841482Y-101847812D01*
X158961180Y-101811502D01*
X159071494Y-101752537D01*
X159168185Y-101673185D01*
X159247537Y-101576494D01*
X159306502Y-101466180D01*
X159342812Y-101346482D01*
X159355072Y-101222000D01*
X159352000Y-100970250D01*
X159193250Y-100811500D01*
X158369000Y-100811500D01*
X158115000Y-100811500D01*
X157290750Y-100811500D01*
X157132000Y-100970250D01*
X157128928Y-101222000D01*
X154487801Y-101222000D01*
X157137518Y-98572284D01*
X157128928Y-98659500D01*
X157128928Y-99259500D01*
X157145752Y-99430316D01*
X157195577Y-99594567D01*
X157275774Y-99744606D01*
X157236463Y-99792506D01*
X157177498Y-99902820D01*
X157141188Y-100022518D01*
X157128928Y-100147000D01*
X157132000Y-100398750D01*
X157290750Y-100557500D01*
X158115000Y-100557500D01*
X158115000Y-100537500D01*
X158369000Y-100537500D01*
X158369000Y-100557500D01*
X159193250Y-100557500D01*
X159352000Y-100398750D01*
X159355072Y-100147000D01*
X159342812Y-100022518D01*
X159306502Y-99902820D01*
X159247537Y-99792506D01*
X159208226Y-99744606D01*
X159288423Y-99594567D01*
X159338248Y-99430316D01*
X159355072Y-99259500D01*
X159355072Y-98659500D01*
X159338248Y-98488684D01*
X159288423Y-98324433D01*
X159212183Y-98181796D01*
X159370898Y-98150226D01*
X159559256Y-98072205D01*
X159728774Y-97958937D01*
X159862000Y-97825711D01*
X159995226Y-97958937D01*
X160164744Y-98072205D01*
X160353102Y-98150226D01*
X160553061Y-98190000D01*
X160657000Y-98190000D01*
X160657000Y-99372289D01*
X160613063Y-99416226D01*
X160499795Y-99585744D01*
X160421774Y-99774102D01*
X160382000Y-99974061D01*
X160382000Y-100177939D01*
X160421774Y-100377898D01*
X160499795Y-100566256D01*
X160613063Y-100735774D01*
X160757226Y-100879937D01*
X160926744Y-100993205D01*
X161115102Y-101071226D01*
X161315061Y-101111000D01*
X161518939Y-101111000D01*
X161718898Y-101071226D01*
X161907256Y-100993205D01*
X162076774Y-100879937D01*
X162220937Y-100735774D01*
X162334205Y-100566256D01*
X162412226Y-100377898D01*
X162452000Y-100177939D01*
X162452000Y-99974061D01*
X162412226Y-99774102D01*
X162334205Y-99585744D01*
X162220937Y-99416226D01*
X162177000Y-99372289D01*
X162177000Y-97549617D01*
X162204061Y-97555000D01*
G04 #@! TA.AperFunction,Conductor*
D20*
G36*
X162204061Y-97555000D02*
G01*
X162384001Y-97555000D01*
X162384001Y-98520670D01*
X162380324Y-98558002D01*
X162384001Y-98595335D01*
X162394998Y-98706988D01*
X162408180Y-98750444D01*
X162438454Y-98850248D01*
X162509026Y-98982278D01*
X162562145Y-99047003D01*
X162604000Y-99098003D01*
X162632998Y-99121801D01*
X167019198Y-103508002D01*
X167042997Y-103537001D01*
X167158722Y-103631974D01*
X167290751Y-103702546D01*
X167434012Y-103746003D01*
X167545665Y-103757000D01*
X167545674Y-103757000D01*
X167582997Y-103760676D01*
X167620320Y-103757000D01*
X177866199Y-103757000D01*
X178314000Y-104204802D01*
X178314000Y-106934000D01*
X157478000Y-106934000D01*
X157478000Y-106748711D01*
X157521937Y-106704774D01*
X157635205Y-106535256D01*
X157713226Y-106346898D01*
X157753000Y-106146939D01*
X157753000Y-105943061D01*
X157713226Y-105743102D01*
X157635205Y-105554744D01*
X157521937Y-105385226D01*
X157377774Y-105241063D01*
X157208256Y-105127795D01*
X157019898Y-105049774D01*
X156819939Y-105010000D01*
X156616061Y-105010000D01*
X156416102Y-105049774D01*
X156227744Y-105127795D01*
X156058226Y-105241063D01*
X155914063Y-105385226D01*
X155800795Y-105554744D01*
X155722774Y-105743102D01*
X155683000Y-105943061D01*
X155683000Y-106146939D01*
X155722774Y-106346898D01*
X155800795Y-106535256D01*
X155914063Y-106704774D01*
X155958000Y-106748711D01*
X155958000Y-106934000D01*
X154434000Y-106934000D01*
X154434000Y-101275801D01*
X154487801Y-101222000D01*
X157128928Y-101222000D01*
X157141188Y-101346482D01*
X157177498Y-101466180D01*
X157236463Y-101576494D01*
X157315815Y-101673185D01*
X157412506Y-101752537D01*
X157522820Y-101811502D01*
X157642518Y-101847812D01*
X157767000Y-101860072D01*
X157956250Y-101857000D01*
X158115000Y-101698250D01*
X158115000Y-100811500D01*
X158369000Y-100811500D01*
X158369000Y-101698250D01*
X158527750Y-101857000D01*
X158717000Y-101860072D01*
X158841482Y-101847812D01*
X158961180Y-101811502D01*
X159071494Y-101752537D01*
X159168185Y-101673185D01*
X159247537Y-101576494D01*
X159306502Y-101466180D01*
X159342812Y-101346482D01*
X159355072Y-101222000D01*
X159352000Y-100970250D01*
X159193250Y-100811500D01*
X158369000Y-100811500D01*
X158115000Y-100811500D01*
X157290750Y-100811500D01*
X157132000Y-100970250D01*
X157128928Y-101222000D01*
X154487801Y-101222000D01*
X157137518Y-98572284D01*
X157128928Y-98659500D01*
X157128928Y-99259500D01*
X157145752Y-99430316D01*
X157195577Y-99594567D01*
X157275774Y-99744606D01*
X157236463Y-99792506D01*
X157177498Y-99902820D01*
X157141188Y-100022518D01*
X157128928Y-100147000D01*
X157132000Y-100398750D01*
X157290750Y-100557500D01*
X158115000Y-100557500D01*
X158115000Y-100537500D01*
X158369000Y-100537500D01*
X158369000Y-100557500D01*
X159193250Y-100557500D01*
X159352000Y-100398750D01*
X159355072Y-100147000D01*
X159342812Y-100022518D01*
X159306502Y-99902820D01*
X159247537Y-99792506D01*
X159208226Y-99744606D01*
X159288423Y-99594567D01*
X159338248Y-99430316D01*
X159355072Y-99259500D01*
X159355072Y-98659500D01*
X159338248Y-98488684D01*
X159288423Y-98324433D01*
X159212183Y-98181796D01*
X159370898Y-98150226D01*
X159559256Y-98072205D01*
X159728774Y-97958937D01*
X159862000Y-97825711D01*
X159995226Y-97958937D01*
X160164744Y-98072205D01*
X160353102Y-98150226D01*
X160553061Y-98190000D01*
X160657000Y-98190000D01*
X160657000Y-99372289D01*
X160613063Y-99416226D01*
X160499795Y-99585744D01*
X160421774Y-99774102D01*
X160382000Y-99974061D01*
X160382000Y-100177939D01*
X160421774Y-100377898D01*
X160499795Y-100566256D01*
X160613063Y-100735774D01*
X160757226Y-100879937D01*
X160926744Y-100993205D01*
X161115102Y-101071226D01*
X161315061Y-101111000D01*
X161518939Y-101111000D01*
X161718898Y-101071226D01*
X161907256Y-100993205D01*
X162076774Y-100879937D01*
X162220937Y-100735774D01*
X162334205Y-100566256D01*
X162412226Y-100377898D01*
X162452000Y-100177939D01*
X162452000Y-99974061D01*
X162412226Y-99774102D01*
X162334205Y-99585744D01*
X162220937Y-99416226D01*
X162177000Y-99372289D01*
X162177000Y-97549617D01*
X162204061Y-97555000D01*
G37*
G04 #@! TD.AperFunction*
D19*
X161121063Y-92353774D02*
X161265226Y-92497937D01*
X161434744Y-92611205D01*
X161623102Y-92689226D01*
X161697015Y-92703928D01*
X161269000Y-92703928D01*
X161144518Y-92716188D01*
X161144000Y-92716345D01*
X161143482Y-92716188D01*
X161019000Y-92703928D01*
X160469000Y-92703928D01*
X160344518Y-92716188D01*
X160344000Y-92716345D01*
X160343482Y-92716188D01*
X160219000Y-92703928D01*
X159669000Y-92703928D01*
X159544518Y-92716188D01*
X159544000Y-92716345D01*
X159543482Y-92716188D01*
X159419000Y-92703928D01*
X159229000Y-92703928D01*
X159229000Y-92650757D01*
X159237226Y-92630898D01*
X159277000Y-92430939D01*
X159277000Y-92352000D01*
X161119878Y-92352000D01*
X161121063Y-92353774D01*
G04 #@! TA.AperFunction,Conductor*
D20*
G36*
X161121063Y-92353774D02*
G01*
X161265226Y-92497937D01*
X161434744Y-92611205D01*
X161623102Y-92689226D01*
X161697015Y-92703928D01*
X161269000Y-92703928D01*
X161144518Y-92716188D01*
X161144000Y-92716345D01*
X161143482Y-92716188D01*
X161019000Y-92703928D01*
X160469000Y-92703928D01*
X160344518Y-92716188D01*
X160344000Y-92716345D01*
X160343482Y-92716188D01*
X160219000Y-92703928D01*
X159669000Y-92703928D01*
X159544518Y-92716188D01*
X159544000Y-92716345D01*
X159543482Y-92716188D01*
X159419000Y-92703928D01*
X159229000Y-92703928D01*
X159229000Y-92650757D01*
X159237226Y-92630898D01*
X159277000Y-92430939D01*
X159277000Y-92352000D01*
X161119878Y-92352000D01*
X161121063Y-92353774D01*
G37*
G04 #@! TD.AperFunction*
D19*
X165859000Y-90119002D02*
X165999166Y-90119002D01*
X165963463Y-90162506D01*
X165951083Y-90185667D01*
X165859000Y-90277750D01*
X165868546Y-90391337D01*
X165868188Y-90392518D01*
X165855928Y-90517000D01*
X165855928Y-91067000D01*
X165868188Y-91191482D01*
X165868345Y-91192000D01*
X165868188Y-91192518D01*
X165855928Y-91317000D01*
X165855928Y-91867000D01*
X165868188Y-91991482D01*
X165868345Y-91992000D01*
X165868188Y-91992518D01*
X165855928Y-92117000D01*
X165855928Y-92667000D01*
X165859962Y-92707962D01*
X165819000Y-92703928D01*
X165269000Y-92703928D01*
X165144518Y-92716188D01*
X165144000Y-92716345D01*
X165143482Y-92716188D01*
X165019000Y-92703928D01*
X164469000Y-92703928D01*
X164344518Y-92716188D01*
X164344000Y-92716345D01*
X164343482Y-92716188D01*
X164219000Y-92703928D01*
X163669000Y-92703928D01*
X163544518Y-92716188D01*
X163544000Y-92716345D01*
X163543482Y-92716188D01*
X163419000Y-92703928D01*
X162869000Y-92703928D01*
X162744518Y-92716188D01*
X162744000Y-92716345D01*
X162743482Y-92716188D01*
X162619000Y-92703928D01*
X162152985Y-92703928D01*
X162226898Y-92689226D01*
X162415256Y-92611205D01*
X162584774Y-92497937D01*
X162728937Y-92353774D01*
X162842205Y-92184256D01*
X162852561Y-92159256D01*
X162958744Y-92230205D01*
X163147102Y-92308226D01*
X163347061Y-92348000D01*
X163550939Y-92348000D01*
X163750898Y-92308226D01*
X163939256Y-92230205D01*
X164108774Y-92116937D01*
X164252937Y-91972774D01*
X164366205Y-91803256D01*
X164444226Y-91614898D01*
X164484000Y-91414939D01*
X164484000Y-91211061D01*
X164444226Y-91011102D01*
X164366205Y-90822744D01*
X164252937Y-90653226D01*
X164108774Y-90509063D01*
X164076503Y-90487500D01*
X164108774Y-90465937D01*
X164252937Y-90321774D01*
X164366205Y-90152256D01*
X164370405Y-90142116D01*
X164440226Y-90211937D01*
X164609744Y-90325205D01*
X164798102Y-90403226D01*
X164998061Y-90443000D01*
X165201939Y-90443000D01*
X165401898Y-90403226D01*
X165590256Y-90325205D01*
X165759774Y-90211937D01*
X165859000Y-90112711D01*
X165859000Y-90119002D01*
G04 #@! TA.AperFunction,Conductor*
D20*
G36*
X165859000Y-90119002D02*
G01*
X165999166Y-90119002D01*
X165963463Y-90162506D01*
X165951083Y-90185667D01*
X165859000Y-90277750D01*
X165868546Y-90391337D01*
X165868188Y-90392518D01*
X165855928Y-90517000D01*
X165855928Y-91067000D01*
X165868188Y-91191482D01*
X165868345Y-91192000D01*
X165868188Y-91192518D01*
X165855928Y-91317000D01*
X165855928Y-91867000D01*
X165868188Y-91991482D01*
X165868345Y-91992000D01*
X165868188Y-91992518D01*
X165855928Y-92117000D01*
X165855928Y-92667000D01*
X165859962Y-92707962D01*
X165819000Y-92703928D01*
X165269000Y-92703928D01*
X165144518Y-92716188D01*
X165144000Y-92716345D01*
X165143482Y-92716188D01*
X165019000Y-92703928D01*
X164469000Y-92703928D01*
X164344518Y-92716188D01*
X164344000Y-92716345D01*
X164343482Y-92716188D01*
X164219000Y-92703928D01*
X163669000Y-92703928D01*
X163544518Y-92716188D01*
X163544000Y-92716345D01*
X163543482Y-92716188D01*
X163419000Y-92703928D01*
X162869000Y-92703928D01*
X162744518Y-92716188D01*
X162744000Y-92716345D01*
X162743482Y-92716188D01*
X162619000Y-92703928D01*
X162152985Y-92703928D01*
X162226898Y-92689226D01*
X162415256Y-92611205D01*
X162584774Y-92497937D01*
X162728937Y-92353774D01*
X162842205Y-92184256D01*
X162852561Y-92159256D01*
X162958744Y-92230205D01*
X163147102Y-92308226D01*
X163347061Y-92348000D01*
X163550939Y-92348000D01*
X163750898Y-92308226D01*
X163939256Y-92230205D01*
X164108774Y-92116937D01*
X164252937Y-91972774D01*
X164366205Y-91803256D01*
X164444226Y-91614898D01*
X164484000Y-91414939D01*
X164484000Y-91211061D01*
X164444226Y-91011102D01*
X164366205Y-90822744D01*
X164252937Y-90653226D01*
X164108774Y-90509063D01*
X164076503Y-90487500D01*
X164108774Y-90465937D01*
X164252937Y-90321774D01*
X164366205Y-90152256D01*
X164370405Y-90142116D01*
X164440226Y-90211937D01*
X164609744Y-90325205D01*
X164798102Y-90403226D01*
X164998061Y-90443000D01*
X165201939Y-90443000D01*
X165401898Y-90403226D01*
X165590256Y-90325205D01*
X165759774Y-90211937D01*
X165859000Y-90112711D01*
X165859000Y-90119002D01*
G37*
G04 #@! TD.AperFunction*
D19*
X173097377Y-88359623D02*
X173230058Y-88468512D01*
X173381433Y-88549423D01*
X173545684Y-88599248D01*
X173716500Y-88616072D01*
X174216500Y-88616072D01*
X174387316Y-88599248D01*
X174551567Y-88549423D01*
X174702942Y-88468512D01*
X174811783Y-88379188D01*
X174852815Y-88429185D01*
X174949506Y-88508537D01*
X175059820Y-88567502D01*
X175077374Y-88572827D01*
X172815956Y-90834245D01*
X172744774Y-90763063D01*
X172575256Y-90649795D01*
X172386898Y-90571774D01*
X172186939Y-90532000D01*
X171983061Y-90532000D01*
X171822333Y-90563970D01*
X171810226Y-90503102D01*
X171732205Y-90314744D01*
X171618937Y-90145226D01*
X171474774Y-90001063D01*
X171442503Y-89979500D01*
X171474774Y-89957937D01*
X171618937Y-89813774D01*
X171732205Y-89644256D01*
X171810226Y-89455898D01*
X171850000Y-89255939D01*
X171850000Y-89052061D01*
X171810226Y-88852102D01*
X171732205Y-88663744D01*
X171618937Y-88494226D01*
X171474774Y-88350063D01*
X171344475Y-88263000D01*
X173018080Y-88263000D01*
X173097377Y-88359623D01*
G04 #@! TA.AperFunction,Conductor*
D20*
G36*
X173097377Y-88359623D02*
G01*
X173230058Y-88468512D01*
X173381433Y-88549423D01*
X173545684Y-88599248D01*
X173716500Y-88616072D01*
X174216500Y-88616072D01*
X174387316Y-88599248D01*
X174551567Y-88549423D01*
X174702942Y-88468512D01*
X174811783Y-88379188D01*
X174852815Y-88429185D01*
X174949506Y-88508537D01*
X175059820Y-88567502D01*
X175077374Y-88572827D01*
X172815956Y-90834245D01*
X172744774Y-90763063D01*
X172575256Y-90649795D01*
X172386898Y-90571774D01*
X172186939Y-90532000D01*
X171983061Y-90532000D01*
X171822333Y-90563970D01*
X171810226Y-90503102D01*
X171732205Y-90314744D01*
X171618937Y-90145226D01*
X171474774Y-90001063D01*
X171442503Y-89979500D01*
X171474774Y-89957937D01*
X171618937Y-89813774D01*
X171732205Y-89644256D01*
X171810226Y-89455898D01*
X171850000Y-89255939D01*
X171850000Y-89052061D01*
X171810226Y-88852102D01*
X171732205Y-88663744D01*
X171618937Y-88494226D01*
X171474774Y-88350063D01*
X171344475Y-88263000D01*
X173018080Y-88263000D01*
X173097377Y-88359623D01*
G37*
G04 #@! TD.AperFunction*
D19*
X160001000Y-88558802D02*
X160001000Y-88620939D01*
X160040774Y-88820898D01*
X160118795Y-89009256D01*
X160232063Y-89178774D01*
X160285289Y-89232000D01*
X157232072Y-89232000D01*
X157232072Y-88917000D01*
X157219812Y-88792518D01*
X157219655Y-88792000D01*
X157219812Y-88791482D01*
X157232072Y-88667000D01*
X157232072Y-88298555D01*
X157311063Y-88416774D01*
X157455226Y-88560937D01*
X157624744Y-88674205D01*
X157813102Y-88752226D01*
X158013061Y-88792000D01*
X158216939Y-88792000D01*
X158416898Y-88752226D01*
X158605256Y-88674205D01*
X158774774Y-88560937D01*
X158918937Y-88416774D01*
X159032205Y-88247256D01*
X159110226Y-88058898D01*
X159150000Y-87858939D01*
X159150000Y-87707801D01*
X160001000Y-88558802D01*
G04 #@! TA.AperFunction,Conductor*
D20*
G36*
X160001000Y-88558802D02*
G01*
X160001000Y-88620939D01*
X160040774Y-88820898D01*
X160118795Y-89009256D01*
X160232063Y-89178774D01*
X160285289Y-89232000D01*
X157232072Y-89232000D01*
X157232072Y-88917000D01*
X157219812Y-88792518D01*
X157219655Y-88792000D01*
X157219812Y-88791482D01*
X157232072Y-88667000D01*
X157232072Y-88298555D01*
X157311063Y-88416774D01*
X157455226Y-88560937D01*
X157624744Y-88674205D01*
X157813102Y-88752226D01*
X158013061Y-88792000D01*
X158216939Y-88792000D01*
X158416898Y-88752226D01*
X158605256Y-88674205D01*
X158774774Y-88560937D01*
X158918937Y-88416774D01*
X159032205Y-88247256D01*
X159110226Y-88058898D01*
X159150000Y-87858939D01*
X159150000Y-87707801D01*
X160001000Y-88558802D01*
G37*
G04 #@! TD.AperFunction*
D19*
X159544518Y-84067812D02*
X159669000Y-84080072D01*
X159984001Y-84080072D01*
X159984001Y-85014668D01*
X159980324Y-85052000D01*
X159984001Y-85089333D01*
X159994998Y-85200986D01*
X159998252Y-85211713D01*
X160038454Y-85344246D01*
X160109026Y-85476276D01*
X160176917Y-85559000D01*
X160204000Y-85592001D01*
X160232998Y-85615799D01*
X163261264Y-88644066D01*
X163147102Y-88666774D01*
X162958744Y-88744795D01*
X162789226Y-88858063D01*
X162645063Y-89002226D01*
X162531795Y-89171744D01*
X162506836Y-89232000D01*
X161786711Y-89232000D01*
X161839937Y-89178774D01*
X161953205Y-89009256D01*
X162031226Y-88820898D01*
X162071000Y-88620939D01*
X162071000Y-88417061D01*
X162031226Y-88217102D01*
X161953205Y-88028744D01*
X161839937Y-87859226D01*
X161695774Y-87715063D01*
X161526256Y-87601795D01*
X161337898Y-87523774D01*
X161137939Y-87484000D01*
X161075802Y-87484000D01*
X159104000Y-85512199D01*
X159104000Y-84080072D01*
X159419000Y-84080072D01*
X159543482Y-84067812D01*
X159544000Y-84067655D01*
X159544518Y-84067812D01*
G04 #@! TA.AperFunction,Conductor*
D20*
G36*
X159544518Y-84067812D02*
G01*
X159669000Y-84080072D01*
X159984001Y-84080072D01*
X159984001Y-85014668D01*
X159980324Y-85052000D01*
X159984001Y-85089333D01*
X159994998Y-85200986D01*
X159998252Y-85211713D01*
X160038454Y-85344246D01*
X160109026Y-85476276D01*
X160176917Y-85559000D01*
X160204000Y-85592001D01*
X160232998Y-85615799D01*
X163261264Y-88644066D01*
X163147102Y-88666774D01*
X162958744Y-88744795D01*
X162789226Y-88858063D01*
X162645063Y-89002226D01*
X162531795Y-89171744D01*
X162506836Y-89232000D01*
X161786711Y-89232000D01*
X161839937Y-89178774D01*
X161953205Y-89009256D01*
X162031226Y-88820898D01*
X162071000Y-88620939D01*
X162071000Y-88417061D01*
X162031226Y-88217102D01*
X161953205Y-88028744D01*
X161839937Y-87859226D01*
X161695774Y-87715063D01*
X161526256Y-87601795D01*
X161337898Y-87523774D01*
X161137939Y-87484000D01*
X161075802Y-87484000D01*
X159104000Y-85512199D01*
X159104000Y-84080072D01*
X159419000Y-84080072D01*
X159543482Y-84067812D01*
X159544000Y-84067655D01*
X159544518Y-84067812D01*
G37*
G04 #@! TD.AperFunction*
D19*
X177103000Y-86547200D02*
X176867763Y-86782437D01*
X176809537Y-86673506D01*
X176730185Y-86576815D01*
X176633494Y-86497463D01*
X176523180Y-86438498D01*
X176403482Y-86402188D01*
X176279000Y-86389928D01*
X176077250Y-86393000D01*
X175918500Y-86551750D01*
X175918500Y-87376000D01*
X175938500Y-87376000D01*
X175938500Y-87630000D01*
X175918500Y-87630000D01*
X175918500Y-87650000D01*
X175664500Y-87650000D01*
X175664500Y-87630000D01*
X175644500Y-87630000D01*
X175644500Y-87376000D01*
X175664500Y-87376000D01*
X175664500Y-86551750D01*
X175505750Y-86393000D01*
X175304000Y-86389928D01*
X175179518Y-86402188D01*
X175059820Y-86438498D01*
X174949506Y-86497463D01*
X174852815Y-86576815D01*
X174811783Y-86626812D01*
X174702942Y-86537488D01*
X174551567Y-86456577D01*
X174387316Y-86406752D01*
X174216500Y-86389928D01*
X173928230Y-86389928D01*
X173019304Y-85481003D01*
X172995501Y-85451999D01*
X172879776Y-85357026D01*
X172747747Y-85286454D01*
X172604486Y-85242997D01*
X172492833Y-85232000D01*
X172492822Y-85232000D01*
X172455500Y-85228324D01*
X172418178Y-85232000D01*
X171658711Y-85232000D01*
X171614774Y-85188063D01*
X171560802Y-85152000D01*
X177103001Y-85152000D01*
X177103000Y-86547200D01*
G04 #@! TA.AperFunction,Conductor*
D20*
G36*
X177103000Y-86547200D02*
G01*
X176867763Y-86782437D01*
X176809537Y-86673506D01*
X176730185Y-86576815D01*
X176633494Y-86497463D01*
X176523180Y-86438498D01*
X176403482Y-86402188D01*
X176279000Y-86389928D01*
X176077250Y-86393000D01*
X175918500Y-86551750D01*
X175918500Y-87376000D01*
X175938500Y-87376000D01*
X175938500Y-87630000D01*
X175918500Y-87630000D01*
X175918500Y-87650000D01*
X175664500Y-87650000D01*
X175664500Y-87630000D01*
X175644500Y-87630000D01*
X175644500Y-87376000D01*
X175664500Y-87376000D01*
X175664500Y-86551750D01*
X175505750Y-86393000D01*
X175304000Y-86389928D01*
X175179518Y-86402188D01*
X175059820Y-86438498D01*
X174949506Y-86497463D01*
X174852815Y-86576815D01*
X174811783Y-86626812D01*
X174702942Y-86537488D01*
X174551567Y-86456577D01*
X174387316Y-86406752D01*
X174216500Y-86389928D01*
X173928230Y-86389928D01*
X173019304Y-85481003D01*
X172995501Y-85451999D01*
X172879776Y-85357026D01*
X172747747Y-85286454D01*
X172604486Y-85242997D01*
X172492833Y-85232000D01*
X172492822Y-85232000D01*
X172455500Y-85228324D01*
X172418178Y-85232000D01*
X171658711Y-85232000D01*
X171614774Y-85188063D01*
X171560802Y-85152000D01*
X177103001Y-85152000D01*
X177103000Y-86547200D01*
G37*
G04 #@! TD.AperFunction*
D19*
X146251842Y-72166932D02*
X146538740Y-72224000D01*
X146831260Y-72224000D01*
X147100001Y-72170544D01*
X147100002Y-83851179D01*
X147096325Y-83888511D01*
X147110999Y-84037496D01*
X147154455Y-84180757D01*
X147225027Y-84312787D01*
X147266402Y-84363202D01*
X147320001Y-84428512D01*
X147348999Y-84452310D01*
X150401688Y-87505000D01*
X149757292Y-87505000D01*
X146080001Y-83827710D01*
X146080001Y-72095753D01*
X146251842Y-72166932D01*
G04 #@! TA.AperFunction,Conductor*
D20*
G36*
X146251842Y-72166932D02*
G01*
X146538740Y-72224000D01*
X146831260Y-72224000D01*
X147100001Y-72170544D01*
X147100002Y-83851179D01*
X147096325Y-83888511D01*
X147110999Y-84037496D01*
X147154455Y-84180757D01*
X147225027Y-84312787D01*
X147266402Y-84363202D01*
X147320001Y-84428512D01*
X147348999Y-84452310D01*
X150401688Y-87505000D01*
X149757292Y-87505000D01*
X146080001Y-83827710D01*
X146080001Y-72095753D01*
X146251842Y-72166932D01*
G37*
G04 #@! TD.AperFunction*
D19*
X161617815Y-83893185D02*
X161714506Y-83972537D01*
X161737667Y-83984917D01*
X161829750Y-84077000D01*
X161943337Y-84067454D01*
X161944518Y-84067812D01*
X162062173Y-84079400D01*
X162033000Y-84226061D01*
X162033000Y-84429939D01*
X162072774Y-84629898D01*
X162150795Y-84818256D01*
X162264063Y-84987774D01*
X162408226Y-85131937D01*
X162577744Y-85245205D01*
X162766102Y-85323226D01*
X162966061Y-85363000D01*
X163169939Y-85363000D01*
X163369898Y-85323226D01*
X163558256Y-85245205D01*
X163727774Y-85131937D01*
X163871937Y-84987774D01*
X163985205Y-84818256D01*
X164063226Y-84629898D01*
X164103000Y-84429939D01*
X164103000Y-84226061D01*
X164073961Y-84080072D01*
X164219000Y-84080072D01*
X164343482Y-84067812D01*
X164344000Y-84067655D01*
X164344518Y-84067812D01*
X164469000Y-84080072D01*
X165019000Y-84080072D01*
X165143482Y-84067812D01*
X165144000Y-84067655D01*
X165144518Y-84067812D01*
X165269000Y-84080072D01*
X165408999Y-84080072D01*
X165408999Y-84432000D01*
X165232320Y-84432000D01*
X165194997Y-84428324D01*
X165157674Y-84432000D01*
X165157665Y-84432000D01*
X165046012Y-84442997D01*
X164947948Y-84472744D01*
X164902751Y-84486454D01*
X164770721Y-84557026D01*
X164715933Y-84601990D01*
X164654997Y-84651999D01*
X164631199Y-84680997D01*
X163483002Y-85829195D01*
X163453998Y-85852998D01*
X163409680Y-85907000D01*
X163359025Y-85968723D01*
X163296096Y-86086454D01*
X163288453Y-86100753D01*
X163244996Y-86244014D01*
X163233999Y-86355667D01*
X163233999Y-86355677D01*
X163230323Y-86392999D01*
X163233999Y-86430321D01*
X163233999Y-86467198D01*
X161504000Y-84737199D01*
X161504000Y-83851981D01*
X161544000Y-83803241D01*
X161617815Y-83893185D01*
G04 #@! TA.AperFunction,Conductor*
D20*
G36*
X161617815Y-83893185D02*
G01*
X161714506Y-83972537D01*
X161737667Y-83984917D01*
X161829750Y-84077000D01*
X161943337Y-84067454D01*
X161944518Y-84067812D01*
X162062173Y-84079400D01*
X162033000Y-84226061D01*
X162033000Y-84429939D01*
X162072774Y-84629898D01*
X162150795Y-84818256D01*
X162264063Y-84987774D01*
X162408226Y-85131937D01*
X162577744Y-85245205D01*
X162766102Y-85323226D01*
X162966061Y-85363000D01*
X163169939Y-85363000D01*
X163369898Y-85323226D01*
X163558256Y-85245205D01*
X163727774Y-85131937D01*
X163871937Y-84987774D01*
X163985205Y-84818256D01*
X164063226Y-84629898D01*
X164103000Y-84429939D01*
X164103000Y-84226061D01*
X164073961Y-84080072D01*
X164219000Y-84080072D01*
X164343482Y-84067812D01*
X164344000Y-84067655D01*
X164344518Y-84067812D01*
X164469000Y-84080072D01*
X165019000Y-84080072D01*
X165143482Y-84067812D01*
X165144000Y-84067655D01*
X165144518Y-84067812D01*
X165269000Y-84080072D01*
X165408999Y-84080072D01*
X165408999Y-84432000D01*
X165232320Y-84432000D01*
X165194997Y-84428324D01*
X165157674Y-84432000D01*
X165157665Y-84432000D01*
X165046012Y-84442997D01*
X164947948Y-84472744D01*
X164902751Y-84486454D01*
X164770721Y-84557026D01*
X164715933Y-84601990D01*
X164654997Y-84651999D01*
X164631199Y-84680997D01*
X163483002Y-85829195D01*
X163453998Y-85852998D01*
X163409680Y-85907000D01*
X163359025Y-85968723D01*
X163296096Y-86086454D01*
X163288453Y-86100753D01*
X163244996Y-86244014D01*
X163233999Y-86355667D01*
X163233999Y-86355677D01*
X163230323Y-86392999D01*
X163233999Y-86430321D01*
X163233999Y-86467198D01*
X161504000Y-84737199D01*
X161504000Y-83851981D01*
X161544000Y-83803241D01*
X161617815Y-83893185D01*
G37*
G04 #@! TD.AperFunction*
D19*
X157613237Y-86036115D02*
X157541929Y-85998000D01*
X157581939Y-85998000D01*
X157600553Y-85994298D01*
X157613237Y-86036115D01*
G04 #@! TA.AperFunction,Conductor*
D20*
G36*
X157613237Y-86036115D02*
G01*
X157541929Y-85998000D01*
X157581939Y-85998000D01*
X157600553Y-85994298D01*
X157613237Y-86036115D01*
G37*
G04 #@! TD.AperFunction*
D19*
X154460120Y-85692924D02*
X154459000Y-85706250D01*
X154551083Y-85798333D01*
X154563463Y-85821494D01*
X154642815Y-85918185D01*
X154732759Y-85992000D01*
X154684019Y-86032000D01*
X152962559Y-86032000D01*
X152938423Y-85952433D01*
X152858226Y-85802394D01*
X152897537Y-85754494D01*
X152956502Y-85644180D01*
X152973614Y-85587769D01*
X153044090Y-85634859D01*
X153232448Y-85712880D01*
X153432407Y-85752654D01*
X153636285Y-85752654D01*
X153836244Y-85712880D01*
X154024602Y-85634859D01*
X154194120Y-85521591D01*
X154241454Y-85474257D01*
X154460120Y-85692924D01*
G04 #@! TA.AperFunction,Conductor*
D20*
G36*
X154460120Y-85692924D02*
G01*
X154459000Y-85706250D01*
X154551083Y-85798333D01*
X154563463Y-85821494D01*
X154642815Y-85918185D01*
X154732759Y-85992000D01*
X154684019Y-86032000D01*
X152962559Y-86032000D01*
X152938423Y-85952433D01*
X152858226Y-85802394D01*
X152897537Y-85754494D01*
X152956502Y-85644180D01*
X152973614Y-85587769D01*
X153044090Y-85634859D01*
X153232448Y-85712880D01*
X153432407Y-85752654D01*
X153636285Y-85752654D01*
X153836244Y-85712880D01*
X154024602Y-85634859D01*
X154194120Y-85521591D01*
X154241454Y-85474257D01*
X154460120Y-85692924D01*
G37*
G04 #@! TD.AperFunction*
D19*
X186171525Y-71685632D02*
X186378368Y-71892475D01*
X186565000Y-72017179D01*
X186565001Y-78044197D01*
X178623000Y-85986198D01*
X178623000Y-84706801D01*
X185296004Y-78033798D01*
X185325001Y-78010001D01*
X185419974Y-77894276D01*
X185490546Y-77762247D01*
X185534003Y-77618986D01*
X185545000Y-77507333D01*
X185545000Y-77507324D01*
X185548676Y-77470001D01*
X185545000Y-77432678D01*
X185545000Y-72017178D01*
X185731632Y-71892475D01*
X185938475Y-71685632D01*
X186055000Y-71511240D01*
X186171525Y-71685632D01*
G04 #@! TA.AperFunction,Conductor*
D20*
G36*
X186171525Y-71685632D02*
G01*
X186378368Y-71892475D01*
X186565000Y-72017179D01*
X186565001Y-78044197D01*
X178623000Y-85986198D01*
X178623000Y-84706801D01*
X185296004Y-78033798D01*
X185325001Y-78010001D01*
X185419974Y-77894276D01*
X185490546Y-77762247D01*
X185534003Y-77618986D01*
X185545000Y-77507333D01*
X185545000Y-77507324D01*
X185548676Y-77470001D01*
X185545000Y-77432678D01*
X185545000Y-72017178D01*
X185731632Y-71892475D01*
X185938475Y-71685632D01*
X186055000Y-71511240D01*
X186171525Y-71685632D01*
G37*
G04 #@! TD.AperFunction*
D19*
X152019000Y-84735500D02*
X152039000Y-84735500D01*
X152039000Y-84989500D01*
X152019000Y-84989500D01*
X152019000Y-85009500D01*
X151765000Y-85009500D01*
X151765000Y-84989500D01*
X151745000Y-84989500D01*
X151745000Y-84735500D01*
X151765000Y-84735500D01*
X151765000Y-84715500D01*
X152019000Y-84715500D01*
X152019000Y-84735500D01*
G04 #@! TA.AperFunction,Conductor*
D20*
G36*
X152019000Y-84735500D02*
G01*
X152039000Y-84735500D01*
X152039000Y-84989500D01*
X152019000Y-84989500D01*
X152019000Y-85009500D01*
X151765000Y-85009500D01*
X151765000Y-84989500D01*
X151745000Y-84989500D01*
X151745000Y-84735500D01*
X151765000Y-84735500D01*
X151765000Y-84715500D01*
X152019000Y-84715500D01*
X152019000Y-84735500D01*
G37*
G04 #@! TD.AperFunction*
D19*
X148675063Y-77748774D02*
X148819226Y-77892937D01*
X148988744Y-78006205D01*
X149177102Y-78084226D01*
X149377061Y-78124000D01*
X149580939Y-78124000D01*
X149780898Y-78084226D01*
X149969256Y-78006205D01*
X150138774Y-77892937D01*
X150182711Y-77849000D01*
X152148001Y-77849000D01*
X152148000Y-82079730D01*
X152023226Y-81954956D01*
X151995509Y-81921183D01*
X151860751Y-81810589D01*
X151707005Y-81728411D01*
X151540182Y-81677805D01*
X151410169Y-81665000D01*
X151410161Y-81665000D01*
X151366692Y-81660719D01*
X151323223Y-81665000D01*
X150271454Y-81665000D01*
X150223256Y-81632795D01*
X150034898Y-81554774D01*
X149834939Y-81515000D01*
X149631061Y-81515000D01*
X149431102Y-81554774D01*
X149242744Y-81632795D01*
X149073226Y-81746063D01*
X148929063Y-81890226D01*
X148815795Y-82059744D01*
X148737774Y-82248102D01*
X148698000Y-82448061D01*
X148698000Y-82651939D01*
X148737774Y-82851898D01*
X148815795Y-83040256D01*
X148848000Y-83088455D01*
X148848001Y-83801710D01*
X148620001Y-83573710D01*
X148620001Y-77666368D01*
X148675063Y-77748774D01*
G04 #@! TA.AperFunction,Conductor*
D20*
G36*
X148675063Y-77748774D02*
G01*
X148819226Y-77892937D01*
X148988744Y-78006205D01*
X149177102Y-78084226D01*
X149377061Y-78124000D01*
X149580939Y-78124000D01*
X149780898Y-78084226D01*
X149969256Y-78006205D01*
X150138774Y-77892937D01*
X150182711Y-77849000D01*
X152148001Y-77849000D01*
X152148000Y-82079730D01*
X152023226Y-81954956D01*
X151995509Y-81921183D01*
X151860751Y-81810589D01*
X151707005Y-81728411D01*
X151540182Y-81677805D01*
X151410169Y-81665000D01*
X151410161Y-81665000D01*
X151366692Y-81660719D01*
X151323223Y-81665000D01*
X150271454Y-81665000D01*
X150223256Y-81632795D01*
X150034898Y-81554774D01*
X149834939Y-81515000D01*
X149631061Y-81515000D01*
X149431102Y-81554774D01*
X149242744Y-81632795D01*
X149073226Y-81746063D01*
X148929063Y-81890226D01*
X148815795Y-82059744D01*
X148737774Y-82248102D01*
X148698000Y-82448061D01*
X148698000Y-82651939D01*
X148737774Y-82851898D01*
X148815795Y-83040256D01*
X148848000Y-83088455D01*
X148848001Y-83801710D01*
X148620001Y-83573710D01*
X148620001Y-77666368D01*
X148675063Y-77748774D01*
G37*
G04 #@! TD.AperFunction*
D19*
X159990000Y-75308000D02*
X159892998Y-75308000D01*
X159892998Y-75466748D01*
X159734250Y-75308000D01*
X159545000Y-75304928D01*
X159420518Y-75317188D01*
X159300820Y-75353498D01*
X159190506Y-75412463D01*
X159093815Y-75491815D01*
X159014463Y-75588506D01*
X158955498Y-75698820D01*
X158919188Y-75818518D01*
X158906928Y-75943000D01*
X158910000Y-76144750D01*
X159068750Y-76303500D01*
X159893000Y-76303500D01*
X159893000Y-76283500D01*
X160105262Y-76283500D01*
X160115025Y-76301765D01*
X160167000Y-76365096D01*
X160167000Y-76557500D01*
X160147000Y-76557500D01*
X160147000Y-76577500D01*
X159893000Y-76577500D01*
X159893000Y-76557500D01*
X159068750Y-76557500D01*
X158910000Y-76716250D01*
X158906928Y-76918000D01*
X158919188Y-77042482D01*
X158955498Y-77162180D01*
X159014463Y-77272494D01*
X159093815Y-77369185D01*
X159143812Y-77410217D01*
X159054488Y-77519058D01*
X158973577Y-77670433D01*
X158923752Y-77834684D01*
X158906928Y-78005500D01*
X158906928Y-78110294D01*
X158829102Y-78125774D01*
X158640744Y-78203795D01*
X158471226Y-78317063D01*
X158327063Y-78461226D01*
X158305500Y-78493497D01*
X158283937Y-78461226D01*
X158139774Y-78317063D01*
X157970256Y-78203795D01*
X157781898Y-78125774D01*
X157581939Y-78086000D01*
X157378061Y-78086000D01*
X157178102Y-78125774D01*
X156989744Y-78203795D01*
X156820226Y-78317063D01*
X156676063Y-78461226D01*
X156562795Y-78630744D01*
X156484774Y-78819102D01*
X156445000Y-79019061D01*
X156445000Y-79222939D01*
X156484774Y-79422898D01*
X156562795Y-79611256D01*
X156676063Y-79780774D01*
X156720000Y-79824711D01*
X156720001Y-81622046D01*
X156679498Y-81697820D01*
X156643188Y-81817518D01*
X156630928Y-81942000D01*
X156630928Y-83442000D01*
X156634962Y-83482962D01*
X156594000Y-83478928D01*
X155094000Y-83478928D01*
X154969518Y-83491188D01*
X154849820Y-83527498D01*
X154739506Y-83586463D01*
X154642815Y-83665815D01*
X154615679Y-83698880D01*
X153668000Y-82751201D01*
X153668000Y-77530801D01*
X159018592Y-72180210D01*
X159238740Y-72224000D01*
X159531260Y-72224000D01*
X159818158Y-72166932D01*
X159989999Y-72095753D01*
X159990000Y-75308000D01*
G04 #@! TA.AperFunction,Conductor*
D20*
G36*
X159990000Y-75308000D02*
G01*
X159892998Y-75308000D01*
X159892998Y-75466748D01*
X159734250Y-75308000D01*
X159545000Y-75304928D01*
X159420518Y-75317188D01*
X159300820Y-75353498D01*
X159190506Y-75412463D01*
X159093815Y-75491815D01*
X159014463Y-75588506D01*
X158955498Y-75698820D01*
X158919188Y-75818518D01*
X158906928Y-75943000D01*
X158910000Y-76144750D01*
X159068750Y-76303500D01*
X159893000Y-76303500D01*
X159893000Y-76283500D01*
X160105262Y-76283500D01*
X160115025Y-76301765D01*
X160167000Y-76365096D01*
X160167000Y-76557500D01*
X160147000Y-76557500D01*
X160147000Y-76577500D01*
X159893000Y-76577500D01*
X159893000Y-76557500D01*
X159068750Y-76557500D01*
X158910000Y-76716250D01*
X158906928Y-76918000D01*
X158919188Y-77042482D01*
X158955498Y-77162180D01*
X159014463Y-77272494D01*
X159093815Y-77369185D01*
X159143812Y-77410217D01*
X159054488Y-77519058D01*
X158973577Y-77670433D01*
X158923752Y-77834684D01*
X158906928Y-78005500D01*
X158906928Y-78110294D01*
X158829102Y-78125774D01*
X158640744Y-78203795D01*
X158471226Y-78317063D01*
X158327063Y-78461226D01*
X158305500Y-78493497D01*
X158283937Y-78461226D01*
X158139774Y-78317063D01*
X157970256Y-78203795D01*
X157781898Y-78125774D01*
X157581939Y-78086000D01*
X157378061Y-78086000D01*
X157178102Y-78125774D01*
X156989744Y-78203795D01*
X156820226Y-78317063D01*
X156676063Y-78461226D01*
X156562795Y-78630744D01*
X156484774Y-78819102D01*
X156445000Y-79019061D01*
X156445000Y-79222939D01*
X156484774Y-79422898D01*
X156562795Y-79611256D01*
X156676063Y-79780774D01*
X156720000Y-79824711D01*
X156720001Y-81622046D01*
X156679498Y-81697820D01*
X156643188Y-81817518D01*
X156630928Y-81942000D01*
X156630928Y-83442000D01*
X156634962Y-83482962D01*
X156594000Y-83478928D01*
X155094000Y-83478928D01*
X154969518Y-83491188D01*
X154849820Y-83527498D01*
X154739506Y-83586463D01*
X154642815Y-83665815D01*
X154615679Y-83698880D01*
X153668000Y-82751201D01*
X153668000Y-77530801D01*
X159018592Y-72180210D01*
X159238740Y-72224000D01*
X159531260Y-72224000D01*
X159818158Y-72166932D01*
X159989999Y-72095753D01*
X159990000Y-75308000D01*
G37*
G04 #@! TD.AperFunction*
D19*
X144272000Y-70612000D02*
X144292000Y-70612000D01*
X144292000Y-70866000D01*
X144272000Y-70866000D01*
X144272000Y-72059155D01*
X144501890Y-72180476D01*
X144560001Y-72162850D01*
X144560002Y-83668201D01*
X143540001Y-82648200D01*
X143540001Y-72087765D01*
X143640901Y-72135825D01*
X143788110Y-72180476D01*
X144018000Y-72059155D01*
X144018000Y-70866000D01*
X143998000Y-70866000D01*
X143998000Y-70612000D01*
X144018000Y-70612000D01*
X144018000Y-70592000D01*
X144272000Y-70592000D01*
X144272000Y-70612000D01*
G04 #@! TA.AperFunction,Conductor*
D20*
G36*
X144272000Y-70612000D02*
G01*
X144292000Y-70612000D01*
X144292000Y-70866000D01*
X144272000Y-70866000D01*
X144272000Y-72059155D01*
X144501890Y-72180476D01*
X144560001Y-72162850D01*
X144560002Y-83668201D01*
X143540001Y-82648200D01*
X143540001Y-72087765D01*
X143640901Y-72135825D01*
X143788110Y-72180476D01*
X144018000Y-72059155D01*
X144018000Y-70866000D01*
X143998000Y-70866000D01*
X143998000Y-70612000D01*
X144018000Y-70612000D01*
X144018000Y-70592000D01*
X144272000Y-70592000D01*
X144272000Y-70612000D01*
G37*
G04 #@! TD.AperFunction*
D19*
X174752000Y-70612000D02*
X174772000Y-70612000D01*
X174772000Y-70866000D01*
X174752000Y-70866000D01*
X174752000Y-72059155D01*
X174981890Y-72180476D01*
X175129099Y-72135825D01*
X175391920Y-72010641D01*
X175625269Y-71836588D01*
X175820178Y-71620355D01*
X175889805Y-71503466D01*
X176011525Y-71685632D01*
X176218368Y-71892475D01*
X176461589Y-72054990D01*
X176731842Y-72166932D01*
X177018740Y-72224000D01*
X177311260Y-72224000D01*
X177598158Y-72166932D01*
X177868411Y-72054990D01*
X178111632Y-71892475D01*
X178318475Y-71685632D01*
X178440195Y-71503466D01*
X178509822Y-71620355D01*
X178704731Y-71836588D01*
X178938080Y-72010641D01*
X179200901Y-72135825D01*
X179348110Y-72180476D01*
X179578000Y-72059155D01*
X179578000Y-70866000D01*
X179558000Y-70866000D01*
X179558000Y-70612000D01*
X179578000Y-70612000D01*
X179578000Y-70592000D01*
X179832000Y-70592000D01*
X179832000Y-70612000D01*
X179852000Y-70612000D01*
X179852000Y-70866000D01*
X179832000Y-70866000D01*
X179832000Y-72059155D01*
X180061890Y-72180476D01*
X180209099Y-72135825D01*
X180471920Y-72010641D01*
X180705269Y-71836588D01*
X180900178Y-71620355D01*
X180969805Y-71503466D01*
X181091525Y-71685632D01*
X181298368Y-71892475D01*
X181541589Y-72054990D01*
X181811842Y-72166932D01*
X182098740Y-72224000D01*
X182391260Y-72224000D01*
X182678158Y-72166932D01*
X182948411Y-72054990D01*
X183191632Y-71892475D01*
X183398475Y-71685632D01*
X183515000Y-71511240D01*
X183631525Y-71685632D01*
X183838368Y-71892475D01*
X184025001Y-72017179D01*
X184025000Y-77155198D01*
X177548199Y-83632000D01*
X168403981Y-83632000D01*
X168348494Y-83586463D01*
X168238180Y-83527498D01*
X168118482Y-83491188D01*
X167994000Y-83478928D01*
X166928999Y-83478928D01*
X166928999Y-82811802D01*
X172596004Y-77144798D01*
X172625001Y-77121001D01*
X172719974Y-77005276D01*
X172790546Y-76873247D01*
X172834003Y-76729986D01*
X172845000Y-76618333D01*
X172845000Y-76618323D01*
X172848676Y-76581000D01*
X172845000Y-76543677D01*
X172845000Y-72017178D01*
X173031632Y-71892475D01*
X173238475Y-71685632D01*
X173360195Y-71503466D01*
X173429822Y-71620355D01*
X173624731Y-71836588D01*
X173858080Y-72010641D01*
X174120901Y-72135825D01*
X174268110Y-72180476D01*
X174498000Y-72059155D01*
X174498000Y-70866000D01*
X174478000Y-70866000D01*
X174478000Y-70612000D01*
X174498000Y-70612000D01*
X174498000Y-70592000D01*
X174752000Y-70592000D01*
X174752000Y-70612000D01*
G04 #@! TA.AperFunction,Conductor*
D20*
G36*
X174752000Y-70612000D02*
G01*
X174772000Y-70612000D01*
X174772000Y-70866000D01*
X174752000Y-70866000D01*
X174752000Y-72059155D01*
X174981890Y-72180476D01*
X175129099Y-72135825D01*
X175391920Y-72010641D01*
X175625269Y-71836588D01*
X175820178Y-71620355D01*
X175889805Y-71503466D01*
X176011525Y-71685632D01*
X176218368Y-71892475D01*
X176461589Y-72054990D01*
X176731842Y-72166932D01*
X177018740Y-72224000D01*
X177311260Y-72224000D01*
X177598158Y-72166932D01*
X177868411Y-72054990D01*
X178111632Y-71892475D01*
X178318475Y-71685632D01*
X178440195Y-71503466D01*
X178509822Y-71620355D01*
X178704731Y-71836588D01*
X178938080Y-72010641D01*
X179200901Y-72135825D01*
X179348110Y-72180476D01*
X179578000Y-72059155D01*
X179578000Y-70866000D01*
X179558000Y-70866000D01*
X179558000Y-70612000D01*
X179578000Y-70612000D01*
X179578000Y-70592000D01*
X179832000Y-70592000D01*
X179832000Y-70612000D01*
X179852000Y-70612000D01*
X179852000Y-70866000D01*
X179832000Y-70866000D01*
X179832000Y-72059155D01*
X180061890Y-72180476D01*
X180209099Y-72135825D01*
X180471920Y-72010641D01*
X180705269Y-71836588D01*
X180900178Y-71620355D01*
X180969805Y-71503466D01*
X181091525Y-71685632D01*
X181298368Y-71892475D01*
X181541589Y-72054990D01*
X181811842Y-72166932D01*
X182098740Y-72224000D01*
X182391260Y-72224000D01*
X182678158Y-72166932D01*
X182948411Y-72054990D01*
X183191632Y-71892475D01*
X183398475Y-71685632D01*
X183515000Y-71511240D01*
X183631525Y-71685632D01*
X183838368Y-71892475D01*
X184025001Y-72017179D01*
X184025000Y-77155198D01*
X177548199Y-83632000D01*
X168403981Y-83632000D01*
X168348494Y-83586463D01*
X168238180Y-83527498D01*
X168118482Y-83491188D01*
X167994000Y-83478928D01*
X166928999Y-83478928D01*
X166928999Y-82811802D01*
X172596004Y-77144798D01*
X172625001Y-77121001D01*
X172719974Y-77005276D01*
X172790546Y-76873247D01*
X172834003Y-76729986D01*
X172845000Y-76618333D01*
X172845000Y-76618323D01*
X172848676Y-76581000D01*
X172845000Y-76543677D01*
X172845000Y-72017178D01*
X173031632Y-71892475D01*
X173238475Y-71685632D01*
X173360195Y-71503466D01*
X173429822Y-71620355D01*
X173624731Y-71836588D01*
X173858080Y-72010641D01*
X174120901Y-72135825D01*
X174268110Y-72180476D01*
X174498000Y-72059155D01*
X174498000Y-70866000D01*
X174478000Y-70866000D01*
X174478000Y-70612000D01*
X174498000Y-70612000D01*
X174498000Y-70592000D01*
X174752000Y-70592000D01*
X174752000Y-70612000D01*
G37*
G04 #@! TD.AperFunction*
D19*
X161507990Y-77710283D02*
X161507991Y-81307000D01*
X161416998Y-81307000D01*
X161416998Y-81447166D01*
X161373494Y-81411463D01*
X161350333Y-81399083D01*
X161258250Y-81307000D01*
X161144663Y-81316546D01*
X161143482Y-81316188D01*
X161019000Y-81303928D01*
X160780000Y-81303928D01*
X160780000Y-79203920D01*
X160876623Y-79124623D01*
X160985512Y-78991942D01*
X161066423Y-78840567D01*
X161116248Y-78676316D01*
X161133072Y-78505500D01*
X161133072Y-78005500D01*
X161116248Y-77834684D01*
X161066423Y-77670433D01*
X160985512Y-77519058D01*
X160896188Y-77410217D01*
X160946185Y-77369185D01*
X161025537Y-77272494D01*
X161041095Y-77243387D01*
X161507990Y-77710283D01*
G04 #@! TA.AperFunction,Conductor*
D20*
G36*
X161507990Y-77710283D02*
G01*
X161507991Y-81307000D01*
X161416998Y-81307000D01*
X161416998Y-81447166D01*
X161373494Y-81411463D01*
X161350333Y-81399083D01*
X161258250Y-81307000D01*
X161144663Y-81316546D01*
X161143482Y-81316188D01*
X161019000Y-81303928D01*
X160780000Y-81303928D01*
X160780000Y-79203920D01*
X160876623Y-79124623D01*
X160985512Y-78991942D01*
X161066423Y-78840567D01*
X161116248Y-78676316D01*
X161133072Y-78505500D01*
X161133072Y-78005500D01*
X161116248Y-77834684D01*
X161066423Y-77670433D01*
X160985512Y-77519058D01*
X160896188Y-77410217D01*
X160946185Y-77369185D01*
X161025537Y-77272494D01*
X161041095Y-77243387D01*
X161507990Y-77710283D01*
G37*
G04 #@! TD.AperFunction*
D19*
X170931525Y-71685632D02*
X171138368Y-71892475D01*
X171325001Y-72017179D01*
X171325000Y-76266198D01*
X166304000Y-81287199D01*
X166304000Y-80515801D01*
X167516003Y-79303799D01*
X167545001Y-79280001D01*
X167583154Y-79233512D01*
X167639974Y-79164277D01*
X167710546Y-79032247D01*
X167723062Y-78990985D01*
X167754003Y-78888986D01*
X167765000Y-78777333D01*
X167765000Y-78777323D01*
X167768676Y-78740001D01*
X167765000Y-78702678D01*
X167765000Y-72017178D01*
X167951632Y-71892475D01*
X168158475Y-71685632D01*
X168275000Y-71511240D01*
X168391525Y-71685632D01*
X168598368Y-71892475D01*
X168841589Y-72054990D01*
X169111842Y-72166932D01*
X169398740Y-72224000D01*
X169691260Y-72224000D01*
X169978158Y-72166932D01*
X170248411Y-72054990D01*
X170491632Y-71892475D01*
X170698475Y-71685632D01*
X170815000Y-71511240D01*
X170931525Y-71685632D01*
G04 #@! TA.AperFunction,Conductor*
D20*
G36*
X170931525Y-71685632D02*
G01*
X171138368Y-71892475D01*
X171325001Y-72017179D01*
X171325000Y-76266198D01*
X166304000Y-81287199D01*
X166304000Y-80515801D01*
X167516003Y-79303799D01*
X167545001Y-79280001D01*
X167583154Y-79233512D01*
X167639974Y-79164277D01*
X167710546Y-79032247D01*
X167723062Y-78990985D01*
X167754003Y-78888986D01*
X167765000Y-78777333D01*
X167765000Y-78777323D01*
X167768676Y-78740001D01*
X167765000Y-78702678D01*
X167765000Y-72017178D01*
X167951632Y-71892475D01*
X168158475Y-71685632D01*
X168275000Y-71511240D01*
X168391525Y-71685632D01*
X168598368Y-71892475D01*
X168841589Y-72054990D01*
X169111842Y-72166932D01*
X169398740Y-72224000D01*
X169691260Y-72224000D01*
X169978158Y-72166932D01*
X170248411Y-72054990D01*
X170491632Y-71892475D01*
X170698475Y-71685632D01*
X170815000Y-71511240D01*
X170931525Y-71685632D01*
G37*
G04 #@! TD.AperFunction*
D19*
X165070000Y-77441198D02*
X164704000Y-77807199D01*
X164704000Y-76060812D01*
X164707676Y-76023489D01*
X164704000Y-75986166D01*
X164704000Y-75986157D01*
X164693003Y-75874504D01*
X164649546Y-75731243D01*
X164612393Y-75661735D01*
X164578974Y-75599213D01*
X164507799Y-75512487D01*
X164484001Y-75483489D01*
X164455004Y-75459692D01*
X164049999Y-75054688D01*
X164049999Y-72170544D01*
X164318740Y-72224000D01*
X164611260Y-72224000D01*
X164898158Y-72166932D01*
X165069999Y-72095753D01*
X165070000Y-77441198D01*
G04 #@! TA.AperFunction,Conductor*
D20*
G36*
X165070000Y-77441198D02*
G01*
X164704000Y-77807199D01*
X164704000Y-76060812D01*
X164707676Y-76023489D01*
X164704000Y-75986166D01*
X164704000Y-75986157D01*
X164693003Y-75874504D01*
X164649546Y-75731243D01*
X164612393Y-75661735D01*
X164578974Y-75599213D01*
X164507799Y-75512487D01*
X164484001Y-75483489D01*
X164455004Y-75459692D01*
X164049999Y-75054688D01*
X164049999Y-72170544D01*
X164318740Y-72224000D01*
X164611260Y-72224000D01*
X164898158Y-72166932D01*
X165069999Y-72095753D01*
X165070000Y-77441198D01*
G37*
G04 #@! TD.AperFunction*
D19*
X163184000Y-76338292D02*
X163184000Y-76627500D01*
X162941000Y-76627500D01*
X162941000Y-76607500D01*
X162921000Y-76607500D01*
X162921000Y-76353500D01*
X162941000Y-76353500D01*
X162941000Y-76333500D01*
X163179208Y-76333500D01*
X163184000Y-76338292D01*
G04 #@! TA.AperFunction,Conductor*
D20*
G36*
X163184000Y-76338292D02*
G01*
X163184000Y-76627500D01*
X162941000Y-76627500D01*
X162941000Y-76607500D01*
X162921000Y-76607500D01*
X162921000Y-76353500D01*
X162941000Y-76353500D01*
X162941000Y-76333500D01*
X163179208Y-76333500D01*
X163184000Y-76338292D01*
G37*
G04 #@! TD.AperFunction*
D19*
X154432000Y-70612000D02*
X154452000Y-70612000D01*
X154452000Y-70866000D01*
X154432000Y-70866000D01*
X154432000Y-72059155D01*
X154661890Y-72180476D01*
X154809099Y-72135825D01*
X155071920Y-72010641D01*
X155305269Y-71836588D01*
X155500178Y-71620355D01*
X155569805Y-71503466D01*
X155691525Y-71685632D01*
X155898368Y-71892475D01*
X156141589Y-72054990D01*
X156411842Y-72166932D01*
X156698740Y-72224000D01*
X156825198Y-72224000D01*
X152720199Y-76329000D01*
X150182711Y-76329000D01*
X150138774Y-76285063D01*
X149969256Y-76171795D01*
X149780898Y-76093774D01*
X149580939Y-76054000D01*
X149377061Y-76054000D01*
X149177102Y-76093774D01*
X148988744Y-76171795D01*
X148819226Y-76285063D01*
X148675063Y-76429226D01*
X148620001Y-76511632D01*
X148620001Y-72095753D01*
X148791842Y-72166932D01*
X149078740Y-72224000D01*
X149371260Y-72224000D01*
X149658158Y-72166932D01*
X149928411Y-72054990D01*
X150171632Y-71892475D01*
X150378475Y-71685632D01*
X150495000Y-71511240D01*
X150611525Y-71685632D01*
X150818368Y-71892475D01*
X151061589Y-72054990D01*
X151331842Y-72166932D01*
X151618740Y-72224000D01*
X151911260Y-72224000D01*
X152198158Y-72166932D01*
X152468411Y-72054990D01*
X152711632Y-71892475D01*
X152918475Y-71685632D01*
X153040195Y-71503466D01*
X153109822Y-71620355D01*
X153304731Y-71836588D01*
X153538080Y-72010641D01*
X153800901Y-72135825D01*
X153948110Y-72180476D01*
X154178000Y-72059155D01*
X154178000Y-70866000D01*
X154158000Y-70866000D01*
X154158000Y-70612000D01*
X154178000Y-70612000D01*
X154178000Y-70592000D01*
X154432000Y-70592000D01*
X154432000Y-70612000D01*
G04 #@! TA.AperFunction,Conductor*
D20*
G36*
X154432000Y-70612000D02*
G01*
X154452000Y-70612000D01*
X154452000Y-70866000D01*
X154432000Y-70866000D01*
X154432000Y-72059155D01*
X154661890Y-72180476D01*
X154809099Y-72135825D01*
X155071920Y-72010641D01*
X155305269Y-71836588D01*
X155500178Y-71620355D01*
X155569805Y-71503466D01*
X155691525Y-71685632D01*
X155898368Y-71892475D01*
X156141589Y-72054990D01*
X156411842Y-72166932D01*
X156698740Y-72224000D01*
X156825198Y-72224000D01*
X152720199Y-76329000D01*
X150182711Y-76329000D01*
X150138774Y-76285063D01*
X149969256Y-76171795D01*
X149780898Y-76093774D01*
X149580939Y-76054000D01*
X149377061Y-76054000D01*
X149177102Y-76093774D01*
X148988744Y-76171795D01*
X148819226Y-76285063D01*
X148675063Y-76429226D01*
X148620001Y-76511632D01*
X148620001Y-72095753D01*
X148791842Y-72166932D01*
X149078740Y-72224000D01*
X149371260Y-72224000D01*
X149658158Y-72166932D01*
X149928411Y-72054990D01*
X150171632Y-71892475D01*
X150378475Y-71685632D01*
X150495000Y-71511240D01*
X150611525Y-71685632D01*
X150818368Y-71892475D01*
X151061589Y-72054990D01*
X151331842Y-72166932D01*
X151618740Y-72224000D01*
X151911260Y-72224000D01*
X152198158Y-72166932D01*
X152468411Y-72054990D01*
X152711632Y-71892475D01*
X152918475Y-71685632D01*
X153040195Y-71503466D01*
X153109822Y-71620355D01*
X153304731Y-71836588D01*
X153538080Y-72010641D01*
X153800901Y-72135825D01*
X153948110Y-72180476D01*
X154178000Y-72059155D01*
X154178000Y-70866000D01*
X154158000Y-70866000D01*
X154158000Y-70612000D01*
X154178000Y-70612000D01*
X154178000Y-70592000D01*
X154432000Y-70592000D01*
X154432000Y-70612000D01*
G37*
G04 #@! TD.AperFunction*
D19*
X162052000Y-70612000D02*
X162072000Y-70612000D01*
X162072000Y-70866000D01*
X162052000Y-70866000D01*
X162052000Y-72059155D01*
X162281890Y-72180476D01*
X162429099Y-72135825D01*
X162529999Y-72087765D01*
X162530000Y-75311133D01*
X162468518Y-75317188D01*
X162348820Y-75353498D01*
X162238506Y-75412463D01*
X162141815Y-75491815D01*
X162062463Y-75588506D01*
X162003498Y-75698820D01*
X161967188Y-75818518D01*
X161954928Y-75943000D01*
X161955726Y-76008414D01*
X161509999Y-75562688D01*
X161509999Y-72162850D01*
X161568110Y-72180476D01*
X161798000Y-72059155D01*
X161798000Y-70866000D01*
X161778000Y-70866000D01*
X161778000Y-70612000D01*
X161798000Y-70612000D01*
X161798000Y-70592000D01*
X162052000Y-70592000D01*
X162052000Y-70612000D01*
G04 #@! TA.AperFunction,Conductor*
D20*
G36*
X162052000Y-70612000D02*
G01*
X162072000Y-70612000D01*
X162072000Y-70866000D01*
X162052000Y-70866000D01*
X162052000Y-72059155D01*
X162281890Y-72180476D01*
X162429099Y-72135825D01*
X162529999Y-72087765D01*
X162530000Y-75311133D01*
X162468518Y-75317188D01*
X162348820Y-75353498D01*
X162238506Y-75412463D01*
X162141815Y-75491815D01*
X162062463Y-75588506D01*
X162003498Y-75698820D01*
X161967188Y-75818518D01*
X161954928Y-75943000D01*
X161955726Y-76008414D01*
X161509999Y-75562688D01*
X161509999Y-72162850D01*
X161568110Y-72180476D01*
X161798000Y-72059155D01*
X161798000Y-70866000D01*
X161778000Y-70866000D01*
X161778000Y-70612000D01*
X161798000Y-70612000D01*
X161798000Y-70592000D01*
X162052000Y-70592000D01*
X162052000Y-70612000D01*
G37*
G04 #@! TD.AperFunction*
D19*
X173471525Y-69145632D02*
X173678368Y-69352475D01*
X173854406Y-69470100D01*
X173624731Y-69641412D01*
X173429822Y-69857645D01*
X173360195Y-69974534D01*
X173238475Y-69792368D01*
X173031632Y-69585525D01*
X172857240Y-69469000D01*
X173031632Y-69352475D01*
X173238475Y-69145632D01*
X173355000Y-68971240D01*
X173471525Y-69145632D01*
G04 #@! TA.AperFunction,Conductor*
D20*
G36*
X173471525Y-69145632D02*
G01*
X173678368Y-69352475D01*
X173854406Y-69470100D01*
X173624731Y-69641412D01*
X173429822Y-69857645D01*
X173360195Y-69974534D01*
X173238475Y-69792368D01*
X173031632Y-69585525D01*
X172857240Y-69469000D01*
X173031632Y-69352475D01*
X173238475Y-69145632D01*
X173355000Y-68971240D01*
X173471525Y-69145632D01*
G37*
G04 #@! TD.AperFunction*
D19*
X155691525Y-69145632D02*
X155898368Y-69352475D01*
X156072760Y-69469000D01*
X155898368Y-69585525D01*
X155691525Y-69792368D01*
X155569805Y-69974534D01*
X155500178Y-69857645D01*
X155305269Y-69641412D01*
X155075594Y-69470100D01*
X155251632Y-69352475D01*
X155458475Y-69145632D01*
X155575000Y-68971240D01*
X155691525Y-69145632D01*
G04 #@! TA.AperFunction,Conductor*
D20*
G36*
X155691525Y-69145632D02*
G01*
X155898368Y-69352475D01*
X156072760Y-69469000D01*
X155898368Y-69585525D01*
X155691525Y-69792368D01*
X155569805Y-69974534D01*
X155500178Y-69857645D01*
X155305269Y-69641412D01*
X155075594Y-69470100D01*
X155251632Y-69352475D01*
X155458475Y-69145632D01*
X155575000Y-68971240D01*
X155691525Y-69145632D01*
G37*
G04 #@! TD.AperFunction*
D19*
X170931525Y-69145632D02*
X171138368Y-69352475D01*
X171312760Y-69469000D01*
X171138368Y-69585525D01*
X170931525Y-69792368D01*
X170815000Y-69966760D01*
X170698475Y-69792368D01*
X170491632Y-69585525D01*
X170315594Y-69467900D01*
X170545269Y-69296588D01*
X170740178Y-69080355D01*
X170809805Y-68963466D01*
X170931525Y-69145632D01*
G04 #@! TA.AperFunction,Conductor*
D20*
G36*
X170931525Y-69145632D02*
G01*
X171138368Y-69352475D01*
X171312760Y-69469000D01*
X171138368Y-69585525D01*
X170931525Y-69792368D01*
X170815000Y-69966760D01*
X170698475Y-69792368D01*
X170491632Y-69585525D01*
X170315594Y-69467900D01*
X170545269Y-69296588D01*
X170740178Y-69080355D01*
X170809805Y-68963466D01*
X170931525Y-69145632D01*
G37*
G04 #@! TD.AperFunction*
D19*
X169145000Y-65571801D02*
X169145000Y-65633939D01*
X169184774Y-65833898D01*
X169262795Y-66022256D01*
X169376063Y-66191774D01*
X169520226Y-66335937D01*
X169689744Y-66449205D01*
X169878102Y-66527226D01*
X170078061Y-66567000D01*
X170281939Y-66567000D01*
X170481898Y-66527226D01*
X170670256Y-66449205D01*
X170839774Y-66335937D01*
X170910956Y-66264755D01*
X171325000Y-66678800D01*
X171325000Y-66920821D01*
X171138368Y-67045525D01*
X170931525Y-67252368D01*
X170809805Y-67434534D01*
X170740178Y-67317645D01*
X170545269Y-67101412D01*
X170311920Y-66927359D01*
X170049099Y-66802175D01*
X169901890Y-66757524D01*
X169672000Y-66878845D01*
X169672000Y-68072000D01*
X169692000Y-68072000D01*
X169692000Y-68326000D01*
X169672000Y-68326000D01*
X169672000Y-68346000D01*
X169418000Y-68346000D01*
X169418000Y-68326000D01*
X169398000Y-68326000D01*
X169398000Y-68072000D01*
X169418000Y-68072000D01*
X169418000Y-66878845D01*
X169188110Y-66757524D01*
X169040901Y-66802175D01*
X168778080Y-66927359D01*
X168544731Y-67101412D01*
X168349822Y-67317645D01*
X168280195Y-67434534D01*
X168158475Y-67252368D01*
X167951632Y-67045525D01*
X167708411Y-66883010D01*
X167438158Y-66771068D01*
X167151260Y-66714000D01*
X166858740Y-66714000D01*
X166571842Y-66771068D01*
X166301589Y-66883010D01*
X166058368Y-67045525D01*
X165851525Y-67252368D01*
X165735000Y-67426760D01*
X165618475Y-67252368D01*
X165411632Y-67045525D01*
X165168411Y-66883010D01*
X164898158Y-66771068D01*
X164611260Y-66714000D01*
X164318740Y-66714000D01*
X164031842Y-66771068D01*
X163761589Y-66883010D01*
X163518368Y-67045525D01*
X163311525Y-67252368D01*
X163195000Y-67426760D01*
X163078475Y-67252368D01*
X162871632Y-67045525D01*
X162628411Y-66883010D01*
X162358158Y-66771068D01*
X162071260Y-66714000D01*
X161778740Y-66714000D01*
X161491842Y-66771068D01*
X161221589Y-66883010D01*
X160978368Y-67045525D01*
X160771525Y-67252368D01*
X160655000Y-67426760D01*
X160538475Y-67252368D01*
X160331632Y-67045525D01*
X160088411Y-66883010D01*
X159818158Y-66771068D01*
X159531260Y-66714000D01*
X159238740Y-66714000D01*
X159166040Y-66728461D01*
X157773568Y-65335990D01*
X168909189Y-65335990D01*
X169145000Y-65571801D01*
G04 #@! TA.AperFunction,Conductor*
D20*
G36*
X169145000Y-65571801D02*
G01*
X169145000Y-65633939D01*
X169184774Y-65833898D01*
X169262795Y-66022256D01*
X169376063Y-66191774D01*
X169520226Y-66335937D01*
X169689744Y-66449205D01*
X169878102Y-66527226D01*
X170078061Y-66567000D01*
X170281939Y-66567000D01*
X170481898Y-66527226D01*
X170670256Y-66449205D01*
X170839774Y-66335937D01*
X170910956Y-66264755D01*
X171325000Y-66678800D01*
X171325000Y-66920821D01*
X171138368Y-67045525D01*
X170931525Y-67252368D01*
X170809805Y-67434534D01*
X170740178Y-67317645D01*
X170545269Y-67101412D01*
X170311920Y-66927359D01*
X170049099Y-66802175D01*
X169901890Y-66757524D01*
X169672000Y-66878845D01*
X169672000Y-68072000D01*
X169692000Y-68072000D01*
X169692000Y-68326000D01*
X169672000Y-68326000D01*
X169672000Y-68346000D01*
X169418000Y-68346000D01*
X169418000Y-68326000D01*
X169398000Y-68326000D01*
X169398000Y-68072000D01*
X169418000Y-68072000D01*
X169418000Y-66878845D01*
X169188110Y-66757524D01*
X169040901Y-66802175D01*
X168778080Y-66927359D01*
X168544731Y-67101412D01*
X168349822Y-67317645D01*
X168280195Y-67434534D01*
X168158475Y-67252368D01*
X167951632Y-67045525D01*
X167708411Y-66883010D01*
X167438158Y-66771068D01*
X167151260Y-66714000D01*
X166858740Y-66714000D01*
X166571842Y-66771068D01*
X166301589Y-66883010D01*
X166058368Y-67045525D01*
X165851525Y-67252368D01*
X165735000Y-67426760D01*
X165618475Y-67252368D01*
X165411632Y-67045525D01*
X165168411Y-66883010D01*
X164898158Y-66771068D01*
X164611260Y-66714000D01*
X164318740Y-66714000D01*
X164031842Y-66771068D01*
X163761589Y-66883010D01*
X163518368Y-67045525D01*
X163311525Y-67252368D01*
X163195000Y-67426760D01*
X163078475Y-67252368D01*
X162871632Y-67045525D01*
X162628411Y-66883010D01*
X162358158Y-66771068D01*
X162071260Y-66714000D01*
X161778740Y-66714000D01*
X161491842Y-66771068D01*
X161221589Y-66883010D01*
X160978368Y-67045525D01*
X160771525Y-67252368D01*
X160655000Y-67426760D01*
X160538475Y-67252368D01*
X160331632Y-67045525D01*
X160088411Y-66883010D01*
X159818158Y-66771068D01*
X159531260Y-66714000D01*
X159238740Y-66714000D01*
X159166040Y-66728461D01*
X157773568Y-65335990D01*
X168909189Y-65335990D01*
X169145000Y-65571801D01*
G37*
G04 #@! TD.AperFunction*
D19*
X156656770Y-66722348D02*
X156411842Y-66771068D01*
X156141589Y-66883010D01*
X155898368Y-67045525D01*
X155691525Y-67252368D01*
X155575000Y-67426760D01*
X155458475Y-67252368D01*
X155251632Y-67045525D01*
X155008411Y-66883010D01*
X154738158Y-66771068D01*
X154451260Y-66714000D01*
X154158740Y-66714000D01*
X153871842Y-66771068D01*
X153601589Y-66883010D01*
X153358368Y-67045525D01*
X153151525Y-67252368D01*
X153035000Y-67426760D01*
X152918475Y-67252368D01*
X152711632Y-67045525D01*
X152468411Y-66883010D01*
X152198158Y-66771068D01*
X151911260Y-66714000D01*
X151618740Y-66714000D01*
X151331842Y-66771068D01*
X151061589Y-66883010D01*
X150818368Y-67045525D01*
X150611525Y-67252368D01*
X150489805Y-67434534D01*
X150420178Y-67317645D01*
X150225269Y-67101412D01*
X149991920Y-66927359D01*
X149729099Y-66802175D01*
X149581890Y-66757524D01*
X149352000Y-66878845D01*
X149352000Y-68072000D01*
X149372000Y-68072000D01*
X149372000Y-68326000D01*
X149352000Y-68326000D01*
X149352000Y-68346000D01*
X149098000Y-68346000D01*
X149098000Y-68326000D01*
X149078000Y-68326000D01*
X149078000Y-68072000D01*
X149098000Y-68072000D01*
X149098000Y-66878845D01*
X148868110Y-66757524D01*
X148720901Y-66802175D01*
X148458080Y-66927359D01*
X148224731Y-67101412D01*
X148029822Y-67317645D01*
X147960195Y-67434534D01*
X147838475Y-67252368D01*
X147631632Y-67045525D01*
X147388411Y-66883010D01*
X147118158Y-66771068D01*
X146831260Y-66714000D01*
X146538740Y-66714000D01*
X146251842Y-66771068D01*
X145981589Y-66883010D01*
X145738368Y-67045525D01*
X145531525Y-67252368D01*
X145415000Y-67426760D01*
X145298475Y-67252368D01*
X145091632Y-67045525D01*
X144848411Y-66883010D01*
X144578158Y-66771068D01*
X144291260Y-66714000D01*
X143998740Y-66714000D01*
X143711842Y-66771068D01*
X143441589Y-66883010D01*
X143198368Y-67045525D01*
X142991525Y-67252368D01*
X142875000Y-67426760D01*
X142758475Y-67252368D01*
X142551632Y-67045525D01*
X142308411Y-66883010D01*
X142038158Y-66771068D01*
X141793230Y-66722348D01*
X142479579Y-66036000D01*
X155970422Y-66036000D01*
X156656770Y-66722348D01*
G04 #@! TA.AperFunction,Conductor*
D20*
G36*
X156656770Y-66722348D02*
G01*
X156411842Y-66771068D01*
X156141589Y-66883010D01*
X155898368Y-67045525D01*
X155691525Y-67252368D01*
X155575000Y-67426760D01*
X155458475Y-67252368D01*
X155251632Y-67045525D01*
X155008411Y-66883010D01*
X154738158Y-66771068D01*
X154451260Y-66714000D01*
X154158740Y-66714000D01*
X153871842Y-66771068D01*
X153601589Y-66883010D01*
X153358368Y-67045525D01*
X153151525Y-67252368D01*
X153035000Y-67426760D01*
X152918475Y-67252368D01*
X152711632Y-67045525D01*
X152468411Y-66883010D01*
X152198158Y-66771068D01*
X151911260Y-66714000D01*
X151618740Y-66714000D01*
X151331842Y-66771068D01*
X151061589Y-66883010D01*
X150818368Y-67045525D01*
X150611525Y-67252368D01*
X150489805Y-67434534D01*
X150420178Y-67317645D01*
X150225269Y-67101412D01*
X149991920Y-66927359D01*
X149729099Y-66802175D01*
X149581890Y-66757524D01*
X149352000Y-66878845D01*
X149352000Y-68072000D01*
X149372000Y-68072000D01*
X149372000Y-68326000D01*
X149352000Y-68326000D01*
X149352000Y-68346000D01*
X149098000Y-68346000D01*
X149098000Y-68326000D01*
X149078000Y-68326000D01*
X149078000Y-68072000D01*
X149098000Y-68072000D01*
X149098000Y-66878845D01*
X148868110Y-66757524D01*
X148720901Y-66802175D01*
X148458080Y-66927359D01*
X148224731Y-67101412D01*
X148029822Y-67317645D01*
X147960195Y-67434534D01*
X147838475Y-67252368D01*
X147631632Y-67045525D01*
X147388411Y-66883010D01*
X147118158Y-66771068D01*
X146831260Y-66714000D01*
X146538740Y-66714000D01*
X146251842Y-66771068D01*
X145981589Y-66883010D01*
X145738368Y-67045525D01*
X145531525Y-67252368D01*
X145415000Y-67426760D01*
X145298475Y-67252368D01*
X145091632Y-67045525D01*
X144848411Y-66883010D01*
X144578158Y-66771068D01*
X144291260Y-66714000D01*
X143998740Y-66714000D01*
X143711842Y-66771068D01*
X143441589Y-66883010D01*
X143198368Y-67045525D01*
X142991525Y-67252368D01*
X142875000Y-67426760D01*
X142758475Y-67252368D01*
X142551632Y-67045525D01*
X142308411Y-66883010D01*
X142038158Y-66771068D01*
X141793230Y-66722348D01*
X142479579Y-66036000D01*
X155970422Y-66036000D01*
X156656770Y-66722348D01*
G37*
G04 #@! TD.AperFunction*
M02*
