M48
; DRILL file {KiCad 5.1.9-73d0e3b20d~88~ubuntu20.10.1} date Mon Apr 12 20:34:26 2021
; FORMAT={-:-/ absolute / inch / decimal}
; #@! TF.CreationDate,2021-04-12T20:34:26+01:00
; #@! TF.GenerationSoftware,Kicad,Pcbnew,5.1.9-73d0e3b20d~88~ubuntu20.10.1
; #@! TF.FileFunction,Plated,1,2,PTH
FMAT,2
INCH
T1C0.0157
T2C0.0315
T3C0.0394
%
G90
G05
T1
X5.215Y-2.785
X5.315Y-2.9
X5.315Y-3.08
X5.325Y-2.58
X5.365Y-2.5229
X5.405Y-2.49
X5.75Y-3.935
X5.77Y-2.95
X5.77Y-3.235
X5.85Y-4.13
X5.885Y-3.035
X5.895Y-3.25
X5.905Y-3.14
X5.985Y-3.64
X6.0Y-4.17
X6.0447Y-3.3353
X6.075Y-2.605
X6.1077Y-3.9577
X6.17Y-4.175
X6.185Y-4.045
X6.2Y-3.115
X6.2Y-3.345
X6.225Y-3.455
X6.23Y-3.635
X6.2626Y-3.825
X6.265Y-3.115
X6.275Y-2.92
X6.28Y-3.475
X6.295Y-3.795
X6.3Y-3.64
X6.32Y-3.4
X6.325Y-3.825
X6.34Y-3.485
X6.355Y-3.94
X6.36Y-3.09
X6.375Y-3.61
X6.39Y-3.8
X6.42Y-3.32
X6.435Y-3.53
X6.435Y-3.595
X6.455Y-3.87
X6.475Y-2.915
X6.485Y-3.325
X6.485Y-3.415
X6.5Y-3.52
X6.62Y-2.98
X6.7Y-2.58
X6.725Y-3.51
X6.725Y-3.575
X6.725Y-3.64
X6.7305Y-3.3855
X6.775Y-3.605
X6.9Y-4.155
X6.995Y-4.155
X7.25Y-4.14
X7.325Y-2.985
T2
X3.745Y-2.485
X3.745Y-4.085
X5.15Y-4.12
X5.655Y-4.115
X5.8016Y-4.1716
X6.28Y-4.155
X8.05Y-4.12
X9.46Y-2.48
X9.46Y-4.085
T3
X4.585Y-2.7
X4.585Y-2.8
X4.585Y-3.015
X4.585Y-3.115
X4.585Y-3.33
X4.585Y-3.43
X4.945Y-2.69
X4.945Y-2.79
X4.945Y-2.89
X4.945Y-2.99
X4.945Y-3.09
X4.945Y-3.19
X5.475Y-2.685
X5.475Y-2.785
X5.575Y-2.685
X5.575Y-2.785
X5.675Y-2.685
X5.675Y-2.785
X5.775Y-2.685
X5.775Y-2.785
X5.875Y-2.685
X5.875Y-2.785
X5.975Y-2.685
X5.975Y-2.785
X6.075Y-2.685
X6.075Y-2.785
X6.175Y-2.685
X6.175Y-2.785
X6.275Y-2.685
X6.275Y-2.785
X6.375Y-2.685
X6.375Y-2.785
X6.475Y-2.685
X6.475Y-2.785
X6.575Y-2.685
X6.575Y-2.785
X6.675Y-2.685
X6.675Y-2.785
X6.775Y-2.685
X6.775Y-2.785
X6.875Y-2.685
X6.875Y-2.785
X6.975Y-2.685
X6.975Y-2.785
X7.075Y-2.685
X7.075Y-2.785
X7.175Y-2.685
X7.175Y-2.785
X7.275Y-2.685
X7.275Y-2.785
X7.375Y-2.685
X7.375Y-2.785
X7.84Y-2.705
X7.84Y-2.805
X7.84Y-3.02
X7.84Y-3.12
X7.84Y-3.335
X7.84Y-3.435
T0
M30
