G04 #@! TF.GenerationSoftware,KiCad,Pcbnew,6.99.0-1.20221013git3090363.fc36*
G04 #@! TF.CreationDate,2022-10-19T07:31:51+01:00*
G04 #@! TF.ProjectId,videoslotadapter,76696465-6f73-46c6-9f74-616461707465,rev?*
G04 #@! TF.SameCoordinates,Original*
G04 #@! TF.FileFunction,Soldermask,Top*
G04 #@! TF.FilePolarity,Negative*
%FSLAX46Y46*%
G04 Gerber Fmt 4.6, Leading zero omitted, Abs format (unit mm)*
G04 Created by KiCad (PCBNEW 6.99.0-1.20221013git3090363.fc36) date 2022-10-19 07:31:51*
%MOMM*%
%LPD*%
G01*
G04 APERTURE LIST*
G04 Aperture macros list*
%AMRoundRect*
0 Rectangle with rounded corners*
0 $1 Rounding radius*
0 $2 $3 $4 $5 $6 $7 $8 $9 X,Y pos of 4 corners*
0 Add a 4 corners polygon primitive as box body*
4,1,4,$2,$3,$4,$5,$6,$7,$8,$9,$2,$3,0*
0 Add four circle primitives for the rounded corners*
1,1,$1+$1,$2,$3*
1,1,$1+$1,$4,$5*
1,1,$1+$1,$6,$7*
1,1,$1+$1,$8,$9*
0 Add four rect primitives between the rounded corners*
20,1,$1+$1,$2,$3,$4,$5,0*
20,1,$1+$1,$4,$5,$6,$7,0*
20,1,$1+$1,$6,$7,$8,$9,0*
20,1,$1+$1,$8,$9,$2,$3,0*%
G04 Aperture macros list end*
%ADD10RoundRect,0.200000X-0.890000X-3.810000X0.890000X-3.810000X0.890000X3.810000X-0.890000X3.810000X0*%
%ADD11RoundRect,0.437500X0.044194X0.380070X-0.380070X-0.044194X-0.044194X-0.380070X0.380070X0.044194X0*%
%ADD12RoundRect,0.437500X0.380070X-0.044194X-0.044194X0.380070X-0.380070X0.044194X0.044194X-0.380070X0*%
%ADD13RoundRect,0.437500X-0.044194X-0.380070X0.380070X0.044194X0.044194X0.380070X-0.380070X-0.044194X0*%
%ADD14C,1.200000*%
%ADD15C,6.800000*%
%ADD16RoundRect,0.200000X-0.850000X-0.850000X0.850000X-0.850000X0.850000X0.850000X-0.850000X0.850000X0*%
%ADD17O,2.100000X2.100000*%
%ADD18RoundRect,0.437500X-0.287500X-0.237500X0.287500X-0.237500X0.287500X0.237500X-0.287500X0.237500X0*%
%ADD19RoundRect,0.437500X-0.035355X-0.371231X0.371231X0.035355X0.035355X0.371231X-0.371231X-0.035355X0*%
%ADD20RoundRect,0.200000X0.724784X-0.335876X-0.335876X0.724784X-0.724784X0.335876X0.335876X-0.724784X0*%
%ADD21RoundRect,0.200000X0.335876X0.724784X-0.724784X-0.335876X-0.335876X-0.724784X0.724784X0.335876X0*%
%ADD22C,5.800000*%
%ADD23C,2.600000*%
%ADD24C,2.100000*%
%ADD25RoundRect,0.450001X0.624999X-0.462499X0.624999X0.462499X-0.624999X0.462499X-0.624999X-0.462499X0*%
G04 APERTURE END LIST*
D10*
X209554000Y-112272000D03*
X207014000Y-112272000D03*
X204474000Y-112272000D03*
X201934000Y-112272000D03*
X199394000Y-112272000D03*
X196854000Y-112272000D03*
X194314000Y-112272000D03*
X191774000Y-112272000D03*
X189234000Y-112272000D03*
X186694000Y-112272000D03*
X184154000Y-112272000D03*
X181614000Y-112272000D03*
X179074000Y-112272000D03*
X176534000Y-112272000D03*
X173994000Y-112272000D03*
X171454000Y-112272000D03*
X168914000Y-112272000D03*
X166374000Y-112272000D03*
X156214000Y-112272000D03*
X153674000Y-112272000D03*
X151134000Y-112272000D03*
X148594000Y-112272000D03*
X146054000Y-112272000D03*
X143514000Y-112272000D03*
X140974000Y-112272000D03*
X138434000Y-112272000D03*
X135894000Y-112272000D03*
X133354000Y-112272000D03*
X130814000Y-112272000D03*
X128274000Y-112272000D03*
X125734000Y-112272000D03*
X123194000Y-112272000D03*
X120654000Y-112272000D03*
X118114000Y-112272000D03*
X115574000Y-112272000D03*
X113034000Y-112272000D03*
D11*
X178859880Y-83340120D03*
X177640120Y-84559880D03*
D12*
X182550000Y-72200000D03*
X181330240Y-70980240D03*
D13*
X194540120Y-74509880D03*
X195759880Y-73290120D03*
D14*
X233800000Y-54450000D03*
X234502944Y-52752944D03*
X234502944Y-56147056D03*
X236200000Y-52050000D03*
D15*
X236200000Y-54450000D03*
D14*
X236200000Y-56850000D03*
X237897056Y-52752944D03*
X237897056Y-56147056D03*
X238600000Y-54450000D03*
X233650000Y-96100000D03*
X234352944Y-94402944D03*
X234352944Y-97797056D03*
X236050000Y-93700000D03*
D15*
X236050000Y-96100000D03*
D14*
X236050000Y-98500000D03*
X237747056Y-94402944D03*
X237747056Y-97797056D03*
X238450000Y-96100000D03*
D16*
X218450000Y-50500000D03*
D17*
X215909999Y-50499999D03*
X218449999Y-53039999D03*
X215909999Y-53039999D03*
X218449999Y-55579999D03*
X215909999Y-55579999D03*
X218449999Y-58119999D03*
X215909999Y-58119999D03*
X218449999Y-60659999D03*
X215909999Y-60659999D03*
X218449999Y-63199999D03*
X215909999Y-63199999D03*
X218449999Y-65739999D03*
X215909999Y-65739999D03*
X218449999Y-68279999D03*
X215909999Y-68279999D03*
X218449999Y-70819999D03*
X215909999Y-70819999D03*
X218449999Y-73359999D03*
X215909999Y-73359999D03*
X218449999Y-75899999D03*
X215909999Y-75899999D03*
X218449999Y-78439999D03*
X215909999Y-78439999D03*
X218449999Y-80979999D03*
X215909999Y-80979999D03*
X218449999Y-83519999D03*
X215909999Y-83519999D03*
X218449999Y-86059999D03*
X215909999Y-86059999D03*
X218449999Y-88599999D03*
X215909999Y-88599999D03*
X218449999Y-91139999D03*
X215909999Y-91139999D03*
X218449999Y-93679999D03*
X215909999Y-93679999D03*
X218449999Y-96219999D03*
X215909999Y-96219999D03*
X218449999Y-98759999D03*
X215909999Y-98759999D03*
D18*
X221425000Y-83550000D03*
X223175000Y-83550000D03*
D19*
X192331282Y-72418718D03*
X193568718Y-71181282D03*
D20*
X188552082Y-86208936D03*
X189117767Y-85643250D03*
X189683452Y-85077565D03*
X190249138Y-84511880D03*
X190814823Y-83946194D03*
X191380509Y-83380509D03*
X191946194Y-82814823D03*
X192511880Y-82249138D03*
X193077565Y-81683452D03*
X193643250Y-81117767D03*
X194208936Y-80552082D03*
D21*
X194208936Y-78147918D03*
X193643250Y-77582233D03*
X193077565Y-77016548D03*
X192511880Y-76450862D03*
X191946194Y-75885177D03*
X191380509Y-75319491D03*
X190814823Y-74753806D03*
X190249138Y-74188120D03*
X189683452Y-73622435D03*
X189117767Y-73056750D03*
X188552082Y-72491064D03*
D20*
X186147918Y-72491064D03*
X185582233Y-73056750D03*
X185016548Y-73622435D03*
X184450862Y-74188120D03*
X183885177Y-74753806D03*
X183319491Y-75319491D03*
X182753806Y-75885177D03*
X182188120Y-76450862D03*
X181622435Y-77016548D03*
X181056750Y-77582233D03*
X180491064Y-78147918D03*
D21*
X180491064Y-80552082D03*
X181056750Y-81117767D03*
X181622435Y-81683452D03*
X182188120Y-82249138D03*
X182753806Y-82814823D03*
X183319491Y-83380509D03*
X183885177Y-83946194D03*
X184450862Y-84511880D03*
X185016548Y-85077565D03*
X185582233Y-85643250D03*
X186147918Y-86208936D03*
D14*
X215175000Y-103600000D03*
X215768109Y-102168109D03*
X215768109Y-105031891D03*
X217200000Y-101575000D03*
D22*
X217200000Y-103600000D03*
D14*
X217200000Y-105625000D03*
X218631891Y-102168109D03*
X218631891Y-105031891D03*
X219225000Y-103600000D03*
X215175000Y-45600000D03*
X215768109Y-44168109D03*
X215768109Y-47031891D03*
X217200000Y-43575000D03*
D22*
X217200000Y-45600000D03*
D14*
X217200000Y-47625000D03*
X218631891Y-44168109D03*
X218631891Y-47031891D03*
X219225000Y-45600000D03*
X238175000Y-45600000D03*
X238768109Y-44168109D03*
X238768109Y-47031891D03*
X240200000Y-43575000D03*
D22*
X240200000Y-45600000D03*
D14*
X240200000Y-47625000D03*
X241631891Y-44168109D03*
X241631891Y-47031891D03*
X242225000Y-45600000D03*
X238175000Y-103600000D03*
X238768109Y-102168109D03*
X238768109Y-105031891D03*
X240200000Y-101575000D03*
D22*
X240200000Y-103600000D03*
D14*
X240200000Y-105625000D03*
X241631891Y-102168109D03*
X241631891Y-105031891D03*
X242225000Y-103600000D03*
D18*
X211006000Y-50536000D03*
X212756000Y-50536000D03*
D23*
X238225000Y-73974000D03*
X238225000Y-80974000D03*
D24*
X240725000Y-75224000D03*
X240725000Y-79724000D03*
D25*
X204470000Y-105627500D03*
X204470000Y-102652500D03*
D23*
X238225000Y-64174000D03*
X238225000Y-71174000D03*
D24*
X240725000Y-65424000D03*
X240725000Y-69924000D03*
D18*
X210961000Y-53086000D03*
X212711000Y-53086000D03*
D23*
X238225000Y-83749000D03*
X238225000Y-90749000D03*
D24*
X240725000Y-84999000D03*
X240725000Y-89499000D03*
M02*
