G04 #@! TF.GenerationSoftware,KiCad,Pcbnew,6.99.0-1.20221013git3090363.fc36*
G04 #@! TF.CreationDate,2022-10-19T07:31:51+01:00*
G04 #@! TF.ProjectId,videoslotadapter,76696465-6f73-46c6-9f74-616461707465,rev?*
G04 #@! TF.SameCoordinates,Original*
G04 #@! TF.FileFunction,Soldermask,Bot*
G04 #@! TF.FilePolarity,Negative*
%FSLAX46Y46*%
G04 Gerber Fmt 4.6, Leading zero omitted, Abs format (unit mm)*
G04 Created by KiCad (PCBNEW 6.99.0-1.20221013git3090363.fc36) date 2022-10-19 07:31:51*
%MOMM*%
%LPD*%
G01*
G04 APERTURE LIST*
G04 Aperture macros list*
%AMRoundRect*
0 Rectangle with rounded corners*
0 $1 Rounding radius*
0 $2 $3 $4 $5 $6 $7 $8 $9 X,Y pos of 4 corners*
0 Add a 4 corners polygon primitive as box body*
4,1,4,$2,$3,$4,$5,$6,$7,$8,$9,$2,$3,0*
0 Add four circle primitives for the rounded corners*
1,1,$1+$1,$2,$3*
1,1,$1+$1,$4,$5*
1,1,$1+$1,$6,$7*
1,1,$1+$1,$8,$9*
0 Add four rect primitives between the rounded corners*
20,1,$1+$1,$2,$3,$4,$5,0*
20,1,$1+$1,$4,$5,$6,$7,0*
20,1,$1+$1,$6,$7,$8,$9,0*
20,1,$1+$1,$8,$9,$2,$3,0*%
G04 Aperture macros list end*
%ADD10RoundRect,0.200000X-0.890000X-3.810000X0.890000X-3.810000X0.890000X3.810000X-0.890000X3.810000X0*%
%ADD11C,1.200000*%
%ADD12C,6.800000*%
%ADD13RoundRect,0.200000X-0.850000X-0.850000X0.850000X-0.850000X0.850000X0.850000X-0.850000X0.850000X0*%
%ADD14O,2.100000X2.100000*%
%ADD15C,5.800000*%
%ADD16C,2.600000*%
%ADD17C,2.100000*%
G04 APERTURE END LIST*
D10*
X209554000Y-112272000D03*
X207014000Y-112272000D03*
X204474000Y-112272000D03*
X201934000Y-112272000D03*
X199394000Y-112272000D03*
X196854000Y-112272000D03*
X194314000Y-112272000D03*
X191774000Y-112272000D03*
X189234000Y-112272000D03*
X186694000Y-112272000D03*
X184154000Y-112272000D03*
X181614000Y-112272000D03*
X179074000Y-112272000D03*
X176534000Y-112272000D03*
X173994000Y-112272000D03*
X171454000Y-112272000D03*
X168914000Y-112272000D03*
X166374000Y-112272000D03*
X156214000Y-112272000D03*
X153674000Y-112272000D03*
X151134000Y-112272000D03*
X148594000Y-112272000D03*
X146054000Y-112272000D03*
X143514000Y-112272000D03*
X140974000Y-112272000D03*
X138434000Y-112272000D03*
X135894000Y-112272000D03*
X133354000Y-112272000D03*
X130814000Y-112272000D03*
X128274000Y-112272000D03*
X125734000Y-112272000D03*
X123194000Y-112272000D03*
X120654000Y-112272000D03*
X118114000Y-112272000D03*
X115574000Y-112272000D03*
X113034000Y-112272000D03*
D11*
X233800000Y-54450000D03*
X234502944Y-52752944D03*
X234502944Y-56147056D03*
X236200000Y-52050000D03*
D12*
X236200000Y-54450000D03*
D11*
X236200000Y-56850000D03*
X237897056Y-52752944D03*
X237897056Y-56147056D03*
X238600000Y-54450000D03*
X233650000Y-96100000D03*
X234352944Y-94402944D03*
X234352944Y-97797056D03*
X236050000Y-93700000D03*
D12*
X236050000Y-96100000D03*
D11*
X236050000Y-98500000D03*
X237747056Y-94402944D03*
X237747056Y-97797056D03*
X238450000Y-96100000D03*
D13*
X218450000Y-50500000D03*
D14*
X215909999Y-50499999D03*
X218449999Y-53039999D03*
X215909999Y-53039999D03*
X218449999Y-55579999D03*
X215909999Y-55579999D03*
X218449999Y-58119999D03*
X215909999Y-58119999D03*
X218449999Y-60659999D03*
X215909999Y-60659999D03*
X218449999Y-63199999D03*
X215909999Y-63199999D03*
X218449999Y-65739999D03*
X215909999Y-65739999D03*
X218449999Y-68279999D03*
X215909999Y-68279999D03*
X218449999Y-70819999D03*
X215909999Y-70819999D03*
X218449999Y-73359999D03*
X215909999Y-73359999D03*
X218449999Y-75899999D03*
X215909999Y-75899999D03*
X218449999Y-78439999D03*
X215909999Y-78439999D03*
X218449999Y-80979999D03*
X215909999Y-80979999D03*
X218449999Y-83519999D03*
X215909999Y-83519999D03*
X218449999Y-86059999D03*
X215909999Y-86059999D03*
X218449999Y-88599999D03*
X215909999Y-88599999D03*
X218449999Y-91139999D03*
X215909999Y-91139999D03*
X218449999Y-93679999D03*
X215909999Y-93679999D03*
X218449999Y-96219999D03*
X215909999Y-96219999D03*
X218449999Y-98759999D03*
X215909999Y-98759999D03*
D11*
X215175000Y-103600000D03*
X215768109Y-102168109D03*
X215768109Y-105031891D03*
X217200000Y-101575000D03*
D15*
X217200000Y-103600000D03*
D11*
X217200000Y-105625000D03*
X218631891Y-102168109D03*
X218631891Y-105031891D03*
X219225000Y-103600000D03*
X215175000Y-45600000D03*
X215768109Y-44168109D03*
X215768109Y-47031891D03*
X217200000Y-43575000D03*
D15*
X217200000Y-45600000D03*
D11*
X217200000Y-47625000D03*
X218631891Y-44168109D03*
X218631891Y-47031891D03*
X219225000Y-45600000D03*
X238175000Y-45600000D03*
X238768109Y-44168109D03*
X238768109Y-47031891D03*
X240200000Y-43575000D03*
D15*
X240200000Y-45600000D03*
D11*
X240200000Y-47625000D03*
X241631891Y-44168109D03*
X241631891Y-47031891D03*
X242225000Y-45600000D03*
X238175000Y-103600000D03*
X238768109Y-102168109D03*
X238768109Y-105031891D03*
X240200000Y-101575000D03*
D15*
X240200000Y-103600000D03*
D11*
X240200000Y-105625000D03*
X241631891Y-102168109D03*
X241631891Y-105031891D03*
X242225000Y-103600000D03*
D16*
X238225000Y-73974000D03*
X238225000Y-80974000D03*
D17*
X240725000Y-75224000D03*
X240725000Y-79724000D03*
D16*
X238225000Y-64174000D03*
X238225000Y-71174000D03*
D17*
X240725000Y-65424000D03*
X240725000Y-69924000D03*
D16*
X238225000Y-83749000D03*
X238225000Y-90749000D03*
D17*
X240725000Y-84999000D03*
X240725000Y-89499000D03*
M02*
