%TF.GenerationSoftware,KiCad,Pcbnew,5.1.10-1.fc34*%
%TF.CreationDate,2021-05-10T11:03:14+01:00*%
%TF.ProjectId,A1000,41313030-302e-46b6-9963-61645f706362,rev?*%
%TF.SameCoordinates,Original*%
%TF.FileFunction,Soldermask,Top*%
%TF.FilePolarity,Negative*%
%FSLAX46Y46*%
G04 Gerber Fmt 4.6, Leading zero omitted, Abs format (unit mm)*
G04 Created by KiCad (PCBNEW 5.1.10-1.fc34) date 2021-05-10 11:03:14*
%MOMM*%
%LPD*%
G01*
G04 APERTURE LIST*
%ADD10O,1.700000X1.700000*%
%ADD11R,1.700000X1.700000*%
%ADD12O,2.000000X1.200000*%
%ADD13R,1.500000X0.550000*%
%ADD14R,0.550000X1.500000*%
%ADD15O,1.600000X1.600000*%
%ADD16R,1.600000X1.600000*%
G04 APERTURE END LIST*
%TO.C,R1*%
G36*
G01*
X117618500Y-94254500D02*
X118093500Y-94254500D01*
G75*
G02*
X118331000Y-94492000I0J-237500D01*
G01*
X118331000Y-94992000D01*
G75*
G02*
X118093500Y-95229500I-237500J0D01*
G01*
X117618500Y-95229500D01*
G75*
G02*
X117381000Y-94992000I0J237500D01*
G01*
X117381000Y-94492000D01*
G75*
G02*
X117618500Y-94254500I237500J0D01*
G01*
G37*
G36*
G01*
X117618500Y-92429500D02*
X118093500Y-92429500D01*
G75*
G02*
X118331000Y-92667000I0J-237500D01*
G01*
X118331000Y-93167000D01*
G75*
G02*
X118093500Y-93404500I-237500J0D01*
G01*
X117618500Y-93404500D01*
G75*
G02*
X117381000Y-93167000I0J237500D01*
G01*
X117381000Y-92667000D01*
G75*
G02*
X117618500Y-92429500I237500J0D01*
G01*
G37*
%TD*%
D10*
%TO.C,JP3*%
X140208000Y-80264000D03*
D11*
X140208000Y-77724000D03*
%TD*%
D10*
%TO.C,JP2*%
X140208000Y-73914000D03*
D11*
X140208000Y-71374000D03*
%TD*%
%TO.C,J2*%
X85344000Y-59436000D03*
%TD*%
D12*
%TO.C,U2*%
X90370000Y-70070000D03*
X75130000Y-70070000D03*
X90370000Y-72610000D03*
X75130000Y-72610000D03*
X90370000Y-75150000D03*
X75130000Y-75150000D03*
X90370000Y-77690000D03*
X75130000Y-77690000D03*
X90370000Y-80230000D03*
X75130000Y-80230000D03*
X90370000Y-82770000D03*
X75130000Y-82770000D03*
X90370000Y-85310000D03*
X75130000Y-85310000D03*
X90370000Y-87850000D03*
X75130000Y-87850000D03*
X90370000Y-90390000D03*
X75130000Y-90390000D03*
X90370000Y-92930000D03*
X75130000Y-92930000D03*
X90370000Y-95470000D03*
X75130000Y-95470000D03*
X90370000Y-98010000D03*
X75130000Y-98010000D03*
X90370000Y-100550000D03*
X75130000Y-100550000D03*
X90370000Y-103090000D03*
X75130000Y-103090000D03*
X90370000Y-105630000D03*
X75130000Y-105630000D03*
X90370000Y-108170000D03*
X75130000Y-108170000D03*
X90370000Y-110710000D03*
X75130000Y-110710000D03*
X90370000Y-113250000D03*
X75130000Y-113250000D03*
X90370000Y-115790000D03*
X75130000Y-115790000D03*
X90370000Y-118330000D03*
X75130000Y-118330000D03*
X90370000Y-120870000D03*
X75130000Y-120870000D03*
X90370000Y-123410000D03*
X75130000Y-123410000D03*
X90370000Y-125950000D03*
X75130000Y-125950000D03*
X90370000Y-128490000D03*
X75130000Y-128490000D03*
%TD*%
D10*
%TO.C,JP1*%
X140208000Y-67564000D03*
D11*
X140208000Y-65024000D03*
%TD*%
D13*
%TO.C,U3*%
X111300000Y-87500000D03*
X111300000Y-86700000D03*
X111300000Y-85900000D03*
X111300000Y-85100000D03*
X111300000Y-84300000D03*
X111300000Y-83500000D03*
X111300000Y-82700000D03*
X111300000Y-81900000D03*
X111300000Y-81100000D03*
X111300000Y-80300000D03*
X111300000Y-79500000D03*
D14*
X113000000Y-77800000D03*
X113800000Y-77800000D03*
X114600000Y-77800000D03*
X115400000Y-77800000D03*
X116200000Y-77800000D03*
X117000000Y-77800000D03*
X117800000Y-77800000D03*
X118600000Y-77800000D03*
X119400000Y-77800000D03*
X120200000Y-77800000D03*
X121000000Y-77800000D03*
D13*
X122700000Y-79500000D03*
X122700000Y-80300000D03*
X122700000Y-81100000D03*
X122700000Y-81900000D03*
X122700000Y-82700000D03*
X122700000Y-83500000D03*
X122700000Y-84300000D03*
X122700000Y-85100000D03*
X122700000Y-85900000D03*
X122700000Y-86700000D03*
X122700000Y-87500000D03*
D14*
X121000000Y-89200000D03*
X120200000Y-89200000D03*
X119400000Y-89200000D03*
X118600000Y-89200000D03*
X117800000Y-89200000D03*
X117000000Y-89200000D03*
X116200000Y-89200000D03*
X115400000Y-89200000D03*
X114600000Y-89200000D03*
X113800000Y-89200000D03*
X113000000Y-89200000D03*
%TD*%
D15*
%TO.C,U1*%
X72010000Y-128500000D03*
X87250000Y-70080000D03*
X72010000Y-125960000D03*
X87250000Y-72620000D03*
X72010000Y-123420000D03*
X87250000Y-75160000D03*
X72010000Y-120880000D03*
X87250000Y-77700000D03*
X72010000Y-118340000D03*
X87250000Y-80240000D03*
X72010000Y-115800000D03*
X87250000Y-82780000D03*
X72010000Y-113260000D03*
X87250000Y-85320000D03*
X72010000Y-110720000D03*
X87250000Y-87860000D03*
X72010000Y-108180000D03*
X87250000Y-90400000D03*
X72010000Y-105640000D03*
X87250000Y-92940000D03*
X72010000Y-103100000D03*
X87250000Y-95480000D03*
X72010000Y-100560000D03*
X87250000Y-98020000D03*
X72010000Y-98020000D03*
X87250000Y-100560000D03*
X72010000Y-95480000D03*
X87250000Y-103100000D03*
X72010000Y-92940000D03*
X87250000Y-105640000D03*
X72010000Y-90400000D03*
X87250000Y-108180000D03*
X72010000Y-87860000D03*
X87250000Y-110720000D03*
X72010000Y-85320000D03*
X87250000Y-113260000D03*
X72010000Y-82780000D03*
X87250000Y-115800000D03*
X72010000Y-80240000D03*
X87250000Y-118340000D03*
X72010000Y-77700000D03*
X87250000Y-120880000D03*
X72010000Y-75160000D03*
X87250000Y-123420000D03*
X72010000Y-72620000D03*
X87250000Y-125960000D03*
X72010000Y-70080000D03*
D16*
X87250000Y-128500000D03*
%TD*%
%TO.C,R2*%
G36*
G01*
X130219000Y-82025500D02*
X130219000Y-81550500D01*
G75*
G02*
X130456500Y-81313000I237500J0D01*
G01*
X130956500Y-81313000D01*
G75*
G02*
X131194000Y-81550500I0J-237500D01*
G01*
X131194000Y-82025500D01*
G75*
G02*
X130956500Y-82263000I-237500J0D01*
G01*
X130456500Y-82263000D01*
G75*
G02*
X130219000Y-82025500I0J237500D01*
G01*
G37*
G36*
G01*
X128394000Y-82025500D02*
X128394000Y-81550500D01*
G75*
G02*
X128631500Y-81313000I237500J0D01*
G01*
X129131500Y-81313000D01*
G75*
G02*
X129369000Y-81550500I0J-237500D01*
G01*
X129369000Y-82025500D01*
G75*
G02*
X129131500Y-82263000I-237500J0D01*
G01*
X128631500Y-82263000D01*
G75*
G02*
X128394000Y-82025500I0J237500D01*
G01*
G37*
%TD*%
D10*
%TO.C,J1*%
X143760000Y-61290000D03*
X143760000Y-58750000D03*
X141220000Y-61290000D03*
X141220000Y-58750000D03*
X138680000Y-61290000D03*
X138680000Y-58750000D03*
X136140000Y-61290000D03*
X136140000Y-58750000D03*
X133600000Y-61290000D03*
X133600000Y-58750000D03*
X131060000Y-61290000D03*
X131060000Y-58750000D03*
X128520000Y-61290000D03*
X128520000Y-58750000D03*
X125980000Y-61290000D03*
X125980000Y-58750000D03*
X123440000Y-61290000D03*
X123440000Y-58750000D03*
X120900000Y-61290000D03*
X120900000Y-58750000D03*
X118360000Y-61290000D03*
X118360000Y-58750000D03*
X115820000Y-61290000D03*
X115820000Y-58750000D03*
X113280000Y-61290000D03*
X113280000Y-58750000D03*
X110740000Y-61290000D03*
X110740000Y-58750000D03*
X108200000Y-61290000D03*
X108200000Y-58750000D03*
X105660000Y-61290000D03*
X105660000Y-58750000D03*
X103120000Y-61290000D03*
X103120000Y-58750000D03*
X100580000Y-61290000D03*
X100580000Y-58750000D03*
X98040000Y-61290000D03*
X98040000Y-58750000D03*
X95500000Y-61290000D03*
D11*
X95500000Y-58750000D03*
%TD*%
%TO.C,C3*%
G36*
G01*
X130075000Y-85237500D02*
X130075000Y-84762500D01*
G75*
G02*
X130312500Y-84525000I237500J0D01*
G01*
X130912500Y-84525000D01*
G75*
G02*
X131150000Y-84762500I0J-237500D01*
G01*
X131150000Y-85237500D01*
G75*
G02*
X130912500Y-85475000I-237500J0D01*
G01*
X130312500Y-85475000D01*
G75*
G02*
X130075000Y-85237500I0J237500D01*
G01*
G37*
G36*
G01*
X128350000Y-85237500D02*
X128350000Y-84762500D01*
G75*
G02*
X128587500Y-84525000I237500J0D01*
G01*
X129187500Y-84525000D01*
G75*
G02*
X129425000Y-84762500I0J-237500D01*
G01*
X129425000Y-85237500D01*
G75*
G02*
X129187500Y-85475000I-237500J0D01*
G01*
X128587500Y-85475000D01*
G75*
G02*
X128350000Y-85237500I0J237500D01*
G01*
G37*
%TD*%
M02*
