M48
; DRILL file {KiCad 5.99.0-1.20211005git2a932c2.fc35} date Wed 06 Oct 2021 13:33:08 BST
; FORMAT={-:-/ absolute / metric / decimal}
; #@! TF.CreationDate,2021-10-06T13:33:08+01:00
; #@! TF.GenerationSoftware,Kicad,Pcbnew,5.99.0-1.20211005git2a932c2.fc35
; #@! TF.FileFunction,Plated,1,2,PTH
FMAT,2
METRIC
; #@! TA.AperFunction,Plated,PTH,ViaDrill
T1C0.400
; #@! TA.AperFunction,Plated,PTH,ComponentDrill
T2C0.800
; #@! TA.AperFunction,Plated,PTH,ComponentDrill
T3C1.000
%
G90
G05
T1
X69.596Y-124.206
X79.756Y-64.516
X80.01Y-78.74
X80.518Y-82.55
X80.772Y-94.488
X80.772Y-125.984
X84.836Y-71.882
X89.408Y-66.04
X93.218Y-125.984
X93.98Y-74.422
X94.488Y-85.344
X94.996Y-64.008
X95.758Y-65.786
X96.52Y-85.344
X101.092Y-75.946
X105.41Y-77.978
X105.872Y-85.922
X106.172Y-73.914
X106.426Y-70.612
X106.426Y-85.09
X106.68Y-86.624
X107.442Y-78.74
X108.966Y-87.63
X111.252Y-92.456
X111.76Y-90.678
X112.268Y-91.694
X112.776Y-75.946
X113.792Y-95.605
X114.226Y-81.1
X114.3Y-73.152
X115.57Y-65.786
X117.0Y-91.092
X117.856Y-92.541
X118.216Y-85.09
X118.5Y-71.221
X118.618Y-95.504
X119.38Y-91.44
X120.904Y-85.09
X126.238Y-79.756
X127.254Y-74.93
X129.794Y-79.248
X134.874Y-84.074
X136.144Y-89.408
T2
X72.01Y-70.08
X72.01Y-72.62
X72.01Y-75.16
X72.01Y-77.7
X72.01Y-80.24
X72.01Y-82.78
X72.01Y-85.32
X72.01Y-87.86
X72.01Y-90.4
X72.01Y-92.94
X72.01Y-95.48
X72.01Y-98.02
X72.01Y-100.56
X72.01Y-103.1
X72.01Y-105.64
X72.01Y-108.18
X72.01Y-110.72
X72.01Y-113.26
X72.01Y-115.8
X72.01Y-118.34
X72.01Y-120.88
X72.01Y-123.42
X72.01Y-125.96
X72.01Y-128.5
X75.13Y-70.07
X75.13Y-72.61
X75.13Y-75.15
X75.13Y-77.69
X75.13Y-80.23
X75.13Y-82.77
X75.13Y-85.31
X75.13Y-87.85
X75.13Y-90.39
X75.13Y-92.93
X75.13Y-95.47
X75.13Y-98.01
X75.13Y-100.55
X75.13Y-103.09
X75.13Y-105.63
X75.13Y-108.17
X75.13Y-110.71
X75.13Y-113.25
X75.13Y-115.79
X75.13Y-118.33
X75.13Y-120.87
X75.13Y-123.41
X75.13Y-125.95
X75.13Y-128.49
X87.25Y-70.08
X87.25Y-72.62
X87.25Y-75.16
X87.25Y-77.7
X87.25Y-80.24
X87.25Y-82.78
X87.25Y-85.32
X87.25Y-87.86
X87.25Y-90.4
X87.25Y-92.94
X87.25Y-95.48
X87.25Y-98.02
X87.25Y-100.56
X87.25Y-103.1
X87.25Y-105.64
X87.25Y-108.18
X87.25Y-110.72
X87.25Y-113.26
X87.25Y-115.8
X87.25Y-118.34
X87.25Y-120.88
X87.25Y-123.42
X87.25Y-125.96
X87.25Y-128.5
X90.37Y-70.07
X90.37Y-72.61
X90.37Y-75.15
X90.37Y-77.69
X90.37Y-80.23
X90.37Y-82.77
X90.37Y-85.31
X90.37Y-87.85
X90.37Y-90.39
X90.37Y-92.93
X90.37Y-95.47
X90.37Y-98.01
X90.37Y-100.55
X90.37Y-103.09
X90.37Y-105.63
X90.37Y-108.17
X90.37Y-110.71
X90.37Y-113.25
X90.37Y-115.79
X90.37Y-118.33
X90.37Y-120.87
X90.37Y-123.41
X90.37Y-125.95
X90.37Y-128.49
T3
X85.344Y-59.436
X95.5Y-58.75
X95.5Y-61.29
X98.04Y-58.75
X98.04Y-61.29
X100.58Y-58.75
X100.58Y-61.29
X103.12Y-58.75
X103.12Y-61.29
X105.66Y-58.75
X105.66Y-61.29
X108.2Y-58.75
X108.2Y-61.29
X110.74Y-58.75
X110.74Y-61.29
X113.28Y-58.75
X113.28Y-61.29
X115.82Y-58.75
X115.82Y-61.29
X118.36Y-58.75
X118.36Y-61.29
X120.9Y-58.75
X120.9Y-61.29
X123.44Y-58.75
X123.44Y-61.29
X125.98Y-58.75
X125.98Y-61.29
X128.52Y-58.75
X128.52Y-61.29
X131.06Y-58.75
X131.06Y-61.29
X133.6Y-58.75
X133.6Y-61.29
X136.14Y-58.75
X136.14Y-61.29
X138.68Y-58.75
X138.68Y-61.29
X140.208Y-65.024
X140.208Y-67.564
X140.208Y-71.374
X140.208Y-73.914
X140.208Y-77.724
X140.208Y-80.264
X141.22Y-58.75
X141.22Y-61.29
X143.76Y-58.75
X143.76Y-61.29
T0
M30
