%TF.GenerationSoftware,KiCad,Pcbnew,5.1.10-1.fc34*%
%TF.CreationDate,2021-05-10T11:03:14+01:00*%
%TF.ProjectId,A1000,41313030-302e-46b6-9963-61645f706362,rev?*%
%TF.SameCoordinates,Original*%
%TF.FileFunction,Legend,Top*%
%TF.FilePolarity,Positive*%
%FSLAX46Y46*%
G04 Gerber Fmt 4.6, Leading zero omitted, Abs format (unit mm)*
G04 Created by KiCad (PCBNEW 5.1.10-1.fc34) date 2021-05-10 11:03:14*
%MOMM*%
%LPD*%
G01*
G04 APERTURE LIST*
%ADD10C,0.150000*%
%ADD11C,0.120000*%
%ADD12C,0.100000*%
G04 APERTURE END LIST*
D10*
X98094000Y-64714380D02*
X98094000Y-63714380D01*
X98903523Y-64190571D02*
X98570190Y-64190571D01*
X98570190Y-64714380D02*
X98570190Y-63714380D01*
X99046380Y-63714380D01*
X100379714Y-64238190D02*
X100379714Y-64714380D01*
X100046380Y-63714380D02*
X100379714Y-64238190D01*
X100713047Y-63714380D01*
X101236857Y-63714380D02*
X101427333Y-63714380D01*
X101522571Y-63762000D01*
X101617809Y-63857238D01*
X101665428Y-64047714D01*
X101665428Y-64381047D01*
X101617809Y-64571523D01*
X101522571Y-64666761D01*
X101427333Y-64714380D01*
X101236857Y-64714380D01*
X101141619Y-64666761D01*
X101046380Y-64571523D01*
X100998761Y-64381047D01*
X100998761Y-64047714D01*
X101046380Y-63857238D01*
X101141619Y-63762000D01*
X101236857Y-63714380D01*
X102094000Y-63714380D02*
X102094000Y-64523904D01*
X102141619Y-64619142D01*
X102189238Y-64666761D01*
X102284476Y-64714380D01*
X102474952Y-64714380D01*
X102570190Y-64666761D01*
X102617809Y-64619142D01*
X102665428Y-64523904D01*
X102665428Y-63714380D01*
X104474952Y-64619142D02*
X104427333Y-64666761D01*
X104284476Y-64714380D01*
X104189238Y-64714380D01*
X104046380Y-64666761D01*
X103951142Y-64571523D01*
X103903523Y-64476285D01*
X103855904Y-64285809D01*
X103855904Y-64142952D01*
X103903523Y-63952476D01*
X103951142Y-63857238D01*
X104046380Y-63762000D01*
X104189238Y-63714380D01*
X104284476Y-63714380D01*
X104427333Y-63762000D01*
X104474952Y-63809619D01*
X104855904Y-64428666D02*
X105332095Y-64428666D01*
X104760666Y-64714380D02*
X105094000Y-63714380D01*
X105427333Y-64714380D01*
X105760666Y-64714380D02*
X105760666Y-63714380D01*
X106332095Y-64714380D01*
X106332095Y-63714380D01*
X108141619Y-64714380D02*
X107808285Y-64238190D01*
X107570190Y-64714380D02*
X107570190Y-63714380D01*
X107951142Y-63714380D01*
X108046380Y-63762000D01*
X108094000Y-63809619D01*
X108141619Y-63904857D01*
X108141619Y-64047714D01*
X108094000Y-64142952D01*
X108046380Y-64190571D01*
X107951142Y-64238190D01*
X107570190Y-64238190D01*
X108570190Y-64190571D02*
X108903523Y-64190571D01*
X109046380Y-64714380D02*
X108570190Y-64714380D01*
X108570190Y-63714380D01*
X109046380Y-63714380D01*
X109427333Y-64428666D02*
X109903523Y-64428666D01*
X109332095Y-64714380D02*
X109665428Y-63714380D01*
X109998761Y-64714380D01*
X110332095Y-64714380D02*
X110332095Y-63714380D01*
X110570190Y-63714380D01*
X110713047Y-63762000D01*
X110808285Y-63857238D01*
X110855904Y-63952476D01*
X110903523Y-64142952D01*
X110903523Y-64285809D01*
X110855904Y-64476285D01*
X110808285Y-64571523D01*
X110713047Y-64666761D01*
X110570190Y-64714380D01*
X110332095Y-64714380D01*
X111951142Y-63714380D02*
X112522571Y-63714380D01*
X112236857Y-64714380D02*
X112236857Y-63714380D01*
X112855904Y-64714380D02*
X112855904Y-63714380D01*
X112855904Y-64190571D02*
X113427333Y-64190571D01*
X113427333Y-64714380D02*
X113427333Y-63714380D01*
X113903523Y-64714380D02*
X113903523Y-63714380D01*
X114332095Y-64666761D02*
X114474952Y-64714380D01*
X114713047Y-64714380D01*
X114808285Y-64666761D01*
X114855904Y-64619142D01*
X114903523Y-64523904D01*
X114903523Y-64428666D01*
X114855904Y-64333428D01*
X114808285Y-64285809D01*
X114713047Y-64238190D01*
X114522571Y-64190571D01*
X114427333Y-64142952D01*
X114379714Y-64095333D01*
X114332095Y-64000095D01*
X114332095Y-63904857D01*
X114379714Y-63809619D01*
X114427333Y-63762000D01*
X114522571Y-63714380D01*
X114760666Y-63714380D01*
X114903523Y-63762000D01*
X115379714Y-64666761D02*
X115379714Y-64714380D01*
X115332095Y-64809619D01*
X115284476Y-64857238D01*
X116760666Y-64238190D02*
X116760666Y-64714380D01*
X116427333Y-63714380D02*
X116760666Y-64238190D01*
X117094000Y-63714380D01*
X117617809Y-63714380D02*
X117808285Y-63714380D01*
X117903523Y-63762000D01*
X117998761Y-63857238D01*
X118046380Y-64047714D01*
X118046380Y-64381047D01*
X117998761Y-64571523D01*
X117903523Y-64666761D01*
X117808285Y-64714380D01*
X117617809Y-64714380D01*
X117522571Y-64666761D01*
X117427333Y-64571523D01*
X117379714Y-64381047D01*
X117379714Y-64047714D01*
X117427333Y-63857238D01*
X117522571Y-63762000D01*
X117617809Y-63714380D01*
X118474952Y-63714380D02*
X118474952Y-64523904D01*
X118522571Y-64619142D01*
X118570190Y-64666761D01*
X118665428Y-64714380D01*
X118855904Y-64714380D01*
X118951142Y-64666761D01*
X118998761Y-64619142D01*
X119046380Y-64523904D01*
X119046380Y-63714380D01*
X120094000Y-64714380D02*
X119760666Y-64238190D01*
X119522571Y-64714380D02*
X119522571Y-63714380D01*
X119903523Y-63714380D01*
X119998761Y-63762000D01*
X120046380Y-63809619D01*
X120094000Y-63904857D01*
X120094000Y-64047714D01*
X120046380Y-64142952D01*
X119998761Y-64190571D01*
X119903523Y-64238190D01*
X119522571Y-64238190D01*
X121284476Y-64714380D02*
X121284476Y-63714380D01*
X121665428Y-63714380D01*
X121760666Y-63762000D01*
X121808285Y-63809619D01*
X121855904Y-63904857D01*
X121855904Y-64047714D01*
X121808285Y-64142952D01*
X121760666Y-64190571D01*
X121665428Y-64238190D01*
X121284476Y-64238190D01*
X122284476Y-64714380D02*
X122284476Y-63714380D01*
X123522571Y-64714380D02*
X123522571Y-63714380D01*
X123951142Y-64666761D02*
X124094000Y-64714380D01*
X124332095Y-64714380D01*
X124427333Y-64666761D01*
X124474952Y-64619142D01*
X124522571Y-64523904D01*
X124522571Y-64428666D01*
X124474952Y-64333428D01*
X124427333Y-64285809D01*
X124332095Y-64238190D01*
X124141619Y-64190571D01*
X124046380Y-64142952D01*
X123998761Y-64095333D01*
X123951142Y-64000095D01*
X123951142Y-63904857D01*
X123998761Y-63809619D01*
X124046380Y-63762000D01*
X124141619Y-63714380D01*
X124379714Y-63714380D01*
X124522571Y-63762000D01*
X125713047Y-63714380D02*
X125713047Y-64523904D01*
X125760666Y-64619142D01*
X125808285Y-64666761D01*
X125903523Y-64714380D01*
X126094000Y-64714380D01*
X126189238Y-64666761D01*
X126236857Y-64619142D01*
X126284476Y-64523904D01*
X126284476Y-63714380D01*
X126760666Y-64714380D02*
X126760666Y-63714380D01*
X127141619Y-63714380D01*
X127236857Y-63762000D01*
X127284476Y-63809619D01*
X127332095Y-63904857D01*
X127332095Y-64047714D01*
X127284476Y-64142952D01*
X127236857Y-64190571D01*
X127141619Y-64238190D01*
X126760666Y-64238190D01*
X127713047Y-64666761D02*
X127855904Y-64714380D01*
X128094000Y-64714380D01*
X128189238Y-64666761D01*
X128236857Y-64619142D01*
X128284476Y-64523904D01*
X128284476Y-64428666D01*
X128236857Y-64333428D01*
X128189238Y-64285809D01*
X128094000Y-64238190D01*
X127903523Y-64190571D01*
X127808285Y-64142952D01*
X127760666Y-64095333D01*
X127713047Y-64000095D01*
X127713047Y-63904857D01*
X127760666Y-63809619D01*
X127808285Y-63762000D01*
X127903523Y-63714380D01*
X128141619Y-63714380D01*
X128284476Y-63762000D01*
X128713047Y-64714380D02*
X128713047Y-63714380D01*
X129189238Y-64714380D02*
X129189238Y-63714380D01*
X129427333Y-63714380D01*
X129570190Y-63762000D01*
X129665428Y-63857238D01*
X129713047Y-63952476D01*
X129760666Y-64142952D01*
X129760666Y-64285809D01*
X129713047Y-64476285D01*
X129665428Y-64571523D01*
X129570190Y-64666761D01*
X129427333Y-64714380D01*
X129189238Y-64714380D01*
X130189238Y-64190571D02*
X130522571Y-64190571D01*
X130665428Y-64714380D02*
X130189238Y-64714380D01*
X130189238Y-63714380D01*
X130665428Y-63714380D01*
X131855904Y-64714380D02*
X131855904Y-63714380D01*
X132094000Y-63714380D01*
X132236857Y-63762000D01*
X132332095Y-63857238D01*
X132379714Y-63952476D01*
X132427333Y-64142952D01*
X132427333Y-64285809D01*
X132379714Y-64476285D01*
X132332095Y-64571523D01*
X132236857Y-64666761D01*
X132094000Y-64714380D01*
X131855904Y-64714380D01*
X133046380Y-63714380D02*
X133236857Y-63714380D01*
X133332095Y-63762000D01*
X133427333Y-63857238D01*
X133474952Y-64047714D01*
X133474952Y-64381047D01*
X133427333Y-64571523D01*
X133332095Y-64666761D01*
X133236857Y-64714380D01*
X133046380Y-64714380D01*
X132951142Y-64666761D01*
X132855904Y-64571523D01*
X132808285Y-64381047D01*
X132808285Y-64047714D01*
X132855904Y-63857238D01*
X132951142Y-63762000D01*
X133046380Y-63714380D01*
X133808285Y-63714380D02*
X134046380Y-64714380D01*
X134236857Y-64000095D01*
X134427333Y-64714380D01*
X134665428Y-63714380D01*
X135046380Y-64714380D02*
X135046380Y-63714380D01*
X135617809Y-64714380D01*
X135617809Y-63714380D01*
X136094000Y-64619142D02*
X136141619Y-64666761D01*
X136094000Y-64714380D01*
X136046380Y-64666761D01*
X136094000Y-64619142D01*
X136094000Y-64714380D01*
X136094000Y-64333428D02*
X136046380Y-63762000D01*
X136094000Y-63714380D01*
X136141619Y-63762000D01*
X136094000Y-64333428D01*
X136094000Y-63714380D01*
X93957666Y-91455333D02*
X93957666Y-90979142D01*
X94243380Y-91550571D02*
X93243380Y-91217238D01*
X94243380Y-90883904D01*
X94243380Y-90550571D02*
X93576714Y-90550571D01*
X93671952Y-90550571D02*
X93624333Y-90502952D01*
X93576714Y-90407714D01*
X93576714Y-90264857D01*
X93624333Y-90169619D01*
X93719571Y-90122000D01*
X94243380Y-90122000D01*
X93719571Y-90122000D02*
X93624333Y-90074380D01*
X93576714Y-89979142D01*
X93576714Y-89836285D01*
X93624333Y-89741047D01*
X93719571Y-89693428D01*
X94243380Y-89693428D01*
X94243380Y-89217238D02*
X93576714Y-89217238D01*
X93243380Y-89217238D02*
X93291000Y-89264857D01*
X93338619Y-89217238D01*
X93291000Y-89169619D01*
X93243380Y-89217238D01*
X93338619Y-89217238D01*
X93576714Y-88312476D02*
X94386238Y-88312476D01*
X94481476Y-88360095D01*
X94529095Y-88407714D01*
X94576714Y-88502952D01*
X94576714Y-88645809D01*
X94529095Y-88741047D01*
X94195761Y-88312476D02*
X94243380Y-88407714D01*
X94243380Y-88598190D01*
X94195761Y-88693428D01*
X94148142Y-88741047D01*
X94052904Y-88788666D01*
X93767190Y-88788666D01*
X93671952Y-88741047D01*
X93624333Y-88693428D01*
X93576714Y-88598190D01*
X93576714Y-88407714D01*
X93624333Y-88312476D01*
X94243380Y-87407714D02*
X93719571Y-87407714D01*
X93624333Y-87455333D01*
X93576714Y-87550571D01*
X93576714Y-87741047D01*
X93624333Y-87836285D01*
X94195761Y-87407714D02*
X94243380Y-87502952D01*
X94243380Y-87741047D01*
X94195761Y-87836285D01*
X94100523Y-87883904D01*
X94005285Y-87883904D01*
X93910047Y-87836285D01*
X93862428Y-87741047D01*
X93862428Y-87502952D01*
X93814809Y-87407714D01*
X94243380Y-85645809D02*
X94243380Y-86217238D01*
X94243380Y-85931523D02*
X93243380Y-85931523D01*
X93386238Y-86026761D01*
X93481476Y-86122000D01*
X93529095Y-86217238D01*
X93243380Y-85026761D02*
X93243380Y-84931523D01*
X93291000Y-84836285D01*
X93338619Y-84788666D01*
X93433857Y-84741047D01*
X93624333Y-84693428D01*
X93862428Y-84693428D01*
X94052904Y-84741047D01*
X94148142Y-84788666D01*
X94195761Y-84836285D01*
X94243380Y-84931523D01*
X94243380Y-85026761D01*
X94195761Y-85122000D01*
X94148142Y-85169619D01*
X94052904Y-85217238D01*
X93862428Y-85264857D01*
X93624333Y-85264857D01*
X93433857Y-85217238D01*
X93338619Y-85169619D01*
X93291000Y-85122000D01*
X93243380Y-85026761D01*
X93243380Y-84074380D02*
X93243380Y-83979142D01*
X93291000Y-83883904D01*
X93338619Y-83836285D01*
X93433857Y-83788666D01*
X93624333Y-83741047D01*
X93862428Y-83741047D01*
X94052904Y-83788666D01*
X94148142Y-83836285D01*
X94195761Y-83883904D01*
X94243380Y-83979142D01*
X94243380Y-84074380D01*
X94195761Y-84169619D01*
X94148142Y-84217238D01*
X94052904Y-84264857D01*
X93862428Y-84312476D01*
X93624333Y-84312476D01*
X93433857Y-84264857D01*
X93338619Y-84217238D01*
X93291000Y-84169619D01*
X93243380Y-84074380D01*
X93243380Y-83122000D02*
X93243380Y-83026761D01*
X93291000Y-82931523D01*
X93338619Y-82883904D01*
X93433857Y-82836285D01*
X93624333Y-82788666D01*
X93862428Y-82788666D01*
X94052904Y-82836285D01*
X94148142Y-82883904D01*
X94195761Y-82931523D01*
X94243380Y-83026761D01*
X94243380Y-83122000D01*
X94195761Y-83217238D01*
X94148142Y-83264857D01*
X94052904Y-83312476D01*
X93862428Y-83360095D01*
X93624333Y-83360095D01*
X93433857Y-83312476D01*
X93338619Y-83264857D01*
X93291000Y-83217238D01*
X93243380Y-83122000D01*
X95893380Y-94622000D02*
X95417190Y-94955333D01*
X95893380Y-95193428D02*
X94893380Y-95193428D01*
X94893380Y-94812476D01*
X94941000Y-94717238D01*
X94988619Y-94669619D01*
X95083857Y-94622000D01*
X95226714Y-94622000D01*
X95321952Y-94669619D01*
X95369571Y-94717238D01*
X95417190Y-94812476D01*
X95417190Y-95193428D01*
X94941000Y-93669619D02*
X94893380Y-93764857D01*
X94893380Y-93907714D01*
X94941000Y-94050571D01*
X95036238Y-94145809D01*
X95131476Y-94193428D01*
X95321952Y-94241047D01*
X95464809Y-94241047D01*
X95655285Y-94193428D01*
X95750523Y-94145809D01*
X95845761Y-94050571D01*
X95893380Y-93907714D01*
X95893380Y-93812476D01*
X95845761Y-93669619D01*
X95798142Y-93622000D01*
X95464809Y-93622000D01*
X95464809Y-93812476D01*
X95369571Y-92860095D02*
X95417190Y-92717238D01*
X95464809Y-92669619D01*
X95560047Y-92622000D01*
X95702904Y-92622000D01*
X95798142Y-92669619D01*
X95845761Y-92717238D01*
X95893380Y-92812476D01*
X95893380Y-93193428D01*
X94893380Y-93193428D01*
X94893380Y-92860095D01*
X94941000Y-92764857D01*
X94988619Y-92717238D01*
X95083857Y-92669619D01*
X95179095Y-92669619D01*
X95274333Y-92717238D01*
X95321952Y-92764857D01*
X95369571Y-92860095D01*
X95369571Y-93193428D01*
X95226714Y-92336285D02*
X95226714Y-91955333D01*
X94893380Y-92193428D02*
X95750523Y-92193428D01*
X95845761Y-92145809D01*
X95893380Y-92050571D01*
X95893380Y-91955333D01*
X95893380Y-91479142D02*
X95845761Y-91574380D01*
X95798142Y-91622000D01*
X95702904Y-91669619D01*
X95417190Y-91669619D01*
X95321952Y-91622000D01*
X95274333Y-91574380D01*
X95226714Y-91479142D01*
X95226714Y-91336285D01*
X95274333Y-91241047D01*
X95321952Y-91193428D01*
X95417190Y-91145809D01*
X95702904Y-91145809D01*
X95798142Y-91193428D01*
X95845761Y-91241047D01*
X95893380Y-91336285D01*
X95893380Y-91479142D01*
X95893380Y-90717238D02*
X94893380Y-90717238D01*
X95369571Y-90717238D02*
X95369571Y-90145809D01*
X95893380Y-90145809D02*
X94893380Y-90145809D01*
X95893380Y-89669619D02*
X94893380Y-89669619D01*
X94893380Y-89431523D01*
X94941000Y-89288666D01*
X95036238Y-89193428D01*
X95131476Y-89145809D01*
X95321952Y-89098190D01*
X95464809Y-89098190D01*
X95655285Y-89145809D01*
X95750523Y-89193428D01*
X95845761Y-89288666D01*
X95893380Y-89431523D01*
X95893380Y-89669619D01*
X95893380Y-88669619D02*
X94893380Y-88669619D01*
X95607666Y-88336285D01*
X94893380Y-88002952D01*
X95893380Y-88002952D01*
X95893380Y-87526761D02*
X94893380Y-87526761D01*
X95798142Y-85717238D02*
X95845761Y-85764857D01*
X95893380Y-85907714D01*
X95893380Y-86002952D01*
X95845761Y-86145809D01*
X95750523Y-86241047D01*
X95655285Y-86288666D01*
X95464809Y-86336285D01*
X95321952Y-86336285D01*
X95131476Y-86288666D01*
X95036238Y-86241047D01*
X94941000Y-86145809D01*
X94893380Y-86002952D01*
X94893380Y-85907714D01*
X94941000Y-85764857D01*
X94988619Y-85717238D01*
X95893380Y-85288666D02*
X94893380Y-85288666D01*
X94893380Y-84907714D01*
X94941000Y-84812476D01*
X94988619Y-84764857D01*
X95083857Y-84717238D01*
X95226714Y-84717238D01*
X95321952Y-84764857D01*
X95369571Y-84812476D01*
X95417190Y-84907714D01*
X95417190Y-85288666D01*
X95893380Y-83812476D02*
X95893380Y-84288666D01*
X94893380Y-84288666D01*
X95893380Y-83479142D02*
X94893380Y-83479142D01*
X94893380Y-83241047D01*
X94941000Y-83098190D01*
X95036238Y-83002952D01*
X95131476Y-82955333D01*
X95321952Y-82907714D01*
X95464809Y-82907714D01*
X95655285Y-82955333D01*
X95750523Y-83002952D01*
X95845761Y-83098190D01*
X95893380Y-83241047D01*
X95893380Y-83479142D01*
X95226714Y-81812476D02*
X95893380Y-81574380D01*
X95226714Y-81336285D01*
X95893380Y-80431523D02*
X95893380Y-81002952D01*
X95893380Y-80717238D02*
X94893380Y-80717238D01*
X95036238Y-80812476D01*
X95131476Y-80907714D01*
X95179095Y-81002952D01*
X95798142Y-80002952D02*
X95845761Y-79955333D01*
X95893380Y-80002952D01*
X95845761Y-80050571D01*
X95798142Y-80002952D01*
X95893380Y-80002952D01*
X95893380Y-79002952D02*
X95893380Y-79574380D01*
X95893380Y-79288666D02*
X94893380Y-79288666D01*
X95036238Y-79383904D01*
X95131476Y-79479142D01*
X95179095Y-79574380D01*
X97924333Y-93812476D02*
X97876714Y-93860095D01*
X97733857Y-93955333D01*
X97638619Y-94002952D01*
X97495761Y-94050571D01*
X97257666Y-94098190D01*
X97067190Y-94098190D01*
X96829095Y-94050571D01*
X96686238Y-94002952D01*
X96591000Y-93955333D01*
X96448142Y-93860095D01*
X96400523Y-93812476D01*
X97495761Y-93002952D02*
X97543380Y-93098190D01*
X97543380Y-93288666D01*
X97495761Y-93383904D01*
X97448142Y-93431523D01*
X97352904Y-93479142D01*
X97067190Y-93479142D01*
X96971952Y-93431523D01*
X96924333Y-93383904D01*
X96876714Y-93288666D01*
X96876714Y-93098190D01*
X96924333Y-93002952D01*
X97924333Y-92669619D02*
X97876714Y-92622000D01*
X97733857Y-92526761D01*
X97638619Y-92479142D01*
X97495761Y-92431523D01*
X97257666Y-92383904D01*
X97067190Y-92383904D01*
X96829095Y-92431523D01*
X96686238Y-92479142D01*
X96591000Y-92526761D01*
X96448142Y-92622000D01*
X96400523Y-92669619D01*
X96638619Y-91193428D02*
X96591000Y-91145809D01*
X96543380Y-91050571D01*
X96543380Y-90812476D01*
X96591000Y-90717238D01*
X96638619Y-90669619D01*
X96733857Y-90622000D01*
X96829095Y-90622000D01*
X96971952Y-90669619D01*
X97543380Y-91241047D01*
X97543380Y-90622000D01*
X96543380Y-90002952D02*
X96543380Y-89907714D01*
X96591000Y-89812476D01*
X96638619Y-89764857D01*
X96733857Y-89717238D01*
X96924333Y-89669619D01*
X97162428Y-89669619D01*
X97352904Y-89717238D01*
X97448142Y-89764857D01*
X97495761Y-89812476D01*
X97543380Y-89907714D01*
X97543380Y-90002952D01*
X97495761Y-90098190D01*
X97448142Y-90145809D01*
X97352904Y-90193428D01*
X97162428Y-90241047D01*
X96924333Y-90241047D01*
X96733857Y-90193428D01*
X96638619Y-90145809D01*
X96591000Y-90098190D01*
X96543380Y-90002952D01*
X96638619Y-89288666D02*
X96591000Y-89241047D01*
X96543380Y-89145809D01*
X96543380Y-88907714D01*
X96591000Y-88812476D01*
X96638619Y-88764857D01*
X96733857Y-88717238D01*
X96829095Y-88717238D01*
X96971952Y-88764857D01*
X97543380Y-89336285D01*
X97543380Y-88717238D01*
X97543380Y-87764857D02*
X97543380Y-88336285D01*
X97543380Y-88050571D02*
X96543380Y-88050571D01*
X96686238Y-88145809D01*
X96781476Y-88241047D01*
X96829095Y-88336285D01*
X97543380Y-86098190D02*
X97543380Y-86574380D01*
X96543380Y-86574380D01*
X97543380Y-85764857D02*
X96876714Y-85764857D01*
X96543380Y-85764857D02*
X96591000Y-85812476D01*
X96638619Y-85764857D01*
X96591000Y-85717238D01*
X96543380Y-85764857D01*
X96638619Y-85764857D01*
X96876714Y-85288666D02*
X97543380Y-85288666D01*
X96971952Y-85288666D02*
X96924333Y-85241047D01*
X96876714Y-85145809D01*
X96876714Y-85002952D01*
X96924333Y-84907714D01*
X97019571Y-84860095D01*
X97543380Y-84860095D01*
X96876714Y-83955333D02*
X97543380Y-83955333D01*
X96876714Y-84383904D02*
X97400523Y-84383904D01*
X97495761Y-84336285D01*
X97543380Y-84241047D01*
X97543380Y-84098190D01*
X97495761Y-84002952D01*
X97448142Y-83955333D01*
X97543380Y-83574380D02*
X96876714Y-83050571D01*
X96876714Y-83574380D02*
X97543380Y-83050571D01*
X96543380Y-82383904D02*
X97257666Y-82383904D01*
X97400523Y-82431523D01*
X97495761Y-82526761D01*
X97543380Y-82669619D01*
X97543380Y-82764857D01*
X97495761Y-81526761D02*
X97543380Y-81622000D01*
X97543380Y-81812476D01*
X97495761Y-81907714D01*
X97400523Y-81955333D01*
X97019571Y-81955333D01*
X96924333Y-81907714D01*
X96876714Y-81812476D01*
X96876714Y-81622000D01*
X96924333Y-81526761D01*
X97019571Y-81479142D01*
X97114809Y-81479142D01*
X97210047Y-81955333D01*
X97543380Y-80622000D02*
X96543380Y-80622000D01*
X97495761Y-80622000D02*
X97543380Y-80717238D01*
X97543380Y-80907714D01*
X97495761Y-81002952D01*
X97448142Y-81050571D01*
X97352904Y-81098190D01*
X97067190Y-81098190D01*
X96971952Y-81050571D01*
X96924333Y-81002952D01*
X96876714Y-80907714D01*
X96876714Y-80717238D01*
X96924333Y-80622000D01*
X97543380Y-80145809D02*
X96876714Y-80145809D01*
X96543380Y-80145809D02*
X96591000Y-80193428D01*
X96638619Y-80145809D01*
X96591000Y-80098190D01*
X96543380Y-80145809D01*
X96638619Y-80145809D01*
X98669571Y-101264857D02*
X98717190Y-101122000D01*
X98764809Y-101074380D01*
X98860047Y-101026761D01*
X99002904Y-101026761D01*
X99098142Y-101074380D01*
X99145761Y-101122000D01*
X99193380Y-101217238D01*
X99193380Y-101598190D01*
X98193380Y-101598190D01*
X98193380Y-101264857D01*
X98241000Y-101169619D01*
X98288619Y-101122000D01*
X98383857Y-101074380D01*
X98479095Y-101074380D01*
X98574333Y-101122000D01*
X98621952Y-101169619D01*
X98669571Y-101264857D01*
X98669571Y-101598190D01*
X99193380Y-100169619D02*
X98669571Y-100169619D01*
X98574333Y-100217238D01*
X98526714Y-100312476D01*
X98526714Y-100502952D01*
X98574333Y-100598190D01*
X99145761Y-100169619D02*
X99193380Y-100264857D01*
X99193380Y-100502952D01*
X99145761Y-100598190D01*
X99050523Y-100645809D01*
X98955285Y-100645809D01*
X98860047Y-100598190D01*
X98812428Y-100502952D01*
X98812428Y-100264857D01*
X98764809Y-100169619D01*
X99145761Y-99741047D02*
X99193380Y-99645809D01*
X99193380Y-99455333D01*
X99145761Y-99360095D01*
X99050523Y-99312476D01*
X99002904Y-99312476D01*
X98907666Y-99360095D01*
X98860047Y-99455333D01*
X98860047Y-99598190D01*
X98812428Y-99693428D01*
X98717190Y-99741047D01*
X98669571Y-99741047D01*
X98574333Y-99693428D01*
X98526714Y-99598190D01*
X98526714Y-99455333D01*
X98574333Y-99360095D01*
X99145761Y-98502952D02*
X99193380Y-98598190D01*
X99193380Y-98788666D01*
X99145761Y-98883904D01*
X99050523Y-98931523D01*
X98669571Y-98931523D01*
X98574333Y-98883904D01*
X98526714Y-98788666D01*
X98526714Y-98598190D01*
X98574333Y-98502952D01*
X98669571Y-98455333D01*
X98764809Y-98455333D01*
X98860047Y-98931523D01*
X99193380Y-97598190D02*
X98193380Y-97598190D01*
X99145761Y-97598190D02*
X99193380Y-97693428D01*
X99193380Y-97883904D01*
X99145761Y-97979142D01*
X99098142Y-98026761D01*
X99002904Y-98074380D01*
X98717190Y-98074380D01*
X98621952Y-98026761D01*
X98574333Y-97979142D01*
X98526714Y-97883904D01*
X98526714Y-97693428D01*
X98574333Y-97598190D01*
X99193380Y-96217238D02*
X99145761Y-96312476D01*
X99098142Y-96360095D01*
X99002904Y-96407714D01*
X98717190Y-96407714D01*
X98621952Y-96360095D01*
X98574333Y-96312476D01*
X98526714Y-96217238D01*
X98526714Y-96074380D01*
X98574333Y-95979142D01*
X98621952Y-95931523D01*
X98717190Y-95883904D01*
X99002904Y-95883904D01*
X99098142Y-95931523D01*
X99145761Y-95979142D01*
X99193380Y-96074380D01*
X99193380Y-96217238D01*
X98526714Y-95455333D02*
X99193380Y-95455333D01*
X98621952Y-95455333D02*
X98574333Y-95407714D01*
X98526714Y-95312476D01*
X98526714Y-95169619D01*
X98574333Y-95074380D01*
X98669571Y-95026761D01*
X99193380Y-95026761D01*
X98526714Y-93883904D02*
X99193380Y-93693428D01*
X98717190Y-93502952D01*
X99193380Y-93312476D01*
X98526714Y-93122000D01*
X99193380Y-92598190D02*
X99145761Y-92693428D01*
X99098142Y-92741047D01*
X99002904Y-92788666D01*
X98717190Y-92788666D01*
X98621952Y-92741047D01*
X98574333Y-92693428D01*
X98526714Y-92598190D01*
X98526714Y-92455333D01*
X98574333Y-92360095D01*
X98621952Y-92312476D01*
X98717190Y-92264857D01*
X99002904Y-92264857D01*
X99098142Y-92312476D01*
X99145761Y-92360095D01*
X99193380Y-92455333D01*
X99193380Y-92598190D01*
X99193380Y-91836285D02*
X98526714Y-91836285D01*
X98717190Y-91836285D02*
X98621952Y-91788666D01*
X98574333Y-91741047D01*
X98526714Y-91645809D01*
X98526714Y-91550571D01*
X99193380Y-91217238D02*
X98193380Y-91217238D01*
X98812428Y-91122000D02*
X99193380Y-90836285D01*
X98526714Y-90836285D02*
X98907666Y-91217238D01*
X99193380Y-89645809D02*
X98193380Y-89645809D01*
X98574333Y-89645809D02*
X98526714Y-89550571D01*
X98526714Y-89360095D01*
X98574333Y-89264857D01*
X98621952Y-89217238D01*
X98717190Y-89169619D01*
X99002904Y-89169619D01*
X99098142Y-89217238D01*
X99145761Y-89264857D01*
X99193380Y-89360095D01*
X99193380Y-89550571D01*
X99145761Y-89645809D01*
X98526714Y-88836285D02*
X99193380Y-88598190D01*
X98526714Y-88360095D02*
X99193380Y-88598190D01*
X99431476Y-88693428D01*
X99479095Y-88741047D01*
X99526714Y-88836285D01*
X99193380Y-87217238D02*
X98193380Y-87217238D01*
X99193380Y-86312476D02*
X98669571Y-86312476D01*
X98574333Y-86360095D01*
X98526714Y-86455333D01*
X98526714Y-86645809D01*
X98574333Y-86741047D01*
X99145761Y-86312476D02*
X99193380Y-86407714D01*
X99193380Y-86645809D01*
X99145761Y-86741047D01*
X99050523Y-86788666D01*
X98955285Y-86788666D01*
X98860047Y-86741047D01*
X98812428Y-86645809D01*
X98812428Y-86407714D01*
X98764809Y-86312476D01*
X98526714Y-85836285D02*
X99193380Y-85836285D01*
X98621952Y-85836285D02*
X98574333Y-85788666D01*
X98526714Y-85693428D01*
X98526714Y-85550571D01*
X98574333Y-85455333D01*
X98669571Y-85407714D01*
X99193380Y-85407714D01*
X99145761Y-84979142D02*
X99193380Y-84836285D01*
X99193380Y-84598190D01*
X99145761Y-84502952D01*
X99098142Y-84455333D01*
X99002904Y-84407714D01*
X98907666Y-84407714D01*
X98812428Y-84455333D01*
X98764809Y-84502952D01*
X98717190Y-84598190D01*
X98669571Y-84788666D01*
X98621952Y-84883904D01*
X98574333Y-84931523D01*
X98479095Y-84979142D01*
X98383857Y-84979142D01*
X98288619Y-84931523D01*
X98241000Y-84883904D01*
X98193380Y-84788666D01*
X98193380Y-84550571D01*
X98241000Y-84407714D01*
X98669571Y-83645809D02*
X98717190Y-83502952D01*
X98764809Y-83455333D01*
X98860047Y-83407714D01*
X99002904Y-83407714D01*
X99098142Y-83455333D01*
X99145761Y-83502952D01*
X99193380Y-83598190D01*
X99193380Y-83979142D01*
X98193380Y-83979142D01*
X98193380Y-83645809D01*
X98241000Y-83550571D01*
X98288619Y-83502952D01*
X98383857Y-83455333D01*
X98479095Y-83455333D01*
X98574333Y-83502952D01*
X98621952Y-83550571D01*
X98669571Y-83645809D01*
X98669571Y-83979142D01*
X99193380Y-81788666D02*
X98669571Y-81788666D01*
X98574333Y-81836285D01*
X98526714Y-81931523D01*
X98526714Y-82122000D01*
X98574333Y-82217238D01*
X99145761Y-81788666D02*
X99193380Y-81883904D01*
X99193380Y-82122000D01*
X99145761Y-82217238D01*
X99050523Y-82264857D01*
X98955285Y-82264857D01*
X98860047Y-82217238D01*
X98812428Y-82122000D01*
X98812428Y-81883904D01*
X98764809Y-81788666D01*
X98526714Y-81312476D02*
X99193380Y-81312476D01*
X98621952Y-81312476D02*
X98574333Y-81264857D01*
X98526714Y-81169619D01*
X98526714Y-81026761D01*
X98574333Y-80931523D01*
X98669571Y-80883904D01*
X99193380Y-80883904D01*
X99193380Y-79979142D02*
X98193380Y-79979142D01*
X99145761Y-79979142D02*
X99193380Y-80074380D01*
X99193380Y-80264857D01*
X99145761Y-80360095D01*
X99098142Y-80407714D01*
X99002904Y-80455333D01*
X98717190Y-80455333D01*
X98621952Y-80407714D01*
X98574333Y-80360095D01*
X98526714Y-80264857D01*
X98526714Y-80074380D01*
X98574333Y-79979142D01*
X99193380Y-78741047D02*
X98193380Y-78741047D01*
X99193380Y-78312476D02*
X98669571Y-78312476D01*
X98574333Y-78360095D01*
X98526714Y-78455333D01*
X98526714Y-78598190D01*
X98574333Y-78693428D01*
X98621952Y-78741047D01*
X99193380Y-77693428D02*
X99145761Y-77788666D01*
X99098142Y-77836285D01*
X99002904Y-77883904D01*
X98717190Y-77883904D01*
X98621952Y-77836285D01*
X98574333Y-77788666D01*
X98526714Y-77693428D01*
X98526714Y-77550571D01*
X98574333Y-77455333D01*
X98621952Y-77407714D01*
X98717190Y-77360095D01*
X99002904Y-77360095D01*
X99098142Y-77407714D01*
X99145761Y-77455333D01*
X99193380Y-77550571D01*
X99193380Y-77693428D01*
X98526714Y-76502952D02*
X99336238Y-76502952D01*
X99431476Y-76550571D01*
X99479095Y-76598190D01*
X99526714Y-76693428D01*
X99526714Y-76836285D01*
X99479095Y-76931523D01*
X99145761Y-76502952D02*
X99193380Y-76598190D01*
X99193380Y-76788666D01*
X99145761Y-76883904D01*
X99098142Y-76931523D01*
X99002904Y-76979142D01*
X98717190Y-76979142D01*
X98621952Y-76931523D01*
X98574333Y-76883904D01*
X98526714Y-76788666D01*
X98526714Y-76598190D01*
X98574333Y-76502952D01*
X99193380Y-75883904D02*
X99145761Y-75979142D01*
X99050523Y-76026761D01*
X98193380Y-76026761D01*
X99145761Y-75122000D02*
X99193380Y-75217238D01*
X99193380Y-75407714D01*
X99145761Y-75502952D01*
X99050523Y-75550571D01*
X98669571Y-75550571D01*
X98574333Y-75502952D01*
X98526714Y-75407714D01*
X98526714Y-75217238D01*
X98574333Y-75122000D01*
X98669571Y-75074380D01*
X98764809Y-75074380D01*
X98860047Y-75550571D01*
X98526714Y-74788666D02*
X98526714Y-74407714D01*
X98193380Y-74645809D02*
X99050523Y-74645809D01*
X99145761Y-74598190D01*
X99193380Y-74502952D01*
X99193380Y-74407714D01*
X98193380Y-73645809D02*
X98193380Y-73836285D01*
X98241000Y-73931523D01*
X98288619Y-73979142D01*
X98431476Y-74074380D01*
X98621952Y-74122000D01*
X99002904Y-74122000D01*
X99098142Y-74074380D01*
X99145761Y-74026761D01*
X99193380Y-73931523D01*
X99193380Y-73741047D01*
X99145761Y-73645809D01*
X99098142Y-73598190D01*
X99002904Y-73550571D01*
X98764809Y-73550571D01*
X98669571Y-73598190D01*
X98621952Y-73645809D01*
X98574333Y-73741047D01*
X98574333Y-73931523D01*
X98621952Y-74026761D01*
X98669571Y-74074380D01*
X98764809Y-74122000D01*
X98193380Y-73217238D02*
X98193380Y-72550571D01*
X99193380Y-72979142D01*
D11*
X94000000Y-56750000D02*
X93750000Y-56750000D01*
X94000000Y-56750000D02*
X94000000Y-56500000D01*
X93250000Y-56439340D02*
G75*
G02*
X94000000Y-56750000I0J-1060660D01*
G01*
D10*
X89369047Y-56702380D02*
X89369047Y-55702380D01*
X89750000Y-55702380D01*
X89845238Y-55750000D01*
X89892857Y-55797619D01*
X89940476Y-55892857D01*
X89940476Y-56035714D01*
X89892857Y-56130952D01*
X89845238Y-56178571D01*
X89750000Y-56226190D01*
X89369047Y-56226190D01*
X90369047Y-56702380D02*
X90369047Y-55702380D01*
X90845238Y-56702380D02*
X90845238Y-55702380D01*
X91416666Y-56702380D01*
X91416666Y-55702380D01*
X93178571Y-56702380D02*
X92607142Y-56702380D01*
X92892857Y-56702380D02*
X92892857Y-55702380D01*
X92797619Y-55845238D01*
X92702380Y-55940476D01*
X92607142Y-55988095D01*
D11*
%TO.C,R1*%
X118378500Y-93574776D02*
X118378500Y-94084224D01*
X117333500Y-93574776D02*
X117333500Y-94084224D01*
%TO.C,JP3*%
X141648000Y-76394000D02*
X141648000Y-81594000D01*
X141648000Y-81594000D02*
X144308000Y-81594000D01*
X144308000Y-81594000D02*
X144308000Y-76394000D01*
X144308000Y-76394000D02*
X141648000Y-76394000D01*
X144308000Y-77344000D02*
X150308000Y-77344000D01*
X150308000Y-77344000D02*
X150308000Y-78104000D01*
X150308000Y-78104000D02*
X144308000Y-78104000D01*
X144308000Y-77404000D02*
X150308000Y-77404000D01*
X144308000Y-77524000D02*
X150308000Y-77524000D01*
X144308000Y-77644000D02*
X150308000Y-77644000D01*
X144308000Y-77764000D02*
X150308000Y-77764000D01*
X144308000Y-77884000D02*
X150308000Y-77884000D01*
X144308000Y-78004000D02*
X150308000Y-78004000D01*
X141318000Y-77344000D02*
X141648000Y-77344000D01*
X141318000Y-78104000D02*
X141648000Y-78104000D01*
X141648000Y-78994000D02*
X144308000Y-78994000D01*
X144308000Y-79884000D02*
X150308000Y-79884000D01*
X150308000Y-79884000D02*
X150308000Y-80644000D01*
X150308000Y-80644000D02*
X144308000Y-80644000D01*
X141250929Y-79884000D02*
X141648000Y-79884000D01*
X141250929Y-80644000D02*
X141648000Y-80644000D01*
X138938000Y-77724000D02*
X138938000Y-76454000D01*
X138938000Y-76454000D02*
X140208000Y-76454000D01*
%TO.C,JP2*%
X141648000Y-70044000D02*
X141648000Y-75244000D01*
X141648000Y-75244000D02*
X144308000Y-75244000D01*
X144308000Y-75244000D02*
X144308000Y-70044000D01*
X144308000Y-70044000D02*
X141648000Y-70044000D01*
X144308000Y-70994000D02*
X150308000Y-70994000D01*
X150308000Y-70994000D02*
X150308000Y-71754000D01*
X150308000Y-71754000D02*
X144308000Y-71754000D01*
X144308000Y-71054000D02*
X150308000Y-71054000D01*
X144308000Y-71174000D02*
X150308000Y-71174000D01*
X144308000Y-71294000D02*
X150308000Y-71294000D01*
X144308000Y-71414000D02*
X150308000Y-71414000D01*
X144308000Y-71534000D02*
X150308000Y-71534000D01*
X144308000Y-71654000D02*
X150308000Y-71654000D01*
X141318000Y-70994000D02*
X141648000Y-70994000D01*
X141318000Y-71754000D02*
X141648000Y-71754000D01*
X141648000Y-72644000D02*
X144308000Y-72644000D01*
X144308000Y-73534000D02*
X150308000Y-73534000D01*
X150308000Y-73534000D02*
X150308000Y-74294000D01*
X150308000Y-74294000D02*
X144308000Y-74294000D01*
X141250929Y-73534000D02*
X141648000Y-73534000D01*
X141250929Y-74294000D02*
X141648000Y-74294000D01*
X138938000Y-71374000D02*
X138938000Y-70104000D01*
X138938000Y-70104000D02*
X140208000Y-70104000D01*
%TO.C,J2*%
X84014000Y-57996000D02*
X86674000Y-57996000D01*
X86674000Y-57996000D02*
X86674000Y-55336000D01*
X86674000Y-55336000D02*
X84014000Y-55336000D01*
X84014000Y-55336000D02*
X84014000Y-57996000D01*
X84964000Y-55336000D02*
X84964000Y-49336000D01*
X84964000Y-49336000D02*
X85724000Y-49336000D01*
X85724000Y-49336000D02*
X85724000Y-55336000D01*
X85024000Y-55336000D02*
X85024000Y-49336000D01*
X85144000Y-55336000D02*
X85144000Y-49336000D01*
X85264000Y-55336000D02*
X85264000Y-49336000D01*
X85384000Y-55336000D02*
X85384000Y-49336000D01*
X85504000Y-55336000D02*
X85504000Y-49336000D01*
X85624000Y-55336000D02*
X85624000Y-49336000D01*
X84964000Y-58326000D02*
X84964000Y-57996000D01*
X85724000Y-58326000D02*
X85724000Y-57996000D01*
X85344000Y-60706000D02*
X84074000Y-60706000D01*
X84074000Y-60706000D02*
X84074000Y-59436000D01*
%TO.C,JP1*%
X138938000Y-63754000D02*
X140208000Y-63754000D01*
X138938000Y-65024000D02*
X138938000Y-63754000D01*
X141250929Y-67944000D02*
X141648000Y-67944000D01*
X141250929Y-67184000D02*
X141648000Y-67184000D01*
X150308000Y-67944000D02*
X144308000Y-67944000D01*
X150308000Y-67184000D02*
X150308000Y-67944000D01*
X144308000Y-67184000D02*
X150308000Y-67184000D01*
X141648000Y-66294000D02*
X144308000Y-66294000D01*
X141318000Y-65404000D02*
X141648000Y-65404000D01*
X141318000Y-64644000D02*
X141648000Y-64644000D01*
X144308000Y-65304000D02*
X150308000Y-65304000D01*
X144308000Y-65184000D02*
X150308000Y-65184000D01*
X144308000Y-65064000D02*
X150308000Y-65064000D01*
X144308000Y-64944000D02*
X150308000Y-64944000D01*
X144308000Y-64824000D02*
X150308000Y-64824000D01*
X144308000Y-64704000D02*
X150308000Y-64704000D01*
X150308000Y-65404000D02*
X144308000Y-65404000D01*
X150308000Y-64644000D02*
X150308000Y-65404000D01*
X144308000Y-64644000D02*
X150308000Y-64644000D01*
X144308000Y-63694000D02*
X141648000Y-63694000D01*
X144308000Y-68894000D02*
X144308000Y-63694000D01*
X141648000Y-68894000D02*
X144308000Y-68894000D01*
X141648000Y-63694000D02*
X141648000Y-68894000D01*
D10*
%TO.C,U3*%
X112400000Y-88675000D02*
X112400000Y-89950000D01*
X111825000Y-78325000D02*
X111825000Y-79000000D01*
X122175000Y-78325000D02*
X122175000Y-79000000D01*
X122175000Y-88675000D02*
X122175000Y-88000000D01*
X111825000Y-88675000D02*
X111825000Y-88000000D01*
X122175000Y-88675000D02*
X121500000Y-88675000D01*
X122175000Y-78325000D02*
X121500000Y-78325000D01*
X111825000Y-78325000D02*
X112500000Y-78325000D01*
X111825000Y-88675000D02*
X112400000Y-88675000D01*
D11*
%TO.C,U1*%
X70680000Y-129890000D02*
X88580000Y-129890000D01*
X70680000Y-68690000D02*
X70680000Y-129890000D01*
X88580000Y-68690000D02*
X70680000Y-68690000D01*
X88580000Y-129890000D02*
X88580000Y-68690000D01*
X73170000Y-129830000D02*
X78630000Y-129830000D01*
X73170000Y-68750000D02*
X73170000Y-129830000D01*
X86090000Y-68750000D02*
X73170000Y-68750000D01*
X86090000Y-129830000D02*
X86090000Y-68750000D01*
X80630000Y-129830000D02*
X86090000Y-129830000D01*
X78630000Y-129830000D02*
G75*
G02*
X80630000Y-129830000I1000000J0D01*
G01*
%TO.C,R2*%
X129539276Y-82310500D02*
X130048724Y-82310500D01*
X129539276Y-81265500D02*
X130048724Y-81265500D01*
%TO.C,J1*%
X94170000Y-58750000D02*
X94170000Y-57420000D01*
X94170000Y-57420000D02*
X95500000Y-57420000D01*
X94170000Y-60020000D02*
X96770000Y-60020000D01*
X96770000Y-60020000D02*
X96770000Y-57420000D01*
X96770000Y-57420000D02*
X145090000Y-57420000D01*
X145090000Y-62620000D02*
X145090000Y-57420000D01*
X94170000Y-62620000D02*
X145090000Y-62620000D01*
X94170000Y-62620000D02*
X94170000Y-60020000D01*
%TO.C,C3*%
X129603733Y-85510000D02*
X129896267Y-85510000D01*
X129603733Y-84490000D02*
X129896267Y-84490000D01*
%TO.C,R1*%
D10*
X119738380Y-93996166D02*
X119262190Y-94329500D01*
X119738380Y-94567595D02*
X118738380Y-94567595D01*
X118738380Y-94186642D01*
X118786000Y-94091404D01*
X118833619Y-94043785D01*
X118928857Y-93996166D01*
X119071714Y-93996166D01*
X119166952Y-94043785D01*
X119214571Y-94091404D01*
X119262190Y-94186642D01*
X119262190Y-94567595D01*
X119738380Y-93043785D02*
X119738380Y-93615214D01*
X119738380Y-93329500D02*
X118738380Y-93329500D01*
X118881238Y-93424738D01*
X118976476Y-93519976D01*
X119024095Y-93615214D01*
%TO.C,JP3*%
D12*
X137614428Y-81029714D02*
X137650142Y-80922571D01*
X137685857Y-80886857D01*
X137757285Y-80851142D01*
X137864428Y-80851142D01*
X137935857Y-80886857D01*
X137971571Y-80922571D01*
X138007285Y-80994000D01*
X138007285Y-81279714D01*
X137257285Y-81279714D01*
X137257285Y-81029714D01*
X137293000Y-80958285D01*
X137328714Y-80922571D01*
X137400142Y-80886857D01*
X137471571Y-80886857D01*
X137543000Y-80922571D01*
X137578714Y-80958285D01*
X137614428Y-81029714D01*
X137614428Y-81279714D01*
X137507285Y-80208285D02*
X138007285Y-80208285D01*
X137507285Y-80529714D02*
X137900142Y-80529714D01*
X137971571Y-80494000D01*
X138007285Y-80422571D01*
X138007285Y-80315428D01*
X137971571Y-80244000D01*
X137935857Y-80208285D01*
X137507285Y-79958285D02*
X137507285Y-79672571D01*
X137257285Y-79851142D02*
X137900142Y-79851142D01*
X137971571Y-79815428D01*
X138007285Y-79744000D01*
X138007285Y-79672571D01*
X137507285Y-79529714D02*
X137507285Y-79244000D01*
X137257285Y-79422571D02*
X137900142Y-79422571D01*
X137971571Y-79386857D01*
X138007285Y-79315428D01*
X138007285Y-79244000D01*
X138007285Y-78886857D02*
X137971571Y-78958285D01*
X137935857Y-78994000D01*
X137864428Y-79029714D01*
X137650142Y-79029714D01*
X137578714Y-78994000D01*
X137543000Y-78958285D01*
X137507285Y-78886857D01*
X137507285Y-78779714D01*
X137543000Y-78708285D01*
X137578714Y-78672571D01*
X137650142Y-78636857D01*
X137864428Y-78636857D01*
X137935857Y-78672571D01*
X137971571Y-78708285D01*
X138007285Y-78779714D01*
X138007285Y-78886857D01*
X137507285Y-78315428D02*
X138007285Y-78315428D01*
X137578714Y-78315428D02*
X137543000Y-78279714D01*
X137507285Y-78208285D01*
X137507285Y-78101142D01*
X137543000Y-78029714D01*
X137614428Y-77994000D01*
X138007285Y-77994000D01*
X137257285Y-77136857D02*
X137257285Y-76672571D01*
X137543000Y-76922571D01*
X137543000Y-76815428D01*
X137578714Y-76744000D01*
X137614428Y-76708285D01*
X137685857Y-76672571D01*
X137864428Y-76672571D01*
X137935857Y-76708285D01*
X137971571Y-76744000D01*
X138007285Y-76815428D01*
X138007285Y-77029714D01*
X137971571Y-77101142D01*
X137935857Y-77136857D01*
%TO.C,JP2*%
X137614428Y-74679714D02*
X137650142Y-74572571D01*
X137685857Y-74536857D01*
X137757285Y-74501142D01*
X137864428Y-74501142D01*
X137935857Y-74536857D01*
X137971571Y-74572571D01*
X138007285Y-74644000D01*
X138007285Y-74929714D01*
X137257285Y-74929714D01*
X137257285Y-74679714D01*
X137293000Y-74608285D01*
X137328714Y-74572571D01*
X137400142Y-74536857D01*
X137471571Y-74536857D01*
X137543000Y-74572571D01*
X137578714Y-74608285D01*
X137614428Y-74679714D01*
X137614428Y-74929714D01*
X137507285Y-73858285D02*
X138007285Y-73858285D01*
X137507285Y-74179714D02*
X137900142Y-74179714D01*
X137971571Y-74144000D01*
X138007285Y-74072571D01*
X138007285Y-73965428D01*
X137971571Y-73894000D01*
X137935857Y-73858285D01*
X137507285Y-73608285D02*
X137507285Y-73322571D01*
X137257285Y-73501142D02*
X137900142Y-73501142D01*
X137971571Y-73465428D01*
X138007285Y-73394000D01*
X138007285Y-73322571D01*
X137507285Y-73179714D02*
X137507285Y-72894000D01*
X137257285Y-73072571D02*
X137900142Y-73072571D01*
X137971571Y-73036857D01*
X138007285Y-72965428D01*
X138007285Y-72894000D01*
X138007285Y-72536857D02*
X137971571Y-72608285D01*
X137935857Y-72644000D01*
X137864428Y-72679714D01*
X137650142Y-72679714D01*
X137578714Y-72644000D01*
X137543000Y-72608285D01*
X137507285Y-72536857D01*
X137507285Y-72429714D01*
X137543000Y-72358285D01*
X137578714Y-72322571D01*
X137650142Y-72286857D01*
X137864428Y-72286857D01*
X137935857Y-72322571D01*
X137971571Y-72358285D01*
X138007285Y-72429714D01*
X138007285Y-72536857D01*
X137507285Y-71965428D02*
X138007285Y-71965428D01*
X137578714Y-71965428D02*
X137543000Y-71929714D01*
X137507285Y-71858285D01*
X137507285Y-71751142D01*
X137543000Y-71679714D01*
X137614428Y-71644000D01*
X138007285Y-71644000D01*
X137328714Y-70751142D02*
X137293000Y-70715428D01*
X137257285Y-70644000D01*
X137257285Y-70465428D01*
X137293000Y-70394000D01*
X137328714Y-70358285D01*
X137400142Y-70322571D01*
X137471571Y-70322571D01*
X137578714Y-70358285D01*
X138007285Y-70786857D01*
X138007285Y-70322571D01*
%TO.C,J2*%
D10*
X82582095Y-62587142D02*
X82534476Y-62634761D01*
X82391619Y-62682380D01*
X82296380Y-62682380D01*
X82153523Y-62634761D01*
X82058285Y-62539523D01*
X82010666Y-62444285D01*
X81963047Y-62253809D01*
X81963047Y-62110952D01*
X82010666Y-61920476D01*
X82058285Y-61825238D01*
X82153523Y-61730000D01*
X82296380Y-61682380D01*
X82391619Y-61682380D01*
X82534476Y-61730000D01*
X82582095Y-61777619D01*
X82963047Y-62634761D02*
X83105904Y-62682380D01*
X83344000Y-62682380D01*
X83439238Y-62634761D01*
X83486857Y-62587142D01*
X83534476Y-62491904D01*
X83534476Y-62396666D01*
X83486857Y-62301428D01*
X83439238Y-62253809D01*
X83344000Y-62206190D01*
X83153523Y-62158571D01*
X83058285Y-62110952D01*
X83010666Y-62063333D01*
X82963047Y-61968095D01*
X82963047Y-61872857D01*
X83010666Y-61777619D01*
X83058285Y-61730000D01*
X83153523Y-61682380D01*
X83391619Y-61682380D01*
X83534476Y-61730000D01*
X84153523Y-62206190D02*
X84153523Y-62682380D01*
X83820190Y-61682380D02*
X84153523Y-62206190D01*
X84486857Y-61682380D01*
X84820190Y-62682380D02*
X84820190Y-61682380D01*
X85391619Y-62682380D01*
X85391619Y-61682380D01*
X86439238Y-62587142D02*
X86391619Y-62634761D01*
X86248761Y-62682380D01*
X86153523Y-62682380D01*
X86010666Y-62634761D01*
X85915428Y-62539523D01*
X85867809Y-62444285D01*
X85820190Y-62253809D01*
X85820190Y-62110952D01*
X85867809Y-61920476D01*
X85915428Y-61825238D01*
X86010666Y-61730000D01*
X86153523Y-61682380D01*
X86248761Y-61682380D01*
X86391619Y-61730000D01*
X86439238Y-61777619D01*
X87629714Y-62682380D02*
X87629714Y-61682380D01*
X88105904Y-62682380D02*
X88105904Y-61682380D01*
X88677333Y-62682380D01*
X88677333Y-61682380D01*
%TO.C,JP1*%
D12*
X137432428Y-68411714D02*
X137468142Y-68304571D01*
X137503857Y-68268857D01*
X137575285Y-68233142D01*
X137682428Y-68233142D01*
X137753857Y-68268857D01*
X137789571Y-68304571D01*
X137825285Y-68376000D01*
X137825285Y-68661714D01*
X137075285Y-68661714D01*
X137075285Y-68411714D01*
X137111000Y-68340285D01*
X137146714Y-68304571D01*
X137218142Y-68268857D01*
X137289571Y-68268857D01*
X137361000Y-68304571D01*
X137396714Y-68340285D01*
X137432428Y-68411714D01*
X137432428Y-68661714D01*
X137325285Y-67590285D02*
X137825285Y-67590285D01*
X137325285Y-67911714D02*
X137718142Y-67911714D01*
X137789571Y-67876000D01*
X137825285Y-67804571D01*
X137825285Y-67697428D01*
X137789571Y-67626000D01*
X137753857Y-67590285D01*
X137325285Y-67340285D02*
X137325285Y-67054571D01*
X137075285Y-67233142D02*
X137718142Y-67233142D01*
X137789571Y-67197428D01*
X137825285Y-67126000D01*
X137825285Y-67054571D01*
X137325285Y-66911714D02*
X137325285Y-66626000D01*
X137075285Y-66804571D02*
X137718142Y-66804571D01*
X137789571Y-66768857D01*
X137825285Y-66697428D01*
X137825285Y-66626000D01*
X137825285Y-66268857D02*
X137789571Y-66340285D01*
X137753857Y-66376000D01*
X137682428Y-66411714D01*
X137468142Y-66411714D01*
X137396714Y-66376000D01*
X137361000Y-66340285D01*
X137325285Y-66268857D01*
X137325285Y-66161714D01*
X137361000Y-66090285D01*
X137396714Y-66054571D01*
X137468142Y-66018857D01*
X137682428Y-66018857D01*
X137753857Y-66054571D01*
X137789571Y-66090285D01*
X137825285Y-66161714D01*
X137825285Y-66268857D01*
X137325285Y-65697428D02*
X137825285Y-65697428D01*
X137396714Y-65697428D02*
X137361000Y-65661714D01*
X137325285Y-65590285D01*
X137325285Y-65483142D01*
X137361000Y-65411714D01*
X137432428Y-65376000D01*
X137825285Y-65376000D01*
X137825285Y-64054571D02*
X137825285Y-64483142D01*
X137825285Y-64268857D02*
X137075285Y-64268857D01*
X137182428Y-64340285D01*
X137253857Y-64411714D01*
X137289571Y-64483142D01*
%TO.C,U3*%
D10*
X109002380Y-84261904D02*
X109811904Y-84261904D01*
X109907142Y-84214285D01*
X109954761Y-84166666D01*
X110002380Y-84071428D01*
X110002380Y-83880952D01*
X109954761Y-83785714D01*
X109907142Y-83738095D01*
X109811904Y-83690476D01*
X109002380Y-83690476D01*
X109002380Y-83309523D02*
X109002380Y-82690476D01*
X109383333Y-83023809D01*
X109383333Y-82880952D01*
X109430952Y-82785714D01*
X109478571Y-82738095D01*
X109573809Y-82690476D01*
X109811904Y-82690476D01*
X109907142Y-82738095D01*
X109954761Y-82785714D01*
X110002380Y-82880952D01*
X110002380Y-83166666D01*
X109954761Y-83261904D01*
X109907142Y-83309523D01*
%TO.C,U1*%
X78868095Y-130282380D02*
X78868095Y-131091904D01*
X78915714Y-131187142D01*
X78963333Y-131234761D01*
X79058571Y-131282380D01*
X79249047Y-131282380D01*
X79344285Y-131234761D01*
X79391904Y-131187142D01*
X79439523Y-131091904D01*
X79439523Y-130282380D01*
X80439523Y-131282380D02*
X79868095Y-131282380D01*
X80153809Y-131282380D02*
X80153809Y-130282380D01*
X80058571Y-130425238D01*
X79963333Y-130520476D01*
X79868095Y-130568095D01*
%TO.C,R2*%
X129627333Y-80810380D02*
X129294000Y-80334190D01*
X129055904Y-80810380D02*
X129055904Y-79810380D01*
X129436857Y-79810380D01*
X129532095Y-79858000D01*
X129579714Y-79905619D01*
X129627333Y-80000857D01*
X129627333Y-80143714D01*
X129579714Y-80238952D01*
X129532095Y-80286571D01*
X129436857Y-80334190D01*
X129055904Y-80334190D01*
X130008285Y-79905619D02*
X130055904Y-79858000D01*
X130151142Y-79810380D01*
X130389238Y-79810380D01*
X130484476Y-79858000D01*
X130532095Y-79905619D01*
X130579714Y-80000857D01*
X130579714Y-80096095D01*
X130532095Y-80238952D01*
X129960666Y-80810380D01*
X130579714Y-80810380D01*
%TO.C,J1*%
X92452380Y-63583333D02*
X93166666Y-63583333D01*
X93309523Y-63630952D01*
X93404761Y-63726190D01*
X93452380Y-63869047D01*
X93452380Y-63964285D01*
X93452380Y-62583333D02*
X93452380Y-63154761D01*
X93452380Y-62869047D02*
X92452380Y-62869047D01*
X92595238Y-62964285D01*
X92690476Y-63059523D01*
X92738095Y-63154761D01*
%TO.C,C3*%
X129583333Y-83927142D02*
X129535714Y-83974761D01*
X129392857Y-84022380D01*
X129297619Y-84022380D01*
X129154761Y-83974761D01*
X129059523Y-83879523D01*
X129011904Y-83784285D01*
X128964285Y-83593809D01*
X128964285Y-83450952D01*
X129011904Y-83260476D01*
X129059523Y-83165238D01*
X129154761Y-83070000D01*
X129297619Y-83022380D01*
X129392857Y-83022380D01*
X129535714Y-83070000D01*
X129583333Y-83117619D01*
X129916666Y-83022380D02*
X130535714Y-83022380D01*
X130202380Y-83403333D01*
X130345238Y-83403333D01*
X130440476Y-83450952D01*
X130488095Y-83498571D01*
X130535714Y-83593809D01*
X130535714Y-83831904D01*
X130488095Y-83927142D01*
X130440476Y-83974761D01*
X130345238Y-84022380D01*
X130059523Y-84022380D01*
X129964285Y-83974761D01*
X129916666Y-83927142D01*
%TD*%
M02*
