G04 #@! TF.GenerationSoftware,KiCad,Pcbnew,5.99.0-1.20211005git2a932c2.fc35*
G04 #@! TF.CreationDate,2021-10-06T13:33:14+01:00*
G04 #@! TF.ProjectId,A1000,41313030-302e-46b6-9963-61645f706362,rev?*
G04 #@! TF.SameCoordinates,Original*
G04 #@! TF.FileFunction,Soldermask,Bot*
G04 #@! TF.FilePolarity,Negative*
%FSLAX46Y46*%
G04 Gerber Fmt 4.6, Leading zero omitted, Abs format (unit mm)*
G04 Created by KiCad (PCBNEW 5.99.0-1.20211005git2a932c2.fc35) date 2021-10-06 13:33:14*
%MOMM*%
%LPD*%
G01*
G04 APERTURE LIST*
%ADD10R,1.700000X1.700000*%
%ADD11O,1.700000X1.700000*%
%ADD12R,1.600000X1.600000*%
%ADD13O,1.600000X1.600000*%
%ADD14O,2.000000X1.200000*%
G04 APERTURE END LIST*
D10*
G04 #@! TO.C,J1*
X95500000Y-58750000D03*
D11*
X95500000Y-61290000D03*
X98040000Y-58750000D03*
X98040000Y-61290000D03*
X100580000Y-58750000D03*
X100580000Y-61290000D03*
X103120000Y-58750000D03*
X103120000Y-61290000D03*
X105660000Y-58750000D03*
X105660000Y-61290000D03*
X108200000Y-58750000D03*
X108200000Y-61290000D03*
X110740000Y-58750000D03*
X110740000Y-61290000D03*
X113280000Y-58750000D03*
X113280000Y-61290000D03*
X115820000Y-58750000D03*
X115820000Y-61290000D03*
X118360000Y-58750000D03*
X118360000Y-61290000D03*
X120900000Y-58750000D03*
X120900000Y-61290000D03*
X123440000Y-58750000D03*
X123440000Y-61290000D03*
X125980000Y-58750000D03*
X125980000Y-61290000D03*
X128520000Y-58750000D03*
X128520000Y-61290000D03*
X131060000Y-58750000D03*
X131060000Y-61290000D03*
X133600000Y-58750000D03*
X133600000Y-61290000D03*
X136140000Y-58750000D03*
X136140000Y-61290000D03*
X138680000Y-58750000D03*
X138680000Y-61290000D03*
X141220000Y-58750000D03*
X141220000Y-61290000D03*
X143760000Y-58750000D03*
X143760000Y-61290000D03*
G04 #@! TD*
D10*
G04 #@! TO.C,JP1*
X140208000Y-65024000D03*
D11*
X140208000Y-67564000D03*
G04 #@! TD*
D12*
G04 #@! TO.C,U1*
X87250000Y-128500000D03*
D13*
X87250000Y-125960000D03*
X87250000Y-123420000D03*
X87250000Y-120880000D03*
X87250000Y-118340000D03*
X87250000Y-115800000D03*
X87250000Y-113260000D03*
X87250000Y-110720000D03*
X87250000Y-108180000D03*
X87250000Y-105640000D03*
X87250000Y-103100000D03*
X87250000Y-100560000D03*
X87250000Y-98020000D03*
X87250000Y-95480000D03*
X87250000Y-92940000D03*
X87250000Y-90400000D03*
X87250000Y-87860000D03*
X87250000Y-85320000D03*
X87250000Y-82780000D03*
X87250000Y-80240000D03*
X87250000Y-77700000D03*
X87250000Y-75160000D03*
X87250000Y-72620000D03*
X87250000Y-70080000D03*
X72010000Y-70080000D03*
X72010000Y-72620000D03*
X72010000Y-75160000D03*
X72010000Y-77700000D03*
X72010000Y-80240000D03*
X72010000Y-82780000D03*
X72010000Y-85320000D03*
X72010000Y-87860000D03*
X72010000Y-90400000D03*
X72010000Y-92940000D03*
X72010000Y-95480000D03*
X72010000Y-98020000D03*
X72010000Y-100560000D03*
X72010000Y-103100000D03*
X72010000Y-105640000D03*
X72010000Y-108180000D03*
X72010000Y-110720000D03*
X72010000Y-113260000D03*
X72010000Y-115800000D03*
X72010000Y-118340000D03*
X72010000Y-120880000D03*
X72010000Y-123420000D03*
X72010000Y-125960000D03*
X72010000Y-128500000D03*
G04 #@! TD*
D14*
G04 #@! TO.C,U2*
X90370000Y-128490000D03*
X90370000Y-125950000D03*
X90370000Y-123410000D03*
X90370000Y-120870000D03*
X90370000Y-118330000D03*
X90370000Y-115790000D03*
X90370000Y-113250000D03*
X90370000Y-110710000D03*
X90370000Y-108170000D03*
X90370000Y-105630000D03*
X90370000Y-103090000D03*
X90370000Y-100550000D03*
X90370000Y-98010000D03*
X90370000Y-95470000D03*
X90370000Y-92930000D03*
X90370000Y-90390000D03*
X90370000Y-87850000D03*
X90370000Y-85310000D03*
X90370000Y-82770000D03*
X90370000Y-80230000D03*
X90370000Y-77690000D03*
X90370000Y-75150000D03*
X90370000Y-72610000D03*
X90370000Y-70070000D03*
X75130000Y-70070000D03*
X75130000Y-72610000D03*
X75130000Y-75150000D03*
X75130000Y-77690000D03*
X75130000Y-80230000D03*
X75130000Y-82770000D03*
X75130000Y-85310000D03*
X75130000Y-87850000D03*
X75130000Y-90390000D03*
X75130000Y-92930000D03*
X75130000Y-95470000D03*
X75130000Y-98010000D03*
X75130000Y-100550000D03*
X75130000Y-103090000D03*
X75130000Y-105630000D03*
X75130000Y-108170000D03*
X75130000Y-110710000D03*
X75130000Y-113250000D03*
X75130000Y-115790000D03*
X75130000Y-118330000D03*
X75130000Y-120870000D03*
X75130000Y-123410000D03*
X75130000Y-125950000D03*
X75130000Y-128490000D03*
G04 #@! TD*
D10*
G04 #@! TO.C,J2*
X85344000Y-59436000D03*
G04 #@! TD*
G04 #@! TO.C,JP3*
X140208000Y-77724000D03*
D11*
X140208000Y-80264000D03*
G04 #@! TD*
D10*
G04 #@! TO.C,JP2*
X140208000Y-71374000D03*
D11*
X140208000Y-73914000D03*
G04 #@! TD*
M02*
