G04 #@! TF.GenerationSoftware,KiCad,Pcbnew,5.99.0-unknown-ca42f31bb5~131~ubuntu21.04.1*
G04 #@! TF.CreationDate,2021-08-22T07:35:16+01:00*
G04 #@! TF.ProjectId,A1000,41313030-302e-46b6-9963-61645f706362,rev?*
G04 #@! TF.SameCoordinates,Original*
G04 #@! TF.FileFunction,Legend,Top*
G04 #@! TF.FilePolarity,Positive*
%FSLAX46Y46*%
G04 Gerber Fmt 4.6, Leading zero omitted, Abs format (unit mm)*
G04 Created by KiCad (PCBNEW 5.99.0-unknown-ca42f31bb5~131~ubuntu21.04.1) date 2021-08-22 07:35:16*
%MOMM*%
%LPD*%
G01*
G04 APERTURE LIST*
%ADD10C,0.150000*%
%ADD11C,0.120000*%
%ADD12C,0.100000*%
G04 APERTURE END LIST*
D10*
X99364000Y-57094380D02*
X99364000Y-56094380D01*
X100173523Y-56570571D02*
X99840190Y-56570571D01*
X99840190Y-57094380D02*
X99840190Y-56094380D01*
X100316380Y-56094380D01*
X101649714Y-56618190D02*
X101649714Y-57094380D01*
X101316380Y-56094380D02*
X101649714Y-56618190D01*
X101983047Y-56094380D01*
X102506857Y-56094380D02*
X102697333Y-56094380D01*
X102792571Y-56142000D01*
X102887809Y-56237238D01*
X102935428Y-56427714D01*
X102935428Y-56761047D01*
X102887809Y-56951523D01*
X102792571Y-57046761D01*
X102697333Y-57094380D01*
X102506857Y-57094380D01*
X102411619Y-57046761D01*
X102316380Y-56951523D01*
X102268761Y-56761047D01*
X102268761Y-56427714D01*
X102316380Y-56237238D01*
X102411619Y-56142000D01*
X102506857Y-56094380D01*
X103364000Y-56094380D02*
X103364000Y-56903904D01*
X103411619Y-56999142D01*
X103459238Y-57046761D01*
X103554476Y-57094380D01*
X103744952Y-57094380D01*
X103840190Y-57046761D01*
X103887809Y-56999142D01*
X103935428Y-56903904D01*
X103935428Y-56094380D01*
X105744952Y-56999142D02*
X105697333Y-57046761D01*
X105554476Y-57094380D01*
X105459238Y-57094380D01*
X105316380Y-57046761D01*
X105221142Y-56951523D01*
X105173523Y-56856285D01*
X105125904Y-56665809D01*
X105125904Y-56522952D01*
X105173523Y-56332476D01*
X105221142Y-56237238D01*
X105316380Y-56142000D01*
X105459238Y-56094380D01*
X105554476Y-56094380D01*
X105697333Y-56142000D01*
X105744952Y-56189619D01*
X106125904Y-56808666D02*
X106602095Y-56808666D01*
X106030666Y-57094380D02*
X106364000Y-56094380D01*
X106697333Y-57094380D01*
X107030666Y-57094380D02*
X107030666Y-56094380D01*
X107602095Y-57094380D01*
X107602095Y-56094380D01*
X109411619Y-57094380D02*
X109078285Y-56618190D01*
X108840190Y-57094380D02*
X108840190Y-56094380D01*
X109221142Y-56094380D01*
X109316380Y-56142000D01*
X109364000Y-56189619D01*
X109411619Y-56284857D01*
X109411619Y-56427714D01*
X109364000Y-56522952D01*
X109316380Y-56570571D01*
X109221142Y-56618190D01*
X108840190Y-56618190D01*
X109840190Y-56570571D02*
X110173523Y-56570571D01*
X110316380Y-57094380D02*
X109840190Y-57094380D01*
X109840190Y-56094380D01*
X110316380Y-56094380D01*
X110697333Y-56808666D02*
X111173523Y-56808666D01*
X110602095Y-57094380D02*
X110935428Y-56094380D01*
X111268761Y-57094380D01*
X111602095Y-57094380D02*
X111602095Y-56094380D01*
X111840190Y-56094380D01*
X111983047Y-56142000D01*
X112078285Y-56237238D01*
X112125904Y-56332476D01*
X112173523Y-56522952D01*
X112173523Y-56665809D01*
X112125904Y-56856285D01*
X112078285Y-56951523D01*
X111983047Y-57046761D01*
X111840190Y-57094380D01*
X111602095Y-57094380D01*
X113221142Y-56094380D02*
X113792571Y-56094380D01*
X113506857Y-57094380D02*
X113506857Y-56094380D01*
X114125904Y-57094380D02*
X114125904Y-56094380D01*
X114125904Y-56570571D02*
X114697333Y-56570571D01*
X114697333Y-57094380D02*
X114697333Y-56094380D01*
X115173523Y-57094380D02*
X115173523Y-56094380D01*
X115602095Y-57046761D02*
X115744952Y-57094380D01*
X115983047Y-57094380D01*
X116078285Y-57046761D01*
X116125904Y-56999142D01*
X116173523Y-56903904D01*
X116173523Y-56808666D01*
X116125904Y-56713428D01*
X116078285Y-56665809D01*
X115983047Y-56618190D01*
X115792571Y-56570571D01*
X115697333Y-56522952D01*
X115649714Y-56475333D01*
X115602095Y-56380095D01*
X115602095Y-56284857D01*
X115649714Y-56189619D01*
X115697333Y-56142000D01*
X115792571Y-56094380D01*
X116030666Y-56094380D01*
X116173523Y-56142000D01*
X116649714Y-57046761D02*
X116649714Y-57094380D01*
X116602095Y-57189619D01*
X116554476Y-57237238D01*
X118030666Y-56618190D02*
X118030666Y-57094380D01*
X117697333Y-56094380D02*
X118030666Y-56618190D01*
X118364000Y-56094380D01*
X118887809Y-56094380D02*
X119078285Y-56094380D01*
X119173523Y-56142000D01*
X119268761Y-56237238D01*
X119316380Y-56427714D01*
X119316380Y-56761047D01*
X119268761Y-56951523D01*
X119173523Y-57046761D01*
X119078285Y-57094380D01*
X118887809Y-57094380D01*
X118792571Y-57046761D01*
X118697333Y-56951523D01*
X118649714Y-56761047D01*
X118649714Y-56427714D01*
X118697333Y-56237238D01*
X118792571Y-56142000D01*
X118887809Y-56094380D01*
X119744952Y-56094380D02*
X119744952Y-56903904D01*
X119792571Y-56999142D01*
X119840190Y-57046761D01*
X119935428Y-57094380D01*
X120125904Y-57094380D01*
X120221142Y-57046761D01*
X120268761Y-56999142D01*
X120316380Y-56903904D01*
X120316380Y-56094380D01*
X121364000Y-57094380D02*
X121030666Y-56618190D01*
X120792571Y-57094380D02*
X120792571Y-56094380D01*
X121173523Y-56094380D01*
X121268761Y-56142000D01*
X121316380Y-56189619D01*
X121364000Y-56284857D01*
X121364000Y-56427714D01*
X121316380Y-56522952D01*
X121268761Y-56570571D01*
X121173523Y-56618190D01*
X120792571Y-56618190D01*
X122554476Y-57094380D02*
X122554476Y-56094380D01*
X122935428Y-56094380D01*
X123030666Y-56142000D01*
X123078285Y-56189619D01*
X123125904Y-56284857D01*
X123125904Y-56427714D01*
X123078285Y-56522952D01*
X123030666Y-56570571D01*
X122935428Y-56618190D01*
X122554476Y-56618190D01*
X123554476Y-57094380D02*
X123554476Y-56094380D01*
X124792571Y-57094380D02*
X124792571Y-56094380D01*
X125221142Y-57046761D02*
X125364000Y-57094380D01*
X125602095Y-57094380D01*
X125697333Y-57046761D01*
X125744952Y-56999142D01*
X125792571Y-56903904D01*
X125792571Y-56808666D01*
X125744952Y-56713428D01*
X125697333Y-56665809D01*
X125602095Y-56618190D01*
X125411619Y-56570571D01*
X125316380Y-56522952D01*
X125268761Y-56475333D01*
X125221142Y-56380095D01*
X125221142Y-56284857D01*
X125268761Y-56189619D01*
X125316380Y-56142000D01*
X125411619Y-56094380D01*
X125649714Y-56094380D01*
X125792571Y-56142000D01*
X126983047Y-56094380D02*
X126983047Y-56903904D01*
X127030666Y-56999142D01*
X127078285Y-57046761D01*
X127173523Y-57094380D01*
X127364000Y-57094380D01*
X127459238Y-57046761D01*
X127506857Y-56999142D01*
X127554476Y-56903904D01*
X127554476Y-56094380D01*
X128030666Y-57094380D02*
X128030666Y-56094380D01*
X128411619Y-56094380D01*
X128506857Y-56142000D01*
X128554476Y-56189619D01*
X128602095Y-56284857D01*
X128602095Y-56427714D01*
X128554476Y-56522952D01*
X128506857Y-56570571D01*
X128411619Y-56618190D01*
X128030666Y-56618190D01*
X128983047Y-57046761D02*
X129125904Y-57094380D01*
X129364000Y-57094380D01*
X129459238Y-57046761D01*
X129506857Y-56999142D01*
X129554476Y-56903904D01*
X129554476Y-56808666D01*
X129506857Y-56713428D01*
X129459238Y-56665809D01*
X129364000Y-56618190D01*
X129173523Y-56570571D01*
X129078285Y-56522952D01*
X129030666Y-56475333D01*
X128983047Y-56380095D01*
X128983047Y-56284857D01*
X129030666Y-56189619D01*
X129078285Y-56142000D01*
X129173523Y-56094380D01*
X129411619Y-56094380D01*
X129554476Y-56142000D01*
X129983047Y-57094380D02*
X129983047Y-56094380D01*
X130459238Y-57094380D02*
X130459238Y-56094380D01*
X130697333Y-56094380D01*
X130840190Y-56142000D01*
X130935428Y-56237238D01*
X130983047Y-56332476D01*
X131030666Y-56522952D01*
X131030666Y-56665809D01*
X130983047Y-56856285D01*
X130935428Y-56951523D01*
X130840190Y-57046761D01*
X130697333Y-57094380D01*
X130459238Y-57094380D01*
X131459238Y-56570571D02*
X131792571Y-56570571D01*
X131935428Y-57094380D02*
X131459238Y-57094380D01*
X131459238Y-56094380D01*
X131935428Y-56094380D01*
X133125904Y-57094380D02*
X133125904Y-56094380D01*
X133364000Y-56094380D01*
X133506857Y-56142000D01*
X133602095Y-56237238D01*
X133649714Y-56332476D01*
X133697333Y-56522952D01*
X133697333Y-56665809D01*
X133649714Y-56856285D01*
X133602095Y-56951523D01*
X133506857Y-57046761D01*
X133364000Y-57094380D01*
X133125904Y-57094380D01*
X134316380Y-56094380D02*
X134506857Y-56094380D01*
X134602095Y-56142000D01*
X134697333Y-56237238D01*
X134744952Y-56427714D01*
X134744952Y-56761047D01*
X134697333Y-56951523D01*
X134602095Y-57046761D01*
X134506857Y-57094380D01*
X134316380Y-57094380D01*
X134221142Y-57046761D01*
X134125904Y-56951523D01*
X134078285Y-56761047D01*
X134078285Y-56427714D01*
X134125904Y-56237238D01*
X134221142Y-56142000D01*
X134316380Y-56094380D01*
X135078285Y-56094380D02*
X135316380Y-57094380D01*
X135506857Y-56380095D01*
X135697333Y-57094380D01*
X135935428Y-56094380D01*
X136316380Y-57094380D02*
X136316380Y-56094380D01*
X136887809Y-57094380D01*
X136887809Y-56094380D01*
X137364000Y-56999142D02*
X137411619Y-57046761D01*
X137364000Y-57094380D01*
X137316380Y-57046761D01*
X137364000Y-56999142D01*
X137364000Y-57094380D01*
X137364000Y-56713428D02*
X137316380Y-56142000D01*
X137364000Y-56094380D01*
X137411619Y-56142000D01*
X137364000Y-56713428D01*
X137364000Y-56094380D01*
X93505976Y-93255666D02*
X93982166Y-93255666D01*
X93410738Y-93541380D02*
X93744071Y-92541380D01*
X94077404Y-93541380D01*
X94410738Y-93541380D02*
X94410738Y-92874714D01*
X94410738Y-92969952D02*
X94458357Y-92922333D01*
X94553595Y-92874714D01*
X94696452Y-92874714D01*
X94791690Y-92922333D01*
X94839309Y-93017571D01*
X94839309Y-93541380D01*
X94839309Y-93017571D02*
X94886928Y-92922333D01*
X94982166Y-92874714D01*
X95125023Y-92874714D01*
X95220261Y-92922333D01*
X95267880Y-93017571D01*
X95267880Y-93541380D01*
X95744071Y-93541380D02*
X95744071Y-92874714D01*
X95744071Y-92541380D02*
X95696452Y-92589000D01*
X95744071Y-92636619D01*
X95791690Y-92589000D01*
X95744071Y-92541380D01*
X95744071Y-92636619D01*
X96648833Y-92874714D02*
X96648833Y-93684238D01*
X96601214Y-93779476D01*
X96553595Y-93827095D01*
X96458357Y-93874714D01*
X96315500Y-93874714D01*
X96220261Y-93827095D01*
X96648833Y-93493761D02*
X96553595Y-93541380D01*
X96363119Y-93541380D01*
X96267880Y-93493761D01*
X96220261Y-93446142D01*
X96172642Y-93350904D01*
X96172642Y-93065190D01*
X96220261Y-92969952D01*
X96267880Y-92922333D01*
X96363119Y-92874714D01*
X96553595Y-92874714D01*
X96648833Y-92922333D01*
X97553595Y-93541380D02*
X97553595Y-93017571D01*
X97505976Y-92922333D01*
X97410738Y-92874714D01*
X97220261Y-92874714D01*
X97125023Y-92922333D01*
X97553595Y-93493761D02*
X97458357Y-93541380D01*
X97220261Y-93541380D01*
X97125023Y-93493761D01*
X97077404Y-93398523D01*
X97077404Y-93303285D01*
X97125023Y-93208047D01*
X97220261Y-93160428D01*
X97458357Y-93160428D01*
X97553595Y-93112809D01*
X99315500Y-93541380D02*
X98744071Y-93541380D01*
X99029785Y-93541380D02*
X99029785Y-92541380D01*
X98934547Y-92684238D01*
X98839309Y-92779476D01*
X98744071Y-92827095D01*
X99934547Y-92541380D02*
X100029785Y-92541380D01*
X100125023Y-92589000D01*
X100172642Y-92636619D01*
X100220261Y-92731857D01*
X100267880Y-92922333D01*
X100267880Y-93160428D01*
X100220261Y-93350904D01*
X100172642Y-93446142D01*
X100125023Y-93493761D01*
X100029785Y-93541380D01*
X99934547Y-93541380D01*
X99839309Y-93493761D01*
X99791690Y-93446142D01*
X99744071Y-93350904D01*
X99696452Y-93160428D01*
X99696452Y-92922333D01*
X99744071Y-92731857D01*
X99791690Y-92636619D01*
X99839309Y-92589000D01*
X99934547Y-92541380D01*
X100886928Y-92541380D02*
X100982166Y-92541380D01*
X101077404Y-92589000D01*
X101125023Y-92636619D01*
X101172642Y-92731857D01*
X101220261Y-92922333D01*
X101220261Y-93160428D01*
X101172642Y-93350904D01*
X101125023Y-93446142D01*
X101077404Y-93493761D01*
X100982166Y-93541380D01*
X100886928Y-93541380D01*
X100791690Y-93493761D01*
X100744071Y-93446142D01*
X100696452Y-93350904D01*
X100648833Y-93160428D01*
X100648833Y-92922333D01*
X100696452Y-92731857D01*
X100744071Y-92636619D01*
X100791690Y-92589000D01*
X100886928Y-92541380D01*
X101839309Y-92541380D02*
X101934547Y-92541380D01*
X102029785Y-92589000D01*
X102077404Y-92636619D01*
X102125023Y-92731857D01*
X102172642Y-92922333D01*
X102172642Y-93160428D01*
X102125023Y-93350904D01*
X102077404Y-93446142D01*
X102029785Y-93493761D01*
X101934547Y-93541380D01*
X101839309Y-93541380D01*
X101744071Y-93493761D01*
X101696452Y-93446142D01*
X101648833Y-93350904D01*
X101601214Y-93160428D01*
X101601214Y-92922333D01*
X101648833Y-92731857D01*
X101696452Y-92636619D01*
X101744071Y-92589000D01*
X101839309Y-92541380D01*
X94125023Y-95151380D02*
X93791690Y-94675190D01*
X93553595Y-95151380D02*
X93553595Y-94151380D01*
X93934547Y-94151380D01*
X94029785Y-94199000D01*
X94077404Y-94246619D01*
X94125023Y-94341857D01*
X94125023Y-94484714D01*
X94077404Y-94579952D01*
X94029785Y-94627571D01*
X93934547Y-94675190D01*
X93553595Y-94675190D01*
X95077404Y-94199000D02*
X94982166Y-94151380D01*
X94839309Y-94151380D01*
X94696452Y-94199000D01*
X94601214Y-94294238D01*
X94553595Y-94389476D01*
X94505976Y-94579952D01*
X94505976Y-94722809D01*
X94553595Y-94913285D01*
X94601214Y-95008523D01*
X94696452Y-95103761D01*
X94839309Y-95151380D01*
X94934547Y-95151380D01*
X95077404Y-95103761D01*
X95125023Y-95056142D01*
X95125023Y-94722809D01*
X94934547Y-94722809D01*
X95886928Y-94627571D02*
X96029785Y-94675190D01*
X96077404Y-94722809D01*
X96125023Y-94818047D01*
X96125023Y-94960904D01*
X96077404Y-95056142D01*
X96029785Y-95103761D01*
X95934547Y-95151380D01*
X95553595Y-95151380D01*
X95553595Y-94151380D01*
X95886928Y-94151380D01*
X95982166Y-94199000D01*
X96029785Y-94246619D01*
X96077404Y-94341857D01*
X96077404Y-94437095D01*
X96029785Y-94532333D01*
X95982166Y-94579952D01*
X95886928Y-94627571D01*
X95553595Y-94627571D01*
X96410738Y-94484714D02*
X96791690Y-94484714D01*
X96553595Y-94151380D02*
X96553595Y-95008523D01*
X96601214Y-95103761D01*
X96696452Y-95151380D01*
X96791690Y-95151380D01*
X97267880Y-95151380D02*
X97172642Y-95103761D01*
X97125023Y-95056142D01*
X97077404Y-94960904D01*
X97077404Y-94675190D01*
X97125023Y-94579952D01*
X97172642Y-94532333D01*
X97267880Y-94484714D01*
X97410738Y-94484714D01*
X97505976Y-94532333D01*
X97553595Y-94579952D01*
X97601214Y-94675190D01*
X97601214Y-94960904D01*
X97553595Y-95056142D01*
X97505976Y-95103761D01*
X97410738Y-95151380D01*
X97267880Y-95151380D01*
X98029785Y-95151380D02*
X98029785Y-94151380D01*
X98029785Y-94627571D02*
X98601214Y-94627571D01*
X98601214Y-95151380D02*
X98601214Y-94151380D01*
X99077404Y-95151380D02*
X99077404Y-94151380D01*
X99315500Y-94151380D01*
X99458357Y-94199000D01*
X99553595Y-94294238D01*
X99601214Y-94389476D01*
X99648833Y-94579952D01*
X99648833Y-94722809D01*
X99601214Y-94913285D01*
X99553595Y-95008523D01*
X99458357Y-95103761D01*
X99315500Y-95151380D01*
X99077404Y-95151380D01*
X100077404Y-95151380D02*
X100077404Y-94151380D01*
X100410738Y-94865666D01*
X100744071Y-94151380D01*
X100744071Y-95151380D01*
X101220261Y-95151380D02*
X101220261Y-94151380D01*
X103029785Y-95056142D02*
X102982166Y-95103761D01*
X102839309Y-95151380D01*
X102744071Y-95151380D01*
X102601214Y-95103761D01*
X102505976Y-95008523D01*
X102458357Y-94913285D01*
X102410738Y-94722809D01*
X102410738Y-94579952D01*
X102458357Y-94389476D01*
X102505976Y-94294238D01*
X102601214Y-94199000D01*
X102744071Y-94151380D01*
X102839309Y-94151380D01*
X102982166Y-94199000D01*
X103029785Y-94246619D01*
X103458357Y-95151380D02*
X103458357Y-94151380D01*
X103839309Y-94151380D01*
X103934547Y-94199000D01*
X103982166Y-94246619D01*
X104029785Y-94341857D01*
X104029785Y-94484714D01*
X103982166Y-94579952D01*
X103934547Y-94627571D01*
X103839309Y-94675190D01*
X103458357Y-94675190D01*
X104934547Y-95151380D02*
X104458357Y-95151380D01*
X104458357Y-94151380D01*
X105267880Y-95151380D02*
X105267880Y-94151380D01*
X105505976Y-94151380D01*
X105648833Y-94199000D01*
X105744071Y-94294238D01*
X105791690Y-94389476D01*
X105839309Y-94579952D01*
X105839309Y-94722809D01*
X105791690Y-94913285D01*
X105744071Y-95008523D01*
X105648833Y-95103761D01*
X105505976Y-95151380D01*
X105267880Y-95151380D01*
X106934547Y-94484714D02*
X107172642Y-95151380D01*
X107410738Y-94484714D01*
X108315500Y-95151380D02*
X107744071Y-95151380D01*
X108029785Y-95151380D02*
X108029785Y-94151380D01*
X107934547Y-94294238D01*
X107839309Y-94389476D01*
X107744071Y-94437095D01*
X108744071Y-95056142D02*
X108791690Y-95103761D01*
X108744071Y-95151380D01*
X108696452Y-95103761D01*
X108744071Y-95056142D01*
X108744071Y-95151380D01*
X109125023Y-94151380D02*
X109744071Y-94151380D01*
X109410738Y-94532333D01*
X109553595Y-94532333D01*
X109648833Y-94579952D01*
X109696452Y-94627571D01*
X109744071Y-94722809D01*
X109744071Y-94960904D01*
X109696452Y-95056142D01*
X109648833Y-95103761D01*
X109553595Y-95151380D01*
X109267880Y-95151380D01*
X109172642Y-95103761D01*
X109125023Y-95056142D01*
X93839309Y-97142333D02*
X93791690Y-97094714D01*
X93696452Y-96951857D01*
X93648833Y-96856619D01*
X93601214Y-96713761D01*
X93553595Y-96475666D01*
X93553595Y-96285190D01*
X93601214Y-96047095D01*
X93648833Y-95904238D01*
X93696452Y-95809000D01*
X93791690Y-95666142D01*
X93839309Y-95618523D01*
X94648833Y-96713761D02*
X94553595Y-96761380D01*
X94363119Y-96761380D01*
X94267880Y-96713761D01*
X94220261Y-96666142D01*
X94172642Y-96570904D01*
X94172642Y-96285190D01*
X94220261Y-96189952D01*
X94267880Y-96142333D01*
X94363119Y-96094714D01*
X94553595Y-96094714D01*
X94648833Y-96142333D01*
X94982166Y-97142333D02*
X95029785Y-97094714D01*
X95125023Y-96951857D01*
X95172642Y-96856619D01*
X95220261Y-96713761D01*
X95267880Y-96475666D01*
X95267880Y-96285190D01*
X95220261Y-96047095D01*
X95172642Y-95904238D01*
X95125023Y-95809000D01*
X95029785Y-95666142D01*
X94982166Y-95618523D01*
X96458357Y-95856619D02*
X96505976Y-95809000D01*
X96601214Y-95761380D01*
X96839309Y-95761380D01*
X96934547Y-95809000D01*
X96982166Y-95856619D01*
X97029785Y-95951857D01*
X97029785Y-96047095D01*
X96982166Y-96189952D01*
X96410738Y-96761380D01*
X97029785Y-96761380D01*
X97648833Y-95761380D02*
X97744071Y-95761380D01*
X97839309Y-95809000D01*
X97886928Y-95856619D01*
X97934547Y-95951857D01*
X97982166Y-96142333D01*
X97982166Y-96380428D01*
X97934547Y-96570904D01*
X97886928Y-96666142D01*
X97839309Y-96713761D01*
X97744071Y-96761380D01*
X97648833Y-96761380D01*
X97553595Y-96713761D01*
X97505976Y-96666142D01*
X97458357Y-96570904D01*
X97410738Y-96380428D01*
X97410738Y-96142333D01*
X97458357Y-95951857D01*
X97505976Y-95856619D01*
X97553595Y-95809000D01*
X97648833Y-95761380D01*
X98363119Y-95856619D02*
X98410738Y-95809000D01*
X98505976Y-95761380D01*
X98744071Y-95761380D01*
X98839309Y-95809000D01*
X98886928Y-95856619D01*
X98934547Y-95951857D01*
X98934547Y-96047095D01*
X98886928Y-96189952D01*
X98315500Y-96761380D01*
X98934547Y-96761380D01*
X99886928Y-96761380D02*
X99315500Y-96761380D01*
X99601214Y-96761380D02*
X99601214Y-95761380D01*
X99505976Y-95904238D01*
X99410738Y-95999476D01*
X99315500Y-96047095D01*
X101553595Y-96761380D02*
X101077404Y-96761380D01*
X101077404Y-95761380D01*
X101886928Y-96761380D02*
X101886928Y-96094714D01*
X101886928Y-95761380D02*
X101839309Y-95809000D01*
X101886928Y-95856619D01*
X101934547Y-95809000D01*
X101886928Y-95761380D01*
X101886928Y-95856619D01*
X102363119Y-96094714D02*
X102363119Y-96761380D01*
X102363119Y-96189952D02*
X102410738Y-96142333D01*
X102505976Y-96094714D01*
X102648833Y-96094714D01*
X102744071Y-96142333D01*
X102791690Y-96237571D01*
X102791690Y-96761380D01*
X103696452Y-96094714D02*
X103696452Y-96761380D01*
X103267880Y-96094714D02*
X103267880Y-96618523D01*
X103315500Y-96713761D01*
X103410738Y-96761380D01*
X103553595Y-96761380D01*
X103648833Y-96713761D01*
X103696452Y-96666142D01*
X104077404Y-96761380D02*
X104601214Y-96094714D01*
X104077404Y-96094714D02*
X104601214Y-96761380D01*
X105267880Y-95761380D02*
X105267880Y-96475666D01*
X105220261Y-96618523D01*
X105125023Y-96713761D01*
X104982166Y-96761380D01*
X104886928Y-96761380D01*
X106125023Y-96713761D02*
X106029785Y-96761380D01*
X105839309Y-96761380D01*
X105744071Y-96713761D01*
X105696452Y-96618523D01*
X105696452Y-96237571D01*
X105744071Y-96142333D01*
X105839309Y-96094714D01*
X106029785Y-96094714D01*
X106125023Y-96142333D01*
X106172642Y-96237571D01*
X106172642Y-96332809D01*
X105696452Y-96428047D01*
X107029785Y-96761380D02*
X107029785Y-95761380D01*
X107029785Y-96713761D02*
X106934547Y-96761380D01*
X106744071Y-96761380D01*
X106648833Y-96713761D01*
X106601214Y-96666142D01*
X106553595Y-96570904D01*
X106553595Y-96285190D01*
X106601214Y-96189952D01*
X106648833Y-96142333D01*
X106744071Y-96094714D01*
X106934547Y-96094714D01*
X107029785Y-96142333D01*
X107505976Y-96761380D02*
X107505976Y-96094714D01*
X107505976Y-95761380D02*
X107458357Y-95809000D01*
X107505976Y-95856619D01*
X107553595Y-95809000D01*
X107505976Y-95761380D01*
X107505976Y-95856619D01*
X93886928Y-97847571D02*
X94029785Y-97895190D01*
X94077404Y-97942809D01*
X94125023Y-98038047D01*
X94125023Y-98180904D01*
X94077404Y-98276142D01*
X94029785Y-98323761D01*
X93934547Y-98371380D01*
X93553595Y-98371380D01*
X93553595Y-97371380D01*
X93886928Y-97371380D01*
X93982166Y-97419000D01*
X94029785Y-97466619D01*
X94077404Y-97561857D01*
X94077404Y-97657095D01*
X94029785Y-97752333D01*
X93982166Y-97799952D01*
X93886928Y-97847571D01*
X93553595Y-97847571D01*
X94982166Y-98371380D02*
X94982166Y-97847571D01*
X94934547Y-97752333D01*
X94839309Y-97704714D01*
X94648833Y-97704714D01*
X94553595Y-97752333D01*
X94982166Y-98323761D02*
X94886928Y-98371380D01*
X94648833Y-98371380D01*
X94553595Y-98323761D01*
X94505976Y-98228523D01*
X94505976Y-98133285D01*
X94553595Y-98038047D01*
X94648833Y-97990428D01*
X94886928Y-97990428D01*
X94982166Y-97942809D01*
X95410738Y-98323761D02*
X95505976Y-98371380D01*
X95696452Y-98371380D01*
X95791690Y-98323761D01*
X95839309Y-98228523D01*
X95839309Y-98180904D01*
X95791690Y-98085666D01*
X95696452Y-98038047D01*
X95553595Y-98038047D01*
X95458357Y-97990428D01*
X95410738Y-97895190D01*
X95410738Y-97847571D01*
X95458357Y-97752333D01*
X95553595Y-97704714D01*
X95696452Y-97704714D01*
X95791690Y-97752333D01*
X96648833Y-98323761D02*
X96553595Y-98371380D01*
X96363119Y-98371380D01*
X96267880Y-98323761D01*
X96220261Y-98228523D01*
X96220261Y-97847571D01*
X96267880Y-97752333D01*
X96363119Y-97704714D01*
X96553595Y-97704714D01*
X96648833Y-97752333D01*
X96696452Y-97847571D01*
X96696452Y-97942809D01*
X96220261Y-98038047D01*
X97553595Y-98371380D02*
X97553595Y-97371380D01*
X97553595Y-98323761D02*
X97458357Y-98371380D01*
X97267880Y-98371380D01*
X97172642Y-98323761D01*
X97125023Y-98276142D01*
X97077404Y-98180904D01*
X97077404Y-97895190D01*
X97125023Y-97799952D01*
X97172642Y-97752333D01*
X97267880Y-97704714D01*
X97458357Y-97704714D01*
X97553595Y-97752333D01*
X98934547Y-98371380D02*
X98839309Y-98323761D01*
X98791690Y-98276142D01*
X98744071Y-98180904D01*
X98744071Y-97895190D01*
X98791690Y-97799952D01*
X98839309Y-97752333D01*
X98934547Y-97704714D01*
X99077404Y-97704714D01*
X99172642Y-97752333D01*
X99220261Y-97799952D01*
X99267880Y-97895190D01*
X99267880Y-98180904D01*
X99220261Y-98276142D01*
X99172642Y-98323761D01*
X99077404Y-98371380D01*
X98934547Y-98371380D01*
X99696452Y-97704714D02*
X99696452Y-98371380D01*
X99696452Y-97799952D02*
X99744071Y-97752333D01*
X99839309Y-97704714D01*
X99982166Y-97704714D01*
X100077404Y-97752333D01*
X100125023Y-97847571D01*
X100125023Y-98371380D01*
X101267880Y-97704714D02*
X101458357Y-98371380D01*
X101648833Y-97895190D01*
X101839309Y-98371380D01*
X102029785Y-97704714D01*
X102553595Y-98371380D02*
X102458357Y-98323761D01*
X102410738Y-98276142D01*
X102363119Y-98180904D01*
X102363119Y-97895190D01*
X102410738Y-97799952D01*
X102458357Y-97752333D01*
X102553595Y-97704714D01*
X102696452Y-97704714D01*
X102791690Y-97752333D01*
X102839309Y-97799952D01*
X102886928Y-97895190D01*
X102886928Y-98180904D01*
X102839309Y-98276142D01*
X102791690Y-98323761D01*
X102696452Y-98371380D01*
X102553595Y-98371380D01*
X103315500Y-98371380D02*
X103315500Y-97704714D01*
X103315500Y-97895190D02*
X103363119Y-97799952D01*
X103410738Y-97752333D01*
X103505976Y-97704714D01*
X103601214Y-97704714D01*
X103934547Y-98371380D02*
X103934547Y-97371380D01*
X104029785Y-97990428D02*
X104315500Y-98371380D01*
X104315500Y-97704714D02*
X103934547Y-98085666D01*
X105505976Y-98371380D02*
X105505976Y-97371380D01*
X105505976Y-97752333D02*
X105601214Y-97704714D01*
X105791690Y-97704714D01*
X105886928Y-97752333D01*
X105934547Y-97799952D01*
X105982166Y-97895190D01*
X105982166Y-98180904D01*
X105934547Y-98276142D01*
X105886928Y-98323761D01*
X105791690Y-98371380D01*
X105601214Y-98371380D01*
X105505976Y-98323761D01*
X106315500Y-97704714D02*
X106553595Y-98371380D01*
X106791690Y-97704714D02*
X106553595Y-98371380D01*
X106458357Y-98609476D01*
X106410738Y-98657095D01*
X106315500Y-98704714D01*
X107934547Y-98371380D02*
X107934547Y-97371380D01*
X108839309Y-98371380D02*
X108839309Y-97847571D01*
X108791690Y-97752333D01*
X108696452Y-97704714D01*
X108505976Y-97704714D01*
X108410738Y-97752333D01*
X108839309Y-98323761D02*
X108744071Y-98371380D01*
X108505976Y-98371380D01*
X108410738Y-98323761D01*
X108363119Y-98228523D01*
X108363119Y-98133285D01*
X108410738Y-98038047D01*
X108505976Y-97990428D01*
X108744071Y-97990428D01*
X108839309Y-97942809D01*
X109315500Y-97704714D02*
X109315500Y-98371380D01*
X109315500Y-97799952D02*
X109363119Y-97752333D01*
X109458357Y-97704714D01*
X109601214Y-97704714D01*
X109696452Y-97752333D01*
X109744071Y-97847571D01*
X109744071Y-98371380D01*
X110172642Y-98323761D02*
X110315500Y-98371380D01*
X110553595Y-98371380D01*
X110648833Y-98323761D01*
X110696452Y-98276142D01*
X110744071Y-98180904D01*
X110744071Y-98085666D01*
X110696452Y-97990428D01*
X110648833Y-97942809D01*
X110553595Y-97895190D01*
X110363119Y-97847571D01*
X110267880Y-97799952D01*
X110220261Y-97752333D01*
X110172642Y-97657095D01*
X110172642Y-97561857D01*
X110220261Y-97466619D01*
X110267880Y-97419000D01*
X110363119Y-97371380D01*
X110601214Y-97371380D01*
X110744071Y-97419000D01*
X111505976Y-97847571D02*
X111648833Y-97895190D01*
X111696452Y-97942809D01*
X111744071Y-98038047D01*
X111744071Y-98180904D01*
X111696452Y-98276142D01*
X111648833Y-98323761D01*
X111553595Y-98371380D01*
X111172642Y-98371380D01*
X111172642Y-97371380D01*
X111505976Y-97371380D01*
X111601214Y-97419000D01*
X111648833Y-97466619D01*
X111696452Y-97561857D01*
X111696452Y-97657095D01*
X111648833Y-97752333D01*
X111601214Y-97799952D01*
X111505976Y-97847571D01*
X111172642Y-97847571D01*
X113363119Y-98371380D02*
X113363119Y-97847571D01*
X113315500Y-97752333D01*
X113220261Y-97704714D01*
X113029785Y-97704714D01*
X112934547Y-97752333D01*
X113363119Y-98323761D02*
X113267880Y-98371380D01*
X113029785Y-98371380D01*
X112934547Y-98323761D01*
X112886928Y-98228523D01*
X112886928Y-98133285D01*
X112934547Y-98038047D01*
X113029785Y-97990428D01*
X113267880Y-97990428D01*
X113363119Y-97942809D01*
X113839309Y-97704714D02*
X113839309Y-98371380D01*
X113839309Y-97799952D02*
X113886928Y-97752333D01*
X113982166Y-97704714D01*
X114125023Y-97704714D01*
X114220261Y-97752333D01*
X114267880Y-97847571D01*
X114267880Y-98371380D01*
X115172642Y-98371380D02*
X115172642Y-97371380D01*
X115172642Y-98323761D02*
X115077404Y-98371380D01*
X114886928Y-98371380D01*
X114791690Y-98323761D01*
X114744071Y-98276142D01*
X114696452Y-98180904D01*
X114696452Y-97895190D01*
X114744071Y-97799952D01*
X114791690Y-97752333D01*
X114886928Y-97704714D01*
X115077404Y-97704714D01*
X115172642Y-97752333D01*
X116410738Y-98371380D02*
X116410738Y-97371380D01*
X116839309Y-98371380D02*
X116839309Y-97847571D01*
X116791690Y-97752333D01*
X116696452Y-97704714D01*
X116553595Y-97704714D01*
X116458357Y-97752333D01*
X116410738Y-97799952D01*
X117458357Y-98371380D02*
X117363119Y-98323761D01*
X117315499Y-98276142D01*
X117267880Y-98180904D01*
X117267880Y-97895190D01*
X117315499Y-97799952D01*
X117363119Y-97752333D01*
X117458357Y-97704714D01*
X117601214Y-97704714D01*
X117696452Y-97752333D01*
X117744071Y-97799952D01*
X117791690Y-97895190D01*
X117791690Y-98180904D01*
X117744071Y-98276142D01*
X117696452Y-98323761D01*
X117601214Y-98371380D01*
X117458357Y-98371380D01*
X118648833Y-97704714D02*
X118648833Y-98514238D01*
X118601214Y-98609476D01*
X118553595Y-98657095D01*
X118458357Y-98704714D01*
X118315499Y-98704714D01*
X118220261Y-98657095D01*
X118648833Y-98323761D02*
X118553595Y-98371380D01*
X118363119Y-98371380D01*
X118267880Y-98323761D01*
X118220261Y-98276142D01*
X118172642Y-98180904D01*
X118172642Y-97895190D01*
X118220261Y-97799952D01*
X118267880Y-97752333D01*
X118363119Y-97704714D01*
X118553595Y-97704714D01*
X118648833Y-97752333D01*
X119267880Y-98371380D02*
X119172642Y-98323761D01*
X119125023Y-98228523D01*
X119125023Y-97371380D01*
X120029785Y-98323761D02*
X119934547Y-98371380D01*
X119744071Y-98371380D01*
X119648833Y-98323761D01*
X119601214Y-98228523D01*
X119601214Y-97847571D01*
X119648833Y-97752333D01*
X119744071Y-97704714D01*
X119934547Y-97704714D01*
X120029785Y-97752333D01*
X120077404Y-97847571D01*
X120077404Y-97942809D01*
X119601214Y-98038047D01*
X120363119Y-97704714D02*
X120744071Y-97704714D01*
X120505976Y-97371380D02*
X120505976Y-98228523D01*
X120553595Y-98323761D01*
X120648833Y-98371380D01*
X120744071Y-98371380D01*
X121505976Y-97371380D02*
X121315499Y-97371380D01*
X121220261Y-97419000D01*
X121172642Y-97466619D01*
X121077404Y-97609476D01*
X121029785Y-97799952D01*
X121029785Y-98180904D01*
X121077404Y-98276142D01*
X121125023Y-98323761D01*
X121220261Y-98371380D01*
X121410738Y-98371380D01*
X121505976Y-98323761D01*
X121553595Y-98276142D01*
X121601214Y-98180904D01*
X121601214Y-97942809D01*
X121553595Y-97847571D01*
X121505976Y-97799952D01*
X121410738Y-97752333D01*
X121220261Y-97752333D01*
X121125023Y-97799952D01*
X121077404Y-97847571D01*
X121029785Y-97942809D01*
X121934547Y-97371380D02*
X122601214Y-97371380D01*
X122172642Y-98371380D01*
D11*
X94000000Y-56750000D02*
X93750000Y-56750000D01*
X94000000Y-56750000D02*
X94000000Y-56500000D01*
X93250000Y-56439340D02*
G75*
G02*
X94000000Y-56750000I0J-1060660D01*
G01*
D10*
X89369047Y-56702380D02*
X89369047Y-55702380D01*
X89750000Y-55702380D01*
X89845238Y-55750000D01*
X89892857Y-55797619D01*
X89940476Y-55892857D01*
X89940476Y-56035714D01*
X89892857Y-56130952D01*
X89845238Y-56178571D01*
X89750000Y-56226190D01*
X89369047Y-56226190D01*
X90369047Y-56702380D02*
X90369047Y-55702380D01*
X90845238Y-56702380D02*
X90845238Y-55702380D01*
X91416666Y-56702380D01*
X91416666Y-55702380D01*
X93178571Y-56702380D02*
X92607142Y-56702380D01*
X92892857Y-56702380D02*
X92892857Y-55702380D01*
X92797619Y-55845238D01*
X92702380Y-55940476D01*
X92607142Y-55988095D01*
G04 #@! TO.C,R1*
X129627333Y-81826380D02*
X129294000Y-81350190D01*
X129055904Y-81826380D02*
X129055904Y-80826380D01*
X129436857Y-80826380D01*
X129532095Y-80874000D01*
X129579714Y-80921619D01*
X129627333Y-81016857D01*
X129627333Y-81159714D01*
X129579714Y-81254952D01*
X129532095Y-81302571D01*
X129436857Y-81350190D01*
X129055904Y-81350190D01*
X130579714Y-81826380D02*
X130008285Y-81826380D01*
X130294000Y-81826380D02*
X130294000Y-80826380D01*
X130198761Y-80969238D01*
X130103523Y-81064476D01*
X130008285Y-81112095D01*
D12*
G04 #@! TO.C,JP3*
X137614428Y-81029714D02*
X137650142Y-80922571D01*
X137685857Y-80886857D01*
X137757285Y-80851142D01*
X137864428Y-80851142D01*
X137935857Y-80886857D01*
X137971571Y-80922571D01*
X138007285Y-80994000D01*
X138007285Y-81279714D01*
X137257285Y-81279714D01*
X137257285Y-81029714D01*
X137293000Y-80958285D01*
X137328714Y-80922571D01*
X137400142Y-80886857D01*
X137471571Y-80886857D01*
X137543000Y-80922571D01*
X137578714Y-80958285D01*
X137614428Y-81029714D01*
X137614428Y-81279714D01*
X137507285Y-80208285D02*
X138007285Y-80208285D01*
X137507285Y-80529714D02*
X137900142Y-80529714D01*
X137971571Y-80494000D01*
X138007285Y-80422571D01*
X138007285Y-80315428D01*
X137971571Y-80244000D01*
X137935857Y-80208285D01*
X137507285Y-79958285D02*
X137507285Y-79672571D01*
X137257285Y-79851142D02*
X137900142Y-79851142D01*
X137971571Y-79815428D01*
X138007285Y-79744000D01*
X138007285Y-79672571D01*
X137507285Y-79529714D02*
X137507285Y-79244000D01*
X137257285Y-79422571D02*
X137900142Y-79422571D01*
X137971571Y-79386857D01*
X138007285Y-79315428D01*
X138007285Y-79244000D01*
X138007285Y-78886857D02*
X137971571Y-78958285D01*
X137935857Y-78994000D01*
X137864428Y-79029714D01*
X137650142Y-79029714D01*
X137578714Y-78994000D01*
X137543000Y-78958285D01*
X137507285Y-78886857D01*
X137507285Y-78779714D01*
X137543000Y-78708285D01*
X137578714Y-78672571D01*
X137650142Y-78636857D01*
X137864428Y-78636857D01*
X137935857Y-78672571D01*
X137971571Y-78708285D01*
X138007285Y-78779714D01*
X138007285Y-78886857D01*
X137507285Y-78315428D02*
X138007285Y-78315428D01*
X137578714Y-78315428D02*
X137543000Y-78279714D01*
X137507285Y-78208285D01*
X137507285Y-78101142D01*
X137543000Y-78029714D01*
X137614428Y-77994000D01*
X138007285Y-77994000D01*
X137257285Y-77136857D02*
X137257285Y-76672571D01*
X137543000Y-76922571D01*
X137543000Y-76815428D01*
X137578714Y-76744000D01*
X137614428Y-76708285D01*
X137685857Y-76672571D01*
X137864428Y-76672571D01*
X137935857Y-76708285D01*
X137971571Y-76744000D01*
X138007285Y-76815428D01*
X138007285Y-77029714D01*
X137971571Y-77101142D01*
X137935857Y-77136857D01*
G04 #@! TO.C,JP2*
X137614428Y-74679714D02*
X137650142Y-74572571D01*
X137685857Y-74536857D01*
X137757285Y-74501142D01*
X137864428Y-74501142D01*
X137935857Y-74536857D01*
X137971571Y-74572571D01*
X138007285Y-74644000D01*
X138007285Y-74929714D01*
X137257285Y-74929714D01*
X137257285Y-74679714D01*
X137293000Y-74608285D01*
X137328714Y-74572571D01*
X137400142Y-74536857D01*
X137471571Y-74536857D01*
X137543000Y-74572571D01*
X137578714Y-74608285D01*
X137614428Y-74679714D01*
X137614428Y-74929714D01*
X137507285Y-73858285D02*
X138007285Y-73858285D01*
X137507285Y-74179714D02*
X137900142Y-74179714D01*
X137971571Y-74144000D01*
X138007285Y-74072571D01*
X138007285Y-73965428D01*
X137971571Y-73894000D01*
X137935857Y-73858285D01*
X137507285Y-73608285D02*
X137507285Y-73322571D01*
X137257285Y-73501142D02*
X137900142Y-73501142D01*
X137971571Y-73465428D01*
X138007285Y-73394000D01*
X138007285Y-73322571D01*
X137507285Y-73179714D02*
X137507285Y-72894000D01*
X137257285Y-73072571D02*
X137900142Y-73072571D01*
X137971571Y-73036857D01*
X138007285Y-72965428D01*
X138007285Y-72894000D01*
X138007285Y-72536857D02*
X137971571Y-72608285D01*
X137935857Y-72644000D01*
X137864428Y-72679714D01*
X137650142Y-72679714D01*
X137578714Y-72644000D01*
X137543000Y-72608285D01*
X137507285Y-72536857D01*
X137507285Y-72429714D01*
X137543000Y-72358285D01*
X137578714Y-72322571D01*
X137650142Y-72286857D01*
X137864428Y-72286857D01*
X137935857Y-72322571D01*
X137971571Y-72358285D01*
X138007285Y-72429714D01*
X138007285Y-72536857D01*
X137507285Y-71965428D02*
X138007285Y-71965428D01*
X137578714Y-71965428D02*
X137543000Y-71929714D01*
X137507285Y-71858285D01*
X137507285Y-71751142D01*
X137543000Y-71679714D01*
X137614428Y-71644000D01*
X138007285Y-71644000D01*
X137328714Y-70751142D02*
X137293000Y-70715428D01*
X137257285Y-70644000D01*
X137257285Y-70465428D01*
X137293000Y-70394000D01*
X137328714Y-70358285D01*
X137400142Y-70322571D01*
X137471571Y-70322571D01*
X137578714Y-70358285D01*
X138007285Y-70786857D01*
X138007285Y-70322571D01*
D10*
G04 #@! TO.C,J2*
X82582095Y-62587142D02*
X82534476Y-62634761D01*
X82391619Y-62682380D01*
X82296380Y-62682380D01*
X82153523Y-62634761D01*
X82058285Y-62539523D01*
X82010666Y-62444285D01*
X81963047Y-62253809D01*
X81963047Y-62110952D01*
X82010666Y-61920476D01*
X82058285Y-61825238D01*
X82153523Y-61730000D01*
X82296380Y-61682380D01*
X82391619Y-61682380D01*
X82534476Y-61730000D01*
X82582095Y-61777619D01*
X82963047Y-62634761D02*
X83105904Y-62682380D01*
X83344000Y-62682380D01*
X83439238Y-62634761D01*
X83486857Y-62587142D01*
X83534476Y-62491904D01*
X83534476Y-62396666D01*
X83486857Y-62301428D01*
X83439238Y-62253809D01*
X83344000Y-62206190D01*
X83153523Y-62158571D01*
X83058285Y-62110952D01*
X83010666Y-62063333D01*
X82963047Y-61968095D01*
X82963047Y-61872857D01*
X83010666Y-61777619D01*
X83058285Y-61730000D01*
X83153523Y-61682380D01*
X83391619Y-61682380D01*
X83534476Y-61730000D01*
X84153523Y-62206190D02*
X84153523Y-62682380D01*
X83820190Y-61682380D02*
X84153523Y-62206190D01*
X84486857Y-61682380D01*
X84820190Y-62682380D02*
X84820190Y-61682380D01*
X85391619Y-62682380D01*
X85391619Y-61682380D01*
X86439238Y-62587142D02*
X86391619Y-62634761D01*
X86248761Y-62682380D01*
X86153523Y-62682380D01*
X86010666Y-62634761D01*
X85915428Y-62539523D01*
X85867809Y-62444285D01*
X85820190Y-62253809D01*
X85820190Y-62110952D01*
X85867809Y-61920476D01*
X85915428Y-61825238D01*
X86010666Y-61730000D01*
X86153523Y-61682380D01*
X86248761Y-61682380D01*
X86391619Y-61730000D01*
X86439238Y-61777619D01*
X87629714Y-62682380D02*
X87629714Y-61682380D01*
X88105904Y-62682380D02*
X88105904Y-61682380D01*
X88677333Y-62682380D01*
X88677333Y-61682380D01*
D12*
G04 #@! TO.C,JP1*
X137432428Y-68411714D02*
X137468142Y-68304571D01*
X137503857Y-68268857D01*
X137575285Y-68233142D01*
X137682428Y-68233142D01*
X137753857Y-68268857D01*
X137789571Y-68304571D01*
X137825285Y-68376000D01*
X137825285Y-68661714D01*
X137075285Y-68661714D01*
X137075285Y-68411714D01*
X137111000Y-68340285D01*
X137146714Y-68304571D01*
X137218142Y-68268857D01*
X137289571Y-68268857D01*
X137361000Y-68304571D01*
X137396714Y-68340285D01*
X137432428Y-68411714D01*
X137432428Y-68661714D01*
X137325285Y-67590285D02*
X137825285Y-67590285D01*
X137325285Y-67911714D02*
X137718142Y-67911714D01*
X137789571Y-67876000D01*
X137825285Y-67804571D01*
X137825285Y-67697428D01*
X137789571Y-67626000D01*
X137753857Y-67590285D01*
X137325285Y-67340285D02*
X137325285Y-67054571D01*
X137075285Y-67233142D02*
X137718142Y-67233142D01*
X137789571Y-67197428D01*
X137825285Y-67126000D01*
X137825285Y-67054571D01*
X137325285Y-66911714D02*
X137325285Y-66626000D01*
X137075285Y-66804571D02*
X137718142Y-66804571D01*
X137789571Y-66768857D01*
X137825285Y-66697428D01*
X137825285Y-66626000D01*
X137825285Y-66268857D02*
X137789571Y-66340285D01*
X137753857Y-66376000D01*
X137682428Y-66411714D01*
X137468142Y-66411714D01*
X137396714Y-66376000D01*
X137361000Y-66340285D01*
X137325285Y-66268857D01*
X137325285Y-66161714D01*
X137361000Y-66090285D01*
X137396714Y-66054571D01*
X137468142Y-66018857D01*
X137682428Y-66018857D01*
X137753857Y-66054571D01*
X137789571Y-66090285D01*
X137825285Y-66161714D01*
X137825285Y-66268857D01*
X137325285Y-65697428D02*
X137825285Y-65697428D01*
X137396714Y-65697428D02*
X137361000Y-65661714D01*
X137325285Y-65590285D01*
X137325285Y-65483142D01*
X137361000Y-65411714D01*
X137432428Y-65376000D01*
X137825285Y-65376000D01*
X137825285Y-64054571D02*
X137825285Y-64483142D01*
X137825285Y-64268857D02*
X137075285Y-64268857D01*
X137182428Y-64340285D01*
X137253857Y-64411714D01*
X137289571Y-64483142D01*
D10*
G04 #@! TO.C,U3*
X116238095Y-90402380D02*
X116238095Y-91211904D01*
X116285714Y-91307142D01*
X116333333Y-91354761D01*
X116428571Y-91402380D01*
X116619047Y-91402380D01*
X116714285Y-91354761D01*
X116761904Y-91307142D01*
X116809523Y-91211904D01*
X116809523Y-90402380D01*
X117190476Y-90402380D02*
X117809523Y-90402380D01*
X117476190Y-90783333D01*
X117619047Y-90783333D01*
X117714285Y-90830952D01*
X117761904Y-90878571D01*
X117809523Y-90973809D01*
X117809523Y-91211904D01*
X117761904Y-91307142D01*
X117714285Y-91354761D01*
X117619047Y-91402380D01*
X117333333Y-91402380D01*
X117238095Y-91354761D01*
X117190476Y-91307142D01*
G04 #@! TO.C,U1*
X78868095Y-130282380D02*
X78868095Y-131091904D01*
X78915714Y-131187142D01*
X78963333Y-131234761D01*
X79058571Y-131282380D01*
X79249047Y-131282380D01*
X79344285Y-131234761D01*
X79391904Y-131187142D01*
X79439523Y-131091904D01*
X79439523Y-130282380D01*
X80439523Y-131282380D02*
X79868095Y-131282380D01*
X80153809Y-131282380D02*
X80153809Y-130282380D01*
X80058571Y-130425238D01*
X79963333Y-130520476D01*
X79868095Y-130568095D01*
G04 #@! TO.C,R2*
X114338380Y-70524666D02*
X113862190Y-70858000D01*
X114338380Y-71096095D02*
X113338380Y-71096095D01*
X113338380Y-70715142D01*
X113386000Y-70619904D01*
X113433619Y-70572285D01*
X113528857Y-70524666D01*
X113671714Y-70524666D01*
X113766952Y-70572285D01*
X113814571Y-70619904D01*
X113862190Y-70715142D01*
X113862190Y-71096095D01*
X113433619Y-70143714D02*
X113386000Y-70096095D01*
X113338380Y-70000857D01*
X113338380Y-69762761D01*
X113386000Y-69667523D01*
X113433619Y-69619904D01*
X113528857Y-69572285D01*
X113624095Y-69572285D01*
X113766952Y-69619904D01*
X114338380Y-70191333D01*
X114338380Y-69572285D01*
G04 #@! TO.C,J1*
X92452380Y-63583333D02*
X93166666Y-63583333D01*
X93309523Y-63630952D01*
X93404761Y-63726190D01*
X93452380Y-63869047D01*
X93452380Y-63964285D01*
X93452380Y-62583333D02*
X93452380Y-63154761D01*
X93452380Y-62869047D02*
X92452380Y-62869047D01*
X92595238Y-62964285D01*
X92690476Y-63059523D01*
X92738095Y-63154761D01*
G04 #@! TO.C,C3*
X115579142Y-94908666D02*
X115626761Y-94956285D01*
X115674380Y-95099142D01*
X115674380Y-95194380D01*
X115626761Y-95337238D01*
X115531523Y-95432476D01*
X115436285Y-95480095D01*
X115245809Y-95527714D01*
X115102952Y-95527714D01*
X114912476Y-95480095D01*
X114817238Y-95432476D01*
X114722000Y-95337238D01*
X114674380Y-95194380D01*
X114674380Y-95099142D01*
X114722000Y-94956285D01*
X114769619Y-94908666D01*
X114674380Y-94575333D02*
X114674380Y-93956285D01*
X115055333Y-94289619D01*
X115055333Y-94146761D01*
X115102952Y-94051523D01*
X115150571Y-94003904D01*
X115245809Y-93956285D01*
X115483904Y-93956285D01*
X115579142Y-94003904D01*
X115626761Y-94051523D01*
X115674380Y-94146761D01*
X115674380Y-94432476D01*
X115626761Y-94527714D01*
X115579142Y-94575333D01*
G04 #@! TO.C,C2*
X102703333Y-83829142D02*
X102655714Y-83876761D01*
X102512857Y-83924380D01*
X102417619Y-83924380D01*
X102274761Y-83876761D01*
X102179523Y-83781523D01*
X102131904Y-83686285D01*
X102084285Y-83495809D01*
X102084285Y-83352952D01*
X102131904Y-83162476D01*
X102179523Y-83067238D01*
X102274761Y-82972000D01*
X102417619Y-82924380D01*
X102512857Y-82924380D01*
X102655714Y-82972000D01*
X102703333Y-83019619D01*
X103084285Y-83019619D02*
X103131904Y-82972000D01*
X103227142Y-82924380D01*
X103465238Y-82924380D01*
X103560476Y-82972000D01*
X103608095Y-83019619D01*
X103655714Y-83114857D01*
X103655714Y-83210095D01*
X103608095Y-83352952D01*
X103036666Y-83924380D01*
X103655714Y-83924380D01*
G04 #@! TO.C,C1*
X117427142Y-70524666D02*
X117474761Y-70572285D01*
X117522380Y-70715142D01*
X117522380Y-70810380D01*
X117474761Y-70953238D01*
X117379523Y-71048476D01*
X117284285Y-71096095D01*
X117093809Y-71143714D01*
X116950952Y-71143714D01*
X116760476Y-71096095D01*
X116665238Y-71048476D01*
X116570000Y-70953238D01*
X116522380Y-70810380D01*
X116522380Y-70715142D01*
X116570000Y-70572285D01*
X116617619Y-70524666D01*
X117522380Y-69572285D02*
X117522380Y-70143714D01*
X117522380Y-69858000D02*
X116522380Y-69858000D01*
X116665238Y-69953238D01*
X116760476Y-70048476D01*
X116808095Y-70143714D01*
D11*
G04 #@! TO.C,R1*
X129539276Y-82281500D02*
X130048724Y-82281500D01*
X129539276Y-83326500D02*
X130048724Y-83326500D01*
G04 #@! TO.C,JP3*
X141648000Y-76394000D02*
X141648000Y-81594000D01*
X141648000Y-81594000D02*
X144308000Y-81594000D01*
X144308000Y-81594000D02*
X144308000Y-76394000D01*
X144308000Y-76394000D02*
X141648000Y-76394000D01*
X144308000Y-77344000D02*
X150308000Y-77344000D01*
X150308000Y-77344000D02*
X150308000Y-78104000D01*
X150308000Y-78104000D02*
X144308000Y-78104000D01*
X144308000Y-77404000D02*
X150308000Y-77404000D01*
X144308000Y-77524000D02*
X150308000Y-77524000D01*
X144308000Y-77644000D02*
X150308000Y-77644000D01*
X144308000Y-77764000D02*
X150308000Y-77764000D01*
X144308000Y-77884000D02*
X150308000Y-77884000D01*
X144308000Y-78004000D02*
X150308000Y-78004000D01*
X141318000Y-77344000D02*
X141648000Y-77344000D01*
X141318000Y-78104000D02*
X141648000Y-78104000D01*
X141648000Y-78994000D02*
X144308000Y-78994000D01*
X144308000Y-79884000D02*
X150308000Y-79884000D01*
X150308000Y-79884000D02*
X150308000Y-80644000D01*
X150308000Y-80644000D02*
X144308000Y-80644000D01*
X141250929Y-79884000D02*
X141648000Y-79884000D01*
X141250929Y-80644000D02*
X141648000Y-80644000D01*
X138938000Y-77724000D02*
X138938000Y-76454000D01*
X138938000Y-76454000D02*
X140208000Y-76454000D01*
G04 #@! TO.C,JP2*
X141648000Y-70044000D02*
X141648000Y-75244000D01*
X141648000Y-75244000D02*
X144308000Y-75244000D01*
X144308000Y-75244000D02*
X144308000Y-70044000D01*
X144308000Y-70044000D02*
X141648000Y-70044000D01*
X144308000Y-70994000D02*
X150308000Y-70994000D01*
X150308000Y-70994000D02*
X150308000Y-71754000D01*
X150308000Y-71754000D02*
X144308000Y-71754000D01*
X144308000Y-71054000D02*
X150308000Y-71054000D01*
X144308000Y-71174000D02*
X150308000Y-71174000D01*
X144308000Y-71294000D02*
X150308000Y-71294000D01*
X144308000Y-71414000D02*
X150308000Y-71414000D01*
X144308000Y-71534000D02*
X150308000Y-71534000D01*
X144308000Y-71654000D02*
X150308000Y-71654000D01*
X141318000Y-70994000D02*
X141648000Y-70994000D01*
X141318000Y-71754000D02*
X141648000Y-71754000D01*
X141648000Y-72644000D02*
X144308000Y-72644000D01*
X144308000Y-73534000D02*
X150308000Y-73534000D01*
X150308000Y-73534000D02*
X150308000Y-74294000D01*
X150308000Y-74294000D02*
X144308000Y-74294000D01*
X141250929Y-73534000D02*
X141648000Y-73534000D01*
X141250929Y-74294000D02*
X141648000Y-74294000D01*
X138938000Y-71374000D02*
X138938000Y-70104000D01*
X138938000Y-70104000D02*
X140208000Y-70104000D01*
G04 #@! TO.C,J2*
X84014000Y-57996000D02*
X86674000Y-57996000D01*
X86674000Y-57996000D02*
X86674000Y-55336000D01*
X86674000Y-55336000D02*
X84014000Y-55336000D01*
X84014000Y-55336000D02*
X84014000Y-57996000D01*
X84964000Y-55336000D02*
X84964000Y-49336000D01*
X84964000Y-49336000D02*
X85724000Y-49336000D01*
X85724000Y-49336000D02*
X85724000Y-55336000D01*
X85024000Y-55336000D02*
X85024000Y-49336000D01*
X85144000Y-55336000D02*
X85144000Y-49336000D01*
X85264000Y-55336000D02*
X85264000Y-49336000D01*
X85384000Y-55336000D02*
X85384000Y-49336000D01*
X85504000Y-55336000D02*
X85504000Y-49336000D01*
X85624000Y-55336000D02*
X85624000Y-49336000D01*
X84964000Y-58326000D02*
X84964000Y-57996000D01*
X85724000Y-58326000D02*
X85724000Y-57996000D01*
X85344000Y-60706000D02*
X84074000Y-60706000D01*
X84074000Y-60706000D02*
X84074000Y-59436000D01*
G04 #@! TO.C,JP1*
X138938000Y-63754000D02*
X140208000Y-63754000D01*
X138938000Y-65024000D02*
X138938000Y-63754000D01*
X141250929Y-67944000D02*
X141648000Y-67944000D01*
X141250929Y-67184000D02*
X141648000Y-67184000D01*
X150308000Y-67944000D02*
X144308000Y-67944000D01*
X150308000Y-67184000D02*
X150308000Y-67944000D01*
X144308000Y-67184000D02*
X150308000Y-67184000D01*
X141648000Y-66294000D02*
X144308000Y-66294000D01*
X141318000Y-65404000D02*
X141648000Y-65404000D01*
X141318000Y-64644000D02*
X141648000Y-64644000D01*
X144308000Y-65304000D02*
X150308000Y-65304000D01*
X144308000Y-65184000D02*
X150308000Y-65184000D01*
X144308000Y-65064000D02*
X150308000Y-65064000D01*
X144308000Y-64944000D02*
X150308000Y-64944000D01*
X144308000Y-64824000D02*
X150308000Y-64824000D01*
X144308000Y-64704000D02*
X150308000Y-64704000D01*
X150308000Y-65404000D02*
X144308000Y-65404000D01*
X150308000Y-64644000D02*
X150308000Y-65404000D01*
X144308000Y-64644000D02*
X150308000Y-64644000D01*
X144308000Y-63694000D02*
X141648000Y-63694000D01*
X144308000Y-68894000D02*
X144308000Y-63694000D01*
X141648000Y-68894000D02*
X144308000Y-68894000D01*
X141648000Y-63694000D02*
X141648000Y-68894000D01*
D10*
G04 #@! TO.C,U3*
X122175000Y-88100000D02*
X123450000Y-88100000D01*
X111825000Y-88675000D02*
X112500000Y-88675000D01*
X111825000Y-78325000D02*
X112500000Y-78325000D01*
X122175000Y-78325000D02*
X121500000Y-78325000D01*
X122175000Y-88675000D02*
X121500000Y-88675000D01*
X122175000Y-78325000D02*
X122175000Y-79000000D01*
X111825000Y-78325000D02*
X111825000Y-79000000D01*
X111825000Y-88675000D02*
X111825000Y-88000000D01*
X122175000Y-88675000D02*
X122175000Y-88100000D01*
D11*
G04 #@! TO.C,U1*
X70680000Y-129890000D02*
X88580000Y-129890000D01*
X70680000Y-68690000D02*
X70680000Y-129890000D01*
X88580000Y-68690000D02*
X70680000Y-68690000D01*
X88580000Y-129890000D02*
X88580000Y-68690000D01*
X73170000Y-129830000D02*
X78630000Y-129830000D01*
X73170000Y-68750000D02*
X73170000Y-129830000D01*
X86090000Y-68750000D02*
X73170000Y-68750000D01*
X86090000Y-129830000D02*
X86090000Y-68750000D01*
X80630000Y-129830000D02*
X86090000Y-129830000D01*
X78630000Y-129830000D02*
G75*
G02*
X80630000Y-129830000I1000000J0D01*
G01*
G04 #@! TO.C,R2*
X115838500Y-70612724D02*
X115838500Y-70103276D01*
X114793500Y-70612724D02*
X114793500Y-70103276D01*
G04 #@! TO.C,J1*
X94170000Y-58750000D02*
X94170000Y-57420000D01*
X94170000Y-57420000D02*
X95500000Y-57420000D01*
X94170000Y-60020000D02*
X96770000Y-60020000D01*
X96770000Y-60020000D02*
X96770000Y-57420000D01*
X96770000Y-57420000D02*
X145090000Y-57420000D01*
X145090000Y-62620000D02*
X145090000Y-57420000D01*
X94170000Y-62620000D02*
X145090000Y-62620000D01*
X94170000Y-62620000D02*
X94170000Y-60020000D01*
G04 #@! TO.C,C3*
X113282000Y-94595733D02*
X113282000Y-94888267D01*
X114302000Y-94595733D02*
X114302000Y-94888267D01*
G04 #@! TO.C,C2*
X103016267Y-81532000D02*
X102723733Y-81532000D01*
X103016267Y-82552000D02*
X102723733Y-82552000D01*
G04 #@! TO.C,C1*
X119010000Y-70504267D02*
X119010000Y-70211733D01*
X117990000Y-70504267D02*
X117990000Y-70211733D01*
G04 #@! TD*
M02*
