%TF.GenerationSoftware,KiCad,Pcbnew,5.1.9-73d0e3b20d~88~ubuntu20.10.1*%
%TF.CreationDate,2021-04-17T09:46:50+01:00*%
%TF.ProjectId,A1000,41313030-302e-46b6-9963-61645f706362,rev?*%
%TF.SameCoordinates,Original*%
%TF.FileFunction,Soldermask,Top*%
%TF.FilePolarity,Negative*%
%FSLAX46Y46*%
G04 Gerber Fmt 4.6, Leading zero omitted, Abs format (unit mm)*
G04 Created by KiCad (PCBNEW 5.1.9-73d0e3b20d~88~ubuntu20.10.1) date 2021-04-17 09:46:50*
%MOMM*%
%LPD*%
G01*
G04 APERTURE LIST*
%ADD10O,2.000000X1.200000*%
%ADD11O,1.700000X1.700000*%
%ADD12R,1.700000X1.700000*%
%ADD13R,1.500000X0.550000*%
%ADD14R,0.550000X1.500000*%
%ADD15O,1.600000X1.600000*%
%ADD16R,1.600000X1.600000*%
G04 APERTURE END LIST*
D10*
%TO.C,U2*%
X90370000Y-70070000D03*
X75130000Y-70070000D03*
X90370000Y-72610000D03*
X75130000Y-72610000D03*
X90370000Y-75150000D03*
X75130000Y-75150000D03*
X90370000Y-77690000D03*
X75130000Y-77690000D03*
X90370000Y-80230000D03*
X75130000Y-80230000D03*
X90370000Y-82770000D03*
X75130000Y-82770000D03*
X90370000Y-85310000D03*
X75130000Y-85310000D03*
X90370000Y-87850000D03*
X75130000Y-87850000D03*
X90370000Y-90390000D03*
X75130000Y-90390000D03*
X90370000Y-92930000D03*
X75130000Y-92930000D03*
X90370000Y-95470000D03*
X75130000Y-95470000D03*
X90370000Y-98010000D03*
X75130000Y-98010000D03*
X90370000Y-100550000D03*
X75130000Y-100550000D03*
X90370000Y-103090000D03*
X75130000Y-103090000D03*
X90370000Y-105630000D03*
X75130000Y-105630000D03*
X90370000Y-108170000D03*
X75130000Y-108170000D03*
X90370000Y-110710000D03*
X75130000Y-110710000D03*
X90370000Y-113250000D03*
X75130000Y-113250000D03*
X90370000Y-115790000D03*
X75130000Y-115790000D03*
X90370000Y-118330000D03*
X75130000Y-118330000D03*
X90370000Y-120870000D03*
X75130000Y-120870000D03*
X90370000Y-123410000D03*
X75130000Y-123410000D03*
X90370000Y-125950000D03*
X75130000Y-125950000D03*
X90370000Y-128490000D03*
X75130000Y-128490000D03*
%TD*%
D11*
%TO.C,JP1*%
X87040000Y-59000000D03*
D12*
X84500000Y-59000000D03*
%TD*%
%TO.C,R1*%
G36*
G01*
X91075000Y-58512500D02*
X91075000Y-58987500D01*
G75*
G02*
X90837500Y-59225000I-237500J0D01*
G01*
X90337500Y-59225000D01*
G75*
G02*
X90100000Y-58987500I0J237500D01*
G01*
X90100000Y-58512500D01*
G75*
G02*
X90337500Y-58275000I237500J0D01*
G01*
X90837500Y-58275000D01*
G75*
G02*
X91075000Y-58512500I0J-237500D01*
G01*
G37*
G36*
G01*
X92900000Y-58512500D02*
X92900000Y-58987500D01*
G75*
G02*
X92662500Y-59225000I-237500J0D01*
G01*
X92162500Y-59225000D01*
G75*
G02*
X91925000Y-58987500I0J237500D01*
G01*
X91925000Y-58512500D01*
G75*
G02*
X92162500Y-58275000I237500J0D01*
G01*
X92662500Y-58275000D01*
G75*
G02*
X92900000Y-58512500I0J-237500D01*
G01*
G37*
%TD*%
D13*
%TO.C,U3*%
X111300000Y-87500000D03*
X111300000Y-86700000D03*
X111300000Y-85900000D03*
X111300000Y-85100000D03*
X111300000Y-84300000D03*
X111300000Y-83500000D03*
X111300000Y-82700000D03*
X111300000Y-81900000D03*
X111300000Y-81100000D03*
X111300000Y-80300000D03*
X111300000Y-79500000D03*
D14*
X113000000Y-77800000D03*
X113800000Y-77800000D03*
X114600000Y-77800000D03*
X115400000Y-77800000D03*
X116200000Y-77800000D03*
X117000000Y-77800000D03*
X117800000Y-77800000D03*
X118600000Y-77800000D03*
X119400000Y-77800000D03*
X120200000Y-77800000D03*
X121000000Y-77800000D03*
D13*
X122700000Y-79500000D03*
X122700000Y-80300000D03*
X122700000Y-81100000D03*
X122700000Y-81900000D03*
X122700000Y-82700000D03*
X122700000Y-83500000D03*
X122700000Y-84300000D03*
X122700000Y-85100000D03*
X122700000Y-85900000D03*
X122700000Y-86700000D03*
X122700000Y-87500000D03*
D14*
X121000000Y-89200000D03*
X120200000Y-89200000D03*
X119400000Y-89200000D03*
X118600000Y-89200000D03*
X117800000Y-89200000D03*
X117000000Y-89200000D03*
X116200000Y-89200000D03*
X115400000Y-89200000D03*
X114600000Y-89200000D03*
X113800000Y-89200000D03*
X113000000Y-89200000D03*
%TD*%
D15*
%TO.C,U1*%
X72010000Y-128500000D03*
X87250000Y-70080000D03*
X72010000Y-125960000D03*
X87250000Y-72620000D03*
X72010000Y-123420000D03*
X87250000Y-75160000D03*
X72010000Y-120880000D03*
X87250000Y-77700000D03*
X72010000Y-118340000D03*
X87250000Y-80240000D03*
X72010000Y-115800000D03*
X87250000Y-82780000D03*
X72010000Y-113260000D03*
X87250000Y-85320000D03*
X72010000Y-110720000D03*
X87250000Y-87860000D03*
X72010000Y-108180000D03*
X87250000Y-90400000D03*
X72010000Y-105640000D03*
X87250000Y-92940000D03*
X72010000Y-103100000D03*
X87250000Y-95480000D03*
X72010000Y-100560000D03*
X87250000Y-98020000D03*
X72010000Y-98020000D03*
X87250000Y-100560000D03*
X72010000Y-95480000D03*
X87250000Y-103100000D03*
X72010000Y-92940000D03*
X87250000Y-105640000D03*
X72010000Y-90400000D03*
X87250000Y-108180000D03*
X72010000Y-87860000D03*
X87250000Y-110720000D03*
X72010000Y-85320000D03*
X87250000Y-113260000D03*
X72010000Y-82780000D03*
X87250000Y-115800000D03*
X72010000Y-80240000D03*
X87250000Y-118340000D03*
X72010000Y-77700000D03*
X87250000Y-120880000D03*
X72010000Y-75160000D03*
X87250000Y-123420000D03*
X72010000Y-72620000D03*
X87250000Y-125960000D03*
X72010000Y-70080000D03*
D16*
X87250000Y-128500000D03*
%TD*%
%TO.C,R3*%
G36*
G01*
X130175000Y-81987500D02*
X130175000Y-81512500D01*
G75*
G02*
X130412500Y-81275000I237500J0D01*
G01*
X130912500Y-81275000D01*
G75*
G02*
X131150000Y-81512500I0J-237500D01*
G01*
X131150000Y-81987500D01*
G75*
G02*
X130912500Y-82225000I-237500J0D01*
G01*
X130412500Y-82225000D01*
G75*
G02*
X130175000Y-81987500I0J237500D01*
G01*
G37*
G36*
G01*
X128350000Y-81987500D02*
X128350000Y-81512500D01*
G75*
G02*
X128587500Y-81275000I237500J0D01*
G01*
X129087500Y-81275000D01*
G75*
G02*
X129325000Y-81512500I0J-237500D01*
G01*
X129325000Y-81987500D01*
G75*
G02*
X129087500Y-82225000I-237500J0D01*
G01*
X128587500Y-82225000D01*
G75*
G02*
X128350000Y-81987500I0J237500D01*
G01*
G37*
%TD*%
%TO.C,R2*%
G36*
G01*
X117512500Y-94425000D02*
X117987500Y-94425000D01*
G75*
G02*
X118225000Y-94662500I0J-237500D01*
G01*
X118225000Y-95162500D01*
G75*
G02*
X117987500Y-95400000I-237500J0D01*
G01*
X117512500Y-95400000D01*
G75*
G02*
X117275000Y-95162500I0J237500D01*
G01*
X117275000Y-94662500D01*
G75*
G02*
X117512500Y-94425000I237500J0D01*
G01*
G37*
G36*
G01*
X117512500Y-92600000D02*
X117987500Y-92600000D01*
G75*
G02*
X118225000Y-92837500I0J-237500D01*
G01*
X118225000Y-93337500D01*
G75*
G02*
X117987500Y-93575000I-237500J0D01*
G01*
X117512500Y-93575000D01*
G75*
G02*
X117275000Y-93337500I0J237500D01*
G01*
X117275000Y-92837500D01*
G75*
G02*
X117512500Y-92600000I237500J0D01*
G01*
G37*
%TD*%
D11*
%TO.C,J1*%
X143760000Y-61290000D03*
X143760000Y-58750000D03*
X141220000Y-61290000D03*
X141220000Y-58750000D03*
X138680000Y-61290000D03*
X138680000Y-58750000D03*
X136140000Y-61290000D03*
X136140000Y-58750000D03*
X133600000Y-61290000D03*
X133600000Y-58750000D03*
X131060000Y-61290000D03*
X131060000Y-58750000D03*
X128520000Y-61290000D03*
X128520000Y-58750000D03*
X125980000Y-61290000D03*
X125980000Y-58750000D03*
X123440000Y-61290000D03*
X123440000Y-58750000D03*
X120900000Y-61290000D03*
X120900000Y-58750000D03*
X118360000Y-61290000D03*
X118360000Y-58750000D03*
X115820000Y-61290000D03*
X115820000Y-58750000D03*
X113280000Y-61290000D03*
X113280000Y-58750000D03*
X110740000Y-61290000D03*
X110740000Y-58750000D03*
X108200000Y-61290000D03*
X108200000Y-58750000D03*
X105660000Y-61290000D03*
X105660000Y-58750000D03*
X103120000Y-61290000D03*
X103120000Y-58750000D03*
X100580000Y-61290000D03*
X100580000Y-58750000D03*
X98040000Y-61290000D03*
X98040000Y-58750000D03*
X95500000Y-61290000D03*
D12*
X95500000Y-58750000D03*
%TD*%
%TO.C,C3*%
G36*
G01*
X130075000Y-85237500D02*
X130075000Y-84762500D01*
G75*
G02*
X130312500Y-84525000I237500J0D01*
G01*
X130912500Y-84525000D01*
G75*
G02*
X131150000Y-84762500I0J-237500D01*
G01*
X131150000Y-85237500D01*
G75*
G02*
X130912500Y-85475000I-237500J0D01*
G01*
X130312500Y-85475000D01*
G75*
G02*
X130075000Y-85237500I0J237500D01*
G01*
G37*
G36*
G01*
X128350000Y-85237500D02*
X128350000Y-84762500D01*
G75*
G02*
X128587500Y-84525000I237500J0D01*
G01*
X129187500Y-84525000D01*
G75*
G02*
X129425000Y-84762500I0J-237500D01*
G01*
X129425000Y-85237500D01*
G75*
G02*
X129187500Y-85475000I-237500J0D01*
G01*
X128587500Y-85475000D01*
G75*
G02*
X128350000Y-85237500I0J237500D01*
G01*
G37*
%TD*%
M02*
