G04 #@! TF.GenerationSoftware,KiCad,Pcbnew,5.99.0-unknown-ca42f31bb5~131~ubuntu21.04.1*
G04 #@! TF.CreationDate,2021-08-22T07:35:16+01:00*
G04 #@! TF.ProjectId,A1000,41313030-302e-46b6-9963-61645f706362,rev?*
G04 #@! TF.SameCoordinates,Original*
G04 #@! TF.FileFunction,Soldermask,Top*
G04 #@! TF.FilePolarity,Negative*
%FSLAX46Y46*%
G04 Gerber Fmt 4.6, Leading zero omitted, Abs format (unit mm)*
G04 Created by KiCad (PCBNEW 5.99.0-unknown-ca42f31bb5~131~ubuntu21.04.1) date 2021-08-22 07:35:16*
%MOMM*%
%LPD*%
G01*
G04 APERTURE LIST*
G04 Aperture macros list*
%AMRoundRect*
0 Rectangle with rounded corners*
0 $1 Rounding radius*
0 $2 $3 $4 $5 $6 $7 $8 $9 X,Y pos of 4 corners*
0 Add a 4 corners polygon primitive as box body*
4,1,4,$2,$3,$4,$5,$6,$7,$8,$9,$2,$3,0*
0 Add four circle primitives for the rounded corners*
1,1,$1+$1,$2,$3*
1,1,$1+$1,$4,$5*
1,1,$1+$1,$6,$7*
1,1,$1+$1,$8,$9*
0 Add four rect primitives between the rounded corners*
20,1,$1+$1,$2,$3,$4,$5,0*
20,1,$1+$1,$4,$5,$6,$7,0*
20,1,$1+$1,$6,$7,$8,$9,0*
20,1,$1+$1,$8,$9,$2,$3,0*%
G04 Aperture macros list end*
%ADD10RoundRect,0.237500X-0.250000X-0.237500X0.250000X-0.237500X0.250000X0.237500X-0.250000X0.237500X0*%
%ADD11O,1.700000X1.700000*%
%ADD12R,1.700000X1.700000*%
%ADD13O,2.000000X1.200000*%
%ADD14R,0.550000X1.500000*%
%ADD15R,1.500000X0.550000*%
%ADD16O,1.600000X1.600000*%
%ADD17R,1.600000X1.600000*%
%ADD18RoundRect,0.237500X0.237500X-0.250000X0.237500X0.250000X-0.237500X0.250000X-0.237500X-0.250000X0*%
%ADD19RoundRect,0.237500X-0.237500X0.300000X-0.237500X-0.300000X0.237500X-0.300000X0.237500X0.300000X0*%
%ADD20RoundRect,0.237500X0.300000X0.237500X-0.300000X0.237500X-0.300000X-0.237500X0.300000X-0.237500X0*%
%ADD21RoundRect,0.237500X0.237500X-0.300000X0.237500X0.300000X-0.237500X0.300000X-0.237500X-0.300000X0*%
G04 APERTURE END LIST*
G04 #@! TO.C,G\u002A\u002A\u002A*
G36*
X69890527Y-65908330D02*
G01*
X69902180Y-65890307D01*
X69914027Y-65877241D01*
X69929885Y-65866226D01*
X69953570Y-65854349D01*
X69972417Y-65845911D01*
X70006387Y-65832418D01*
X70048395Y-65817833D01*
X70091944Y-65804340D01*
X70115819Y-65797752D01*
X70157562Y-65787334D01*
X70205193Y-65776161D01*
X70256351Y-65764715D01*
X70308673Y-65753475D01*
X70359795Y-65742926D01*
X70407358Y-65733544D01*
X70448997Y-65725813D01*
X70482350Y-65720214D01*
X70505056Y-65717228D01*
X70512853Y-65716905D01*
X70528882Y-65716241D01*
X70535257Y-65709370D01*
X70536264Y-65703544D01*
X70541290Y-65690133D01*
X70552993Y-65669676D01*
X70567620Y-65648304D01*
X70584702Y-65622701D01*
X70590815Y-65606793D01*
X70588843Y-65601445D01*
X70580335Y-65590854D01*
X70570080Y-65572660D01*
X70567624Y-65567493D01*
X70546377Y-65528579D01*
X70523405Y-65500041D01*
X70512360Y-65490882D01*
X70505728Y-65484310D01*
X70499177Y-65472669D01*
X70491894Y-65453761D01*
X70483067Y-65425390D01*
X70471882Y-65385358D01*
X70468030Y-65371062D01*
X70454641Y-65317812D01*
X70446587Y-65276501D01*
X70443902Y-65245145D01*
X70446619Y-65221761D01*
X70454774Y-65204365D01*
X70468400Y-65190975D01*
X70471145Y-65189034D01*
X70482655Y-65177610D01*
X70499174Y-65156678D01*
X70518178Y-65129583D01*
X70531390Y-65109096D01*
X70581548Y-65028984D01*
X70624984Y-64960818D01*
X70662352Y-64903605D01*
X70694311Y-64856352D01*
X70721516Y-64818064D01*
X70739508Y-64794235D01*
X70754514Y-64774673D01*
X70765409Y-64759853D01*
X70769238Y-64754026D01*
X70776621Y-64743437D01*
X70792342Y-64724280D01*
X70814742Y-64698350D01*
X70842162Y-64667445D01*
X70872948Y-64633362D01*
X70905440Y-64597900D01*
X70937982Y-64562855D01*
X70968914Y-64530025D01*
X70996580Y-64501208D01*
X71019321Y-64478200D01*
X71035481Y-64462799D01*
X71043333Y-64456819D01*
X71050982Y-64449871D01*
X71051208Y-64448925D01*
X71056837Y-64440412D01*
X71069626Y-64426798D01*
X71073712Y-64422919D01*
X71112671Y-64387213D01*
X71151141Y-64352653D01*
X71186396Y-64321640D01*
X71215714Y-64296580D01*
X71232845Y-64282601D01*
X71255384Y-64264764D01*
X71276554Y-64247795D01*
X71284618Y-64241236D01*
X71301429Y-64229139D01*
X71315041Y-64222087D01*
X71315617Y-64221920D01*
X71326917Y-64214884D01*
X71328996Y-64211295D01*
X71336679Y-64203732D01*
X71353199Y-64193924D01*
X71360486Y-64190417D01*
X71379921Y-64180540D01*
X71393252Y-64171808D01*
X71395379Y-64169701D01*
X71405251Y-64162269D01*
X71423414Y-64152354D01*
X71432054Y-64148284D01*
X71453382Y-64137641D01*
X71469881Y-64127575D01*
X71473452Y-64124744D01*
X71485746Y-64117377D01*
X71509581Y-64106387D01*
X71542340Y-64092803D01*
X71581409Y-64077648D01*
X71624174Y-64061947D01*
X71668021Y-64046728D01*
X71694862Y-64037899D01*
X71745279Y-64024341D01*
X71786037Y-64019667D01*
X71819480Y-64023943D01*
X71847953Y-64037232D01*
X71854884Y-64042211D01*
X71870287Y-64054869D01*
X71879331Y-64063768D01*
X71880187Y-64065191D01*
X71886662Y-64071623D01*
X71901159Y-64081956D01*
X71904782Y-64084278D01*
X71927875Y-64099668D01*
X71949767Y-64115462D01*
X71970624Y-64131027D01*
X71990313Y-64145224D01*
X72009305Y-64158545D01*
X72050420Y-64122908D01*
X72078966Y-64098601D01*
X72110581Y-64072328D01*
X72132376Y-64054635D01*
X72156236Y-64035548D01*
X72178180Y-64017963D01*
X72192241Y-64006664D01*
X72209096Y-63993490D01*
X72231806Y-63976243D01*
X72246668Y-63965164D01*
X72268297Y-63949074D01*
X72286622Y-63935263D01*
X72294804Y-63928963D01*
X72307482Y-63919358D01*
X72327497Y-63904586D01*
X72346298Y-63890904D01*
X72367291Y-63875169D01*
X72383349Y-63862111D01*
X72390350Y-63855291D01*
X72401442Y-63847140D01*
X72410380Y-63843706D01*
X72426394Y-63835854D01*
X72442846Y-63823439D01*
X72458551Y-63811073D01*
X72471233Y-63804314D01*
X72484320Y-63797440D01*
X72498364Y-63786545D01*
X72525245Y-63765030D01*
X72559682Y-63741507D01*
X72580467Y-63728776D01*
X72619345Y-63704137D01*
X72659697Y-63675494D01*
X72667117Y-63669849D01*
X72686277Y-63657386D01*
X72703798Y-63649467D01*
X72704408Y-63649297D01*
X72719940Y-63641699D01*
X72726389Y-63635097D01*
X72736501Y-63624916D01*
X72753370Y-63613516D01*
X72754720Y-63612760D01*
X72797379Y-63586592D01*
X72839617Y-63556227D01*
X72842155Y-63554229D01*
X72868608Y-63535866D01*
X72899623Y-63519972D01*
X72940038Y-63504101D01*
X72944178Y-63502634D01*
X72969209Y-63494618D01*
X72986027Y-63492259D01*
X73000129Y-63495382D01*
X73010873Y-63500493D01*
X73035129Y-63513294D01*
X73050713Y-63477152D01*
X73066818Y-63442891D01*
X73085382Y-63408251D01*
X73104641Y-63376023D01*
X73122835Y-63348998D01*
X73138204Y-63329967D01*
X73148770Y-63321776D01*
X73165800Y-63312386D01*
X73175399Y-63303074D01*
X73188270Y-63294247D01*
X73212469Y-63283984D01*
X73244611Y-63273189D01*
X73281311Y-63262766D01*
X73319184Y-63253617D01*
X73354847Y-63246647D01*
X73384914Y-63242758D01*
X73402523Y-63242461D01*
X73427045Y-63241769D01*
X73458750Y-63237439D01*
X73489749Y-63230656D01*
X73521862Y-63223557D01*
X73549288Y-63220255D01*
X73565216Y-63220933D01*
X73598801Y-63226649D01*
X73623441Y-63226063D01*
X73644094Y-63218233D01*
X73665715Y-63202212D01*
X73666348Y-63201666D01*
X73685084Y-63186394D01*
X73700165Y-63175725D01*
X73705818Y-63172831D01*
X73713042Y-63166332D01*
X73713019Y-63163732D01*
X73717616Y-63156074D01*
X73731165Y-63146791D01*
X73731559Y-63146585D01*
X73745305Y-63137485D01*
X73750281Y-63130134D01*
X73750252Y-63130009D01*
X73754950Y-63122755D01*
X73768536Y-63113647D01*
X73768944Y-63113433D01*
X73782651Y-63104165D01*
X73787515Y-63096417D01*
X73787484Y-63096286D01*
X73791524Y-63088579D01*
X73794694Y-63087219D01*
X73805485Y-63078361D01*
X73820008Y-63057990D01*
X73836753Y-63028534D01*
X73854214Y-62992426D01*
X73856040Y-62988321D01*
X73867051Y-62963798D01*
X73876507Y-62943507D01*
X73881242Y-62933992D01*
X73884229Y-62922234D01*
X73875394Y-62912414D01*
X73862282Y-62900531D01*
X73846648Y-62883542D01*
X73844600Y-62881097D01*
X73820183Y-62852157D01*
X73793449Y-62821479D01*
X73767197Y-62792173D01*
X73744221Y-62767350D01*
X73727319Y-62750122D01*
X73724498Y-62747482D01*
X73708848Y-62732663D01*
X73697415Y-62720806D01*
X73696880Y-62720181D01*
X73687589Y-62710932D01*
X73670410Y-62695236D01*
X73648824Y-62676264D01*
X73645764Y-62673626D01*
X73624856Y-62654990D01*
X73608974Y-62639590D01*
X73601072Y-62630319D01*
X73600730Y-62629543D01*
X73592753Y-62622729D01*
X73586961Y-62621328D01*
X73575068Y-62615164D01*
X73572534Y-62610655D01*
X73566303Y-62601249D01*
X73563970Y-62600280D01*
X73555021Y-62595249D01*
X73539683Y-62583731D01*
X73532995Y-62578210D01*
X73499430Y-62550694D01*
X73468396Y-62526912D01*
X73444003Y-62510010D01*
X73443266Y-62509549D01*
X73430780Y-62500885D01*
X73426245Y-62496389D01*
X73419084Y-62489511D01*
X73401006Y-62476894D01*
X73374231Y-62459812D01*
X73340986Y-62439541D01*
X73303494Y-62417356D01*
X73263977Y-62394533D01*
X73224660Y-62372347D01*
X73187767Y-62352073D01*
X73155520Y-62334986D01*
X73130146Y-62322362D01*
X73113866Y-62315476D01*
X73109339Y-62314641D01*
X73100157Y-62312248D01*
X73083184Y-62304630D01*
X73075385Y-62300605D01*
X73057136Y-62291446D01*
X73045039Y-62286497D01*
X73042990Y-62286186D01*
X73034486Y-62284505D01*
X73016587Y-62279142D01*
X73002252Y-62274369D01*
X72976299Y-62266591D01*
X72942548Y-62258033D01*
X72907886Y-62250429D01*
X72904672Y-62249795D01*
X72874646Y-62243884D01*
X72848970Y-62238721D01*
X72832209Y-62235228D01*
X72829929Y-62234720D01*
X72814002Y-62232940D01*
X72807654Y-62233573D01*
X72795308Y-62233904D01*
X72776036Y-62231826D01*
X72774230Y-62231537D01*
X72739449Y-62228772D01*
X72692708Y-62229641D01*
X72636482Y-62234083D01*
X72627486Y-62235043D01*
X72601982Y-62239364D01*
X72570734Y-62246844D01*
X72537398Y-62256331D01*
X72505631Y-62266666D01*
X72479093Y-62276697D01*
X72461436Y-62285269D01*
X72456849Y-62288925D01*
X72446811Y-62296568D01*
X72429023Y-62306437D01*
X72423675Y-62309010D01*
X72374135Y-62336666D01*
X72319414Y-62375509D01*
X72261763Y-62423816D01*
X72212509Y-62470657D01*
X72164407Y-62516845D01*
X72123678Y-62551193D01*
X72089448Y-62574269D01*
X72060846Y-62586639D01*
X72036999Y-62588871D01*
X72031997Y-62587988D01*
X72021174Y-62584119D01*
X72014428Y-62576264D01*
X72009604Y-62560519D01*
X72005866Y-62540703D01*
X72003169Y-62508340D01*
X72006115Y-62480239D01*
X72013973Y-62459957D01*
X72024216Y-62451448D01*
X72031075Y-62443626D01*
X72030867Y-62440295D01*
X72033403Y-62429905D01*
X72042050Y-62411511D01*
X72054344Y-62389293D01*
X72067828Y-62367433D01*
X72080039Y-62350112D01*
X72088520Y-62341512D01*
X72089135Y-62341274D01*
X72094642Y-62333905D01*
X72094378Y-62331967D01*
X72098004Y-62322186D01*
X72106682Y-62313133D01*
X72121736Y-62299424D01*
X72138314Y-62282196D01*
X72138747Y-62281711D01*
X72155007Y-62264690D01*
X72169768Y-62251082D01*
X72170186Y-62250744D01*
X72182126Y-62238433D01*
X72186512Y-62230832D01*
X72195177Y-62221708D01*
X72203665Y-62218048D01*
X72219397Y-62208562D01*
X72226045Y-62200484D01*
X72238945Y-62188313D01*
X72254135Y-62181390D01*
X72271266Y-62172900D01*
X72280390Y-62162788D01*
X72291524Y-62151457D01*
X72308896Y-62143337D01*
X72328837Y-62134207D01*
X72342473Y-62122773D01*
X72356688Y-62111702D01*
X72378038Y-62102116D01*
X72383787Y-62100381D01*
X72407961Y-62091061D01*
X72428808Y-62078467D01*
X72431696Y-62076025D01*
X72447369Y-62066719D01*
X72474371Y-62055727D01*
X72509357Y-62043943D01*
X72548981Y-62032265D01*
X72589902Y-62021588D01*
X72628775Y-62012808D01*
X72662256Y-62006821D01*
X72687000Y-62004524D01*
X72695953Y-62005217D01*
X72717834Y-62006471D01*
X72744569Y-62003356D01*
X72753713Y-62001260D01*
X72780927Y-61996725D01*
X72798668Y-61999734D01*
X72799831Y-62000470D01*
X72815288Y-62004772D01*
X72833073Y-62003130D01*
X72857120Y-62000385D01*
X72876161Y-62001980D01*
X72913684Y-62009123D01*
X72947236Y-62014081D01*
X72971610Y-62016087D01*
X72971741Y-62016088D01*
X72985940Y-62018772D01*
X72990954Y-62023037D01*
X72998440Y-62026934D01*
X73006716Y-62026005D01*
X73021580Y-62025795D01*
X73027450Y-62028637D01*
X73039713Y-62034859D01*
X73051598Y-62037921D01*
X73073252Y-62042951D01*
X73101267Y-62051389D01*
X73132302Y-62061979D01*
X73163014Y-62073460D01*
X73190060Y-62084575D01*
X73210099Y-62094064D01*
X73219786Y-62100667D01*
X73220158Y-62101396D01*
X73227151Y-62105617D01*
X73228573Y-62105365D01*
X73239266Y-62107817D01*
X73260373Y-62116896D01*
X73289651Y-62131374D01*
X73324854Y-62150031D01*
X73363734Y-62171639D01*
X73404048Y-62194974D01*
X73443549Y-62218813D01*
X73479992Y-62241929D01*
X73484933Y-62245177D01*
X73510834Y-62262295D01*
X73534719Y-62278082D01*
X73551027Y-62288865D01*
X73571740Y-62303362D01*
X73596923Y-62322163D01*
X73623853Y-62343075D01*
X73649805Y-62363912D01*
X73672053Y-62382485D01*
X73687874Y-62396605D01*
X73694543Y-62404083D01*
X73694572Y-62404175D01*
X73701881Y-62410068D01*
X73703986Y-62409819D01*
X73713734Y-62413467D01*
X73722696Y-62422156D01*
X73744072Y-62445631D01*
X73763604Y-62460729D01*
X73770302Y-62463764D01*
X73781537Y-62472734D01*
X73783473Y-62476943D01*
X73790045Y-62486494D01*
X73792828Y-62487548D01*
X73802240Y-62493102D01*
X73814827Y-62504896D01*
X73834171Y-62526225D01*
X73857505Y-62552449D01*
X73881920Y-62580241D01*
X73904509Y-62606275D01*
X73922362Y-62627226D01*
X73931284Y-62638094D01*
X73946055Y-62656821D01*
X73963180Y-62678438D01*
X73966214Y-62682258D01*
X73986126Y-62707312D01*
X73998191Y-62681402D01*
X74009037Y-62658129D01*
X74019003Y-62636773D01*
X74019557Y-62635590D01*
X74025869Y-62616525D01*
X74023514Y-62599705D01*
X74011379Y-62579729D01*
X74006817Y-62573776D01*
X73993795Y-62555693D01*
X73977512Y-62531112D01*
X73966219Y-62513061D01*
X73950676Y-62488172D01*
X73935867Y-62465575D01*
X73927755Y-62453965D01*
X73915947Y-62436971D01*
X73900388Y-62413271D01*
X73888820Y-62394995D01*
X73872743Y-62369993D01*
X73857118Y-62347083D01*
X73848415Y-62335253D01*
X73836250Y-62316988D01*
X73828840Y-62300898D01*
X73828778Y-62300672D01*
X73822983Y-62288352D01*
X73818853Y-62285218D01*
X73811767Y-62278965D01*
X73799679Y-62263774D01*
X73788828Y-62248280D01*
X73770821Y-62222388D01*
X73751818Y-62196739D01*
X73743157Y-62185754D01*
X73729951Y-62168996D01*
X73721601Y-62157271D01*
X73720283Y-62154776D01*
X73714967Y-62146796D01*
X73701945Y-62130142D01*
X73683346Y-62107330D01*
X73661300Y-62080876D01*
X73637938Y-62053294D01*
X73615390Y-62027098D01*
X73595785Y-62004804D01*
X73581254Y-61988927D01*
X73573928Y-61981982D01*
X73567050Y-61975533D01*
X73553102Y-61960777D01*
X73534818Y-61940624D01*
X73530508Y-61935780D01*
X73510926Y-61914636D01*
X73494180Y-61898235D01*
X73483376Y-61889584D01*
X73482219Y-61889054D01*
X73471479Y-61880608D01*
X73463225Y-61869082D01*
X73453826Y-61857111D01*
X73446786Y-61854109D01*
X73438517Y-61850391D01*
X73437682Y-61848366D01*
X73431548Y-61840524D01*
X73416624Y-61825485D01*
X73395284Y-61805348D01*
X73369897Y-61782211D01*
X73342839Y-61758176D01*
X73316480Y-61735341D01*
X73293191Y-61715807D01*
X73275347Y-61701675D01*
X73265317Y-61695042D01*
X73264224Y-61694817D01*
X73257187Y-61690498D01*
X73255483Y-61686417D01*
X73246703Y-61676865D01*
X73240895Y-61675146D01*
X73229322Y-61670088D01*
X73227005Y-61666475D01*
X73219734Y-61657178D01*
X73208766Y-61648771D01*
X73143506Y-61609413D01*
X73086002Y-61579343D01*
X73033329Y-61557462D01*
X72982562Y-61542672D01*
X72930776Y-61533878D01*
X72894467Y-61530815D01*
X72846337Y-61526598D01*
X72810795Y-61519380D01*
X72785654Y-61508062D01*
X72768724Y-61491543D01*
X72757817Y-61468725D01*
X72755528Y-61460993D01*
X72751000Y-61433077D01*
X72755275Y-61409808D01*
X72758845Y-61401520D01*
X72771207Y-61375802D01*
X72998196Y-61314981D01*
X73055023Y-61326210D01*
X73131555Y-61346193D01*
X73199831Y-61373864D01*
X73243236Y-61398617D01*
X73261582Y-61410473D01*
X73285120Y-61425327D01*
X73295155Y-61431564D01*
X73334373Y-61456809D01*
X73364073Y-61478445D01*
X73382753Y-61494255D01*
X73399251Y-61508115D01*
X73412100Y-61517442D01*
X73429733Y-61529931D01*
X73448181Y-61545107D01*
X73463234Y-61559270D01*
X73470686Y-61568714D01*
X73470815Y-61569104D01*
X73477777Y-61576723D01*
X73478698Y-61576943D01*
X73487835Y-61582016D01*
X73502516Y-61593011D01*
X73517725Y-61605811D01*
X73528446Y-61616303D01*
X73530592Y-61619518D01*
X73536339Y-61626006D01*
X73550630Y-61639596D01*
X73570707Y-61657688D01*
X73577003Y-61663220D01*
X73598515Y-61682831D01*
X73615172Y-61699547D01*
X73624066Y-61710405D01*
X73624743Y-61711878D01*
X73630589Y-61719340D01*
X73632869Y-61719422D01*
X73641012Y-61723479D01*
X73653714Y-61735433D01*
X73656209Y-61738230D01*
X73667657Y-61751236D01*
X73686640Y-61772601D01*
X73710734Y-61799603D01*
X73737515Y-61829522D01*
X73743970Y-61836720D01*
X73770965Y-61867067D01*
X73795704Y-61895341D01*
X73815789Y-61918773D01*
X73828823Y-61934589D01*
X73830597Y-61936891D01*
X73846535Y-61957635D01*
X73864565Y-61980428D01*
X73867649Y-61984249D01*
X73884732Y-62005949D01*
X73900654Y-62027136D01*
X73903176Y-62030638D01*
X73916514Y-62045779D01*
X73925327Y-62048992D01*
X73927888Y-62040270D01*
X73926100Y-62030734D01*
X73924381Y-62015138D01*
X73926619Y-62007624D01*
X73927642Y-61998214D01*
X73925721Y-61978143D01*
X73921274Y-61951263D01*
X73919665Y-61943201D01*
X73914668Y-61914297D01*
X73912306Y-61890296D01*
X73912953Y-61875465D01*
X73913614Y-61873714D01*
X73915774Y-61860113D01*
X73913498Y-61839575D01*
X73912187Y-61833895D01*
X73908567Y-61809375D01*
X73909447Y-61786913D01*
X73910097Y-61783945D01*
X73912322Y-61760684D01*
X73910076Y-61741538D01*
X73907737Y-61717938D01*
X73909817Y-61696385D01*
X73912110Y-61673714D01*
X73910260Y-61655043D01*
X73908454Y-61634315D01*
X73910719Y-61615317D01*
X73913533Y-61592515D01*
X73913239Y-61566882D01*
X73913088Y-61565295D01*
X73912856Y-61546795D01*
X73915875Y-61536119D01*
X73917083Y-61535308D01*
X73920363Y-61527762D01*
X73918537Y-61513257D01*
X73916832Y-61491825D01*
X73919944Y-61476251D01*
X73923903Y-61456723D01*
X73923024Y-61444579D01*
X73922790Y-61425815D01*
X73926105Y-61412909D01*
X73930221Y-61394157D01*
X73929597Y-61382771D01*
X73928642Y-61365738D01*
X73930850Y-61347734D01*
X73935126Y-61324964D01*
X73939241Y-61299359D01*
X73939440Y-61297973D01*
X73943561Y-61271099D01*
X73948878Y-61239110D01*
X73954651Y-61206149D01*
X73960140Y-61176365D01*
X73964606Y-61153899D01*
X73966910Y-61144095D01*
X73970955Y-61125857D01*
X73971826Y-61119644D01*
X73974766Y-61098733D01*
X73979560Y-61071844D01*
X73985371Y-61042898D01*
X73991363Y-61015814D01*
X73996699Y-60994513D01*
X74000542Y-60982918D01*
X74001212Y-60981961D01*
X74004024Y-60972372D01*
X74002996Y-60965077D01*
X74004017Y-60948083D01*
X74007380Y-60941094D01*
X74013425Y-60925170D01*
X74014923Y-60911138D01*
X74017130Y-60896253D01*
X74021681Y-60890365D01*
X74026018Y-60882816D01*
X74025269Y-60875523D01*
X74025295Y-60858827D01*
X74027675Y-60852393D01*
X74035797Y-60832308D01*
X74043393Y-60803030D01*
X74047026Y-60783482D01*
X74050730Y-60766842D01*
X74054142Y-60758441D01*
X74060364Y-60745066D01*
X74066727Y-60723416D01*
X74071058Y-60701699D01*
X74075761Y-60687123D01*
X74081092Y-60681659D01*
X74086169Y-60674097D01*
X74085711Y-60669406D01*
X74086541Y-60654290D01*
X74089322Y-60646906D01*
X74101151Y-60617120D01*
X74108683Y-60585585D01*
X74113863Y-60568218D01*
X74123208Y-60546960D01*
X74124592Y-60544295D01*
X74132984Y-60527291D01*
X74137008Y-60516716D01*
X74137061Y-60515693D01*
X74139003Y-60506414D01*
X74145407Y-60488685D01*
X74154309Y-60467087D01*
X74163740Y-60446199D01*
X74171733Y-60430599D01*
X74176063Y-60424869D01*
X74180058Y-60417860D01*
X74179744Y-60415972D01*
X74181236Y-60405340D01*
X74187154Y-60386494D01*
X74195652Y-60364043D01*
X74204883Y-60342600D01*
X74213002Y-60326776D01*
X74217683Y-60321180D01*
X74221231Y-60314005D01*
X74220611Y-60309470D01*
X74221514Y-60297710D01*
X74223586Y-60295178D01*
X74229111Y-60286913D01*
X74238849Y-60268472D01*
X74251007Y-60243315D01*
X74255359Y-60233881D01*
X74270342Y-60201147D01*
X74282970Y-60174160D01*
X74294698Y-60150160D01*
X74306985Y-60126383D01*
X74321286Y-60100071D01*
X74339059Y-60068458D01*
X74361759Y-60028784D01*
X74382813Y-59992218D01*
X74425635Y-59918907D01*
X74462773Y-59857517D01*
X74495132Y-59806612D01*
X74523619Y-59764754D01*
X74542149Y-59739532D01*
X74556697Y-59719753D01*
X74568969Y-59701953D01*
X74569692Y-59700835D01*
X74580909Y-59685326D01*
X74597020Y-59665200D01*
X74604155Y-59656778D01*
X74619324Y-59638358D01*
X74630404Y-59623325D01*
X74633163Y-59618730D01*
X74641398Y-59606532D01*
X74656386Y-59588085D01*
X74675217Y-59566577D01*
X74694977Y-59545195D01*
X74712756Y-59527127D01*
X74725641Y-59515559D01*
X74729677Y-59513096D01*
X74737191Y-59506414D01*
X74737202Y-59503368D01*
X74740573Y-59494975D01*
X74742153Y-59494330D01*
X74750745Y-59488364D01*
X74765875Y-59474830D01*
X74779712Y-59461240D01*
X74799948Y-59442103D01*
X74819144Y-59426339D01*
X74828745Y-59419924D01*
X74843014Y-59410832D01*
X74849544Y-59404604D01*
X74856677Y-59397826D01*
X74873034Y-59385204D01*
X74895371Y-59369047D01*
X74920445Y-59351662D01*
X74945009Y-59335358D01*
X74960885Y-59325387D01*
X74997749Y-59311579D01*
X75014590Y-59309971D01*
X75031812Y-59310341D01*
X75041962Y-59314662D01*
X75049024Y-59326455D01*
X75056130Y-59346667D01*
X75062805Y-59370590D01*
X75063088Y-59384575D01*
X75058428Y-59391218D01*
X75050610Y-59401073D01*
X75050226Y-59405289D01*
X75047470Y-59416001D01*
X75038077Y-59433676D01*
X75024968Y-59453852D01*
X75011069Y-59472069D01*
X74999304Y-59483868D01*
X74998222Y-59484610D01*
X74986425Y-59494058D01*
X74982776Y-59498919D01*
X74977643Y-59506409D01*
X74964777Y-59523610D01*
X74945686Y-59548544D01*
X74921882Y-59579240D01*
X74897107Y-59610886D01*
X74859264Y-59659442D01*
X74822885Y-59706918D01*
X74789499Y-59751259D01*
X74760642Y-59790403D01*
X74737844Y-59822294D01*
X74722640Y-59844872D01*
X74721362Y-59846916D01*
X74713794Y-59858790D01*
X74700199Y-59879763D01*
X74682751Y-59906492D01*
X74669770Y-59926288D01*
X74643450Y-59967610D01*
X74613642Y-60016505D01*
X74582041Y-60069988D01*
X74550351Y-60125076D01*
X74520269Y-60178787D01*
X74493495Y-60228135D01*
X74471728Y-60270138D01*
X74459673Y-60295111D01*
X74444952Y-60326699D01*
X74430756Y-60356267D01*
X74419423Y-60378980D01*
X74416272Y-60384958D01*
X74407657Y-60403219D01*
X74403846Y-60416188D01*
X74403934Y-60418057D01*
X74400859Y-60426157D01*
X74399580Y-60426669D01*
X74393792Y-60434086D01*
X74385785Y-60451236D01*
X74380792Y-60464477D01*
X74372750Y-60485826D01*
X74366005Y-60500683D01*
X74363468Y-60504463D01*
X74360309Y-60514112D01*
X74360481Y-60514903D01*
X74358723Y-60525920D01*
X74353375Y-60538746D01*
X74340989Y-60564001D01*
X74335016Y-60579796D01*
X74334240Y-60589470D01*
X74334482Y-60590547D01*
X74331145Y-60601124D01*
X74326869Y-60605304D01*
X74319733Y-60616925D01*
X74319872Y-60622360D01*
X74318059Y-60632565D01*
X74315184Y-60634358D01*
X74308466Y-60642382D01*
X74304823Y-60654485D01*
X74298578Y-60683516D01*
X74288256Y-60716230D01*
X74280938Y-60736072D01*
X74267861Y-60773035D01*
X74259798Y-60803125D01*
X74257052Y-60817658D01*
X74252409Y-60832173D01*
X74247471Y-60837576D01*
X74242637Y-60845409D01*
X74241183Y-60858540D01*
X74239017Y-60873563D01*
X74234430Y-60879627D01*
X74230248Y-60887188D01*
X74231115Y-60895484D01*
X74231325Y-60910348D01*
X74228483Y-60916216D01*
X74222371Y-60928505D01*
X74219526Y-60940278D01*
X74215778Y-60959850D01*
X74213141Y-60970158D01*
X74208955Y-60988380D01*
X74208036Y-60994660D01*
X74204866Y-61009642D01*
X74198901Y-61030099D01*
X74198285Y-61031975D01*
X74192173Y-61052506D01*
X74188650Y-61068357D01*
X74188532Y-61069289D01*
X74185159Y-61087280D01*
X74183399Y-61093799D01*
X74179264Y-61111981D01*
X74178390Y-61118275D01*
X74175132Y-61136222D01*
X74173381Y-61142752D01*
X74169142Y-61160980D01*
X74168196Y-61167275D01*
X74165152Y-61189862D01*
X74161011Y-61215782D01*
X74156906Y-61238252D01*
X74154739Y-61247996D01*
X74150883Y-61266385D01*
X74149996Y-61272401D01*
X74147922Y-61285616D01*
X74143936Y-61308333D01*
X74139351Y-61333216D01*
X74135002Y-61359849D01*
X74132667Y-61381489D01*
X74132784Y-61392812D01*
X74132205Y-61407858D01*
X74128594Y-61420343D01*
X74124635Y-61439872D01*
X74125513Y-61452015D01*
X74125748Y-61470780D01*
X74122433Y-61483686D01*
X74118758Y-61504098D01*
X74120062Y-61517094D01*
X74120978Y-61530622D01*
X74117645Y-61535546D01*
X74113702Y-61543362D01*
X74112633Y-61560370D01*
X74112891Y-61565021D01*
X74113024Y-61590170D01*
X74110446Y-61613094D01*
X74110268Y-61613920D01*
X74108102Y-61635157D01*
X74109605Y-61650564D01*
X74110929Y-61668863D01*
X74108452Y-61689429D01*
X74106274Y-61712755D01*
X74108369Y-61732291D01*
X74110366Y-61748669D01*
X74108031Y-61757484D01*
X74105360Y-61767916D01*
X74105219Y-61787110D01*
X74105868Y-61795148D01*
X74107577Y-61824328D01*
X74107533Y-61855361D01*
X74107295Y-61860542D01*
X74107617Y-61887722D01*
X74110771Y-61913383D01*
X74111974Y-61918597D01*
X74115049Y-61936665D01*
X74113787Y-61948039D01*
X74113375Y-61948588D01*
X74112313Y-61957924D01*
X74113889Y-61978172D01*
X74117758Y-62005649D01*
X74119931Y-62018172D01*
X74124892Y-62049037D01*
X74127939Y-62075643D01*
X74128612Y-62093601D01*
X74128194Y-62097063D01*
X74128886Y-62109642D01*
X74133296Y-62133145D01*
X74140707Y-62164279D01*
X74150400Y-62199747D01*
X74150998Y-62201801D01*
X74177258Y-62291749D01*
X74220442Y-62219898D01*
X74258091Y-62158758D01*
X74291570Y-62107872D01*
X74323086Y-62064038D01*
X74354847Y-62024051D01*
X74357974Y-62020316D01*
X74378925Y-61994975D01*
X74398916Y-61970087D01*
X74413154Y-61951656D01*
X74428441Y-61931989D01*
X74443568Y-61915248D01*
X74462634Y-61897234D01*
X74486309Y-61876660D01*
X74507189Y-61858662D01*
X74526415Y-61841786D01*
X74532127Y-61836671D01*
X74550598Y-61823544D01*
X74567333Y-61816049D01*
X74585081Y-61808298D01*
X74605349Y-61795533D01*
X74607906Y-61793610D01*
X74617077Y-61787748D01*
X74630625Y-61781424D01*
X74650105Y-61774143D01*
X74677071Y-61765416D01*
X74713077Y-61754755D01*
X74759676Y-61741666D01*
X74818425Y-61725661D01*
X74851256Y-61716837D01*
X74917441Y-61699381D01*
X74975475Y-61684637D01*
X75024072Y-61672907D01*
X75061944Y-61664495D01*
X75087806Y-61659701D01*
X75098844Y-61658669D01*
X75115913Y-61657334D01*
X75143961Y-61653057D01*
X75179498Y-61646451D01*
X75219038Y-61638130D01*
X75231350Y-61635347D01*
X75279219Y-61625107D01*
X75319797Y-61617946D01*
X75350583Y-61614261D01*
X75366543Y-61614084D01*
X75413298Y-61611741D01*
X75465214Y-61596478D01*
X75521272Y-61568933D01*
X75580456Y-61529740D01*
X75641747Y-61479537D01*
X75704128Y-61418961D01*
X75738390Y-61381616D01*
X75759691Y-61358147D01*
X75777871Y-61339345D01*
X75790380Y-61327786D01*
X75794020Y-61325419D01*
X75802213Y-61318197D01*
X75802647Y-61316402D01*
X75808298Y-61309025D01*
X75823033Y-61294419D01*
X75844464Y-61274860D01*
X75864565Y-61257398D01*
X75901645Y-61228380D01*
X75935337Y-61206908D01*
X75963836Y-61193850D01*
X75985331Y-61190077D01*
X75996094Y-61194159D01*
X76007248Y-61196780D01*
X76023114Y-61194629D01*
X76043130Y-61193158D01*
X76057445Y-61196997D01*
X76075259Y-61201902D01*
X76085152Y-61201141D01*
X76102928Y-61202001D01*
X76111023Y-61205776D01*
X76124226Y-61211955D01*
X76129950Y-61212272D01*
X76139358Y-61214241D01*
X76159226Y-61221053D01*
X76186376Y-61231554D01*
X76209452Y-61241094D01*
X76240037Y-61253590D01*
X76265794Y-61263222D01*
X76283511Y-61268847D01*
X76289569Y-61269750D01*
X76298256Y-61272613D01*
X76299062Y-61274399D01*
X76306949Y-61279825D01*
X76318371Y-61281704D01*
X76339411Y-61285435D01*
X76350834Y-61289675D01*
X76370486Y-61291492D01*
X76395433Y-61281724D01*
X76423075Y-61261419D01*
X76424840Y-61259816D01*
X76439649Y-61248024D01*
X76450425Y-61242120D01*
X76457555Y-61235290D01*
X76457479Y-61232471D01*
X76462085Y-61225243D01*
X76471937Y-61220885D01*
X76490104Y-61211578D01*
X76499870Y-61202819D01*
X76514884Y-61189534D01*
X76533437Y-61177789D01*
X76547895Y-61168324D01*
X76553753Y-61160400D01*
X76553682Y-61159812D01*
X76558456Y-61153097D01*
X76569013Y-61148605D01*
X76585067Y-61139697D01*
X76592184Y-61130829D01*
X76603988Y-61118151D01*
X76613981Y-61113422D01*
X76631197Y-61104182D01*
X76640848Y-61094901D01*
X76656026Y-61081625D01*
X76667229Y-61076265D01*
X76682615Y-61066775D01*
X76688541Y-61058742D01*
X76700245Y-61046277D01*
X76711198Y-61041104D01*
X76728031Y-61031725D01*
X76735691Y-61022974D01*
X76748787Y-61010483D01*
X76762318Y-61004272D01*
X76776852Y-60996400D01*
X76782295Y-60987352D01*
X76789740Y-60976772D01*
X76803478Y-60970109D01*
X76820521Y-60961592D01*
X76829478Y-60951575D01*
X76840840Y-60939844D01*
X76855476Y-60933042D01*
X76870680Y-60925186D01*
X76876660Y-60915799D01*
X76884041Y-60904854D01*
X76895241Y-60899252D01*
X76911375Y-60890384D01*
X76918638Y-60881416D01*
X76929912Y-60869877D01*
X76945633Y-60862616D01*
X76961658Y-60854627D01*
X76967812Y-60845106D01*
X76975257Y-60834525D01*
X76988995Y-60827863D01*
X77006038Y-60819345D01*
X77014994Y-60809329D01*
X77026740Y-60796774D01*
X77037285Y-60791789D01*
X77053027Y-60782713D01*
X77059575Y-60774249D01*
X77070937Y-60762517D01*
X77085574Y-60755716D01*
X77100777Y-60747859D01*
X77106757Y-60738473D01*
X77114138Y-60727783D01*
X77126733Y-60721553D01*
X77144212Y-60712569D01*
X77153361Y-60702851D01*
X77166247Y-60690703D01*
X77181562Y-60683727D01*
X77197071Y-60675821D01*
X77203113Y-60666386D01*
X77210495Y-60655441D01*
X77221695Y-60649839D01*
X77237827Y-60640971D01*
X77245092Y-60632003D01*
X77256366Y-60620464D01*
X77272086Y-60613203D01*
X77288112Y-60605213D01*
X77294266Y-60595693D01*
X77301647Y-60584823D01*
X77313246Y-60579040D01*
X77330421Y-60569890D01*
X77338878Y-60560605D01*
X77352294Y-60547593D01*
X77363371Y-60542475D01*
X77379243Y-60533472D01*
X77386028Y-60524836D01*
X77397391Y-60513104D01*
X77412027Y-60506303D01*
X77427231Y-60498446D01*
X77433210Y-60489060D01*
X77440582Y-60477836D01*
X77450813Y-60472531D01*
X77468613Y-60462895D01*
X77478302Y-60453598D01*
X77493696Y-60440357D01*
X77505168Y-60435076D01*
X77520737Y-60425895D01*
X77526965Y-60417669D01*
X77538710Y-60405114D01*
X77549255Y-60400129D01*
X77564997Y-60391054D01*
X77571544Y-60382589D01*
X77582908Y-60370857D01*
X77597544Y-60364056D01*
X77612747Y-60356200D01*
X77618727Y-60346812D01*
X77626109Y-60336124D01*
X77638704Y-60329893D01*
X77656183Y-60320910D01*
X77665331Y-60311191D01*
X77678748Y-60298180D01*
X77689824Y-60293061D01*
X77705696Y-60284059D01*
X77712481Y-60275423D01*
X77724227Y-60262868D01*
X77734772Y-60257883D01*
X77750515Y-60248808D01*
X77757062Y-60240343D01*
X77768911Y-60227440D01*
X77778373Y-60222820D01*
X77795182Y-60213501D01*
X77804755Y-60204184D01*
X77819064Y-60191307D01*
X77829419Y-60186254D01*
X77844291Y-60177041D01*
X77850848Y-60168945D01*
X77864018Y-60155728D01*
X77873139Y-60151405D01*
X77888789Y-60141944D01*
X77895429Y-60133865D01*
X77908220Y-60121875D01*
X77924400Y-60114535D01*
X77938772Y-60108444D01*
X77943580Y-60101831D01*
X77947963Y-60093586D01*
X77960186Y-60084664D01*
X77978675Y-60071936D01*
X77990271Y-60061033D01*
X78006172Y-60048311D01*
X78017365Y-60043357D01*
X78032852Y-60034122D01*
X78038935Y-60026010D01*
X78050582Y-60013667D01*
X78062107Y-60008234D01*
X78074567Y-60002350D01*
X78077437Y-59997027D01*
X78082107Y-59989508D01*
X78095861Y-59980015D01*
X78097682Y-59979050D01*
X78117015Y-59966723D01*
X78131249Y-59954020D01*
X78147512Y-59941059D01*
X78159182Y-59935954D01*
X78171214Y-59929911D01*
X78173677Y-59924505D01*
X78178019Y-59916173D01*
X78189794Y-59907429D01*
X78209647Y-59894254D01*
X78223686Y-59882825D01*
X78238081Y-59871360D01*
X78247970Y-59865942D01*
X78259111Y-59859646D01*
X78273964Y-59847834D01*
X78302180Y-59823775D01*
X78326870Y-59805150D01*
X78345084Y-59794120D01*
X78349582Y-59792399D01*
X78358667Y-59786202D01*
X78359245Y-59782448D01*
X78364005Y-59775053D01*
X78378094Y-59765726D01*
X78381321Y-59764108D01*
X78396659Y-59754949D01*
X78403535Y-59747218D01*
X78403523Y-59746241D01*
X78407883Y-59739050D01*
X78412997Y-59736849D01*
X78425056Y-59730661D01*
X78443274Y-59718243D01*
X78454004Y-59710018D01*
X78474919Y-59693377D01*
X78493590Y-59678643D01*
X78499786Y-59673805D01*
X78517564Y-59659739D01*
X78534710Y-59645855D01*
X78554594Y-59631236D01*
X78572219Y-59620358D01*
X78585094Y-59611184D01*
X78589046Y-59604015D01*
X78593819Y-59597391D01*
X78603713Y-59593210D01*
X78621880Y-59583903D01*
X78631646Y-59575144D01*
X78646660Y-59561859D01*
X78665213Y-59550114D01*
X78679671Y-59540649D01*
X78685530Y-59532725D01*
X78685458Y-59532137D01*
X78690430Y-59525749D01*
X78704498Y-59519936D01*
X78720430Y-59511962D01*
X78726563Y-59502457D01*
X78733945Y-59491417D01*
X78744650Y-59486043D01*
X78762859Y-59476488D01*
X78772624Y-59467226D01*
X78788582Y-59453978D01*
X78802714Y-59447596D01*
X78817339Y-59439567D01*
X78822918Y-59430370D01*
X78830300Y-59419425D01*
X78841500Y-59413824D01*
X78857633Y-59404955D01*
X78864897Y-59395987D01*
X78876171Y-59384448D01*
X78891891Y-59377187D01*
X78907917Y-59369198D01*
X78914071Y-59359677D01*
X78921452Y-59348807D01*
X78933051Y-59343024D01*
X78950226Y-59333874D01*
X78958683Y-59324589D01*
X78972099Y-59311577D01*
X78983176Y-59306459D01*
X78999049Y-59297457D01*
X79005834Y-59288821D01*
X79017196Y-59277088D01*
X79031833Y-59270287D01*
X79047036Y-59262431D01*
X79053016Y-59253044D01*
X79060635Y-59242366D01*
X79075195Y-59235534D01*
X79092580Y-59227113D01*
X79102189Y-59216734D01*
X79113553Y-59205001D01*
X79128188Y-59198200D01*
X79143392Y-59190344D01*
X79149371Y-59180957D01*
X79156754Y-59170012D01*
X79167953Y-59164411D01*
X79184086Y-59155542D01*
X79191351Y-59146574D01*
X79202713Y-59134842D01*
X79217349Y-59128041D01*
X79232553Y-59120184D01*
X79238533Y-59110798D01*
X79245914Y-59100108D01*
X79258509Y-59093878D01*
X79275988Y-59084894D01*
X79285137Y-59075176D01*
X79298023Y-59063028D01*
X79313339Y-59056052D01*
X79328847Y-59048146D01*
X79334889Y-59038711D01*
X79342271Y-59027766D01*
X79353470Y-59022164D01*
X79369604Y-59013296D01*
X79376867Y-59004327D01*
X79388141Y-58992788D01*
X79403862Y-58985527D01*
X79419887Y-58977538D01*
X79426041Y-58968017D01*
X79433423Y-58957148D01*
X79445021Y-58951364D01*
X79462198Y-58942215D01*
X79470653Y-58932929D01*
X79484070Y-58919918D01*
X79495146Y-58914799D01*
X79511018Y-58905797D01*
X79517803Y-58897161D01*
X79529167Y-58885429D01*
X79543802Y-58878627D01*
X79559006Y-58870771D01*
X79564986Y-58861384D01*
X79572358Y-58850161D01*
X79582589Y-58844855D01*
X79600389Y-58835219D01*
X79610078Y-58825922D01*
X79625471Y-58812682D01*
X79636945Y-58807401D01*
X79652512Y-58798220D01*
X79658740Y-58789994D01*
X79670486Y-58777439D01*
X79681031Y-58772454D01*
X79696774Y-58763379D01*
X79703321Y-58754914D01*
X79715067Y-58742360D01*
X79725611Y-58737375D01*
X79741353Y-58728300D01*
X79747901Y-58719835D01*
X79759493Y-58707610D01*
X79771586Y-58701921D01*
X79788728Y-58692751D01*
X79797107Y-58683516D01*
X79810524Y-58670505D01*
X79821600Y-58665386D01*
X79837472Y-58656384D01*
X79844257Y-58647748D01*
X79856003Y-58635193D01*
X79866547Y-58630208D01*
X79882290Y-58621132D01*
X79888838Y-58612668D01*
X79900687Y-58599765D01*
X79910149Y-58595145D01*
X79926958Y-58585826D01*
X79936530Y-58576509D01*
X79950839Y-58563632D01*
X79961195Y-58558579D01*
X79976066Y-58549366D01*
X79982624Y-58541270D01*
X79995794Y-58528053D01*
X80004914Y-58523730D01*
X80020565Y-58514269D01*
X80027204Y-58506190D01*
X80040769Y-58492817D01*
X80050718Y-58488077D01*
X80067855Y-58478653D01*
X80077467Y-58469343D01*
X80093307Y-58455954D01*
X80105215Y-58450586D01*
X80117369Y-58444545D01*
X80119936Y-58439077D01*
X80124319Y-58430831D01*
X80136542Y-58421910D01*
X80155031Y-58409182D01*
X80166628Y-58398278D01*
X80180860Y-58386110D01*
X80190421Y-58381486D01*
X80203963Y-58374517D01*
X80221073Y-58361750D01*
X80223367Y-58359752D01*
X80242521Y-58342718D01*
X80260166Y-58327054D01*
X80260647Y-58326628D01*
X80278062Y-58314328D01*
X80292266Y-58307928D01*
X80303551Y-58301807D01*
X80305416Y-58296693D01*
X80309284Y-58288317D01*
X80312417Y-58286845D01*
X80323232Y-58280617D01*
X80339754Y-58268144D01*
X80346399Y-58262578D01*
X80363544Y-58248784D01*
X80376826Y-58239828D01*
X80379799Y-58238467D01*
X80390964Y-58232066D01*
X80405800Y-58220385D01*
X80424345Y-58204657D01*
X80439460Y-58192585D01*
X80454785Y-58180791D01*
X80475645Y-58164621D01*
X80486576Y-58156112D01*
X80506078Y-58141814D01*
X80521877Y-58131815D01*
X80527563Y-58129208D01*
X80535542Y-58123066D01*
X80535728Y-58120168D01*
X80540570Y-58113089D01*
X80554694Y-58103922D01*
X80557931Y-58102302D01*
X80573241Y-58093022D01*
X80580036Y-58084999D01*
X80580007Y-58083961D01*
X80584282Y-58076400D01*
X80589670Y-58074010D01*
X80604749Y-58066330D01*
X80627393Y-58050255D01*
X80654651Y-58027949D01*
X80665288Y-58018575D01*
X80679836Y-58006854D01*
X80690181Y-58000810D01*
X80690207Y-58000803D01*
X80700364Y-57995231D01*
X80716395Y-57983866D01*
X80720765Y-57980476D01*
X80742425Y-57963376D01*
X80763533Y-57946744D01*
X80764791Y-57945754D01*
X80786287Y-57928685D01*
X80806078Y-57912773D01*
X80826132Y-57898128D01*
X80845197Y-57886512D01*
X80858091Y-57877333D01*
X80861930Y-57869817D01*
X80866536Y-57862583D01*
X80876167Y-57858192D01*
X80893764Y-57848622D01*
X80903429Y-57839320D01*
X80918824Y-57826080D01*
X80930296Y-57820800D01*
X80945864Y-57811617D01*
X80952093Y-57803392D01*
X80963838Y-57790837D01*
X80974382Y-57785852D01*
X80990125Y-57776777D01*
X80996672Y-57768313D01*
X81008377Y-57755847D01*
X81019330Y-57750674D01*
X81036163Y-57741294D01*
X81043822Y-57732545D01*
X81056919Y-57720052D01*
X81070450Y-57713843D01*
X81084983Y-57705970D01*
X81090427Y-57696923D01*
X81097872Y-57686342D01*
X81111611Y-57679679D01*
X81128653Y-57671162D01*
X81137609Y-57661146D01*
X81148972Y-57649413D01*
X81163608Y-57642613D01*
X81178811Y-57634756D01*
X81184792Y-57625369D01*
X81192173Y-57614680D01*
X81204768Y-57608449D01*
X81222247Y-57599466D01*
X81231395Y-57589747D01*
X81244281Y-57577600D01*
X81259596Y-57570623D01*
X81275106Y-57562717D01*
X81281147Y-57553281D01*
X81288529Y-57542338D01*
X81299729Y-57536735D01*
X81315863Y-57527867D01*
X81323126Y-57518899D01*
X81334400Y-57507360D01*
X81350121Y-57500098D01*
X81366146Y-57492110D01*
X81372300Y-57482588D01*
X81379766Y-57471996D01*
X81393595Y-57465315D01*
X81408891Y-57457444D01*
X81414889Y-57448042D01*
X81422508Y-57437365D01*
X81437068Y-57430532D01*
X81454453Y-57422112D01*
X81464062Y-57411732D01*
X81475426Y-57400000D01*
X81490061Y-57393199D01*
X81505265Y-57385343D01*
X81511245Y-57375955D01*
X81518627Y-57365011D01*
X81529826Y-57359409D01*
X81545960Y-57350542D01*
X81553224Y-57341573D01*
X81564498Y-57330034D01*
X81580218Y-57322773D01*
X81596244Y-57314784D01*
X81602397Y-57305263D01*
X81609779Y-57294394D01*
X81621378Y-57288609D01*
X81638553Y-57279459D01*
X81647010Y-57270174D01*
X81659896Y-57258027D01*
X81675212Y-57251051D01*
X81690720Y-57243145D01*
X81696762Y-57233709D01*
X81704399Y-57223021D01*
X81719053Y-57216169D01*
X81735169Y-57208165D01*
X81741342Y-57198629D01*
X81748961Y-57187952D01*
X81763521Y-57181120D01*
X81780907Y-57172699D01*
X81790516Y-57162319D01*
X81802262Y-57149764D01*
X81812806Y-57144779D01*
X81828549Y-57135704D01*
X81835097Y-57127239D01*
X81846791Y-57114796D01*
X81857843Y-57109578D01*
X81871832Y-57103209D01*
X81876746Y-57097711D01*
X81884348Y-57091489D01*
X81902142Y-57082292D01*
X81926252Y-57072120D01*
X81951231Y-57061573D01*
X81970687Y-57051641D01*
X81980170Y-57044693D01*
X81990472Y-57037037D01*
X82009895Y-57027190D01*
X82025764Y-57020589D01*
X82046701Y-57011490D01*
X82060158Y-57003496D01*
X82063066Y-56999529D01*
X82069083Y-56995194D01*
X82086652Y-56988305D01*
X82112864Y-56979904D01*
X82136954Y-56973099D01*
X82171709Y-56964486D01*
X82197357Y-56959582D01*
X82211899Y-56958723D01*
X82214428Y-56960051D01*
X82222015Y-56962110D01*
X82239911Y-56960094D01*
X82260237Y-56955488D01*
X82318344Y-56947376D01*
X82376243Y-56953776D01*
X82432651Y-56974342D01*
X82486287Y-57008726D01*
X82500142Y-57020347D01*
X82517992Y-57037718D01*
X82529649Y-57054668D01*
X82538426Y-57076937D01*
X82543981Y-57096338D01*
X82550394Y-57125067D01*
X82554073Y-57151294D01*
X82554325Y-57167431D01*
X82548714Y-57208497D01*
X82543183Y-57240130D01*
X82538103Y-57260485D01*
X82534091Y-57267681D01*
X82530861Y-57274858D01*
X82531647Y-57280548D01*
X82529089Y-57290641D01*
X82520020Y-57310953D01*
X82505689Y-57338986D01*
X82487343Y-57372239D01*
X82476441Y-57391088D01*
X82452043Y-57434071D01*
X82434510Y-57468154D01*
X82424375Y-57492216D01*
X82422161Y-57505089D01*
X82419620Y-57520695D01*
X82409640Y-57529125D01*
X82394511Y-57541054D01*
X82387469Y-57550635D01*
X82375854Y-57562989D01*
X82367778Y-57566721D01*
X82352460Y-57576077D01*
X82345855Y-57584163D01*
X82333421Y-57597141D01*
X82324960Y-57601329D01*
X82310930Y-57610667D01*
X82305900Y-57618003D01*
X82294154Y-57630558D01*
X82283609Y-57635543D01*
X82267867Y-57644619D01*
X82261319Y-57653083D01*
X82249586Y-57665610D01*
X82238917Y-57670652D01*
X82225491Y-57678776D01*
X82221332Y-57686932D01*
X82213951Y-57697713D01*
X82201869Y-57703714D01*
X82188879Y-57709756D01*
X82185548Y-57715652D01*
X82181163Y-57723898D01*
X82168941Y-57732820D01*
X82150451Y-57745548D01*
X82138855Y-57756451D01*
X82124770Y-57768570D01*
X82115360Y-57773163D01*
X82102314Y-57782188D01*
X82097387Y-57789546D01*
X82085373Y-57802677D01*
X82077299Y-57806496D01*
X82061981Y-57815850D01*
X82055376Y-57823937D01*
X82042942Y-57836915D01*
X82034480Y-57841104D01*
X82020451Y-57850441D01*
X82015421Y-57857778D01*
X82003774Y-57870121D01*
X81992250Y-57875554D01*
X81979832Y-57881591D01*
X81977034Y-57887194D01*
X81972715Y-57895570D01*
X81961357Y-57904026D01*
X81946291Y-57914471D01*
X81925874Y-57931149D01*
X81910718Y-57944732D01*
X81890547Y-57962054D01*
X81872550Y-57974890D01*
X81863123Y-57979556D01*
X81852142Y-57985640D01*
X81850488Y-57990506D01*
X81846126Y-57998801D01*
X81833990Y-58007794D01*
X81817666Y-58019734D01*
X81808589Y-58030170D01*
X81796435Y-58042462D01*
X81789561Y-58045781D01*
X81775602Y-58054193D01*
X81766410Y-58063551D01*
X81752349Y-58076345D01*
X81742259Y-58081344D01*
X81732219Y-58087566D01*
X81731173Y-58092026D01*
X81727400Y-58100347D01*
X81724895Y-58101419D01*
X81714327Y-58107546D01*
X81695895Y-58121285D01*
X81672709Y-58140172D01*
X81647879Y-58161746D01*
X81642105Y-58166974D01*
X81626339Y-58178982D01*
X81614179Y-58185066D01*
X81605156Y-58191429D01*
X81604626Y-58195337D01*
X81600925Y-58203720D01*
X81598796Y-58204610D01*
X81589745Y-58210128D01*
X81572735Y-58222879D01*
X81551081Y-58240356D01*
X81545913Y-58244677D01*
X81520246Y-58266080D01*
X81495283Y-58286555D01*
X81476180Y-58301875D01*
X81475277Y-58302581D01*
X81454815Y-58319226D01*
X81436505Y-58335175D01*
X81433457Y-58338015D01*
X81417896Y-58350322D01*
X81405665Y-58356608D01*
X81396562Y-58362684D01*
X81395960Y-58366308D01*
X81391364Y-58373967D01*
X81377815Y-58383249D01*
X81377421Y-58383455D01*
X81363714Y-58392724D01*
X81358850Y-58400473D01*
X81358880Y-58400603D01*
X81354404Y-58407763D01*
X81347641Y-58410714D01*
X81332830Y-58419190D01*
X81323490Y-58428507D01*
X81310056Y-58441194D01*
X81300706Y-58446179D01*
X81287627Y-58455434D01*
X81283415Y-58461818D01*
X81273131Y-58473287D01*
X81255721Y-58484646D01*
X81254100Y-58485444D01*
X81238890Y-58494695D01*
X81232227Y-58502695D01*
X81232268Y-58503669D01*
X81227869Y-58511061D01*
X81221320Y-58513964D01*
X81206324Y-58522221D01*
X81196943Y-58530913D01*
X81181260Y-58545026D01*
X81166858Y-58554544D01*
X81154072Y-58564047D01*
X81150251Y-58571711D01*
X81145569Y-58578756D01*
X81135036Y-58583353D01*
X81118982Y-58592260D01*
X81111865Y-58601128D01*
X81100615Y-58614017D01*
X81093172Y-58617704D01*
X81079475Y-58626936D01*
X81074479Y-58634280D01*
X81062734Y-58646835D01*
X81052188Y-58651820D01*
X81036446Y-58660896D01*
X81029899Y-58669360D01*
X81018153Y-58681914D01*
X81007609Y-58686899D01*
X80991866Y-58695975D01*
X80985318Y-58704439D01*
X80973585Y-58716967D01*
X80962917Y-58722009D01*
X80949489Y-58730133D01*
X80945331Y-58738288D01*
X80937949Y-58749029D01*
X80925642Y-58755131D01*
X80911238Y-58763027D01*
X80905954Y-58771973D01*
X80898572Y-58783112D01*
X80888368Y-58788253D01*
X80872586Y-58797306D01*
X80865966Y-58805822D01*
X80854221Y-58818377D01*
X80843676Y-58823362D01*
X80827933Y-58832438D01*
X80821386Y-58840902D01*
X80809763Y-58853193D01*
X80797988Y-58858738D01*
X80784091Y-58866743D01*
X80779407Y-58875284D01*
X80771942Y-58885876D01*
X80758112Y-58892557D01*
X80742815Y-58900429D01*
X80736817Y-58909830D01*
X80729435Y-58920754D01*
X80718125Y-58926406D01*
X80704176Y-58934399D01*
X80699432Y-58942982D01*
X80692050Y-58953927D01*
X80680850Y-58959528D01*
X80664717Y-58968397D01*
X80657453Y-58977365D01*
X80645440Y-58990496D01*
X80637366Y-58994314D01*
X80622048Y-59003669D01*
X80615442Y-59011756D01*
X80602044Y-59024739D01*
X80590839Y-59029915D01*
X80577236Y-59037993D01*
X80572885Y-59046293D01*
X80565503Y-59057238D01*
X80554304Y-59062839D01*
X80538171Y-59071708D01*
X80530906Y-59080676D01*
X80519174Y-59093203D01*
X80508505Y-59098245D01*
X80495077Y-59106369D01*
X80490920Y-59114525D01*
X80483539Y-59125916D01*
X80474540Y-59130481D01*
X80458218Y-59140155D01*
X80451510Y-59148219D01*
X80439077Y-59161197D01*
X80430614Y-59165385D01*
X80416585Y-59174723D01*
X80411555Y-59182060D01*
X80399810Y-59194614D01*
X80389265Y-59199599D01*
X80373522Y-59208674D01*
X80366975Y-59217139D01*
X80355241Y-59229666D01*
X80344573Y-59234709D01*
X80331145Y-59242832D01*
X80326987Y-59250988D01*
X80319350Y-59261676D01*
X80304697Y-59268528D01*
X80288579Y-59276531D01*
X80282406Y-59286068D01*
X80275027Y-59297458D01*
X80266028Y-59302023D01*
X80249705Y-59311699D01*
X80242997Y-59319762D01*
X80230563Y-59332739D01*
X80222102Y-59336928D01*
X80208072Y-59346265D01*
X80203042Y-59353602D01*
X80191296Y-59366157D01*
X80180752Y-59371142D01*
X80165009Y-59380216D01*
X80158461Y-59388681D01*
X80146729Y-59401209D01*
X80136060Y-59406251D01*
X80122632Y-59414375D01*
X80118473Y-59422530D01*
X80111092Y-59433475D01*
X80099893Y-59439076D01*
X80083759Y-59447945D01*
X80076495Y-59456913D01*
X80065748Y-59469771D01*
X80058781Y-59473472D01*
X80045142Y-59481782D01*
X80035997Y-59491144D01*
X80021936Y-59503938D01*
X80011847Y-59508937D01*
X80001771Y-59515034D01*
X80000686Y-59519342D01*
X79996039Y-59527014D01*
X79982174Y-59537833D01*
X79976118Y-59541556D01*
X79958865Y-59553072D01*
X79948344Y-59562967D01*
X79947246Y-59565013D01*
X79938863Y-59573161D01*
X79928004Y-59577671D01*
X79914358Y-59585737D01*
X79909961Y-59594073D01*
X79902580Y-59604853D01*
X79890498Y-59610855D01*
X79877476Y-59616779D01*
X79874084Y-59622445D01*
X79869922Y-59630998D01*
X79860937Y-59638136D01*
X79847831Y-59647400D01*
X79827820Y-59663065D01*
X79805228Y-59681746D01*
X79805162Y-59681801D01*
X79780944Y-59702166D01*
X79757844Y-59721249D01*
X79742031Y-59733988D01*
X79722060Y-59750182D01*
X79704059Y-59765570D01*
X79703233Y-59766308D01*
X79688598Y-59777786D01*
X79678337Y-59783375D01*
X79668028Y-59791129D01*
X79662039Y-59799309D01*
X79649142Y-59812438D01*
X79640262Y-59816711D01*
X79629687Y-59822881D01*
X79628315Y-59827624D01*
X79624643Y-59836029D01*
X79622653Y-59836853D01*
X79614910Y-59840923D01*
X79600421Y-59851247D01*
X79577795Y-59868891D01*
X79545633Y-59894914D01*
X79535572Y-59903156D01*
X79519844Y-59914882D01*
X79508360Y-59921430D01*
X79507747Y-59921621D01*
X79501553Y-59928710D01*
X79501768Y-59930935D01*
X79497883Y-59939174D01*
X79494715Y-59940584D01*
X79482928Y-59947139D01*
X79469848Y-59957623D01*
X79450855Y-59972648D01*
X79435955Y-59982227D01*
X79423420Y-59991778D01*
X79419839Y-59999303D01*
X79415156Y-60006349D01*
X79404624Y-60010945D01*
X79388570Y-60019853D01*
X79381453Y-60028721D01*
X79370202Y-60041610D01*
X79362759Y-60045297D01*
X79349063Y-60054528D01*
X79344066Y-60061873D01*
X79333206Y-60074638D01*
X79326094Y-60078256D01*
X79311881Y-60086265D01*
X79302598Y-60094968D01*
X79286914Y-60109081D01*
X79272513Y-60118599D01*
X79259727Y-60128102D01*
X79255906Y-60135766D01*
X79251018Y-60142463D01*
X79236983Y-60148402D01*
X79221051Y-60156376D01*
X79214918Y-60165881D01*
X79207536Y-60176621D01*
X79195229Y-60182724D01*
X79180826Y-60190620D01*
X79175541Y-60199566D01*
X79168159Y-60210705D01*
X79157956Y-60215845D01*
X79142173Y-60224899D01*
X79135554Y-60233415D01*
X79123808Y-60245970D01*
X79113264Y-60250955D01*
X79097521Y-60260030D01*
X79090973Y-60268495D01*
X79079351Y-60280785D01*
X79067576Y-60286331D01*
X79053678Y-60294336D01*
X79048994Y-60302877D01*
X79041528Y-60313469D01*
X79027699Y-60320150D01*
X79012403Y-60328021D01*
X79006405Y-60337423D01*
X78999023Y-60348347D01*
X78987712Y-60353999D01*
X78973763Y-60361992D01*
X78969020Y-60370575D01*
X78961637Y-60381520D01*
X78950438Y-60387121D01*
X78934305Y-60395990D01*
X78927041Y-60404957D01*
X78915295Y-60417512D01*
X78904750Y-60422497D01*
X78889008Y-60431573D01*
X78882460Y-60440037D01*
X78870727Y-60452565D01*
X78860058Y-60457607D01*
X78846632Y-60465731D01*
X78842473Y-60473886D01*
X78835091Y-60484626D01*
X78822784Y-60490730D01*
X78808380Y-60498626D01*
X78803096Y-60507572D01*
X78795631Y-60518164D01*
X78781801Y-60524845D01*
X78766504Y-60532716D01*
X78760506Y-60542118D01*
X78753127Y-60553508D01*
X78744128Y-60558074D01*
X78727806Y-60567748D01*
X78721097Y-60575812D01*
X78708663Y-60588789D01*
X78700202Y-60592978D01*
X78686173Y-60602315D01*
X78681142Y-60609652D01*
X78669397Y-60622207D01*
X78658852Y-60627192D01*
X78643110Y-60636267D01*
X78636562Y-60644732D01*
X78624829Y-60657259D01*
X78614161Y-60662301D01*
X78600733Y-60670426D01*
X78596575Y-60678581D01*
X78589192Y-60689525D01*
X78577993Y-60695127D01*
X78561859Y-60703995D01*
X78554595Y-60712963D01*
X78542581Y-60726094D01*
X78534508Y-60729913D01*
X78519190Y-60739267D01*
X78512585Y-60747354D01*
X78500151Y-60760332D01*
X78491690Y-60764520D01*
X78477659Y-60773858D01*
X78472630Y-60781195D01*
X78460884Y-60793749D01*
X78450339Y-60798734D01*
X78434596Y-60807809D01*
X78428049Y-60816274D01*
X78416316Y-60828802D01*
X78405647Y-60833844D01*
X78392220Y-60841968D01*
X78388061Y-60850123D01*
X78380680Y-60860904D01*
X78368599Y-60866905D01*
X78355609Y-60872946D01*
X78352277Y-60878843D01*
X78347893Y-60887089D01*
X78335671Y-60896010D01*
X78317181Y-60908739D01*
X78305585Y-60919641D01*
X78292553Y-60931408D01*
X78284292Y-60935764D01*
X78272834Y-60943886D01*
X78266686Y-60952048D01*
X78253270Y-60965059D01*
X78242193Y-60970178D01*
X78226321Y-60979180D01*
X78219536Y-60987817D01*
X78207803Y-61000344D01*
X78197135Y-61005386D01*
X78183707Y-61013510D01*
X78179549Y-61021665D01*
X78172167Y-61032446D01*
X78160086Y-61038447D01*
X78147063Y-61044372D01*
X78143671Y-61050038D01*
X78139508Y-61058591D01*
X78130525Y-61065729D01*
X78117252Y-61075174D01*
X78096156Y-61091765D01*
X78070565Y-61112771D01*
X78043804Y-61135454D01*
X78019200Y-61157083D01*
X78017376Y-61158729D01*
X78001919Y-61170555D01*
X77990302Y-61176478D01*
X77978436Y-61185129D01*
X77973637Y-61192510D01*
X77961623Y-61205643D01*
X77953550Y-61209460D01*
X77938231Y-61218816D01*
X77931626Y-61226902D01*
X77918730Y-61240031D01*
X77909850Y-61244304D01*
X77899275Y-61250474D01*
X77897902Y-61255217D01*
X77894230Y-61263622D01*
X77892240Y-61264446D01*
X77881854Y-61270344D01*
X77864119Y-61283141D01*
X77842847Y-61299870D01*
X77821846Y-61317559D01*
X77808674Y-61329567D01*
X77793152Y-61341931D01*
X77780909Y-61348257D01*
X77771886Y-61354619D01*
X77771355Y-61358528D01*
X77767488Y-61366904D01*
X77764355Y-61368377D01*
X77753540Y-61374604D01*
X77737017Y-61387077D01*
X77730373Y-61392643D01*
X77713073Y-61406493D01*
X77699474Y-61415529D01*
X77696390Y-61416911D01*
X77689306Y-61423942D01*
X77689389Y-61426759D01*
X77685677Y-61435132D01*
X77683487Y-61436052D01*
X77674207Y-61441597D01*
X77657210Y-61454192D01*
X77636074Y-61471176D01*
X77634854Y-61472192D01*
X77611922Y-61490693D01*
X77591305Y-61506243D01*
X77577691Y-61515335D01*
X77565874Y-61524237D01*
X77562899Y-61530279D01*
X77558163Y-61537387D01*
X77544564Y-61546430D01*
X77544150Y-61546646D01*
X77530444Y-61555914D01*
X77525580Y-61563663D01*
X77525610Y-61563794D01*
X77520836Y-61570508D01*
X77510279Y-61575001D01*
X77494225Y-61583908D01*
X77487107Y-61592777D01*
X77475485Y-61605067D01*
X77463710Y-61610613D01*
X77449813Y-61618617D01*
X77445128Y-61627159D01*
X77437747Y-61638298D01*
X77427542Y-61643438D01*
X77411761Y-61652491D01*
X77405141Y-61661008D01*
X77394280Y-61673774D01*
X77387168Y-61677391D01*
X77372955Y-61685400D01*
X77363672Y-61694103D01*
X77347990Y-61708216D01*
X77333587Y-61717734D01*
X77320801Y-61727238D01*
X77316981Y-61734902D01*
X77312092Y-61741598D01*
X77298057Y-61747537D01*
X77282125Y-61755511D01*
X77275992Y-61765016D01*
X77268611Y-61775940D01*
X77257299Y-61781592D01*
X77243351Y-61789584D01*
X77238607Y-61798168D01*
X77231225Y-61809112D01*
X77220025Y-61814714D01*
X77203892Y-61823582D01*
X77196628Y-61832550D01*
X77184882Y-61845105D01*
X77174338Y-61850090D01*
X77158596Y-61859166D01*
X77152047Y-61867630D01*
X77140401Y-61879974D01*
X77128877Y-61885407D01*
X77115981Y-61889728D01*
X77112373Y-61892241D01*
X77117137Y-61898656D01*
X77128768Y-61912801D01*
X77139494Y-61925458D01*
X77173894Y-61967678D01*
X77210449Y-62016137D01*
X77247793Y-62068689D01*
X77284560Y-62123187D01*
X77319388Y-62177481D01*
X77350907Y-62229424D01*
X77377755Y-62276868D01*
X77398564Y-62317664D01*
X77411970Y-62349664D01*
X77414631Y-62358279D01*
X77421477Y-62376633D01*
X77430454Y-62381829D01*
X77444363Y-62374419D01*
X77454081Y-62366128D01*
X77484825Y-62341578D01*
X77518577Y-62319653D01*
X77536664Y-62310145D01*
X77555867Y-62298476D01*
X77568805Y-62286991D01*
X77585363Y-62273987D01*
X77597229Y-62268866D01*
X77616226Y-62259889D01*
X77627421Y-62251243D01*
X77639740Y-62243715D01*
X77663491Y-62232956D01*
X77695834Y-62220015D01*
X77733934Y-62205941D01*
X77774950Y-62191784D01*
X77816046Y-62178593D01*
X77853231Y-62167734D01*
X77888242Y-62159323D01*
X77924838Y-62152488D01*
X77959501Y-62147669D01*
X77988713Y-62145304D01*
X78008956Y-62145832D01*
X78015067Y-62147557D01*
X78030679Y-62150809D01*
X78043365Y-62149324D01*
X78063647Y-62147531D01*
X78082386Y-62149617D01*
X78102710Y-62154017D01*
X78129533Y-62159600D01*
X78142885Y-62162311D01*
X78164810Y-62167602D01*
X78179501Y-62172822D01*
X78183049Y-62175502D01*
X78190014Y-62179230D01*
X78192040Y-62178891D01*
X78203329Y-62180626D01*
X78225277Y-62187769D01*
X78255170Y-62199156D01*
X78290295Y-62213626D01*
X78327939Y-62230019D01*
X78365390Y-62247171D01*
X78399935Y-62263921D01*
X78428860Y-62279108D01*
X78437196Y-62283864D01*
X78498439Y-62319836D01*
X78493500Y-62292535D01*
X78491496Y-62273992D01*
X78496417Y-62264005D01*
X78511218Y-62256772D01*
X78511845Y-62256537D01*
X78536658Y-62254371D01*
X78560891Y-62263480D01*
X78579203Y-62281139D01*
X78584896Y-62293799D01*
X78592517Y-62306964D01*
X78600409Y-62308523D01*
X78609853Y-62311845D01*
X78617315Y-62328525D01*
X78617948Y-62330813D01*
X78624215Y-62346974D01*
X78630888Y-62354103D01*
X78631890Y-62354067D01*
X78638341Y-62359118D01*
X78644885Y-62374033D01*
X78645833Y-62377322D01*
X78649175Y-62394551D01*
X78644911Y-62403128D01*
X78630511Y-62408417D01*
X78615853Y-62413720D01*
X78613387Y-62420781D01*
X78617712Y-62429198D01*
X78630972Y-62445201D01*
X78639969Y-62452759D01*
X78652309Y-62465515D01*
X78656175Y-62473479D01*
X78665442Y-62486617D01*
X78682057Y-62498262D01*
X78699289Y-62504259D01*
X78705565Y-62503978D01*
X78722715Y-62506403D01*
X78739118Y-62520448D01*
X78751576Y-62543039D01*
X78753914Y-62550450D01*
X78762680Y-62572198D01*
X78773758Y-62585039D01*
X78774912Y-62585645D01*
X78786549Y-62598292D01*
X78796947Y-62624092D01*
X78798217Y-62628541D01*
X78807276Y-62653343D01*
X78818194Y-62671949D01*
X78822638Y-62676508D01*
X78828102Y-62682745D01*
X78834043Y-62694169D01*
X78841030Y-62712487D01*
X78849633Y-62739408D01*
X78860419Y-62776642D01*
X78873959Y-62825897D01*
X78880759Y-62851162D01*
X78895914Y-62908210D01*
X78907298Y-62952543D01*
X78915191Y-62985783D01*
X78919873Y-63009552D01*
X78921623Y-63025472D01*
X78920720Y-63035163D01*
X78917446Y-63040249D01*
X78913676Y-63041996D01*
X78907639Y-63050745D01*
X78903732Y-63071169D01*
X78902280Y-63100156D01*
X78903606Y-63134592D01*
X78903788Y-63136857D01*
X78903976Y-63158079D01*
X78901194Y-63172559D01*
X78899203Y-63175356D01*
X78895182Y-63185455D01*
X78896418Y-63197398D01*
X78897621Y-63219686D01*
X78893092Y-63250320D01*
X78883865Y-63284377D01*
X78871674Y-63315440D01*
X78848001Y-63353391D01*
X78818931Y-63379460D01*
X78786166Y-63392839D01*
X78751406Y-63392718D01*
X78726979Y-63384257D01*
X78707465Y-63372397D01*
X78694513Y-63360381D01*
X78692143Y-63355979D01*
X78682872Y-63342159D01*
X78675530Y-63337150D01*
X78662979Y-63326957D01*
X78659482Y-63320427D01*
X78649831Y-63307488D01*
X78629040Y-63292060D01*
X78600344Y-63275578D01*
X78566976Y-63259475D01*
X78532168Y-63245187D01*
X78499153Y-63234149D01*
X78471165Y-63227796D01*
X78451436Y-63227561D01*
X78450655Y-63227753D01*
X78436781Y-63228120D01*
X78419336Y-63225574D01*
X78399434Y-63222760D01*
X78372180Y-63220729D01*
X78355000Y-63220143D01*
X78321400Y-63219483D01*
X78285501Y-63218603D01*
X78271362Y-63218196D01*
X78236038Y-63220222D01*
X78193644Y-63227309D01*
X78149007Y-63238186D01*
X78106956Y-63251583D01*
X78072322Y-63266228D01*
X78058267Y-63274297D01*
X78037434Y-63287178D01*
X78019793Y-63296326D01*
X78014155Y-63298445D01*
X77999277Y-63305914D01*
X77983111Y-63318283D01*
X77965621Y-63331278D01*
X77950027Y-63338714D01*
X77933517Y-63346718D01*
X77916945Y-63359146D01*
X77900832Y-63371668D01*
X77887460Y-63378613D01*
X77873810Y-63385743D01*
X77857975Y-63398081D01*
X77842232Y-63410553D01*
X77829527Y-63417516D01*
X77816691Y-63425611D01*
X77807673Y-63434987D01*
X77792740Y-63448180D01*
X77781785Y-63453491D01*
X77765416Y-63462670D01*
X77755897Y-63471994D01*
X77741715Y-63484829D01*
X77731494Y-63489855D01*
X77710976Y-63502258D01*
X77694214Y-63525038D01*
X77684450Y-63553681D01*
X77684122Y-63555728D01*
X77680450Y-63597367D01*
X77680068Y-63646903D01*
X77682605Y-63701159D01*
X77687694Y-63756963D01*
X77694966Y-63811138D01*
X77704051Y-63860509D01*
X77714582Y-63901903D01*
X77726188Y-63932144D01*
X77728303Y-63936054D01*
X77737740Y-63956370D01*
X77748718Y-63985956D01*
X77759359Y-64019582D01*
X77762943Y-64032405D01*
X77772468Y-64064458D01*
X77782559Y-64092784D01*
X77791582Y-64112980D01*
X77794836Y-64118214D01*
X77802438Y-64132184D01*
X77813001Y-64156913D01*
X77825130Y-64188915D01*
X77837430Y-64224703D01*
X77837490Y-64224887D01*
X77850923Y-64263614D01*
X77865412Y-64301392D01*
X77879106Y-64333600D01*
X77889065Y-64353728D01*
X77914842Y-64401111D01*
X77943176Y-64455917D01*
X77970847Y-64511839D01*
X77984367Y-64540257D01*
X78006775Y-64585088D01*
X78030610Y-64627539D01*
X78053247Y-64663083D01*
X78064274Y-64678097D01*
X78077376Y-64698658D01*
X78085881Y-64718576D01*
X78095807Y-64739858D01*
X78106730Y-64754236D01*
X78120211Y-64772682D01*
X78127168Y-64788364D01*
X78136233Y-64807784D01*
X78148775Y-64824987D01*
X78162266Y-64843932D01*
X78170171Y-64861666D01*
X78179074Y-64881116D01*
X78191566Y-64898347D01*
X78204087Y-64914460D01*
X78211034Y-64927832D01*
X78218163Y-64941482D01*
X78230501Y-64957317D01*
X78242253Y-64975306D01*
X78253045Y-65000158D01*
X78256551Y-65011367D01*
X78264028Y-65033466D01*
X78272162Y-65049234D01*
X78276027Y-65053288D01*
X78282246Y-65063282D01*
X78289869Y-65085229D01*
X78298341Y-65116316D01*
X78307106Y-65153731D01*
X78315610Y-65194657D01*
X78323296Y-65236282D01*
X78329611Y-65275791D01*
X78333997Y-65310372D01*
X78335902Y-65337209D01*
X78335042Y-65352389D01*
X78331420Y-65370095D01*
X78326777Y-65393984D01*
X78325473Y-65400879D01*
X78311230Y-65445869D01*
X78287734Y-65481419D01*
X78269385Y-65497529D01*
X78254857Y-65508911D01*
X78251298Y-65518200D01*
X78257017Y-65531148D01*
X78258668Y-65533924D01*
X78267081Y-65550804D01*
X78278041Y-65576654D01*
X78289380Y-65606312D01*
X78290987Y-65610791D01*
X78303930Y-65645529D01*
X78314643Y-65668041D01*
X78325223Y-65680356D01*
X78337766Y-65684502D01*
X78354368Y-65682509D01*
X78362872Y-65680379D01*
X78382479Y-65676669D01*
X78394931Y-65677233D01*
X78396924Y-65678966D01*
X78404500Y-65683445D01*
X78411638Y-65682735D01*
X78425807Y-65683885D01*
X78446090Y-65690862D01*
X78453841Y-65694561D01*
X78472942Y-65703493D01*
X78486498Y-65708070D01*
X78489236Y-65708211D01*
X78498234Y-65711925D01*
X78502251Y-65716291D01*
X78514532Y-65721711D01*
X78532954Y-65719877D01*
X78554978Y-65717582D01*
X78573422Y-65720601D01*
X78593043Y-65724438D01*
X78605309Y-65723378D01*
X78630534Y-65722452D01*
X78662941Y-65729686D01*
X78698118Y-65743893D01*
X78714487Y-65752721D01*
X78736285Y-65764379D01*
X78764820Y-65778018D01*
X78796912Y-65792315D01*
X78829378Y-65805949D01*
X78859038Y-65817598D01*
X78882712Y-65825940D01*
X78897219Y-65829653D01*
X78899522Y-65829619D01*
X78907992Y-65831881D01*
X78908693Y-65833365D01*
X78915881Y-65838406D01*
X78933865Y-65847105D01*
X78959457Y-65857983D01*
X78974502Y-65863927D01*
X79008836Y-65878263D01*
X79030558Y-65890191D01*
X79041533Y-65900820D01*
X79043299Y-65904837D01*
X79047839Y-65920972D01*
X71723732Y-67883461D01*
X71713622Y-67864963D01*
X71700894Y-67846474D01*
X71689992Y-67834878D01*
X71677366Y-67819266D01*
X71672464Y-67808342D01*
X71665408Y-67793648D01*
X71660102Y-67788309D01*
X71650859Y-67778875D01*
X71639233Y-67762474D01*
X71637704Y-67759994D01*
X71625131Y-67740623D01*
X71608165Y-67716221D01*
X71597381Y-67701396D01*
X71581357Y-67678936D01*
X71568052Y-67658731D01*
X71562435Y-67649068D01*
X71553012Y-67633802D01*
X71546445Y-67626363D01*
X71538371Y-67616187D01*
X71528390Y-67598979D01*
X71527287Y-67596794D01*
X71515285Y-67574750D01*
X71500444Y-67550125D01*
X71497058Y-67544861D01*
X71484327Y-67520843D01*
X71472412Y-67491012D01*
X71467546Y-67475269D01*
X71459825Y-67451641D01*
X71451541Y-67434123D01*
X71446384Y-67427989D01*
X71439079Y-67417804D01*
X71429565Y-67396085D01*
X71418743Y-67365863D01*
X71407517Y-67330173D01*
X71396790Y-67292048D01*
X71387465Y-67254522D01*
X71380444Y-67220628D01*
X71376661Y-67193747D01*
X71372899Y-67159442D01*
X71367260Y-67118966D01*
X71360923Y-67080725D01*
X71360520Y-67078544D01*
X71355583Y-67048521D01*
X71352614Y-67023213D01*
X71352071Y-67006861D01*
X71352496Y-67004175D01*
X71354546Y-66988887D01*
X71354752Y-66967471D01*
X71354638Y-66965043D01*
X71354376Y-66936743D01*
X71355888Y-66904314D01*
X71358732Y-66874110D01*
X71362444Y-66852573D01*
X71364566Y-66836305D01*
X71363915Y-66829497D01*
X71364402Y-66818769D01*
X71367650Y-66795506D01*
X71373297Y-66761747D01*
X71380985Y-66719525D01*
X71390351Y-66670873D01*
X71401036Y-66617827D01*
X71403843Y-66604249D01*
X71413962Y-66555200D01*
X71421670Y-66516643D01*
X71427697Y-66484509D01*
X71432771Y-66454728D01*
X71437622Y-66423232D01*
X71442979Y-66385950D01*
X71443037Y-66385538D01*
X71447105Y-66359573D01*
X71451522Y-66335271D01*
X71451699Y-66334396D01*
X71454111Y-66314135D01*
X71453236Y-66299283D01*
X71452481Y-66283454D01*
X71454961Y-66265263D01*
X71458288Y-66240628D01*
X71458796Y-66219983D01*
X71459673Y-66201821D01*
X71463272Y-66190824D01*
X71463276Y-66190818D01*
X71466171Y-66179531D01*
X71464980Y-66170612D01*
X71463788Y-66153136D01*
X71466251Y-66132945D01*
X71468553Y-66120818D01*
X71467541Y-66112357D01*
X71460834Y-66106025D01*
X71446055Y-66100285D01*
X71420825Y-66093600D01*
X71396099Y-66087639D01*
X71367688Y-66081312D01*
X71349628Y-66079110D01*
X71337929Y-66081101D01*
X71328611Y-66087351D01*
X71327010Y-66088811D01*
X71311544Y-66101906D01*
X71290695Y-66118007D01*
X71282782Y-66123790D01*
X71260543Y-66140077D01*
X71239954Y-66155687D01*
X71234617Y-66159882D01*
X71218197Y-66172824D01*
X71205906Y-66182238D01*
X71191629Y-66194036D01*
X71187065Y-66198260D01*
X71176009Y-66208624D01*
X71159338Y-66223931D01*
X71153060Y-66229639D01*
X71139116Y-66244822D01*
X71129006Y-66263326D01*
X71120753Y-66289509D01*
X71115520Y-66312368D01*
X71110035Y-66342386D01*
X71106830Y-66368295D01*
X71106435Y-66385490D01*
X71106847Y-66387922D01*
X71106473Y-66405934D01*
X71102503Y-66415093D01*
X71096583Y-66429517D01*
X71096629Y-66436338D01*
X71095617Y-66450604D01*
X71092782Y-66457958D01*
X71080174Y-66490390D01*
X71073283Y-66521243D01*
X71068580Y-66535820D01*
X71063248Y-66541283D01*
X71058061Y-66548826D01*
X71058477Y-66552971D01*
X71057531Y-66565297D01*
X71052158Y-66585413D01*
X71048388Y-66596160D01*
X71040297Y-66618700D01*
X71034566Y-66636851D01*
X71033333Y-66641836D01*
X71025474Y-66673536D01*
X71014249Y-66708193D01*
X71001850Y-66739572D01*
X70992342Y-66758484D01*
X70984208Y-66773854D01*
X70981340Y-66783091D01*
X70981372Y-66783238D01*
X70978977Y-66793516D01*
X70970645Y-66812803D01*
X70958321Y-66837465D01*
X70943950Y-66863868D01*
X70929478Y-66888381D01*
X70916851Y-66907370D01*
X70911088Y-66914477D01*
X70900897Y-66924082D01*
X70889024Y-66931657D01*
X70872359Y-66938427D01*
X70847790Y-66945621D01*
X70812205Y-66954467D01*
X70805923Y-66955965D01*
X70769390Y-66964495D01*
X70743693Y-66969653D01*
X70725187Y-66971572D01*
X70710230Y-66970387D01*
X70695180Y-66966230D01*
X70679952Y-66960599D01*
X70657797Y-66951304D01*
X70642347Y-66943268D01*
X70637583Y-66939178D01*
X70630562Y-66934997D01*
X70628893Y-66935279D01*
X70616162Y-66933275D01*
X70592942Y-66924384D01*
X70561291Y-66909757D01*
X70523264Y-66890548D01*
X70480916Y-66867906D01*
X70436301Y-66842985D01*
X70391477Y-66816935D01*
X70348497Y-66790908D01*
X70309418Y-66766055D01*
X70276295Y-66743531D01*
X70251181Y-66724484D01*
X70248180Y-66721952D01*
X70225505Y-66702985D01*
X70204707Y-66686451D01*
X70191860Y-66677030D01*
X70172290Y-66660443D01*
X70146773Y-66633455D01*
X70117208Y-66598327D01*
X70085496Y-66557320D01*
X70053537Y-66512696D01*
X70052603Y-66511338D01*
X70041114Y-66493490D01*
X70030394Y-66473979D01*
X70019848Y-66451130D01*
X70008884Y-66423265D01*
X69996906Y-66388708D01*
X69983321Y-66345783D01*
X69967535Y-66292813D01*
X69948953Y-66228121D01*
X69936034Y-66182340D01*
X69920979Y-66128739D01*
X69889034Y-66015003D01*
X69920685Y-66015003D01*
X69923170Y-66045561D01*
X69930912Y-66084232D01*
X69940888Y-66123404D01*
X69952628Y-66165521D01*
X69963888Y-66201180D01*
X69976370Y-66234822D01*
X69991776Y-66270890D01*
X70011809Y-66313823D01*
X70021793Y-66334519D01*
X70035362Y-66362768D01*
X70048962Y-66391518D01*
X70054278Y-66402929D01*
X70070719Y-66433455D01*
X70093677Y-66469349D01*
X70120799Y-66507559D01*
X70149735Y-66545037D01*
X70178131Y-66578734D01*
X70203637Y-66605599D01*
X70223462Y-66622294D01*
X70238503Y-66633410D01*
X70259781Y-66650436D01*
X70279782Y-66667216D01*
X70303490Y-66685630D01*
X70335523Y-66707699D01*
X70373825Y-66732269D01*
X70416342Y-66758191D01*
X70461018Y-66784313D01*
X70505797Y-66809481D01*
X70548625Y-66832546D01*
X70587445Y-66852354D01*
X70620204Y-66867755D01*
X70644844Y-66877598D01*
X70659311Y-66880729D01*
X70660496Y-66880543D01*
X70668642Y-66883167D01*
X70669185Y-66884442D01*
X70676467Y-66889967D01*
X70693710Y-66898283D01*
X70711429Y-66905393D01*
X70753418Y-66915070D01*
X70794378Y-66913746D01*
X70830662Y-66901980D01*
X70856036Y-66883209D01*
X70866776Y-66869048D01*
X70880483Y-66847260D01*
X70895212Y-66821473D01*
X70909016Y-66795314D01*
X70919949Y-66772407D01*
X70926067Y-66756378D01*
X70926635Y-66751636D01*
X70929249Y-66742754D01*
X70937232Y-66727506D01*
X70937606Y-66726882D01*
X70949332Y-66702844D01*
X70961682Y-66670416D01*
X70972464Y-66635830D01*
X70978597Y-66610234D01*
X70982569Y-66596176D01*
X70989866Y-66574796D01*
X70993651Y-66564558D01*
X71000667Y-66542801D01*
X71003924Y-66525973D01*
X71003741Y-66521369D01*
X71005726Y-66511343D01*
X71008512Y-66509681D01*
X71015131Y-66501648D01*
X71018547Y-66489641D01*
X71027148Y-66453236D01*
X71038046Y-66426356D01*
X71042295Y-66411060D01*
X71041892Y-66404736D01*
X71043692Y-66391239D01*
X71047767Y-66383491D01*
X71052938Y-66366819D01*
X71052110Y-66356320D01*
X71051706Y-66342076D01*
X71054246Y-66317948D01*
X71059201Y-66288539D01*
X71060783Y-66280766D01*
X71070767Y-66242726D01*
X71083737Y-66214925D01*
X71102560Y-66192710D01*
X71126549Y-66173867D01*
X71140636Y-66162306D01*
X71145362Y-66157740D01*
X71161597Y-66143111D01*
X71186928Y-66122788D01*
X71218075Y-66099375D01*
X71228037Y-66092156D01*
X71249518Y-66076007D01*
X71268584Y-66060510D01*
X71273550Y-66056116D01*
X71290105Y-66045578D01*
X71314540Y-66035141D01*
X71330452Y-66030133D01*
X71356519Y-66024799D01*
X71381187Y-66024378D01*
X71410778Y-66029029D01*
X71426306Y-66032560D01*
X71460434Y-66040846D01*
X71483013Y-66047648D01*
X71496901Y-66055270D01*
X71504956Y-66066018D01*
X71510036Y-66082198D01*
X71514505Y-66103695D01*
X71519569Y-66133212D01*
X71521445Y-66159925D01*
X71520152Y-66189407D01*
X71515715Y-66227231D01*
X71514988Y-66232475D01*
X71513088Y-66251658D01*
X71513233Y-66264272D01*
X71513353Y-66264804D01*
X71513180Y-66276501D01*
X71510132Y-66294894D01*
X71510025Y-66295376D01*
X71507256Y-66315684D01*
X71507972Y-66330885D01*
X71508810Y-66346580D01*
X71506435Y-66365998D01*
X71502054Y-66389921D01*
X71497923Y-66416086D01*
X71497773Y-66417140D01*
X71492407Y-66454501D01*
X71487555Y-66486035D01*
X71482487Y-66515812D01*
X71476474Y-66547903D01*
X71468785Y-66586377D01*
X71458694Y-66635302D01*
X71458580Y-66635852D01*
X71447624Y-66689671D01*
X71437898Y-66739601D01*
X71429761Y-66783604D01*
X71423575Y-66819648D01*
X71419699Y-66845699D01*
X71418495Y-66859721D01*
X71418651Y-66861099D01*
X71418837Y-66875205D01*
X71417181Y-66884176D01*
X71413448Y-66905875D01*
X71410610Y-66936111D01*
X71409108Y-66968534D01*
X71409375Y-66996645D01*
X71409408Y-67018206D01*
X71407542Y-67034626D01*
X71407232Y-67035777D01*
X71406889Y-67048283D01*
X71409129Y-67071130D01*
X71413493Y-67100076D01*
X71415299Y-67110134D01*
X71421529Y-67147141D01*
X71427006Y-67186168D01*
X71430627Y-67219268D01*
X71430821Y-67221648D01*
X71434727Y-67249703D01*
X71441762Y-67281413D01*
X71450795Y-67313244D01*
X71460696Y-67341662D01*
X71470332Y-67363136D01*
X71478574Y-67374128D01*
X71479815Y-67374719D01*
X71485715Y-67382620D01*
X71493128Y-67400726D01*
X71498876Y-67419518D01*
X71508730Y-67448940D01*
X71521371Y-67477337D01*
X71528660Y-67490124D01*
X71543340Y-67513920D01*
X71556545Y-67537477D01*
X71558889Y-67542058D01*
X71568815Y-67559665D01*
X71577334Y-67571007D01*
X71578047Y-67571626D01*
X71586928Y-67582350D01*
X71594037Y-67594331D01*
X71603272Y-67609694D01*
X71617826Y-67631205D01*
X71628983Y-67646660D01*
X71646319Y-67670754D01*
X71662191Y-67694072D01*
X71669306Y-67705258D01*
X71680884Y-67722144D01*
X71690744Y-67732907D01*
X71691704Y-67733573D01*
X71700663Y-67744600D01*
X71703717Y-67752298D01*
X71711320Y-67767858D01*
X71722188Y-67782436D01*
X71737079Y-67799255D01*
X71754489Y-67819226D01*
X71757252Y-67822426D01*
X71777500Y-67845919D01*
X78951997Y-65923030D01*
X78926198Y-65912836D01*
X78904061Y-65903299D01*
X78885325Y-65893981D01*
X78884373Y-65893442D01*
X78870679Y-65886792D01*
X78864323Y-65885319D01*
X78854983Y-65883208D01*
X78835340Y-65876102D01*
X78808562Y-65865363D01*
X78777818Y-65852349D01*
X78746280Y-65838423D01*
X78717116Y-65824944D01*
X78693496Y-65813273D01*
X78682885Y-65807457D01*
X78647939Y-65790359D01*
X78613668Y-65779673D01*
X78584488Y-65776583D01*
X78573707Y-65778115D01*
X78554762Y-65778592D01*
X78541820Y-65775337D01*
X78522631Y-65772305D01*
X78501352Y-65774613D01*
X78481588Y-65776291D01*
X78470649Y-65771028D01*
X78461281Y-65763340D01*
X78457634Y-65762948D01*
X78447916Y-65760765D01*
X78430465Y-65753386D01*
X78422238Y-65749298D01*
X78401378Y-65740632D01*
X78384162Y-65737101D01*
X78380036Y-65737472D01*
X78368348Y-65737015D01*
X78365322Y-65733702D01*
X78357741Y-65731120D01*
X78340802Y-65732903D01*
X78331270Y-65735116D01*
X78312474Y-65739040D01*
X78298556Y-65737717D01*
X78287443Y-65729121D01*
X78277061Y-65711228D01*
X78265335Y-65682018D01*
X78259092Y-65664712D01*
X78246503Y-65632415D01*
X78232414Y-65601000D01*
X78219701Y-65576844D01*
X78218742Y-65575275D01*
X78203084Y-65546414D01*
X78192380Y-65519325D01*
X78187433Y-65497049D01*
X78189043Y-65482622D01*
X78193362Y-65479033D01*
X78218047Y-65465463D01*
X78240728Y-65440317D01*
X78259085Y-65406911D01*
X78270798Y-65368563D01*
X78270861Y-65368231D01*
X78275495Y-65344366D01*
X78279578Y-65324207D01*
X78280304Y-65320787D01*
X78281238Y-65309119D01*
X78280247Y-65289938D01*
X78277138Y-65261579D01*
X78271722Y-65222377D01*
X78263805Y-65170667D01*
X78261091Y-65153572D01*
X78255069Y-65126943D01*
X78247618Y-65110847D01*
X78244749Y-65108212D01*
X78237112Y-65098075D01*
X78228845Y-65078717D01*
X78224949Y-65066104D01*
X78215786Y-65040699D01*
X78203999Y-65018701D01*
X78198899Y-65012053D01*
X78186378Y-64995941D01*
X78179431Y-64982568D01*
X78172302Y-64968918D01*
X78159963Y-64953083D01*
X78146472Y-64934138D01*
X78138568Y-64916403D01*
X78129665Y-64896955D01*
X78117172Y-64879724D01*
X78103606Y-64860783D01*
X78095566Y-64843100D01*
X78086061Y-64823163D01*
X78075128Y-64808973D01*
X78061402Y-64789801D01*
X78054279Y-64773312D01*
X78045347Y-64752594D01*
X78032672Y-64732833D01*
X78011821Y-64703040D01*
X77988323Y-64663842D01*
X77964802Y-64619765D01*
X77952765Y-64594994D01*
X77926791Y-64541089D01*
X77898415Y-64484898D01*
X77870858Y-64432726D01*
X77857463Y-64408465D01*
X77846049Y-64385007D01*
X77832275Y-64351879D01*
X77817976Y-64313705D01*
X77806374Y-64279493D01*
X77794708Y-64244761D01*
X77783665Y-64214884D01*
X77774453Y-64192942D01*
X77768281Y-64182015D01*
X77768058Y-64181799D01*
X77764631Y-64177509D01*
X77760340Y-64169431D01*
X77754693Y-64156194D01*
X77747194Y-64136423D01*
X77737351Y-64108746D01*
X77724670Y-64071792D01*
X77708659Y-64024188D01*
X77688821Y-63964562D01*
X77675745Y-63925066D01*
X77656962Y-63858697D01*
X77642042Y-63786587D01*
X77631440Y-63712672D01*
X77625613Y-63640895D01*
X77625017Y-63575195D01*
X77629386Y-63524126D01*
X77638554Y-63495249D01*
X77654944Y-63471928D01*
X77675309Y-63458676D01*
X77676757Y-63458253D01*
X77691790Y-63449706D01*
X77701161Y-63440392D01*
X77716094Y-63427199D01*
X77727049Y-63421889D01*
X77743418Y-63412709D01*
X77752937Y-63403385D01*
X77765940Y-63390823D01*
X77774791Y-63385914D01*
X77787644Y-63378849D01*
X77803239Y-63366479D01*
X77819351Y-63353958D01*
X77832724Y-63347011D01*
X77846374Y-63339882D01*
X77862209Y-63327544D01*
X77878823Y-63314865D01*
X77893036Y-63307764D01*
X77908438Y-63300718D01*
X77924123Y-63290370D01*
X77970521Y-63260164D01*
X78027454Y-63231849D01*
X78090879Y-63206766D01*
X78156753Y-63186261D01*
X78221034Y-63171675D01*
X78279677Y-63164350D01*
X78305206Y-63163820D01*
X78336587Y-63164490D01*
X78371680Y-63165154D01*
X78386602Y-63165407D01*
X78414629Y-63166638D01*
X78439954Y-63169046D01*
X78450938Y-63170838D01*
X78469820Y-63173483D01*
X78482257Y-63173017D01*
X78501439Y-63172874D01*
X78529056Y-63178929D01*
X78561878Y-63189747D01*
X78596672Y-63203893D01*
X78630203Y-63219933D01*
X78659239Y-63236432D01*
X78680549Y-63251955D01*
X78690898Y-63265068D01*
X78691084Y-63265690D01*
X78699752Y-63277609D01*
X78707132Y-63282414D01*
X78719941Y-63293411D01*
X78723584Y-63300642D01*
X78731833Y-63311812D01*
X78748246Y-63324373D01*
X78753258Y-63327309D01*
X78771023Y-63335876D01*
X78781655Y-63336320D01*
X78790417Y-63328783D01*
X78790787Y-63328336D01*
X78807675Y-63302271D01*
X78822752Y-63269112D01*
X78834595Y-63233404D01*
X78841782Y-63199694D01*
X78842888Y-63172528D01*
X78841681Y-63165796D01*
X78840843Y-63150716D01*
X78844466Y-63143754D01*
X78848343Y-63134005D01*
X78849543Y-63115062D01*
X78849052Y-63105254D01*
X78847542Y-63070580D01*
X78848830Y-63041161D01*
X78852593Y-63020110D01*
X78858505Y-63010540D01*
X78858939Y-63010394D01*
X78864350Y-63007096D01*
X78867022Y-62999574D01*
X78866694Y-62986007D01*
X78863100Y-62964579D01*
X78855980Y-62933468D01*
X78845067Y-62890854D01*
X78837589Y-62862730D01*
X78824654Y-62815542D01*
X78814386Y-62780903D01*
X78806090Y-62756846D01*
X78799069Y-62741410D01*
X78792629Y-62732625D01*
X78791035Y-62731244D01*
X78780246Y-62717059D01*
X78770030Y-62694153D01*
X78766616Y-62683278D01*
X78756461Y-62655817D01*
X78744938Y-62641271D01*
X78743309Y-62640382D01*
X78732175Y-62628774D01*
X78723020Y-62607700D01*
X78722311Y-62605186D01*
X78711526Y-62580759D01*
X78695902Y-62564021D01*
X78678639Y-62558045D01*
X78673963Y-62558714D01*
X78658344Y-62556670D01*
X78640548Y-62546698D01*
X78627080Y-62532975D01*
X78624176Y-62526730D01*
X78614690Y-62512234D01*
X78607364Y-62507157D01*
X78595119Y-62497919D01*
X78591805Y-62492260D01*
X78585060Y-62482524D01*
X78570662Y-62467916D01*
X78562032Y-62460290D01*
X78535773Y-62437838D01*
X78519152Y-62422833D01*
X78518108Y-62421890D01*
X78506014Y-62409623D01*
X78498888Y-62401272D01*
X78496982Y-62399588D01*
X78590664Y-62399588D01*
X78591166Y-62403537D01*
X78595385Y-62408754D01*
X78597247Y-62407049D01*
X78595821Y-62398279D01*
X78594677Y-62397455D01*
X78590664Y-62399588D01*
X78496982Y-62399588D01*
X78484818Y-62388844D01*
X78460270Y-62372336D01*
X78427619Y-62352923D01*
X78389238Y-62331780D01*
X78347498Y-62310082D01*
X78304771Y-62289004D01*
X78263430Y-62269722D01*
X78225847Y-62253409D01*
X78194395Y-62241243D01*
X78171446Y-62234396D01*
X78160438Y-62233627D01*
X78152090Y-62231585D01*
X78151447Y-62230239D01*
X78143954Y-62225868D01*
X78126276Y-62220457D01*
X78111283Y-62217047D01*
X78084257Y-62211512D01*
X78059659Y-62206306D01*
X78050785Y-62204354D01*
X78029490Y-62202071D01*
X78013668Y-62203550D01*
X77995368Y-62204279D01*
X77976946Y-62200612D01*
X77960800Y-62199823D01*
X77933665Y-62203264D01*
X77898568Y-62210111D01*
X77858534Y-62219544D01*
X77816592Y-62230741D01*
X77775766Y-62242880D01*
X77739084Y-62255140D01*
X77709572Y-62266699D01*
X77690256Y-62276736D01*
X77686870Y-62279357D01*
X77668738Y-62292622D01*
X77651849Y-62300499D01*
X77633320Y-62309902D01*
X77623542Y-62318593D01*
X77608036Y-62331928D01*
X77591400Y-62341747D01*
X77564697Y-62356442D01*
X77533323Y-62378322D01*
X77494793Y-62409146D01*
X77487575Y-62415212D01*
X77455983Y-62438168D01*
X77426059Y-62453167D01*
X77418782Y-62455488D01*
X77387815Y-62463785D01*
X77376425Y-62414784D01*
X77366350Y-62380972D01*
X77351985Y-62343852D01*
X77340017Y-62318508D01*
X77312306Y-62269783D01*
X77277215Y-62213637D01*
X77237301Y-62153752D01*
X77195118Y-62093808D01*
X77153221Y-62037487D01*
X77114165Y-61988469D01*
X77097210Y-61968653D01*
X77078197Y-61945300D01*
X77063152Y-61923521D01*
X77055094Y-61907724D01*
X77054816Y-61906754D01*
X77053686Y-61882069D01*
X77062287Y-61862568D01*
X77076732Y-61853109D01*
X77091871Y-61843621D01*
X77097311Y-61836028D01*
X77109057Y-61823473D01*
X77119602Y-61818488D01*
X77135344Y-61809413D01*
X77141892Y-61800948D01*
X77153515Y-61788658D01*
X77165289Y-61783112D01*
X77179187Y-61775108D01*
X77183870Y-61766566D01*
X77191253Y-61755643D01*
X77202563Y-61749990D01*
X77216513Y-61741998D01*
X77221256Y-61733414D01*
X77228856Y-61722747D01*
X77243321Y-61715935D01*
X77257574Y-61709850D01*
X77262244Y-61703299D01*
X77266627Y-61695054D01*
X77278851Y-61686132D01*
X77297340Y-61673404D01*
X77308936Y-61662501D01*
X77323022Y-61650382D01*
X77332432Y-61645789D01*
X77345477Y-61636764D01*
X77350404Y-61629406D01*
X77362138Y-61616878D01*
X77372806Y-61611836D01*
X77386234Y-61603712D01*
X77390392Y-61595557D01*
X77397775Y-61584612D01*
X77408974Y-61579011D01*
X77425107Y-61570142D01*
X77432371Y-61561175D01*
X77444018Y-61548831D01*
X77455542Y-61543399D01*
X77468003Y-61537515D01*
X77470873Y-61532192D01*
X77475469Y-61524532D01*
X77489019Y-61515250D01*
X77489413Y-61515044D01*
X77503173Y-61506006D01*
X77508190Y-61498799D01*
X77508162Y-61498677D01*
X77512650Y-61491107D01*
X77522955Y-61483733D01*
X77536895Y-61474405D01*
X77557594Y-61458771D01*
X77580116Y-61440590D01*
X77601376Y-61423441D01*
X77618697Y-61410533D01*
X77628499Y-61404528D01*
X77628751Y-61404450D01*
X77634874Y-61397337D01*
X77634653Y-61395157D01*
X77638521Y-61386782D01*
X77641653Y-61385309D01*
X77652468Y-61379082D01*
X77668992Y-61366608D01*
X77675636Y-61361041D01*
X77692935Y-61347192D01*
X77706534Y-61338156D01*
X77709619Y-61336775D01*
X77716702Y-61329743D01*
X77716619Y-61326926D01*
X77720812Y-61319080D01*
X77726172Y-61316654D01*
X77739716Y-61309454D01*
X77753938Y-61297965D01*
X77772267Y-61281486D01*
X77793701Y-61263760D01*
X77814429Y-61247758D01*
X77830639Y-61236449D01*
X77837504Y-61232844D01*
X77843403Y-61225647D01*
X77843166Y-61223615D01*
X77847583Y-61216090D01*
X77855114Y-61212702D01*
X77870299Y-61203389D01*
X77876890Y-61195300D01*
X77889866Y-61182146D01*
X77898814Y-61177858D01*
X77913778Y-61168226D01*
X77918901Y-61160908D01*
X77929063Y-61148367D01*
X77935566Y-61144876D01*
X77948607Y-61138018D01*
X77962639Y-61127127D01*
X77986919Y-61105707D01*
X78013628Y-61083007D01*
X78039441Y-61061761D01*
X78061031Y-61044703D01*
X78075072Y-61034567D01*
X78075789Y-61034127D01*
X78086727Y-61024655D01*
X78088934Y-61018436D01*
X78093756Y-61011762D01*
X78105350Y-61006845D01*
X78119651Y-60998929D01*
X78124812Y-60990063D01*
X78132194Y-60978924D01*
X78142398Y-60973784D01*
X78158180Y-60964732D01*
X78164799Y-60956215D01*
X78176504Y-60943749D01*
X78187457Y-60938576D01*
X78204290Y-60929197D01*
X78211949Y-60920446D01*
X78222707Y-60908020D01*
X78229556Y-60904162D01*
X78241834Y-60896764D01*
X78250848Y-60888039D01*
X78266532Y-60873926D01*
X78280934Y-60864408D01*
X78293719Y-60854906D01*
X78297541Y-60847241D01*
X78302290Y-60840308D01*
X78313862Y-60835303D01*
X78328165Y-60827387D01*
X78333325Y-60818521D01*
X78340706Y-60807382D01*
X78350911Y-60802242D01*
X78366692Y-60793189D01*
X78373313Y-60784672D01*
X78385059Y-60772117D01*
X78395603Y-60767132D01*
X78411345Y-60758057D01*
X78417893Y-60749593D01*
X78429342Y-60736640D01*
X78436953Y-60732918D01*
X78451343Y-60723859D01*
X78457848Y-60715752D01*
X78470823Y-60702598D01*
X78479771Y-60698311D01*
X78494736Y-60688678D01*
X78499859Y-60681361D01*
X78511482Y-60669070D01*
X78523257Y-60663525D01*
X78537154Y-60655520D01*
X78541837Y-60646979D01*
X78549220Y-60635839D01*
X78559424Y-60630699D01*
X78575206Y-60621646D01*
X78581825Y-60613130D01*
X78593571Y-60600575D01*
X78604116Y-60595590D01*
X78619859Y-60586514D01*
X78626406Y-60578050D01*
X78637856Y-60565098D01*
X78645466Y-60561376D01*
X78659857Y-60552317D01*
X78666361Y-60544210D01*
X78679928Y-60530864D01*
X78689391Y-60526472D01*
X78702229Y-60518167D01*
X78705770Y-60510515D01*
X78713236Y-60499923D01*
X78727065Y-60493242D01*
X78742361Y-60485371D01*
X78748359Y-60475969D01*
X78755741Y-60465230D01*
X78768048Y-60459127D01*
X78782452Y-60451230D01*
X78787736Y-60442284D01*
X78795118Y-60431145D01*
X78805322Y-60426005D01*
X78821104Y-60416953D01*
X78827724Y-60408435D01*
X78839470Y-60395880D01*
X78850014Y-60390895D01*
X78865757Y-60381820D01*
X78872304Y-60373355D01*
X78883927Y-60361065D01*
X78895702Y-60355519D01*
X78909599Y-60347515D01*
X78914283Y-60338973D01*
X78921665Y-60328050D01*
X78932976Y-60322397D01*
X78946925Y-60314405D01*
X78951669Y-60305821D01*
X78959134Y-60295229D01*
X78972963Y-60288548D01*
X78988260Y-60280677D01*
X78994258Y-60271275D01*
X79001640Y-60260331D01*
X79012840Y-60254729D01*
X79028973Y-60245860D01*
X79036237Y-60236893D01*
X79047982Y-60224338D01*
X79058527Y-60219353D01*
X79074270Y-60210278D01*
X79080817Y-60201813D01*
X79092550Y-60189286D01*
X79103218Y-60184244D01*
X79116646Y-60176119D01*
X79120805Y-60167964D01*
X79128186Y-60157224D01*
X79140493Y-60151122D01*
X79154897Y-60143226D01*
X79160181Y-60134279D01*
X79167782Y-60123611D01*
X79182246Y-60116800D01*
X79196499Y-60110714D01*
X79201170Y-60104164D01*
X79205553Y-60095919D01*
X79217777Y-60086997D01*
X79236265Y-60074269D01*
X79247862Y-60063366D01*
X79261948Y-60051247D01*
X79271358Y-60046654D01*
X79284402Y-60037628D01*
X79289330Y-60030271D01*
X79300580Y-60017382D01*
X79308023Y-60013695D01*
X79321720Y-60004462D01*
X79326715Y-59997119D01*
X79338363Y-59984776D01*
X79349887Y-59979343D01*
X79362304Y-59973305D01*
X79365103Y-59967701D01*
X79369444Y-59959370D01*
X79381219Y-59950625D01*
X79401072Y-59937450D01*
X79415112Y-59926021D01*
X79429736Y-59914479D01*
X79439978Y-59908982D01*
X79447108Y-59902152D01*
X79447031Y-59899333D01*
X79450757Y-59890971D01*
X79453010Y-59890019D01*
X79463791Y-59884153D01*
X79479398Y-59872723D01*
X79480835Y-59871554D01*
X79515696Y-59843185D01*
X79540659Y-59823473D01*
X79557122Y-59811353D01*
X79566480Y-59805764D01*
X79567917Y-59805251D01*
X79573815Y-59798054D01*
X79573578Y-59796022D01*
X79577996Y-59788497D01*
X79585526Y-59785109D01*
X79600711Y-59775796D01*
X79607303Y-59767707D01*
X79617417Y-59755494D01*
X79623600Y-59751773D01*
X79634898Y-59745472D01*
X79648496Y-59734706D01*
X79666076Y-59719618D01*
X79686195Y-59703252D01*
X79687294Y-59702386D01*
X79704636Y-59688397D01*
X79727995Y-59669073D01*
X79750425Y-59650199D01*
X79773018Y-59631515D01*
X79793044Y-59615837D01*
X79806176Y-59606548D01*
X79806201Y-59606534D01*
X79817139Y-59597063D01*
X79819347Y-59590843D01*
X79824168Y-59584168D01*
X79835762Y-59579253D01*
X79850064Y-59571336D01*
X79855225Y-59562471D01*
X79862606Y-59551422D01*
X79873267Y-59546069D01*
X79887420Y-59539393D01*
X79892510Y-59533411D01*
X79900043Y-59524790D01*
X79915801Y-59513335D01*
X79921382Y-59509954D01*
X79937448Y-59498897D01*
X79945661Y-59489753D01*
X79945949Y-59487739D01*
X79950357Y-59480335D01*
X79957111Y-59477335D01*
X79971921Y-59468858D01*
X79981260Y-59459542D01*
X79994694Y-59446855D01*
X80004045Y-59441870D01*
X80016879Y-59432683D01*
X80021759Y-59425311D01*
X80033381Y-59413020D01*
X80045155Y-59407475D01*
X80059053Y-59399470D01*
X80063737Y-59390928D01*
X80071120Y-59379789D01*
X80081324Y-59374649D01*
X80097106Y-59365596D01*
X80103725Y-59357079D01*
X80115471Y-59344525D01*
X80126016Y-59339540D01*
X80141758Y-59330464D01*
X80148306Y-59322000D01*
X80159755Y-59309047D01*
X80167366Y-59305326D01*
X80181756Y-59296266D01*
X80188261Y-59288160D01*
X80201828Y-59274813D01*
X80211290Y-59270422D01*
X80224128Y-59262117D01*
X80227670Y-59254466D01*
X80235307Y-59243778D01*
X80249960Y-59236926D01*
X80266077Y-59228922D01*
X80272251Y-59219386D01*
X80279632Y-59208246D01*
X80289836Y-59203107D01*
X80305618Y-59194054D01*
X80312238Y-59185537D01*
X80323983Y-59172982D01*
X80334528Y-59167997D01*
X80350271Y-59158922D01*
X80356818Y-59150458D01*
X80368268Y-59137505D01*
X80375878Y-59133782D01*
X80390269Y-59124724D01*
X80396774Y-59116616D01*
X80410340Y-59103271D01*
X80419804Y-59098878D01*
X80432641Y-59090574D01*
X80436183Y-59082922D01*
X80443565Y-59071783D01*
X80453769Y-59066643D01*
X80469551Y-59057591D01*
X80476170Y-59049074D01*
X80487793Y-59036784D01*
X80499567Y-59031237D01*
X80513465Y-59023233D01*
X80518148Y-59014691D01*
X80525531Y-59003625D01*
X80536102Y-58998313D01*
X80552968Y-58988958D01*
X80560706Y-58980154D01*
X80573681Y-58967000D01*
X80582629Y-58962712D01*
X80597594Y-58953080D01*
X80602717Y-58945763D01*
X80614339Y-58933473D01*
X80626114Y-58927926D01*
X80640012Y-58919922D01*
X80644696Y-58911380D01*
X80652078Y-58900457D01*
X80663388Y-58894804D01*
X80677337Y-58886813D01*
X80682081Y-58878228D01*
X80689547Y-58867636D01*
X80703376Y-58860955D01*
X80718672Y-58853084D01*
X80724670Y-58843682D01*
X80732053Y-58832738D01*
X80743252Y-58827136D01*
X80759385Y-58818268D01*
X80766650Y-58809300D01*
X80778395Y-58796745D01*
X80788940Y-58791760D01*
X80804682Y-58782685D01*
X80811230Y-58774220D01*
X80822963Y-58761693D01*
X80833631Y-58756651D01*
X80847059Y-58748526D01*
X80851217Y-58740371D01*
X80858599Y-58729631D01*
X80870906Y-58723529D01*
X80885310Y-58715633D01*
X80890595Y-58706686D01*
X80897976Y-58695547D01*
X80908180Y-58690407D01*
X80923962Y-58681354D01*
X80930581Y-58672837D01*
X80942327Y-58660282D01*
X80952872Y-58655297D01*
X80968615Y-58646222D01*
X80975162Y-58637758D01*
X80986908Y-58625203D01*
X80997452Y-58620218D01*
X81013195Y-58611142D01*
X81019743Y-58602678D01*
X81030992Y-58589788D01*
X81038436Y-58586102D01*
X81052132Y-58576870D01*
X81057129Y-58569526D01*
X81068776Y-58557183D01*
X81080299Y-58551750D01*
X81092717Y-58545712D01*
X81095515Y-58540109D01*
X81099898Y-58531863D01*
X81112121Y-58522942D01*
X81130610Y-58510214D01*
X81142206Y-58499310D01*
X81156726Y-58487046D01*
X81166583Y-58482362D01*
X81176522Y-58476272D01*
X81177532Y-58472067D01*
X81182282Y-58464655D01*
X81196347Y-58455353D01*
X81199364Y-58453842D01*
X81217073Y-58442751D01*
X81228241Y-58431074D01*
X81228679Y-58430215D01*
X81239601Y-58417764D01*
X81245969Y-58414577D01*
X81259608Y-58406266D01*
X81268754Y-58396905D01*
X81282814Y-58384110D01*
X81292905Y-58379112D01*
X81303017Y-58373147D01*
X81304144Y-58369001D01*
X81308740Y-58361342D01*
X81322289Y-58352060D01*
X81322683Y-58351854D01*
X81336390Y-58342585D01*
X81341254Y-58334836D01*
X81341223Y-58334706D01*
X81345557Y-58327354D01*
X81350929Y-58325006D01*
X81364502Y-58317821D01*
X81378721Y-58306413D01*
X81395429Y-58291562D01*
X81416100Y-58274484D01*
X81420541Y-58270979D01*
X81439093Y-58256133D01*
X81463834Y-58235862D01*
X81489611Y-58214393D01*
X81491177Y-58213075D01*
X81513420Y-58194882D01*
X81531762Y-58180850D01*
X81542890Y-58173488D01*
X81544060Y-58173008D01*
X81550116Y-58165870D01*
X81549890Y-58163735D01*
X81554082Y-58155889D01*
X81559443Y-58153464D01*
X81573166Y-58146367D01*
X81587369Y-58135372D01*
X81612133Y-58113523D01*
X81635988Y-58093778D01*
X81655825Y-58078598D01*
X81668534Y-58070449D01*
X81670159Y-58069817D01*
X81676622Y-58062823D01*
X81676437Y-58060424D01*
X81680779Y-58052788D01*
X81687523Y-58049742D01*
X81702333Y-58041265D01*
X81711673Y-58031949D01*
X81725280Y-58019203D01*
X81734825Y-58014178D01*
X81748795Y-58005037D01*
X81753853Y-57998568D01*
X81765526Y-57985845D01*
X81779253Y-57976192D01*
X81791971Y-57966589D01*
X81795751Y-57958904D01*
X81800252Y-57951570D01*
X81808386Y-57947954D01*
X81821500Y-57940922D01*
X81840410Y-57926755D01*
X81855982Y-57913130D01*
X81876992Y-57894576D01*
X81896459Y-57879192D01*
X81906621Y-57872424D01*
X81918942Y-57862933D01*
X81922298Y-57855592D01*
X81926980Y-57848547D01*
X81937513Y-57843952D01*
X81953567Y-57835044D01*
X81960684Y-57826176D01*
X81972134Y-57813223D01*
X81979744Y-57809502D01*
X81994135Y-57800442D01*
X82000639Y-57792336D01*
X82013615Y-57779181D01*
X82022563Y-57774894D01*
X82037528Y-57765261D01*
X82042651Y-57757944D01*
X82053511Y-57745179D01*
X82060624Y-57741560D01*
X82074836Y-57733552D01*
X82084119Y-57724849D01*
X82099802Y-57710735D01*
X82114205Y-57701218D01*
X82126990Y-57691714D01*
X82130811Y-57684050D01*
X82135561Y-57677116D01*
X82147133Y-57672112D01*
X82161435Y-57664195D01*
X82166595Y-57655330D01*
X82173977Y-57644191D01*
X82184181Y-57639050D01*
X82199963Y-57629998D01*
X82206583Y-57621481D01*
X82218328Y-57608926D01*
X82228873Y-57603941D01*
X82244616Y-57594866D01*
X82251163Y-57586401D01*
X82262613Y-57573448D01*
X82270223Y-57569727D01*
X82284613Y-57560668D01*
X82291119Y-57552561D01*
X82304094Y-57539408D01*
X82313042Y-57535119D01*
X82327765Y-57525955D01*
X82332733Y-57519033D01*
X82343500Y-57505836D01*
X82354903Y-57497523D01*
X82367212Y-57484623D01*
X82367425Y-57473487D01*
X82369679Y-57460494D01*
X82379863Y-57436364D01*
X82397442Y-57402219D01*
X82421705Y-57359486D01*
X82441669Y-57324482D01*
X82458280Y-57293376D01*
X82470287Y-57268669D01*
X82476445Y-57252859D01*
X82476911Y-57248946D01*
X82477081Y-57238218D01*
X82479355Y-57236079D01*
X82483533Y-57228248D01*
X82488460Y-57208861D01*
X82493491Y-57181196D01*
X82497982Y-57148530D01*
X82499660Y-57133017D01*
X82499650Y-57116114D01*
X82494456Y-57101567D01*
X82481967Y-57086391D01*
X82460077Y-57067605D01*
X82445377Y-57056253D01*
X82420228Y-57038253D01*
X82397714Y-57025536D01*
X82373482Y-57016478D01*
X82343172Y-57009454D01*
X82302431Y-57002843D01*
X82301819Y-57002753D01*
X82278028Y-57002371D01*
X82248165Y-57005965D01*
X82228634Y-57010224D01*
X82205062Y-57015387D01*
X82188489Y-57016805D01*
X82182826Y-57014787D01*
X82175245Y-57012220D01*
X82158285Y-57014005D01*
X82148521Y-57016268D01*
X82129539Y-57022671D01*
X82118791Y-57028886D01*
X82117802Y-57031131D01*
X82112385Y-57036912D01*
X82096663Y-57045391D01*
X82080500Y-57052191D01*
X82057720Y-57062024D01*
X82040677Y-57071457D01*
X82034906Y-57076295D01*
X82024915Y-57083538D01*
X82005208Y-57093526D01*
X81980988Y-57103722D01*
X81956861Y-57113903D01*
X81939074Y-57123098D01*
X81931483Y-57129313D01*
X81923308Y-57136858D01*
X81912580Y-57141179D01*
X81896676Y-57150165D01*
X81889833Y-57158841D01*
X81878087Y-57171396D01*
X81867542Y-57176381D01*
X81851800Y-57185457D01*
X81845252Y-57193921D01*
X81833979Y-57205460D01*
X81818258Y-57212722D01*
X81802232Y-57220710D01*
X81796079Y-57230232D01*
X81788442Y-57240919D01*
X81773789Y-57247771D01*
X81757672Y-57255775D01*
X81751498Y-57265311D01*
X81743987Y-57275930D01*
X81729948Y-57282653D01*
X81711984Y-57291425D01*
X81701747Y-57301776D01*
X81688506Y-57314503D01*
X81676115Y-57320211D01*
X81662033Y-57328174D01*
X81657134Y-57336864D01*
X81649515Y-57347542D01*
X81634954Y-57354375D01*
X81617568Y-57362795D01*
X81607960Y-57373175D01*
X81596337Y-57385466D01*
X81584563Y-57391011D01*
X81570666Y-57399016D01*
X81565982Y-57407557D01*
X81558536Y-57418138D01*
X81544798Y-57424801D01*
X81527755Y-57433318D01*
X81518799Y-57443334D01*
X81507525Y-57454874D01*
X81491805Y-57462134D01*
X81475779Y-57470124D01*
X81469625Y-57479645D01*
X81462160Y-57490236D01*
X81448331Y-57496917D01*
X81433034Y-57504789D01*
X81427036Y-57514190D01*
X81419417Y-57524869D01*
X81404857Y-57531700D01*
X81387471Y-57540122D01*
X81377862Y-57550501D01*
X81366240Y-57562792D01*
X81354466Y-57568338D01*
X81340568Y-57576342D01*
X81335884Y-57584884D01*
X81328372Y-57595502D01*
X81314334Y-57602226D01*
X81296370Y-57610997D01*
X81286132Y-57621350D01*
X81273035Y-57633841D01*
X81259505Y-57640051D01*
X81244972Y-57647923D01*
X81239528Y-57656971D01*
X81232083Y-57667551D01*
X81218344Y-57674215D01*
X81201302Y-57682732D01*
X81192346Y-57692748D01*
X81180982Y-57704480D01*
X81166347Y-57711281D01*
X81151143Y-57719137D01*
X81145163Y-57728525D01*
X81137782Y-57739213D01*
X81125187Y-57745445D01*
X81107708Y-57754428D01*
X81098560Y-57764146D01*
X81085143Y-57777157D01*
X81074067Y-57782276D01*
X81058195Y-57791278D01*
X81051410Y-57799915D01*
X81039664Y-57812469D01*
X81029119Y-57817455D01*
X81013376Y-57826529D01*
X81006829Y-57834994D01*
X80995025Y-57847672D01*
X80985032Y-57852402D01*
X80967816Y-57861641D01*
X80958166Y-57870922D01*
X80942544Y-57884347D01*
X80930903Y-57889795D01*
X80919022Y-57896023D01*
X80916667Y-57901419D01*
X80912227Y-57909534D01*
X80899933Y-57918114D01*
X80880652Y-57929876D01*
X80860814Y-57944375D01*
X80839440Y-57961553D01*
X80819528Y-57977356D01*
X80798873Y-57993630D01*
X80776897Y-58010974D01*
X80775501Y-58012078D01*
X80758864Y-58024330D01*
X80746673Y-58031736D01*
X80744943Y-58032405D01*
X80734632Y-58038414D01*
X80720087Y-58050121D01*
X80720025Y-58050177D01*
X80691808Y-58074237D01*
X80667117Y-58092862D01*
X80648904Y-58103892D01*
X80644407Y-58105612D01*
X80635322Y-58111809D01*
X80634743Y-58115563D01*
X80629984Y-58122958D01*
X80615893Y-58132285D01*
X80612668Y-58133904D01*
X80597328Y-58143063D01*
X80590454Y-58150794D01*
X80590465Y-58151770D01*
X80586250Y-58159129D01*
X80582300Y-58160811D01*
X80571088Y-58166673D01*
X80553231Y-58178766D01*
X80541312Y-58187714D01*
X80520022Y-58204265D01*
X80501057Y-58218924D01*
X80494197Y-58224187D01*
X80476329Y-58238532D01*
X80460536Y-58251987D01*
X80445530Y-58263786D01*
X80434535Y-58270069D01*
X80424106Y-58276181D01*
X80407828Y-58288564D01*
X80401135Y-58294180D01*
X80383836Y-58308029D01*
X80370238Y-58317065D01*
X80367153Y-58318447D01*
X80360069Y-58325478D01*
X80360153Y-58328295D01*
X80355639Y-58335673D01*
X80347002Y-58339531D01*
X80330187Y-58347475D01*
X80315384Y-58358230D01*
X80297961Y-58373696D01*
X80278702Y-58390822D01*
X80278104Y-58391354D01*
X80261057Y-58404564D01*
X80246586Y-58412631D01*
X80245158Y-58413088D01*
X80230680Y-58421181D01*
X80221365Y-58429881D01*
X80205681Y-58443994D01*
X80191279Y-58453512D01*
X80178494Y-58463014D01*
X80174672Y-58470679D01*
X80170021Y-58477776D01*
X80159951Y-58482188D01*
X80141945Y-58491679D01*
X80132203Y-58500945D01*
X80116841Y-58514282D01*
X80105455Y-58519679D01*
X80088922Y-58529490D01*
X80081941Y-58537792D01*
X80068771Y-58551009D01*
X80059651Y-58555332D01*
X80044000Y-58564793D01*
X80037361Y-58572872D01*
X80024647Y-58585940D01*
X80015931Y-58590181D01*
X80000669Y-58598800D01*
X79991267Y-58608111D01*
X79976089Y-58621388D01*
X79964885Y-58626747D01*
X79949499Y-58636237D01*
X79943574Y-58644270D01*
X79931829Y-58656825D01*
X79921283Y-58661810D01*
X79905541Y-58670886D01*
X79898994Y-58679350D01*
X79887290Y-58691815D01*
X79876337Y-58696988D01*
X79859504Y-58706368D01*
X79851843Y-58715118D01*
X79838586Y-58727871D01*
X79826322Y-58733523D01*
X79810088Y-58742345D01*
X79802638Y-58751437D01*
X79790892Y-58763992D01*
X79780348Y-58768976D01*
X79764604Y-58778052D01*
X79758057Y-58786516D01*
X79746311Y-58799071D01*
X79735767Y-58804056D01*
X79720025Y-58813132D01*
X79713476Y-58821596D01*
X79701674Y-58834275D01*
X79691681Y-58839003D01*
X79674464Y-58848244D01*
X79664814Y-58857524D01*
X79649077Y-58870988D01*
X79637325Y-58876457D01*
X79623898Y-58884764D01*
X79619723Y-58892986D01*
X79612277Y-58903566D01*
X79598539Y-58910229D01*
X79581496Y-58918746D01*
X79572540Y-58928763D01*
X79560836Y-58941229D01*
X79549883Y-58946401D01*
X79533050Y-58955781D01*
X79525390Y-58964531D01*
X79512150Y-58977257D01*
X79499759Y-58982966D01*
X79485676Y-58990929D01*
X79480777Y-58999619D01*
X79473158Y-59010298D01*
X79458598Y-59017130D01*
X79441212Y-59025551D01*
X79431603Y-59035930D01*
X79419981Y-59048220D01*
X79408207Y-59053767D01*
X79394310Y-59061770D01*
X79389625Y-59070313D01*
X79382113Y-59080931D01*
X79368075Y-59087654D01*
X79350111Y-59096426D01*
X79339874Y-59106778D01*
X79326777Y-59119269D01*
X79313246Y-59125480D01*
X79298713Y-59133352D01*
X79293269Y-59142400D01*
X79285824Y-59152979D01*
X79272086Y-59159643D01*
X79255043Y-59168160D01*
X79246087Y-59178177D01*
X79234464Y-59190467D01*
X79222689Y-59196013D01*
X79208792Y-59204017D01*
X79204109Y-59212559D01*
X79196662Y-59223140D01*
X79182925Y-59229802D01*
X79165882Y-59238319D01*
X79156926Y-59248336D01*
X79145652Y-59259875D01*
X79129932Y-59267136D01*
X79113905Y-59275125D01*
X79107752Y-59284646D01*
X79100307Y-59295227D01*
X79086569Y-59301889D01*
X79069527Y-59310406D01*
X79060570Y-59320423D01*
X79048866Y-59332888D01*
X79037913Y-59338061D01*
X79021080Y-59347440D01*
X79013420Y-59356191D01*
X79000179Y-59368916D01*
X78987788Y-59374626D01*
X78973706Y-59382588D01*
X78968807Y-59391279D01*
X78961188Y-59401957D01*
X78946628Y-59408789D01*
X78929242Y-59417210D01*
X78919633Y-59427590D01*
X78908011Y-59439880D01*
X78896236Y-59445426D01*
X78882338Y-59453430D01*
X78877655Y-59461972D01*
X78870284Y-59472696D01*
X78857450Y-59479198D01*
X78838341Y-59488827D01*
X78827360Y-59498828D01*
X78811405Y-59512255D01*
X78799386Y-59517645D01*
X78785720Y-59525706D01*
X78781299Y-59534059D01*
X78773699Y-59544726D01*
X78759234Y-59551538D01*
X78744944Y-59557495D01*
X78740194Y-59563739D01*
X78735526Y-59571257D01*
X78721770Y-59580751D01*
X78719949Y-59581716D01*
X78700617Y-59594043D01*
X78686383Y-59606746D01*
X78670120Y-59619707D01*
X78658450Y-59624812D01*
X78646351Y-59630618D01*
X78643783Y-59635617D01*
X78639258Y-59643344D01*
X78626955Y-59651960D01*
X78607241Y-59664259D01*
X78589446Y-59677457D01*
X78570433Y-59692836D01*
X78554522Y-59705407D01*
X78539116Y-59717495D01*
X78518464Y-59733866D01*
X78508740Y-59741620D01*
X78489353Y-59756007D01*
X78473271Y-59766033D01*
X78467734Y-59768451D01*
X78458801Y-59774438D01*
X78458260Y-59777843D01*
X78453419Y-59784922D01*
X78439293Y-59794090D01*
X78436057Y-59795710D01*
X78420746Y-59804990D01*
X78413952Y-59813012D01*
X78413981Y-59814050D01*
X78409706Y-59821611D01*
X78404318Y-59824001D01*
X78389238Y-59831682D01*
X78366595Y-59847756D01*
X78339337Y-59870062D01*
X78328700Y-59879437D01*
X78313765Y-59891305D01*
X78302706Y-59897544D01*
X78291390Y-59903955D01*
X78278423Y-59914428D01*
X78259430Y-59929451D01*
X78244531Y-59939031D01*
X78231995Y-59948582D01*
X78228414Y-59956107D01*
X78223778Y-59963229D01*
X78213918Y-59967556D01*
X78195752Y-59976863D01*
X78185985Y-59985622D01*
X78170972Y-59998906D01*
X78152420Y-60010651D01*
X78137961Y-60020117D01*
X78132103Y-60028040D01*
X78132174Y-60028629D01*
X78127400Y-60035343D01*
X78116843Y-60039836D01*
X78100789Y-60048743D01*
X78093671Y-60057612D01*
X78081841Y-60070347D01*
X78072101Y-60074959D01*
X78054657Y-60083992D01*
X78045008Y-60092635D01*
X78029325Y-60106748D01*
X78014923Y-60116266D01*
X78002137Y-60125769D01*
X77998316Y-60133433D01*
X77993416Y-60140108D01*
X77979136Y-60146137D01*
X77960936Y-60154825D01*
X77950165Y-60165467D01*
X77936996Y-60178685D01*
X77927875Y-60183007D01*
X77912225Y-60192468D01*
X77905584Y-60200547D01*
X77892871Y-60213615D01*
X77884155Y-60217856D01*
X77868893Y-60226475D01*
X77859492Y-60235786D01*
X77844313Y-60249063D01*
X77833110Y-60254422D01*
X77817724Y-60263913D01*
X77811798Y-60271945D01*
X77800052Y-60284500D01*
X77789508Y-60289485D01*
X77773766Y-60298560D01*
X77767218Y-60307024D01*
X77755514Y-60319491D01*
X77744560Y-60324663D01*
X77727728Y-60334043D01*
X77720068Y-60342793D01*
X77706971Y-60355285D01*
X77693440Y-60361495D01*
X77678908Y-60369367D01*
X77673464Y-60378415D01*
X77666018Y-60388995D01*
X77652280Y-60395658D01*
X77635238Y-60404175D01*
X77626282Y-60414191D01*
X77614536Y-60426746D01*
X77603991Y-60431731D01*
X77588248Y-60440807D01*
X77581701Y-60449272D01*
X77569897Y-60461950D01*
X77559905Y-60466679D01*
X77542689Y-60475919D01*
X77533038Y-60485200D01*
X77517301Y-60498663D01*
X77505549Y-60504133D01*
X77492123Y-60512439D01*
X77487947Y-60520662D01*
X77480501Y-60531241D01*
X77466764Y-60537905D01*
X77449720Y-60546422D01*
X77440765Y-60556438D01*
X77429061Y-60568903D01*
X77418107Y-60574077D01*
X77401274Y-60583456D01*
X77393615Y-60592207D01*
X77380374Y-60604932D01*
X77367983Y-60610642D01*
X77353900Y-60618604D01*
X77349002Y-60627295D01*
X77341383Y-60637973D01*
X77326822Y-60644805D01*
X77309437Y-60653225D01*
X77299828Y-60663605D01*
X77288205Y-60675895D01*
X77276431Y-60681441D01*
X77262533Y-60689445D01*
X77257850Y-60697988D01*
X77250338Y-60708606D01*
X77236299Y-60715329D01*
X77218336Y-60724101D01*
X77208097Y-60734453D01*
X77195001Y-60746944D01*
X77181470Y-60753155D01*
X77166937Y-60761027D01*
X77161494Y-60770075D01*
X77154048Y-60780655D01*
X77140310Y-60787318D01*
X77123268Y-60795835D01*
X77114311Y-60805851D01*
X77102565Y-60818406D01*
X77092021Y-60823391D01*
X77076278Y-60832466D01*
X77069730Y-60840931D01*
X77058367Y-60852663D01*
X77043732Y-60859464D01*
X77028527Y-60867320D01*
X77022548Y-60876708D01*
X77014929Y-60887386D01*
X77000369Y-60894218D01*
X76982983Y-60902638D01*
X76973374Y-60913018D01*
X76961752Y-60925309D01*
X76949978Y-60930854D01*
X76936080Y-60938859D01*
X76931396Y-60947401D01*
X76923951Y-60957981D01*
X76910212Y-60964644D01*
X76893170Y-60973161D01*
X76884214Y-60983177D01*
X76872850Y-60994909D01*
X76858215Y-61001711D01*
X76843011Y-61009567D01*
X76837031Y-61018954D01*
X76829650Y-61029644D01*
X76817054Y-61035874D01*
X76799576Y-61044857D01*
X76790427Y-61054576D01*
X76777011Y-61067588D01*
X76765934Y-61072706D01*
X76750062Y-61081709D01*
X76743277Y-61090344D01*
X76731428Y-61103248D01*
X76721965Y-61107867D01*
X76705157Y-61117187D01*
X76695584Y-61126503D01*
X76680189Y-61139744D01*
X76668717Y-61145024D01*
X76653149Y-61154206D01*
X76646921Y-61162431D01*
X76635274Y-61174774D01*
X76623750Y-61180207D01*
X76611289Y-61186091D01*
X76608418Y-61191414D01*
X76603750Y-61198933D01*
X76589995Y-61208426D01*
X76588173Y-61209391D01*
X76568841Y-61221718D01*
X76554606Y-61234421D01*
X76538345Y-61247381D01*
X76526674Y-61252487D01*
X76514657Y-61258580D01*
X76512215Y-61264073D01*
X76508330Y-61272312D01*
X76505162Y-61273722D01*
X76493494Y-61280243D01*
X76479577Y-61291418D01*
X76459906Y-61306617D01*
X76442281Y-61317379D01*
X76426990Y-61327220D01*
X76419266Y-61335835D01*
X76419263Y-61335841D01*
X76409606Y-61345013D01*
X76390244Y-61351191D01*
X76366197Y-61353659D01*
X76342482Y-61351701D01*
X76331183Y-61348391D01*
X76308706Y-61340838D01*
X76288878Y-61336774D01*
X76286818Y-61336625D01*
X76272542Y-61333538D01*
X76267460Y-61329135D01*
X76260180Y-61324179D01*
X76257967Y-61324487D01*
X76248294Y-61322582D01*
X76228199Y-61315816D01*
X76200892Y-61305335D01*
X76177850Y-61295830D01*
X76147340Y-61283328D01*
X76121744Y-61273658D01*
X76104240Y-61267970D01*
X76098348Y-61267009D01*
X76086962Y-61264748D01*
X76079421Y-61260513D01*
X76063034Y-61255556D01*
X76051065Y-61256544D01*
X76036304Y-61257275D01*
X76029824Y-61253796D01*
X76020084Y-61249882D01*
X76001433Y-61248753D01*
X75994067Y-61249142D01*
X75977548Y-61251584D01*
X75962463Y-61257284D01*
X75945194Y-61268287D01*
X75922128Y-61286643D01*
X75910582Y-61296406D01*
X75887528Y-61316705D01*
X75869464Y-61333816D01*
X75858981Y-61345226D01*
X75857390Y-61348028D01*
X75850759Y-61356271D01*
X75848757Y-61357020D01*
X75840687Y-61363222D01*
X75825473Y-61378155D01*
X75805663Y-61399243D01*
X75793127Y-61413218D01*
X75733089Y-61477633D01*
X75676658Y-61530020D01*
X75621462Y-61571994D01*
X75565129Y-61605169D01*
X75505288Y-61631163D01*
X75445569Y-61649996D01*
X75396563Y-61661869D01*
X75358676Y-61668151D01*
X75334940Y-61668820D01*
X75313838Y-61669428D01*
X75280936Y-61673824D01*
X75238732Y-61681619D01*
X75199748Y-61690083D01*
X75159683Y-61698805D01*
X75122557Y-61705998D01*
X75091856Y-61711051D01*
X75071072Y-61713347D01*
X75067242Y-61713405D01*
X75051437Y-61715108D01*
X75023211Y-61720516D01*
X74984456Y-61729199D01*
X74937061Y-61740725D01*
X74882919Y-61754664D01*
X74862823Y-61760007D01*
X74804161Y-61775910D01*
X74758227Y-61788842D01*
X74723279Y-61799369D01*
X74697573Y-61808060D01*
X74679366Y-61815481D01*
X74666916Y-61822200D01*
X74662643Y-61825212D01*
X74642718Y-61838297D01*
X74624090Y-61847043D01*
X74622069Y-61847651D01*
X74603572Y-61856178D01*
X74586863Y-61868273D01*
X74570263Y-61882987D01*
X74549215Y-61901261D01*
X74541045Y-61908262D01*
X74515004Y-61930964D01*
X74496560Y-61948640D01*
X74481612Y-61965493D01*
X74467890Y-61983258D01*
X74453045Y-62002457D01*
X74432949Y-62027450D01*
X74412710Y-62051919D01*
X74385890Y-62085007D01*
X74360210Y-62119486D01*
X74333815Y-62158102D01*
X74304851Y-62203600D01*
X74271462Y-62258728D01*
X74259922Y-62278207D01*
X74236875Y-62316733D01*
X74219460Y-62344218D01*
X74206111Y-62362666D01*
X74195263Y-62374083D01*
X74185351Y-62380470D01*
X74178018Y-62383052D01*
X74160431Y-62386187D01*
X74149828Y-62385194D01*
X74149474Y-62384916D01*
X74146503Y-62376619D01*
X74140870Y-62355956D01*
X74133118Y-62325108D01*
X74123789Y-62286260D01*
X74113426Y-62241592D01*
X74109447Y-62224062D01*
X74095681Y-62160914D01*
X74083617Y-62101336D01*
X74073539Y-62047083D01*
X74065732Y-61999906D01*
X74060484Y-61961559D01*
X74058078Y-61933792D01*
X74058800Y-61918362D01*
X74059428Y-61916760D01*
X74060392Y-61905446D01*
X74057320Y-61887325D01*
X74057030Y-61886221D01*
X74053407Y-61863294D01*
X74052314Y-61835835D01*
X74052559Y-61828940D01*
X74052980Y-61799063D01*
X74051590Y-61768499D01*
X74051130Y-61763547D01*
X74050260Y-61742637D01*
X74052046Y-61728306D01*
X74053295Y-61725882D01*
X74055657Y-61715065D01*
X74053633Y-61700689D01*
X74051541Y-61679058D01*
X74053715Y-61657827D01*
X74056224Y-61636184D01*
X74054868Y-61618962D01*
X74053428Y-61600136D01*
X74055532Y-61582318D01*
X74058222Y-61559795D01*
X74058230Y-61534484D01*
X74058154Y-61533419D01*
X74058431Y-61515079D01*
X74061789Y-61504643D01*
X74062909Y-61503944D01*
X74066584Y-61496406D01*
X74065326Y-61485492D01*
X74064542Y-61465153D01*
X74067696Y-61452083D01*
X74071657Y-61432555D01*
X74070777Y-61420413D01*
X74070542Y-61401647D01*
X74073858Y-61388741D01*
X74078228Y-61371263D01*
X74078048Y-61361210D01*
X74078011Y-61348709D01*
X74080497Y-61326586D01*
X74084614Y-61301614D01*
X74089567Y-61274687D01*
X74093434Y-61252542D01*
X74095260Y-61240799D01*
X74098521Y-61222569D01*
X74100003Y-61216394D01*
X74103453Y-61200023D01*
X74107695Y-61175663D01*
X74111599Y-61150094D01*
X74113460Y-61135673D01*
X74116882Y-61117664D01*
X74118645Y-61111150D01*
X74122780Y-61092968D01*
X74123654Y-61086673D01*
X74126912Y-61068727D01*
X74128662Y-61062197D01*
X74132872Y-61043982D01*
X74133796Y-61037687D01*
X74136966Y-61022705D01*
X74142931Y-61002248D01*
X74143547Y-61000373D01*
X74149659Y-60979841D01*
X74153182Y-60963990D01*
X74153300Y-60963058D01*
X74156661Y-60945057D01*
X74158404Y-60938556D01*
X74162628Y-60920824D01*
X74164789Y-60908676D01*
X74169389Y-60892188D01*
X74173746Y-60884614D01*
X74177384Y-60872489D01*
X74176379Y-60863882D01*
X74176344Y-60851608D01*
X74179694Y-60848025D01*
X74184878Y-60840093D01*
X74186447Y-60826938D01*
X74188454Y-60811962D01*
X74192734Y-60805974D01*
X74198846Y-60798131D01*
X74202316Y-60786056D01*
X74208559Y-60757025D01*
X74218883Y-60724311D01*
X74226201Y-60704470D01*
X74239277Y-60667506D01*
X74247341Y-60637417D01*
X74250087Y-60622883D01*
X74255020Y-60608273D01*
X74260448Y-60602756D01*
X74265573Y-60595201D01*
X74265135Y-60590757D01*
X74267962Y-60578095D01*
X74272132Y-60573702D01*
X74279585Y-60563366D01*
X74279745Y-60558945D01*
X74279879Y-60549874D01*
X74285035Y-60535157D01*
X74296429Y-60511459D01*
X74298639Y-60507144D01*
X74304744Y-60491775D01*
X74305745Y-60483301D01*
X74308192Y-60473352D01*
X74308731Y-60472862D01*
X74313719Y-60464136D01*
X74321242Y-60446062D01*
X74326056Y-60432875D01*
X74334323Y-60412007D01*
X74341722Y-60398154D01*
X74344843Y-60395067D01*
X74349452Y-60387971D01*
X74349198Y-60386455D01*
X74351287Y-60375999D01*
X74358790Y-60358616D01*
X74361536Y-60353356D01*
X74371111Y-60334646D01*
X74384463Y-60307188D01*
X74399256Y-60275815D01*
X74404936Y-60263508D01*
X74421811Y-60229006D01*
X74444972Y-60184911D01*
X74472721Y-60134208D01*
X74503359Y-60079880D01*
X74535185Y-60024910D01*
X74566501Y-59972283D01*
X74595606Y-59924981D01*
X74615034Y-59894685D01*
X74633864Y-59865947D01*
X74650318Y-59840691D01*
X74662228Y-59822255D01*
X74666626Y-59815314D01*
X74680785Y-59794030D01*
X74702727Y-59763179D01*
X74730918Y-59724820D01*
X74763827Y-59681010D01*
X74799919Y-59633810D01*
X74837664Y-59585276D01*
X74842370Y-59579284D01*
X74869177Y-59545030D01*
X74892662Y-59514720D01*
X74911312Y-59490329D01*
X74923618Y-59473830D01*
X74928040Y-59467316D01*
X74935586Y-59458846D01*
X74943485Y-59453008D01*
X74953696Y-59443334D01*
X74966576Y-59427159D01*
X74979496Y-59408435D01*
X74989832Y-59391114D01*
X74994958Y-59379146D01*
X74994513Y-59376218D01*
X74986979Y-59378948D01*
X74971327Y-59387948D01*
X74951430Y-59400643D01*
X74931158Y-59414459D01*
X74914384Y-59426822D01*
X74904980Y-59435159D01*
X74904282Y-59436206D01*
X74896554Y-59443316D01*
X74883481Y-59451526D01*
X74868010Y-59462477D01*
X74847875Y-59479853D01*
X74834449Y-59492842D01*
X74816801Y-59509995D01*
X74802828Y-59522098D01*
X74796889Y-59525932D01*
X74791678Y-59533207D01*
X74791939Y-59534970D01*
X74787987Y-59543112D01*
X74784414Y-59544698D01*
X74775620Y-59551137D01*
X74760273Y-59565893D01*
X74741284Y-59585777D01*
X74721567Y-59607604D01*
X74704033Y-59628185D01*
X74691593Y-59644333D01*
X74687899Y-59650332D01*
X74680290Y-59661788D01*
X74666651Y-59679178D01*
X74658892Y-59688380D01*
X74642232Y-59708509D01*
X74628302Y-59726785D01*
X74624428Y-59732437D01*
X74612638Y-59749663D01*
X74598035Y-59769621D01*
X74596885Y-59771134D01*
X74570614Y-59807396D01*
X74541120Y-59851674D01*
X74507498Y-59905407D01*
X74468840Y-59970034D01*
X74437549Y-60023820D01*
X74410215Y-60071323D01*
X74388897Y-60108699D01*
X74372140Y-60138711D01*
X74358485Y-60164123D01*
X74346476Y-60187695D01*
X74334658Y-60212189D01*
X74321572Y-60240367D01*
X74310095Y-60265483D01*
X74297523Y-60292131D01*
X74286764Y-60313234D01*
X74279611Y-60325335D01*
X74278322Y-60326780D01*
X74274733Y-60336601D01*
X74275347Y-60341072D01*
X74274587Y-60351132D01*
X74272419Y-60352782D01*
X74266725Y-60360108D01*
X74258334Y-60377009D01*
X74249094Y-60398877D01*
X74240851Y-60421096D01*
X74235449Y-60439058D01*
X74234481Y-60447573D01*
X74232147Y-60455860D01*
X74230799Y-60456471D01*
X74225764Y-60463439D01*
X74217530Y-60479801D01*
X74208063Y-60500976D01*
X74199330Y-60522385D01*
X74193297Y-60539450D01*
X74191797Y-60547295D01*
X74189230Y-60555428D01*
X74181719Y-60571316D01*
X74179329Y-60575898D01*
X74169686Y-60596999D01*
X74163749Y-60615406D01*
X74163420Y-60617188D01*
X74155357Y-60650401D01*
X74144058Y-60678508D01*
X74139923Y-60694329D01*
X74140447Y-60701008D01*
X74138772Y-60711359D01*
X74135829Y-60713262D01*
X74129210Y-60721294D01*
X74125794Y-60733301D01*
X74121011Y-60756838D01*
X74114589Y-60778079D01*
X74108879Y-60790043D01*
X74104861Y-60800573D01*
X74101762Y-60815084D01*
X74095239Y-60847151D01*
X74087239Y-60873412D01*
X74082412Y-60883995D01*
X74079066Y-60899707D01*
X74080005Y-60907125D01*
X74079675Y-60918883D01*
X74076417Y-60921967D01*
X74071201Y-60929900D01*
X74069659Y-60942741D01*
X74066893Y-60961807D01*
X74062116Y-60972696D01*
X74057044Y-60989031D01*
X74057732Y-60996679D01*
X74058166Y-61009600D01*
X74055948Y-61013563D01*
X74052648Y-61021887D01*
X74047631Y-61040968D01*
X74041733Y-61066883D01*
X74035791Y-61095715D01*
X74030643Y-61123542D01*
X74027123Y-61146442D01*
X74026562Y-61151246D01*
X74023317Y-61169271D01*
X74021647Y-61175697D01*
X74018500Y-61189531D01*
X74013750Y-61213932D01*
X74008137Y-61244755D01*
X74002400Y-61277856D01*
X73997279Y-61309090D01*
X73994178Y-61329575D01*
X73990138Y-61354969D01*
X73985813Y-61378251D01*
X73985587Y-61379336D01*
X73983290Y-61399801D01*
X73984334Y-61414373D01*
X73984264Y-61431747D01*
X73980842Y-61444511D01*
X73976881Y-61464039D01*
X73977761Y-61476181D01*
X73977996Y-61494947D01*
X73974680Y-61507853D01*
X73971400Y-61527896D01*
X73973274Y-61544859D01*
X73975059Y-61559977D01*
X73971819Y-61566910D01*
X73968085Y-61574698D01*
X73967415Y-61591717D01*
X73967825Y-61596897D01*
X73968357Y-61622285D01*
X73965741Y-61645669D01*
X73965456Y-61646919D01*
X73963151Y-61669295D01*
X73964996Y-61686646D01*
X73966828Y-61706996D01*
X73964554Y-61727987D01*
X73962490Y-61752337D01*
X73964812Y-61773140D01*
X73967061Y-61796778D01*
X73964834Y-61815548D01*
X73963120Y-61836597D01*
X73965981Y-61861493D01*
X73966924Y-61865497D01*
X73970350Y-61886621D01*
X73969440Y-61902668D01*
X73968436Y-61905166D01*
X73966971Y-61917095D01*
X73968575Y-61939165D01*
X73972891Y-61967019D01*
X73974005Y-61972692D01*
X73978933Y-62001354D01*
X73981406Y-62025248D01*
X73980996Y-62039916D01*
X73980570Y-62041262D01*
X73980074Y-62052918D01*
X73982648Y-62075530D01*
X73987796Y-62105584D01*
X73993364Y-62132300D01*
X74011201Y-62211830D01*
X73988699Y-62217859D01*
X73971758Y-62218994D01*
X73956940Y-62211137D01*
X73942089Y-62192446D01*
X73927100Y-62165214D01*
X73916642Y-62146370D01*
X73907289Y-62132658D01*
X73906802Y-62132097D01*
X73897470Y-62120506D01*
X73883752Y-62102296D01*
X73877315Y-62093476D01*
X73859242Y-62069109D01*
X73840332Y-62044572D01*
X73835915Y-62039021D01*
X73818394Y-62016868D01*
X73801516Y-61994971D01*
X73798995Y-61991628D01*
X73787956Y-61977993D01*
X73769305Y-61956094D01*
X73745440Y-61928705D01*
X73718758Y-61898595D01*
X73712368Y-61891457D01*
X73685307Y-61861246D01*
X73660359Y-61833309D01*
X73639950Y-61810367D01*
X73626503Y-61795141D01*
X73624608Y-61792967D01*
X73611571Y-61779958D01*
X73602224Y-61774143D01*
X73601267Y-61774158D01*
X73594445Y-61769860D01*
X73593141Y-61766615D01*
X73586687Y-61757722D01*
X73571732Y-61742216D01*
X73551179Y-61723061D01*
X73545401Y-61717956D01*
X73524198Y-61699067D01*
X73508004Y-61683951D01*
X73499580Y-61675208D01*
X73498990Y-61674254D01*
X73492677Y-61666652D01*
X73479221Y-61654562D01*
X73463635Y-61642097D01*
X73450938Y-61633376D01*
X73447096Y-61631679D01*
X73439555Y-61624878D01*
X73439213Y-61623840D01*
X73432454Y-61614867D01*
X73417797Y-61600916D01*
X73399450Y-61585690D01*
X73381622Y-61572891D01*
X73380498Y-61572178D01*
X73366017Y-61561561D01*
X73351151Y-61548992D01*
X73326072Y-61528221D01*
X73294467Y-61505983D01*
X73263553Y-61486301D01*
X73240109Y-61471637D01*
X73218560Y-61457879D01*
X73211633Y-61453354D01*
X73151544Y-61420777D01*
X73080827Y-61394976D01*
X73023421Y-61380947D01*
X72995525Y-61375943D01*
X72973582Y-61374030D01*
X72952362Y-61375518D01*
X72926630Y-61380716D01*
X72896704Y-61388444D01*
X72863891Y-61397560D01*
X72842430Y-61404739D01*
X72829186Y-61411497D01*
X72821022Y-61419356D01*
X72815991Y-61427550D01*
X72809678Y-61442943D01*
X72812604Y-61451602D01*
X72817038Y-61454693D01*
X72844364Y-61464958D01*
X72884424Y-61472367D01*
X72926069Y-61476079D01*
X72980141Y-61481506D01*
X73031256Y-61492200D01*
X73082339Y-61509259D01*
X73136315Y-61533779D01*
X73196108Y-61566860D01*
X73240368Y-61594034D01*
X73253455Y-61604499D01*
X73258607Y-61611739D01*
X73266704Y-61618959D01*
X73272497Y-61620409D01*
X73284486Y-61626906D01*
X73287085Y-61631681D01*
X73293015Y-61639823D01*
X73295826Y-61640081D01*
X73303204Y-61644202D01*
X73319071Y-61656418D01*
X73341056Y-61674633D01*
X73366784Y-61696743D01*
X73393885Y-61720652D01*
X73419987Y-61744256D01*
X73442717Y-61765459D01*
X73459704Y-61782159D01*
X73468574Y-61792258D01*
X73469284Y-61793629D01*
X73476369Y-61799597D01*
X73478388Y-61799373D01*
X73486834Y-61803655D01*
X73494827Y-61814344D01*
X73505474Y-61828388D01*
X73513821Y-61834318D01*
X73523094Y-61841094D01*
X73538918Y-61856209D01*
X73558187Y-61876659D01*
X73562110Y-61881044D01*
X73580978Y-61901991D01*
X73596109Y-61918177D01*
X73604768Y-61926692D01*
X73605530Y-61927245D01*
X73612859Y-61934194D01*
X73627393Y-61950074D01*
X73646998Y-61972369D01*
X73669548Y-61998566D01*
X73692909Y-62026148D01*
X73714954Y-62052602D01*
X73733552Y-62075412D01*
X73746572Y-62092063D01*
X73751885Y-62100040D01*
X73756929Y-62107997D01*
X73768310Y-62122992D01*
X73774759Y-62131018D01*
X73791860Y-62153190D01*
X73811131Y-62179941D01*
X73820431Y-62193543D01*
X73834348Y-62213130D01*
X73845549Y-62226590D01*
X73850455Y-62230482D01*
X73857090Y-62237516D01*
X73860380Y-62245935D01*
X73867652Y-62261899D01*
X73879773Y-62280205D01*
X73880017Y-62280516D01*
X73892684Y-62298015D01*
X73908844Y-62322104D01*
X73920422Y-62340259D01*
X73936195Y-62365038D01*
X73951158Y-62387567D01*
X73959357Y-62399229D01*
X73971120Y-62416269D01*
X73986538Y-62440051D01*
X73997903Y-62458303D01*
X74014707Y-62484740D01*
X74032015Y-62510271D01*
X74041595Y-62523426D01*
X74055359Y-62546427D01*
X74067304Y-62575265D01*
X74076231Y-62605580D01*
X74080943Y-62633012D01*
X74080245Y-62653202D01*
X74078488Y-62657772D01*
X74071491Y-62671856D01*
X74061362Y-62694481D01*
X74051974Y-62716707D01*
X74037400Y-62747166D01*
X74022063Y-62766091D01*
X74002617Y-62776617D01*
X73983504Y-62780861D01*
X73964116Y-62779046D01*
X73955852Y-62770317D01*
X73951306Y-62761774D01*
X73944136Y-62750871D01*
X73932485Y-62735045D01*
X73914490Y-62711729D01*
X73899682Y-62692830D01*
X73887710Y-62678342D01*
X73868678Y-62656109D01*
X73845492Y-62629458D01*
X73821060Y-62601713D01*
X73798292Y-62576202D01*
X73783225Y-62559633D01*
X73770283Y-62547559D01*
X73761226Y-62542284D01*
X73753401Y-62535515D01*
X73751871Y-62531679D01*
X73743129Y-62520659D01*
X73738700Y-62518500D01*
X73721050Y-62507866D01*
X73699984Y-62487481D01*
X73691094Y-62476893D01*
X73679733Y-62466620D01*
X73672384Y-62464556D01*
X73663815Y-62460929D01*
X73662970Y-62458911D01*
X73656595Y-62451650D01*
X73640992Y-62437686D01*
X73618887Y-62419208D01*
X73593001Y-62398404D01*
X73566061Y-62377463D01*
X73540793Y-62358575D01*
X73519918Y-62343927D01*
X73519425Y-62343601D01*
X73502582Y-62332465D01*
X73478582Y-62316602D01*
X73453331Y-62299914D01*
X73417524Y-62277006D01*
X73378330Y-62253197D01*
X73337995Y-62229711D01*
X73298765Y-62207774D01*
X73262884Y-62188609D01*
X73232598Y-62173442D01*
X73210155Y-62163497D01*
X73197797Y-62159999D01*
X73196970Y-62160102D01*
X73189013Y-62157270D01*
X73188556Y-62156132D01*
X73180908Y-62150127D01*
X73162354Y-62141030D01*
X73136238Y-62130098D01*
X73105903Y-62118590D01*
X73074689Y-62107766D01*
X73045943Y-62098884D01*
X73023004Y-62093202D01*
X73019996Y-62092657D01*
X73003490Y-62087819D01*
X72995848Y-62083374D01*
X72983721Y-62079737D01*
X72975114Y-62080742D01*
X72962878Y-62080924D01*
X72959351Y-62077774D01*
X72951472Y-62072471D01*
X72940139Y-62070825D01*
X72915850Y-62068843D01*
X72882346Y-62063905D01*
X72844834Y-62056775D01*
X72844559Y-62056717D01*
X72820388Y-62055258D01*
X72801471Y-62057866D01*
X72782086Y-62059380D01*
X72768229Y-62055206D01*
X72751630Y-62051421D01*
X72725247Y-62055186D01*
X72722110Y-62055996D01*
X72695887Y-62060545D01*
X72671177Y-62060956D01*
X72664351Y-62059953D01*
X72642786Y-62059337D01*
X72612163Y-62063579D01*
X72577022Y-62071466D01*
X72541907Y-62081780D01*
X72511357Y-62093302D01*
X72489918Y-62104818D01*
X72486432Y-62107627D01*
X72467353Y-62120296D01*
X72443084Y-62130640D01*
X72438523Y-62131983D01*
X72416556Y-62140523D01*
X72399777Y-62151602D01*
X72397209Y-62154376D01*
X72381922Y-62166820D01*
X72363633Y-62174940D01*
X72345745Y-62183411D01*
X72335126Y-62194390D01*
X72323786Y-62206072D01*
X72308871Y-62212992D01*
X72290942Y-62221778D01*
X72280781Y-62232086D01*
X72267564Y-62245319D01*
X72258401Y-62249650D01*
X72245183Y-62256836D01*
X72241249Y-62262434D01*
X72233691Y-62273902D01*
X72224922Y-62282346D01*
X72210367Y-62295676D01*
X72194024Y-62312709D01*
X72193484Y-62313314D01*
X72176983Y-62330526D01*
X72161768Y-62344451D01*
X72161418Y-62344735D01*
X72151178Y-62356178D01*
X72149114Y-62363569D01*
X72145641Y-62372141D01*
X72143871Y-62372876D01*
X72135968Y-62380227D01*
X72124055Y-62396771D01*
X72110593Y-62418327D01*
X72098040Y-62440713D01*
X72088857Y-62459750D01*
X72085506Y-62471255D01*
X72085603Y-62471897D01*
X72082088Y-62481473D01*
X72078952Y-62483050D01*
X72071418Y-62489736D01*
X72064033Y-62502330D01*
X72058911Y-62515748D01*
X72058164Y-62524907D01*
X72061034Y-62526166D01*
X72069682Y-62520280D01*
X72086342Y-62506198D01*
X72108473Y-62486237D01*
X72133530Y-62462714D01*
X72158971Y-62437941D01*
X72169338Y-62427539D01*
X72214877Y-62384742D01*
X72263851Y-62344546D01*
X72312504Y-62309775D01*
X72357082Y-62283257D01*
X72368938Y-62277408D01*
X72387971Y-62267276D01*
X72400978Y-62258051D01*
X72402625Y-62256264D01*
X72412958Y-62249881D01*
X72434815Y-62240923D01*
X72465233Y-62230280D01*
X72501246Y-62218840D01*
X72539892Y-62207495D01*
X72578207Y-62197133D01*
X72613226Y-62188643D01*
X72641984Y-62182916D01*
X72651703Y-62181522D01*
X72714299Y-62175626D01*
X72765333Y-62173918D01*
X72803499Y-62176436D01*
X72805832Y-62176801D01*
X72825349Y-62179073D01*
X72838631Y-62178977D01*
X72839256Y-62178837D01*
X72852831Y-62178576D01*
X72861532Y-62179983D01*
X72875326Y-62182911D01*
X72899185Y-62187739D01*
X72928545Y-62193548D01*
X72936274Y-62195059D01*
X72970653Y-62202474D01*
X73004800Y-62211016D01*
X73031831Y-62218948D01*
X73033855Y-62219633D01*
X73055352Y-62226654D01*
X73070435Y-62230859D01*
X73074592Y-62231450D01*
X73082769Y-62234054D01*
X73099090Y-62241752D01*
X73106987Y-62245869D01*
X73125627Y-62254978D01*
X73138540Y-62259713D01*
X73140941Y-62259905D01*
X73150545Y-62262642D01*
X73170606Y-62271898D01*
X73198903Y-62286399D01*
X73233210Y-62304870D01*
X73271304Y-62326036D01*
X73310962Y-62348619D01*
X73349960Y-62371347D01*
X73386073Y-62392942D01*
X73417080Y-62412131D01*
X73440753Y-62427637D01*
X73454873Y-62438186D01*
X73457847Y-62441652D01*
X73464040Y-62447431D01*
X73474868Y-62454812D01*
X73498931Y-62471393D01*
X73529789Y-62494972D01*
X73563333Y-62522403D01*
X73564597Y-62523474D01*
X73581135Y-62536602D01*
X73593144Y-62544568D01*
X73595573Y-62545543D01*
X73602728Y-62552504D01*
X73604343Y-62556688D01*
X73611010Y-62564743D01*
X73614495Y-62564892D01*
X73624572Y-62568417D01*
X73629942Y-62573954D01*
X73639384Y-62584130D01*
X73656621Y-62600437D01*
X73678021Y-62619447D01*
X73679250Y-62620505D01*
X73700717Y-62639309D01*
X73718231Y-62655272D01*
X73728193Y-62665109D01*
X73728482Y-62665445D01*
X73739305Y-62676793D01*
X73754856Y-62691611D01*
X73756100Y-62692746D01*
X73771162Y-62707726D01*
X73793015Y-62731099D01*
X73818914Y-62759814D01*
X73846111Y-62790817D01*
X73871862Y-62821057D01*
X73876264Y-62826344D01*
X73893489Y-62845220D01*
X73910623Y-62861279D01*
X73911767Y-62862212D01*
X73926873Y-62881555D01*
X73937971Y-62909644D01*
X73942406Y-62940867D01*
X73938154Y-62960688D01*
X73930329Y-62976978D01*
X73919343Y-63000887D01*
X73910794Y-63019989D01*
X73893293Y-63056691D01*
X73876378Y-63086960D01*
X73861552Y-63108375D01*
X73850316Y-63118516D01*
X73849430Y-63118821D01*
X73842200Y-63125288D01*
X73842221Y-63127888D01*
X73837625Y-63135547D01*
X73824076Y-63144830D01*
X73823682Y-63145035D01*
X73809936Y-63154136D01*
X73804960Y-63161487D01*
X73804988Y-63161612D01*
X73800290Y-63168866D01*
X73786705Y-63177973D01*
X73786295Y-63178188D01*
X73772590Y-63187456D01*
X73767726Y-63195204D01*
X73767755Y-63195334D01*
X73763861Y-63203151D01*
X73761557Y-63204094D01*
X73750704Y-63210078D01*
X73734625Y-63222073D01*
X73717213Y-63236732D01*
X73702361Y-63250703D01*
X73693963Y-63260638D01*
X73693302Y-63262823D01*
X73687996Y-63268425D01*
X73672288Y-63274343D01*
X73650620Y-63279659D01*
X73627436Y-63283450D01*
X73607180Y-63284799D01*
X73595099Y-63283152D01*
X73575570Y-63279193D01*
X73563428Y-63280072D01*
X73544662Y-63280307D01*
X73531756Y-63276991D01*
X73512705Y-63274891D01*
X73481809Y-63279558D01*
X73459681Y-63284982D01*
X73426787Y-63292194D01*
X73394755Y-63296559D01*
X73370921Y-63297198D01*
X73342213Y-63297834D01*
X73309513Y-63302860D01*
X73277301Y-63311082D01*
X73250061Y-63321307D01*
X73232272Y-63332342D01*
X73230136Y-63334676D01*
X73214739Y-63348025D01*
X73203318Y-63353428D01*
X73192324Y-63362092D01*
X73176831Y-63381638D01*
X73158479Y-63409374D01*
X73138910Y-63442608D01*
X73119761Y-63478648D01*
X73102673Y-63514804D01*
X73097241Y-63527575D01*
X73086465Y-63552121D01*
X73077132Y-63566508D01*
X73065642Y-63574601D01*
X73048398Y-63580259D01*
X73048067Y-63580349D01*
X73028933Y-63584108D01*
X73017116Y-63583833D01*
X73015522Y-63582483D01*
X73008666Y-63574803D01*
X72993915Y-63563828D01*
X72990734Y-63561779D01*
X72972703Y-63552832D01*
X72956767Y-63553165D01*
X72941778Y-63558946D01*
X72918514Y-63571333D01*
X72897636Y-63585218D01*
X72896885Y-63585807D01*
X72854983Y-63616275D01*
X72811862Y-63643024D01*
X72809456Y-63644362D01*
X72792349Y-63655643D01*
X72781500Y-63666096D01*
X72781125Y-63666699D01*
X72769793Y-63676456D01*
X72759144Y-63680899D01*
X72741915Y-63688491D01*
X72722631Y-63700857D01*
X72721853Y-63701451D01*
X72682318Y-63730137D01*
X72642405Y-63756080D01*
X72635204Y-63760378D01*
X72599134Y-63783155D01*
X72567200Y-63806334D01*
X72553100Y-63818147D01*
X72537621Y-63829982D01*
X72525969Y-63835916D01*
X72513180Y-63842748D01*
X72497582Y-63855041D01*
X72480334Y-63867953D01*
X72465116Y-63875308D01*
X72450404Y-63882082D01*
X72445086Y-63886893D01*
X72436601Y-63894990D01*
X72419773Y-63908518D01*
X72401034Y-63922506D01*
X72378546Y-63938891D01*
X72359434Y-63953039D01*
X72349540Y-63960565D01*
X72336625Y-63970455D01*
X72316803Y-63985332D01*
X72301405Y-63996766D01*
X72278194Y-64014126D01*
X72256847Y-64030429D01*
X72246956Y-64038187D01*
X72228303Y-64053011D01*
X72206559Y-64070137D01*
X72202408Y-64073387D01*
X72186612Y-64086199D01*
X72162886Y-64105997D01*
X72134543Y-64129997D01*
X72107159Y-64153461D01*
X72066939Y-64186512D01*
X72035041Y-64208779D01*
X72010162Y-64220850D01*
X71990998Y-64223306D01*
X71976244Y-64216737D01*
X71973002Y-64213657D01*
X71958882Y-64200308D01*
X71949979Y-64193502D01*
X71937387Y-64184742D01*
X71920154Y-64171904D01*
X71918224Y-64170422D01*
X71896515Y-64154459D01*
X71875365Y-64139977D01*
X71854156Y-64124170D01*
X71836669Y-64108516D01*
X71804397Y-64085839D01*
X71766053Y-64074850D01*
X71725274Y-64075938D01*
X71685695Y-64089490D01*
X71681260Y-64091936D01*
X71654891Y-64104769D01*
X71625341Y-64115914D01*
X71618531Y-64117956D01*
X71590671Y-64127232D01*
X71563503Y-64138599D01*
X71557497Y-64141583D01*
X71533730Y-64154001D01*
X71506173Y-64168334D01*
X71496593Y-64173301D01*
X71475050Y-64185229D01*
X71458301Y-64195867D01*
X71453276Y-64199816D01*
X71440716Y-64208509D01*
X71421084Y-64219100D01*
X71414925Y-64222018D01*
X71396528Y-64231866D01*
X71385143Y-64240656D01*
X71383732Y-64242897D01*
X71375352Y-64251492D01*
X71370353Y-64253522D01*
X71357186Y-64260105D01*
X71340358Y-64272021D01*
X71339354Y-64272838D01*
X71321534Y-64287247D01*
X71298836Y-64305327D01*
X71287581Y-64314203D01*
X71264862Y-64332882D01*
X71234058Y-64359405D01*
X71197892Y-64391371D01*
X71159090Y-64426376D01*
X71128450Y-64454521D01*
X71114440Y-64468701D01*
X71106513Y-64479026D01*
X71105946Y-64480526D01*
X71099141Y-64488065D01*
X71098071Y-64488421D01*
X71089964Y-64494628D01*
X71073652Y-64510203D01*
X71050793Y-64533348D01*
X71023043Y-64562266D01*
X70992061Y-64595160D01*
X70959505Y-64630231D01*
X70927031Y-64665683D01*
X70896298Y-64699718D01*
X70868963Y-64730539D01*
X70846683Y-64756348D01*
X70831117Y-64775349D01*
X70823974Y-64785628D01*
X70818383Y-64793924D01*
X70806410Y-64810034D01*
X70794245Y-64825837D01*
X70770229Y-64857942D01*
X70741962Y-64898256D01*
X70708786Y-64947769D01*
X70670045Y-65007476D01*
X70625083Y-65078371D01*
X70586126Y-65140698D01*
X70566876Y-65170091D01*
X70548376Y-65195624D01*
X70533147Y-65213951D01*
X70525881Y-65220637D01*
X70508249Y-65239391D01*
X70499599Y-65266346D01*
X70499795Y-65302756D01*
X70508707Y-65349881D01*
X70511199Y-65359495D01*
X70521365Y-65394570D01*
X70530130Y-65417638D01*
X70538640Y-65431368D01*
X70543962Y-65436145D01*
X70566966Y-65458583D01*
X70589385Y-65492910D01*
X70599309Y-65512734D01*
X70610923Y-65533584D01*
X70623378Y-65549779D01*
X70625505Y-65551771D01*
X70635357Y-65565671D01*
X70644864Y-65587722D01*
X70648469Y-65599599D01*
X70652995Y-65619348D01*
X70653062Y-65633572D01*
X70647187Y-65647249D01*
X70633884Y-65665354D01*
X70625898Y-65675262D01*
X70609135Y-65698103D01*
X70596749Y-65719050D01*
X70591661Y-65732631D01*
X70588595Y-65743335D01*
X70580316Y-65750792D01*
X70563217Y-65757373D01*
X70547111Y-65761920D01*
X70519532Y-65767992D01*
X70494111Y-65771419D01*
X70482066Y-65771701D01*
X70468660Y-65772787D01*
X70443236Y-65776601D01*
X70408321Y-65782647D01*
X70366443Y-65790431D01*
X70320126Y-65799455D01*
X70271899Y-65809222D01*
X70224287Y-65819237D01*
X70179817Y-65829002D01*
X70141016Y-65838024D01*
X70127501Y-65841349D01*
X70101424Y-65849242D01*
X70068179Y-65861149D01*
X70034094Y-65874773D01*
X70027211Y-65877729D01*
X69997194Y-65891336D01*
X69977252Y-65902408D01*
X69963580Y-65913820D01*
X69952372Y-65928446D01*
X69945591Y-65939384D01*
X69931810Y-65965175D01*
X69923536Y-65989295D01*
X69920685Y-66015003D01*
X69889034Y-66015003D01*
X69869131Y-65944139D01*
X69890527Y-65908330D01*
G37*
G36*
X78124957Y-64548855D02*
G01*
X78132518Y-64571728D01*
X78139872Y-64581636D01*
X78144619Y-64582143D01*
X78157797Y-64585657D01*
X78169248Y-64603808D01*
X78176065Y-64624473D01*
X78183450Y-64642205D01*
X78192889Y-64646309D01*
X78193447Y-64646174D01*
X78202188Y-64648886D01*
X78209489Y-64663714D01*
X78212012Y-64672288D01*
X78220327Y-64693369D01*
X78230118Y-64702344D01*
X78230795Y-64702449D01*
X78243296Y-64710841D01*
X78254896Y-64731841D01*
X78264578Y-64763163D01*
X78269600Y-64789548D01*
X78276017Y-64832259D01*
X78247989Y-64839769D01*
X78228081Y-64843326D01*
X78215755Y-64839329D01*
X78207999Y-64830704D01*
X78197378Y-64811282D01*
X78189529Y-64789840D01*
X78182829Y-64772604D01*
X78175264Y-64763280D01*
X78174634Y-64763031D01*
X78167944Y-64754920D01*
X78160407Y-64737151D01*
X78156928Y-64725733D01*
X78148422Y-64701558D01*
X78139069Y-64690657D01*
X78135707Y-64689703D01*
X78126157Y-64683096D01*
X78117627Y-64664228D01*
X78114105Y-64652254D01*
X78107300Y-64632003D01*
X78100496Y-64619772D01*
X78097211Y-64617980D01*
X78091680Y-64612381D01*
X78084416Y-64595566D01*
X78077485Y-64573142D01*
X78064954Y-64526376D01*
X78115318Y-64512881D01*
X78124957Y-64548855D01*
G37*
G36*
X77982996Y-62344765D02*
G01*
X78030297Y-62350603D01*
X78037455Y-62351624D01*
X78096574Y-62362606D01*
X78149816Y-62378356D01*
X78199770Y-62400301D01*
X78249021Y-62429870D01*
X78300157Y-62468493D01*
X78355765Y-62517597D01*
X78380356Y-62540993D01*
X78407029Y-62566621D01*
X78435205Y-62593405D01*
X78458846Y-62615608D01*
X78459133Y-62615874D01*
X78510872Y-62670343D01*
X78561631Y-62735814D01*
X78608722Y-62808490D01*
X78649459Y-62884571D01*
X78649967Y-62885633D01*
X78659335Y-62907806D01*
X78669513Y-62935949D01*
X78679553Y-62966823D01*
X78688510Y-62997193D01*
X78695439Y-63023821D01*
X78699393Y-63043469D01*
X78699426Y-63052902D01*
X78698957Y-63053262D01*
X78690435Y-63051768D01*
X78670889Y-63046823D01*
X78643556Y-63039275D01*
X78622225Y-63033106D01*
X78547939Y-63013036D01*
X78482557Y-62999903D01*
X78422191Y-62993683D01*
X78362958Y-62994351D01*
X78300970Y-63001886D01*
X78232343Y-63016262D01*
X78178081Y-63030438D01*
X78069674Y-63067388D01*
X77968849Y-63115902D01*
X77922069Y-63144128D01*
X77904859Y-63155084D01*
X77881008Y-63170012D01*
X77862649Y-63181383D01*
X77829691Y-63201935D01*
X77794845Y-63224080D01*
X77760936Y-63245977D01*
X77730786Y-63265784D01*
X77707222Y-63281661D01*
X77693068Y-63291767D01*
X77691963Y-63292643D01*
X77678427Y-63302682D01*
X77658152Y-63316639D01*
X77646481Y-63324357D01*
X77620168Y-63342394D01*
X77593301Y-63362168D01*
X77585075Y-63368594D01*
X77537222Y-63407123D01*
X77496234Y-63440829D01*
X77460118Y-63471628D01*
X77426876Y-63501433D01*
X77394514Y-63532160D01*
X77361036Y-63565723D01*
X77324446Y-63604036D01*
X77282747Y-63649016D01*
X77233946Y-63702576D01*
X77213944Y-63724670D01*
X77188634Y-63752061D01*
X77155420Y-63787137D01*
X77117007Y-63827124D01*
X77076093Y-63869245D01*
X77035384Y-63910724D01*
X76997581Y-63948785D01*
X76965385Y-63980654D01*
X76953923Y-63991777D01*
X76893526Y-64047950D01*
X76835933Y-64097116D01*
X76775210Y-64144332D01*
X76771840Y-64146840D01*
X76696206Y-64200665D01*
X76626267Y-64244902D01*
X76558204Y-64281425D01*
X76488189Y-64312102D01*
X76412401Y-64338807D01*
X76332118Y-64362054D01*
X76286041Y-64374126D01*
X76250155Y-64382728D01*
X76220332Y-64388485D01*
X76192441Y-64392025D01*
X76162350Y-64393969D01*
X76125930Y-64394945D01*
X76113495Y-64395137D01*
X76037321Y-64395937D01*
X75974366Y-64395867D01*
X75922968Y-64394760D01*
X75881466Y-64392452D01*
X75848199Y-64388774D01*
X75821504Y-64383562D01*
X75799721Y-64376649D01*
X75781188Y-64367869D01*
X75769596Y-64360749D01*
X75746768Y-64348836D01*
X75724444Y-64342297D01*
X75717261Y-64341829D01*
X75699389Y-64340878D01*
X75688928Y-64337312D01*
X75677675Y-64334457D01*
X75668367Y-64335703D01*
X75650823Y-64337308D01*
X75628850Y-64335729D01*
X75628322Y-64335646D01*
X75603326Y-64333058D01*
X75569854Y-64332059D01*
X75525346Y-64332606D01*
X75499317Y-64333404D01*
X75476802Y-64333189D01*
X75460157Y-64331243D01*
X75456378Y-64330001D01*
X75443637Y-64328541D01*
X75425046Y-64331498D01*
X75401375Y-64332932D01*
X75380124Y-64328112D01*
X75362544Y-64322061D01*
X75350725Y-64320571D01*
X75350526Y-64320619D01*
X75332842Y-64319879D01*
X75308702Y-64312347D01*
X75283527Y-64300231D01*
X75262735Y-64285736D01*
X75261074Y-64284210D01*
X75240917Y-64267677D01*
X75220562Y-64254770D01*
X75216806Y-64252969D01*
X75195801Y-64243797D01*
X75238598Y-64173216D01*
X75269208Y-64126786D01*
X75300332Y-64088954D01*
X75335185Y-64055290D01*
X75363234Y-64029191D01*
X75379639Y-64009633D01*
X75385040Y-63994723D01*
X75380077Y-63982573D01*
X75365391Y-63971294D01*
X75363911Y-63970429D01*
X75339821Y-63958679D01*
X75315982Y-63952733D01*
X75288849Y-63952549D01*
X75254872Y-63958089D01*
X75212669Y-63968713D01*
X75134351Y-63995771D01*
X75067735Y-64031009D01*
X75011475Y-64075410D01*
X74964225Y-64129961D01*
X74938981Y-64169116D01*
X74913239Y-64220470D01*
X74895043Y-64273873D01*
X74883136Y-64333771D01*
X74877507Y-64386533D01*
X74875808Y-64422087D01*
X74877704Y-64450614D01*
X74884084Y-64479739D01*
X74891003Y-64502444D01*
X74907822Y-64549060D01*
X74925926Y-64589897D01*
X74944004Y-64622444D01*
X74960748Y-64644191D01*
X74968020Y-64650113D01*
X74980722Y-64656742D01*
X74988477Y-64653937D01*
X74996275Y-64642952D01*
X75004329Y-64625493D01*
X75012292Y-64600443D01*
X75015845Y-64585561D01*
X75024576Y-64550464D01*
X75037123Y-64508761D01*
X75051272Y-64467464D01*
X75061303Y-64441685D01*
X75067744Y-64431066D01*
X75076297Y-64429278D01*
X75089331Y-64437127D01*
X75109219Y-64455424D01*
X75113217Y-64459396D01*
X75137000Y-64481342D01*
X75170416Y-64509664D01*
X75210818Y-64542319D01*
X75255549Y-64577260D01*
X75301962Y-64612441D01*
X75347401Y-64645819D01*
X75389215Y-64675346D01*
X75419290Y-64695478D01*
X75455282Y-64719593D01*
X75498125Y-64749630D01*
X75543059Y-64782181D01*
X75585323Y-64813835D01*
X75595604Y-64821742D01*
X75627665Y-64846507D01*
X75656216Y-64868366D01*
X75683354Y-64888862D01*
X75711176Y-64909533D01*
X75741783Y-64931922D01*
X75777270Y-64957569D01*
X75819738Y-64988016D01*
X75871283Y-65024802D01*
X75899217Y-65044701D01*
X75962524Y-65088203D01*
X76029868Y-65131674D01*
X76097834Y-65173069D01*
X76163008Y-65210344D01*
X76221970Y-65241454D01*
X76251535Y-65255662D01*
X76281573Y-65269940D01*
X76320135Y-65288994D01*
X76362634Y-65310525D01*
X76404487Y-65332229D01*
X76411905Y-65336139D01*
X76472766Y-65367918D01*
X76524161Y-65393635D01*
X76569512Y-65414700D01*
X76612239Y-65432532D01*
X76655764Y-65448539D01*
X76703507Y-65464137D01*
X76758888Y-65480738D01*
X76769052Y-65483686D01*
X76820624Y-65498345D01*
X76865621Y-65510387D01*
X76906970Y-65520355D01*
X76947595Y-65528788D01*
X76990425Y-65536228D01*
X77038385Y-65543217D01*
X77094403Y-65550295D01*
X77161404Y-65558003D01*
X77185374Y-65560661D01*
X77255199Y-65568157D01*
X77312915Y-65573638D01*
X77361189Y-65576995D01*
X77402684Y-65578114D01*
X77440070Y-65576885D01*
X77476012Y-65573194D01*
X77513176Y-65566930D01*
X77554228Y-65557979D01*
X77601834Y-65546233D01*
X77616217Y-65542552D01*
X77676954Y-65525954D01*
X77725856Y-65509937D01*
X77765839Y-65493006D01*
X77799823Y-65473666D01*
X77830724Y-65450425D01*
X77861461Y-65421791D01*
X77870731Y-65412294D01*
X77906923Y-65368231D01*
X77929062Y-65325658D01*
X77937752Y-65283391D01*
X77937871Y-65280438D01*
X77935968Y-65259291D01*
X77930028Y-65227673D01*
X77921033Y-65189138D01*
X77909963Y-65147241D01*
X77897800Y-65105537D01*
X77885522Y-65067580D01*
X77874112Y-65036928D01*
X77865833Y-65019281D01*
X77851158Y-64992801D01*
X77836569Y-64965395D01*
X77833871Y-64960156D01*
X77822812Y-64940499D01*
X77806264Y-64913452D01*
X77787226Y-64883871D01*
X77780748Y-64874141D01*
X77740470Y-64814168D01*
X77707627Y-64765099D01*
X77681288Y-64725514D01*
X77660515Y-64693996D01*
X77644377Y-64669124D01*
X77631939Y-64649478D01*
X77622268Y-64633640D01*
X77620184Y-64630128D01*
X77601545Y-64597344D01*
X77582809Y-64562365D01*
X77565714Y-64528659D01*
X77552000Y-64499691D01*
X77543406Y-64478928D01*
X77541927Y-64474227D01*
X77535989Y-64458238D01*
X77525384Y-64435002D01*
X77515629Y-64415726D01*
X77502343Y-64388743D01*
X77485018Y-64350747D01*
X77464869Y-64304663D01*
X77443113Y-64253420D01*
X77420965Y-64199941D01*
X77399642Y-64147155D01*
X77380362Y-64097986D01*
X77364336Y-64055361D01*
X77355564Y-64030563D01*
X77347843Y-64003827D01*
X77339252Y-63967723D01*
X77331007Y-63927627D01*
X77326025Y-63899672D01*
X77320166Y-63863839D01*
X77317114Y-63837320D01*
X77318102Y-63816850D01*
X77324360Y-63799158D01*
X77337119Y-63780981D01*
X77357610Y-63759047D01*
X77387064Y-63730090D01*
X77391577Y-63725678D01*
X77427614Y-63690480D01*
X77454510Y-63664522D01*
X77473739Y-63646592D01*
X77486771Y-63635476D01*
X77495079Y-63629960D01*
X77500138Y-63628833D01*
X77503418Y-63630881D01*
X77504686Y-63632486D01*
X77508876Y-63644855D01*
X77512060Y-63665971D01*
X77512912Y-63677607D01*
X77517410Y-63732545D01*
X77525775Y-63797391D01*
X77537217Y-63867902D01*
X77550948Y-63939834D01*
X77566178Y-64008944D01*
X77582118Y-64070990D01*
X77592545Y-64105706D01*
X77636735Y-64236375D01*
X77683253Y-64362092D01*
X77733829Y-64487150D01*
X77790192Y-64615844D01*
X77847550Y-64738857D01*
X77863133Y-64770629D01*
X77877883Y-64798398D01*
X77894302Y-64826498D01*
X77914896Y-64859265D01*
X77934326Y-64889114D01*
X77959680Y-64928386D01*
X77981210Y-64963552D01*
X78000663Y-64997892D01*
X78019781Y-65034687D01*
X78040311Y-65077216D01*
X78063997Y-65128762D01*
X78076127Y-65155719D01*
X78097673Y-65204483D01*
X78113365Y-65242109D01*
X78123819Y-65270878D01*
X78129656Y-65293068D01*
X78131494Y-65310961D01*
X78129951Y-65326835D01*
X78126342Y-65340770D01*
X78114585Y-65375574D01*
X78101961Y-65404432D01*
X78086533Y-65429577D01*
X78066359Y-65453242D01*
X78039505Y-65477662D01*
X78004028Y-65505071D01*
X77957991Y-65537702D01*
X77951557Y-65542149D01*
X77919803Y-65563887D01*
X77895052Y-65579880D01*
X77873512Y-65591880D01*
X77851394Y-65601644D01*
X77824902Y-65610926D01*
X77790247Y-65621482D01*
X77762889Y-65629467D01*
X77721637Y-65640920D01*
X77682132Y-65650929D01*
X77648124Y-65658607D01*
X77623360Y-65663073D01*
X77617832Y-65663692D01*
X77591332Y-65665839D01*
X77557076Y-65668638D01*
X77522155Y-65671508D01*
X77519731Y-65671708D01*
X77468328Y-65675898D01*
X77429767Y-65678872D01*
X77402056Y-65680717D01*
X77383194Y-65681523D01*
X77371187Y-65681378D01*
X77364037Y-65680370D01*
X77360070Y-65678777D01*
X77345340Y-65675905D01*
X77341030Y-65676569D01*
X77328806Y-65676967D01*
X77305111Y-65675502D01*
X77273201Y-65672522D01*
X77236337Y-65668377D01*
X77197777Y-65663418D01*
X77160779Y-65657992D01*
X77147164Y-65655774D01*
X77121346Y-65652147D01*
X77100558Y-65650537D01*
X77091008Y-65651025D01*
X77077903Y-65650566D01*
X77074528Y-65648604D01*
X77064030Y-65645699D01*
X77045231Y-65645259D01*
X77040483Y-65645562D01*
X77005347Y-65646831D01*
X76964553Y-65646051D01*
X76926247Y-65643473D01*
X76910151Y-65641527D01*
X76889450Y-65639103D01*
X76861052Y-65636589D01*
X76839010Y-65635038D01*
X76748971Y-65628723D01*
X76671451Y-65621501D01*
X76604082Y-65613105D01*
X76544500Y-65603261D01*
X76520770Y-65598533D01*
X76471639Y-65588691D01*
X76432443Y-65582181D01*
X76398719Y-65578504D01*
X76366007Y-65577160D01*
X76333360Y-65577543D01*
X76303821Y-65576244D01*
X76265208Y-65571548D01*
X76222738Y-65564265D01*
X76181628Y-65555212D01*
X76168971Y-65551898D01*
X76148437Y-65546491D01*
X76120089Y-65539317D01*
X76094508Y-65533015D01*
X76065386Y-65525561D01*
X76027952Y-65515447D01*
X75988158Y-65504297D01*
X75967304Y-65498276D01*
X75934013Y-65488575D01*
X75904941Y-65480158D01*
X75883749Y-65474083D01*
X75875218Y-65471695D01*
X75863749Y-65467518D01*
X75842537Y-65458939D01*
X75815448Y-65447611D01*
X75786348Y-65435185D01*
X75759109Y-65423314D01*
X75737594Y-65413650D01*
X75725674Y-65407844D01*
X75725494Y-65407741D01*
X75710921Y-65400465D01*
X75685798Y-65389113D01*
X75653433Y-65375072D01*
X75617136Y-65359728D01*
X75580216Y-65344469D01*
X75545982Y-65330682D01*
X75517742Y-65319751D01*
X75502279Y-65314194D01*
X75474205Y-65305377D01*
X75455924Y-65301769D01*
X75443387Y-65303080D01*
X75432543Y-65309014D01*
X75432373Y-65309137D01*
X75417533Y-65316683D01*
X75399664Y-65317504D01*
X75381269Y-65314245D01*
X75360093Y-65308937D01*
X75345535Y-65304146D01*
X75342592Y-65302587D01*
X75334215Y-65298393D01*
X75314667Y-65289785D01*
X75286601Y-65277897D01*
X75252671Y-65263866D01*
X75241318Y-65259236D01*
X75178458Y-65232823D01*
X75119136Y-65205914D01*
X75059810Y-65176736D01*
X74996937Y-65143514D01*
X74926979Y-65104476D01*
X74890727Y-65083663D01*
X74782532Y-65019706D01*
X74686548Y-64959826D01*
X74601076Y-64902759D01*
X74524422Y-64847237D01*
X74454892Y-64791991D01*
X74390788Y-64735756D01*
X74330416Y-64677264D01*
X74289473Y-64634303D01*
X74265275Y-64605666D01*
X74249562Y-64579560D01*
X74242307Y-64553354D01*
X74243484Y-64524416D01*
X74253066Y-64490113D01*
X74271028Y-64447814D01*
X74287270Y-64414614D01*
X74302690Y-64383658D01*
X74320349Y-64347622D01*
X74334630Y-64318044D01*
X74369266Y-64247461D01*
X74404401Y-64180038D01*
X74441510Y-64112557D01*
X74461044Y-64077584D01*
X74481464Y-64040747D01*
X74499296Y-64008327D01*
X74504438Y-63998896D01*
X74537085Y-63942490D01*
X74568362Y-63897058D01*
X74600993Y-63859249D01*
X74637703Y-63825714D01*
X74658500Y-63809455D01*
X74700955Y-63782477D01*
X74741676Y-63767705D01*
X74785148Y-63763809D01*
X74807406Y-63765314D01*
X74841542Y-63767721D01*
X74878495Y-63768516D01*
X74894187Y-63768194D01*
X74945231Y-63769034D01*
X74994591Y-63776543D01*
X75045757Y-63791665D01*
X75102223Y-63815339D01*
X75141626Y-63834829D01*
X75161375Y-63844216D01*
X75175538Y-63849444D01*
X75179048Y-63849864D01*
X75188860Y-63851064D01*
X75207602Y-63855744D01*
X75219514Y-63859265D01*
X75283308Y-63876552D01*
X75348916Y-63889781D01*
X75412349Y-63898389D01*
X75469615Y-63901814D01*
X75510326Y-63900245D01*
X75539133Y-63897290D01*
X75573675Y-63893774D01*
X75596812Y-63891433D01*
X75652724Y-63885579D01*
X75696652Y-63880282D01*
X75731461Y-63874924D01*
X75760019Y-63868881D01*
X75785191Y-63861536D01*
X75809844Y-63852266D01*
X75836844Y-63840453D01*
X75840878Y-63838605D01*
X75870132Y-63824910D01*
X75894098Y-63813225D01*
X75909664Y-63805095D01*
X75913837Y-63802414D01*
X75924149Y-63794889D01*
X75943676Y-63783015D01*
X75968291Y-63769063D01*
X75993863Y-63755304D01*
X76016263Y-63744008D01*
X76031361Y-63737444D01*
X76032842Y-63736980D01*
X76048467Y-63728760D01*
X76072323Y-63711298D01*
X76102538Y-63686302D01*
X76137239Y-63655477D01*
X76174557Y-63620530D01*
X76212617Y-63583168D01*
X76249549Y-63545097D01*
X76281303Y-63510481D01*
X76307615Y-63479508D01*
X76338013Y-63441532D01*
X76370825Y-63398869D01*
X76404374Y-63353836D01*
X76436985Y-63308751D01*
X76466981Y-63265932D01*
X76492688Y-63227695D01*
X76512430Y-63196358D01*
X76524530Y-63174239D01*
X76524718Y-63173829D01*
X76543733Y-63127782D01*
X76554141Y-63092216D01*
X76555768Y-63067772D01*
X76555116Y-63064613D01*
X76554400Y-63052042D01*
X76559557Y-63036397D01*
X76571898Y-63014784D01*
X76589317Y-62989131D01*
X76616846Y-62950398D01*
X76638412Y-62921792D01*
X76656626Y-62901262D01*
X76674098Y-62886755D01*
X76693440Y-62876213D01*
X76717260Y-62867585D01*
X76748170Y-62858815D01*
X76758421Y-62856062D01*
X76801845Y-62845684D01*
X76850271Y-62836078D01*
X76896008Y-62828702D01*
X76915465Y-62826306D01*
X76956754Y-62820767D01*
X77000614Y-62812269D01*
X77050748Y-62799990D01*
X77110858Y-62783108D01*
X77114081Y-62782160D01*
X77159808Y-62768542D01*
X77194302Y-62757655D01*
X77220667Y-62748194D01*
X77242013Y-62738853D01*
X77261445Y-62728327D01*
X77282069Y-62715309D01*
X77297059Y-62705250D01*
X77325489Y-62684899D01*
X77360961Y-62657915D01*
X77399345Y-62627520D01*
X77436511Y-62596937D01*
X77443758Y-62590806D01*
X77483146Y-62557661D01*
X77515687Y-62531386D01*
X77545590Y-62508870D01*
X77577070Y-62487002D01*
X77614339Y-62462673D01*
X77635603Y-62449154D01*
X77710099Y-62407692D01*
X77788077Y-62374532D01*
X77840282Y-62358053D01*
X77878248Y-62348934D01*
X77911601Y-62343780D01*
X77944974Y-62342442D01*
X77982996Y-62344765D01*
G37*
G36*
X76778516Y-64544404D02*
G01*
X76801790Y-64554064D01*
X76809923Y-64557815D01*
X76836701Y-64570433D01*
X76855712Y-64580377D01*
X76871809Y-64590756D01*
X76889841Y-64604679D01*
X76913132Y-64623980D01*
X76933322Y-64642213D01*
X76957063Y-64666355D01*
X76985659Y-64697852D01*
X77020417Y-64738149D01*
X77062644Y-64788690D01*
X77069475Y-64796969D01*
X77132367Y-64871626D01*
X77189306Y-64935413D01*
X77242195Y-64990119D01*
X77292934Y-65037535D01*
X77343421Y-65079450D01*
X77395561Y-65117654D01*
X77443165Y-65148903D01*
X77464491Y-65164051D01*
X77478293Y-65177413D01*
X77481832Y-65185004D01*
X77475025Y-65193989D01*
X77458446Y-65206344D01*
X77438457Y-65217896D01*
X77415382Y-65228545D01*
X77385738Y-65240471D01*
X77352720Y-65252606D01*
X77319523Y-65263881D01*
X77289343Y-65273228D01*
X77265374Y-65279579D01*
X77250813Y-65281866D01*
X77248396Y-65281438D01*
X77239196Y-65281391D01*
X77218536Y-65283757D01*
X77189580Y-65288114D01*
X77159059Y-65293383D01*
X77071813Y-65303290D01*
X76979448Y-65303014D01*
X76886943Y-65292949D01*
X76799274Y-65273488D01*
X76763587Y-65262077D01*
X76731916Y-65253351D01*
X76695443Y-65246850D01*
X76673857Y-65244735D01*
X76646648Y-65242515D01*
X76624120Y-65239325D01*
X76612660Y-65236372D01*
X76597262Y-65231306D01*
X76574808Y-65225717D01*
X76567384Y-65224157D01*
X76545278Y-65218714D01*
X76514716Y-65209878D01*
X76481262Y-65199284D01*
X76471128Y-65195882D01*
X76434068Y-65183590D01*
X76394519Y-65171010D01*
X76360073Y-65160546D01*
X76355056Y-65159090D01*
X76325845Y-65149372D01*
X76299715Y-65138405D01*
X76282715Y-65128818D01*
X76263508Y-65115597D01*
X76235115Y-65097547D01*
X76201411Y-65077012D01*
X76166271Y-65056332D01*
X76133565Y-65037849D01*
X76120936Y-65031012D01*
X76079274Y-65007582D01*
X76030620Y-64978161D01*
X75979852Y-64945760D01*
X75942229Y-64920569D01*
X75911228Y-64897119D01*
X75893054Y-64876370D01*
X75886845Y-64855165D01*
X75891729Y-64830342D01*
X75906844Y-64798742D01*
X75908159Y-64796380D01*
X75924362Y-64770527D01*
X75937806Y-64755163D01*
X75945428Y-64751667D01*
X75956187Y-64745812D01*
X75966274Y-64727934D01*
X75966820Y-64726504D01*
X75985084Y-64694725D01*
X76011395Y-64671444D01*
X76032384Y-64662247D01*
X76052813Y-64653043D01*
X76070243Y-64640536D01*
X76090802Y-64626513D01*
X76110697Y-64618177D01*
X76135552Y-64615416D01*
X76171510Y-64616566D01*
X76215458Y-64621090D01*
X76264277Y-64628450D01*
X76314856Y-64638112D01*
X76364078Y-64649536D01*
X76408828Y-64662188D01*
X76445991Y-64675531D01*
X76447618Y-64676217D01*
X76462794Y-64683044D01*
X76480460Y-64691814D01*
X76501980Y-64703311D01*
X76528713Y-64718318D01*
X76562023Y-64737620D01*
X76603270Y-64761999D01*
X76653815Y-64792239D01*
X76715020Y-64829125D01*
X76749142Y-64849757D01*
X76771974Y-64861795D01*
X76790155Y-64865604D01*
X76810465Y-64862507D01*
X76812199Y-64862050D01*
X76839757Y-64849746D01*
X76852360Y-64835866D01*
X76859025Y-64821306D01*
X76860094Y-64807961D01*
X76854293Y-64794373D01*
X76840349Y-64779076D01*
X76816989Y-64760611D01*
X76782939Y-64737515D01*
X76746537Y-64714338D01*
X76710987Y-64691453D01*
X76680059Y-64670427D01*
X76655930Y-64652830D01*
X76640772Y-64640228D01*
X76636612Y-64635058D01*
X76638353Y-64621753D01*
X76646547Y-64602069D01*
X76652484Y-64591514D01*
X76664491Y-64573852D01*
X76676598Y-64562807D01*
X76693828Y-64555021D01*
X76717280Y-64548180D01*
X76742384Y-64542098D01*
X76760755Y-64540627D01*
X76778516Y-64544404D01*
G37*
G36*
X70071578Y-66017408D02*
G01*
X70110073Y-66030829D01*
X70156989Y-66054279D01*
X70178454Y-66066724D01*
X70210580Y-66086654D01*
X70233942Y-66102420D01*
X70247818Y-66113302D01*
X70251484Y-66118579D01*
X70244218Y-66117532D01*
X70225296Y-66109441D01*
X70217606Y-66105715D01*
X70184119Y-66095973D01*
X70152871Y-66098826D01*
X70126324Y-66112339D01*
X70106944Y-66134573D01*
X70097195Y-66163592D01*
X70099541Y-66197459D01*
X70099770Y-66198327D01*
X70108609Y-66220381D01*
X70125037Y-66251430D01*
X70147327Y-66288848D01*
X70173752Y-66330005D01*
X70202587Y-66372274D01*
X70232102Y-66413025D01*
X70260571Y-66449630D01*
X70279762Y-66472293D01*
X70309657Y-66505842D01*
X70331541Y-66530084D01*
X70347247Y-66546892D01*
X70358609Y-66558140D01*
X70367461Y-66565702D01*
X70375634Y-66571452D01*
X70378649Y-66573367D01*
X70394626Y-66584708D01*
X70415055Y-66600877D01*
X70423332Y-66607845D01*
X70443464Y-66624648D01*
X70461655Y-66638988D01*
X70467150Y-66643019D01*
X70514759Y-66676147D01*
X70552308Y-66701433D01*
X70581656Y-66719974D01*
X70604662Y-66732866D01*
X70623187Y-66741206D01*
X70639088Y-66746091D01*
X70643450Y-66747014D01*
X70673664Y-66750581D01*
X70695064Y-66746717D01*
X70712294Y-66734371D01*
X70715739Y-66730691D01*
X70726462Y-66709603D01*
X70730948Y-66681398D01*
X70728727Y-66652694D01*
X70722552Y-66635143D01*
X70712812Y-66616421D01*
X70700855Y-66592398D01*
X70696823Y-66584070D01*
X70685067Y-66562019D01*
X70673569Y-66544219D01*
X70669905Y-66539738D01*
X70658821Y-66523869D01*
X70654799Y-66514355D01*
X70647358Y-66499684D01*
X70634984Y-66483574D01*
X70622423Y-66467302D01*
X70615447Y-66453654D01*
X70607199Y-66439563D01*
X70597875Y-66430327D01*
X70584599Y-66415147D01*
X70579239Y-66403944D01*
X70569749Y-66388558D01*
X70561716Y-66382633D01*
X70549378Y-66373102D01*
X70546006Y-66367170D01*
X70537937Y-66355396D01*
X70531916Y-66350684D01*
X70522204Y-66342219D01*
X70505586Y-66325275D01*
X70484814Y-66302721D01*
X70472051Y-66288318D01*
X70449572Y-66263478D01*
X70429017Y-66242336D01*
X70413389Y-66227910D01*
X70407974Y-66223929D01*
X70393241Y-66213138D01*
X70382862Y-66201669D01*
X70379975Y-66193394D01*
X70381918Y-66191755D01*
X70390371Y-66194902D01*
X70407344Y-66204547D01*
X70429179Y-66218612D01*
X70429397Y-66218760D01*
X70453081Y-66234697D01*
X70473503Y-66248284D01*
X70485378Y-66256025D01*
X70514602Y-66277925D01*
X70550361Y-66310331D01*
X70590853Y-66351406D01*
X70634272Y-66399311D01*
X70678817Y-66452206D01*
X70683480Y-66457967D01*
X70697622Y-66475257D01*
X70708918Y-66488653D01*
X70710050Y-66489944D01*
X70730368Y-66518729D01*
X70750084Y-66557092D01*
X70768154Y-66601604D01*
X70783531Y-66648835D01*
X70795169Y-66695355D01*
X70802024Y-66737734D01*
X70803048Y-66772543D01*
X70800726Y-66787298D01*
X70794632Y-66792340D01*
X70780839Y-66801209D01*
X70780729Y-66801274D01*
X70756043Y-66809538D01*
X70728555Y-66809233D01*
X70701692Y-66803293D01*
X70676617Y-66793246D01*
X70672138Y-66790670D01*
X70655960Y-66781247D01*
X70645870Y-66776791D01*
X70644961Y-66776746D01*
X70637494Y-66773527D01*
X70619679Y-66764004D01*
X70593918Y-66749580D01*
X70562615Y-66731654D01*
X70528170Y-66711630D01*
X70492988Y-66690905D01*
X70459470Y-66670884D01*
X70430018Y-66652966D01*
X70407035Y-66638554D01*
X70399051Y-66633322D01*
X70373163Y-66614971D01*
X70345051Y-66593477D01*
X70317388Y-66571086D01*
X70292849Y-66550044D01*
X70274107Y-66532598D01*
X70263835Y-66520991D01*
X70262770Y-66518856D01*
X70256031Y-66511553D01*
X70253112Y-66511592D01*
X70244722Y-66507900D01*
X70243852Y-66505817D01*
X70238413Y-66497355D01*
X70225232Y-66480276D01*
X70206374Y-66457176D01*
X70187027Y-66434290D01*
X70156708Y-66398540D01*
X70134003Y-66370355D01*
X70116552Y-66346238D01*
X70101987Y-66322695D01*
X70087946Y-66296230D01*
X70073625Y-66266650D01*
X70059666Y-66233620D01*
X70045961Y-66195002D01*
X70033415Y-66154160D01*
X70022932Y-66114461D01*
X70015418Y-66079266D01*
X70011777Y-66051941D01*
X70012203Y-66038271D01*
X70022083Y-66021033D01*
X70042062Y-66014111D01*
X70071578Y-66017408D01*
G37*
G36*
X70545257Y-65872076D02*
G01*
X70557027Y-65874373D01*
X70563813Y-65876186D01*
X70608284Y-65893247D01*
X70657590Y-65919761D01*
X70707958Y-65953021D01*
X70755618Y-65990322D01*
X70796798Y-66028957D01*
X70826771Y-66064845D01*
X70848230Y-66098093D01*
X70872971Y-66140673D01*
X70898477Y-66188193D01*
X70907155Y-66205248D01*
X70922771Y-66235390D01*
X70939625Y-66266394D01*
X70949840Y-66284304D01*
X70962666Y-66308889D01*
X70967149Y-66326164D01*
X70966225Y-66335319D01*
X70962377Y-66349584D01*
X70955655Y-66373860D01*
X70947259Y-66403828D01*
X70943635Y-66416674D01*
X70933784Y-66453064D01*
X70924288Y-66490760D01*
X70916898Y-66522745D01*
X70915723Y-66528352D01*
X70909858Y-66555451D01*
X70905044Y-66570394D01*
X70899644Y-66575680D01*
X70892026Y-66573809D01*
X70887590Y-66571385D01*
X70878338Y-66560303D01*
X70870376Y-66541705D01*
X70869758Y-66539534D01*
X70860078Y-66508725D01*
X70847544Y-66479687D01*
X70830625Y-66450072D01*
X70807800Y-66417530D01*
X70777539Y-66379709D01*
X70738319Y-66334263D01*
X70731325Y-66326368D01*
X70698464Y-66290064D01*
X70665808Y-66255214D01*
X70635808Y-66224347D01*
X70610914Y-66199988D01*
X70595071Y-66185855D01*
X70535214Y-66137684D01*
X70484507Y-66097959D01*
X70440920Y-66065284D01*
X70402425Y-66038254D01*
X70366993Y-66015470D01*
X70332598Y-65995532D01*
X70297208Y-65977038D01*
X70281582Y-65969376D01*
X70219872Y-65939593D01*
X70374623Y-65903064D01*
X70426178Y-65890977D01*
X70465497Y-65882084D01*
X70494822Y-65876066D01*
X70516396Y-65872604D01*
X70532461Y-65871380D01*
X70545257Y-65872076D01*
G37*
G36*
X70256234Y-66243453D02*
G01*
X70268763Y-66250992D01*
X70300008Y-66272544D01*
X70327553Y-66293471D01*
X70353906Y-66316092D01*
X70381574Y-66342724D01*
X70413066Y-66375687D01*
X70450889Y-66417296D01*
X70461203Y-66428844D01*
X70491937Y-66463608D01*
X70514716Y-66490203D01*
X70531706Y-66511389D01*
X70545076Y-66529924D01*
X70556994Y-66548569D01*
X70562530Y-66557851D01*
X70572259Y-66575958D01*
X70574158Y-66585199D01*
X70569487Y-66588759D01*
X70559370Y-66585272D01*
X70556915Y-66580561D01*
X70550775Y-66571939D01*
X70547415Y-66571539D01*
X70538490Y-66567896D01*
X70523830Y-66556641D01*
X70517343Y-66550680D01*
X70498579Y-66534104D01*
X70481074Y-66521003D01*
X70477427Y-66518765D01*
X70455845Y-66503456D01*
X70427770Y-66479016D01*
X70395810Y-66448113D01*
X70362577Y-66413409D01*
X70330677Y-66377568D01*
X70302723Y-66343256D01*
X70293617Y-66331087D01*
X70276815Y-66308317D01*
X70260410Y-66286637D01*
X70256122Y-66281108D01*
X70240602Y-66258215D01*
X70235710Y-66243683D01*
X70241052Y-66238450D01*
X70256234Y-66243453D01*
G37*
G36*
X77912484Y-64484974D02*
G01*
X77915633Y-64493282D01*
X77915055Y-64494568D01*
X77910513Y-64494726D01*
X77908973Y-64491056D01*
X77910018Y-64484429D01*
X77912484Y-64484974D01*
G37*
G36*
X71081198Y-66228410D02*
G01*
X71082221Y-66239247D01*
X71078439Y-66260566D01*
X71077341Y-66265408D01*
X71069917Y-66295036D01*
X71064047Y-66310579D01*
X71058828Y-66312643D01*
X71053356Y-66301837D01*
X71048340Y-66284902D01*
X71043182Y-66261078D01*
X71043931Y-66246355D01*
X71050859Y-66236048D01*
X71051191Y-66235733D01*
X71065776Y-66226661D01*
X71075205Y-66224902D01*
X71081198Y-66228410D01*
G37*
G36*
X71517140Y-65650064D02*
G01*
X71522722Y-65650632D01*
X71548777Y-65656484D01*
X71560750Y-65667194D01*
X71558641Y-65682761D01*
X71551012Y-65693961D01*
X71525599Y-65718178D01*
X71491401Y-65742131D01*
X71454068Y-65761880D01*
X71452947Y-65762371D01*
X71423985Y-65779774D01*
X71395531Y-65804924D01*
X71390164Y-65810819D01*
X71372537Y-65830423D01*
X71350438Y-65854096D01*
X71326200Y-65879452D01*
X71302160Y-65904099D01*
X71280654Y-65925654D01*
X71264016Y-65941726D01*
X71254580Y-65949930D01*
X71253578Y-65950483D01*
X71246631Y-65956894D01*
X71240803Y-65964856D01*
X71233529Y-65972746D01*
X71217419Y-65988465D01*
X71194486Y-66010173D01*
X71166747Y-66036025D01*
X71136215Y-66064181D01*
X71104903Y-66092795D01*
X71074827Y-66120027D01*
X71048002Y-66144033D01*
X71026441Y-66162971D01*
X71012159Y-66174998D01*
X71007368Y-66178396D01*
X71001158Y-66174014D01*
X70999018Y-66170993D01*
X70991867Y-66157953D01*
X70980652Y-66136016D01*
X70967638Y-66109770D01*
X70955095Y-66083803D01*
X70945289Y-66062702D01*
X70943520Y-66058703D01*
X70938392Y-66039672D01*
X70942789Y-66030798D01*
X70953336Y-66024141D01*
X70972264Y-66012050D01*
X70994996Y-65997452D01*
X71018965Y-65982719D01*
X71039615Y-65971246D01*
X71052032Y-65965688D01*
X71064575Y-65958885D01*
X71083657Y-65945029D01*
X71103117Y-65928865D01*
X71123280Y-65911765D01*
X71139644Y-65899129D01*
X71148316Y-65893862D01*
X71157178Y-65888563D01*
X71174756Y-65875965D01*
X71198200Y-65858160D01*
X71216139Y-65844066D01*
X71248482Y-65818811D01*
X71283280Y-65792419D01*
X71314673Y-65769312D01*
X71324692Y-65762171D01*
X71354681Y-65741037D01*
X71390080Y-65716030D01*
X71424155Y-65691907D01*
X71430415Y-65687467D01*
X71457220Y-65668648D01*
X71475588Y-65656977D01*
X71489225Y-65650976D01*
X71501841Y-65649166D01*
X71517140Y-65650064D01*
G37*
G36*
X70364028Y-66177270D02*
G01*
X70372624Y-66181897D01*
X70373264Y-66182962D01*
X70368525Y-66187544D01*
X70366920Y-66188062D01*
X70358519Y-66184385D01*
X70357683Y-66182371D01*
X70360939Y-66176893D01*
X70364028Y-66177270D01*
G37*
G36*
X70336660Y-66161469D02*
G01*
X70334026Y-66166031D01*
X70329465Y-66163397D01*
X70332098Y-66158836D01*
X70336660Y-66161469D01*
G37*
G36*
X70309292Y-66145668D02*
G01*
X70306657Y-66150229D01*
X70302097Y-66147596D01*
X70304730Y-66143035D01*
X70309292Y-66145668D01*
G37*
G36*
X70281923Y-66129867D02*
G01*
X70279289Y-66134428D01*
X70274728Y-66131795D01*
X70277362Y-66127234D01*
X70281923Y-66129867D01*
G37*
G36*
X71039759Y-65489277D02*
G01*
X71051052Y-65493715D01*
X71071866Y-65503175D01*
X71098444Y-65515923D01*
X71109629Y-65521447D01*
X71137672Y-65535676D01*
X71154495Y-65545461D01*
X71162300Y-65552821D01*
X71163286Y-65559782D01*
X71159991Y-65567717D01*
X71149088Y-65581923D01*
X71139881Y-65587740D01*
X71128128Y-65594047D01*
X71109870Y-65607003D01*
X71095307Y-65618639D01*
X71077135Y-65635452D01*
X71065789Y-65651654D01*
X71060041Y-65671187D01*
X71058662Y-65697997D01*
X71060131Y-65731471D01*
X71060950Y-65754464D01*
X71058116Y-65769577D01*
X71049081Y-65782201D01*
X71031299Y-65797731D01*
X71027301Y-65800985D01*
X71000144Y-65822206D01*
X70969429Y-65845019D01*
X70952899Y-65856764D01*
X70925187Y-65877691D01*
X70900688Y-65899273D01*
X70882804Y-65918329D01*
X70875838Y-65928909D01*
X70867425Y-65933521D01*
X70863612Y-65933648D01*
X70854730Y-65926722D01*
X70848370Y-65912734D01*
X70840259Y-65897035D01*
X70825643Y-65892673D01*
X70809262Y-65888018D01*
X70789646Y-65876235D01*
X70784098Y-65871763D01*
X70764813Y-65857422D01*
X70738043Y-65840474D01*
X70711108Y-65825409D01*
X70686056Y-65811850D01*
X70672188Y-65802315D01*
X70667158Y-65794600D01*
X70668619Y-65786497D01*
X70668950Y-65785758D01*
X70677644Y-65774767D01*
X70696111Y-65756546D01*
X70722279Y-65732893D01*
X70754069Y-65705608D01*
X70789410Y-65676489D01*
X70826225Y-65647336D01*
X70846383Y-65631916D01*
X70866059Y-65617019D01*
X70883140Y-65603908D01*
X70900394Y-65590394D01*
X70920581Y-65574288D01*
X70946468Y-65553401D01*
X70980819Y-65525543D01*
X70985452Y-65521781D01*
X71008398Y-65504622D01*
X71027464Y-65493064D01*
X71039189Y-65489180D01*
X71039759Y-65489277D01*
G37*
G36*
X77640131Y-63548699D02*
G01*
X77639844Y-63568746D01*
X77639356Y-63573806D01*
X77638152Y-63595632D01*
X77637800Y-63626967D01*
X77638213Y-63662449D01*
X77639305Y-63696717D01*
X77640987Y-63724412D01*
X77641956Y-63733623D01*
X77641750Y-63739286D01*
X77638305Y-63732126D01*
X77632864Y-63715307D01*
X77627165Y-63692260D01*
X77625010Y-63675134D01*
X77626116Y-63669022D01*
X77628185Y-63659011D01*
X77627761Y-63639424D01*
X77626176Y-63624209D01*
X77624416Y-63595073D01*
X77626004Y-63566540D01*
X77627808Y-63556195D01*
X77633095Y-63540871D01*
X77637542Y-63538890D01*
X77640131Y-63548699D01*
G37*
G36*
X77647747Y-63516151D02*
G01*
X77645114Y-63520712D01*
X77640552Y-63518079D01*
X77643186Y-63513517D01*
X77647747Y-63516151D01*
G37*
G36*
X78690506Y-62551219D02*
G01*
X78695353Y-62553562D01*
X78704331Y-62558324D01*
X78712258Y-62564207D01*
X78720302Y-62573028D01*
X78729627Y-62586606D01*
X78741401Y-62606756D01*
X78756790Y-62635298D01*
X78776960Y-62674046D01*
X78794280Y-62707694D01*
X78808271Y-62739099D01*
X78823345Y-62779826D01*
X78838326Y-62825866D01*
X78852034Y-62873208D01*
X78863293Y-62917844D01*
X78870923Y-62955761D01*
X78873566Y-62977557D01*
X78873608Y-62999409D01*
X78870527Y-63007395D01*
X78864763Y-63002117D01*
X78856753Y-62984176D01*
X78846937Y-62954171D01*
X78840971Y-62932912D01*
X78828650Y-62890908D01*
X78814063Y-62849596D01*
X78795982Y-62806170D01*
X78773184Y-62757830D01*
X78744440Y-62701771D01*
X78719442Y-62655179D01*
X78702004Y-62622210D01*
X78687375Y-62592850D01*
X78677011Y-62570141D01*
X78672367Y-62557126D01*
X78672284Y-62556579D01*
X78672048Y-62547144D01*
X78676899Y-62545518D01*
X78690506Y-62551219D01*
G37*
G36*
X75053461Y-62112286D02*
G01*
X75087727Y-62116380D01*
X75127312Y-62120719D01*
X75157877Y-62123798D01*
X75192246Y-62129418D01*
X75232586Y-62139504D01*
X75271411Y-62152134D01*
X75277959Y-62154647D01*
X75310595Y-62167164D01*
X75352104Y-62182519D01*
X75397233Y-62198795D01*
X75440737Y-62214077D01*
X75442172Y-62214573D01*
X75513885Y-62243086D01*
X75593504Y-62281505D01*
X75679028Y-62328612D01*
X75768458Y-62383189D01*
X75859793Y-62444016D01*
X75951032Y-62509872D01*
X76037667Y-62577501D01*
X76069811Y-62605036D01*
X76101275Y-62634539D01*
X76130509Y-62664237D01*
X76155964Y-62692359D01*
X76176092Y-62717133D01*
X76189341Y-62736787D01*
X76194164Y-62749551D01*
X76191537Y-62753481D01*
X76184212Y-62750610D01*
X76167916Y-62742526D01*
X76153304Y-62734807D01*
X76130004Y-62724446D01*
X76097532Y-62712851D01*
X76061285Y-62701869D01*
X76043663Y-62697243D01*
X76006556Y-62688735D01*
X75978673Y-62684412D01*
X75955046Y-62683931D01*
X75930706Y-62686950D01*
X75921040Y-62688781D01*
X75867827Y-62705565D01*
X75825663Y-62731915D01*
X75794845Y-62767085D01*
X75775670Y-62810330D01*
X75768434Y-62860905D01*
X75773435Y-62918063D01*
X75790972Y-62981060D01*
X75797675Y-62998440D01*
X75825321Y-63050107D01*
X75862483Y-63095565D01*
X75906998Y-63133797D01*
X75956702Y-63163780D01*
X76009430Y-63184496D01*
X76063017Y-63194926D01*
X76115301Y-63194050D01*
X76164115Y-63180848D01*
X76174566Y-63175990D01*
X76219414Y-63145589D01*
X76252947Y-63105826D01*
X76274941Y-63057287D01*
X76285167Y-63000563D01*
X76283399Y-62936238D01*
X76278740Y-62905550D01*
X76273849Y-62873716D01*
X76273127Y-62853962D01*
X76276402Y-62846948D01*
X76283501Y-62853338D01*
X76289621Y-62864077D01*
X76304485Y-62891532D01*
X76321466Y-62920069D01*
X76337924Y-62945498D01*
X76351218Y-62963628D01*
X76355138Y-62967978D01*
X76372937Y-62990380D01*
X76391507Y-63021845D01*
X76408572Y-63057481D01*
X76421858Y-63092397D01*
X76429087Y-63121701D01*
X76429721Y-63128315D01*
X76424906Y-63150640D01*
X76412207Y-63163511D01*
X76399514Y-63177303D01*
X76385571Y-63200343D01*
X76375299Y-63222848D01*
X76356405Y-63264531D01*
X76332019Y-63306048D01*
X76300211Y-63350272D01*
X76259046Y-63400084D01*
X76247531Y-63413223D01*
X76211273Y-63453355D01*
X76178961Y-63486741D01*
X76147480Y-63516054D01*
X76113715Y-63543964D01*
X76074549Y-63573145D01*
X76026868Y-63606268D01*
X76006121Y-63620275D01*
X75956461Y-63653492D01*
X75916180Y-63679647D01*
X75882295Y-63699989D01*
X75851825Y-63715771D01*
X75821788Y-63728245D01*
X75789202Y-63738661D01*
X75751083Y-63748271D01*
X75704451Y-63758327D01*
X75651738Y-63768994D01*
X75588052Y-63778949D01*
X75524858Y-63783625D01*
X75465438Y-63783071D01*
X75413072Y-63777335D01*
X75371041Y-63766463D01*
X75366905Y-63764840D01*
X75342012Y-63756629D01*
X75312386Y-63749518D01*
X75301894Y-63747646D01*
X75275213Y-63740986D01*
X75243240Y-63729498D01*
X75217192Y-63717747D01*
X75163485Y-63691892D01*
X75114540Y-63671877D01*
X75063056Y-63654804D01*
X75046562Y-63649976D01*
X75010835Y-63637796D01*
X74968546Y-63620361D01*
X74923927Y-63599716D01*
X74881211Y-63577908D01*
X74844632Y-63556983D01*
X74820752Y-63540825D01*
X74804403Y-63527328D01*
X74798453Y-63518846D01*
X74800985Y-63512013D01*
X74803084Y-63509809D01*
X74807121Y-63503646D01*
X74805552Y-63495639D01*
X74796886Y-63482998D01*
X74779627Y-63462928D01*
X74775572Y-63458400D01*
X74754334Y-63432520D01*
X74727774Y-63396772D01*
X74697957Y-63354225D01*
X74666943Y-63307951D01*
X74636793Y-63261021D01*
X74609570Y-63216507D01*
X74588677Y-63179955D01*
X74568104Y-63137422D01*
X74547762Y-63086921D01*
X74529097Y-63032882D01*
X74513551Y-62979742D01*
X74502567Y-62931932D01*
X74498185Y-62902142D01*
X74496675Y-62868071D01*
X74497747Y-62832891D01*
X74500383Y-62809485D01*
X74505244Y-62778548D01*
X74510087Y-62742694D01*
X74512578Y-62721391D01*
X74520481Y-62675858D01*
X74535414Y-62624711D01*
X74558262Y-62564996D01*
X74562103Y-62555876D01*
X74572896Y-62536388D01*
X74591556Y-62508650D01*
X74615931Y-62475442D01*
X74643870Y-62439536D01*
X74673220Y-62403712D01*
X74701830Y-62370743D01*
X74724119Y-62346877D01*
X74769335Y-62301788D01*
X74815344Y-62257877D01*
X74859819Y-62217243D01*
X74900425Y-62181981D01*
X74934830Y-62154189D01*
X74953157Y-62140857D01*
X75004437Y-62106038D01*
X75053461Y-62112286D01*
G37*
G36*
X73534925Y-63377742D02*
G01*
X73571957Y-63382849D01*
X73602117Y-63393895D01*
X73629282Y-63412448D01*
X73657335Y-63440076D01*
X73665399Y-63449107D01*
X73686439Y-63472436D01*
X73704375Y-63491105D01*
X73716624Y-63502485D01*
X73719970Y-63504677D01*
X73729543Y-63514458D01*
X73728852Y-63534836D01*
X73720012Y-63560765D01*
X73711719Y-63587431D01*
X73705870Y-63619452D01*
X73704414Y-63635824D01*
X73702561Y-63663583D01*
X73699897Y-63688327D01*
X73698106Y-63699205D01*
X73695407Y-63716913D01*
X73692146Y-63746042D01*
X73688602Y-63783138D01*
X73685059Y-63824751D01*
X73681797Y-63867427D01*
X73679099Y-63907714D01*
X73677245Y-63942160D01*
X73676557Y-63963312D01*
X73675891Y-63996240D01*
X73674965Y-64030146D01*
X73674367Y-64047541D01*
X73676820Y-64083989D01*
X73684978Y-64112331D01*
X73693442Y-64143444D01*
X73690662Y-64170019D01*
X73678081Y-64189690D01*
X73657151Y-64200090D01*
X73631702Y-64199425D01*
X73611668Y-64195895D01*
X73597643Y-64197736D01*
X73583609Y-64206880D01*
X73569899Y-64219278D01*
X73547058Y-64240719D01*
X73523611Y-64225976D01*
X73505595Y-64211698D01*
X73497189Y-64195383D01*
X73497470Y-64173176D01*
X73504298Y-64145272D01*
X73516617Y-64084696D01*
X73516135Y-64025827D01*
X73506131Y-63974830D01*
X73484806Y-63913622D01*
X73455209Y-63860572D01*
X73415401Y-63813092D01*
X73363444Y-63768592D01*
X73338212Y-63750631D01*
X73301255Y-63727729D01*
X73269177Y-63713967D01*
X73236563Y-63707717D01*
X73197996Y-63707351D01*
X73194743Y-63707514D01*
X73182828Y-63707202D01*
X73176426Y-63702121D01*
X73173027Y-63688521D01*
X73171125Y-63672286D01*
X73169309Y-63638120D01*
X73172352Y-63606868D01*
X73181248Y-63574011D01*
X73196990Y-63535026D01*
X73205246Y-63517089D01*
X73218110Y-63488689D01*
X73227807Y-63465171D01*
X73233009Y-63449871D01*
X73233476Y-63446176D01*
X73237755Y-63435345D01*
X73254595Y-63423890D01*
X73281713Y-63412434D01*
X73316827Y-63401602D01*
X73357652Y-63392013D01*
X73401903Y-63384293D01*
X73447301Y-63379063D01*
X73487142Y-63377002D01*
X73534925Y-63377742D01*
G37*
G36*
X73259537Y-63812964D02*
G01*
X73280552Y-63826415D01*
X73304979Y-63844700D01*
X73330397Y-63865965D01*
X73354385Y-63888356D01*
X73374526Y-63910019D01*
X73380762Y-63917801D01*
X73399315Y-63944628D01*
X73410627Y-63968640D01*
X73418102Y-63997442D01*
X73419358Y-64004023D01*
X73423487Y-64033885D01*
X73423514Y-64054356D01*
X73419719Y-64063853D01*
X73412378Y-64060792D01*
X73409944Y-64057774D01*
X73401399Y-64041634D01*
X73397803Y-64031590D01*
X73388401Y-64014520D01*
X73379089Y-64004916D01*
X73366787Y-63992312D01*
X73362132Y-63983883D01*
X73354907Y-63973351D01*
X73340154Y-63959245D01*
X73334907Y-63955017D01*
X73312833Y-63934787D01*
X73290280Y-63908830D01*
X73269333Y-63880289D01*
X73252076Y-63852305D01*
X73240589Y-63828020D01*
X73236958Y-63810578D01*
X73237417Y-63807980D01*
X73244351Y-63806201D01*
X73259537Y-63812964D01*
G37*
G36*
X76328120Y-61594978D02*
G01*
X76365952Y-61604789D01*
X76407537Y-61618896D01*
X76448317Y-61635686D01*
X76483737Y-61653551D01*
X76495377Y-61660631D01*
X76522863Y-61676743D01*
X76558841Y-61695346D01*
X76597852Y-61713707D01*
X76622502Y-61724319D01*
X76691078Y-61756891D01*
X76748297Y-61793873D01*
X76756501Y-61800230D01*
X76773512Y-61814531D01*
X76797614Y-61835874D01*
X76827056Y-61862605D01*
X76860082Y-61893063D01*
X76894940Y-61925596D01*
X76929875Y-61958545D01*
X76963135Y-61990254D01*
X76992964Y-62019067D01*
X77017611Y-62043325D01*
X77035320Y-62061374D01*
X77044340Y-62071556D01*
X77045102Y-62072873D01*
X77050071Y-62080283D01*
X77061843Y-62095402D01*
X77073836Y-62110080D01*
X77109115Y-62153495D01*
X77140363Y-62193899D01*
X77165870Y-62228986D01*
X77183928Y-62256444D01*
X77189484Y-62266306D01*
X77202397Y-62290992D01*
X77216868Y-62318004D01*
X77219965Y-62323685D01*
X77254205Y-62388346D01*
X77279769Y-62441472D01*
X77296824Y-62483514D01*
X77305543Y-62514920D01*
X77306096Y-62536143D01*
X77303346Y-62543103D01*
X77292970Y-62553506D01*
X77272805Y-62569433D01*
X77245457Y-62589185D01*
X77213530Y-62611063D01*
X77179625Y-62633366D01*
X77146348Y-62654395D01*
X77116301Y-62672451D01*
X77092089Y-62685834D01*
X77076315Y-62692843D01*
X77072995Y-62693482D01*
X77063901Y-62694535D01*
X77044635Y-62697301D01*
X77024319Y-62700410D01*
X76992693Y-62703748D01*
X76955188Y-62705419D01*
X76925355Y-62705201D01*
X76895048Y-62704297D01*
X76867883Y-62704004D01*
X76849708Y-62704384D01*
X76849616Y-62704390D01*
X76831972Y-62700675D01*
X76816829Y-62690069D01*
X76809179Y-62676685D01*
X76809399Y-62671236D01*
X76817033Y-62668357D01*
X76834488Y-62667782D01*
X76844362Y-62668393D01*
X76896729Y-62666118D01*
X76944378Y-62650592D01*
X76985565Y-62623165D01*
X77018552Y-62585183D01*
X77041596Y-62537994D01*
X77049141Y-62509915D01*
X77055811Y-62452545D01*
X77053987Y-62393580D01*
X77044508Y-62335430D01*
X77028220Y-62280505D01*
X77005962Y-62231215D01*
X76978579Y-62189971D01*
X76946909Y-62159183D01*
X76921554Y-62144690D01*
X76874458Y-62132376D01*
X76820661Y-62129964D01*
X76764136Y-62136963D01*
X76708857Y-62152884D01*
X76659121Y-62177037D01*
X76630873Y-62199956D01*
X76603919Y-62231340D01*
X76582061Y-62265998D01*
X76569098Y-62298742D01*
X76568692Y-62300507D01*
X76564132Y-62335931D01*
X76563627Y-62376541D01*
X76567082Y-62414525D01*
X76570315Y-62430283D01*
X76574369Y-62448479D01*
X76574149Y-62457900D01*
X76568844Y-62457938D01*
X76557640Y-62447982D01*
X76539726Y-62427423D01*
X76514289Y-62395651D01*
X76500310Y-62377710D01*
X76481680Y-62353582D01*
X76465722Y-62332569D01*
X76450926Y-62312507D01*
X76435780Y-62291229D01*
X76418769Y-62266571D01*
X76398384Y-62236363D01*
X76373113Y-62198443D01*
X76341443Y-62150643D01*
X76334794Y-62140593D01*
X76312450Y-62105884D01*
X76291893Y-62072265D01*
X76275244Y-62043321D01*
X76264627Y-62022634D01*
X76263829Y-62020802D01*
X76250876Y-61993035D01*
X76234917Y-61962565D01*
X76227797Y-61950099D01*
X76211350Y-61914005D01*
X76198637Y-61869682D01*
X76190108Y-61821194D01*
X76186216Y-61772612D01*
X76187408Y-61728001D01*
X76194138Y-61691431D01*
X76197992Y-61681039D01*
X76219146Y-61643879D01*
X76244857Y-61615071D01*
X76272715Y-61596769D01*
X76298596Y-61591071D01*
X76328120Y-61594978D01*
G37*
G36*
X76246575Y-62814402D02*
G01*
X76250445Y-62825416D01*
X76249702Y-62828345D01*
X76245856Y-62827075D01*
X76243393Y-62819913D01*
X76243093Y-62811765D01*
X76246575Y-62814402D01*
G37*
G36*
X76209297Y-62762217D02*
G01*
X76214194Y-62776693D01*
X76214117Y-62780204D01*
X76211733Y-62781812D01*
X76208078Y-62772183D01*
X76206471Y-62761666D01*
X76209297Y-62762217D01*
G37*
G36*
X77263716Y-62169739D02*
G01*
X77276576Y-62187536D01*
X77294444Y-62214961D01*
X77316546Y-62250902D01*
X77329625Y-62272879D01*
X77355123Y-62323518D01*
X77371262Y-62374723D01*
X77371837Y-62377241D01*
X77377256Y-62403747D01*
X77378430Y-62416552D01*
X77375388Y-62416221D01*
X77373633Y-62413605D01*
X77363871Y-62393495D01*
X77357556Y-62375499D01*
X77349980Y-62356182D01*
X77337688Y-62332140D01*
X77331418Y-62321514D01*
X77317793Y-62296642D01*
X77306990Y-62271795D01*
X77304208Y-62263257D01*
X77295024Y-62239679D01*
X77281542Y-62215101D01*
X77279097Y-62211448D01*
X77266284Y-62190431D01*
X77257267Y-62171047D01*
X77256123Y-62167479D01*
X77256639Y-62162682D01*
X77263716Y-62169739D01*
G37*
G36*
X73849735Y-63111947D02*
G01*
X73846593Y-63128637D01*
X73839027Y-63155620D01*
X73826905Y-63194074D01*
X73810095Y-63245176D01*
X73805737Y-63258286D01*
X73794694Y-63281414D01*
X73780034Y-63301200D01*
X73779702Y-63301533D01*
X73768462Y-63316331D01*
X73764936Y-63328608D01*
X73765051Y-63329139D01*
X73761813Y-63340966D01*
X73755776Y-63346277D01*
X73745666Y-63347525D01*
X73733594Y-63338615D01*
X73721990Y-63324748D01*
X73706990Y-63307720D01*
X73693814Y-63296977D01*
X73689391Y-63295228D01*
X73678271Y-63287982D01*
X73675259Y-63281823D01*
X73677707Y-63268013D01*
X73687831Y-63250195D01*
X73701765Y-63233775D01*
X73715639Y-63224158D01*
X73716781Y-63223804D01*
X73727907Y-63216530D01*
X73729811Y-63213055D01*
X73736433Y-63203994D01*
X73750791Y-63189427D01*
X73761762Y-63179507D01*
X73785537Y-63158110D01*
X73811116Y-63133965D01*
X73820689Y-63124576D01*
X73833928Y-63111867D01*
X73843270Y-63104740D01*
X73848583Y-63104374D01*
X73849735Y-63111947D01*
G37*
G36*
X82301513Y-56993367D02*
G01*
X82364412Y-57002573D01*
X82421642Y-57025174D01*
X82460196Y-57050754D01*
X82481485Y-57069008D01*
X82494139Y-57084377D01*
X82501838Y-57102362D01*
X82506286Y-57119610D01*
X82509319Y-57161953D01*
X82501451Y-57212175D01*
X82483261Y-57268659D01*
X82455322Y-57329783D01*
X82418213Y-57393930D01*
X82397535Y-57424998D01*
X82380863Y-57452957D01*
X82373641Y-57474506D01*
X82373765Y-57481492D01*
X82373612Y-57489319D01*
X82369270Y-57498832D01*
X82359508Y-57511263D01*
X82343094Y-57527851D01*
X82318796Y-57549829D01*
X82285381Y-57578436D01*
X82241617Y-57614907D01*
X82236746Y-57618933D01*
X82216266Y-57635840D01*
X82197767Y-57651072D01*
X82178203Y-57667129D01*
X82154524Y-57686511D01*
X82123686Y-57711717D01*
X82107143Y-57725231D01*
X82080174Y-57747396D01*
X82049562Y-57772750D01*
X82028247Y-57790527D01*
X81974872Y-57835128D01*
X81928587Y-57873594D01*
X81891269Y-57904365D01*
X81883163Y-57910997D01*
X81862640Y-57927810D01*
X81836379Y-57949400D01*
X81810490Y-57970743D01*
X81737539Y-58030930D01*
X81675411Y-58082080D01*
X81665207Y-58090465D01*
X81642871Y-58108858D01*
X81615216Y-58131685D01*
X81589429Y-58153011D01*
X81515883Y-58213834D01*
X81445861Y-58271592D01*
X81383041Y-58323251D01*
X81374692Y-58330103D01*
X81343348Y-58355832D01*
X81313859Y-58380090D01*
X81281806Y-58406514D01*
X81242773Y-58438742D01*
X81242026Y-58439359D01*
X81212779Y-58463509D01*
X81180866Y-58489847D01*
X81156775Y-58509719D01*
X81130155Y-58531746D01*
X81102730Y-58554567D01*
X81084254Y-58570032D01*
X81059947Y-58590299D01*
X81031997Y-58613355D01*
X81016385Y-58626120D01*
X80988817Y-58648617D01*
X80958695Y-58673293D01*
X80943655Y-58685655D01*
X80916593Y-58707932D01*
X80887380Y-58731969D01*
X80872574Y-58744146D01*
X80714428Y-58874516D01*
X80661014Y-58918703D01*
X80633309Y-58941603D01*
X80604346Y-58965476D01*
X80582060Y-58983788D01*
X80556249Y-59005107D01*
X80527076Y-59029446D01*
X80509561Y-59044182D01*
X80483465Y-59066000D01*
X80456117Y-59088494D01*
X80440083Y-59101461D01*
X80362218Y-59164799D01*
X80294778Y-59221105D01*
X80270253Y-59241716D01*
X80245189Y-59262592D01*
X80216645Y-59286168D01*
X80181678Y-59314878D01*
X80149581Y-59341146D01*
X80130870Y-59356495D01*
X80106020Y-59376942D01*
X80080371Y-59398093D01*
X80080078Y-59398336D01*
X80052716Y-59420916D01*
X80024451Y-59444221D01*
X80002707Y-59462130D01*
X79976273Y-59483884D01*
X79947684Y-59507411D01*
X79936366Y-59516725D01*
X79913100Y-59535904D01*
X79884734Y-59559331D01*
X79859016Y-59580604D01*
X79832736Y-59602357D01*
X79806551Y-59624016D01*
X79786424Y-59640651D01*
X79764680Y-59658675D01*
X79738364Y-59680587D01*
X79720217Y-59695749D01*
X79692286Y-59718934D01*
X79661527Y-59744175D01*
X79644386Y-59758096D01*
X79600604Y-59793653D01*
X79556994Y-59829543D01*
X79511693Y-59867245D01*
X79485592Y-59888979D01*
X79455054Y-59914298D01*
X79429669Y-59935263D01*
X79401174Y-59958751D01*
X79370744Y-59983855D01*
X79347567Y-60002989D01*
X79323702Y-60022645D01*
X79300884Y-60041339D01*
X79287503Y-60052228D01*
X79271969Y-60064934D01*
X79248876Y-60083994D01*
X79222097Y-60106208D01*
X79208586Y-60117454D01*
X79181415Y-60140044D01*
X79156002Y-60161074D01*
X79136219Y-60177345D01*
X79129671Y-60182679D01*
X79104438Y-60203274D01*
X79071416Y-60230500D01*
X79034196Y-60261381D01*
X78996376Y-60292942D01*
X78989238Y-60298921D01*
X78962915Y-60320818D01*
X78935532Y-60343332D01*
X78918163Y-60357435D01*
X78895093Y-60376165D01*
X78867318Y-60398948D01*
X78845451Y-60417034D01*
X78806532Y-60449366D01*
X78776694Y-60474099D01*
X78753579Y-60493178D01*
X78734827Y-60508546D01*
X78718080Y-60522147D01*
X78709643Y-60528954D01*
X78686193Y-60548011D01*
X78658379Y-60570845D01*
X78638519Y-60587283D01*
X78611033Y-60610147D01*
X78579745Y-60636172D01*
X78556542Y-60655475D01*
X78470453Y-60726675D01*
X78419168Y-60768740D01*
X78400457Y-60784088D01*
X78375607Y-60804535D01*
X78349958Y-60825686D01*
X78349666Y-60825928D01*
X78321938Y-60848793D01*
X78292956Y-60872643D01*
X78270689Y-60890928D01*
X78244839Y-60912241D01*
X78215615Y-60936522D01*
X78198140Y-60951136D01*
X78170234Y-60974412D01*
X78139519Y-60999810D01*
X78122407Y-61013851D01*
X78076275Y-61051630D01*
X78036754Y-61084232D01*
X77998826Y-61115797D01*
X77989805Y-61123342D01*
X77962772Y-61145805D01*
X77933734Y-61169685D01*
X77917158Y-61183184D01*
X77892909Y-61202927D01*
X77863799Y-61226794D01*
X77838125Y-61247971D01*
X77812521Y-61269164D01*
X77787658Y-61289732D01*
X77768866Y-61305264D01*
X77768690Y-61305410D01*
X77725241Y-61341293D01*
X77691046Y-61369550D01*
X77663860Y-61392035D01*
X77641446Y-61410603D01*
X77621560Y-61427105D01*
X77617195Y-61430733D01*
X77590107Y-61453191D01*
X77561056Y-61477200D01*
X77544598Y-61490761D01*
X77518656Y-61512101D01*
X77489303Y-61536259D01*
X77471938Y-61550556D01*
X77444776Y-61572886D01*
X77415658Y-61596765D01*
X77399238Y-61610198D01*
X77359371Y-61642962D01*
X77314095Y-61680481D01*
X77269330Y-61717839D01*
X77250988Y-61733241D01*
X77225293Y-61754595D01*
X77197569Y-61777244D01*
X77187777Y-61785128D01*
X77140734Y-61823307D01*
X77105020Y-61853605D01*
X77079861Y-61876834D01*
X77064482Y-61893798D01*
X77058110Y-61905307D01*
X77059970Y-61912169D01*
X77064050Y-61914203D01*
X77074644Y-61921951D01*
X77091775Y-61939549D01*
X77113558Y-61964554D01*
X77138109Y-61994526D01*
X77163545Y-62027025D01*
X77187979Y-62059611D01*
X77209527Y-62089842D01*
X77226307Y-62115277D01*
X77236433Y-62133479D01*
X77238550Y-62140198D01*
X77237015Y-62146264D01*
X77230572Y-62139237D01*
X77228642Y-62136286D01*
X77218759Y-62122617D01*
X77202463Y-62101907D01*
X77183087Y-62078377D01*
X77180923Y-62075814D01*
X77158507Y-62049167D01*
X77131450Y-62016786D01*
X77104576Y-61984446D01*
X77096750Y-61974985D01*
X77057814Y-61928499D01*
X77026022Y-61892149D01*
X76999617Y-61864122D01*
X76976848Y-61842604D01*
X76955961Y-61825780D01*
X76945429Y-61818396D01*
X76925336Y-61803828D01*
X76911069Y-61791372D01*
X76906465Y-61785259D01*
X76898034Y-61776844D01*
X76887438Y-61772676D01*
X76872013Y-61765361D01*
X76852587Y-61751475D01*
X76844802Y-61744722D01*
X76825042Y-61728382D01*
X76798273Y-61708678D01*
X76770286Y-61689872D01*
X76770243Y-61689845D01*
X76744121Y-61671631D01*
X76721159Y-61652777D01*
X76706089Y-61637188D01*
X76705515Y-61636408D01*
X76678556Y-61599585D01*
X76657174Y-61572349D01*
X76638952Y-61551714D01*
X76628615Y-61541341D01*
X76611123Y-61523512D01*
X76589959Y-61500494D01*
X76577024Y-61485762D01*
X76555271Y-61464725D01*
X76523515Y-61439762D01*
X76485153Y-61413460D01*
X76468760Y-61403172D01*
X76438561Y-61384344D01*
X76413470Y-61368013D01*
X76395991Y-61355853D01*
X76388626Y-61349548D01*
X76388555Y-61349375D01*
X76393255Y-61341732D01*
X76407798Y-61327439D01*
X76429924Y-61308530D01*
X76457372Y-61287042D01*
X76460005Y-61285067D01*
X76473590Y-61274772D01*
X76492915Y-61259973D01*
X76501612Y-61253276D01*
X76526752Y-61234045D01*
X76553324Y-61213953D01*
X76559282Y-61209489D01*
X76606539Y-61173712D01*
X76652327Y-61138190D01*
X76691712Y-61106759D01*
X76697458Y-61102064D01*
X76713219Y-61090327D01*
X76724768Y-61083764D01*
X76725382Y-61083572D01*
X76737145Y-61076929D01*
X76744019Y-61071138D01*
X76755870Y-61060797D01*
X76774472Y-61045677D01*
X76786598Y-61036173D01*
X76807240Y-61020100D01*
X76824673Y-61006304D01*
X76831164Y-61001039D01*
X76844120Y-60990994D01*
X76864093Y-60976223D01*
X76879394Y-60965190D01*
X76901201Y-60949397D01*
X76919588Y-60935656D01*
X76927624Y-60929341D01*
X76947822Y-60913081D01*
X76976265Y-60890809D01*
X77009240Y-60865399D01*
X77043033Y-60839721D01*
X77058570Y-60828058D01*
X77092940Y-60802082D01*
X77133691Y-60770824D01*
X77175582Y-60738316D01*
X77196026Y-60722295D01*
X77212921Y-60709297D01*
X77235652Y-60692166D01*
X77250535Y-60681098D01*
X77275249Y-60662739D01*
X77296062Y-60646985D01*
X77318891Y-60629319D01*
X77336976Y-60615176D01*
X77351906Y-60603691D01*
X77374526Y-60586534D01*
X77400577Y-60566932D01*
X77407488Y-60561757D01*
X77433732Y-60542028D01*
X77457660Y-60523859D01*
X77475013Y-60510491D01*
X77477956Y-60508174D01*
X77492868Y-60496609D01*
X77515476Y-60479392D01*
X77541524Y-60459760D01*
X77548425Y-60454591D01*
X77582210Y-60429217D01*
X77609613Y-60408322D01*
X77636265Y-60387577D01*
X77662011Y-60367241D01*
X77681216Y-60352387D01*
X77704340Y-60334994D01*
X77711587Y-60329643D01*
X77729405Y-60316472D01*
X77746669Y-60303436D01*
X77767155Y-60287643D01*
X77794638Y-60266202D01*
X77802770Y-60259836D01*
X77818499Y-60247695D01*
X77841753Y-60229959D01*
X77868138Y-60209972D01*
X77874813Y-60204936D01*
X77901008Y-60185108D01*
X77924898Y-60166866D01*
X77942244Y-60153454D01*
X77945217Y-60151111D01*
X77960129Y-60139547D01*
X77982736Y-60122330D01*
X78008783Y-60102697D01*
X78015685Y-60097528D01*
X78046429Y-60074458D01*
X78070701Y-60055990D01*
X78094017Y-60037876D01*
X78121893Y-60015870D01*
X78127552Y-60011380D01*
X78144113Y-59998516D01*
X78168076Y-59980236D01*
X78194891Y-59960009D01*
X78201202Y-59955282D01*
X78227449Y-59935573D01*
X78251387Y-59917457D01*
X78268760Y-59904162D01*
X78271715Y-59901863D01*
X78298854Y-59880677D01*
X78320248Y-59864244D01*
X78341814Y-59848052D01*
X78358156Y-59835941D01*
X78381372Y-59818624D01*
X78402742Y-59802423D01*
X78412664Y-59794743D01*
X78453080Y-59763177D01*
X78495077Y-59730767D01*
X78533412Y-59701548D01*
X78550121Y-59688981D01*
X78569617Y-59674384D01*
X78585965Y-59662029D01*
X78603860Y-59648346D01*
X78627993Y-59629762D01*
X78633387Y-59625602D01*
X78658528Y-59606370D01*
X78685100Y-59586279D01*
X78691057Y-59581814D01*
X78713189Y-59565233D01*
X78731430Y-59551410D01*
X78750958Y-59536387D01*
X78776954Y-59516209D01*
X78777474Y-59515805D01*
X78798094Y-59499772D01*
X78815569Y-59486188D01*
X78822149Y-59481075D01*
X78835086Y-59471258D01*
X78854926Y-59456442D01*
X78870329Y-59445039D01*
X78891963Y-59428928D01*
X78910268Y-59415027D01*
X78918413Y-59408646D01*
X78943362Y-59388810D01*
X78975827Y-59363546D01*
X79011350Y-59336294D01*
X79045479Y-59310490D01*
X79049409Y-59307550D01*
X79074613Y-59288555D01*
X79101149Y-59268325D01*
X79107079Y-59263763D01*
X79132842Y-59243911D01*
X79151516Y-59229607D01*
X79167797Y-59217277D01*
X79186376Y-59203349D01*
X79190345Y-59200382D01*
X79224715Y-59174407D01*
X79265468Y-59143149D01*
X79307357Y-59110641D01*
X79327802Y-59094620D01*
X79344697Y-59081622D01*
X79367428Y-59064491D01*
X79382311Y-59053423D01*
X79407025Y-59035064D01*
X79427837Y-59019310D01*
X79450667Y-59001644D01*
X79468752Y-58987502D01*
X79483682Y-58976016D01*
X79506301Y-58958859D01*
X79532353Y-58939258D01*
X79539264Y-58934083D01*
X79565508Y-58914348D01*
X79589433Y-58896170D01*
X79606783Y-58882789D01*
X79609724Y-58880468D01*
X79623066Y-58870067D01*
X79645182Y-58853060D01*
X79672968Y-58831827D01*
X79702491Y-58809376D01*
X79732811Y-58786323D01*
X79760488Y-58765189D01*
X79782414Y-58748352D01*
X79795277Y-58738355D01*
X79813400Y-58724372D01*
X79835846Y-58707515D01*
X79843363Y-58701968D01*
X79866527Y-58684622D01*
X79888977Y-58667280D01*
X79894568Y-58662834D01*
X79914173Y-58647215D01*
X79934437Y-58631437D01*
X79958673Y-58612959D01*
X79990187Y-58589249D01*
X80006525Y-58577020D01*
X80032769Y-58557289D01*
X80056696Y-58539121D01*
X80074050Y-58525753D01*
X80076992Y-58523437D01*
X80091904Y-58511872D01*
X80114512Y-58494654D01*
X80140560Y-58475022D01*
X80147461Y-58469853D01*
X80173975Y-58449905D01*
X80198426Y-58431302D01*
X80216421Y-58417393D01*
X80219412Y-58415028D01*
X80248790Y-58391761D01*
X80275773Y-58370812D01*
X80305609Y-58348141D01*
X80332978Y-58327606D01*
X80359225Y-58307897D01*
X80383164Y-58289782D01*
X80400537Y-58276487D01*
X80403490Y-58274188D01*
X80430631Y-58253002D01*
X80452023Y-58236569D01*
X80473590Y-58220376D01*
X80489931Y-58208265D01*
X80513147Y-58190948D01*
X80534517Y-58174748D01*
X80544439Y-58167069D01*
X80584856Y-58135502D01*
X80626852Y-58103092D01*
X80665187Y-58073872D01*
X80681897Y-58061306D01*
X80701393Y-58046709D01*
X80717742Y-58034355D01*
X80735636Y-58020671D01*
X80759768Y-58002088D01*
X80765163Y-57997927D01*
X80790304Y-57978694D01*
X80816876Y-57958603D01*
X80822833Y-57954140D01*
X80855690Y-57929363D01*
X80889525Y-57903464D01*
X80920623Y-57879315D01*
X80945274Y-57859789D01*
X80953779Y-57852856D01*
X80966735Y-57842811D01*
X80986708Y-57828039D01*
X81002009Y-57817007D01*
X81023816Y-57801214D01*
X81042203Y-57787473D01*
X81050239Y-57781157D01*
X81070437Y-57764898D01*
X81098880Y-57742626D01*
X81131855Y-57717215D01*
X81165649Y-57691537D01*
X81181185Y-57679874D01*
X81223096Y-57648154D01*
X81274475Y-57608568D01*
X81280378Y-57603987D01*
X81293315Y-57594170D01*
X81313156Y-57579354D01*
X81328558Y-57567951D01*
X81350979Y-57551308D01*
X81370821Y-57536404D01*
X81379932Y-57529444D01*
X81397997Y-57515528D01*
X81415114Y-57502458D01*
X81434657Y-57487299D01*
X81455611Y-57470616D01*
X81456511Y-57469887D01*
X81475404Y-57455023D01*
X81499571Y-57436587D01*
X81514087Y-57425749D01*
X81538800Y-57407390D01*
X81559613Y-57391634D01*
X81582442Y-57373969D01*
X81600527Y-57359827D01*
X81615457Y-57348340D01*
X81638077Y-57331184D01*
X81664129Y-57311582D01*
X81671040Y-57306408D01*
X81697283Y-57286673D01*
X81721209Y-57268495D01*
X81738558Y-57255114D01*
X81741499Y-57252792D01*
X81800402Y-57206506D01*
X81849010Y-57169669D01*
X81888076Y-57141745D01*
X81918355Y-57122191D01*
X81939547Y-57110928D01*
X81965507Y-57098654D01*
X81997368Y-57082576D01*
X82027106Y-57066781D01*
X82066048Y-57048537D01*
X82113232Y-57031175D01*
X82164404Y-57015831D01*
X82215310Y-57003647D01*
X82261695Y-56995759D01*
X82299305Y-56993305D01*
X82301513Y-56993367D01*
G37*
G36*
X75532172Y-62126054D02*
G01*
X75532993Y-62127947D01*
X75532417Y-62135612D01*
X75531749Y-62135992D01*
X75524255Y-62132596D01*
X75522201Y-62130839D01*
X75520995Y-62124056D01*
X75523446Y-62122793D01*
X75532172Y-62126054D01*
G37*
G36*
X75504804Y-62110253D02*
G01*
X75505625Y-62112146D01*
X75505048Y-62119811D01*
X75504381Y-62120191D01*
X75496887Y-62116795D01*
X75494833Y-62115038D01*
X75493627Y-62108255D01*
X75496078Y-62106992D01*
X75504804Y-62110253D01*
G37*
G36*
X75470099Y-62094675D02*
G01*
X75478695Y-62099301D01*
X75479335Y-62100367D01*
X75474596Y-62104949D01*
X75472991Y-62105468D01*
X75464590Y-62101791D01*
X75463754Y-62099776D01*
X75467010Y-62094298D01*
X75470099Y-62094675D01*
G37*
G36*
X75400659Y-62063484D02*
G01*
X75422212Y-62070291D01*
X75441131Y-62079130D01*
X75452242Y-62087459D01*
X75453245Y-62089338D01*
X75451360Y-62094828D01*
X75439862Y-62094194D01*
X75416838Y-62087324D01*
X75416327Y-62087149D01*
X75398305Y-62078998D01*
X75387381Y-62070527D01*
X75385145Y-62064135D01*
X75393184Y-62062224D01*
X75400659Y-62063484D01*
G37*
G04 #@! TD*
D10*
G04 #@! TO.C,R1*
X130706500Y-82804000D03*
X128881500Y-82804000D03*
G04 #@! TD*
D11*
G04 #@! TO.C,JP3*
X140208000Y-80264000D03*
D12*
X140208000Y-77724000D03*
G04 #@! TD*
D11*
G04 #@! TO.C,JP2*
X140208000Y-73914000D03*
D12*
X140208000Y-71374000D03*
G04 #@! TD*
G04 #@! TO.C,J2*
X85344000Y-59436000D03*
G04 #@! TD*
D13*
G04 #@! TO.C,U2*
X90370000Y-70070000D03*
X75130000Y-70070000D03*
X90370000Y-72610000D03*
X75130000Y-72610000D03*
X90370000Y-75150000D03*
X75130000Y-75150000D03*
X90370000Y-77690000D03*
X75130000Y-77690000D03*
X90370000Y-80230000D03*
X75130000Y-80230000D03*
X90370000Y-82770000D03*
X75130000Y-82770000D03*
X90370000Y-85310000D03*
X75130000Y-85310000D03*
X90370000Y-87850000D03*
X75130000Y-87850000D03*
X90370000Y-90390000D03*
X75130000Y-90390000D03*
X90370000Y-92930000D03*
X75130000Y-92930000D03*
X90370000Y-95470000D03*
X75130000Y-95470000D03*
X90370000Y-98010000D03*
X75130000Y-98010000D03*
X90370000Y-100550000D03*
X75130000Y-100550000D03*
X90370000Y-103090000D03*
X75130000Y-103090000D03*
X90370000Y-105630000D03*
X75130000Y-105630000D03*
X90370000Y-108170000D03*
X75130000Y-108170000D03*
X90370000Y-110710000D03*
X75130000Y-110710000D03*
X90370000Y-113250000D03*
X75130000Y-113250000D03*
X90370000Y-115790000D03*
X75130000Y-115790000D03*
X90370000Y-118330000D03*
X75130000Y-118330000D03*
X90370000Y-120870000D03*
X75130000Y-120870000D03*
X90370000Y-123410000D03*
X75130000Y-123410000D03*
X90370000Y-125950000D03*
X75130000Y-125950000D03*
X90370000Y-128490000D03*
X75130000Y-128490000D03*
G04 #@! TD*
D11*
G04 #@! TO.C,JP1*
X140208000Y-67564000D03*
D12*
X140208000Y-65024000D03*
G04 #@! TD*
D14*
G04 #@! TO.C,U3*
X121000000Y-89200000D03*
X120200000Y-89200000D03*
X119400000Y-89200000D03*
X118600000Y-89200000D03*
X117800000Y-89200000D03*
X117000000Y-89200000D03*
X116200000Y-89200000D03*
X115400000Y-89200000D03*
X114600000Y-89200000D03*
X113800000Y-89200000D03*
X113000000Y-89200000D03*
D15*
X111300000Y-87500000D03*
X111300000Y-86700000D03*
X111300000Y-85900000D03*
X111300000Y-85100000D03*
X111300000Y-84300000D03*
X111300000Y-83500000D03*
X111300000Y-82700000D03*
X111300000Y-81900000D03*
X111300000Y-81100000D03*
X111300000Y-80300000D03*
X111300000Y-79500000D03*
D14*
X113000000Y-77800000D03*
X113800000Y-77800000D03*
X114600000Y-77800000D03*
X115400000Y-77800000D03*
X116200000Y-77800000D03*
X117000000Y-77800000D03*
X117800000Y-77800000D03*
X118600000Y-77800000D03*
X119400000Y-77800000D03*
X120200000Y-77800000D03*
X121000000Y-77800000D03*
D15*
X122700000Y-79500000D03*
X122700000Y-80300000D03*
X122700000Y-81100000D03*
X122700000Y-81900000D03*
X122700000Y-82700000D03*
X122700000Y-83500000D03*
X122700000Y-84300000D03*
X122700000Y-85100000D03*
X122700000Y-85900000D03*
X122700000Y-86700000D03*
X122700000Y-87500000D03*
G04 #@! TD*
D16*
G04 #@! TO.C,U1*
X72010000Y-128500000D03*
X87250000Y-70080000D03*
X72010000Y-125960000D03*
X87250000Y-72620000D03*
X72010000Y-123420000D03*
X87250000Y-75160000D03*
X72010000Y-120880000D03*
X87250000Y-77700000D03*
X72010000Y-118340000D03*
X87250000Y-80240000D03*
X72010000Y-115800000D03*
X87250000Y-82780000D03*
X72010000Y-113260000D03*
X87250000Y-85320000D03*
X72010000Y-110720000D03*
X87250000Y-87860000D03*
X72010000Y-108180000D03*
X87250000Y-90400000D03*
X72010000Y-105640000D03*
X87250000Y-92940000D03*
X72010000Y-103100000D03*
X87250000Y-95480000D03*
X72010000Y-100560000D03*
X87250000Y-98020000D03*
X72010000Y-98020000D03*
X87250000Y-100560000D03*
X72010000Y-95480000D03*
X87250000Y-103100000D03*
X72010000Y-92940000D03*
X87250000Y-105640000D03*
X72010000Y-90400000D03*
X87250000Y-108180000D03*
X72010000Y-87860000D03*
X87250000Y-110720000D03*
X72010000Y-85320000D03*
X87250000Y-113260000D03*
X72010000Y-82780000D03*
X87250000Y-115800000D03*
X72010000Y-80240000D03*
X87250000Y-118340000D03*
X72010000Y-77700000D03*
X87250000Y-120880000D03*
X72010000Y-75160000D03*
X87250000Y-123420000D03*
X72010000Y-72620000D03*
X87250000Y-125960000D03*
X72010000Y-70080000D03*
D17*
X87250000Y-128500000D03*
G04 #@! TD*
D18*
G04 #@! TO.C,R2*
X115316000Y-69445500D03*
X115316000Y-71270500D03*
G04 #@! TD*
D11*
G04 #@! TO.C,J1*
X143760000Y-61290000D03*
X143760000Y-58750000D03*
X141220000Y-61290000D03*
X141220000Y-58750000D03*
X138680000Y-61290000D03*
X138680000Y-58750000D03*
X136140000Y-61290000D03*
X136140000Y-58750000D03*
X133600000Y-61290000D03*
X133600000Y-58750000D03*
X131060000Y-61290000D03*
X131060000Y-58750000D03*
X128520000Y-61290000D03*
X128520000Y-58750000D03*
X125980000Y-61290000D03*
X125980000Y-58750000D03*
X123440000Y-61290000D03*
X123440000Y-58750000D03*
X120900000Y-61290000D03*
X120900000Y-58750000D03*
X118360000Y-61290000D03*
X118360000Y-58750000D03*
X115820000Y-61290000D03*
X115820000Y-58750000D03*
X113280000Y-61290000D03*
X113280000Y-58750000D03*
X110740000Y-61290000D03*
X110740000Y-58750000D03*
X108200000Y-61290000D03*
X108200000Y-58750000D03*
X105660000Y-61290000D03*
X105660000Y-58750000D03*
X103120000Y-61290000D03*
X103120000Y-58750000D03*
X100580000Y-61290000D03*
X100580000Y-58750000D03*
X98040000Y-61290000D03*
X98040000Y-58750000D03*
X95500000Y-61290000D03*
D12*
X95500000Y-58750000D03*
G04 #@! TD*
D19*
G04 #@! TO.C,C3*
X113792000Y-95604500D03*
X113792000Y-93879500D03*
G04 #@! TD*
D20*
G04 #@! TO.C,C2*
X102007500Y-82042000D03*
X103732500Y-82042000D03*
G04 #@! TD*
D21*
G04 #@! TO.C,C1*
X118500000Y-69495500D03*
X118500000Y-71220500D03*
G04 #@! TD*
M02*
