M48
; DRILL file {KiCad 5.1.9-73d0e3b20d~88~ubuntu20.10.1} date Sat Apr 17 09:46:53 2021
; FORMAT={-:-/ absolute / inch / decimal}
; #@! TF.CreationDate,2021-04-17T09:46:53+01:00
; #@! TF.GenerationSoftware,Kicad,Pcbnew,5.1.9-73d0e3b20d~88~ubuntu20.10.1
; #@! TF.FileFunction,Plated,1,2,PTH
FMAT,2
INCH
T1C0.0157
T2C0.0315
T3C0.0394
%
G90
G05
T1
X3.2087Y-3.4547
X3.2185Y-2.7953
X3.2185Y-3.1201
X3.2185Y-3.3563
X3.2677Y-2.9528
X3.5335Y-2.372
X3.7303Y-2.815
X3.8287Y-2.5886
X3.8583Y-3.2677
X3.8583Y-3.3563
X3.9173Y-3.1299
X4.1831Y-3.1201
X4.2224Y-3.3169
X4.3012Y-3.1299
X4.3701Y-2.9331
X4.4488Y-2.9528
X4.4587Y-3.2677
X4.4783Y-3.1496
X4.498Y-2.5689
X4.5079Y-3.189
X4.5177Y-3.1299
X4.5177Y-3.376
X4.5433Y-3.5965
X4.5735Y-3.634
X4.5768Y-3.1329
X4.6063Y-3.2874
X4.6063Y-3.6122
X4.6654Y-3.5827
X4.7037Y-2.8543
X4.7343Y-3.3858
X4.7343Y-3.6122
X4.7441Y-3.2579
X4.7638Y-3.1299
X4.9311Y-3.1299
X4.9606Y-3.3465
X4.9902Y-3.189
X5.0197Y-3.3169
X5.0492Y-3.3957
X5.0492Y-3.4547
X5.0886Y-3.4252
X5.128Y-2.7165
X5.4429Y-3.1693
X5.502Y-2.5984
T2
X2.835Y-2.7591
X2.835Y-2.8591
X2.835Y-2.9591
X2.835Y-3.0591
X2.835Y-3.1591
X2.835Y-3.2591
X2.835Y-3.3591
X2.835Y-3.4591
X2.835Y-3.5591
X2.835Y-3.6591
X2.835Y-3.7591
X2.835Y-3.8591
X2.835Y-3.9591
X2.835Y-4.0591
X2.835Y-4.1591
X2.835Y-4.2591
X2.835Y-4.3591
X2.835Y-4.4591
X2.835Y-4.5591
X2.835Y-4.6591
X2.835Y-4.7591
X2.835Y-4.8591
X2.835Y-4.9591
X2.835Y-5.0591
X2.9579Y-2.7587
X2.9579Y-2.8587
X2.9579Y-2.9587
X2.9579Y-3.0587
X2.9579Y-3.1587
X2.9579Y-3.2587
X2.9579Y-3.3587
X2.9579Y-3.4587
X2.9579Y-3.5587
X2.9579Y-3.6587
X2.9579Y-3.7587
X2.9579Y-3.8587
X2.9579Y-3.9587
X2.9579Y-4.0587
X2.9579Y-4.1587
X2.9579Y-4.2587
X2.9579Y-4.3587
X2.9579Y-4.4587
X2.9579Y-4.5587
X2.9579Y-4.6587
X2.9579Y-4.7587
X2.9579Y-4.8587
X2.9579Y-4.9587
X2.9579Y-5.0587
X3.435Y-2.7591
X3.435Y-2.8591
X3.435Y-2.9591
X3.435Y-3.0591
X3.435Y-3.1591
X3.435Y-3.2591
X3.435Y-3.3591
X3.435Y-3.4591
X3.435Y-3.5591
X3.435Y-3.6591
X3.435Y-3.7591
X3.435Y-3.8591
X3.435Y-3.9591
X3.435Y-4.0591
X3.435Y-4.1591
X3.435Y-4.2591
X3.435Y-4.3591
X3.435Y-4.4591
X3.435Y-4.5591
X3.435Y-4.6591
X3.435Y-4.7591
X3.435Y-4.8591
X3.435Y-4.9591
X3.435Y-5.0591
X3.5579Y-2.7587
X3.5579Y-2.8587
X3.5579Y-2.9587
X3.5579Y-3.0587
X3.5579Y-3.1587
X3.5579Y-3.2587
X3.5579Y-3.3587
X3.5579Y-3.4587
X3.5579Y-3.5587
X3.5579Y-3.6587
X3.5579Y-3.7587
X3.5579Y-3.8587
X3.5579Y-3.9587
X3.5579Y-4.0587
X3.5579Y-4.1587
X3.5579Y-4.2587
X3.5579Y-4.3587
X3.5579Y-4.4587
X3.5579Y-4.5587
X3.5579Y-4.6587
X3.5579Y-4.7587
X3.5579Y-4.8587
X3.5579Y-4.9587
X3.5579Y-5.0587
T3
X3.3268Y-2.3228
X3.4268Y-2.3228
X3.7598Y-2.313
X3.7598Y-2.413
X3.8598Y-2.313
X3.8598Y-2.413
X3.9598Y-2.313
X3.9598Y-2.413
X4.0598Y-2.313
X4.0598Y-2.413
X4.1598Y-2.313
X4.1598Y-2.413
X4.2598Y-2.313
X4.2598Y-2.413
X4.3598Y-2.313
X4.3598Y-2.413
X4.4598Y-2.313
X4.4598Y-2.413
X4.5598Y-2.313
X4.5598Y-2.413
X4.6598Y-2.313
X4.6598Y-2.413
X4.7598Y-2.313
X4.7598Y-2.413
X4.8598Y-2.313
X4.8598Y-2.413
X4.9598Y-2.313
X4.9598Y-2.413
X5.0598Y-2.313
X5.0598Y-2.413
X5.1598Y-2.313
X5.1598Y-2.413
X5.2598Y-2.313
X5.2598Y-2.413
X5.3598Y-2.313
X5.3598Y-2.413
X5.4598Y-2.313
X5.4598Y-2.413
X5.5598Y-2.313
X5.5598Y-2.413
X5.6598Y-2.313
X5.6598Y-2.413
T0
M30
