M48
INCH,TZ
T1C0.0157
T2C0.0315
T3C0.0394
%
G90
G05
T1
X32087Y-34547
X32185Y-27953
X32185Y-31201
X32185Y-33563
X32677Y-29528
X35335Y-23720
X37303Y-28150
X38287Y-25886
X38583Y-32677
X38583Y-33563
X39173Y-31299
X41300Y-29100
X41831Y-31201
X42000Y-32500
X42100Y-30300
X42224Y-33169
X43012Y-31299
X43701Y-29331
X44488Y-29528
X44587Y-32677
X44783Y-31496
X44980Y-25689
X45079Y-31890
X45177Y-31299
X45177Y-33760
X45433Y-35965
X45735Y-36340
X45768Y-31329
X46063Y-32874
X46063Y-36122
X46654Y-35827
X47037Y-28543
X47343Y-33858
X47343Y-36122
X47441Y-32579
X47638Y-31299
X49311Y-31299
X49606Y-33465
X49902Y-31890
X50197Y-33169
X50492Y-33957
X50492Y-34547
X50886Y-34252
X51280Y-27165
X54429Y-31693
X54500Y-26200
T2
X28350Y-27591
X28350Y-28591
X28350Y-29591
X28350Y-30591
X28350Y-31591
X28350Y-32591
X28350Y-33591
X28350Y-34591
X28350Y-35591
X28350Y-36591
X28350Y-37591
X28350Y-38591
X28350Y-39591
X28350Y-40591
X28350Y-41591
X28350Y-42591
X28350Y-43591
X28350Y-44591
X28350Y-45591
X28350Y-46591
X28350Y-47591
X28350Y-48591
X28350Y-49591
X28350Y-50591
X29579Y-27587
X29579Y-28587
X29579Y-29587
X29579Y-30587
X29579Y-31587
X29579Y-32587
X29579Y-33587
X29579Y-34587
X29579Y-35587
X29579Y-36587
X29579Y-37587
X29579Y-38587
X29579Y-39587
X29579Y-40587
X29579Y-41587
X29579Y-42587
X29579Y-43587
X29579Y-44587
X29579Y-45587
X29579Y-46587
X29579Y-47587
X29579Y-48587
X29579Y-49587
X29579Y-50587
X34350Y-27591
X34350Y-28591
X34350Y-29591
X34350Y-30591
X34350Y-31591
X34350Y-32591
X34350Y-33591
X34350Y-34591
X34350Y-35591
X34350Y-36591
X34350Y-37591
X34350Y-38591
X34350Y-39591
X34350Y-40591
X34350Y-41591
X34350Y-42591
X34350Y-43591
X34350Y-44591
X34350Y-45591
X34350Y-46591
X34350Y-47591
X34350Y-48591
X34350Y-49591
X34350Y-50591
X35579Y-27587
X35579Y-28587
X35579Y-29587
X35579Y-30587
X35579Y-31587
X35579Y-32587
X35579Y-33587
X35579Y-34587
X35579Y-35587
X35579Y-36587
X35579Y-37587
X35579Y-38587
X35579Y-39587
X35579Y-40587
X35579Y-41587
X35579Y-42587
X35579Y-43587
X35579Y-44587
X35579Y-45587
X35579Y-46587
X35579Y-47587
X35579Y-48587
X35579Y-49587
X35579Y-50587
T3
X33600Y-23400
X37598Y-23130
X37598Y-24130
X38598Y-23130
X38598Y-24130
X39598Y-23130
X39598Y-24130
X40598Y-23130
X40598Y-24130
X41598Y-23130
X41598Y-24130
X42598Y-23130
X42598Y-24130
X43598Y-23130
X43598Y-24130
X44598Y-23130
X44598Y-24130
X45598Y-23130
X45598Y-24130
X46598Y-23130
X46598Y-24130
X47598Y-23130
X47598Y-24130
X48598Y-23130
X48598Y-24130
X49598Y-23130
X49598Y-24130
X50598Y-23130
X50598Y-24130
X51598Y-23130
X51598Y-24130
X52598Y-23130
X52598Y-24130
X53598Y-23130
X53598Y-24130
X54598Y-23130
X54598Y-24130
X55200Y-25600
X55200Y-26600
X55200Y-28100
X55200Y-29100
X55200Y-30600
X55200Y-31600
X55598Y-23130
X55598Y-24130
X56598Y-23130
X56598Y-24130
T0
M30
