%TF.GenerationSoftware,KiCad,Pcbnew,5.1.10-1.fc34*%
%TF.CreationDate,2021-06-03T08:00:43+01:00*%
%TF.ProjectId,A1000,41313030-302e-46b6-9963-61645f706362,rev?*%
%TF.SameCoordinates,Original*%
%TF.FileFunction,Legend,Bot*%
%TF.FilePolarity,Positive*%
%FSLAX46Y46*%
G04 Gerber Fmt 4.6, Leading zero omitted, Abs format (unit mm)*
G04 Created by KiCad (PCBNEW 5.1.10-1.fc34) date 2021-06-03 08:00:43*
%MOMM*%
%LPD*%
G01*
G04 APERTURE LIST*
%ADD10C,0.120000*%
%ADD11C,0.150000*%
G04 APERTURE END LIST*
D10*
%TO.C,U2*%
X73630001Y-129590000D02*
X73630000Y-68970000D01*
X73630000Y-68970000D02*
X91869999Y-68970000D01*
X91869999Y-68970000D02*
X91870000Y-129590000D01*
X91870000Y-129590000D02*
X85790000Y-129590000D01*
X85790000Y-129590000D02*
X85790000Y-129230000D01*
X85790000Y-129230000D02*
X79710001Y-129230000D01*
X79710001Y-129230000D02*
X79710001Y-129590000D01*
X79710001Y-129590000D02*
X73630001Y-129590000D01*
%TO.C,C2*%
X102646267Y-78990000D02*
X102353733Y-78990000D01*
X102646267Y-80010000D02*
X102353733Y-80010000D01*
%TO.C,C1*%
X119010000Y-70646267D02*
X119010000Y-70353733D01*
X117990000Y-70646267D02*
X117990000Y-70353733D01*
%TO.C,U2*%
D11*
X83511904Y-130042380D02*
X83511904Y-130851904D01*
X83464285Y-130947142D01*
X83416666Y-130994761D01*
X83321428Y-131042380D01*
X83130952Y-131042380D01*
X83035714Y-130994761D01*
X82988095Y-130947142D01*
X82940476Y-130851904D01*
X82940476Y-130042380D01*
X82511904Y-130137619D02*
X82464285Y-130090000D01*
X82369047Y-130042380D01*
X82130952Y-130042380D01*
X82035714Y-130090000D01*
X81988095Y-130137619D01*
X81940476Y-130232857D01*
X81940476Y-130328095D01*
X81988095Y-130470952D01*
X82559523Y-131042380D01*
X81940476Y-131042380D01*
%TO.C,C2*%
X102666666Y-78427142D02*
X102714285Y-78474761D01*
X102857142Y-78522380D01*
X102952380Y-78522380D01*
X103095238Y-78474761D01*
X103190476Y-78379523D01*
X103238095Y-78284285D01*
X103285714Y-78093809D01*
X103285714Y-77950952D01*
X103238095Y-77760476D01*
X103190476Y-77665238D01*
X103095238Y-77570000D01*
X102952380Y-77522380D01*
X102857142Y-77522380D01*
X102714285Y-77570000D01*
X102666666Y-77617619D01*
X102285714Y-77617619D02*
X102238095Y-77570000D01*
X102142857Y-77522380D01*
X101904761Y-77522380D01*
X101809523Y-77570000D01*
X101761904Y-77617619D01*
X101714285Y-77712857D01*
X101714285Y-77808095D01*
X101761904Y-77950952D01*
X102333333Y-78522380D01*
X101714285Y-78522380D01*
%TO.C,C1*%
X120287142Y-70333333D02*
X120334761Y-70285714D01*
X120382380Y-70142857D01*
X120382380Y-70047619D01*
X120334761Y-69904761D01*
X120239523Y-69809523D01*
X120144285Y-69761904D01*
X119953809Y-69714285D01*
X119810952Y-69714285D01*
X119620476Y-69761904D01*
X119525238Y-69809523D01*
X119430000Y-69904761D01*
X119382380Y-70047619D01*
X119382380Y-70142857D01*
X119430000Y-70285714D01*
X119477619Y-70333333D01*
X120382380Y-71285714D02*
X120382380Y-70714285D01*
X120382380Y-71000000D02*
X119382380Y-71000000D01*
X119525238Y-70904761D01*
X119620476Y-70809523D01*
X119668095Y-70714285D01*
%TD*%
M02*
