M48
; DRILL file {KiCad 5.99.0-unknown-ca42f31bb5~131~ubuntu21.04.1} date Sun Aug 22 07:35:22 2021
; FORMAT={-:-/ absolute / inch / decimal}
; #@! TF.CreationDate,2021-08-22T07:35:22+01:00
; #@! TF.GenerationSoftware,Kicad,Pcbnew,5.99.0-unknown-ca42f31bb5~131~ubuntu21.04.1
; #@! TF.FileFunction,Plated,1,2,PTH
FMAT,2
INCH
; #@! TA.AperFunction,Plated,PTH,ViaDrill
T1C0.0157
; #@! TA.AperFunction,Plated,PTH,ComponentDrill
T2C0.0315
; #@! TA.AperFunction,Plated,PTH,ComponentDrill
T3C0.0394
%
G90
G05
T1
X2.74Y-4.89
X3.14Y-2.54
X3.15Y-3.1
X3.17Y-3.25
X3.18Y-3.72
X3.18Y-4.96
X3.34Y-2.83
X3.52Y-2.6
X3.67Y-4.96
X3.7Y-2.93
X3.72Y-3.36
X3.74Y-2.52
X3.77Y-2.59
X3.8Y-3.36
X3.98Y-2.99
X4.15Y-3.07
X4.1682Y-3.3827
X4.18Y-2.91
X4.19Y-2.78
X4.19Y-3.35
X4.2Y-3.4104
X4.23Y-3.1
X4.29Y-3.45
X4.38Y-3.64
X4.4Y-3.57
X4.42Y-3.61
X4.44Y-2.99
X4.48Y-3.764
X4.4971Y-3.1929
X4.5Y-2.88
X4.55Y-2.59
X4.6063Y-3.5863
X4.64Y-3.6433
X4.6542Y-3.35
X4.6654Y-2.804
X4.67Y-3.76
X4.7Y-3.6
X4.76Y-3.35
X4.97Y-3.14
X5.01Y-2.95
X5.11Y-3.12
X5.31Y-3.31
X5.36Y-3.52
T2
X2.835Y-2.7591
X2.835Y-2.8591
X2.835Y-2.9591
X2.835Y-3.0591
X2.835Y-3.1591
X2.835Y-3.2591
X2.835Y-3.3591
X2.835Y-3.4591
X2.835Y-3.5591
X2.835Y-3.6591
X2.835Y-3.7591
X2.835Y-3.8591
X2.835Y-3.9591
X2.835Y-4.0591
X2.835Y-4.1591
X2.835Y-4.2591
X2.835Y-4.3591
X2.835Y-4.4591
X2.835Y-4.5591
X2.835Y-4.6591
X2.835Y-4.7591
X2.835Y-4.8591
X2.835Y-4.9591
X2.835Y-5.0591
X2.9579Y-2.7587
X2.9579Y-2.8587
X2.9579Y-2.9587
X2.9579Y-3.0587
X2.9579Y-3.1587
X2.9579Y-3.2587
X2.9579Y-3.3587
X2.9579Y-3.4587
X2.9579Y-3.5587
X2.9579Y-3.6587
X2.9579Y-3.7587
X2.9579Y-3.8587
X2.9579Y-3.9587
X2.9579Y-4.0587
X2.9579Y-4.1587
X2.9579Y-4.2587
X2.9579Y-4.3587
X2.9579Y-4.4587
X2.9579Y-4.5587
X2.9579Y-4.6587
X2.9579Y-4.7587
X2.9579Y-4.8587
X2.9579Y-4.9587
X2.9579Y-5.0587
X3.435Y-2.7591
X3.435Y-2.8591
X3.435Y-2.9591
X3.435Y-3.0591
X3.435Y-3.1591
X3.435Y-3.2591
X3.435Y-3.3591
X3.435Y-3.4591
X3.435Y-3.5591
X3.435Y-3.6591
X3.435Y-3.7591
X3.435Y-3.8591
X3.435Y-3.9591
X3.435Y-4.0591
X3.435Y-4.1591
X3.435Y-4.2591
X3.435Y-4.3591
X3.435Y-4.4591
X3.435Y-4.5591
X3.435Y-4.6591
X3.435Y-4.7591
X3.435Y-4.8591
X3.435Y-4.9591
X3.435Y-5.0591
X3.5579Y-2.7587
X3.5579Y-2.8587
X3.5579Y-2.9587
X3.5579Y-3.0587
X3.5579Y-3.1587
X3.5579Y-3.2587
X3.5579Y-3.3587
X3.5579Y-3.4587
X3.5579Y-3.5587
X3.5579Y-3.6587
X3.5579Y-3.7587
X3.5579Y-3.8587
X3.5579Y-3.9587
X3.5579Y-4.0587
X3.5579Y-4.1587
X3.5579Y-4.2587
X3.5579Y-4.3587
X3.5579Y-4.4587
X3.5579Y-4.5587
X3.5579Y-4.6587
X3.5579Y-4.7587
X3.5579Y-4.8587
X3.5579Y-4.9587
X3.5579Y-5.0587
T3
X3.36Y-2.34
X3.7598Y-2.313
X3.7598Y-2.413
X3.8598Y-2.313
X3.8598Y-2.413
X3.9598Y-2.313
X3.9598Y-2.413
X4.0598Y-2.313
X4.0598Y-2.413
X4.1598Y-2.313
X4.1598Y-2.413
X4.2598Y-2.313
X4.2598Y-2.413
X4.3598Y-2.313
X4.3598Y-2.413
X4.4598Y-2.313
X4.4598Y-2.413
X4.5598Y-2.313
X4.5598Y-2.413
X4.6598Y-2.313
X4.6598Y-2.413
X4.7598Y-2.313
X4.7598Y-2.413
X4.8598Y-2.313
X4.8598Y-2.413
X4.9598Y-2.313
X4.9598Y-2.413
X5.0598Y-2.313
X5.0598Y-2.413
X5.1598Y-2.313
X5.1598Y-2.413
X5.2598Y-2.313
X5.2598Y-2.413
X5.3598Y-2.313
X5.3598Y-2.413
X5.4598Y-2.313
X5.4598Y-2.413
X5.52Y-2.56
X5.52Y-2.66
X5.52Y-2.81
X5.52Y-2.91
X5.52Y-3.06
X5.52Y-3.16
X5.5598Y-2.313
X5.5598Y-2.413
X5.6598Y-2.313
X5.6598Y-2.413
T0
M30
